<?xml version="1.0" encoding="utf-8" standalone="no"?>
<!DOCTYPE svg PUBLIC "-//W3C//DTD SVG 1.1//EN"
  "http://www.w3.org/Graphics/SVG/1.1/DTD/svg11.dtd">
<svg xmlns:xlink="http://www.w3.org/1999/xlink" width="526.831251pt" height="336.59546pt" viewBox="0 0 526.831251 336.59546" xmlns="http://www.w3.org/2000/svg" version="1.1">
 <metadata>
  <rdf:RDF xmlns:dc="http://purl.org/dc/elements/1.1/" xmlns:cc="http://creativecommons.org/ns#" xmlns:rdf="http://www.w3.org/1999/02/22-rdf-syntax-ns#">
   <cc:Work>
    <dc:type rdf:resource="http://purl.org/dc/dcmitype/StillImage"/>
    <dc:date>2026-05-23T23:52:08.105357</dc:date>
    <dc:format>image/svg+xml</dc:format>
    <dc:creator>
     <cc:Agent>
      <dc:title>Matplotlib v3.10.9, https://matplotlib.org/</dc:title>
     </cc:Agent>
    </dc:creator>
   </cc:Work>
  </rdf:RDF>
 </metadata>
 <defs>
  <style type="text/css">*{stroke-linejoin: round; stroke-linecap: butt}</style>
 </defs>
 <g id="figure_1">
  <g id="patch_1">
   <path d="M 0 336.59546 
L 526.831251 336.59546 
L 526.831251 0 
L 0 0 
z
" style="fill: #ffffff"/>
  </g>
  <g id="axes_1">
   <g id="patch_2">
    <path d="M 34.371094 142.501011 
L 519.631251 142.501011 
L 519.631251 18.771562 
L 34.371094 18.771562 
z
" style="fill: #ffffff"/>
   </g>
   <g id="matplotlib.axis_1">
    <g id="xtick_1">
     <g id="line2d_1">
      <defs>
       <path id="mf916a788f6" d="M 0 0 
L 0 3 
" style="stroke: #000000; stroke-width: 0.8"/>
      </defs>
      <g>
       <use xlink:href="#mf916a788f6" x="56.428374" y="142.501011" style="stroke: #000000; stroke-width: 0.8"/>
      </g>
     </g>
     <g id="text_1">
      <text style="font-size: 7px; font-family: 'PingFang SC', 'Heiti SC', 'STHeiti', 'Arial Unicode MS', 'Arial', 'Helvetica', 'DejaVu Sans', sans-serif; text-anchor: middle" x="56.428374" y="154.572574" transform="rotate(-0 56.428374 154.572574)">0.0</text>
     </g>
    </g>
    <g id="xtick_2">
     <g id="line2d_2">
      <g>
       <use xlink:href="#mf916a788f6" x="114.473847" y="142.501011" style="stroke: #000000; stroke-width: 0.8"/>
      </g>
     </g>
     <g id="text_2">
      <text style="font-size: 7px; font-family: 'PingFang SC', 'Heiti SC', 'STHeiti', 'Arial Unicode MS', 'Arial', 'Helvetica', 'DejaVu Sans', sans-serif; text-anchor: middle" x="114.473847" y="154.572574" transform="rotate(-0 114.473847 154.572574)">2.5</text>
     </g>
    </g>
    <g id="xtick_3">
     <g id="line2d_3">
      <g>
       <use xlink:href="#mf916a788f6" x="172.51932" y="142.501011" style="stroke: #000000; stroke-width: 0.8"/>
      </g>
     </g>
     <g id="text_3">
      <text style="font-size: 7px; font-family: 'PingFang SC', 'Heiti SC', 'STHeiti', 'Arial Unicode MS', 'Arial', 'Helvetica', 'DejaVu Sans', sans-serif; text-anchor: middle" x="172.51932" y="154.572574" transform="rotate(-0 172.51932 154.572574)">5.0</text>
     </g>
    </g>
    <g id="xtick_4">
     <g id="line2d_4">
      <g>
       <use xlink:href="#mf916a788f6" x="230.564794" y="142.501011" style="stroke: #000000; stroke-width: 0.8"/>
      </g>
     </g>
     <g id="text_4">
      <text style="font-size: 7px; font-family: 'PingFang SC', 'Heiti SC', 'STHeiti', 'Arial Unicode MS', 'Arial', 'Helvetica', 'DejaVu Sans', sans-serif; text-anchor: middle" x="230.564794" y="154.572574" transform="rotate(-0 230.564794 154.572574)">7.5</text>
     </g>
    </g>
    <g id="xtick_5">
     <g id="line2d_5">
      <g>
       <use xlink:href="#mf916a788f6" x="288.610267" y="142.501011" style="stroke: #000000; stroke-width: 0.8"/>
      </g>
     </g>
     <g id="text_5">
      <text style="font-size: 7px; font-family: 'PingFang SC', 'Heiti SC', 'STHeiti', 'Arial Unicode MS', 'Arial', 'Helvetica', 'DejaVu Sans', sans-serif; text-anchor: middle" x="288.610267" y="154.572574" transform="rotate(-0 288.610267 154.572574)">10.0</text>
     </g>
    </g>
    <g id="xtick_6">
     <g id="line2d_6">
      <g>
       <use xlink:href="#mf916a788f6" x="346.655741" y="142.501011" style="stroke: #000000; stroke-width: 0.8"/>
      </g>
     </g>
     <g id="text_6">
      <text style="font-size: 7px; font-family: 'PingFang SC', 'Heiti SC', 'STHeiti', 'Arial Unicode MS', 'Arial', 'Helvetica', 'DejaVu Sans', sans-serif; text-anchor: middle" x="346.655741" y="154.572574" transform="rotate(-0 346.655741 154.572574)">12.5</text>
     </g>
    </g>
    <g id="xtick_7">
     <g id="line2d_7">
      <g>
       <use xlink:href="#mf916a788f6" x="404.701214" y="142.501011" style="stroke: #000000; stroke-width: 0.8"/>
      </g>
     </g>
     <g id="text_7">
      <text style="font-size: 7px; font-family: 'PingFang SC', 'Heiti SC', 'STHeiti', 'Arial Unicode MS', 'Arial', 'Helvetica', 'DejaVu Sans', sans-serif; text-anchor: middle" x="404.701214" y="154.572574" transform="rotate(-0 404.701214 154.572574)">15.0</text>
     </g>
    </g>
    <g id="xtick_8">
     <g id="line2d_8">
      <g>
       <use xlink:href="#mf916a788f6" x="462.746687" y="142.501011" style="stroke: #000000; stroke-width: 0.8"/>
      </g>
     </g>
     <g id="text_8">
      <text style="font-size: 7px; font-family: 'PingFang SC', 'Heiti SC', 'STHeiti', 'Arial Unicode MS', 'Arial', 'Helvetica', 'DejaVu Sans', sans-serif; text-anchor: middle" x="462.746687" y="154.572574" transform="rotate(-0 462.746687 154.572574)">17.5</text>
     </g>
    </g>
    <g id="text_9">
     <text style="font-size: 7.5px; font-family: 'PingFang SC', 'Heiti SC', 'STHeiti', 'Arial Unicode MS', 'Arial', 'Helvetica', 'DejaVu Sans', sans-serif; text-anchor: middle" x="277.001172" y="165.480543" transform="rotate(-0 277.001172 165.480543)">决策轮次</text>
    </g>
   </g>
   <g id="matplotlib.axis_2">
    <g id="ytick_1">
     <g id="line2d_9">
      <defs>
       <path id="m97b9ccbe02" d="M 0 0 
L -3 0 
" style="stroke: #000000; stroke-width: 0.8"/>
      </defs>
      <g>
       <use xlink:href="#m97b9ccbe02" x="34.371094" y="138.999234" style="stroke: #000000; stroke-width: 0.8"/>
      </g>
     </g>
     <g id="text_10">
      <text style="font-size: 7px; font-family: 'PingFang SC', 'Heiti SC', 'STHeiti', 'Arial Unicode MS', 'Arial', 'Helvetica', 'DejaVu Sans', sans-serif; text-anchor: end" x="27.871094" y="141.785016" transform="rotate(-0 27.871094 141.785016)">0.0</text>
     </g>
    </g>
    <g id="ytick_2">
     <g id="line2d_10">
      <g>
       <use xlink:href="#m97b9ccbe02" x="34.371094" y="115.654055" style="stroke: #000000; stroke-width: 0.8"/>
      </g>
     </g>
     <g id="text_11">
      <text style="font-size: 7px; font-family: 'PingFang SC', 'Heiti SC', 'STHeiti', 'Arial Unicode MS', 'Arial', 'Helvetica', 'DejaVu Sans', sans-serif; text-anchor: end" x="27.871094" y="118.439837" transform="rotate(-0 27.871094 118.439837)">0.2</text>
     </g>
    </g>
    <g id="ytick_3">
     <g id="line2d_11">
      <g>
       <use xlink:href="#m97b9ccbe02" x="34.371094" y="92.308876" style="stroke: #000000; stroke-width: 0.8"/>
      </g>
     </g>
     <g id="text_12">
      <text style="font-size: 7px; font-family: 'PingFang SC', 'Heiti SC', 'STHeiti', 'Arial Unicode MS', 'Arial', 'Helvetica', 'DejaVu Sans', sans-serif; text-anchor: end" x="27.871094" y="95.094658" transform="rotate(-0 27.871094 95.094658)">0.4</text>
     </g>
    </g>
    <g id="ytick_4">
     <g id="line2d_12">
      <g>
       <use xlink:href="#m97b9ccbe02" x="34.371094" y="68.963697" style="stroke: #000000; stroke-width: 0.8"/>
      </g>
     </g>
     <g id="text_13">
      <text style="font-size: 7px; font-family: 'PingFang SC', 'Heiti SC', 'STHeiti', 'Arial Unicode MS', 'Arial', 'Helvetica', 'DejaVu Sans', sans-serif; text-anchor: end" x="27.871094" y="71.749479" transform="rotate(-0 27.871094 71.749479)">0.6</text>
     </g>
    </g>
    <g id="ytick_5">
     <g id="line2d_13">
      <g>
       <use xlink:href="#m97b9ccbe02" x="34.371094" y="45.618518" style="stroke: #000000; stroke-width: 0.8"/>
      </g>
     </g>
     <g id="text_14">
      <text style="font-size: 7px; font-family: 'PingFang SC', 'Heiti SC', 'STHeiti', 'Arial Unicode MS', 'Arial', 'Helvetica', 'DejaVu Sans', sans-serif; text-anchor: end" x="27.871094" y="48.4043" transform="rotate(-0 27.871094 48.4043)">0.8</text>
     </g>
    </g>
    <g id="ytick_6">
     <g id="line2d_14">
      <g>
       <use xlink:href="#m97b9ccbe02" x="34.371094" y="22.273339" style="stroke: #000000; stroke-width: 0.8"/>
      </g>
     </g>
     <g id="text_15">
      <text style="font-size: 7px; font-family: 'PingFang SC', 'Heiti SC', 'STHeiti', 'Arial Unicode MS', 'Arial', 'Helvetica', 'DejaVu Sans', sans-serif; text-anchor: end" x="27.871094" y="25.059121" transform="rotate(-0 27.871094 25.059121)">1.0</text>
     </g>
    </g>
    <g id="text_16">
     <text style="font-size: 7.5px; font-family: 'PingFang SC', 'Heiti SC', 'STHeiti', 'Arial Unicode MS', 'Arial', 'Helvetica', 'DejaVu Sans', sans-serif; text-anchor: middle" x="13.169531" y="80.636287" transform="rotate(-90 13.169531 80.636287)">YES 概率</text>
    </g>
   </g>
   <g id="line2d_15">
    <path d="M 56.428374 84.138064 
L 102.864752 84.138064 
L 149.301131 84.138064 
L 195.73751 84.138064 
L 218.955699 84.138064 
L 265.392078 84.138064 
L 288.610267 86.472582 
L 311.828457 86.472582 
L 335.046646 86.472582 
L 358.264835 86.472582 
L 381.483025 86.472582 
L 404.701214 86.472582 
L 451.137593 86.472582 
L 474.355782 86.472582 
L 497.573971 95.810653 
" clip-path="url(#pb4cb82eb2f)" style="fill: none; stroke: #cfcece; stroke-opacity: 0.7; stroke-width: 0.5; stroke-linecap: square"/>
   </g>
   <g id="line2d_16">
    <path d="M 56.428374 93.476135 
L 102.864752 89.974359 
L 126.082942 88.8071 
L 149.301131 88.8071 
L 195.73751 88.8071 
L 242.173888 88.8071 
L 311.828457 88.8071 
L 381.483025 88.8071 
L 404.701214 88.8071 
L 427.919403 88.8071 
L 451.137593 88.8071 
L 474.355782 88.8071 
L 497.573971 88.8071 
" clip-path="url(#pb4cb82eb2f)" style="fill: none; stroke: #cfcece; stroke-opacity: 0.7; stroke-width: 0.5; stroke-linecap: square"/>
   </g>
   <g id="line2d_17">
    <path d="M 56.428374 89.974359 
L 126.082942 86.472582 
L 172.51932 92.308876 
L 195.73751 92.308876 
L 265.392078 92.308876 
L 311.828457 92.308876 
L 335.046646 92.308876 
L 358.264835 92.308876 
L 404.701214 94.643394 
L 427.919403 95.810653 
L 451.137593 98.145171 
L 474.355782 99.31243 
L 497.573971 103.981466 
" clip-path="url(#pb4cb82eb2f)" style="fill: none; stroke: #cfcece; stroke-opacity: 0.7; stroke-width: 0.5; stroke-linecap: square"/>
   </g>
   <g id="line2d_18">
    <path d="M 56.428374 94.643394 
L 79.646563 94.643394 
L 102.864752 94.643394 
L 149.301131 94.643394 
L 195.73751 94.643394 
L 218.955699 94.643394 
L 242.173888 94.643394 
L 265.392078 94.643394 
L 288.610267 94.643394 
L 311.828457 94.643394 
L 335.046646 94.643394 
L 404.701214 94.643394 
L 427.919403 94.643394 
L 497.573971 94.643394 
" clip-path="url(#pb4cb82eb2f)" style="fill: none; stroke: #cfcece; stroke-opacity: 0.7; stroke-width: 0.5; stroke-linecap: square"/>
   </g>
   <g id="line2d_19">
    <path d="M 56.428374 133.16294 
L 79.646563 121.49035 
L 126.082942 121.49035 
L 149.301131 121.49035 
L 172.51932 121.49035 
L 242.173888 121.49035 
L 311.828457 121.49035 
L 404.701214 115.654055 
L 497.573971 103.981466 
" clip-path="url(#pb4cb82eb2f)" style="fill: none; stroke: #cfcece; stroke-opacity: 0.7; stroke-width: 0.5; stroke-linecap: square"/>
   </g>
   <g id="line2d_20">
    <path d="M 56.428374 117.988573 
L 126.082942 117.988573 
L 195.73751 117.988573 
L 265.392078 117.988573 
L 311.828457 117.988573 
L 358.264835 109.817761 
L 474.355782 103.981466 
" clip-path="url(#pb4cb82eb2f)" style="fill: none; stroke: #cfcece; stroke-opacity: 0.7; stroke-width: 0.5; stroke-linecap: square"/>
   </g>
   <g id="line2d_21">
    <path d="M 56.428374 87.639841 
L 102.864752 87.639841 
L 126.082942 87.639841 
L 172.51932 87.639841 
L 195.73751 87.639841 
L 242.173888 87.639841 
L 265.392078 87.639841 
L 311.828457 87.639841 
L 335.046646 87.639841 
L 381.483025 87.639841 
L 404.701214 87.639841 
L 474.355782 87.639841 
L 497.573971 87.639841 
" clip-path="url(#pb4cb82eb2f)" style="fill: none; stroke: #cfcece; stroke-opacity: 0.7; stroke-width: 0.5; stroke-linecap: square"/>
   </g>
   <g id="line2d_22">
    <path d="M 56.428374 99.31243 
L 126.082942 96.977912 
L 149.301131 99.31243 
L 242.173888 100.479689 
L 265.392078 100.479689 
L 311.828457 100.479689 
L 335.046646 100.479689 
L 358.264835 100.479689 
L 404.701214 100.479689 
L 427.919403 100.479689 
L 451.137593 101.646948 
L 474.355782 103.981466 
" clip-path="url(#pb4cb82eb2f)" style="fill: none; stroke: #cfcece; stroke-opacity: 0.7; stroke-width: 0.5; stroke-linecap: square"/>
   </g>
   <g id="line2d_23">
    <path d="M 56.428374 57.291108 
L 126.082942 57.291108 
L 149.301131 57.291108 
L 172.51932 57.291108 
L 242.173888 57.291108 
L 265.392078 57.291108 
L 311.828457 57.291108 
L 335.046646 57.291108 
L 358.264835 57.291108 
L 404.701214 57.291108 
L 451.137593 63.127403 
L 474.355782 65.461921 
L 497.573971 103.981466 
" clip-path="url(#pb4cb82eb2f)" style="fill: none; stroke: #cfcece; stroke-opacity: 0.7; stroke-width: 0.5; stroke-linecap: square"/>
   </g>
   <g id="line2d_24">
    <path d="M 56.428374 96.977912 
L 126.082942 96.977912 
L 149.301131 96.977912 
L 172.51932 96.977912 
L 195.73751 95.810653 
L 242.173888 94.643394 
L 311.828457 94.643394 
L 335.046646 94.643394 
L 381.483025 96.977912 
L 474.355782 96.977912 
" clip-path="url(#pb4cb82eb2f)" style="fill: none; stroke: #cfcece; stroke-opacity: 0.7; stroke-width: 0.5; stroke-linecap: square"/>
   </g>
   <g id="line2d_25">
    <path d="M 56.428374 23.440598 
L 79.646563 89.974359 
L 102.864752 87.639841 
L 149.301131 74.799992 
L 172.51932 80.636287 
L 218.955699 80.636287 
L 242.173888 86.472582 
L 265.392078 86.472582 
L 311.828457 86.472582 
L 335.046646 86.472582 
L 404.701214 86.472582 
L 427.919403 86.472582 
L 451.137593 86.472582 
L 474.355782 86.472582 
L 497.573971 86.472582 
" clip-path="url(#pb4cb82eb2f)" style="fill: none; stroke: #cfcece; stroke-opacity: 0.7; stroke-width: 0.5; stroke-linecap: square"/>
   </g>
   <g id="line2d_26">
    <path d="M 56.428374 63.127403 
L 149.301131 66.629179 
L 172.51932 74.799992 
L 195.73751 74.799992 
L 242.173888 74.799992 
L 358.264835 74.799992 
L 381.483025 74.799992 
L 404.701214 74.799992 
L 427.919403 74.799992 
L 451.137593 98.145171 
L 497.573971 100.479689 
" clip-path="url(#pb4cb82eb2f)" style="fill: none; stroke: #cfcece; stroke-opacity: 0.7; stroke-width: 0.5; stroke-linecap: square"/>
   </g>
   <g id="line2d_27">
    <path d="M 56.428374 91.141617 
L 79.646563 91.141617 
L 149.301131 91.141617 
L 172.51932 91.141617 
L 218.955699 91.141617 
L 242.173888 91.141617 
L 288.610267 91.141617 
L 335.046646 91.141617 
L 358.264835 91.141617 
L 381.483025 91.141617 
L 404.701214 91.141617 
L 427.919403 91.141617 
L 451.137593 91.141617 
L 474.355782 91.141617 
L 497.573971 91.141617 
" clip-path="url(#pb4cb82eb2f)" style="fill: none; stroke: #cfcece; stroke-opacity: 0.7; stroke-width: 0.5; stroke-linecap: square"/>
   </g>
   <g id="line2d_28">
    <path d="M 56.428374 89.974359 
L 102.864752 89.974359 
L 172.51932 89.974359 
L 242.173888 89.974359 
L 288.610267 89.974359 
L 311.828457 89.974359 
L 381.483025 89.974359 
L 404.701214 89.974359 
L 427.919403 89.974359 
L 474.355782 89.974359 
L 497.573971 89.974359 
" clip-path="url(#pb4cb82eb2f)" style="fill: none; stroke: #cfcece; stroke-opacity: 0.7; stroke-width: 0.5; stroke-linecap: square"/>
   </g>
   <g id="line2d_29">
    <path d="M 56.428374 85.305323 
L 126.082942 85.305323 
L 149.301131 87.639841 
L 172.51932 88.8071 
L 195.73751 88.8071 
L 242.173888 89.390729 
L 265.392078 85.305323 
L 311.828457 85.305323 
L 335.046646 85.305323 
L 381.483025 85.305323 
L 404.701214 85.305323 
L 427.919403 87.639841 
L 474.355782 87.639841 
L 497.573971 87.639841 
" clip-path="url(#pb4cb82eb2f)" style="fill: none; stroke: #cfcece; stroke-opacity: 0.7; stroke-width: 0.5; stroke-linecap: square"/>
   </g>
   <g id="line2d_30">
    <path d="M 56.428374 86.472582 
L 126.082942 85.305323 
L 149.301131 85.305323 
L 195.73751 85.305323 
L 218.955699 85.305323 
L 242.173888 85.305323 
L 288.610267 85.305323 
L 311.828457 85.305323 
L 335.046646 85.305323 
L 381.483025 85.305323 
L 474.355782 85.305323 
L 497.573971 85.305323 
" clip-path="url(#pb4cb82eb2f)" style="fill: none; stroke: #cfcece; stroke-opacity: 0.7; stroke-width: 0.5; stroke-linecap: square"/>
   </g>
   <g id="line2d_31">
    <path d="M 56.428374 93.476135 
L 172.51932 92.308876 
L 218.955699 92.308876 
L 242.173888 94.643394 
L 311.828457 94.643394 
L 335.046646 94.643394 
L 381.483025 94.643394 
L 427.919403 94.643394 
L 451.137593 94.643394 
" clip-path="url(#pb4cb82eb2f)" style="fill: none; stroke: #cfcece; stroke-opacity: 0.7; stroke-width: 0.5; stroke-linecap: square"/>
   </g>
   <g id="line2d_32">
    <path d="M 56.428374 81.803546 
L 102.864752 81.803546 
L 149.301131 81.803546 
L 195.73751 81.803546 
L 218.955699 81.803546 
L 404.701214 81.803546 
L 474.355782 81.803546 
L 497.573971 81.803546 
" clip-path="url(#pb4cb82eb2f)" style="fill: none; stroke: #cfcece; stroke-opacity: 0.7; stroke-width: 0.5; stroke-linecap: square"/>
   </g>
   <g id="line2d_33">
    <path d="M 56.428374 93.476135 
L 102.864752 93.476135 
L 172.51932 93.476135 
L 242.173888 93.476135 
L 265.392078 94.643394 
L 288.610267 94.643394 
L 358.264835 94.643394 
L 381.483025 94.643394 
L 427.919403 94.643394 
L 451.137593 94.643394 
" clip-path="url(#pb4cb82eb2f)" style="fill: none; stroke: #cfcece; stroke-opacity: 0.7; stroke-width: 0.5; stroke-linecap: square"/>
   </g>
   <g id="line2d_34">
    <path d="M 56.428374 99.31243 
L 149.301131 100.479689 
L 195.73751 100.479689 
L 218.955699 100.479689 
L 311.828457 101.646948 
L 335.046646 102.814207 
L 451.137593 103.981466 
" clip-path="url(#pb4cb82eb2f)" style="fill: none; stroke: #cfcece; stroke-opacity: 0.7; stroke-width: 0.5; stroke-linecap: square"/>
   </g>
   <g id="line2d_35">
    <path d="M 56.428374 85.305323 
L 79.646563 81.803546 
L 102.864752 81.803546 
L 126.082942 87.639841 
L 149.301131 88.8071 
L 172.51932 88.22347 
L 195.73751 88.22347 
L 218.955699 89.390729 
L 242.173888 89.390729 
L 265.392078 89.390729 
L 288.610267 89.390729 
L 311.828457 89.390729 
L 335.046646 89.390729 
L 358.264835 89.390729 
L 381.483025 89.390729 
L 404.701214 89.390729 
L 427.919403 89.390729 
L 451.137593 89.390729 
L 474.355782 89.390729 
L 497.573971 89.390729 
" clip-path="url(#pb4cb82eb2f)" style="fill: none; stroke: #0f4d92; stroke-width: 1.4; stroke-linecap: square"/>
   </g>
   <g id="line2d_36">
    <path d="M 56.428374 88.106744 
L 79.646563 99.31243 
L 102.864752 88.661192 
L 126.082942 92.425602 
L 149.301131 87.889968 
L 172.51932 88.904371 
L 195.73751 91.044346 
L 218.955699 88.8071 
L 242.173888 90.013267 
L 265.392078 90.091084 
L 288.610267 90.363445 
L 311.828457 92.819552 
L 335.046646 89.166256 
L 358.264835 88.369377 
L 381.483025 88.700985 
L 404.701214 88.22347 
L 427.919403 90.823274 
L 451.137593 91.566075 
L 474.355782 89.640856 
L 497.573971 92.975882 
" clip-path="url(#pb4cb82eb2f)" style="fill: none; stroke-dasharray: 4.44,1.92; stroke-dashoffset: 0; stroke: #b64342; stroke-width: 1.2"/>
   </g>
   <g id="patch_3">
    <path d="M 34.371094 142.501011 
L 34.371094 18.771562 
" style="fill: none; stroke: #000000; stroke-width: 0.8; stroke-linejoin: miter; stroke-linecap: square"/>
   </g>
   <g id="patch_4">
    <path d="M 34.371094 142.501011 
L 519.631251 142.501011 
" style="fill: none; stroke: #000000; stroke-width: 0.8; stroke-linejoin: miter; stroke-linecap: square"/>
   </g>
   <g id="text_17">
    <text style="font-size: 7px; font-family: 'PingFang SC', 'Heiti SC', 'STHeiti', 'Arial Unicode MS', 'Arial', 'Helvetica', 'DejaVu Sans', sans-serif; text-anchor: middle; fill: #4d4d4d" x="277.001172" y="12.771562" transform="rotate(-0 277.001172 12.771562)">Tesla Robotaxi</text>
   </g>
   <g id="legend_1">
    <g id="line2d_37">
     <path d="M 457.675626 26.252812 
L 462.475626 26.252812 
L 467.275626 26.252812 
" style="fill: none; stroke: #0f4d92; stroke-width: 1.4; stroke-linecap: square"/>
    </g>
    <g id="text_18">
     <text style="font-size: 6px; font-family: 'PingFang SC', 'Heiti SC', 'STHeiti', 'Arial Unicode MS', 'Arial', 'Helvetica', 'DejaVu Sans', sans-serif; text-anchor: start" x="472.075626" y="28.352812" transform="rotate(-0 472.075626 28.352812)">市场 YES 中间价</text>
    </g>
    <g id="line2d_38">
     <path d="M 457.675626 34.910625 
L 462.475626 34.910625 
L 467.275626 34.910625 
" style="fill: none; stroke-dasharray: 4.44,1.92; stroke-dashoffset: 0; stroke: #b64342; stroke-width: 1.2"/>
    </g>
    <g id="text_19">
     <text style="font-size: 6px; font-family: 'PingFang SC', 'Heiti SC', 'STHeiti', 'Arial Unicode MS', 'Arial', 'Helvetica', 'DejaVu Sans', sans-serif; text-anchor: start" x="472.075626" y="37.010625" transform="rotate(-0 472.075626 37.010625)">群体均值信念</text>
    </g>
   </g>
  </g>
  <g id="axes_2">
   <g id="patch_5">
    <path d="M 34.371094 305.41046 
L 519.631251 305.41046 
L 519.631251 181.681011 
L 34.371094 181.681011 
z
" style="fill: #ffffff"/>
   </g>
   <g id="matplotlib.axis_3">
    <g id="xtick_9">
     <g id="line2d_39">
      <g>
       <use xlink:href="#mf916a788f6" x="56.428374" y="305.41046" style="stroke: #000000; stroke-width: 0.8"/>
      </g>
     </g>
     <g id="text_20">
      <text style="font-size: 7px; font-family: 'PingFang SC', 'Heiti SC', 'STHeiti', 'Arial Unicode MS', 'Arial', 'Helvetica', 'DejaVu Sans', sans-serif; text-anchor: middle" x="56.428374" y="317.482023" transform="rotate(-0 56.428374 317.482023)">0.0</text>
     </g>
    </g>
    <g id="xtick_10">
     <g id="line2d_40">
      <g>
       <use xlink:href="#mf916a788f6" x="114.473847" y="305.41046" style="stroke: #000000; stroke-width: 0.8"/>
      </g>
     </g>
     <g id="text_21">
      <text style="font-size: 7px; font-family: 'PingFang SC', 'Heiti SC', 'STHeiti', 'Arial Unicode MS', 'Arial', 'Helvetica', 'DejaVu Sans', sans-serif; text-anchor: middle" x="114.473847" y="317.482023" transform="rotate(-0 114.473847 317.482023)">2.5</text>
     </g>
    </g>
    <g id="xtick_11">
     <g id="line2d_41">
      <g>
       <use xlink:href="#mf916a788f6" x="172.51932" y="305.41046" style="stroke: #000000; stroke-width: 0.8"/>
      </g>
     </g>
     <g id="text_22">
      <text style="font-size: 7px; font-family: 'PingFang SC', 'Heiti SC', 'STHeiti', 'Arial Unicode MS', 'Arial', 'Helvetica', 'DejaVu Sans', sans-serif; text-anchor: middle" x="172.51932" y="317.482023" transform="rotate(-0 172.51932 317.482023)">5.0</text>
     </g>
    </g>
    <g id="xtick_12">
     <g id="line2d_42">
      <g>
       <use xlink:href="#mf916a788f6" x="230.564794" y="305.41046" style="stroke: #000000; stroke-width: 0.8"/>
      </g>
     </g>
     <g id="text_23">
      <text style="font-size: 7px; font-family: 'PingFang SC', 'Heiti SC', 'STHeiti', 'Arial Unicode MS', 'Arial', 'Helvetica', 'DejaVu Sans', sans-serif; text-anchor: middle" x="230.564794" y="317.482023" transform="rotate(-0 230.564794 317.482023)">7.5</text>
     </g>
    </g>
    <g id="xtick_13">
     <g id="line2d_43">
      <g>
       <use xlink:href="#mf916a788f6" x="288.610267" y="305.41046" style="stroke: #000000; stroke-width: 0.8"/>
      </g>
     </g>
     <g id="text_24">
      <text style="font-size: 7px; font-family: 'PingFang SC', 'Heiti SC', 'STHeiti', 'Arial Unicode MS', 'Arial', 'Helvetica', 'DejaVu Sans', sans-serif; text-anchor: middle" x="288.610267" y="317.482023" transform="rotate(-0 288.610267 317.482023)">10.0</text>
     </g>
    </g>
    <g id="xtick_14">
     <g id="line2d_44">
      <g>
       <use xlink:href="#mf916a788f6" x="346.655741" y="305.41046" style="stroke: #000000; stroke-width: 0.8"/>
      </g>
     </g>
     <g id="text_25">
      <text style="font-size: 7px; font-family: 'PingFang SC', 'Heiti SC', 'STHeiti', 'Arial Unicode MS', 'Arial', 'Helvetica', 'DejaVu Sans', sans-serif; text-anchor: middle" x="346.655741" y="317.482023" transform="rotate(-0 346.655741 317.482023)">12.5</text>
     </g>
    </g>
    <g id="xtick_15">
     <g id="line2d_45">
      <g>
       <use xlink:href="#mf916a788f6" x="404.701214" y="305.41046" style="stroke: #000000; stroke-width: 0.8"/>
      </g>
     </g>
     <g id="text_26">
      <text style="font-size: 7px; font-family: 'PingFang SC', 'Heiti SC', 'STHeiti', 'Arial Unicode MS', 'Arial', 'Helvetica', 'DejaVu Sans', sans-serif; text-anchor: middle" x="404.701214" y="317.482023" transform="rotate(-0 404.701214 317.482023)">15.0</text>
     </g>
    </g>
    <g id="xtick_16">
     <g id="line2d_46">
      <g>
       <use xlink:href="#mf916a788f6" x="462.746687" y="305.41046" style="stroke: #000000; stroke-width: 0.8"/>
      </g>
     </g>
     <g id="text_27">
      <text style="font-size: 7px; font-family: 'PingFang SC', 'Heiti SC', 'STHeiti', 'Arial Unicode MS', 'Arial', 'Helvetica', 'DejaVu Sans', sans-serif; text-anchor: middle" x="462.746687" y="317.482023" transform="rotate(-0 462.746687 317.482023)">17.5</text>
     </g>
    </g>
    <g id="text_28">
     <text style="font-size: 7.5px; font-family: 'PingFang SC', 'Heiti SC', 'STHeiti', 'Arial Unicode MS', 'Arial', 'Helvetica', 'DejaVu Sans', sans-serif; text-anchor: middle" x="277.001172" y="328.389991" transform="rotate(-0 277.001172 328.389991)">决策轮次</text>
    </g>
   </g>
   <g id="matplotlib.axis_4">
    <g id="ytick_7">
     <g id="line2d_47">
      <g>
       <use xlink:href="#m97b9ccbe02" x="34.371094" y="301.908683" style="stroke: #000000; stroke-width: 0.8"/>
      </g>
     </g>
     <g id="text_29">
      <text style="font-size: 7px; font-family: 'PingFang SC', 'Heiti SC', 'STHeiti', 'Arial Unicode MS', 'Arial', 'Helvetica', 'DejaVu Sans', sans-serif; text-anchor: end" x="27.871094" y="304.694465" transform="rotate(-0 27.871094 304.694465)">0.0</text>
     </g>
    </g>
    <g id="ytick_8">
     <g id="line2d_48">
      <g>
       <use xlink:href="#m97b9ccbe02" x="34.371094" y="278.563504" style="stroke: #000000; stroke-width: 0.8"/>
      </g>
     </g>
     <g id="text_30">
      <text style="font-size: 7px; font-family: 'PingFang SC', 'Heiti SC', 'STHeiti', 'Arial Unicode MS', 'Arial', 'Helvetica', 'DejaVu Sans', sans-serif; text-anchor: end" x="27.871094" y="281.349286" transform="rotate(-0 27.871094 281.349286)">0.2</text>
     </g>
    </g>
    <g id="ytick_9">
     <g id="line2d_49">
      <g>
       <use xlink:href="#m97b9ccbe02" x="34.371094" y="255.218325" style="stroke: #000000; stroke-width: 0.8"/>
      </g>
     </g>
     <g id="text_31">
      <text style="font-size: 7px; font-family: 'PingFang SC', 'Heiti SC', 'STHeiti', 'Arial Unicode MS', 'Arial', 'Helvetica', 'DejaVu Sans', sans-serif; text-anchor: end" x="27.871094" y="258.004106" transform="rotate(-0 27.871094 258.004106)">0.4</text>
     </g>
    </g>
    <g id="ytick_10">
     <g id="line2d_50">
      <g>
       <use xlink:href="#m97b9ccbe02" x="34.371094" y="231.873146" style="stroke: #000000; stroke-width: 0.8"/>
      </g>
     </g>
     <g id="text_32">
      <text style="font-size: 7px; font-family: 'PingFang SC', 'Heiti SC', 'STHeiti', 'Arial Unicode MS', 'Arial', 'Helvetica', 'DejaVu Sans', sans-serif; text-anchor: end" x="27.871094" y="234.658927" transform="rotate(-0 27.871094 234.658927)">0.6</text>
     </g>
    </g>
    <g id="ytick_11">
     <g id="line2d_51">
      <g>
       <use xlink:href="#m97b9ccbe02" x="34.371094" y="208.527967" style="stroke: #000000; stroke-width: 0.8"/>
      </g>
     </g>
     <g id="text_33">
      <text style="font-size: 7px; font-family: 'PingFang SC', 'Heiti SC', 'STHeiti', 'Arial Unicode MS', 'Arial', 'Helvetica', 'DejaVu Sans', sans-serif; text-anchor: end" x="27.871094" y="211.313748" transform="rotate(-0 27.871094 211.313748)">0.8</text>
     </g>
    </g>
    <g id="ytick_12">
     <g id="line2d_52">
      <g>
       <use xlink:href="#m97b9ccbe02" x="34.371094" y="185.182788" style="stroke: #000000; stroke-width: 0.8"/>
      </g>
     </g>
     <g id="text_34">
      <text style="font-size: 7px; font-family: 'PingFang SC', 'Heiti SC', 'STHeiti', 'Arial Unicode MS', 'Arial', 'Helvetica', 'DejaVu Sans', sans-serif; text-anchor: end" x="27.871094" y="187.968569" transform="rotate(-0 27.871094 187.968569)">1.0</text>
     </g>
    </g>
   </g>
   <g id="line2d_53">
    <path d="M 56.428374 210.862485 
L 265.392078 210.862485 
L 335.046646 215.531521 
L 358.264835 216.69878 
L 381.483025 216.69878 
L 404.701214 217.866039 
L 427.919403 287.901576 
L 451.137593 292.570612 
L 474.355782 293.737871 
L 497.573971 294.90513 
" clip-path="url(#p43d1b5a232)" style="fill: none; stroke: #cfcece; stroke-opacity: 0.7; stroke-width: 0.5; stroke-linecap: square"/>
   </g>
   <g id="line2d_54">
    <path d="M 56.428374 254.051066 
L 79.646563 254.051066 
L 102.864752 254.051066 
L 126.082942 254.051066 
L 149.301131 254.051066 
L 218.955699 254.051066 
L 335.046646 254.051066 
L 381.483025 255.218325 
L 404.701214 255.218325 
L 427.919403 255.218325 
L 451.137593 257.552843 
L 474.355782 261.05462 
L 497.573971 263.389138 
" clip-path="url(#p43d1b5a232)" style="fill: none; stroke: #cfcece; stroke-opacity: 0.7; stroke-width: 0.5; stroke-linecap: square"/>
   </g>
   <g id="line2d_55">
    <path d="M 56.428374 242.378477 
L 79.646563 240.043959 
L 102.864752 238.8767 
L 126.082942 238.8767 
L 149.301131 237.709441 
L 172.51932 237.709441 
L 195.73751 237.709441 
L 265.392078 237.709441 
L 335.046646 237.709441 
L 358.264835 237.709441 
L 381.483025 245.880254 
L 404.701214 248.214772 
L 427.919403 257.552843 
L 474.355782 261.05462 
L 497.573971 278.563504 
" clip-path="url(#p43d1b5a232)" style="fill: none; stroke: #cfcece; stroke-opacity: 0.7; stroke-width: 0.5; stroke-linecap: square"/>
   </g>
   <g id="line2d_56">
    <path d="M 56.428374 238.8767 
L 149.301131 236.542182 
L 195.73751 236.542182 
L 218.955699 236.542182 
L 265.392078 236.542182 
L 335.046646 236.542182 
L 358.264835 236.542182 
L 381.483025 236.542182 
L 427.919403 243.545736 
L 451.137593 272.72721 
L 474.355782 284.399799 
L 497.573971 289.652464 
" clip-path="url(#p43d1b5a232)" style="fill: none; stroke: #cfcece; stroke-opacity: 0.7; stroke-width: 0.5; stroke-linecap: square"/>
   </g>
   <g id="line2d_57">
    <path d="M 56.428374 227.20411 
L 195.73751 227.20411 
L 218.955699 227.20411 
L 242.173888 227.20411 
L 265.392078 227.20411 
L 311.828457 227.20411 
L 404.701214 227.20411 
L 427.919403 229.538628 
L 474.355782 245.880254 
L 497.573971 261.05462 
" clip-path="url(#p43d1b5a232)" style="fill: none; stroke: #cfcece; stroke-opacity: 0.7; stroke-width: 0.5; stroke-linecap: square"/>
   </g>
   <g id="line2d_58">
    <path d="M 56.428374 266.890915 
L 149.301131 266.890915 
L 242.173888 266.890915 
L 288.610267 266.890915 
L 335.046646 249.38203 
L 358.264835 249.38203 
L 381.483025 249.38203 
L 427.919403 249.38203 
L 451.137593 249.38203 
L 497.573971 249.38203 
" clip-path="url(#p43d1b5a232)" style="fill: none; stroke: #cfcece; stroke-opacity: 0.7; stroke-width: 0.5; stroke-linecap: square"/>
   </g>
   <g id="line2d_59">
    <path d="M 56.428374 243.545736 
L 79.646563 243.545736 
L 102.864752 243.545736 
L 126.082942 237.709441 
L 149.301131 234.207664 
L 172.51932 234.207664 
L 195.73751 234.207664 
L 218.955699 234.207664 
L 242.173888 234.207664 
L 265.392078 234.207664 
L 288.610267 234.207664 
L 335.046646 234.207664 
L 381.483025 235.374923 
L 404.701214 235.374923 
L 427.919403 237.709441 
L 474.355782 243.545736 
L 497.573971 261.05462 
" clip-path="url(#p43d1b5a232)" style="fill: none; stroke: #cfcece; stroke-opacity: 0.7; stroke-width: 0.5; stroke-linecap: square"/>
   </g>
   <g id="line2d_60">
    <path d="M 56.428374 216.69878 
L 265.392078 216.69878 
L 288.610267 216.69878 
L 311.828457 216.69878 
L 335.046646 216.69878 
L 358.264835 216.69878 
L 381.483025 216.69878 
L 404.701214 229.538628 
L 427.919403 255.218325 
L 497.573971 277.396245 
" clip-path="url(#p43d1b5a232)" style="fill: none; stroke: #cfcece; stroke-opacity: 0.7; stroke-width: 0.5; stroke-linecap: square"/>
   </g>
   <g id="line2d_61">
    <path d="M 56.428374 250.549289 
L 79.646563 248.214772 
L 102.864752 247.047513 
L 126.082942 245.880254 
L 195.73751 245.880254 
L 242.173888 245.880254 
L 265.392078 249.38203 
L 288.610267 255.218325 
L 381.483025 257.552843 
L 427.919403 261.05462 
L 451.137593 266.890915 
L 474.355782 270.392692 
" clip-path="url(#p43d1b5a232)" style="fill: none; stroke: #cfcece; stroke-opacity: 0.7; stroke-width: 0.5; stroke-linecap: square"/>
   </g>
   <g id="line2d_62">
    <path d="M 56.428374 244.712995 
L 126.082942 244.712995 
L 172.51932 243.545736 
L 265.392078 245.880254 
L 335.046646 245.880254 
L 427.919403 247.047513 
L 497.573971 249.38203 
" clip-path="url(#p43d1b5a232)" style="fill: none; stroke: #cfcece; stroke-opacity: 0.7; stroke-width: 0.5; stroke-linecap: square"/>
   </g>
   <g id="line2d_63">
    <path d="M 56.428374 296.072389 
L 102.864752 296.072389 
L 126.082942 296.072389 
L 149.301131 296.072389 
L 172.51932 296.072389 
L 195.73751 296.072389 
L 218.955699 296.072389 
L 242.173888 296.072389 
L 265.392078 296.072389 
L 288.610267 296.072389 
L 311.828457 297.239647 
L 335.046646 298.406906 
L 381.483025 299.574165 
L 404.701214 300.157795 
L 427.919403 300.157795 
L 451.137593 300.157795 
L 474.355782 300.507973 
L 497.573971 300.741424 
" clip-path="url(#p43d1b5a232)" style="fill: none; stroke: #cfcece; stroke-opacity: 0.7; stroke-width: 0.5; stroke-linecap: square"/>
   </g>
   <g id="line2d_64">
    <path d="M 56.428374 234.207664 
L 102.864752 234.207664 
L 126.082942 234.207664 
L 172.51932 234.207664 
L 195.73751 234.207664 
L 242.173888 234.207664 
L 288.610267 234.207664 
L 311.828457 234.207664 
L 381.483025 241.211218 
L 404.701214 237.709441 
L 451.137593 245.880254 
L 497.573971 261.05462 
" clip-path="url(#p43d1b5a232)" style="fill: none; stroke: #cfcece; stroke-opacity: 0.7; stroke-width: 0.5; stroke-linecap: square"/>
   </g>
   <g id="line2d_65">
    <path d="M 56.428374 187.517306 
L 79.646563 217.866039 
L 126.082942 217.866039 
L 149.301131 217.866039 
L 195.73751 217.866039 
L 218.955699 217.866039 
L 242.173888 217.866039 
L 265.392078 220.200557 
L 288.610267 222.535075 
L 311.828457 226.036851 
L 335.046646 292.570612 
L 427.919403 296.072389 
L 451.137593 298.406906 
" clip-path="url(#p43d1b5a232)" style="fill: none; stroke: #cfcece; stroke-opacity: 0.7; stroke-width: 0.5; stroke-linecap: square"/>
   </g>
   <g id="line2d_66">
    <path d="M 56.428374 206.193449 
L 126.082942 206.193449 
L 242.173888 206.193449 
L 335.046646 206.193449 
L 358.264835 206.193449 
L 381.483025 206.193449 
L 404.701214 206.193449 
L 427.919403 255.218325 
L 474.355782 266.890915 
L 497.573971 272.72721 
" clip-path="url(#p43d1b5a232)" style="fill: none; stroke: #cfcece; stroke-opacity: 0.7; stroke-width: 0.5; stroke-linecap: square"/>
   </g>
   <g id="line2d_67">
    <path d="M 56.428374 244.712995 
L 79.646563 244.712995 
L 126.082942 244.712995 
L 149.301131 243.545736 
L 195.73751 243.545736 
L 242.173888 243.545736 
L 335.046646 245.880254 
L 358.264835 247.047513 
L 404.701214 248.214772 
L 451.137593 287.901576 
L 474.355782 290.236094 
L 497.573971 293.737871 
" clip-path="url(#p43d1b5a232)" style="fill: none; stroke: #cfcece; stroke-opacity: 0.7; stroke-width: 0.5; stroke-linecap: square"/>
   </g>
   <g id="line2d_68">
    <path d="M 56.428374 235.374923 
L 102.864752 235.374923 
L 149.301131 235.374923 
L 172.51932 235.374923 
L 195.73751 237.709441 
L 218.955699 237.709441 
L 242.173888 237.709441 
L 288.610267 237.709441 
L 311.828457 237.709441 
L 335.046646 237.709441 
L 358.264835 237.709441 
L 381.483025 237.709441 
L 427.919403 237.709441 
L 474.355782 245.880254 
L 497.573971 255.218325 
" clip-path="url(#p43d1b5a232)" style="fill: none; stroke: #cfcece; stroke-opacity: 0.7; stroke-width: 0.5; stroke-linecap: square"/>
   </g>
   <g id="line2d_69">
    <path d="M 56.428374 199.189896 
L 102.864752 199.189896 
L 195.73751 199.189896 
L 218.955699 226.036851 
L 242.173888 226.036851 
L 288.610267 229.538628 
L 311.828457 229.538628 
L 358.264835 229.538628 
L 381.483025 229.538628 
L 451.137593 234.207664 
L 474.355782 234.207664 
L 497.573971 284.399799 
" clip-path="url(#p43d1b5a232)" style="fill: none; stroke: #cfcece; stroke-opacity: 0.7; stroke-width: 0.5; stroke-linecap: square"/>
   </g>
   <g id="line2d_70">
    <path d="M 56.428374 227.20411 
L 126.082942 227.20411 
L 195.73751 227.20411 
L 265.392078 227.20411 
L 335.046646 227.20411 
L 381.483025 227.20411 
L 404.701214 252.883807 
L 427.919403 261.05462 
L 451.137593 266.890915 
L 474.355782 269.225433 
" clip-path="url(#p43d1b5a232)" style="fill: none; stroke: #cfcece; stroke-opacity: 0.7; stroke-width: 0.5; stroke-linecap: square"/>
   </g>
   <g id="line2d_71">
    <path d="M 56.428374 240.043959 
L 126.082942 240.043959 
L 172.51932 240.043959 
L 195.73751 240.043959 
L 265.392078 240.043959 
L 288.610267 240.043959 
L 311.828457 240.043959 
L 335.046646 243.545736 
L 358.264835 261.05462 
L 404.701214 261.05462 
L 427.919403 261.05462 
L 451.137593 261.05462 
L 474.355782 263.389138 
L 497.573971 266.890915 
" clip-path="url(#p43d1b5a232)" style="fill: none; stroke: #cfcece; stroke-opacity: 0.7; stroke-width: 0.5; stroke-linecap: square"/>
   </g>
   <g id="line2d_72">
    <path d="M 56.428374 229.538628 
L 149.301131 229.538628 
L 172.51932 229.538628 
L 195.73751 229.538628 
L 218.955699 229.538628 
L 358.264835 245.880254 
L 404.701214 247.047513 
L 427.919403 249.38203 
L 451.137593 261.05462 
L 474.355782 276.228986 
" clip-path="url(#p43d1b5a232)" style="fill: none; stroke: #cfcece; stroke-opacity: 0.7; stroke-width: 0.5; stroke-linecap: square"/>
   </g>
   <g id="line2d_73">
    <path d="M 56.428374 235.958553 
L 79.646563 234.207664 
L 102.864752 233.624035 
L 126.082942 233.624035 
L 149.301131 233.624035 
L 172.51932 233.624035 
L 195.73751 233.624035 
L 218.955699 233.624035 
L 242.173888 233.624035 
L 265.392078 233.624035 
L 288.610267 233.624035 
L 311.828457 233.624035 
L 335.046646 233.624035 
L 358.264835 235.374923 
L 381.483025 235.374923 
L 404.701214 237.125811 
L 427.919403 238.29307 
L 451.137593 239.460329 
L 474.355782 239.460329 
L 497.573971 239.460329 
" clip-path="url(#p43d1b5a232)" style="fill: none; stroke: #0f4d92; stroke-width: 1.4; stroke-linecap: square"/>
   </g>
   <g id="line2d_74">
    <path d="M 56.428374 234.791294 
L 79.646563 241.405761 
L 102.864752 243.545736 
L 126.082942 240.627588 
L 149.301131 245.179898 
L 172.51932 243.83755 
L 195.73751 236.208679 
L 218.955699 239.914263 
L 242.173888 239.619501 
L 265.392078 236.833997 
L 288.610267 243.312284 
L 311.828457 238.584885 
L 335.046646 242.767563 
L 358.264835 234.950465 
L 381.483025 239.627081 
L 404.701214 243.59063 
L 427.919403 257.930486 
L 451.137593 268.821381 
L 474.355782 267.108803 
L 497.573971 272.471872 
" clip-path="url(#p43d1b5a232)" style="fill: none; stroke-dasharray: 4.44,1.92; stroke-dashoffset: 0; stroke: #b64342; stroke-width: 1.2"/>
   </g>
   <g id="patch_6">
    <path d="M 34.371094 305.41046 
L 34.371094 181.681011 
" style="fill: none; stroke: #000000; stroke-width: 0.8; stroke-linejoin: miter; stroke-linecap: square"/>
   </g>
   <g id="patch_7">
    <path d="M 34.371094 305.41046 
L 519.631251 305.41046 
" style="fill: none; stroke: #000000; stroke-width: 0.8; stroke-linejoin: miter; stroke-linecap: square"/>
   </g>
   <g id="text_35">
    <text style="font-size: 7px; font-family: 'PingFang SC', 'Heiti SC', 'STHeiti', 'Arial Unicode MS', 'Arial', 'Helvetica', 'DejaVu Sans', sans-serif; text-anchor: middle; fill: #4d4d4d" x="277.001172" y="175.681011" transform="rotate(-0 277.001172 175.681011)">Ethereum $5K</text>
   </g>
   <g id="legend_2">
    <g id="line2d_75">
     <path d="M 457.675626 189.162261 
L 462.475626 189.162261 
L 467.275626 189.162261 
" style="fill: none; stroke: #0f4d92; stroke-width: 1.4; stroke-linecap: square"/>
    </g>
    <g id="text_36">
     <text style="font-size: 6px; font-family: 'PingFang SC', 'Heiti SC', 'STHeiti', 'Arial Unicode MS', 'Arial', 'Helvetica', 'DejaVu Sans', sans-serif; text-anchor: start" x="472.075626" y="191.262261" transform="rotate(-0 472.075626 191.262261)">市场 YES 中间价</text>
    </g>
    <g id="line2d_76">
     <path d="M 457.675626 197.820074 
L 462.475626 197.820074 
L 467.275626 197.820074 
" style="fill: none; stroke-dasharray: 4.44,1.92; stroke-dashoffset: 0; stroke: #b64342; stroke-width: 1.2"/>
    </g>
    <g id="text_37">
     <text style="font-size: 6px; font-family: 'PingFang SC', 'Heiti SC', 'STHeiti', 'Arial Unicode MS', 'Arial', 'Helvetica', 'DejaVu Sans', sans-serif; text-anchor: start" x="472.075626" y="199.920074" transform="rotate(-0 472.075626 199.920074)">群体均值信念</text>
    </g>
   </g>
  </g>
 </g>
 <defs>
  <clipPath id="pb4cb82eb2f">
   <rect x="34.371094" y="18.771562" width="485.260157" height="123.729449"/>
  </clipPath>
  <clipPath id="p43d1b5a232">
   <rect x="34.371094" y="181.681011" width="485.260157" height="123.729449"/>
  </clipPath>
 </defs>
</svg>
