<?xml version="1.0" encoding="utf-8" standalone="no"?>
<!DOCTYPE svg PUBLIC "-//W3C//DTD SVG 1.1//EN"
  "http://www.w3.org/Graphics/SVG/1.1/DTD/svg11.dtd">
<svg xmlns:xlink="http://www.w3.org/1999/xlink" width="534.562998pt" height="303.475939pt" viewBox="0 0 534.562998 303.475939" xmlns="http://www.w3.org/2000/svg" version="1.1">
 <metadata>
  <rdf:RDF xmlns:dc="http://purl.org/dc/elements/1.1/" xmlns:cc="http://creativecommons.org/ns#" xmlns:rdf="http://www.w3.org/1999/02/22-rdf-syntax-ns#">
   <cc:Work>
    <dc:type rdf:resource="http://purl.org/dc/dcmitype/StillImage"/>
    <dc:date>2026-05-23T23:52:08.770610</dc:date>
    <dc:format>image/svg+xml</dc:format>
    <dc:creator>
     <cc:Agent>
      <dc:title>Matplotlib v3.10.9, https://matplotlib.org/</dc:title>
     </cc:Agent>
    </dc:creator>
   </cc:Work>
  </rdf:RDF>
 </metadata>
 <defs>
  <style type="text/css">*{stroke-linejoin: round; stroke-linecap: butt}</style>
 </defs>
 <g id="figure_1">
  <g id="patch_1">
   <path d="M 0 303.475939 
L 534.562998 303.475939 
L 534.562998 0 
L 0 0 
z
" style="fill: #ffffff"/>
  </g>
  <g id="axes_1">
   <g id="patch_2">
    <path d="M 78.94662 126.341083 
L 527.362998 126.341083 
L 527.362998 20.844813 
L 78.94662 20.844813 
z
" style="fill: #ffffff"/>
   </g>
   <g id="patch_3">
    <path d="M 99.329183 126.341083 
L 133.300121 126.341083 
L 133.300121 126.341083 
L 99.329183 126.341083 
z
" clip-path="url(#p45da435f9b)" style="fill: #0f4d92; stroke: #4d4d4d; stroke-width: 0.6; stroke-linejoin: miter"/>
   </g>
   <g id="patch_4">
    <path d="M 133.300121 126.341083 
L 167.271059 126.341083 
L 167.271059 126.341083 
L 133.300121 126.341083 
z
" clip-path="url(#p45da435f9b)" style="fill: #0f4d92; stroke: #4d4d4d; stroke-width: 0.6; stroke-linejoin: miter"/>
   </g>
   <g id="patch_5">
    <path d="M 167.271059 126.341083 
L 201.241996 126.341083 
L 201.241996 126.341083 
L 167.271059 126.341083 
z
" clip-path="url(#p45da435f9b)" style="fill: #0f4d92; stroke: #4d4d4d; stroke-width: 0.6; stroke-linejoin: miter"/>
   </g>
   <g id="patch_6">
    <path d="M 201.241996 126.341083 
L 235.212934 126.341083 
L 235.212934 126.341083 
L 201.241996 126.341083 
z
" clip-path="url(#p45da435f9b)" style="fill: #0f4d92; stroke: #4d4d4d; stroke-width: 0.6; stroke-linejoin: miter"/>
   </g>
   <g id="patch_7">
    <path d="M 235.212934 126.341083 
L 269.183872 126.341083 
L 269.183872 126.341083 
L 235.212934 126.341083 
z
" clip-path="url(#p45da435f9b)" style="fill: #0f4d92; stroke: #4d4d4d; stroke-width: 0.6; stroke-linejoin: miter"/>
   </g>
   <g id="patch_8">
    <path d="M 269.183872 126.341083 
L 303.154809 126.341083 
L 303.154809 126.341083 
L 269.183872 126.341083 
z
" clip-path="url(#p45da435f9b)" style="fill: #0f4d92; stroke: #4d4d4d; stroke-width: 0.6; stroke-linejoin: miter"/>
   </g>
   <g id="patch_9">
    <path d="M 303.154809 126.341083 
L 337.125747 126.341083 
L 337.125747 126.341083 
L 303.154809 126.341083 
z
" clip-path="url(#p45da435f9b)" style="fill: #0f4d92; stroke: #4d4d4d; stroke-width: 0.6; stroke-linejoin: miter"/>
   </g>
   <g id="patch_10">
    <path d="M 337.125747 126.341083 
L 371.096685 126.341083 
L 371.096685 126.341083 
L 337.125747 126.341083 
z
" clip-path="url(#p45da435f9b)" style="fill: #0f4d92; stroke: #4d4d4d; stroke-width: 0.6; stroke-linejoin: miter"/>
   </g>
   <g id="patch_11">
    <path d="M 371.096685 126.341083 
L 405.067623 126.341083 
L 405.067623 126.341083 
L 371.096685 126.341083 
z
" clip-path="url(#p45da435f9b)" style="fill: #0f4d92; stroke: #4d4d4d; stroke-width: 0.6; stroke-linejoin: miter"/>
   </g>
   <g id="patch_12">
    <path d="M 405.067623 126.341083 
L 439.03856 126.341083 
L 439.03856 101.222924 
L 405.067623 101.222924 
z
" clip-path="url(#p45da435f9b)" style="fill: #0f4d92; stroke: #4d4d4d; stroke-width: 0.6; stroke-linejoin: miter"/>
   </g>
   <g id="patch_13">
    <path d="M 439.03856 126.341083 
L 473.009498 126.341083 
L 473.009498 101.222924 
L 439.03856 101.222924 
z
" clip-path="url(#p45da435f9b)" style="fill: #0f4d92; stroke: #4d4d4d; stroke-width: 0.6; stroke-linejoin: miter"/>
   </g>
   <g id="patch_14">
    <path d="M 473.009498 126.341083 
L 506.980436 126.341083 
L 506.980436 25.868445 
L 473.009498 25.868445 
z
" clip-path="url(#p45da435f9b)" style="fill: #0f4d92; stroke: #4d4d4d; stroke-width: 0.6; stroke-linejoin: miter"/>
   </g>
   <g id="matplotlib.axis_1">
    <g id="xtick_1">
     <g id="line2d_1">
      <defs>
       <path id="m8478aaca0e" d="M 0 0 
L 0 3 
" style="stroke: #000000; stroke-width: 0.8"/>
      </defs>
      <g>
       <use xlink:href="#m8478aaca0e" x="99.329183" y="126.341083" style="stroke: #000000; stroke-width: 0.8"/>
      </g>
     </g>
     <g id="text_1">
      <text style="font-size: 7px; font-family: 'PingFang SC', 'Heiti SC', 'STHeiti', 'Arial Unicode MS', 'Arial', 'Helvetica', 'DejaVu Sans', sans-serif; text-anchor: middle" x="99.329183" y="138.412646" transform="rotate(-0 99.329183 138.412646)">0.4</text>
     </g>
    </g>
    <g id="xtick_2">
     <g id="line2d_2">
      <g>
       <use xlink:href="#m8478aaca0e" x="167.271059" y="126.341083" style="stroke: #000000; stroke-width: 0.8"/>
      </g>
     </g>
     <g id="text_2">
      <text style="font-size: 7px; font-family: 'PingFang SC', 'Heiti SC', 'STHeiti', 'Arial Unicode MS', 'Arial', 'Helvetica', 'DejaVu Sans', sans-serif; text-anchor: middle" x="167.271059" y="138.412646" transform="rotate(-0 167.271059 138.412646)">0.5</text>
     </g>
    </g>
    <g id="xtick_3">
     <g id="line2d_3">
      <g>
       <use xlink:href="#m8478aaca0e" x="235.212934" y="126.341083" style="stroke: #000000; stroke-width: 0.8"/>
      </g>
     </g>
     <g id="text_3">
      <text style="font-size: 7px; font-family: 'PingFang SC', 'Heiti SC', 'STHeiti', 'Arial Unicode MS', 'Arial', 'Helvetica', 'DejaVu Sans', sans-serif; text-anchor: middle" x="235.212934" y="138.412646" transform="rotate(-0 235.212934 138.412646)">0.6</text>
     </g>
    </g>
    <g id="xtick_4">
     <g id="line2d_4">
      <g>
       <use xlink:href="#m8478aaca0e" x="303.154809" y="126.341083" style="stroke: #000000; stroke-width: 0.8"/>
      </g>
     </g>
     <g id="text_4">
      <text style="font-size: 7px; font-family: 'PingFang SC', 'Heiti SC', 'STHeiti', 'Arial Unicode MS', 'Arial', 'Helvetica', 'DejaVu Sans', sans-serif; text-anchor: middle" x="303.154809" y="138.412646" transform="rotate(-0 303.154809 138.412646)">0.7</text>
     </g>
    </g>
    <g id="xtick_5">
     <g id="line2d_5">
      <g>
       <use xlink:href="#m8478aaca0e" x="371.096685" y="126.341083" style="stroke: #000000; stroke-width: 0.8"/>
      </g>
     </g>
     <g id="text_5">
      <text style="font-size: 7px; font-family: 'PingFang SC', 'Heiti SC', 'STHeiti', 'Arial Unicode MS', 'Arial', 'Helvetica', 'DejaVu Sans', sans-serif; text-anchor: middle" x="371.096685" y="138.412646" transform="rotate(-0 371.096685 138.412646)">0.8</text>
     </g>
    </g>
    <g id="xtick_6">
     <g id="line2d_6">
      <g>
       <use xlink:href="#m8478aaca0e" x="439.03856" y="126.341083" style="stroke: #000000; stroke-width: 0.8"/>
      </g>
     </g>
     <g id="text_6">
      <text style="font-size: 7px; font-family: 'PingFang SC', 'Heiti SC', 'STHeiti', 'Arial Unicode MS', 'Arial', 'Helvetica', 'DejaVu Sans', sans-serif; text-anchor: middle" x="439.03856" y="138.412646" transform="rotate(-0 439.03856 138.412646)">0.9</text>
     </g>
    </g>
    <g id="xtick_7">
     <g id="line2d_7">
      <g>
       <use xlink:href="#m8478aaca0e" x="506.980436" y="126.341083" style="stroke: #000000; stroke-width: 0.8"/>
      </g>
     </g>
     <g id="text_7">
      <text style="font-size: 7px; font-family: 'PingFang SC', 'Heiti SC', 'STHeiti', 'Arial Unicode MS', 'Arial', 'Helvetica', 'DejaVu Sans', sans-serif; text-anchor: middle" x="506.980436" y="138.412646" transform="rotate(-0 506.980436 138.412646)">1.0</text>
     </g>
    </g>
    <g id="text_8">
     <text style="font-size: 7.5px; font-family: 'PingFang SC', 'Heiti SC', 'STHeiti', 'Arial Unicode MS', 'Arial', 'Helvetica', 'DejaVu Sans', sans-serif; text-anchor: middle" x="303.154809" y="149.358114" transform="rotate(-0 303.154809 149.358114)">与信念一致的交易占比</text>
    </g>
   </g>
   <g id="matplotlib.axis_2">
    <g id="ytick_1">
     <g id="line2d_8">
      <defs>
       <path id="mf679f9bbcf" d="M 0 0 
L -3 0 
" style="stroke: #000000; stroke-width: 0.8"/>
      </defs>
      <g>
       <use xlink:href="#mf679f9bbcf" x="78.94662" y="126.341083" style="stroke: #000000; stroke-width: 0.8"/>
      </g>
     </g>
     <g id="text_9">
      <text style="font-size: 7px; font-family: 'PingFang SC', 'Heiti SC', 'STHeiti', 'Arial Unicode MS', 'Arial', 'Helvetica', 'DejaVu Sans', sans-serif; text-anchor: end" x="72.44662" y="129.126864" transform="rotate(-0 72.44662 129.126864)">0</text>
     </g>
    </g>
    <g id="ytick_2">
     <g id="line2d_9">
      <g>
       <use xlink:href="#mf679f9bbcf" x="78.94662" y="101.222924" style="stroke: #000000; stroke-width: 0.8"/>
      </g>
     </g>
     <g id="text_10">
      <text style="font-size: 7px; font-family: 'PingFang SC', 'Heiti SC', 'STHeiti', 'Arial Unicode MS', 'Arial', 'Helvetica', 'DejaVu Sans', sans-serif; text-anchor: end" x="72.44662" y="104.008705" transform="rotate(-0 72.44662 104.008705)">1</text>
     </g>
    </g>
    <g id="ytick_3">
     <g id="line2d_10">
      <g>
       <use xlink:href="#mf679f9bbcf" x="78.94662" y="76.104764" style="stroke: #000000; stroke-width: 0.8"/>
      </g>
     </g>
     <g id="text_11">
      <text style="font-size: 7px; font-family: 'PingFang SC', 'Heiti SC', 'STHeiti', 'Arial Unicode MS', 'Arial', 'Helvetica', 'DejaVu Sans', sans-serif; text-anchor: end" x="72.44662" y="78.890546" transform="rotate(-0 72.44662 78.890546)">2</text>
     </g>
    </g>
    <g id="ytick_4">
     <g id="line2d_11">
      <g>
       <use xlink:href="#mf679f9bbcf" x="78.94662" y="50.986605" style="stroke: #000000; stroke-width: 0.8"/>
      </g>
     </g>
     <g id="text_12">
      <text style="font-size: 7px; font-family: 'PingFang SC', 'Heiti SC', 'STHeiti', 'Arial Unicode MS', 'Arial', 'Helvetica', 'DejaVu Sans', sans-serif; text-anchor: end" x="72.44662" y="53.772386" transform="rotate(-0 72.44662 53.772386)">3</text>
     </g>
    </g>
    <g id="ytick_5">
     <g id="line2d_12">
      <g>
       <use xlink:href="#mf679f9bbcf" x="78.94662" y="25.868445" style="stroke: #000000; stroke-width: 0.8"/>
      </g>
     </g>
     <g id="text_13">
      <text style="font-size: 7px; font-family: 'PingFang SC', 'Heiti SC', 'STHeiti', 'Arial Unicode MS', 'Arial', 'Helvetica', 'DejaVu Sans', sans-serif; text-anchor: end" x="72.44662" y="28.654227" transform="rotate(-0 72.44662 28.654227)">4</text>
     </g>
    </g>
    <g id="text_14">
     <text style="font-size: 7.5px; font-family: 'PingFang SC', 'Heiti SC', 'STHeiti', 'Arial Unicode MS', 'Arial', 'Helvetica', 'DejaVu Sans', sans-serif; text-anchor: middle" x="63.562714" y="73.592948" transform="rotate(-90 63.562714 73.592948)">仿真次数</text>
    </g>
   </g>
   <g id="line2d_13">
    <path d="M 470.291823 126.341083 
L 470.291823 20.844813 
" clip-path="url(#p45da435f9b)" style="fill: none; stroke-dasharray: 3.7,1.6; stroke-dashoffset: 0; stroke: #b64342"/>
   </g>
   <g id="line2d_14">
    <path d="M 167.271059 126.341083 
L 167.271059 20.844813 
" clip-path="url(#p45da435f9b)" style="fill: none; stroke-dasharray: 0.7,1.155; stroke-dashoffset: 0; stroke: #767676; stroke-width: 0.7"/>
   </g>
   <g id="patch_15">
    <path d="M 78.94662 126.341083 
L 78.94662 20.844813 
" style="fill: none; stroke: #000000; stroke-width: 0.8; stroke-linejoin: miter; stroke-linecap: square"/>
   </g>
   <g id="patch_16">
    <path d="M 78.94662 126.341083 
L 527.362998 126.341083 
" style="fill: none; stroke: #000000; stroke-width: 0.8; stroke-linejoin: miter; stroke-linecap: square"/>
   </g>
   <g id="text_15">
    <text style="font-weight: 700; font-size: 9px; font-family: 'PingFang SC', 'Heiti SC', 'STHeiti', 'Arial Unicode MS', 'Arial', 'Helvetica', 'DejaVu Sans', sans-serif; text-anchor: start" x="7.2" y="14.363437" transform="rotate(-0 7.2 14.363437)">a</text>
   </g>
   <g id="legend_1">
    <g id="line2d_15">
     <path d="M 83.74662 28.320438 
L 88.54662 28.320438 
L 93.34662 28.320438 
" style="fill: none; stroke-dasharray: 3.7,1.6; stroke-dashoffset: 0; stroke: #b64342"/>
    </g>
    <g id="text_16">
     <text style="font-size: 6px; font-family: 'PingFang SC', 'Heiti SC', 'STHeiti', 'Arial Unicode MS', 'Arial', 'Helvetica', 'DejaVu Sans', sans-serif; text-anchor: start" x="98.14662" y="30.420438" transform="rotate(-0 98.14662 30.420438)">均值 = 0.95</text>
    </g>
    <g id="line2d_16">
     <path d="M 83.74662 36.900438 
L 88.54662 36.900438 
L 93.34662 36.900438 
" style="fill: none; stroke-dasharray: 0.7,1.155; stroke-dashoffset: 0; stroke: #767676; stroke-width: 0.7"/>
    </g>
    <g id="text_17">
     <text style="font-size: 6px; font-family: 'PingFang SC', 'Heiti SC', 'STHeiti', 'Arial Unicode MS', 'Arial', 'Helvetica', 'DejaVu Sans', sans-serif; text-anchor: start" x="98.14662" y="39.000438" transform="rotate(-0 98.14662 39.000438)">随机基线 0.5</text>
    </g>
   </g>
  </g>
  <g id="axes_2">
   <g id="patch_17">
    <path d="M 78.94662 272.208908 
L 527.362998 272.208908 
L 527.362998 166.712638 
L 78.94662 166.712638 
z
" style="fill: #ffffff"/>
   </g>
   <g id="patch_18">
    <path d="M 99.329183 272.208908 
L 109.781779 272.208908 
L 109.781779 272.208908 
L 99.329183 272.208908 
z
" clip-path="url(#pec36ac3261)" style="fill: #8bcf8b; opacity: 0.6"/>
   </g>
   <g id="patch_19">
    <path d="M 109.781779 272.208908 
L 120.234376 272.208908 
L 120.234376 272.208908 
L 109.781779 272.208908 
z
" clip-path="url(#pec36ac3261)" style="fill: #8bcf8b; opacity: 0.6"/>
   </g>
   <g id="patch_20">
    <path d="M 120.234376 272.208908 
L 130.686972 272.208908 
L 130.686972 272.208908 
L 120.234376 272.208908 
z
" clip-path="url(#pec36ac3261)" style="fill: #8bcf8b; opacity: 0.6"/>
   </g>
   <g id="patch_21">
    <path d="M 130.686972 272.208908 
L 141.139568 272.208908 
L 141.139568 272.208908 
L 130.686972 272.208908 
z
" clip-path="url(#pec36ac3261)" style="fill: #8bcf8b; opacity: 0.6"/>
   </g>
   <g id="patch_22">
    <path d="M 141.139568 272.208908 
L 151.592164 272.208908 
L 151.592164 272.208908 
L 141.139568 272.208908 
z
" clip-path="url(#pec36ac3261)" style="fill: #8bcf8b; opacity: 0.6"/>
   </g>
   <g id="patch_23">
    <path d="M 151.592164 272.208908 
L 162.04476 272.208908 
L 162.04476 272.208908 
L 151.592164 272.208908 
z
" clip-path="url(#pec36ac3261)" style="fill: #8bcf8b; opacity: 0.6"/>
   </g>
   <g id="patch_24">
    <path d="M 162.04476 272.208908 
L 172.497357 272.208908 
L 172.497357 272.208908 
L 162.04476 272.208908 
z
" clip-path="url(#pec36ac3261)" style="fill: #8bcf8b; opacity: 0.6"/>
   </g>
   <g id="patch_25">
    <path d="M 172.497357 272.208908 
L 182.949953 272.208908 
L 182.949953 272.208908 
L 172.497357 272.208908 
z
" clip-path="url(#pec36ac3261)" style="fill: #8bcf8b; opacity: 0.6"/>
   </g>
   <g id="patch_26">
    <path d="M 182.949953 272.208908 
L 193.402549 272.208908 
L 193.402549 272.208908 
L 182.949953 272.208908 
z
" clip-path="url(#pec36ac3261)" style="fill: #8bcf8b; opacity: 0.6"/>
   </g>
   <g id="patch_27">
    <path d="M 193.402549 272.208908 
L 203.855145 272.208908 
L 203.855145 266.025976 
L 193.402549 266.025976 
z
" clip-path="url(#pec36ac3261)" style="fill: #8bcf8b; opacity: 0.6"/>
   </g>
   <g id="patch_28">
    <path d="M 203.855145 272.208908 
L 214.307742 272.208908 
L 214.307742 264.480244 
L 203.855145 264.480244 
z
" clip-path="url(#pec36ac3261)" style="fill: #8bcf8b; opacity: 0.6"/>
   </g>
   <g id="patch_29">
    <path d="M 214.307742 272.208908 
L 224.760338 272.208908 
L 224.760338 266.798843 
L 214.307742 266.798843 
z
" clip-path="url(#pec36ac3261)" style="fill: #8bcf8b; opacity: 0.6"/>
   </g>
   <g id="patch_30">
    <path d="M 224.760338 272.208908 
L 235.212934 272.208908 
L 235.212934 259.070178 
L 224.760338 259.070178 
z
" clip-path="url(#pec36ac3261)" style="fill: #8bcf8b; opacity: 0.6"/>
   </g>
   <g id="patch_31">
    <path d="M 235.212934 272.208908 
L 245.66553 272.208908 
L 245.66553 262.934511 
L 235.212934 262.934511 
z
" clip-path="url(#pec36ac3261)" style="fill: #8bcf8b; opacity: 0.6"/>
   </g>
   <g id="patch_32">
    <path d="M 245.66553 272.208908 
L 256.118126 272.208908 
L 256.118126 237.429918 
L 245.66553 237.429918 
z
" clip-path="url(#pec36ac3261)" style="fill: #8bcf8b; opacity: 0.6"/>
   </g>
   <g id="patch_33">
    <path d="M 256.118126 272.208908 
L 266.570723 272.208908 
L 266.570723 255.205846 
L 256.118126 255.205846 
z
" clip-path="url(#pec36ac3261)" style="fill: #8bcf8b; opacity: 0.6"/>
   </g>
   <g id="patch_34">
    <path d="M 266.570723 272.208908 
L 277.023319 272.208908 
L 277.023319 230.47412 
L 266.570723 230.47412 
z
" clip-path="url(#pec36ac3261)" style="fill: #8bcf8b; opacity: 0.6"/>
   </g>
   <g id="patch_35">
    <path d="M 277.023319 272.208908 
L 287.475915 272.208908 
L 287.475915 201.105195 
L 277.023319 201.105195 
z
" clip-path="url(#pec36ac3261)" style="fill: #8bcf8b; opacity: 0.6"/>
   </g>
   <g id="patch_36">
    <path d="M 287.475915 272.208908 
L 297.928511 272.208908 
L 297.928511 171.73627 
L 287.475915 171.73627 
z
" clip-path="url(#pec36ac3261)" style="fill: #8bcf8b; opacity: 0.6"/>
   </g>
   <g id="patch_37">
    <path d="M 297.928511 272.208908 
L 308.381108 272.208908 
L 308.381108 208.83386 
L 297.928511 208.83386 
z
" clip-path="url(#pec36ac3261)" style="fill: #8bcf8b; opacity: 0.6"/>
   </g>
   <g id="patch_38">
    <path d="M 308.381108 272.208908 
L 318.833704 272.208908 
L 318.833704 210.379592 
L 308.381108 210.379592 
z
" clip-path="url(#pec36ac3261)" style="fill: #8bcf8b; opacity: 0.6"/>
   </g>
   <g id="patch_39">
    <path d="M 318.833704 272.208908 
L 329.2863 272.208908 
L 329.2863 238.975651 
L 318.833704 238.975651 
z
" clip-path="url(#pec36ac3261)" style="fill: #8bcf8b; opacity: 0.6"/>
   </g>
   <g id="patch_40">
    <path d="M 329.2863 272.208908 
L 339.738896 272.208908 
L 339.738896 254.43298 
L 329.2863 254.43298 
z
" clip-path="url(#pec36ac3261)" style="fill: #8bcf8b; opacity: 0.6"/>
   </g>
   <g id="patch_41">
    <path d="M 339.738896 272.208908 
L 350.191492 272.208908 
L 350.191492 255.978713 
L 339.738896 255.978713 
z
" clip-path="url(#pec36ac3261)" style="fill: #8bcf8b; opacity: 0.6"/>
   </g>
   <g id="patch_42">
    <path d="M 350.191492 272.208908 
L 360.644089 272.208908 
L 360.644089 257.524446 
L 350.191492 257.524446 
z
" clip-path="url(#pec36ac3261)" style="fill: #8bcf8b; opacity: 0.6"/>
   </g>
   <g id="patch_43">
    <path d="M 360.644089 272.208908 
L 371.096685 272.208908 
L 371.096685 262.934511 
L 360.644089 262.934511 
z
" clip-path="url(#pec36ac3261)" style="fill: #8bcf8b; opacity: 0.6"/>
   </g>
   <g id="patch_44">
    <path d="M 371.096685 272.208908 
L 381.549281 272.208908 
L 381.549281 266.798843 
L 371.096685 266.798843 
z
" clip-path="url(#pec36ac3261)" style="fill: #8bcf8b; opacity: 0.6"/>
   </g>
   <g id="patch_45">
    <path d="M 381.549281 272.208908 
L 392.001877 272.208908 
L 392.001877 271.436042 
L 381.549281 271.436042 
z
" clip-path="url(#pec36ac3261)" style="fill: #8bcf8b; opacity: 0.6"/>
   </g>
   <g id="patch_46">
    <path d="M 392.001877 272.208908 
L 402.454474 272.208908 
L 402.454474 272.208908 
L 392.001877 272.208908 
z
" clip-path="url(#pec36ac3261)" style="fill: #8bcf8b; opacity: 0.6"/>
   </g>
   <g id="patch_47">
    <path d="M 402.454474 272.208908 
L 412.90707 272.208908 
L 412.90707 272.208908 
L 402.454474 272.208908 
z
" clip-path="url(#pec36ac3261)" style="fill: #8bcf8b; opacity: 0.6"/>
   </g>
   <g id="patch_48">
    <path d="M 412.90707 272.208908 
L 423.359666 272.208908 
L 423.359666 272.208908 
L 412.90707 272.208908 
z
" clip-path="url(#pec36ac3261)" style="fill: #8bcf8b; opacity: 0.6"/>
   </g>
   <g id="patch_49">
    <path d="M 423.359666 272.208908 
L 433.812262 272.208908 
L 433.812262 272.208908 
L 423.359666 272.208908 
z
" clip-path="url(#pec36ac3261)" style="fill: #8bcf8b; opacity: 0.6"/>
   </g>
   <g id="patch_50">
    <path d="M 433.812262 272.208908 
L 444.264858 272.208908 
L 444.264858 272.208908 
L 433.812262 272.208908 
z
" clip-path="url(#pec36ac3261)" style="fill: #8bcf8b; opacity: 0.6"/>
   </g>
   <g id="patch_51">
    <path d="M 444.264858 272.208908 
L 454.717455 272.208908 
L 454.717455 272.208908 
L 444.264858 272.208908 
z
" clip-path="url(#pec36ac3261)" style="fill: #8bcf8b; opacity: 0.6"/>
   </g>
   <g id="patch_52">
    <path d="M 454.717455 272.208908 
L 465.170051 272.208908 
L 465.170051 272.208908 
L 454.717455 272.208908 
z
" clip-path="url(#pec36ac3261)" style="fill: #8bcf8b; opacity: 0.6"/>
   </g>
   <g id="patch_53">
    <path d="M 465.170051 272.208908 
L 475.622647 272.208908 
L 475.622647 272.208908 
L 465.170051 272.208908 
z
" clip-path="url(#pec36ac3261)" style="fill: #8bcf8b; opacity: 0.6"/>
   </g>
   <g id="patch_54">
    <path d="M 475.622647 272.208908 
L 486.075243 272.208908 
L 486.075243 272.208908 
L 475.622647 272.208908 
z
" clip-path="url(#pec36ac3261)" style="fill: #8bcf8b; opacity: 0.6"/>
   </g>
   <g id="patch_55">
    <path d="M 486.075243 272.208908 
L 496.52784 272.208908 
L 496.52784 272.208908 
L 486.075243 272.208908 
z
" clip-path="url(#pec36ac3261)" style="fill: #8bcf8b; opacity: 0.6"/>
   </g>
   <g id="patch_56">
    <path d="M 496.52784 272.208908 
L 506.980436 272.208908 
L 506.980436 272.208908 
L 496.52784 272.208908 
z
" clip-path="url(#pec36ac3261)" style="fill: #8bcf8b; opacity: 0.6"/>
   </g>
   <g id="patch_57">
    <path d="M 99.329183 272.208908 
L 109.781779 272.208908 
L 109.781779 272.208908 
L 99.329183 272.208908 
z
" clip-path="url(#pec36ac3261)" style="fill: #b64342; opacity: 0.6"/>
   </g>
   <g id="patch_58">
    <path d="M 109.781779 272.208908 
L 120.234376 272.208908 
L 120.234376 272.208908 
L 109.781779 272.208908 
z
" clip-path="url(#pec36ac3261)" style="fill: #b64342; opacity: 0.6"/>
   </g>
   <g id="patch_59">
    <path d="M 120.234376 272.208908 
L 130.686972 272.208908 
L 130.686972 272.208908 
L 120.234376 272.208908 
z
" clip-path="url(#pec36ac3261)" style="fill: #b64342; opacity: 0.6"/>
   </g>
   <g id="patch_60">
    <path d="M 130.686972 272.208908 
L 141.139568 272.208908 
L 141.139568 272.208908 
L 130.686972 272.208908 
z
" clip-path="url(#pec36ac3261)" style="fill: #b64342; opacity: 0.6"/>
   </g>
   <g id="patch_61">
    <path d="M 141.139568 272.208908 
L 151.592164 272.208908 
L 151.592164 272.208908 
L 141.139568 272.208908 
z
" clip-path="url(#pec36ac3261)" style="fill: #b64342; opacity: 0.6"/>
   </g>
   <g id="patch_62">
    <path d="M 151.592164 272.208908 
L 162.04476 272.208908 
L 162.04476 272.208908 
L 151.592164 272.208908 
z
" clip-path="url(#pec36ac3261)" style="fill: #b64342; opacity: 0.6"/>
   </g>
   <g id="patch_63">
    <path d="M 162.04476 272.208908 
L 172.497357 272.208908 
L 172.497357 272.208908 
L 162.04476 272.208908 
z
" clip-path="url(#pec36ac3261)" style="fill: #b64342; opacity: 0.6"/>
   </g>
   <g id="patch_64">
    <path d="M 172.497357 272.208908 
L 182.949953 272.208908 
L 182.949953 272.208908 
L 172.497357 272.208908 
z
" clip-path="url(#pec36ac3261)" style="fill: #b64342; opacity: 0.6"/>
   </g>
   <g id="patch_65">
    <path d="M 182.949953 272.208908 
L 193.402549 272.208908 
L 193.402549 272.208908 
L 182.949953 272.208908 
z
" clip-path="url(#pec36ac3261)" style="fill: #b64342; opacity: 0.6"/>
   </g>
   <g id="patch_66">
    <path d="M 193.402549 272.208908 
L 203.855145 272.208908 
L 203.855145 272.208908 
L 193.402549 272.208908 
z
" clip-path="url(#pec36ac3261)" style="fill: #b64342; opacity: 0.6"/>
   </g>
   <g id="patch_67">
    <path d="M 203.855145 272.208908 
L 214.307742 272.208908 
L 214.307742 272.208908 
L 203.855145 272.208908 
z
" clip-path="url(#pec36ac3261)" style="fill: #b64342; opacity: 0.6"/>
   </g>
   <g id="patch_68">
    <path d="M 214.307742 272.208908 
L 224.760338 272.208908 
L 224.760338 272.208908 
L 214.307742 272.208908 
z
" clip-path="url(#pec36ac3261)" style="fill: #b64342; opacity: 0.6"/>
   </g>
   <g id="patch_69">
    <path d="M 224.760338 272.208908 
L 235.212934 272.208908 
L 235.212934 272.208908 
L 224.760338 272.208908 
z
" clip-path="url(#pec36ac3261)" style="fill: #b64342; opacity: 0.6"/>
   </g>
   <g id="patch_70">
    <path d="M 235.212934 272.208908 
L 245.66553 272.208908 
L 245.66553 272.208908 
L 235.212934 272.208908 
z
" clip-path="url(#pec36ac3261)" style="fill: #b64342; opacity: 0.6"/>
   </g>
   <g id="patch_71">
    <path d="M 245.66553 272.208908 
L 256.118126 272.208908 
L 256.118126 272.208908 
L 245.66553 272.208908 
z
" clip-path="url(#pec36ac3261)" style="fill: #b64342; opacity: 0.6"/>
   </g>
   <g id="patch_72">
    <path d="M 256.118126 272.208908 
L 266.570723 272.208908 
L 266.570723 272.208908 
L 256.118126 272.208908 
z
" clip-path="url(#pec36ac3261)" style="fill: #b64342; opacity: 0.6"/>
   </g>
   <g id="patch_73">
    <path d="M 266.570723 272.208908 
L 277.023319 272.208908 
L 277.023319 272.208908 
L 266.570723 272.208908 
z
" clip-path="url(#pec36ac3261)" style="fill: #b64342; opacity: 0.6"/>
   </g>
   <g id="patch_74">
    <path d="M 277.023319 272.208908 
L 287.475915 272.208908 
L 287.475915 272.208908 
L 277.023319 272.208908 
z
" clip-path="url(#pec36ac3261)" style="fill: #b64342; opacity: 0.6"/>
   </g>
   <g id="patch_75">
    <path d="M 287.475915 272.208908 
L 297.928511 272.208908 
L 297.928511 262.934511 
L 287.475915 262.934511 
z
" clip-path="url(#pec36ac3261)" style="fill: #b64342; opacity: 0.6"/>
   </g>
   <g id="patch_76">
    <path d="M 297.928511 272.208908 
L 308.381108 272.208908 
L 308.381108 252.887247 
L 297.928511 252.887247 
z
" clip-path="url(#pec36ac3261)" style="fill: #b64342; opacity: 0.6"/>
   </g>
   <g id="patch_77">
    <path d="M 308.381108 272.208908 
L 318.833704 272.208908 
L 318.833704 271.436042 
L 308.381108 271.436042 
z
" clip-path="url(#pec36ac3261)" style="fill: #b64342; opacity: 0.6"/>
   </g>
   <g id="patch_78">
    <path d="M 318.833704 272.208908 
L 329.2863 272.208908 
L 329.2863 271.436042 
L 318.833704 271.436042 
z
" clip-path="url(#pec36ac3261)" style="fill: #b64342; opacity: 0.6"/>
   </g>
   <g id="patch_79">
    <path d="M 329.2863 272.208908 
L 339.738896 272.208908 
L 339.738896 271.436042 
L 329.2863 271.436042 
z
" clip-path="url(#pec36ac3261)" style="fill: #b64342; opacity: 0.6"/>
   </g>
   <g id="patch_80">
    <path d="M 339.738896 272.208908 
L 350.191492 272.208908 
L 350.191492 272.208908 
L 339.738896 272.208908 
z
" clip-path="url(#pec36ac3261)" style="fill: #b64342; opacity: 0.6"/>
   </g>
   <g id="patch_81">
    <path d="M 350.191492 272.208908 
L 360.644089 272.208908 
L 360.644089 272.208908 
L 350.191492 272.208908 
z
" clip-path="url(#pec36ac3261)" style="fill: #b64342; opacity: 0.6"/>
   </g>
   <g id="patch_82">
    <path d="M 360.644089 272.208908 
L 371.096685 272.208908 
L 371.096685 272.208908 
L 360.644089 272.208908 
z
" clip-path="url(#pec36ac3261)" style="fill: #b64342; opacity: 0.6"/>
   </g>
   <g id="patch_83">
    <path d="M 371.096685 272.208908 
L 381.549281 272.208908 
L 381.549281 272.208908 
L 371.096685 272.208908 
z
" clip-path="url(#pec36ac3261)" style="fill: #b64342; opacity: 0.6"/>
   </g>
   <g id="patch_84">
    <path d="M 381.549281 272.208908 
L 392.001877 272.208908 
L 392.001877 272.208908 
L 381.549281 272.208908 
z
" clip-path="url(#pec36ac3261)" style="fill: #b64342; opacity: 0.6"/>
   </g>
   <g id="patch_85">
    <path d="M 392.001877 272.208908 
L 402.454474 272.208908 
L 402.454474 272.208908 
L 392.001877 272.208908 
z
" clip-path="url(#pec36ac3261)" style="fill: #b64342; opacity: 0.6"/>
   </g>
   <g id="patch_86">
    <path d="M 402.454474 272.208908 
L 412.90707 272.208908 
L 412.90707 272.208908 
L 402.454474 272.208908 
z
" clip-path="url(#pec36ac3261)" style="fill: #b64342; opacity: 0.6"/>
   </g>
   <g id="patch_87">
    <path d="M 412.90707 272.208908 
L 423.359666 272.208908 
L 423.359666 272.208908 
L 412.90707 272.208908 
z
" clip-path="url(#pec36ac3261)" style="fill: #b64342; opacity: 0.6"/>
   </g>
   <g id="patch_88">
    <path d="M 423.359666 272.208908 
L 433.812262 272.208908 
L 433.812262 272.208908 
L 423.359666 272.208908 
z
" clip-path="url(#pec36ac3261)" style="fill: #b64342; opacity: 0.6"/>
   </g>
   <g id="patch_89">
    <path d="M 433.812262 272.208908 
L 444.264858 272.208908 
L 444.264858 272.208908 
L 433.812262 272.208908 
z
" clip-path="url(#pec36ac3261)" style="fill: #b64342; opacity: 0.6"/>
   </g>
   <g id="patch_90">
    <path d="M 444.264858 272.208908 
L 454.717455 272.208908 
L 454.717455 272.208908 
L 444.264858 272.208908 
z
" clip-path="url(#pec36ac3261)" style="fill: #b64342; opacity: 0.6"/>
   </g>
   <g id="patch_91">
    <path d="M 454.717455 272.208908 
L 465.170051 272.208908 
L 465.170051 272.208908 
L 454.717455 272.208908 
z
" clip-path="url(#pec36ac3261)" style="fill: #b64342; opacity: 0.6"/>
   </g>
   <g id="patch_92">
    <path d="M 465.170051 272.208908 
L 475.622647 272.208908 
L 475.622647 272.208908 
L 465.170051 272.208908 
z
" clip-path="url(#pec36ac3261)" style="fill: #b64342; opacity: 0.6"/>
   </g>
   <g id="patch_93">
    <path d="M 475.622647 272.208908 
L 486.075243 272.208908 
L 486.075243 272.208908 
L 475.622647 272.208908 
z
" clip-path="url(#pec36ac3261)" style="fill: #b64342; opacity: 0.6"/>
   </g>
   <g id="patch_94">
    <path d="M 486.075243 272.208908 
L 496.52784 272.208908 
L 496.52784 272.208908 
L 486.075243 272.208908 
z
" clip-path="url(#pec36ac3261)" style="fill: #b64342; opacity: 0.6"/>
   </g>
   <g id="patch_95">
    <path d="M 496.52784 272.208908 
L 506.980436 272.208908 
L 506.980436 272.208908 
L 496.52784 272.208908 
z
" clip-path="url(#pec36ac3261)" style="fill: #b64342; opacity: 0.6"/>
   </g>
   <g id="matplotlib.axis_3">
    <g id="xtick_8">
     <g id="line2d_17">
      <g>
       <use xlink:href="#m8478aaca0e" x="99.329183" y="272.208908" style="stroke: #000000; stroke-width: 0.8"/>
      </g>
     </g>
     <g id="text_18">
      <text style="font-size: 7px; font-family: 'PingFang SC', 'Heiti SC', 'STHeiti', 'Arial Unicode MS', 'Arial', 'Helvetica', 'DejaVu Sans', sans-serif; text-anchor: middle" x="99.329183" y="284.28047" transform="rotate(-0 99.329183 284.28047)">-1.00</text>
     </g>
    </g>
    <g id="xtick_9">
     <g id="line2d_18">
      <g>
       <use xlink:href="#m8478aaca0e" x="150.28559" y="272.208908" style="stroke: #000000; stroke-width: 0.8"/>
      </g>
     </g>
     <g id="text_19">
      <text style="font-size: 7px; font-family: 'PingFang SC', 'Heiti SC', 'STHeiti', 'Arial Unicode MS', 'Arial', 'Helvetica', 'DejaVu Sans', sans-serif; text-anchor: middle" x="150.28559" y="284.28047" transform="rotate(-0 150.28559 284.28047)">-0.75</text>
     </g>
    </g>
    <g id="xtick_10">
     <g id="line2d_19">
      <g>
       <use xlink:href="#m8478aaca0e" x="201.241996" y="272.208908" style="stroke: #000000; stroke-width: 0.8"/>
      </g>
     </g>
     <g id="text_20">
      <text style="font-size: 7px; font-family: 'PingFang SC', 'Heiti SC', 'STHeiti', 'Arial Unicode MS', 'Arial', 'Helvetica', 'DejaVu Sans', sans-serif; text-anchor: middle" x="201.241996" y="284.28047" transform="rotate(-0 201.241996 284.28047)">-0.50</text>
     </g>
    </g>
    <g id="xtick_11">
     <g id="line2d_20">
      <g>
       <use xlink:href="#m8478aaca0e" x="252.198403" y="272.208908" style="stroke: #000000; stroke-width: 0.8"/>
      </g>
     </g>
     <g id="text_21">
      <text style="font-size: 7px; font-family: 'PingFang SC', 'Heiti SC', 'STHeiti', 'Arial Unicode MS', 'Arial', 'Helvetica', 'DejaVu Sans', sans-serif; text-anchor: middle" x="252.198403" y="284.28047" transform="rotate(-0 252.198403 284.28047)">-0.25</text>
     </g>
    </g>
    <g id="xtick_12">
     <g id="line2d_21">
      <g>
       <use xlink:href="#m8478aaca0e" x="303.154809" y="272.208908" style="stroke: #000000; stroke-width: 0.8"/>
      </g>
     </g>
     <g id="text_22">
      <text style="font-size: 7px; font-family: 'PingFang SC', 'Heiti SC', 'STHeiti', 'Arial Unicode MS', 'Arial', 'Helvetica', 'DejaVu Sans', sans-serif; text-anchor: middle" x="303.154809" y="284.28047" transform="rotate(-0 303.154809 284.28047)">0.00</text>
     </g>
    </g>
    <g id="xtick_13">
     <g id="line2d_22">
      <g>
       <use xlink:href="#m8478aaca0e" x="354.111216" y="272.208908" style="stroke: #000000; stroke-width: 0.8"/>
      </g>
     </g>
     <g id="text_23">
      <text style="font-size: 7px; font-family: 'PingFang SC', 'Heiti SC', 'STHeiti', 'Arial Unicode MS', 'Arial', 'Helvetica', 'DejaVu Sans', sans-serif; text-anchor: middle" x="354.111216" y="284.28047" transform="rotate(-0 354.111216 284.28047)">0.25</text>
     </g>
    </g>
    <g id="xtick_14">
     <g id="line2d_23">
      <g>
       <use xlink:href="#m8478aaca0e" x="405.067623" y="272.208908" style="stroke: #000000; stroke-width: 0.8"/>
      </g>
     </g>
     <g id="text_24">
      <text style="font-size: 7px; font-family: 'PingFang SC', 'Heiti SC', 'STHeiti', 'Arial Unicode MS', 'Arial', 'Helvetica', 'DejaVu Sans', sans-serif; text-anchor: middle" x="405.067623" y="284.28047" transform="rotate(-0 405.067623 284.28047)">0.50</text>
     </g>
    </g>
    <g id="xtick_15">
     <g id="line2d_24">
      <g>
       <use xlink:href="#m8478aaca0e" x="456.024029" y="272.208908" style="stroke: #000000; stroke-width: 0.8"/>
      </g>
     </g>
     <g id="text_25">
      <text style="font-size: 7px; font-family: 'PingFang SC', 'Heiti SC', 'STHeiti', 'Arial Unicode MS', 'Arial', 'Helvetica', 'DejaVu Sans', sans-serif; text-anchor: middle" x="456.024029" y="284.28047" transform="rotate(-0 456.024029 284.28047)">0.75</text>
     </g>
    </g>
    <g id="xtick_16">
     <g id="line2d_25">
      <g>
       <use xlink:href="#m8478aaca0e" x="506.980436" y="272.208908" style="stroke: #000000; stroke-width: 0.8"/>
      </g>
     </g>
     <g id="text_26">
      <text style="font-size: 7px; font-family: 'PingFang SC', 'Heiti SC', 'STHeiti', 'Arial Unicode MS', 'Arial', 'Helvetica', 'DejaVu Sans', sans-serif; text-anchor: middle" x="506.980436" y="284.28047" transform="rotate(-0 506.980436 284.28047)">1.00</text>
     </g>
    </g>
    <g id="text_27">
     <text style="font-size: 7.5px; font-family: 'PingFang SC', 'Heiti SC', 'STHeiti', 'Arial Unicode MS', 'Arial', 'Helvetica', 'DejaVu Sans', sans-serif; text-anchor: middle" x="303.154809" y="295.27047" transform="rotate(-0 303.154809 295.27047)">信念 − 市场价格</text>
    </g>
   </g>
   <g id="matplotlib.axis_4">
    <g id="ytick_6">
     <g id="line2d_26">
      <g>
       <use xlink:href="#mf679f9bbcf" x="78.94662" y="272.208908" style="stroke: #000000; stroke-width: 0.8"/>
      </g>
     </g>
     <g id="text_28">
      <text style="font-size: 7px; font-family: 'PingFang SC', 'Heiti SC', 'STHeiti', 'Arial Unicode MS', 'Arial', 'Helvetica', 'DejaVu Sans', sans-serif; text-anchor: end" x="72.44662" y="274.994689" transform="rotate(-0 72.44662 274.994689)">0</text>
     </g>
    </g>
    <g id="ytick_7">
     <g id="line2d_27">
      <g>
       <use xlink:href="#mf679f9bbcf" x="78.94662" y="256.751579" style="stroke: #000000; stroke-width: 0.8"/>
      </g>
     </g>
     <g id="text_29">
      <text style="font-size: 7px; font-family: 'PingFang SC', 'Heiti SC', 'STHeiti', 'Arial Unicode MS', 'Arial', 'Helvetica', 'DejaVu Sans', sans-serif; text-anchor: end" x="72.44662" y="259.53736" transform="rotate(-0 72.44662 259.53736)">20</text>
     </g>
    </g>
    <g id="ytick_8">
     <g id="line2d_28">
      <g>
       <use xlink:href="#mf679f9bbcf" x="78.94662" y="241.29425" style="stroke: #000000; stroke-width: 0.8"/>
      </g>
     </g>
     <g id="text_30">
      <text style="font-size: 7px; font-family: 'PingFang SC', 'Heiti SC', 'STHeiti', 'Arial Unicode MS', 'Arial', 'Helvetica', 'DejaVu Sans', sans-serif; text-anchor: end" x="72.44662" y="244.080031" transform="rotate(-0 72.44662 244.080031)">40</text>
     </g>
    </g>
    <g id="ytick_9">
     <g id="line2d_29">
      <g>
       <use xlink:href="#mf679f9bbcf" x="78.94662" y="225.836921" style="stroke: #000000; stroke-width: 0.8"/>
      </g>
     </g>
     <g id="text_31">
      <text style="font-size: 7px; font-family: 'PingFang SC', 'Heiti SC', 'STHeiti', 'Arial Unicode MS', 'Arial', 'Helvetica', 'DejaVu Sans', sans-serif; text-anchor: end" x="72.44662" y="228.622703" transform="rotate(-0 72.44662 228.622703)">60</text>
     </g>
    </g>
    <g id="ytick_10">
     <g id="line2d_30">
      <g>
       <use xlink:href="#mf679f9bbcf" x="78.94662" y="210.379592" style="stroke: #000000; stroke-width: 0.8"/>
      </g>
     </g>
     <g id="text_32">
      <text style="font-size: 7px; font-family: 'PingFang SC', 'Heiti SC', 'STHeiti', 'Arial Unicode MS', 'Arial', 'Helvetica', 'DejaVu Sans', sans-serif; text-anchor: end" x="72.44662" y="213.165374" transform="rotate(-0 72.44662 213.165374)">80</text>
     </g>
    </g>
    <g id="ytick_11">
     <g id="line2d_31">
      <g>
       <use xlink:href="#mf679f9bbcf" x="78.94662" y="194.922264" style="stroke: #000000; stroke-width: 0.8"/>
      </g>
     </g>
     <g id="text_33">
      <text style="font-size: 7px; font-family: 'PingFang SC', 'Heiti SC', 'STHeiti', 'Arial Unicode MS', 'Arial', 'Helvetica', 'DejaVu Sans', sans-serif; text-anchor: end" x="72.44662" y="197.708045" transform="rotate(-0 72.44662 197.708045)">100</text>
     </g>
    </g>
    <g id="ytick_12">
     <g id="line2d_32">
      <g>
       <use xlink:href="#mf679f9bbcf" x="78.94662" y="179.464935" style="stroke: #000000; stroke-width: 0.8"/>
      </g>
     </g>
     <g id="text_34">
      <text style="font-size: 7px; font-family: 'PingFang SC', 'Heiti SC', 'STHeiti', 'Arial Unicode MS', 'Arial', 'Helvetica', 'DejaVu Sans', sans-serif; text-anchor: end" x="72.44662" y="182.250716" transform="rotate(-0 72.44662 182.250716)">120</text>
     </g>
    </g>
    <g id="text_35">
     <text style="font-size: 7.5px; font-family: 'PingFang SC', 'Heiti SC', 'STHeiti', 'Arial Unicode MS', 'Arial', 'Helvetica', 'DejaVu Sans', sans-serif; text-anchor: middle" x="55.805839" y="219.460773" transform="rotate(-90 55.805839 219.460773)">交易笔数</text>
    </g>
   </g>
   <g id="line2d_33">
    <path d="M 303.154809 272.208908 
L 303.154809 166.712638 
" clip-path="url(#pec36ac3261)" style="fill: none; stroke-dasharray: 0.7,1.155; stroke-dashoffset: 0; stroke: #4d4d4d; stroke-width: 0.7"/>
   </g>
   <g id="patch_96">
    <path d="M 78.94662 272.208908 
L 78.94662 166.712638 
" style="fill: none; stroke: #000000; stroke-width: 0.8; stroke-linejoin: miter; stroke-linecap: square"/>
   </g>
   <g id="patch_97">
    <path d="M 78.94662 272.208908 
L 527.362998 272.208908 
" style="fill: none; stroke: #000000; stroke-width: 0.8; stroke-linejoin: miter; stroke-linecap: square"/>
   </g>
   <g id="text_36">
    <text style="font-weight: 700; font-size: 9px; font-family: 'PingFang SC', 'Heiti SC', 'STHeiti', 'Arial Unicode MS', 'Arial', 'Helvetica', 'DejaVu Sans', sans-serif; text-anchor: start" x="7.2" y="160.231262" transform="rotate(-0 7.2 160.231262)">b</text>
   </g>
   <g id="legend_2">
    <g id="patch_98">
     <path d="M 471.514248 176.348263 
L 481.114248 176.348263 
L 481.114248 172.148263 
L 471.514248 172.148263 
z
" style="fill: #8bcf8b; opacity: 0.6"/>
    </g>
    <g id="text_37">
     <text style="font-size: 6px; font-family: 'PingFang SC', 'Heiti SC', 'STHeiti', 'Arial Unicode MS', 'Arial', 'Helvetica', 'DejaVu Sans', sans-serif; text-anchor: start" x="485.914248" y="176.348263" transform="rotate(-0 485.914248 176.348263)">一致（685）</text>
    </g>
    <g id="patch_99">
     <path d="M 471.514248 184.988263 
L 481.114248 184.988263 
L 481.114248 180.788263 
L 471.514248 180.788263 
z
" style="fill: #b64342; opacity: 0.6"/>
    </g>
    <g id="text_38">
     <text style="font-size: 6px; font-family: 'PingFang SC', 'Heiti SC', 'STHeiti', 'Arial Unicode MS', 'Arial', 'Helvetica', 'DejaVu Sans', sans-serif; text-anchor: start" x="485.914248" y="184.988263" transform="rotate(-0 485.914248 184.988263)">不一致（40）</text>
    </g>
   </g>
  </g>
 </g>
 <defs>
  <clipPath id="p45da435f9b">
   <rect x="78.94662" y="20.844813" width="448.416378" height="105.49627"/>
  </clipPath>
  <clipPath id="pec36ac3261">
   <rect x="78.94662" y="166.712638" width="448.416378" height="105.49627"/>
  </clipPath>
 </defs>
</svg>
