<?xml version="1.0" encoding="utf-8" standalone="no"?>
<!DOCTYPE svg PUBLIC "-//W3C//DTD SVG 1.1//EN"
  "http://www.w3.org/Graphics/SVG/1.1/DTD/svg11.dtd">
<svg xmlns:xlink="http://www.w3.org/1999/xlink" width="526.96297pt" height="335.887661pt" viewBox="0 0 526.96297 335.887661" xmlns="http://www.w3.org/2000/svg" version="1.1">
 <metadata>
  <rdf:RDF xmlns:dc="http://purl.org/dc/elements/1.1/" xmlns:cc="http://creativecommons.org/ns#" xmlns:rdf="http://www.w3.org/1999/02/22-rdf-syntax-ns#">
   <cc:Work>
    <dc:type rdf:resource="http://purl.org/dc/dcmitype/StillImage"/>
    <dc:date>2026-05-23T23:51:55.181915</dc:date>
    <dc:format>image/svg+xml</dc:format>
    <dc:creator>
     <cc:Agent>
      <dc:title>Matplotlib v3.10.9, https://matplotlib.org/</dc:title>
     </cc:Agent>
    </dc:creator>
   </cc:Work>
  </rdf:RDF>
 </metadata>
 <defs>
  <style type="text/css">*{stroke-linejoin: round; stroke-linecap: butt}</style>
 </defs>
 <g id="figure_1">
  <g id="patch_1">
   <path d="M 0 335.887661 
L 526.96297 335.887661 
L 526.96297 0 
L 0 0 
z
" style="fill: #ffffff"/>
  </g>
  <g id="axes_1">
   <g id="patch_2">
    <path d="M 36.422813 135.039515 
L 519.76297 135.039515 
L 519.76297 18.771563 
L 36.422813 18.771563 
z
" style="fill: #ffffff"/>
   </g>
   <g id="FillBetweenPolyCollection_1">
    <path d="M 58.39282 135.039515 
L 58.39282 135.039515 
L 81.519143 135.039515 
L 104.645466 135.039515 
L 127.77179 135.039515 
L 150.898113 135.039515 
L 174.024436 135.039515 
L 197.15076 135.039515 
L 220.277083 135.039515 
L 243.403406 135.039515 
L 266.52973 135.039515 
L 289.656053 135.039515 
L 312.782376 135.039515 
L 335.9087 135.039515 
L 359.035023 135.039515 
L 382.161346 135.039515 
L 405.28767 135.039515 
L 428.413993 135.039515 
L 451.540316 135.039515 
L 474.666639 135.039515 
L 497.792963 135.039515 
L 497.792963 117.599322 
L 497.792963 117.599322 
L 474.666639 101.128029 
L 451.540316 108.614981 
L 428.413993 105.972527 
L 405.28767 117.599322 
L 382.161346 98.045167 
L 359.035023 112.893239 
L 335.9087 111.785925 
L 312.782376 135.039515 
L 289.656053 82.718937 
L 266.52973 88.532334 
L 243.403406 107.356669 
L 220.277083 87.475353 
L 197.15076 118.429808 
L 174.024436 83.881616 
L 150.898113 103.330074 
L 127.77179 108.614981 
L 104.645466 114.819002 
L 81.519143 65.278744 
L 58.39282 135.039515 
z
" clip-path="url(#paba39154ad)" style="fill: #0f4d92; fill-opacity: 0.85"/>
   </g>
   <g id="FillBetweenPolyCollection_2">
    <path d="M 58.39282 135.039515 
L 58.39282 135.039515 
L 81.519143 65.278744 
L 104.645466 114.819002 
L 127.77179 108.614981 
L 150.898113 103.330074 
L 174.024436 83.881616 
L 197.15076 118.429808 
L 220.277083 87.475353 
L 243.403406 107.356669 
L 266.52973 88.532334 
L 289.656053 82.718937 
L 312.782376 135.039515 
L 335.9087 111.785925 
L 359.035023 112.893239 
L 382.161346 98.045167 
L 405.28767 117.599322 
L 428.413993 105.972527 
L 451.540316 108.614981 
L 474.666639 101.128029 
L 497.792963 117.599322 
L 497.792963 117.599322 
L 497.792963 117.599322 
L 474.666639 101.128029 
L 451.540316 103.330074 
L 428.413993 105.972527 
L 405.28767 117.599322 
L 382.161346 98.045167 
L 359.035023 107.356669 
L 335.9087 111.785925 
L 312.782376 135.039515 
L 289.656053 82.718937 
L 266.52973 88.532334 
L 243.403406 107.356669 
L 220.277083 87.475353 
L 197.15076 118.429808 
L 174.024436 83.881616 
L 150.898113 103.330074 
L 127.77179 108.614981 
L 104.645466 109.763873 
L 81.519143 65.278744 
L 58.39282 135.039515 
z
" clip-path="url(#paba39154ad)" style="fill: #5da85e; fill-opacity: 0.85"/>
   </g>
   <g id="FillBetweenPolyCollection_3">
    <path d="M 58.39282 135.039515 
L 58.39282 135.039515 
L 81.519143 65.278744 
L 104.645466 109.763873 
L 127.77179 108.614981 
L 150.898113 103.330074 
L 174.024436 83.881616 
L 197.15076 118.429808 
L 220.277083 87.475353 
L 243.403406 107.356669 
L 266.52973 88.532334 
L 289.656053 82.718937 
L 312.782376 135.039515 
L 335.9087 111.785925 
L 359.035023 107.356669 
L 382.161346 98.045167 
L 405.28767 117.599322 
L 428.413993 105.972527 
L 451.540316 103.330074 
L 474.666639 101.128029 
L 497.792963 117.599322 
L 497.792963 105.972527 
L 497.792963 105.972527 
L 474.666639 96.283531 
L 451.540316 98.045167 
L 428.413993 105.972527 
L 405.28767 111.785925 
L 382.161346 87.475353 
L 359.035023 101.8201 
L 335.9087 100.159129 
L 312.782376 129.226118 
L 289.656053 76.905539 
L 266.52973 82.718937 
L 243.403406 101.8201 
L 220.277083 71.620632 
L 197.15076 107.356669 
L 174.024436 79.230898 
L 150.898113 92.76026 
L 127.77179 87.475353 
L 104.645466 94.598488 
L 81.519143 65.278744 
L 58.39282 135.039515 
z
" clip-path="url(#paba39154ad)" style="fill: #b64342; fill-opacity: 0.85"/>
   </g>
   <g id="FillBetweenPolyCollection_4">
    <path d="M 58.39282 135.039515 
L 58.39282 135.039515 
L 81.519143 65.278744 
L 104.645466 94.598488 
L 127.77179 87.475353 
L 150.898113 92.76026 
L 174.024436 79.230898 
L 197.15076 107.356669 
L 220.277083 71.620632 
L 243.403406 101.8201 
L 266.52973 82.718937 
L 289.656053 76.905539 
L 312.782376 129.226118 
L 335.9087 100.159129 
L 359.035023 101.8201 
L 382.161346 87.475353 
L 405.28767 111.785925 
L 428.413993 105.972527 
L 451.540316 98.045167 
L 474.666639 96.283531 
L 497.792963 105.972527 
L 497.792963 100.159129 
L 497.792963 100.159129 
L 474.666639 86.594535 
L 451.540316 76.905539 
L 428.413993 82.718937 
L 405.28767 100.159129 
L 382.161346 76.905539 
L 359.035023 63.064116 
L 335.9087 94.345732 
L 312.782376 123.41272 
L 289.656053 53.651948 
L 266.52973 76.905539 
L 243.403406 101.8201 
L 220.277083 61.050818 
L 197.15076 85.210393 
L 174.024436 74.58018 
L 150.898113 92.76026 
L 127.77179 87.475353 
L 104.645466 94.598488 
L 81.519143 53.651948 
L 58.39282 135.039515 
z
" clip-path="url(#paba39154ad)" style="fill: #cfcece; fill-opacity: 0.85"/>
   </g>
   <g id="FillBetweenPolyCollection_5">
    <path d="M 58.39282 135.039515 
L 58.39282 135.039515 
L 81.519143 53.651948 
L 104.645466 94.598488 
L 127.77179 87.475353 
L 150.898113 92.76026 
L 174.024436 74.58018 
L 197.15076 85.210393 
L 220.277083 61.050818 
L 243.403406 101.8201 
L 266.52973 76.905539 
L 289.656053 53.651948 
L 312.782376 123.41272 
L 335.9087 94.345732 
L 359.035023 63.064116 
L 382.161346 76.905539 
L 405.28767 100.159129 
L 428.413993 82.718937 
L 451.540316 76.905539 
L 474.666639 86.594535 
L 497.792963 100.159129 
L 497.792963 100.159129 
L 497.792963 100.159129 
L 474.666639 86.594535 
L 451.540316 76.905539 
L 428.413993 82.718937 
L 405.28767 100.159129 
L 382.161346 76.905539 
L 359.035023 63.064116 
L 335.9087 94.345732 
L 312.782376 111.785925 
L 289.656053 53.651948 
L 266.52973 76.905539 
L 243.403406 101.8201 
L 220.277083 61.050818 
L 197.15076 85.210393 
L 174.024436 74.58018 
L 150.898113 92.76026 
L 127.77179 71.620632 
L 104.645466 59.21259 
L 81.519143 42.025153 
L 58.39282 135.039515 
z
" clip-path="url(#paba39154ad)" style="fill: #42949e; fill-opacity: 0.85"/>
   </g>
   <g id="FillBetweenPolyCollection_6">
    <path d="M 58.39282 135.039515 
L 58.39282 135.039515 
L 81.519143 42.025153 
L 104.645466 59.21259 
L 127.77179 71.620632 
L 150.898113 92.76026 
L 174.024436 74.58018 
L 197.15076 85.210393 
L 220.277083 61.050818 
L 243.403406 101.8201 
L 266.52973 76.905539 
L 289.656053 53.651948 
L 312.782376 111.785925 
L 335.9087 94.345732 
L 359.035023 63.064116 
L 382.161346 76.905539 
L 405.28767 100.159129 
L 428.413993 82.718937 
L 451.540316 76.905539 
L 474.666639 86.594535 
L 497.792963 100.159129 
L 497.792963 100.159129 
L 497.792963 100.159129 
L 474.666639 86.594535 
L 451.540316 76.905539 
L 428.413993 82.718937 
L 405.28767 100.159129 
L 382.161346 76.905539 
L 359.035023 63.064116 
L 335.9087 94.345732 
L 312.782376 111.785925 
L 289.656053 53.651948 
L 266.52973 76.905539 
L 243.403406 101.8201 
L 220.277083 61.050818 
L 197.15076 85.210393 
L 174.024436 74.58018 
L 150.898113 92.76026 
L 127.77179 71.620632 
L 104.645466 59.21259 
L 81.519143 42.025153 
L 58.39282 135.039515 
z
" clip-path="url(#paba39154ad)" style="fill: #9a4d8e; fill-opacity: 0.85"/>
   </g>
   <g id="FillBetweenPolyCollection_7">
    <path d="M 58.39282 18.771563 
L 58.39282 135.039515 
L 81.519143 42.025153 
L 104.645466 59.21259 
L 127.77179 71.620632 
L 150.898113 92.76026 
L 174.024436 74.58018 
L 197.15076 85.210393 
L 220.277083 61.050818 
L 243.403406 101.8201 
L 266.52973 76.905539 
L 289.656053 53.651948 
L 312.782376 111.785925 
L 335.9087 94.345732 
L 359.035023 63.064116 
L 382.161346 76.905539 
L 405.28767 100.159129 
L 428.413993 82.718937 
L 451.540316 76.905539 
L 474.666639 86.594535 
L 497.792963 100.159129 
L 497.792963 18.771563 
L 497.792963 18.771563 
L 474.666639 18.771563 
L 451.540316 18.771563 
L 428.413993 18.771563 
L 405.28767 18.771563 
L 382.161346 18.771563 
L 359.035023 18.771563 
L 335.9087 18.771563 
L 312.782376 18.771563 
L 289.656053 18.771563 
L 266.52973 18.771563 
L 243.403406 18.771563 
L 220.277083 18.771563 
L 197.15076 18.771563 
L 174.024436 18.771563 
L 150.898113 18.771563 
L 127.77179 18.771563 
L 104.645466 18.771563 
L 81.519143 18.771563 
L 58.39282 18.771563 
z
" clip-path="url(#paba39154ad)" style="fill: #d4a93b; fill-opacity: 0.85"/>
   </g>
   <g id="matplotlib.axis_1">
    <g id="xtick_1">
     <g id="line2d_1">
      <defs>
       <path id="m2c3ad94dae" d="M 0 0 
L 0 3 
" style="stroke: #000000; stroke-width: 0.8"/>
      </defs>
      <g>
       <use xlink:href="#m2c3ad94dae" x="58.39282" y="135.039515" style="stroke: #000000; stroke-width: 0.8"/>
      </g>
     </g>
     <g id="text_1">
      <text style="font-size: 7px; font-family: 'PingFang SC', 'Heiti SC', 'STHeiti', 'Arial Unicode MS', 'Arial', 'Helvetica', 'DejaVu Sans', sans-serif; text-anchor: middle" x="58.39282" y="147.111078" transform="rotate(-0 58.39282 147.111078)">0.0</text>
     </g>
    </g>
    <g id="xtick_2">
     <g id="line2d_2">
      <g>
       <use xlink:href="#m2c3ad94dae" x="116.208628" y="135.039515" style="stroke: #000000; stroke-width: 0.8"/>
      </g>
     </g>
     <g id="text_2">
      <text style="font-size: 7px; font-family: 'PingFang SC', 'Heiti SC', 'STHeiti', 'Arial Unicode MS', 'Arial', 'Helvetica', 'DejaVu Sans', sans-serif; text-anchor: middle" x="116.208628" y="147.111078" transform="rotate(-0 116.208628 147.111078)">2.5</text>
     </g>
    </g>
    <g id="xtick_3">
     <g id="line2d_3">
      <g>
       <use xlink:href="#m2c3ad94dae" x="174.024436" y="135.039515" style="stroke: #000000; stroke-width: 0.8"/>
      </g>
     </g>
     <g id="text_3">
      <text style="font-size: 7px; font-family: 'PingFang SC', 'Heiti SC', 'STHeiti', 'Arial Unicode MS', 'Arial', 'Helvetica', 'DejaVu Sans', sans-serif; text-anchor: middle" x="174.024436" y="147.111078" transform="rotate(-0 174.024436 147.111078)">5.0</text>
     </g>
    </g>
    <g id="xtick_4">
     <g id="line2d_4">
      <g>
       <use xlink:href="#m2c3ad94dae" x="231.840245" y="135.039515" style="stroke: #000000; stroke-width: 0.8"/>
      </g>
     </g>
     <g id="text_4">
      <text style="font-size: 7px; font-family: 'PingFang SC', 'Heiti SC', 'STHeiti', 'Arial Unicode MS', 'Arial', 'Helvetica', 'DejaVu Sans', sans-serif; text-anchor: middle" x="231.840245" y="147.111078" transform="rotate(-0 231.840245 147.111078)">7.5</text>
     </g>
    </g>
    <g id="xtick_5">
     <g id="line2d_5">
      <g>
       <use xlink:href="#m2c3ad94dae" x="289.656053" y="135.039515" style="stroke: #000000; stroke-width: 0.8"/>
      </g>
     </g>
     <g id="text_5">
      <text style="font-size: 7px; font-family: 'PingFang SC', 'Heiti SC', 'STHeiti', 'Arial Unicode MS', 'Arial', 'Helvetica', 'DejaVu Sans', sans-serif; text-anchor: middle" x="289.656053" y="147.111078" transform="rotate(-0 289.656053 147.111078)">10.0</text>
     </g>
    </g>
    <g id="xtick_6">
     <g id="line2d_6">
      <g>
       <use xlink:href="#m2c3ad94dae" x="347.471861" y="135.039515" style="stroke: #000000; stroke-width: 0.8"/>
      </g>
     </g>
     <g id="text_6">
      <text style="font-size: 7px; font-family: 'PingFang SC', 'Heiti SC', 'STHeiti', 'Arial Unicode MS', 'Arial', 'Helvetica', 'DejaVu Sans', sans-serif; text-anchor: middle" x="347.471861" y="147.111078" transform="rotate(-0 347.471861 147.111078)">12.5</text>
     </g>
    </g>
    <g id="xtick_7">
     <g id="line2d_7">
      <g>
       <use xlink:href="#m2c3ad94dae" x="405.28767" y="135.039515" style="stroke: #000000; stroke-width: 0.8"/>
      </g>
     </g>
     <g id="text_7">
      <text style="font-size: 7px; font-family: 'PingFang SC', 'Heiti SC', 'STHeiti', 'Arial Unicode MS', 'Arial', 'Helvetica', 'DejaVu Sans', sans-serif; text-anchor: middle" x="405.28767" y="147.111078" transform="rotate(-0 405.28767 147.111078)">15.0</text>
     </g>
    </g>
    <g id="xtick_8">
     <g id="line2d_8">
      <g>
       <use xlink:href="#m2c3ad94dae" x="463.103478" y="135.039515" style="stroke: #000000; stroke-width: 0.8"/>
      </g>
     </g>
     <g id="text_8">
      <text style="font-size: 7px; font-family: 'PingFang SC', 'Heiti SC', 'STHeiti', 'Arial Unicode MS', 'Arial', 'Helvetica', 'DejaVu Sans', sans-serif; text-anchor: middle" x="463.103478" y="147.111078" transform="rotate(-0 463.103478 147.111078)">17.5</text>
     </g>
    </g>
    <g id="text_9">
     <text style="font-size: 7.5px; font-family: 'PingFang SC', 'Heiti SC', 'STHeiti', 'Arial Unicode MS', 'Arial', 'Helvetica', 'DejaVu Sans', sans-serif; text-anchor: middle" x="278.092891" y="158.019047" transform="rotate(-0 278.092891 158.019047)">决策轮次</text>
    </g>
   </g>
   <g id="matplotlib.axis_2">
    <g id="ytick_1">
     <g id="line2d_9">
      <defs>
       <path id="m11059788d4" d="M 0 0 
L -3 0 
" style="stroke: #000000; stroke-width: 0.8"/>
      </defs>
      <g>
       <use xlink:href="#m11059788d4" x="36.422813" y="135.039515" style="stroke: #000000; stroke-width: 0.8"/>
      </g>
     </g>
     <g id="text_10">
      <text style="font-size: 7px; font-family: 'PingFang SC', 'Heiti SC', 'STHeiti', 'Arial Unicode MS', 'Arial', 'Helvetica', 'DejaVu Sans', sans-serif; text-anchor: end" x="29.922813" y="137.825297" transform="rotate(-0 29.922813 137.825297)">0</text>
     </g>
    </g>
    <g id="ytick_2">
     <g id="line2d_10">
      <g>
       <use xlink:href="#m11059788d4" x="36.422813" y="111.785925" style="stroke: #000000; stroke-width: 0.8"/>
      </g>
     </g>
     <g id="text_11">
      <text style="font-size: 7px; font-family: 'PingFang SC', 'Heiti SC', 'STHeiti', 'Arial Unicode MS', 'Arial', 'Helvetica', 'DejaVu Sans', sans-serif; text-anchor: end" x="29.922813" y="114.571706" transform="rotate(-0 29.922813 114.571706)">20</text>
     </g>
    </g>
    <g id="ytick_3">
     <g id="line2d_11">
      <g>
       <use xlink:href="#m11059788d4" x="36.422813" y="88.532334" style="stroke: #000000; stroke-width: 0.8"/>
      </g>
     </g>
     <g id="text_12">
      <text style="font-size: 7px; font-family: 'PingFang SC', 'Heiti SC', 'STHeiti', 'Arial Unicode MS', 'Arial', 'Helvetica', 'DejaVu Sans', sans-serif; text-anchor: end" x="29.922813" y="91.318115" transform="rotate(-0 29.922813 91.318115)">40</text>
     </g>
    </g>
    <g id="ytick_4">
     <g id="line2d_12">
      <g>
       <use xlink:href="#m11059788d4" x="36.422813" y="65.278744" style="stroke: #000000; stroke-width: 0.8"/>
      </g>
     </g>
     <g id="text_13">
      <text style="font-size: 7px; font-family: 'PingFang SC', 'Heiti SC', 'STHeiti', 'Arial Unicode MS', 'Arial', 'Helvetica', 'DejaVu Sans', sans-serif; text-anchor: end" x="29.922813" y="68.064525" transform="rotate(-0 29.922813 68.064525)">60</text>
     </g>
    </g>
    <g id="ytick_5">
     <g id="line2d_13">
      <g>
       <use xlink:href="#m11059788d4" x="36.422813" y="42.025153" style="stroke: #000000; stroke-width: 0.8"/>
      </g>
     </g>
     <g id="text_14">
      <text style="font-size: 7px; font-family: 'PingFang SC', 'Heiti SC', 'STHeiti', 'Arial Unicode MS', 'Arial', 'Helvetica', 'DejaVu Sans', sans-serif; text-anchor: end" x="29.922813" y="44.810934" transform="rotate(-0 29.922813 44.810934)">80</text>
     </g>
    </g>
    <g id="ytick_6">
     <g id="line2d_14">
      <g>
       <use xlink:href="#m11059788d4" x="36.422813" y="18.771563" style="stroke: #000000; stroke-width: 0.8"/>
      </g>
     </g>
     <g id="text_15">
      <text style="font-size: 7px; font-family: 'PingFang SC', 'Heiti SC', 'STHeiti', 'Arial Unicode MS', 'Arial', 'Helvetica', 'DejaVu Sans', sans-serif; text-anchor: end" x="29.922813" y="21.557344" transform="rotate(-0 29.922813 21.557344)">100</text>
     </g>
    </g>
    <g id="text_16">
     <text style="font-size: 7.5px; font-family: 'PingFang SC', 'Heiti SC', 'STHeiti', 'Arial Unicode MS', 'Arial', 'Helvetica', 'DejaVu Sans', sans-serif; text-anchor: middle" x="13.282031" y="76.905539" transform="rotate(-90 13.282031 76.905539)">动作占比（%）</text>
    </g>
   </g>
   <g id="patch_3">
    <path d="M 36.422813 135.039515 
L 36.422813 18.771563 
" style="fill: none; stroke: #000000; stroke-width: 0.8; stroke-linejoin: miter; stroke-linecap: square"/>
   </g>
   <g id="patch_4">
    <path d="M 36.422813 135.039515 
L 519.76297 135.039515 
" style="fill: none; stroke: #000000; stroke-width: 0.8; stroke-linejoin: miter; stroke-linecap: square"/>
   </g>
   <g id="text_17">
    <text style="font-size: 7px; font-family: 'PingFang SC', 'Heiti SC', 'STHeiti', 'Arial Unicode MS', 'Arial', 'Helvetica', 'DejaVu Sans', sans-serif; text-anchor: middle; fill: #4d4d4d" x="278.092891" y="12.771563" transform="rotate(-0 278.092891 12.771563)">基底市场：Robotaxi</text>
   </g>
  </g>
  <g id="axes_2">
   <g id="patch_5">
    <path d="M 36.422813 290.487468 
L 519.76297 290.487468 
L 519.76297 174.219515 
L 36.422813 174.219515 
z
" style="fill: #ffffff"/>
   </g>
   <g id="FillBetweenPolyCollection_8">
    <path d="M 58.39282 284.950899 
L 58.39282 290.487468 
L 81.519143 290.487468 
L 104.645466 290.487468 
L 127.77179 290.487468 
L 150.898113 290.487468 
L 174.024436 290.487468 
L 197.15076 290.487468 
L 220.277083 290.487468 
L 243.403406 290.487468 
L 266.52973 290.487468 
L 289.656053 290.487468 
L 312.782376 290.487468 
L 335.9087 290.487468 
L 359.035023 290.487468 
L 382.161346 290.487468 
L 405.28767 290.487468 
L 428.413993 290.487468 
L 451.540316 290.487468 
L 474.666639 290.487468 
L 497.792963 290.487468 
L 497.792963 275.322083 
L 497.792963 275.322083 
L 474.666639 264.062933 
L 451.540316 248.208212 
L 428.413993 262.583159 
L 405.28767 274.632747 
L 382.161346 253.493119 
L 359.035023 258.778026 
L 335.9087 269.34784 
L 312.782376 249.793685 
L 289.656053 262.804622 
L 266.52973 268.341191 
L 243.403406 248.208212 
L 220.277083 251.731484 
L 197.15076 258.778026 
L 174.024436 238.166889 
L 150.898113 255.607082 
L 127.77179 264.062933 
L 104.645466 239.936184 
L 81.519143 224.770799 
L 58.39282 284.950899 
z
" clip-path="url(#pf8aa645602)" style="fill: #0f4d92; fill-opacity: 0.85"/>
   </g>
   <g id="FillBetweenPolyCollection_9">
    <path d="M 58.39282 284.950899 
L 58.39282 284.950899 
L 81.519143 224.770799 
L 104.645466 239.936184 
L 127.77179 264.062933 
L 150.898113 255.607082 
L 174.024436 238.166889 
L 197.15076 258.778026 
L 220.277083 251.731484 
L 243.403406 248.208212 
L 266.52973 268.341191 
L 289.656053 262.804622 
L 312.782376 249.793685 
L 335.9087 269.34784 
L 359.035023 258.778026 
L 382.161346 253.493119 
L 405.28767 274.632747 
L 428.413993 262.583159 
L 451.540316 248.208212 
L 474.666639 264.062933 
L 497.792963 275.322083 
L 497.792963 275.322083 
L 497.792963 275.322083 
L 474.666639 253.493119 
L 451.540316 248.208212 
L 428.413993 257.932441 
L 405.28767 269.34784 
L 382.161346 253.493119 
L 359.035023 258.778026 
L 335.9087 269.34784 
L 312.782376 243.980287 
L 289.656053 257.268053 
L 266.52973 268.341191 
L 243.403406 248.208212 
L 220.277083 251.731484 
L 197.15076 258.778026 
L 174.024436 238.166889 
L 150.898113 255.607082 
L 127.77179 264.062933 
L 104.645466 239.936184 
L 81.519143 219.715671 
L 58.39282 284.950899 
z
" clip-path="url(#pf8aa645602)" style="fill: #5da85e; fill-opacity: 0.85"/>
   </g>
   <g id="FillBetweenPolyCollection_10">
    <path d="M 58.39282 284.950899 
L 58.39282 284.950899 
L 81.519143 219.715671 
L 104.645466 239.936184 
L 127.77179 264.062933 
L 150.898113 255.607082 
L 174.024436 238.166889 
L 197.15076 258.778026 
L 220.277083 251.731484 
L 243.403406 248.208212 
L 266.52973 268.341191 
L 289.656053 257.268053 
L 312.782376 243.980287 
L 335.9087 269.34784 
L 359.035023 258.778026 
L 382.161346 253.493119 
L 405.28767 269.34784 
L 428.413993 257.932441 
L 451.540316 248.208212 
L 474.666639 253.493119 
L 497.792963 275.322083 
L 497.792963 255.101569 
L 497.792963 255.101569 
L 474.666639 253.493119 
L 451.540316 248.208212 
L 428.413993 253.281723 
L 405.28767 258.778026 
L 382.161346 248.208212 
L 359.035023 248.208212 
L 335.9087 269.34784 
L 312.782376 238.166889 
L 289.656053 257.268053 
L 266.52973 262.804622 
L 243.403406 248.208212 
L 220.277083 246.194915 
L 197.15076 253.493119 
L 174.024436 232.353492 
L 150.898113 243.980287 
L 127.77179 248.208212 
L 104.645466 214.660542 
L 81.519143 214.660542 
L 58.39282 284.950899 
z
" clip-path="url(#pf8aa645602)" style="fill: #b64342; fill-opacity: 0.85"/>
   </g>
   <g id="FillBetweenPolyCollection_11">
    <path d="M 58.39282 284.950899 
L 58.39282 284.950899 
L 81.519143 214.660542 
L 104.645466 214.660542 
L 127.77179 248.208212 
L 150.898113 243.980287 
L 174.024436 232.353492 
L 197.15076 253.493119 
L 220.277083 246.194915 
L 243.403406 248.208212 
L 266.52973 262.804622 
L 289.656053 257.268053 
L 312.782376 238.166889 
L 335.9087 269.34784 
L 359.035023 248.208212 
L 382.161346 248.208212 
L 405.28767 258.778026 
L 428.413993 253.281723 
L 451.540316 248.208212 
L 474.666639 253.493119 
L 497.792963 255.101569 
L 497.792963 255.101569 
L 497.792963 255.101569 
L 474.666639 253.493119 
L 451.540316 248.208212 
L 428.413993 253.281723 
L 405.28767 253.493119 
L 382.161346 248.208212 
L 359.035023 237.638399 
L 335.9087 253.493119 
L 312.782376 226.540094 
L 289.656053 229.585207 
L 266.52973 246.194915 
L 243.403406 237.638399 
L 220.277083 229.585207 
L 197.15076 248.208212 
L 174.024436 220.726696 
L 150.898113 232.353492 
L 127.77179 242.923306 
L 104.645466 214.660542 
L 81.519143 214.660542 
L 58.39282 284.950899 
z
" clip-path="url(#pf8aa645602)" style="fill: #cfcece; fill-opacity: 0.85"/>
   </g>
   <g id="FillBetweenPolyCollection_12">
    <path d="M 58.39282 284.950899 
L 58.39282 284.950899 
L 81.519143 214.660542 
L 104.645466 214.660542 
L 127.77179 242.923306 
L 150.898113 232.353492 
L 174.024436 220.726696 
L 197.15076 248.208212 
L 220.277083 229.585207 
L 243.403406 237.638399 
L 266.52973 246.194915 
L 289.656053 229.585207 
L 312.782376 226.540094 
L 335.9087 253.493119 
L 359.035023 237.638399 
L 382.161346 248.208212 
L 405.28767 253.493119 
L 428.413993 253.281723 
L 451.540316 248.208212 
L 474.666639 253.493119 
L 497.792963 255.101569 
L 497.792963 255.101569 
L 497.792963 255.101569 
L 474.666639 253.493119 
L 451.540316 242.923306 
L 428.413993 253.281723 
L 405.28767 242.923306 
L 382.161346 248.208212 
L 359.035023 232.353492 
L 335.9087 253.493119 
L 312.782376 220.726696 
L 289.656053 229.585207 
L 266.52973 240.658345 
L 243.403406 232.353492 
L 220.277083 224.048638 
L 197.15076 248.208212 
L 174.024436 220.726696 
L 150.898113 232.353492 
L 127.77179 237.638399 
L 104.645466 214.660542 
L 81.519143 204.550286 
L 58.39282 284.950899 
z
" clip-path="url(#pf8aa645602)" style="fill: #42949e; fill-opacity: 0.85"/>
   </g>
   <g id="FillBetweenPolyCollection_13">
    <path d="M 58.39282 284.950899 
L 58.39282 284.950899 
L 81.519143 204.550286 
L 104.645466 214.660542 
L 127.77179 237.638399 
L 150.898113 232.353492 
L 174.024436 220.726696 
L 197.15076 248.208212 
L 220.277083 224.048638 
L 243.403406 232.353492 
L 266.52973 240.658345 
L 289.656053 229.585207 
L 312.782376 220.726696 
L 335.9087 253.493119 
L 359.035023 232.353492 
L 382.161346 248.208212 
L 405.28767 242.923306 
L 428.413993 253.281723 
L 451.540316 242.923306 
L 474.666639 253.493119 
L 497.792963 255.101569 
L 497.792963 255.101569 
L 497.792963 255.101569 
L 474.666639 253.493119 
L 451.540316 242.923306 
L 428.413993 253.281723 
L 405.28767 242.923306 
L 382.161346 248.208212 
L 359.035023 232.353492 
L 335.9087 253.493119 
L 312.782376 220.726696 
L 289.656053 229.585207 
L 266.52973 240.658345 
L 243.403406 232.353492 
L 220.277083 224.048638 
L 197.15076 248.208212 
L 174.024436 220.726696 
L 150.898113 232.353492 
L 127.77179 237.638399 
L 104.645466 214.660542 
L 81.519143 204.550286 
L 58.39282 284.950899 
z
" clip-path="url(#pf8aa645602)" style="fill: #9a4d8e; fill-opacity: 0.85"/>
   </g>
   <g id="FillBetweenPolyCollection_14">
    <path d="M 58.39282 174.219515 
L 58.39282 284.950899 
L 81.519143 204.550286 
L 104.645466 214.660542 
L 127.77179 237.638399 
L 150.898113 232.353492 
L 174.024436 220.726696 
L 197.15076 248.208212 
L 220.277083 224.048638 
L 243.403406 232.353492 
L 266.52973 240.658345 
L 289.656053 229.585207 
L 312.782376 220.726696 
L 335.9087 253.493119 
L 359.035023 232.353492 
L 382.161346 248.208212 
L 405.28767 242.923306 
L 428.413993 253.281723 
L 451.540316 242.923306 
L 474.666639 253.493119 
L 497.792963 255.101569 
L 497.792963 174.219515 
L 497.792963 174.219515 
L 474.666639 174.219515 
L 451.540316 174.219515 
L 428.413993 174.219515 
L 405.28767 174.219515 
L 382.161346 174.219515 
L 359.035023 174.219515 
L 335.9087 174.219515 
L 312.782376 174.219515 
L 289.656053 174.219515 
L 266.52973 174.219515 
L 243.403406 174.219515 
L 220.277083 174.219515 
L 197.15076 174.219515 
L 174.024436 174.219515 
L 150.898113 174.219515 
L 127.77179 174.219515 
L 104.645466 174.219515 
L 81.519143 174.219515 
L 58.39282 174.219515 
z
" clip-path="url(#pf8aa645602)" style="fill: #d4a93b; fill-opacity: 0.85"/>
   </g>
   <g id="matplotlib.axis_3">
    <g id="xtick_9">
     <g id="line2d_15">
      <g>
       <use xlink:href="#m2c3ad94dae" x="58.39282" y="290.487468" style="stroke: #000000; stroke-width: 0.8"/>
      </g>
     </g>
     <g id="text_18">
      <text style="font-size: 7px; font-family: 'PingFang SC', 'Heiti SC', 'STHeiti', 'Arial Unicode MS', 'Arial', 'Helvetica', 'DejaVu Sans', sans-serif; text-anchor: middle" x="58.39282" y="302.559031" transform="rotate(-0 58.39282 302.559031)">0.0</text>
     </g>
    </g>
    <g id="xtick_10">
     <g id="line2d_16">
      <g>
       <use xlink:href="#m2c3ad94dae" x="116.208628" y="290.487468" style="stroke: #000000; stroke-width: 0.8"/>
      </g>
     </g>
     <g id="text_19">
      <text style="font-size: 7px; font-family: 'PingFang SC', 'Heiti SC', 'STHeiti', 'Arial Unicode MS', 'Arial', 'Helvetica', 'DejaVu Sans', sans-serif; text-anchor: middle" x="116.208628" y="302.559031" transform="rotate(-0 116.208628 302.559031)">2.5</text>
     </g>
    </g>
    <g id="xtick_11">
     <g id="line2d_17">
      <g>
       <use xlink:href="#m2c3ad94dae" x="174.024436" y="290.487468" style="stroke: #000000; stroke-width: 0.8"/>
      </g>
     </g>
     <g id="text_20">
      <text style="font-size: 7px; font-family: 'PingFang SC', 'Heiti SC', 'STHeiti', 'Arial Unicode MS', 'Arial', 'Helvetica', 'DejaVu Sans', sans-serif; text-anchor: middle" x="174.024436" y="302.559031" transform="rotate(-0 174.024436 302.559031)">5.0</text>
     </g>
    </g>
    <g id="xtick_12">
     <g id="line2d_18">
      <g>
       <use xlink:href="#m2c3ad94dae" x="231.840245" y="290.487468" style="stroke: #000000; stroke-width: 0.8"/>
      </g>
     </g>
     <g id="text_21">
      <text style="font-size: 7px; font-family: 'PingFang SC', 'Heiti SC', 'STHeiti', 'Arial Unicode MS', 'Arial', 'Helvetica', 'DejaVu Sans', sans-serif; text-anchor: middle" x="231.840245" y="302.559031" transform="rotate(-0 231.840245 302.559031)">7.5</text>
     </g>
    </g>
    <g id="xtick_13">
     <g id="line2d_19">
      <g>
       <use xlink:href="#m2c3ad94dae" x="289.656053" y="290.487468" style="stroke: #000000; stroke-width: 0.8"/>
      </g>
     </g>
     <g id="text_22">
      <text style="font-size: 7px; font-family: 'PingFang SC', 'Heiti SC', 'STHeiti', 'Arial Unicode MS', 'Arial', 'Helvetica', 'DejaVu Sans', sans-serif; text-anchor: middle" x="289.656053" y="302.559031" transform="rotate(-0 289.656053 302.559031)">10.0</text>
     </g>
    </g>
    <g id="xtick_14">
     <g id="line2d_20">
      <g>
       <use xlink:href="#m2c3ad94dae" x="347.471861" y="290.487468" style="stroke: #000000; stroke-width: 0.8"/>
      </g>
     </g>
     <g id="text_23">
      <text style="font-size: 7px; font-family: 'PingFang SC', 'Heiti SC', 'STHeiti', 'Arial Unicode MS', 'Arial', 'Helvetica', 'DejaVu Sans', sans-serif; text-anchor: middle" x="347.471861" y="302.559031" transform="rotate(-0 347.471861 302.559031)">12.5</text>
     </g>
    </g>
    <g id="xtick_15">
     <g id="line2d_21">
      <g>
       <use xlink:href="#m2c3ad94dae" x="405.28767" y="290.487468" style="stroke: #000000; stroke-width: 0.8"/>
      </g>
     </g>
     <g id="text_24">
      <text style="font-size: 7px; font-family: 'PingFang SC', 'Heiti SC', 'STHeiti', 'Arial Unicode MS', 'Arial', 'Helvetica', 'DejaVu Sans', sans-serif; text-anchor: middle" x="405.28767" y="302.559031" transform="rotate(-0 405.28767 302.559031)">15.0</text>
     </g>
    </g>
    <g id="xtick_16">
     <g id="line2d_22">
      <g>
       <use xlink:href="#m2c3ad94dae" x="463.103478" y="290.487468" style="stroke: #000000; stroke-width: 0.8"/>
      </g>
     </g>
     <g id="text_25">
      <text style="font-size: 7px; font-family: 'PingFang SC', 'Heiti SC', 'STHeiti', 'Arial Unicode MS', 'Arial', 'Helvetica', 'DejaVu Sans', sans-serif; text-anchor: middle" x="463.103478" y="302.559031" transform="rotate(-0 463.103478 302.559031)">17.5</text>
     </g>
    </g>
    <g id="text_26">
     <text style="font-size: 7.5px; font-family: 'PingFang SC', 'Heiti SC', 'STHeiti', 'Arial Unicode MS', 'Arial', 'Helvetica', 'DejaVu Sans', sans-serif; text-anchor: middle" x="278.092891" y="313.466999" transform="rotate(-0 278.092891 313.466999)">决策轮次</text>
    </g>
   </g>
   <g id="matplotlib.axis_4">
    <g id="ytick_7">
     <g id="line2d_23">
      <g>
       <use xlink:href="#m11059788d4" x="36.422813" y="290.487468" style="stroke: #000000; stroke-width: 0.8"/>
      </g>
     </g>
     <g id="text_27">
      <text style="font-size: 7px; font-family: 'PingFang SC', 'Heiti SC', 'STHeiti', 'Arial Unicode MS', 'Arial', 'Helvetica', 'DejaVu Sans', sans-serif; text-anchor: end" x="29.922813" y="293.273249" transform="rotate(-0 29.922813 293.273249)">0</text>
     </g>
    </g>
    <g id="ytick_8">
     <g id="line2d_24">
      <g>
       <use xlink:href="#m11059788d4" x="36.422813" y="267.233877" style="stroke: #000000; stroke-width: 0.8"/>
      </g>
     </g>
     <g id="text_28">
      <text style="font-size: 7px; font-family: 'PingFang SC', 'Heiti SC', 'STHeiti', 'Arial Unicode MS', 'Arial', 'Helvetica', 'DejaVu Sans', sans-serif; text-anchor: end" x="29.922813" y="270.019659" transform="rotate(-0 29.922813 270.019659)">20</text>
     </g>
    </g>
    <g id="ytick_9">
     <g id="line2d_25">
      <g>
       <use xlink:href="#m11059788d4" x="36.422813" y="243.980287" style="stroke: #000000; stroke-width: 0.8"/>
      </g>
     </g>
     <g id="text_29">
      <text style="font-size: 7px; font-family: 'PingFang SC', 'Heiti SC', 'STHeiti', 'Arial Unicode MS', 'Arial', 'Helvetica', 'DejaVu Sans', sans-serif; text-anchor: end" x="29.922813" y="246.766068" transform="rotate(-0 29.922813 246.766068)">40</text>
     </g>
    </g>
    <g id="ytick_10">
     <g id="line2d_26">
      <g>
       <use xlink:href="#m11059788d4" x="36.422813" y="220.726696" style="stroke: #000000; stroke-width: 0.8"/>
      </g>
     </g>
     <g id="text_30">
      <text style="font-size: 7px; font-family: 'PingFang SC', 'Heiti SC', 'STHeiti', 'Arial Unicode MS', 'Arial', 'Helvetica', 'DejaVu Sans', sans-serif; text-anchor: end" x="29.922813" y="223.512478" transform="rotate(-0 29.922813 223.512478)">60</text>
     </g>
    </g>
    <g id="ytick_11">
     <g id="line2d_27">
      <g>
       <use xlink:href="#m11059788d4" x="36.422813" y="197.473106" style="stroke: #000000; stroke-width: 0.8"/>
      </g>
     </g>
     <g id="text_31">
      <text style="font-size: 7px; font-family: 'PingFang SC', 'Heiti SC', 'STHeiti', 'Arial Unicode MS', 'Arial', 'Helvetica', 'DejaVu Sans', sans-serif; text-anchor: end" x="29.922813" y="200.258887" transform="rotate(-0 29.922813 200.258887)">80</text>
     </g>
    </g>
    <g id="ytick_12">
     <g id="line2d_28">
      <g>
       <use xlink:href="#m11059788d4" x="36.422813" y="174.219515" style="stroke: #000000; stroke-width: 0.8"/>
      </g>
     </g>
     <g id="text_32">
      <text style="font-size: 7px; font-family: 'PingFang SC', 'Heiti SC', 'STHeiti', 'Arial Unicode MS', 'Arial', 'Helvetica', 'DejaVu Sans', sans-serif; text-anchor: end" x="29.922813" y="177.005297" transform="rotate(-0 29.922813 177.005297)">100</text>
     </g>
    </g>
   </g>
   <g id="patch_6">
    <path d="M 36.422813 290.487468 
L 36.422813 174.219515 
" style="fill: none; stroke: #000000; stroke-width: 0.8; stroke-linejoin: miter; stroke-linecap: square"/>
   </g>
   <g id="patch_7">
    <path d="M 36.422813 290.487468 
L 519.76297 290.487468 
" style="fill: none; stroke: #000000; stroke-width: 0.8; stroke-linejoin: miter; stroke-linecap: square"/>
   </g>
   <g id="text_33">
    <text style="font-size: 7px; font-family: 'PingFang SC', 'Heiti SC', 'STHeiti', 'Arial Unicode MS', 'Arial', 'Helvetica', 'DejaVu Sans', sans-serif; text-anchor: middle; fill: #4d4d4d" x="278.092891" y="168.219515" transform="rotate(-0 278.092891 168.219515)">基底市场：Ethereum</text>
   </g>
   <g id="legend_1">
    <g id="patch_8">
     <path d="M 176.078829 317.503286 
L 185.678829 317.503286 
L 185.678829 313.303286 
L 176.078829 313.303286 
z
" style="fill: #0f4d92; fill-opacity: 0.85"/>
    </g>
    <g id="text_34">
     <text style="font-size: 6px; font-family: 'PingFang SC', 'Heiti SC', 'STHeiti', 'Arial Unicode MS', 'Arial', 'Helvetica', 'DejaVu Sans', sans-serif; text-anchor: start" x="190.478829" y="317.503286" transform="rotate(-0 190.478829 317.503286)">LIMIT</text>
    </g>
    <g id="patch_9">
     <path d="M 176.078829 326.083286 
L 185.678829 326.083286 
L 185.678829 321.883286 
L 176.078829 321.883286 
z
" style="fill: #5da85e; fill-opacity: 0.85"/>
    </g>
    <g id="text_35">
     <text style="font-size: 6px; font-family: 'PingFang SC', 'Heiti SC', 'STHeiti', 'Arial Unicode MS', 'Arial', 'Helvetica', 'DejaVu Sans', sans-serif; text-anchor: start" x="190.478829" y="326.083286" transform="rotate(-0 190.478829 326.083286)">MARKET</text>
    </g>
    <g id="patch_10">
     <path d="M 225.392266 317.503286 
L 234.992266 317.503286 
L 234.992266 313.303286 
L 225.392266 313.303286 
z
" style="fill: #b64342; fill-opacity: 0.85"/>
    </g>
    <g id="text_36">
     <text style="font-size: 6px; font-family: 'PingFang SC', 'Heiti SC', 'STHeiti', 'Arial Unicode MS', 'Arial', 'Helvetica', 'DejaVu Sans', sans-serif; text-anchor: start" x="239.792266" y="317.503286" transform="rotate(-0 239.792266 317.503286)">CANCEL</text>
    </g>
    <g id="patch_11">
     <path d="M 225.392266 326.083286 
L 234.992266 326.083286 
L 234.992266 321.883286 
L 225.392266 321.883286 
z
" style="fill: #cfcece; fill-opacity: 0.85"/>
    </g>
    <g id="text_37">
     <text style="font-size: 6px; font-family: 'PingFang SC', 'Heiti SC', 'STHeiti', 'Arial Unicode MS', 'Arial', 'Helvetica', 'DejaVu Sans', sans-serif; text-anchor: start" x="239.792266" y="326.083286" transform="rotate(-0 239.792266 326.083286)">HOLD</text>
    </g>
    <g id="patch_12">
     <path d="M 276.415704 317.503286 
L 286.015704 317.503286 
L 286.015704 313.303286 
L 276.415704 313.303286 
z
" style="fill: #42949e; fill-opacity: 0.85"/>
    </g>
    <g id="text_38">
     <text style="font-size: 6px; font-family: 'PingFang SC', 'Heiti SC', 'STHeiti', 'Arial Unicode MS', 'Arial', 'Helvetica', 'DejaVu Sans', sans-serif; text-anchor: start" x="290.815704" y="317.503286" transform="rotate(-0 290.815704 317.503286)">SPLIT</text>
    </g>
    <g id="patch_13">
     <path d="M 276.415704 326.083286 
L 286.015704 326.083286 
L 286.015704 321.883286 
L 276.415704 321.883286 
z
" style="fill: #9a4d8e; fill-opacity: 0.85"/>
    </g>
    <g id="text_39">
     <text style="font-size: 6px; font-family: 'PingFang SC', 'Heiti SC', 'STHeiti', 'Arial Unicode MS', 'Arial', 'Helvetica', 'DejaVu Sans', sans-serif; text-anchor: start" x="290.815704" y="326.083286" transform="rotate(-0 290.815704 326.083286)">MERGE</text>
    </g>
    <g id="patch_14">
     <path d="M 323.635704 317.503286 
L 333.235704 317.503286 
L 333.235704 313.303286 
L 323.635704 313.303286 
z
" style="fill: #d4a93b; fill-opacity: 0.85"/>
    </g>
    <g id="text_40">
     <text style="font-size: 6px; font-family: 'PingFang SC', 'Heiti SC', 'STHeiti', 'Arial Unicode MS', 'Arial', 'Helvetica', 'DejaVu Sans', sans-serif; text-anchor: start" x="338.035704" y="317.503286" transform="rotate(-0 338.035704 317.503286)">UPDATE_BELIEF</text>
    </g>
   </g>
  </g>
 </g>
 <defs>
  <clipPath id="paba39154ad">
   <rect x="36.422813" y="18.771563" width="483.340157" height="116.267953"/>
  </clipPath>
  <clipPath id="pf8aa645602">
   <rect x="36.422813" y="174.219515" width="483.340157" height="116.267953"/>
  </clipPath>
 </defs>
</svg>
