<?xml version="1.0" encoding="utf-8" standalone="no"?>
<!DOCTYPE svg PUBLIC "-//W3C//DTD SVG 1.1//EN"
  "http://www.w3.org/Graphics/SVG/1.1/DTD/svg11.dtd">
<svg xmlns:xlink="http://www.w3.org/1999/xlink" width="526.733751pt" height="319.587586pt" viewBox="0 0 526.733751 319.587586" xmlns="http://www.w3.org/2000/svg" version="1.1">
 <metadata>
  <rdf:RDF xmlns:dc="http://purl.org/dc/elements/1.1/" xmlns:cc="http://creativecommons.org/ns#" xmlns:rdf="http://www.w3.org/1999/02/22-rdf-syntax-ns#">
   <cc:Work>
    <dc:type rdf:resource="http://purl.org/dc/dcmitype/StillImage"/>
    <dc:date>2026-05-23T23:51:58.757149</dc:date>
    <dc:format>image/svg+xml</dc:format>
    <dc:creator>
     <cc:Agent>
      <dc:title>Matplotlib v3.10.9, https://matplotlib.org/</dc:title>
     </cc:Agent>
    </dc:creator>
   </cc:Work>
  </rdf:RDF>
 </metadata>
 <defs>
  <style type="text/css">*{stroke-linejoin: round; stroke-linecap: butt}</style>
 </defs>
 <g id="figure_1">
  <g id="patch_1">
   <path d="M 0 319.587586 
L 526.733751 319.587586 
L 526.733751 0 
L 0 0 
z
" style="fill: #ffffff"/>
  </g>
  <g id="axes_1">
   <g id="patch_2">
    <path d="M 34.371094 133.997074 
L 519.533751 133.997074 
L 519.533751 18.771563 
L 34.371094 18.771563 
z
" style="fill: #ffffff"/>
   </g>
   <g id="matplotlib.axis_1">
    <g id="xtick_1">
     <g id="line2d_1">
      <defs>
       <path id="m2855711dac" d="M 0 0 
L 0 3 
" style="stroke: #000000; stroke-width: 0.8"/>
      </defs>
      <g>
       <use xlink:href="#m2855711dac" x="56.423942" y="133.997074" style="stroke: #000000; stroke-width: 0.8"/>
      </g>
     </g>
     <g id="text_1">
      <text style="font-size: 7px; font-family: 'PingFang SC', 'Heiti SC', 'STHeiti', 'Arial Unicode MS', 'Arial', 'Helvetica', 'DejaVu Sans', sans-serif; text-anchor: middle" x="56.423942" y="146.068637" transform="rotate(-0 56.423942 146.068637)">0.0</text>
     </g>
    </g>
    <g id="xtick_2">
     <g id="line2d_2">
      <g>
       <use xlink:href="#m2855711dac" x="144.635334" y="133.997074" style="stroke: #000000; stroke-width: 0.8"/>
      </g>
     </g>
     <g id="text_2">
      <text style="font-size: 7px; font-family: 'PingFang SC', 'Heiti SC', 'STHeiti', 'Arial Unicode MS', 'Arial', 'Helvetica', 'DejaVu Sans', sans-serif; text-anchor: middle" x="144.635334" y="146.068637" transform="rotate(-0 144.635334 146.068637)">0.2</text>
     </g>
    </g>
    <g id="xtick_3">
     <g id="line2d_3">
      <g>
       <use xlink:href="#m2855711dac" x="232.846726" y="133.997074" style="stroke: #000000; stroke-width: 0.8"/>
      </g>
     </g>
     <g id="text_3">
      <text style="font-size: 7px; font-family: 'PingFang SC', 'Heiti SC', 'STHeiti', 'Arial Unicode MS', 'Arial', 'Helvetica', 'DejaVu Sans', sans-serif; text-anchor: middle" x="232.846726" y="146.068637" transform="rotate(-0 232.846726 146.068637)">0.4</text>
     </g>
    </g>
    <g id="xtick_4">
     <g id="line2d_4">
      <g>
       <use xlink:href="#m2855711dac" x="321.058119" y="133.997074" style="stroke: #000000; stroke-width: 0.8"/>
      </g>
     </g>
     <g id="text_4">
      <text style="font-size: 7px; font-family: 'PingFang SC', 'Heiti SC', 'STHeiti', 'Arial Unicode MS', 'Arial', 'Helvetica', 'DejaVu Sans', sans-serif; text-anchor: middle" x="321.058119" y="146.068637" transform="rotate(-0 321.058119 146.068637)">0.6</text>
     </g>
    </g>
    <g id="xtick_5">
     <g id="line2d_5">
      <g>
       <use xlink:href="#m2855711dac" x="409.269511" y="133.997074" style="stroke: #000000; stroke-width: 0.8"/>
      </g>
     </g>
     <g id="text_5">
      <text style="font-size: 7px; font-family: 'PingFang SC', 'Heiti SC', 'STHeiti', 'Arial Unicode MS', 'Arial', 'Helvetica', 'DejaVu Sans', sans-serif; text-anchor: middle" x="409.269511" y="146.068637" transform="rotate(-0 409.269511 146.068637)">0.8</text>
     </g>
    </g>
    <g id="xtick_6">
     <g id="line2d_6">
      <g>
       <use xlink:href="#m2855711dac" x="497.480903" y="133.997074" style="stroke: #000000; stroke-width: 0.8"/>
      </g>
     </g>
     <g id="text_6">
      <text style="font-size: 7px; font-family: 'PingFang SC', 'Heiti SC', 'STHeiti', 'Arial Unicode MS', 'Arial', 'Helvetica', 'DejaVu Sans', sans-serif; text-anchor: middle" x="497.480903" y="146.068637" transform="rotate(-0 497.480903 146.068637)">1.0</text>
     </g>
    </g>
    <g id="text_7">
     <text style="font-size: 7.5px; font-family: 'PingFang SC', 'Heiti SC', 'STHeiti', 'Arial Unicode MS', 'Arial', 'Helvetica', 'DejaVu Sans', sans-serif; text-anchor: middle" x="276.952422" y="156.976606" transform="rotate(-0 276.952422 156.976606)">模拟进度</text>
    </g>
   </g>
   <g id="matplotlib.axis_2">
    <g id="ytick_1">
     <g id="line2d_7">
      <defs>
       <path id="ma6cf04aef4" d="M 0 0 
L -3 0 
" style="stroke: #000000; stroke-width: 0.8"/>
      </defs>
      <g>
       <use xlink:href="#ma6cf04aef4" x="34.371094" y="130.735975" style="stroke: #000000; stroke-width: 0.8"/>
      </g>
     </g>
     <g id="text_8">
      <text style="font-size: 7px; font-family: 'PingFang SC', 'Heiti SC', 'STHeiti', 'Arial Unicode MS', 'Arial', 'Helvetica', 'DejaVu Sans', sans-serif; text-anchor: end" x="27.871094" y="133.521756" transform="rotate(-0 27.871094 133.521756)">0.0</text>
     </g>
    </g>
    <g id="ytick_2">
     <g id="line2d_8">
      <g>
       <use xlink:href="#ma6cf04aef4" x="34.371094" y="108.995312" style="stroke: #000000; stroke-width: 0.8"/>
      </g>
     </g>
     <g id="text_9">
      <text style="font-size: 7px; font-family: 'PingFang SC', 'Heiti SC', 'STHeiti', 'Arial Unicode MS', 'Arial', 'Helvetica', 'DejaVu Sans', sans-serif; text-anchor: end" x="27.871094" y="111.781094" transform="rotate(-0 27.871094 111.781094)">0.2</text>
     </g>
    </g>
    <g id="ytick_3">
     <g id="line2d_9">
      <g>
       <use xlink:href="#ma6cf04aef4" x="34.371094" y="87.25465" style="stroke: #000000; stroke-width: 0.8"/>
      </g>
     </g>
     <g id="text_10">
      <text style="font-size: 7px; font-family: 'PingFang SC', 'Heiti SC', 'STHeiti', 'Arial Unicode MS', 'Arial', 'Helvetica', 'DejaVu Sans', sans-serif; text-anchor: end" x="27.871094" y="90.040431" transform="rotate(-0 27.871094 90.040431)">0.4</text>
     </g>
    </g>
    <g id="ytick_4">
     <g id="line2d_10">
      <g>
       <use xlink:href="#ma6cf04aef4" x="34.371094" y="65.513987" style="stroke: #000000; stroke-width: 0.8"/>
      </g>
     </g>
     <g id="text_11">
      <text style="font-size: 7px; font-family: 'PingFang SC', 'Heiti SC', 'STHeiti', 'Arial Unicode MS', 'Arial', 'Helvetica', 'DejaVu Sans', sans-serif; text-anchor: end" x="27.871094" y="68.299768" transform="rotate(-0 27.871094 68.299768)">0.6</text>
     </g>
    </g>
    <g id="ytick_5">
     <g id="line2d_11">
      <g>
       <use xlink:href="#ma6cf04aef4" x="34.371094" y="43.773324" style="stroke: #000000; stroke-width: 0.8"/>
      </g>
     </g>
     <g id="text_12">
      <text style="font-size: 7px; font-family: 'PingFang SC', 'Heiti SC', 'STHeiti', 'Arial Unicode MS', 'Arial', 'Helvetica', 'DejaVu Sans', sans-serif; text-anchor: end" x="27.871094" y="46.559106" transform="rotate(-0 27.871094 46.559106)">0.8</text>
     </g>
    </g>
    <g id="ytick_6">
     <g id="line2d_12">
      <g>
       <use xlink:href="#ma6cf04aef4" x="34.371094" y="22.032662" style="stroke: #000000; stroke-width: 0.8"/>
      </g>
     </g>
     <g id="text_13">
      <text style="font-size: 7px; font-family: 'PingFang SC', 'Heiti SC', 'STHeiti', 'Arial Unicode MS', 'Arial', 'Helvetica', 'DejaVu Sans', sans-serif; text-anchor: end" x="27.871094" y="24.818443" transform="rotate(-0 27.871094 24.818443)">1.0</text>
     </g>
    </g>
    <g id="text_14">
     <text style="font-size: 7.5px; font-family: 'PingFang SC', 'Heiti SC', 'STHeiti', 'Arial Unicode MS', 'Arial', 'Helvetica', 'DejaVu Sans', sans-serif; text-anchor: middle" x="13.169531" y="76.384318" transform="rotate(-90 13.169531 76.384318)">YES 中间价</text>
    </g>
   </g>
   <g id="line2d_13">
    <path d="M 56.423942 80.732451 
L 60.879063 76.384318 
L 65.334183 78.014868 
L 69.789304 79.101901 
L 74.244425 83.450034 
L 78.699546 81.819484 
L 83.154667 78.014868 
L 87.609788 79.645418 
L 92.064908 79.101901 
L 96.520029 80.188934 
L 100.97515 80.188934 
L 105.430271 80.188934 
L 109.885392 80.188934 
L 114.340512 80.188934 
L 118.795633 80.188934 
L 123.250754 80.188934 
L 127.705875 80.188934 
L 132.160996 80.188934 
L 136.616117 83.99355 
L 141.071237 82.363001 
L 145.526358 83.450034 
L 149.981479 82.363001 
L 154.4366 82.363001 
L 158.891721 82.363001 
L 163.346842 82.363001 
L 167.801962 83.99355 
L 172.257083 82.363001 
L 176.712204 82.363001 
L 181.167325 82.363001 
L 185.622446 82.363001 
L 190.077566 82.363001 
L 194.532687 82.363001 
L 198.987808 82.363001 
L 203.442929 82.363001 
L 207.89805 82.363001 
L 212.353171 82.363001 
L 216.808291 82.363001 
L 221.263412 82.363001 
L 225.718533 82.363001 
L 230.173654 82.363001 
L 234.628775 82.363001 
L 239.083896 82.363001 
L 243.539016 82.363001 
L 247.994137 82.363001 
L 252.449258 82.363001 
L 256.904379 82.363001 
L 261.3595 82.363001 
L 265.81462 82.363001 
L 270.269741 82.363001 
L 274.724862 82.363001 
L 279.179983 82.363001 
L 283.635104 82.363001 
L 288.090225 82.363001 
L 292.545345 82.363001 
L 297.000466 82.363001 
L 301.455587 82.363001 
L 305.910708 82.363001 
L 310.365829 82.363001 
L 314.820949 82.363001 
L 319.27607 82.363001 
L 323.731191 82.363001 
L 328.186312 82.363001 
L 332.641433 82.363001 
L 337.096554 82.363001 
L 341.551674 82.363001 
L 346.006795 82.363001 
L 350.461916 82.363001 
L 354.917037 82.363001 
L 359.372158 82.363001 
L 363.827279 82.363001 
L 368.282399 82.363001 
L 372.73752 82.363001 
L 377.192641 82.363001 
L 381.647762 82.363001 
L 386.102883 82.363001 
L 390.558003 82.363001 
L 395.013124 82.363001 
L 399.468245 82.363001 
L 403.923366 82.363001 
L 408.378487 82.363001 
L 412.833608 82.363001 
L 417.288728 82.363001 
L 421.743849 85.080583 
L 426.19897 87.798166 
L 430.654091 87.798166 
L 435.109212 87.798166 
L 439.564332 87.798166 
L 444.019453 87.798166 
L 448.474574 87.798166 
L 452.929695 87.798166 
L 457.384816 86.711133 
L 461.839937 86.711133 
L 466.295057 87.25465 
L 470.750178 87.25465 
L 475.205299 87.798166 
L 479.66042 87.798166 
L 484.115541 87.798166 
L 488.570662 87.25465 
L 493.025782 87.25465 
L 497.480903 88.341683 
" clip-path="url(#p4f80f8769c)" style="fill: none; stroke: #b64342; stroke-opacity: 0.55; stroke-width: 0.7; stroke-linecap: square"/>
   </g>
   <g id="line2d_14">
    <path d="M 56.423942 80.732451 
L 60.879063 76.384318 
L 65.334183 76.927835 
L 69.789304 76.927835 
L 74.244425 76.927835 
L 78.699546 78.558385 
L 83.154667 78.558385 
L 87.609788 79.101901 
L 92.064908 79.101901 
L 96.520029 79.101901 
L 100.97515 79.101901 
L 105.430271 79.101901 
L 109.885392 82.906517 
L 114.340512 80.732451 
L 118.795633 80.188934 
L 123.250754 80.188934 
L 127.705875 81.275967 
L 132.160996 83.99355 
L 136.616117 82.363001 
L 141.071237 81.819484 
L 145.526358 81.275967 
L 149.981479 82.363001 
L 154.4366 82.363001 
L 158.891721 80.732451 
L 163.346842 77.471352 
L 167.801962 79.101901 
L 172.257083 79.101901 
L 176.712204 81.275967 
L 181.167325 81.275967 
L 185.622446 81.275967 
L 190.077566 81.275967 
L 194.532687 81.819484 
L 198.987808 84.537067 
L 203.442929 83.450034 
L 207.89805 85.080583 
L 212.353171 85.6241 
L 216.808291 86.167617 
L 221.263412 86.167617 
L 225.718533 86.711133 
L 230.173654 86.711133 
L 234.628775 86.711133 
L 239.083896 88.341683 
L 243.539016 88.341683 
L 247.994137 88.341683 
L 252.449258 88.341683 
L 256.904379 88.341683 
L 261.3595 88.341683 
L 265.81462 88.341683 
L 270.269741 88.341683 
L 274.724862 88.341683 
L 279.179983 88.341683 
L 283.635104 88.341683 
L 288.090225 88.341683 
L 292.545345 88.341683 
L 297.000466 88.341683 
L 301.455587 88.341683 
L 305.910708 88.341683 
L 310.365829 88.341683 
L 314.820949 88.341683 
L 319.27607 88.341683 
L 323.731191 88.341683 
L 328.186312 88.341683 
L 332.641433 88.341683 
L 337.096554 88.341683 
L 341.551674 88.341683 
L 346.006795 88.341683 
L 350.461916 88.341683 
L 354.917037 88.341683 
L 359.372158 88.341683 
L 363.827279 88.341683 
L 368.282399 88.341683 
L 372.73752 88.341683 
L 377.192641 88.341683 
L 381.647762 88.341683 
L 386.102883 88.341683 
L 390.558003 88.341683 
L 395.013124 88.341683 
L 399.468245 88.341683 
L 403.923366 88.341683 
L 408.378487 88.341683 
L 412.833608 88.341683 
L 417.288728 88.341683 
L 421.743849 88.341683 
L 426.19897 88.341683 
L 430.654091 88.341683 
L 435.109212 88.341683 
L 439.564332 88.341683 
L 444.019453 88.341683 
L 448.474574 88.341683 
L 452.929695 88.341683 
L 457.384816 88.341683 
L 461.839937 94.863882 
L 466.295057 94.863882 
L 470.750178 94.863882 
L 475.205299 91.602782 
L 479.66042 91.602782 
L 484.115541 91.602782 
L 488.570662 93.233332 
L 493.025782 93.233332 
L 497.480903 93.776848 
" clip-path="url(#p4f80f8769c)" style="fill: none; stroke: #b64342; stroke-opacity: 0.55; stroke-width: 0.7; stroke-linecap: square"/>
   </g>
   <g id="line2d_15">
    <path d="M 56.423942 76.927835 
L 60.879063 76.384318 
L 65.334183 78.014868 
L 69.789304 78.014868 
L 74.244425 78.014868 
L 78.699546 78.014868 
L 83.154667 78.014868 
L 87.609788 78.014868 
L 92.064908 79.101901 
L 96.520029 82.906517 
L 100.97515 85.080583 
L 105.430271 84.537067 
L 109.885392 84.537067 
L 114.340512 84.537067 
L 118.795633 84.537067 
L 123.250754 84.537067 
L 127.705875 84.537067 
L 132.160996 84.537067 
L 136.616117 84.537067 
L 141.071237 84.537067 
L 145.526358 84.537067 
L 149.981479 84.537067 
L 154.4366 84.537067 
L 158.891721 84.537067 
L 163.346842 84.537067 
L 167.801962 84.537067 
L 172.257083 84.537067 
L 176.712204 84.537067 
L 181.167325 84.537067 
L 185.622446 84.537067 
L 190.077566 84.537067 
L 194.532687 84.537067 
L 198.987808 84.537067 
L 203.442929 84.537067 
L 207.89805 84.537067 
L 212.353171 84.537067 
L 216.808291 84.537067 
L 221.263412 84.537067 
L 225.718533 84.537067 
L 230.173654 84.537067 
L 234.628775 84.537067 
L 239.083896 84.537067 
L 243.539016 84.537067 
L 247.994137 84.537067 
L 252.449258 84.537067 
L 256.904379 84.537067 
L 261.3595 84.537067 
L 265.81462 84.537067 
L 270.269741 84.537067 
L 274.724862 84.537067 
L 279.179983 84.537067 
L 283.635104 84.537067 
L 288.090225 82.363001 
L 292.545345 83.450034 
L 297.000466 83.450034 
L 301.455587 82.906517 
L 305.910708 82.906517 
L 310.365829 82.906517 
L 314.820949 84.537067 
L 319.27607 84.537067 
L 323.731191 84.537067 
L 328.186312 84.537067 
L 332.641433 84.537067 
L 337.096554 84.537067 
L 341.551674 81.819484 
L 346.006795 81.819484 
L 350.461916 81.819484 
L 354.917037 81.819484 
L 359.372158 81.819484 
L 363.827279 81.819484 
L 368.282399 83.450034 
L 372.73752 82.363001 
L 377.192641 81.275967 
L 381.647762 82.363001 
L 386.102883 82.363001 
L 390.558003 85.080583 
L 395.013124 85.080583 
L 399.468245 83.450034 
L 403.923366 83.450034 
L 408.378487 83.450034 
L 412.833608 83.450034 
L 417.288728 83.450034 
L 421.743849 83.450034 
L 426.19897 83.450034 
L 430.654091 83.450034 
L 435.109212 83.450034 
L 439.564332 83.450034 
L 444.019453 83.450034 
L 448.474574 83.450034 
L 452.929695 83.450034 
L 457.384816 83.450034 
L 461.839937 83.450034 
L 466.295057 83.450034 
L 470.750178 83.450034 
L 475.205299 83.450034 
L 479.66042 86.711133 
L 484.115541 85.6241 
L 488.570662 85.6241 
L 493.025782 82.363001 
L 497.480903 83.450034 
" clip-path="url(#p4f80f8769c)" style="fill: none; stroke: #b64342; stroke-opacity: 0.55; stroke-width: 0.7; stroke-linecap: square"/>
   </g>
   <g id="line2d_16">
    <path d="M 56.423942 80.732451 
L 105.430271 76.384318 
L 154.4366 79.645418 
L 203.442929 78.558385 
L 252.449258 78.558385 
L 301.455587 80.188934 
L 350.461916 80.188934 
L 399.468245 83.450034 
L 448.474574 81.819484 
L 497.480903 81.819484 
" clip-path="url(#p4f80f8769c)" style="fill: none; stroke: #0f4d92; stroke-opacity: 0.55; stroke-width: 0.7; stroke-linecap: square"/>
   </g>
   <g id="line2d_17">
    <path d="M 56.423942 80.732451 
L 105.430271 77.471352 
L 154.4366 80.188934 
L 203.442929 80.188934 
L 252.449258 80.188934 
L 301.455587 81.275967 
L 350.461916 81.275967 
L 399.468245 88.341683 
L 448.474574 88.341683 
L 497.480903 82.906517 
" clip-path="url(#p4f80f8769c)" style="fill: none; stroke: #0f4d92; stroke-opacity: 0.55; stroke-width: 0.7; stroke-linecap: square"/>
   </g>
   <g id="line2d_18">
    <path d="M 56.423942 76.384318 
L 105.430271 76.384318 
L 154.4366 81.819484 
L 203.442929 81.275967 
L 252.449258 79.101901 
L 301.455587 82.906517 
L 350.461916 79.645418 
L 399.468245 80.732451 
L 448.474574 80.732451 
L 497.480903 80.732451 
" clip-path="url(#p4f80f8769c)" style="fill: none; stroke: #0f4d92; stroke-opacity: 0.55; stroke-width: 0.7; stroke-linecap: square"/>
   </g>
   <g id="line2d_19">
    <path d="M 56.423942 80.732451 
L 79.637466 76.927835 
L 102.85099 75.840802 
L 126.064515 77.471352 
L 149.278039 82.363001 
L 172.491563 80.188934 
L 195.705088 81.275967 
L 218.918612 78.558385 
L 242.132136 80.188934 
L 265.34566 80.188934 
L 288.559185 80.188934 
L 311.772709 80.188934 
L 334.986233 80.188934 
L 358.199757 80.188934 
L 381.413282 81.275967 
L 404.626806 81.275967 
L 427.84033 81.275967 
L 451.053855 81.275967 
L 474.267379 81.275967 
L 497.480903 85.080583 
" clip-path="url(#p4f80f8769c)" style="fill: none; stroke: #8bcf8b; stroke-opacity: 0.55; stroke-width: 0.7; stroke-linecap: square"/>
   </g>
   <g id="line2d_20">
    <path d="M 56.423942 80.732451 
L 79.637466 76.384318 
L 102.85099 82.363001 
L 126.064515 79.101901 
L 149.278039 82.363001 
L 172.491563 85.6241 
L 195.705088 85.080583 
L 218.918612 85.080583 
L 242.132136 85.080583 
L 265.34566 85.080583 
L 288.559185 84.537067 
L 311.772709 84.537067 
L 334.986233 85.6241 
L 358.199757 85.6241 
L 381.413282 85.6241 
L 404.626806 85.6241 
L 427.84033 85.6241 
L 451.053855 80.732451 
L 474.267379 80.732451 
L 497.480903 80.732451 
" clip-path="url(#p4f80f8769c)" style="fill: none; stroke: #8bcf8b; stroke-opacity: 0.55; stroke-width: 0.7; stroke-linecap: square"/>
   </g>
   <g id="line2d_21">
    <path d="M 56.423942 80.732451 
L 79.637466 76.927835 
L 102.85099 80.188934 
L 126.064515 79.101901 
L 149.278039 79.101901 
L 172.491563 82.363001 
L 195.705088 82.363001 
L 218.918612 81.275967 
L 242.132136 81.275967 
L 265.34566 81.275967 
L 288.559185 81.275967 
L 311.772709 81.275967 
L 334.986233 81.275967 
L 358.199757 82.363001 
L 381.413282 83.99355 
L 404.626806 81.275967 
L 427.84033 81.275967 
L 451.053855 81.275967 
L 474.267379 81.275967 
L 497.480903 82.906517 
" clip-path="url(#p4f80f8769c)" style="fill: none; stroke: #8bcf8b; stroke-opacity: 0.55; stroke-width: 0.7; stroke-linecap: square"/>
   </g>
   <g id="line2d_22">
    <path d="M 56.423942 80.732451 
L 65.425104 76.927835 
L 74.426267 76.384318 
L 83.427429 76.384318 
L 92.428592 77.471352 
L 101.429754 77.471352 
L 110.430917 78.558385 
L 119.432079 80.732451 
L 128.433242 80.732451 
L 137.434404 80.732451 
L 146.435567 80.732451 
L 155.436729 80.732451 
L 164.437892 80.732451 
L 173.439054 80.732451 
L 182.440216 81.275967 
L 191.441379 81.275967 
L 200.442541 81.275967 
L 209.443704 81.275967 
L 218.444866 81.275967 
L 227.446029 81.275967 
L 236.447191 81.275967 
L 245.448354 81.275967 
L 254.449516 81.275967 
L 263.450679 81.275967 
L 272.451841 81.275967 
L 281.453004 81.275967 
L 290.454166 81.275967 
L 299.455329 81.275967 
L 308.456491 81.275967 
L 317.457654 81.275967 
L 326.458816 81.275967 
L 335.459979 81.819484 
L 344.461141 81.819484 
L 353.462304 81.819484 
L 362.463466 81.819484 
L 371.464628 81.819484 
L 380.465791 81.819484 
L 389.466953 81.819484 
L 398.468116 81.275967 
L 407.469278 81.275967 
L 416.470441 81.275967 
L 425.471603 81.819484 
L 434.472766 81.819484 
L 443.473928 81.819484 
L 452.475091 80.732451 
L 461.476253 80.732451 
L 470.477416 80.732451 
L 479.478578 80.732451 
L 488.479741 80.732451 
L 497.480903 80.732451 
" clip-path="url(#p4f80f8769c)" style="fill: none; stroke: #4d4d4d; stroke-opacity: 0.55; stroke-width: 0.7; stroke-linecap: square"/>
   </g>
   <g id="line2d_23">
    <path d="M 56.423942 80.732451 
L 65.425104 76.927835 
L 74.426267 78.014868 
L 83.427429 82.363001 
L 92.428592 80.732451 
L 101.429754 81.819484 
L 110.430917 79.645418 
L 119.432079 81.819484 
L 128.433242 81.819484 
L 137.434404 88.341683 
L 146.435567 88.341683 
L 155.436729 83.99355 
L 164.437892 92.689815 
L 173.439054 91.602782 
L 182.440216 90.515749 
L 191.441379 91.602782 
L 200.442541 91.602782 
L 209.443704 91.602782 
L 218.444866 91.602782 
L 227.446029 91.602782 
L 236.447191 91.602782 
L 245.448354 91.602782 
L 254.449516 91.602782 
L 263.450679 91.602782 
L 272.451841 88.341683 
L 281.453004 88.341683 
L 290.454166 88.885199 
L 299.455329 88.885199 
L 308.456491 88.885199 
L 317.457654 88.341683 
L 326.458816 88.341683 
L 335.459979 88.341683 
L 344.461141 88.341683 
L 353.462304 88.341683 
L 362.463466 88.341683 
L 371.464628 88.341683 
L 380.465791 88.341683 
L 389.466953 88.341683 
L 398.468116 88.341683 
L 407.469278 88.341683 
L 416.470441 88.341683 
L 425.471603 88.341683 
L 434.472766 88.341683 
L 443.473928 88.341683 
L 452.475091 88.341683 
L 461.476253 88.341683 
L 470.477416 88.341683 
L 479.478578 88.341683 
L 488.479741 88.341683 
L 497.480903 88.341683 
" clip-path="url(#p4f80f8769c)" style="fill: none; stroke: #4d4d4d; stroke-opacity: 0.55; stroke-width: 0.7; stroke-linecap: square"/>
   </g>
   <g id="line2d_24">
    <path d="M 56.423942 80.732451 
L 65.425104 76.927835 
L 74.426267 79.645418 
L 83.427429 81.275967 
L 92.428592 79.645418 
L 101.429754 79.101901 
L 110.430917 80.188934 
L 119.432079 81.275967 
L 128.433242 81.275967 
L 137.434404 81.275967 
L 146.435567 82.363001 
L 155.436729 81.275967 
L 164.437892 81.275967 
L 173.439054 81.275967 
L 182.440216 81.275967 
L 191.441379 81.275967 
L 200.442541 81.275967 
L 209.443704 81.275967 
L 218.444866 81.275967 
L 227.446029 81.275967 
L 236.447191 81.275967 
L 245.448354 81.275967 
L 254.449516 81.275967 
L 263.450679 81.275967 
L 272.451841 81.275967 
L 281.453004 81.275967 
L 290.454166 81.275967 
L 299.455329 81.275967 
L 308.456491 81.275967 
L 317.457654 81.275967 
L 326.458816 81.275967 
L 335.459979 81.275967 
L 344.461141 81.275967 
L 353.462304 81.275967 
L 362.463466 81.275967 
L 371.464628 81.275967 
L 380.465791 81.275967 
L 389.466953 81.275967 
L 398.468116 81.275967 
L 407.469278 81.275967 
L 416.470441 81.275967 
L 425.471603 81.275967 
L 434.472766 81.275967 
L 443.473928 81.275967 
L 452.475091 81.275967 
L 461.476253 81.275967 
L 470.477416 81.275967 
L 479.478578 83.99355 
L 488.479741 82.363001 
L 497.480903 83.450034 
" clip-path="url(#p4f80f8769c)" style="fill: none; stroke: #4d4d4d; stroke-opacity: 0.55; stroke-width: 0.7; stroke-linecap: square"/>
   </g>
   <g id="line2d_25">
    <path d="M 34.371094 22.032662 
L 519.533751 22.032662 
" clip-path="url(#p4f80f8769c)" style="fill: none; stroke-dasharray: 2.96,1.28; stroke-dashoffset: 0; stroke: #b64342; stroke-width: 0.8"/>
   </g>
   <g id="line2d_26"/>
   <g id="line2d_27"/>
   <g id="line2d_28"/>
   <g id="line2d_29"/>
   <g id="patch_3">
    <path d="M 34.371094 133.997074 
L 34.371094 18.771563 
" style="fill: none; stroke: #000000; stroke-width: 0.8; stroke-linejoin: miter; stroke-linecap: square"/>
   </g>
   <g id="patch_4">
    <path d="M 34.371094 133.997074 
L 519.533751 133.997074 
" style="fill: none; stroke: #000000; stroke-width: 0.8; stroke-linejoin: miter; stroke-linecap: square"/>
   </g>
   <g id="text_15">
    <text style="font-size: 7px; font-family: 'PingFang SC', 'Heiti SC', 'STHeiti', 'Arial Unicode MS', 'Arial', 'Helvetica', 'DejaVu Sans', sans-serif; text-anchor: middle; fill: #4d4d4d" x="276.952422" y="12.771563" transform="rotate(-0 276.952422 12.771563)">基底市场：Robotaxi</text>
   </g>
   <g id="legend_1">
    <g id="line2d_30">
     <path d="M 39.171094 100.552699 
L 43.971094 100.552699 
L 48.771094 100.552699 
" style="fill: none; stroke: #0f4d92; stroke-linecap: square"/>
    </g>
    <g id="text_16">
     <text style="font-size: 6px; font-family: 'PingFang SC', 'Heiti SC', 'STHeiti', 'Arial Unicode MS', 'Arial', 'Helvetica', 'DejaVu Sans', sans-serif; text-anchor: start" x="53.571094" y="102.652699" transform="rotate(-0 53.571094 102.652699)">t=10</text>
    </g>
    <g id="line2d_31">
     <path d="M 39.171094 109.132699 
L 43.971094 109.132699 
L 48.771094 109.132699 
" style="fill: none; stroke: #8bcf8b; stroke-linecap: square"/>
    </g>
    <g id="text_17">
     <text style="font-size: 6px; font-family: 'PingFang SC', 'Heiti SC', 'STHeiti', 'Arial Unicode MS', 'Arial', 'Helvetica', 'DejaVu Sans', sans-serif; text-anchor: start" x="53.571094" y="111.232699" transform="rotate(-0 53.571094 111.232699)">t=20</text>
    </g>
    <g id="line2d_32">
     <path d="M 39.171094 117.712699 
L 43.971094 117.712699 
L 48.771094 117.712699 
" style="fill: none; stroke: #4d4d4d; stroke-linecap: square"/>
    </g>
    <g id="text_18">
     <text style="font-size: 6px; font-family: 'PingFang SC', 'Heiti SC', 'STHeiti', 'Arial Unicode MS', 'Arial', 'Helvetica', 'DejaVu Sans', sans-serif; text-anchor: start" x="53.571094" y="119.812699" transform="rotate(-0 53.571094 119.812699)">t=50</text>
    </g>
    <g id="line2d_33">
     <path d="M 39.171094 126.292699 
L 43.971094 126.292699 
L 48.771094 126.292699 
" style="fill: none; stroke: #b64342; stroke-linecap: square"/>
    </g>
    <g id="text_19">
     <text style="font-size: 6px; font-family: 'PingFang SC', 'Heiti SC', 'STHeiti', 'Arial Unicode MS', 'Arial', 'Helvetica', 'DejaVu Sans', sans-serif; text-anchor: start" x="53.571094" y="128.392699" transform="rotate(-0 53.571094 128.392699)">t=100</text>
    </g>
   </g>
  </g>
  <g id="axes_2">
   <g id="patch_5">
    <path d="M 34.371094 288.402586 
L 519.533751 288.402586 
L 519.533751 173.177074 
L 34.371094 173.177074 
z
" style="fill: #ffffff"/>
   </g>
   <g id="matplotlib.axis_3">
    <g id="xtick_7">
     <g id="line2d_34">
      <g>
       <use xlink:href="#m2855711dac" x="56.423942" y="288.402586" style="stroke: #000000; stroke-width: 0.8"/>
      </g>
     </g>
     <g id="text_20">
      <text style="font-size: 7px; font-family: 'PingFang SC', 'Heiti SC', 'STHeiti', 'Arial Unicode MS', 'Arial', 'Helvetica', 'DejaVu Sans', sans-serif; text-anchor: middle" x="56.423942" y="300.474149" transform="rotate(-0 56.423942 300.474149)">0.0</text>
     </g>
    </g>
    <g id="xtick_8">
     <g id="line2d_35">
      <g>
       <use xlink:href="#m2855711dac" x="144.635334" y="288.402586" style="stroke: #000000; stroke-width: 0.8"/>
      </g>
     </g>
     <g id="text_21">
      <text style="font-size: 7px; font-family: 'PingFang SC', 'Heiti SC', 'STHeiti', 'Arial Unicode MS', 'Arial', 'Helvetica', 'DejaVu Sans', sans-serif; text-anchor: middle" x="144.635334" y="300.474149" transform="rotate(-0 144.635334 300.474149)">0.2</text>
     </g>
    </g>
    <g id="xtick_9">
     <g id="line2d_36">
      <g>
       <use xlink:href="#m2855711dac" x="232.846726" y="288.402586" style="stroke: #000000; stroke-width: 0.8"/>
      </g>
     </g>
     <g id="text_22">
      <text style="font-size: 7px; font-family: 'PingFang SC', 'Heiti SC', 'STHeiti', 'Arial Unicode MS', 'Arial', 'Helvetica', 'DejaVu Sans', sans-serif; text-anchor: middle" x="232.846726" y="300.474149" transform="rotate(-0 232.846726 300.474149)">0.4</text>
     </g>
    </g>
    <g id="xtick_10">
     <g id="line2d_37">
      <g>
       <use xlink:href="#m2855711dac" x="321.058119" y="288.402586" style="stroke: #000000; stroke-width: 0.8"/>
      </g>
     </g>
     <g id="text_23">
      <text style="font-size: 7px; font-family: 'PingFang SC', 'Heiti SC', 'STHeiti', 'Arial Unicode MS', 'Arial', 'Helvetica', 'DejaVu Sans', sans-serif; text-anchor: middle" x="321.058119" y="300.474149" transform="rotate(-0 321.058119 300.474149)">0.6</text>
     </g>
    </g>
    <g id="xtick_11">
     <g id="line2d_38">
      <g>
       <use xlink:href="#m2855711dac" x="409.269511" y="288.402586" style="stroke: #000000; stroke-width: 0.8"/>
      </g>
     </g>
     <g id="text_24">
      <text style="font-size: 7px; font-family: 'PingFang SC', 'Heiti SC', 'STHeiti', 'Arial Unicode MS', 'Arial', 'Helvetica', 'DejaVu Sans', sans-serif; text-anchor: middle" x="409.269511" y="300.474149" transform="rotate(-0 409.269511 300.474149)">0.8</text>
     </g>
    </g>
    <g id="xtick_12">
     <g id="line2d_39">
      <g>
       <use xlink:href="#m2855711dac" x="497.480903" y="288.402586" style="stroke: #000000; stroke-width: 0.8"/>
      </g>
     </g>
     <g id="text_25">
      <text style="font-size: 7px; font-family: 'PingFang SC', 'Heiti SC', 'STHeiti', 'Arial Unicode MS', 'Arial', 'Helvetica', 'DejaVu Sans', sans-serif; text-anchor: middle" x="497.480903" y="300.474149" transform="rotate(-0 497.480903 300.474149)">1.0</text>
     </g>
    </g>
    <g id="text_26">
     <text style="font-size: 7.5px; font-family: 'PingFang SC', 'Heiti SC', 'STHeiti', 'Arial Unicode MS', 'Arial', 'Helvetica', 'DejaVu Sans', sans-serif; text-anchor: middle" x="276.952422" y="311.382117" transform="rotate(-0 276.952422 311.382117)">模拟进度</text>
    </g>
   </g>
   <g id="matplotlib.axis_4">
    <g id="ytick_7">
     <g id="line2d_40">
      <g>
       <use xlink:href="#ma6cf04aef4" x="34.371094" y="285.141487" style="stroke: #000000; stroke-width: 0.8"/>
      </g>
     </g>
     <g id="text_27">
      <text style="font-size: 7px; font-family: 'PingFang SC', 'Heiti SC', 'STHeiti', 'Arial Unicode MS', 'Arial', 'Helvetica', 'DejaVu Sans', sans-serif; text-anchor: end" x="27.871094" y="287.927268" transform="rotate(-0 27.871094 287.927268)">0.0</text>
     </g>
    </g>
    <g id="ytick_8">
     <g id="line2d_41">
      <g>
       <use xlink:href="#ma6cf04aef4" x="34.371094" y="263.400824" style="stroke: #000000; stroke-width: 0.8"/>
      </g>
     </g>
     <g id="text_28">
      <text style="font-size: 7px; font-family: 'PingFang SC', 'Heiti SC', 'STHeiti', 'Arial Unicode MS', 'Arial', 'Helvetica', 'DejaVu Sans', sans-serif; text-anchor: end" x="27.871094" y="266.186605" transform="rotate(-0 27.871094 266.186605)">0.2</text>
     </g>
    </g>
    <g id="ytick_9">
     <g id="line2d_42">
      <g>
       <use xlink:href="#ma6cf04aef4" x="34.371094" y="241.660162" style="stroke: #000000; stroke-width: 0.8"/>
      </g>
     </g>
     <g id="text_29">
      <text style="font-size: 7px; font-family: 'PingFang SC', 'Heiti SC', 'STHeiti', 'Arial Unicode MS', 'Arial', 'Helvetica', 'DejaVu Sans', sans-serif; text-anchor: end" x="27.871094" y="244.445943" transform="rotate(-0 27.871094 244.445943)">0.4</text>
     </g>
    </g>
    <g id="ytick_10">
     <g id="line2d_43">
      <g>
       <use xlink:href="#ma6cf04aef4" x="34.371094" y="219.919499" style="stroke: #000000; stroke-width: 0.8"/>
      </g>
     </g>
     <g id="text_30">
      <text style="font-size: 7px; font-family: 'PingFang SC', 'Heiti SC', 'STHeiti', 'Arial Unicode MS', 'Arial', 'Helvetica', 'DejaVu Sans', sans-serif; text-anchor: end" x="27.871094" y="222.70528" transform="rotate(-0 27.871094 222.70528)">0.6</text>
     </g>
    </g>
    <g id="ytick_11">
     <g id="line2d_44">
      <g>
       <use xlink:href="#ma6cf04aef4" x="34.371094" y="198.178836" style="stroke: #000000; stroke-width: 0.8"/>
      </g>
     </g>
     <g id="text_31">
      <text style="font-size: 7px; font-family: 'PingFang SC', 'Heiti SC', 'STHeiti', 'Arial Unicode MS', 'Arial', 'Helvetica', 'DejaVu Sans', sans-serif; text-anchor: end" x="27.871094" y="200.964618" transform="rotate(-0 27.871094 200.964618)">0.8</text>
     </g>
    </g>
    <g id="ytick_12">
     <g id="line2d_45">
      <g>
       <use xlink:href="#ma6cf04aef4" x="34.371094" y="176.438174" style="stroke: #000000; stroke-width: 0.8"/>
      </g>
     </g>
     <g id="text_32">
      <text style="font-size: 7px; font-family: 'PingFang SC', 'Heiti SC', 'STHeiti', 'Arial Unicode MS', 'Arial', 'Helvetica', 'DejaVu Sans', sans-serif; text-anchor: end" x="27.871094" y="179.223955" transform="rotate(-0 27.871094 179.223955)">1.0</text>
     </g>
    </g>
   </g>
   <g id="line2d_46">
    <path d="M 56.423942 223.724115 
L 60.879063 218.832466 
L 65.334183 218.832466 
L 69.789304 218.832466 
L 74.244425 219.919499 
L 78.699546 221.006532 
L 83.154667 221.006532 
L 87.609788 220.463015 
L 92.064908 221.550049 
L 96.520029 224.267631 
L 100.97515 223.180598 
L 105.430271 223.180598 
L 109.885392 222.637082 
L 114.340512 222.637082 
L 118.795633 222.637082 
L 123.250754 224.267631 
L 127.705875 223.724115 
L 132.160996 223.180598 
L 136.616117 223.180598 
L 141.071237 222.637082 
L 145.526358 222.637082 
L 149.981479 222.637082 
L 154.4366 223.724115 
L 158.891721 223.724115 
L 163.346842 223.724115 
L 167.801962 223.724115 
L 172.257083 223.724115 
L 176.712204 223.724115 
L 181.167325 223.724115 
L 185.622446 223.724115 
L 190.077566 223.724115 
L 194.532687 223.724115 
L 198.987808 223.724115 
L 203.442929 223.724115 
L 207.89805 223.724115 
L 212.353171 223.724115 
L 216.808291 223.724115 
L 221.263412 223.724115 
L 225.718533 225.354665 
L 230.173654 224.811148 
L 234.628775 224.811148 
L 239.083896 224.811148 
L 243.539016 224.811148 
L 247.994137 224.811148 
L 252.449258 224.811148 
L 256.904379 224.811148 
L 261.3595 225.898181 
L 265.81462 225.898181 
L 270.269741 225.898181 
L 274.724862 225.898181 
L 279.179983 225.898181 
L 283.635104 225.898181 
L 288.090225 225.898181 
L 292.545345 225.898181 
L 297.000466 225.898181 
L 301.455587 225.898181 
L 305.910708 225.898181 
L 310.365829 225.898181 
L 314.820949 225.898181 
L 319.27607 226.985214 
L 323.731191 226.985214 
L 328.186312 226.985214 
L 332.641433 228.615764 
L 337.096554 228.615764 
L 341.551674 228.615764 
L 346.006795 228.615764 
L 350.461916 228.615764 
L 354.917037 229.702797 
L 359.372158 229.702797 
L 363.827279 229.702797 
L 368.282399 229.702797 
L 372.73752 229.702797 
L 377.192641 229.702797 
L 381.647762 232.963896 
L 386.102883 232.963896 
L 390.558003 232.963896 
L 395.013124 241.660162 
L 399.468245 248.18236 
L 403.923366 249.269393 
L 408.378487 252.530493 
L 412.833608 252.530493 
L 417.288728 257.965658 
L 421.743849 263.400824 
L 426.19897 263.400824 
L 430.654091 274.271155 
L 435.109212 274.271155 
L 439.564332 274.271155 
L 444.019453 276.445222 
L 448.474574 277.532255 
L 452.929695 279.706321 
L 457.384816 279.706321 
L 461.839937 279.706321 
L 466.295057 278.619288 
L 470.750178 281.880387 
L 475.205299 281.880387 
L 479.66042 281.880387 
L 484.115541 281.880387 
L 488.570662 282.423904 
L 493.025782 282.96742 
L 497.480903 282.96742 
" clip-path="url(#pd03f3f2607)" style="fill: none; stroke: #b64342; stroke-opacity: 0.55; stroke-width: 0.7; stroke-linecap: square"/>
   </g>
   <g id="line2d_47">
    <path d="M 56.423942 223.724115 
L 60.879063 221.550049 
L 65.334183 221.550049 
L 69.789304 222.093565 
L 74.244425 224.267631 
L 78.699546 222.637082 
L 83.154667 222.093565 
L 87.609788 223.724115 
L 92.064908 225.354665 
L 96.520029 224.811148 
L 100.97515 224.811148 
L 105.430271 223.724115 
L 109.885392 223.724115 
L 114.340512 224.811148 
L 118.795633 224.811148 
L 123.250754 225.898181 
L 127.705875 226.985214 
L 132.160996 226.985214 
L 136.616117 226.985214 
L 141.071237 226.985214 
L 145.526358 226.985214 
L 149.981479 226.985214 
L 154.4366 226.985214 
L 158.891721 226.985214 
L 163.346842 226.985214 
L 167.801962 226.985214 
L 172.257083 226.985214 
L 176.712204 226.985214 
L 181.167325 226.985214 
L 185.622446 226.985214 
L 190.077566 226.985214 
L 194.532687 226.985214 
L 198.987808 226.985214 
L 203.442929 226.985214 
L 207.89805 226.985214 
L 212.353171 226.985214 
L 216.808291 226.985214 
L 221.263412 226.985214 
L 225.718533 226.985214 
L 230.173654 226.985214 
L 234.628775 226.985214 
L 239.083896 226.985214 
L 243.539016 226.985214 
L 247.994137 226.985214 
L 252.449258 226.985214 
L 256.904379 226.985214 
L 261.3595 226.985214 
L 265.81462 226.985214 
L 270.269741 226.985214 
L 274.724862 226.985214 
L 279.179983 226.985214 
L 283.635104 226.985214 
L 288.090225 226.985214 
L 292.545345 226.985214 
L 297.000466 226.985214 
L 301.455587 226.985214 
L 305.910708 226.985214 
L 310.365829 226.985214 
L 314.820949 226.985214 
L 319.27607 226.985214 
L 323.731191 226.985214 
L 328.186312 226.985214 
L 332.641433 226.985214 
L 337.096554 226.985214 
L 341.551674 226.985214 
L 346.006795 226.985214 
L 350.461916 226.985214 
L 354.917037 226.985214 
L 359.372158 226.985214 
L 363.827279 226.985214 
L 368.282399 226.985214 
L 372.73752 226.985214 
L 377.192641 228.072247 
L 381.647762 228.072247 
L 386.102883 228.072247 
L 390.558003 228.072247 
L 395.013124 228.072247 
L 399.468245 229.159281 
L 403.923366 229.159281 
L 408.378487 229.702797 
L 412.833608 229.702797 
L 417.288728 229.702797 
L 421.743849 226.441698 
L 426.19897 226.441698 
L 430.654091 226.441698 
L 435.109212 226.441698 
L 439.564332 231.876863 
L 444.019453 231.876863 
L 448.474574 231.876863 
L 452.929695 241.660162 
L 457.384816 241.660162 
L 461.839937 274.271155 
L 466.295057 274.271155 
L 470.750178 274.271155 
L 475.205299 280.793354 
L 479.66042 280.793354 
L 484.115541 280.793354 
L 488.570662 280.793354 
L 493.025782 280.793354 
L 497.480903 280.793354 
" clip-path="url(#pd03f3f2607)" style="fill: none; stroke: #b64342; stroke-opacity: 0.55; stroke-width: 0.7; stroke-linecap: square"/>
   </g>
   <g id="line2d_48">
    <path d="M 56.423942 223.724115 
L 60.879063 222.637082 
L 65.334183 222.093565 
L 69.789304 221.550049 
L 74.244425 221.550049 
L 78.699546 221.550049 
L 83.154667 221.550049 
L 87.609788 221.550049 
L 92.064908 223.180598 
L 96.520029 222.637082 
L 100.97515 222.637082 
L 105.430271 222.637082 
L 109.885392 222.637082 
L 114.340512 222.637082 
L 118.795633 222.637082 
L 123.250754 222.637082 
L 127.705875 222.637082 
L 132.160996 222.637082 
L 136.616117 222.637082 
L 141.071237 221.550049 
L 145.526358 221.550049 
L 149.981479 221.550049 
L 154.4366 221.550049 
L 158.891721 221.550049 
L 163.346842 221.550049 
L 167.801962 221.550049 
L 172.257083 220.463015 
L 176.712204 221.550049 
L 181.167325 221.550049 
L 185.622446 220.463015 
L 190.077566 220.463015 
L 194.532687 220.463015 
L 198.987808 220.463015 
L 203.442929 220.463015 
L 207.89805 220.463015 
L 212.353171 220.463015 
L 216.808291 220.463015 
L 221.263412 220.463015 
L 225.718533 220.463015 
L 230.173654 220.463015 
L 234.628775 220.463015 
L 239.083896 220.463015 
L 243.539016 220.463015 
L 247.994137 220.463015 
L 252.449258 220.463015 
L 256.904379 220.463015 
L 261.3595 220.463015 
L 265.81462 220.463015 
L 270.269741 220.463015 
L 274.724862 220.463015 
L 279.179983 220.463015 
L 283.635104 220.463015 
L 288.090225 220.463015 
L 292.545345 220.463015 
L 297.000466 220.463015 
L 301.455587 220.463015 
L 305.910708 220.463015 
L 310.365829 220.463015 
L 314.820949 220.463015 
L 319.27607 220.463015 
L 323.731191 220.463015 
L 328.186312 220.463015 
L 332.641433 220.463015 
L 337.096554 220.463015 
L 341.551674 220.463015 
L 346.006795 220.463015 
L 350.461916 220.463015 
L 354.917037 220.463015 
L 359.372158 222.093565 
L 363.827279 222.093565 
L 368.282399 222.637082 
L 372.73752 222.637082 
L 377.192641 222.637082 
L 381.647762 222.637082 
L 386.102883 222.637082 
L 390.558003 222.637082 
L 395.013124 222.637082 
L 399.468245 222.637082 
L 403.923366 222.637082 
L 408.378487 222.637082 
L 412.833608 222.637082 
L 417.288728 222.637082 
L 421.743849 223.180598 
L 426.19897 223.724115 
L 430.654091 223.724115 
L 435.109212 224.811148 
L 439.564332 225.354665 
L 444.019453 228.072247 
L 448.474574 225.354665 
L 452.929695 228.615764 
L 457.384816 228.615764 
L 461.839937 228.615764 
L 466.295057 228.615764 
L 470.750178 228.615764 
L 475.205299 228.615764 
L 479.66042 228.615764 
L 484.115541 228.615764 
L 488.570662 228.615764 
L 493.025782 228.615764 
L 497.480903 228.615764 
" clip-path="url(#pd03f3f2607)" style="fill: none; stroke: #b64342; stroke-opacity: 0.55; stroke-width: 0.7; stroke-linecap: square"/>
   </g>
   <g id="line2d_49">
    <path d="M 56.423942 223.724115 
L 105.430271 222.637082 
L 154.4366 222.093565 
L 203.442929 221.550049 
L 252.449258 221.550049 
L 301.455587 220.463015 
L 350.461916 219.919499 
L 399.468245 219.375982 
L 448.474574 219.375982 
L 497.480903 218.832466 
" clip-path="url(#pd03f3f2607)" style="fill: none; stroke: #0f4d92; stroke-opacity: 0.55; stroke-width: 0.7; stroke-linecap: square"/>
   </g>
   <g id="line2d_50">
    <path d="M 56.423942 223.724115 
L 105.430271 221.550049 
L 154.4366 228.615764 
L 203.442929 223.724115 
L 252.449258 223.180598 
L 301.455587 222.637082 
L 350.461916 221.550049 
L 399.468245 220.463015 
L 448.474574 220.463015 
L 497.480903 220.463015 
" clip-path="url(#pd03f3f2607)" style="fill: none; stroke: #0f4d92; stroke-opacity: 0.55; stroke-width: 0.7; stroke-linecap: square"/>
   </g>
   <g id="line2d_51">
    <path d="M 56.423942 223.724115 
L 105.430271 222.093565 
L 154.4366 224.267631 
L 203.442929 224.811148 
L 252.449258 224.267631 
L 301.455587 224.267631 
L 350.461916 224.811148 
L 399.468245 224.811148 
L 448.474574 225.898181 
L 497.480903 225.898181 
" clip-path="url(#pd03f3f2607)" style="fill: none; stroke: #0f4d92; stroke-opacity: 0.55; stroke-width: 0.7; stroke-linecap: square"/>
   </g>
   <g id="line2d_52">
    <path d="M 56.423942 223.724115 
L 79.637466 222.093565 
L 102.85099 222.093565 
L 126.064515 224.811148 
L 149.278039 223.724115 
L 172.491563 223.724115 
L 195.705088 224.811148 
L 218.918612 224.811148 
L 242.132136 224.811148 
L 265.34566 224.811148 
L 288.559185 224.811148 
L 311.772709 224.811148 
L 334.986233 224.811148 
L 358.199757 225.898181 
L 381.413282 225.898181 
L 404.626806 226.985214 
L 427.84033 228.072247 
L 451.053855 228.072247 
L 474.267379 228.615764 
L 497.480903 228.615764 
" clip-path="url(#pd03f3f2607)" style="fill: none; stroke: #8bcf8b; stroke-opacity: 0.55; stroke-width: 0.7; stroke-linecap: square"/>
   </g>
   <g id="line2d_53">
    <path d="M 56.423942 223.724115 
L 79.637466 222.093565 
L 102.85099 223.724115 
L 126.064515 223.724115 
L 149.278039 223.724115 
L 172.491563 224.811148 
L 195.705088 224.811148 
L 218.918612 224.811148 
L 242.132136 224.811148 
L 265.34566 224.811148 
L 288.559185 224.811148 
L 311.772709 224.811148 
L 334.986233 224.811148 
L 358.199757 224.811148 
L 381.413282 224.811148 
L 404.626806 224.811148 
L 427.84033 224.811148 
L 451.053855 224.811148 
L 474.267379 228.615764 
L 497.480903 228.615764 
" clip-path="url(#pd03f3f2607)" style="fill: none; stroke: #8bcf8b; stroke-opacity: 0.55; stroke-width: 0.7; stroke-linecap: square"/>
   </g>
   <g id="line2d_54">
    <path d="M 56.423942 221.550049 
L 79.637466 220.463015 
L 102.85099 220.463015 
L 126.064515 220.463015 
L 149.278039 220.463015 
L 172.491563 220.463015 
L 195.705088 220.463015 
L 218.918612 220.463015 
L 242.132136 220.463015 
L 265.34566 220.463015 
L 288.559185 220.463015 
L 311.772709 221.550049 
L 334.986233 220.463015 
L 358.199757 220.463015 
L 381.413282 220.463015 
L 404.626806 220.463015 
L 427.84033 220.463015 
L 451.053855 220.463015 
L 474.267379 220.463015 
L 497.480903 220.463015 
" clip-path="url(#pd03f3f2607)" style="fill: none; stroke: #8bcf8b; stroke-opacity: 0.55; stroke-width: 0.7; stroke-linecap: square"/>
   </g>
   <g id="line2d_55">
    <path d="M 56.423942 223.724115 
L 65.425104 222.093565 
L 74.426267 224.267631 
L 83.427429 223.724115 
L 92.428592 223.724115 
L 101.429754 223.724115 
L 110.430917 223.724115 
L 119.432079 223.724115 
L 128.433242 223.724115 
L 137.434404 223.724115 
L 146.435567 223.724115 
L 155.436729 223.724115 
L 164.437892 223.724115 
L 173.439054 223.724115 
L 182.440216 222.093565 
L 191.441379 221.550049 
L 200.442541 222.637082 
L 209.443704 222.637082 
L 218.444866 222.637082 
L 227.446029 222.637082 
L 236.447191 222.637082 
L 245.448354 222.637082 
L 254.449516 222.637082 
L 263.450679 222.637082 
L 272.451841 222.637082 
L 281.453004 222.637082 
L 290.454166 222.637082 
L 299.455329 222.637082 
L 308.456491 222.637082 
L 317.457654 222.637082 
L 326.458816 222.637082 
L 335.459979 222.637082 
L 344.461141 222.637082 
L 353.462304 222.637082 
L 362.463466 222.637082 
L 371.464628 222.637082 
L 380.465791 223.180598 
L 389.466953 223.180598 
L 398.468116 223.180598 
L 407.469278 223.180598 
L 416.470441 221.550049 
L 425.471603 223.180598 
L 434.472766 223.180598 
L 443.473928 223.724115 
L 452.475091 223.180598 
L 461.476253 223.724115 
L 470.477416 224.811148 
L 479.478578 225.354665 
L 488.479741 228.615764 
L 497.480903 228.615764 
" clip-path="url(#pd03f3f2607)" style="fill: none; stroke: #4d4d4d; stroke-opacity: 0.55; stroke-width: 0.7; stroke-linecap: square"/>
   </g>
   <g id="line2d_56">
    <path d="M 56.423942 223.724115 
L 65.425104 222.093565 
L 74.426267 222.093565 
L 83.427429 221.550049 
L 92.428592 221.550049 
L 101.429754 223.724115 
L 110.430917 225.898181 
L 119.432079 225.898181 
L 128.433242 225.898181 
L 137.434404 225.898181 
L 146.435567 226.985214 
L 155.436729 226.985214 
L 164.437892 226.985214 
L 173.439054 226.985214 
L 182.440216 226.985214 
L 191.441379 225.898181 
L 200.442541 225.898181 
L 209.443704 225.898181 
L 218.444866 225.898181 
L 227.446029 225.898181 
L 236.447191 225.898181 
L 245.448354 225.898181 
L 254.449516 225.898181 
L 263.450679 225.898181 
L 272.451841 225.898181 
L 281.453004 225.898181 
L 290.454166 225.898181 
L 299.455329 226.985214 
L 308.456491 226.985214 
L 317.457654 226.985214 
L 326.458816 226.985214 
L 335.459979 226.985214 
L 344.461141 226.985214 
L 353.462304 226.985214 
L 362.463466 226.985214 
L 371.464628 226.985214 
L 380.465791 226.441698 
L 389.466953 226.441698 
L 398.468116 226.441698 
L 407.469278 226.441698 
L 416.470441 228.615764 
L 425.471603 228.615764 
L 434.472766 228.615764 
L 443.473928 228.615764 
L 452.475091 232.963896 
L 461.476253 232.963896 
L 470.477416 232.963896 
L 479.478578 232.963896 
L 488.479741 232.963896 
L 497.480903 275.358189 
" clip-path="url(#pd03f3f2607)" style="fill: none; stroke: #4d4d4d; stroke-opacity: 0.55; stroke-width: 0.7; stroke-linecap: square"/>
   </g>
   <g id="line2d_57">
    <path d="M 56.423942 223.724115 
L 65.425104 221.550049 
L 74.426267 221.550049 
L 83.427429 221.550049 
L 92.428592 221.550049 
L 101.429754 221.550049 
L 110.430917 221.550049 
L 119.432079 221.550049 
L 128.433242 221.550049 
L 137.434404 221.550049 
L 146.435567 221.550049 
L 155.436729 221.550049 
L 164.437892 221.550049 
L 173.439054 221.550049 
L 182.440216 221.550049 
L 191.441379 221.550049 
L 200.442541 221.550049 
L 209.443704 221.550049 
L 218.444866 221.550049 
L 227.446029 221.550049 
L 236.447191 221.550049 
L 245.448354 221.550049 
L 254.449516 221.550049 
L 263.450679 221.550049 
L 272.451841 221.550049 
L 281.453004 221.550049 
L 290.454166 221.550049 
L 299.455329 221.550049 
L 308.456491 221.550049 
L 317.457654 222.637082 
L 326.458816 222.637082 
L 335.459979 222.637082 
L 344.461141 222.637082 
L 353.462304 222.637082 
L 362.463466 222.637082 
L 371.464628 222.637082 
L 380.465791 224.811148 
L 389.466953 225.898181 
L 398.468116 225.898181 
L 407.469278 225.898181 
L 416.470441 225.898181 
L 425.471603 225.354665 
L 434.472766 228.615764 
L 443.473928 228.615764 
L 452.475091 231.876863 
L 461.476253 231.876863 
L 470.477416 231.876863 
L 479.478578 231.876863 
L 488.479741 231.876863 
L 497.480903 231.876863 
" clip-path="url(#pd03f3f2607)" style="fill: none; stroke: #4d4d4d; stroke-opacity: 0.55; stroke-width: 0.7; stroke-linecap: square"/>
   </g>
   <g id="line2d_58">
    <path d="M 34.371094 285.141487 
L 519.533751 285.141487 
" clip-path="url(#pd03f3f2607)" style="fill: none; stroke-dasharray: 2.96,1.28; stroke-dashoffset: 0; stroke: #b64342; stroke-width: 0.8"/>
   </g>
   <g id="line2d_59"/>
   <g id="line2d_60"/>
   <g id="line2d_61"/>
   <g id="line2d_62"/>
   <g id="patch_6">
    <path d="M 34.371094 288.402586 
L 34.371094 173.177074 
" style="fill: none; stroke: #000000; stroke-width: 0.8; stroke-linejoin: miter; stroke-linecap: square"/>
   </g>
   <g id="patch_7">
    <path d="M 34.371094 288.402586 
L 519.533751 288.402586 
" style="fill: none; stroke: #000000; stroke-width: 0.8; stroke-linejoin: miter; stroke-linecap: square"/>
   </g>
   <g id="text_33">
    <text style="font-size: 7px; font-family: 'PingFang SC', 'Heiti SC', 'STHeiti', 'Arial Unicode MS', 'Arial', 'Helvetica', 'DejaVu Sans', sans-serif; text-anchor: middle; fill: #4d4d4d" x="276.952422" y="167.177074" transform="rotate(-0 276.952422 167.177074)">基底市场：Ethereum</text>
   </g>
   <g id="legend_2">
    <g id="line2d_63">
     <path d="M 484.690626 180.652699 
L 489.490626 180.652699 
L 494.290626 180.652699 
" style="fill: none; stroke: #0f4d92; stroke-linecap: square"/>
    </g>
    <g id="text_34">
     <text style="font-size: 6px; font-family: 'PingFang SC', 'Heiti SC', 'STHeiti', 'Arial Unicode MS', 'Arial', 'Helvetica', 'DejaVu Sans', sans-serif; text-anchor: start" x="499.090626" y="182.752699" transform="rotate(-0 499.090626 182.752699)">t=10</text>
    </g>
    <g id="line2d_64">
     <path d="M 484.690626 189.232699 
L 489.490626 189.232699 
L 494.290626 189.232699 
" style="fill: none; stroke: #8bcf8b; stroke-linecap: square"/>
    </g>
    <g id="text_35">
     <text style="font-size: 6px; font-family: 'PingFang SC', 'Heiti SC', 'STHeiti', 'Arial Unicode MS', 'Arial', 'Helvetica', 'DejaVu Sans', sans-serif; text-anchor: start" x="499.090626" y="191.332699" transform="rotate(-0 499.090626 191.332699)">t=20</text>
    </g>
    <g id="line2d_65">
     <path d="M 484.690626 197.812699 
L 489.490626 197.812699 
L 494.290626 197.812699 
" style="fill: none; stroke: #4d4d4d; stroke-linecap: square"/>
    </g>
    <g id="text_36">
     <text style="font-size: 6px; font-family: 'PingFang SC', 'Heiti SC', 'STHeiti', 'Arial Unicode MS', 'Arial', 'Helvetica', 'DejaVu Sans', sans-serif; text-anchor: start" x="499.090626" y="199.912699" transform="rotate(-0 499.090626 199.912699)">t=50</text>
    </g>
    <g id="line2d_66">
     <path d="M 484.690626 206.392699 
L 489.490626 206.392699 
L 494.290626 206.392699 
" style="fill: none; stroke: #b64342; stroke-linecap: square"/>
    </g>
    <g id="text_37">
     <text style="font-size: 6px; font-family: 'PingFang SC', 'Heiti SC', 'STHeiti', 'Arial Unicode MS', 'Arial', 'Helvetica', 'DejaVu Sans', sans-serif; text-anchor: start" x="499.090626" y="208.492699" transform="rotate(-0 499.090626 208.492699)">t=100</text>
    </g>
   </g>
  </g>
 </g>
 <defs>
  <clipPath id="p4f80f8769c">
   <rect x="34.371094" y="18.771563" width="485.162657" height="115.225512"/>
  </clipPath>
  <clipPath id="pd03f3f2607">
   <rect x="34.371094" y="173.177074" width="485.162657" height="115.225512"/>
  </clipPath>
 </defs>
</svg>
