<?xml version="1.0" encoding="utf-8" standalone="no"?>
<!DOCTYPE svg PUBLIC "-//W3C//DTD SVG 1.1//EN"
  "http://www.w3.org/Graphics/SVG/1.1/DTD/svg11.dtd">
<svg xmlns:xlink="http://www.w3.org/1999/xlink" width="526.859845pt" height="337.865776pt" viewBox="0 0 526.859845 337.865776" xmlns="http://www.w3.org/2000/svg" version="1.1">
 <metadata>
  <rdf:RDF xmlns:dc="http://purl.org/dc/elements/1.1/" xmlns:cc="http://creativecommons.org/ns#" xmlns:rdf="http://www.w3.org/1999/02/22-rdf-syntax-ns#">
   <cc:Work>
    <dc:type rdf:resource="http://purl.org/dc/dcmitype/StillImage"/>
    <dc:date>2026-05-23T23:51:49.656099</dc:date>
    <dc:format>image/svg+xml</dc:format>
    <dc:creator>
     <cc:Agent>
      <dc:title>Matplotlib v3.10.9, https://matplotlib.org/</dc:title>
     </cc:Agent>
    </dc:creator>
   </cc:Work>
  </rdf:RDF>
 </metadata>
 <defs>
  <style type="text/css">*{stroke-linejoin: round; stroke-linecap: butt}</style>
 </defs>
 <g id="figure_1">
  <g id="patch_1">
   <path d="M 0 337.865776 
L 526.859845 337.865776 
L 526.859845 0 
L 0 0 
z
" style="fill: #ffffff"/>
  </g>
  <g id="axes_1">
   <g id="patch_2">
    <path d="M 86.70125 143.700312 
L 515.781407 143.700312 
L 515.781407 21.671443 
L 86.70125 21.671443 
z
" style="fill: #ffffff"/>
   </g>
   <g id="matplotlib.axis_1">
    <g id="xtick_1">
     <g id="line2d_1">
      <defs>
       <path id="m3461da8c77" d="M 0 0 
L 0 3 
" style="stroke: #000000; stroke-width: 0.8"/>
      </defs>
      <g>
       <use xlink:href="#m3461da8c77" x="106.204894" y="143.700312" style="stroke: #000000; stroke-width: 0.8"/>
      </g>
     </g>
     <g id="text_1">
      <text style="font-size: 7px; font-family: 'PingFang SC', 'Heiti SC', 'STHeiti', 'Arial Unicode MS', 'Arial', 'Helvetica', 'DejaVu Sans', sans-serif; text-anchor: middle" x="106.204894" y="155.771874" transform="rotate(-0 106.204894 155.771874)">0.0</text>
     </g>
    </g>
    <g id="xtick_2">
     <g id="line2d_2">
      <g>
       <use xlink:href="#m3461da8c77" x="184.219468" y="143.700312" style="stroke: #000000; stroke-width: 0.8"/>
      </g>
     </g>
     <g id="text_2">
      <text style="font-size: 7px; font-family: 'PingFang SC', 'Heiti SC', 'STHeiti', 'Arial Unicode MS', 'Arial', 'Helvetica', 'DejaVu Sans', sans-serif; text-anchor: middle" x="184.219468" y="155.771874" transform="rotate(-0 184.219468 155.771874)">0.2</text>
     </g>
    </g>
    <g id="xtick_3">
     <g id="line2d_3">
      <g>
       <use xlink:href="#m3461da8c77" x="262.234042" y="143.700312" style="stroke: #000000; stroke-width: 0.8"/>
      </g>
     </g>
     <g id="text_3">
      <text style="font-size: 7px; font-family: 'PingFang SC', 'Heiti SC', 'STHeiti', 'Arial Unicode MS', 'Arial', 'Helvetica', 'DejaVu Sans', sans-serif; text-anchor: middle" x="262.234042" y="155.771874" transform="rotate(-0 262.234042 155.771874)">0.4</text>
     </g>
    </g>
    <g id="xtick_4">
     <g id="line2d_4">
      <g>
       <use xlink:href="#m3461da8c77" x="340.248616" y="143.700312" style="stroke: #000000; stroke-width: 0.8"/>
      </g>
     </g>
     <g id="text_4">
      <text style="font-size: 7px; font-family: 'PingFang SC', 'Heiti SC', 'STHeiti', 'Arial Unicode MS', 'Arial', 'Helvetica', 'DejaVu Sans', sans-serif; text-anchor: middle" x="340.248616" y="155.771874" transform="rotate(-0 340.248616 155.771874)">0.6</text>
     </g>
    </g>
    <g id="xtick_5">
     <g id="line2d_5">
      <g>
       <use xlink:href="#m3461da8c77" x="418.26319" y="143.700312" style="stroke: #000000; stroke-width: 0.8"/>
      </g>
     </g>
     <g id="text_5">
      <text style="font-size: 7px; font-family: 'PingFang SC', 'Heiti SC', 'STHeiti', 'Arial Unicode MS', 'Arial', 'Helvetica', 'DejaVu Sans', sans-serif; text-anchor: middle" x="418.26319" y="155.771874" transform="rotate(-0 418.26319 155.771874)">0.8</text>
     </g>
    </g>
    <g id="xtick_6">
     <g id="line2d_6">
      <g>
       <use xlink:href="#m3461da8c77" x="496.277764" y="143.700312" style="stroke: #000000; stroke-width: 0.8"/>
      </g>
     </g>
     <g id="text_6">
      <text style="font-size: 7px; font-family: 'PingFang SC', 'Heiti SC', 'STHeiti', 'Arial Unicode MS', 'Arial', 'Helvetica', 'DejaVu Sans', sans-serif; text-anchor: middle" x="496.277764" y="155.771874" transform="rotate(-0 496.277764 155.771874)">1.0</text>
     </g>
    </g>
    <g id="text_7">
     <text style="font-size: 7.5px; font-family: 'PingFang SC', 'Heiti SC', 'STHeiti', 'Arial Unicode MS', 'Arial', 'Helvetica', 'DejaVu Sans', sans-serif; text-anchor: middle" x="301.241329" y="166.679843" transform="rotate(-0 301.241329 166.679843)">模拟进度</text>
    </g>
   </g>
   <g id="matplotlib.axis_2">
    <g id="ytick_1">
     <g id="line2d_7">
      <defs>
       <path id="m16cbbffd78" d="M 0 0 
L -3 0 
" style="stroke: #000000; stroke-width: 0.8"/>
      </defs>
      <g>
       <use xlink:href="#m16cbbffd78" x="86.70125" y="140.246664" style="stroke: #000000; stroke-width: 0.8"/>
      </g>
     </g>
     <g id="text_8">
      <text style="font-size: 7px; font-family: 'PingFang SC', 'Heiti SC', 'STHeiti', 'Arial Unicode MS', 'Arial', 'Helvetica', 'DejaVu Sans', sans-serif; text-anchor: end" x="80.20125" y="143.032446" transform="rotate(-0 80.20125 143.032446)">0.0</text>
     </g>
    </g>
    <g id="ytick_2">
     <g id="line2d_8">
      <g>
       <use xlink:href="#m16cbbffd78" x="86.70125" y="117.22235" style="stroke: #000000; stroke-width: 0.8"/>
      </g>
     </g>
     <g id="text_9">
      <text style="font-size: 7px; font-family: 'PingFang SC', 'Heiti SC', 'STHeiti', 'Arial Unicode MS', 'Arial', 'Helvetica', 'DejaVu Sans', sans-serif; text-anchor: end" x="80.20125" y="120.008131" transform="rotate(-0 80.20125 120.008131)">0.2</text>
     </g>
    </g>
    <g id="ytick_3">
     <g id="line2d_9">
      <g>
       <use xlink:href="#m16cbbffd78" x="86.70125" y="94.198035" style="stroke: #000000; stroke-width: 0.8"/>
      </g>
     </g>
     <g id="text_10">
      <text style="font-size: 7px; font-family: 'PingFang SC', 'Heiti SC', 'STHeiti', 'Arial Unicode MS', 'Arial', 'Helvetica', 'DejaVu Sans', sans-serif; text-anchor: end" x="80.20125" y="96.983816" transform="rotate(-0 80.20125 96.983816)">0.4</text>
     </g>
    </g>
    <g id="ytick_4">
     <g id="line2d_10">
      <g>
       <use xlink:href="#m16cbbffd78" x="86.70125" y="71.17372" style="stroke: #000000; stroke-width: 0.8"/>
      </g>
     </g>
     <g id="text_11">
      <text style="font-size: 7px; font-family: 'PingFang SC', 'Heiti SC', 'STHeiti', 'Arial Unicode MS', 'Arial', 'Helvetica', 'DejaVu Sans', sans-serif; text-anchor: end" x="80.20125" y="73.959501" transform="rotate(-0 80.20125 73.959501)">0.6</text>
     </g>
    </g>
    <g id="ytick_5">
     <g id="line2d_11">
      <g>
       <use xlink:href="#m16cbbffd78" x="86.70125" y="48.149405" style="stroke: #000000; stroke-width: 0.8"/>
      </g>
     </g>
     <g id="text_12">
      <text style="font-size: 7px; font-family: 'PingFang SC', 'Heiti SC', 'STHeiti', 'Arial Unicode MS', 'Arial', 'Helvetica', 'DejaVu Sans', sans-serif; text-anchor: end" x="80.20125" y="50.935187" transform="rotate(-0 80.20125 50.935187)">0.8</text>
     </g>
    </g>
    <g id="ytick_6">
     <g id="line2d_12">
      <g>
       <use xlink:href="#m16cbbffd78" x="86.70125" y="25.125091" style="stroke: #000000; stroke-width: 0.8"/>
      </g>
     </g>
     <g id="text_13">
      <text style="font-size: 7px; font-family: 'PingFang SC', 'Heiti SC', 'STHeiti', 'Arial Unicode MS', 'Arial', 'Helvetica', 'DejaVu Sans', sans-serif; text-anchor: end" x="80.20125" y="27.910872" transform="rotate(-0 80.20125 27.910872)">1.0</text>
     </g>
    </g>
    <g id="text_14">
     <text style="font-size: 7.5px; font-family: 'PingFang SC', 'Heiti SC', 'STHeiti', 'Arial Unicode MS', 'Arial', 'Helvetica', 'DejaVu Sans', sans-serif; text-anchor: middle" x="65.499687" y="82.685877" transform="rotate(-90 65.499687 82.685877)">YES 中间价（种子均值）</text>
    </g>
   </g>
   <g id="line2d_13">
    <path d="M 106.204894 66.568857 
L 126.735045 63.11521 
L 147.265196 62.731471 
L 167.795347 62.155863 
L 188.325498 62.347733 
L 208.855649 62.731471 
L 229.3858 62.155863 
L 249.915951 62.731471 
L 270.446102 63.498949 
L 290.976253 63.11521 
L 311.506404 63.498949 
L 332.036555 63.690818 
L 352.566706 64.266426 
L 373.096858 65.417641 
L 393.627009 65.033903 
L 414.15716 65.80138 
L 434.687311 66.376988 
L 455.217462 66.185119 
L 475.747613 66.185119 
L 496.277764 66.185119 
" clip-path="url(#p7265b46c19)" style="fill: none; stroke: #8bcf8b; stroke-opacity: 0.7; stroke-width: 0.9; stroke-linecap: square"/>
   </g>
   <g id="line2d_14">
    <path d="M 106.204894 82.685877 
L 126.735045 85.947655 
L 147.265196 94.389904 
L 167.795347 99.954114 
L 188.325498 100.529721 
L 208.855649 108.204493 
L 229.3858 107.628885 
L 249.915951 107.437016 
L 270.446102 100.529721 
L 290.976253 108.780101 
L 311.506404 107.820754 
L 332.036555 108.204493 
L 352.566706 108.780101 
L 373.096858 109.547578 
L 393.627009 109.355709 
L 414.15716 111.65814 
L 434.687311 101.680937 
L 455.217462 101.680937 
L 475.747613 112.617487 
L 496.277764 113.001225 
" clip-path="url(#p7265b46c19)" style="fill: none; stroke: #8bcf8b; stroke-opacity: 0.7; stroke-width: 0.9; stroke-linecap: square"/>
   </g>
   <g id="line2d_15">
    <path d="M 106.204894 109.739447 
L 126.735045 108.97197 
L 147.265196 107.437016 
L 167.795347 108.204493 
L 188.325498 107.628885 
L 208.855649 107.245147 
L 229.3858 106.093931 
L 249.915951 106.093931 
L 270.446102 106.669539 
L 290.976253 105.518323 
L 311.506404 105.326454 
L 332.036555 105.518323 
L 352.566706 104.942715 
L 373.096858 104.942715 
L 393.627009 104.558976 
L 414.15716 104.750846 
L 434.687311 104.750846 
L 455.217462 105.134584 
L 475.747613 105.134584 
L 496.277764 104.750846 
" clip-path="url(#p7265b46c19)" style="fill: none; stroke: #b64342; stroke-opacity: 0.7; stroke-width: 0.9; stroke-linecap: square"/>
   </g>
   <g id="line2d_16">
    <path d="M 106.204894 102.832153 
L 126.735045 99.954114 
L 147.265196 99.954114 
L 167.795347 99.186636 
L 188.325498 101.872806 
L 208.855649 101.297199 
L 229.3858 103.407761 
L 249.915951 102.832153 
L 270.446102 102.064676 
L 290.976253 102.256545 
L 311.506404 103.407761 
L 332.036555 102.448414 
L 352.566706 105.134584 
L 373.096858 103.024022 
L 393.627009 102.832153 
L 414.15716 103.407761 
L 434.687311 103.407761 
L 455.217462 103.59963 
L 475.747613 103.791499 
L 496.277764 104.175238 
" clip-path="url(#p7265b46c19)" style="fill: none; stroke: #b64342; stroke-opacity: 0.7; stroke-width: 0.9; stroke-linecap: square"/>
   </g>
   <g id="line2d_17">
    <path d="M 106.204894 112.617487 
L 126.735045 110.123186 
L 147.265196 109.547578 
L 167.795347 108.780101 
L 188.325498 108.588232 
L 208.855649 108.780101 
L 229.3858 108.396362 
L 249.915951 108.396362 
L 270.446102 108.396362 
L 290.976253 108.396362 
L 311.506404 108.396362 
L 332.036555 108.396362 
L 352.566706 108.012624 
L 373.096858 107.628885 
L 393.627009 107.053277 
L 414.15716 106.861408 
L 434.687311 106.861408 
L 455.217462 106.861408 
L 475.747613 107.628885 
L 496.277764 113.384964 
" clip-path="url(#p7265b46c19)" style="fill: none; stroke: #b64342; stroke-opacity: 0.7; stroke-width: 0.9; stroke-linecap: square"/>
   </g>
   <g id="line2d_18">
    <path d="M 106.204894 76.54606 
L 126.735045 74.051759 
L 147.265196 78.272884 
L 167.795347 75.011106 
L 188.325498 75.394844 
L 208.855649 75.202975 
L 229.3858 74.819237 
L 249.915951 74.627367 
L 270.446102 74.627367 
L 290.976253 77.697276 
L 311.506404 75.011106 
L 332.036555 75.011106 
L 352.566706 75.011106 
L 373.096858 75.011106 
L 393.627009 74.819237 
L 414.15716 74.435498 
L 434.687311 74.819237 
L 455.217462 74.627367 
L 475.747613 74.435498 
L 496.277764 74.819237 
" clip-path="url(#p7265b46c19)" style="fill: none; stroke: #8bcf8b; stroke-opacity: 0.7; stroke-width: 0.9; stroke-linecap: square"/>
   </g>
   <g id="line2d_19">
    <path d="M 106.204894 44.12015 
L 126.735045 41.242111 
L 147.265196 40.474634 
L 167.795347 41.62585 
L 188.325498 41.43398 
L 208.855649 45.463235 
L 229.3858 42.201457 
L 249.915951 41.43398 
L 270.446102 42.777065 
L 290.976253 42.777065 
L 311.506404 43.544542 
L 332.036555 43.544542 
L 352.566706 43.736412 
L 373.096858 43.928281 
L 393.627009 44.503889 
L 414.15716 44.695758 
L 434.687311 44.503889 
L 455.217462 44.503889 
L 475.747613 44.503889 
L 496.277764 44.503889 
" clip-path="url(#p7265b46c19)" style="fill: none; stroke: #b64342; stroke-opacity: 0.7; stroke-width: 0.9; stroke-linecap: square"/>
   </g>
   <g id="line2d_20">
    <path d="M 106.204894 56.783523 
L 126.735045 55.632308 
L 147.265196 55.248569 
L 167.795347 55.0567 
L 188.325498 56.591654 
L 208.855649 56.016046 
L 229.3858 54.289223 
L 249.915951 56.207916 
L 270.446102 55.248569 
L 290.976253 55.632308 
L 311.506404 55.632308 
L 332.036555 56.399785 
L 352.566706 56.399785 
L 373.096858 56.399785 
L 393.627009 55.824177 
L 414.15716 56.016046 
L 434.687311 56.016046 
L 455.217462 56.016046 
L 475.747613 56.591654 
L 496.277764 56.399785 
" clip-path="url(#p7265b46c19)" style="fill: none; stroke: #8bcf8b; stroke-opacity: 0.7; stroke-width: 0.9; stroke-linecap: square"/>
   </g>
   <g id="line2d_21">
    <path d="M 106.204894 79.615969 
L 126.735045 79.23223 
L 147.265196 78.272884 
L 167.795347 78.464753 
L 188.325498 79.040361 
L 208.855649 79.040361 
L 229.3858 80.383446 
L 249.915951 79.23223 
L 270.446102 79.615969 
L 290.976253 79.615969 
L 311.506404 79.615969 
L 332.036555 80.575315 
L 352.566706 79.615969 
L 373.096858 79.615969 
L 393.627009 79.615969 
L 414.15716 80.383446 
L 434.687311 79.999707 
L 455.217462 80.383446 
L 475.747613 80.767185 
L 496.277764 80.383446 
" clip-path="url(#p7265b46c19)" style="fill: none; stroke: #b64342; stroke-opacity: 0.7; stroke-width: 0.9; stroke-linecap: square"/>
   </g>
   <g id="line2d_22">
    <path d="M 106.204894 112.617487 
L 126.735045 112.233748 
L 147.265196 112.233748 
L 167.795347 111.65814 
L 188.325498 111.65814 
L 208.855649 111.65814 
L 229.3858 111.65814 
L 249.915951 111.65814 
L 270.446102 111.65814 
L 290.976253 111.65814 
L 311.506404 112.233748 
L 332.036555 112.041879 
L 352.566706 112.041879 
L 373.096858 112.041879 
L 393.627009 112.041879 
L 414.15716 112.041879 
L 434.687311 111.850009 
L 455.217462 111.850009 
L 475.747613 111.466271 
L 496.277764 112.809356 
" clip-path="url(#p7265b46c19)" style="fill: none; stroke: #b64342; stroke-opacity: 0.7; stroke-width: 0.9; stroke-linecap: square"/>
   </g>
   <g id="line2d_23"/>
   <g id="line2d_24"/>
   <g id="patch_3">
    <path d="M 86.70125 143.700312 
L 86.70125 21.671443 
" style="fill: none; stroke: #000000; stroke-width: 0.8; stroke-linejoin: miter; stroke-linecap: square"/>
   </g>
   <g id="patch_4">
    <path d="M 86.70125 143.700312 
L 515.781407 143.700312 
" style="fill: none; stroke: #000000; stroke-width: 0.8; stroke-linejoin: miter; stroke-linecap: square"/>
   </g>
   <g id="text_15">
    <text style="font-weight: 700; font-size: 9px; font-family: 'PingFang SC', 'Heiti SC', 'STHeiti', 'Arial Unicode MS', 'Arial', 'Helvetica', 'DejaVu Sans', sans-serif; text-anchor: start" x="18.048425" y="14.363437" transform="rotate(-0 18.048425 14.363437)">a</text>
   </g>
   <g id="legend_1">
    <g id="line2d_25">
     <path d="M 460.258282 30.393006 
L 465.858282 30.393006 
L 471.458282 30.393006 
" style="fill: none; stroke: #8bcf8b; stroke-linecap: square"/>
    </g>
    <g id="text_16">
     <text style="font-size: 7px; font-family: 'PingFang SC', 'Heiti SC', 'STHeiti', 'Arial Unicode MS', 'Arial', 'Helvetica', 'DejaVu Sans', sans-serif; text-anchor: start" x="477.058282" y="32.843006" transform="rotate(-0 477.058282 32.843006)">真值 = YES</text>
    </g>
    <g id="line2d_26">
     <path d="M 460.258282 40.403006 
L 465.858282 40.403006 
L 471.458282 40.403006 
" style="fill: none; stroke: #b64342; stroke-linecap: square"/>
    </g>
    <g id="text_17">
     <text style="font-size: 7px; font-family: 'PingFang SC', 'Heiti SC', 'STHeiti', 'Arial Unicode MS', 'Arial', 'Helvetica', 'DejaVu Sans', sans-serif; text-anchor: start" x="477.058282" y="42.853006" transform="rotate(-0 477.058282 42.853006)">真值 = NO</text>
    </g>
   </g>
  </g>
  <g id="axes_2">
   <g id="patch_5">
    <path d="M 86.70125 306.58351 
L 515.781407 306.58351 
L 515.781407 184.554642 
L 86.70125 184.554642 
z
" style="fill: #ffffff"/>
   </g>
   <g id="patch_6">
    <path d="M 86.70125 301.036744 
L 86.70125 301.036744 
L 86.70125 291.980798 
L 86.70125 291.980798 
z
" clip-path="url(#p5afb8a1b59)" style="fill: #b64342; stroke: #4d4d4d; stroke-width: 0.6; stroke-linejoin: miter"/>
   </g>
   <g id="patch_7">
    <path d="M 86.70125 289.716811 
L 291.025135 289.716811 
L 291.025135 280.660866 
L 86.70125 280.660866 
z
" clip-path="url(#p5afb8a1b59)" style="fill: #b64342; stroke: #4d4d4d; stroke-width: 0.6; stroke-linejoin: miter"/>
   </g>
   <g id="patch_8">
    <path d="M 86.70125 278.396879 
L 291.025135 278.396879 
L 291.025135 269.340934 
L 86.70125 269.340934 
z
" clip-path="url(#p5afb8a1b59)" style="fill: #b64342; stroke: #4d4d4d; stroke-width: 0.6; stroke-linejoin: miter"/>
   </g>
   <g id="patch_9">
    <path d="M 86.70125 267.076947 
L 291.025135 267.076947 
L 291.025135 258.021002 
L 86.70125 258.021002 
z
" clip-path="url(#p5afb8a1b59)" style="fill: #b64342; stroke: #4d4d4d; stroke-width: 0.6; stroke-linejoin: miter"/>
   </g>
   <g id="patch_10">
    <path d="M 86.70125 255.757015 
L 495.349019 255.757015 
L 495.349019 246.701069 
L 86.70125 246.701069 
z
" clip-path="url(#p5afb8a1b59)" style="fill: #b64342; stroke: #4d4d4d; stroke-width: 0.6; stroke-linejoin: miter"/>
   </g>
   <g id="patch_11">
    <path d="M 86.70125 244.437083 
L 495.349019 244.437083 
L 495.349019 235.381137 
L 86.70125 235.381137 
z
" clip-path="url(#p5afb8a1b59)" style="fill: #b64342; stroke: #4d4d4d; stroke-width: 0.6; stroke-linejoin: miter"/>
   </g>
   <g id="patch_12">
    <path d="M 86.70125 233.117151 
L 86.70125 233.117151 
L 86.70125 224.061205 
L 86.70125 224.061205 
z
" clip-path="url(#p5afb8a1b59)" style="fill: #8bcf8b; stroke: #4d4d4d; stroke-width: 0.6; stroke-linejoin: miter"/>
   </g>
   <g id="patch_13">
    <path d="M 86.70125 221.797219 
L 495.349019 221.797219 
L 495.349019 212.741273 
L 86.70125 212.741273 
z
" clip-path="url(#p5afb8a1b59)" style="fill: #8bcf8b; stroke: #4d4d4d; stroke-width: 0.6; stroke-linejoin: miter"/>
   </g>
   <g id="patch_14">
    <path d="M 86.70125 210.477287 
L 495.349019 210.477287 
L 495.349019 201.421341 
L 86.70125 201.421341 
z
" clip-path="url(#p5afb8a1b59)" style="fill: #8bcf8b; stroke: #4d4d4d; stroke-width: 0.6; stroke-linejoin: miter"/>
   </g>
   <g id="patch_15">
    <path d="M 86.70125 199.157355 
L 495.349019 199.157355 
L 495.349019 190.101409 
L 86.70125 190.101409 
z
" clip-path="url(#p5afb8a1b59)" style="fill: #8bcf8b; stroke: #4d4d4d; stroke-width: 0.6; stroke-linejoin: miter"/>
   </g>
   <g id="matplotlib.axis_3">
    <g id="xtick_7">
     <g id="line2d_27">
      <g>
       <use xlink:href="#m3461da8c77" x="86.70125" y="306.58351" style="stroke: #000000; stroke-width: 0.8"/>
      </g>
     </g>
     <g id="text_18">
      <text style="font-size: 7px; font-family: 'PingFang SC', 'Heiti SC', 'STHeiti', 'Arial Unicode MS', 'Arial', 'Helvetica', 'DejaVu Sans', sans-serif; text-anchor: middle" x="86.70125" y="318.655073" transform="rotate(-0 86.70125 318.655073)">0</text>
     </g>
    </g>
    <g id="xtick_8">
     <g id="line2d_28">
      <g>
       <use xlink:href="#m3461da8c77" x="147.998415" y="306.58351" style="stroke: #000000; stroke-width: 0.8"/>
      </g>
     </g>
     <g id="text_19">
      <text style="font-size: 7px; font-family: 'PingFang SC', 'Heiti SC', 'STHeiti', 'Arial Unicode MS', 'Arial', 'Helvetica', 'DejaVu Sans', sans-serif; text-anchor: middle" x="147.998415" y="318.655073" transform="rotate(-0 147.998415 318.655073)">10</text>
     </g>
    </g>
    <g id="xtick_9">
     <g id="line2d_29">
      <g>
       <use xlink:href="#m3461da8c77" x="209.295581" y="306.58351" style="stroke: #000000; stroke-width: 0.8"/>
      </g>
     </g>
     <g id="text_20">
      <text style="font-size: 7px; font-family: 'PingFang SC', 'Heiti SC', 'STHeiti', 'Arial Unicode MS', 'Arial', 'Helvetica', 'DejaVu Sans', sans-serif; text-anchor: middle" x="209.295581" y="318.655073" transform="rotate(-0 209.295581 318.655073)">20</text>
     </g>
    </g>
    <g id="xtick_10">
     <g id="line2d_30">
      <g>
       <use xlink:href="#m3461da8c77" x="270.592746" y="306.58351" style="stroke: #000000; stroke-width: 0.8"/>
      </g>
     </g>
     <g id="text_21">
      <text style="font-size: 7px; font-family: 'PingFang SC', 'Heiti SC', 'STHeiti', 'Arial Unicode MS', 'Arial', 'Helvetica', 'DejaVu Sans', sans-serif; text-anchor: middle" x="270.592746" y="318.655073" transform="rotate(-0 270.592746 318.655073)">30</text>
     </g>
    </g>
    <g id="xtick_11">
     <g id="line2d_31">
      <g>
       <use xlink:href="#m3461da8c77" x="331.889911" y="306.58351" style="stroke: #000000; stroke-width: 0.8"/>
      </g>
     </g>
     <g id="text_22">
      <text style="font-size: 7px; font-family: 'PingFang SC', 'Heiti SC', 'STHeiti', 'Arial Unicode MS', 'Arial', 'Helvetica', 'DejaVu Sans', sans-serif; text-anchor: middle" x="331.889911" y="318.655073" transform="rotate(-0 331.889911 318.655073)">40</text>
     </g>
    </g>
    <g id="xtick_12">
     <g id="line2d_32">
      <g>
       <use xlink:href="#m3461da8c77" x="393.187077" y="306.58351" style="stroke: #000000; stroke-width: 0.8"/>
      </g>
     </g>
     <g id="text_23">
      <text style="font-size: 7px; font-family: 'PingFang SC', 'Heiti SC', 'STHeiti', 'Arial Unicode MS', 'Arial', 'Helvetica', 'DejaVu Sans', sans-serif; text-anchor: middle" x="393.187077" y="318.655073" transform="rotate(-0 393.187077 318.655073)">50</text>
     </g>
    </g>
    <g id="xtick_13">
     <g id="line2d_33">
      <g>
       <use xlink:href="#m3461da8c77" x="454.484242" y="306.58351" style="stroke: #000000; stroke-width: 0.8"/>
      </g>
     </g>
     <g id="text_24">
      <text style="font-size: 7px; font-family: 'PingFang SC', 'Heiti SC', 'STHeiti', 'Arial Unicode MS', 'Arial', 'Helvetica', 'DejaVu Sans', sans-serif; text-anchor: middle" x="454.484242" y="318.655073" transform="rotate(-0 454.484242 318.655073)">60</text>
     </g>
    </g>
    <g id="xtick_14">
     <g id="line2d_34">
      <g>
       <use xlink:href="#m3461da8c77" x="515.781407" y="306.58351" style="stroke: #000000; stroke-width: 0.8"/>
      </g>
     </g>
     <g id="text_25">
      <text style="font-size: 7px; font-family: 'PingFang SC', 'Heiti SC', 'STHeiti', 'Arial Unicode MS', 'Arial', 'Helvetica', 'DejaVu Sans', sans-serif; text-anchor: middle" x="515.781407" y="318.655073" transform="rotate(-0 515.781407 318.655073)">70</text>
     </g>
    </g>
    <g id="text_26">
     <text style="font-size: 7.5px; font-family: 'PingFang SC', 'Heiti SC', 'STHeiti', 'Arial Unicode MS', 'Arial', 'Helvetica', 'DejaVu Sans', sans-serif; text-anchor: middle" x="301.241329" y="329.660307" transform="rotate(-0 301.241329 329.660307)">朝真值移动的种子占比（%）</text>
    </g>
   </g>
   <g id="matplotlib.axis_4">
    <g id="ytick_7">
     <g id="line2d_35">
      <g>
       <use xlink:href="#m16cbbffd78" x="86.70125" y="296.508771" style="stroke: #000000; stroke-width: 0.8"/>
      </g>
     </g>
     <g id="text_27">
      <text style="font-size: 6px; font-family: 'PingFang SC', 'Heiti SC', 'STHeiti', 'Arial Unicode MS', 'Arial', 'Helvetica', 'DejaVu Sans', sans-serif; text-anchor: end" x="80.20125" y="298.896583" transform="rotate(-0 80.20125 298.896583)">will-the-supreme-court…</text>
     </g>
    </g>
    <g id="ytick_8">
     <g id="line2d_36">
      <g>
       <use xlink:href="#m16cbbffd78" x="86.70125" y="285.188839" style="stroke: #000000; stroke-width: 0.8"/>
      </g>
     </g>
     <g id="text_28">
      <text style="font-size: 6px; font-family: 'PingFang SC', 'Heiti SC', 'STHeiti', 'Arial Unicode MS', 'Arial', 'Helvetica', 'DejaVu Sans', sans-serif; text-anchor: end" x="80.20125" y="287.576651" transform="rotate(-0 80.20125 287.576651)">will-microstrategy-pur…</text>
     </g>
    </g>
    <g id="ytick_9">
     <g id="line2d_37">
      <g>
       <use xlink:href="#m16cbbffd78" x="86.70125" y="273.868907" style="stroke: #000000; stroke-width: 0.8"/>
      </g>
     </g>
     <g id="text_29">
      <text style="font-size: 6px; font-family: 'PingFang SC', 'Heiti SC', 'STHeiti', 'Arial Unicode MS', 'Arial', 'Helvetica', 'DejaVu Sans', sans-serif; text-anchor: end" x="80.20125" y="276.256719" transform="rotate(-0 80.20125 276.256719)">nfl-bal-buf-2025-09-07</text>
     </g>
    </g>
    <g id="ytick_10">
     <g id="line2d_38">
      <g>
       <use xlink:href="#m16cbbffd78" x="86.70125" y="262.548974" style="stroke: #000000; stroke-width: 0.8"/>
      </g>
     </g>
     <g id="text_30">
      <text style="font-size: 6px; font-family: 'PingFang SC', 'Heiti SC', 'STHeiti', 'Arial Unicode MS', 'Arial', 'Helvetica', 'DejaVu Sans', sans-serif; text-anchor: end" x="80.20125" y="264.936787" transform="rotate(-0 80.20125 264.936787)">lord-miles-completes-4…</text>
     </g>
    </g>
    <g id="ytick_11">
     <g id="line2d_39">
      <g>
       <use xlink:href="#m16cbbffd78" x="86.70125" y="251.229042" style="stroke: #000000; stroke-width: 0.8"/>
      </g>
     </g>
     <g id="text_31">
      <text style="font-size: 6px; font-family: 'PingFang SC', 'Heiti SC', 'STHeiti', 'Arial Unicode MS', 'Arial', 'Helvetica', 'DejaVu Sans', sans-serif; text-anchor: end" x="80.20125" y="253.616855" transform="rotate(-0 80.20125 253.616855)">katy-perry-and-justin-…</text>
     </g>
    </g>
    <g id="ytick_12">
     <g id="line2d_40">
      <g>
       <use xlink:href="#m16cbbffd78" x="86.70125" y="239.90911" style="stroke: #000000; stroke-width: 0.8"/>
      </g>
     </g>
     <g id="text_32">
      <text style="font-size: 6px; font-family: 'PingFang SC', 'Heiti SC', 'STHeiti', 'Arial Unicode MS', 'Arial', 'Helvetica', 'DejaVu Sans', sans-serif; text-anchor: end" x="80.20125" y="242.296923" transform="rotate(-0 80.20125 242.296923)">will-bitcoin-reach-125…</text>
     </g>
    </g>
    <g id="ytick_13">
     <g id="line2d_41">
      <g>
       <use xlink:href="#m16cbbffd78" x="86.70125" y="228.589178" style="stroke: #000000; stroke-width: 0.8"/>
      </g>
     </g>
     <g id="text_33">
      <text style="font-size: 6px; font-family: 'PingFang SC', 'Heiti SC', 'STHeiti', 'Arial Unicode MS', 'Arial', 'Helvetica', 'DejaVu Sans', sans-serif; text-anchor: end" x="80.20125" y="230.976991" transform="rotate(-0 80.20125 230.976991)">will-trump-deploy-nati…</text>
     </g>
    </g>
    <g id="ytick_14">
     <g id="line2d_42">
      <g>
       <use xlink:href="#m16cbbffd78" x="86.70125" y="217.269246" style="stroke: #000000; stroke-width: 0.8"/>
      </g>
     </g>
     <g id="text_34">
      <text style="font-size: 6px; font-family: 'PingFang SC', 'Heiti SC', 'STHeiti', 'Arial Unicode MS', 'Arial', 'Helvetica', 'DejaVu Sans', sans-serif; text-anchor: end" x="80.20125" y="219.657059" transform="rotate(-0 80.20125 219.657059)">tesla-launches-unsuper…</text>
     </g>
    </g>
    <g id="ytick_15">
     <g id="line2d_43">
      <g>
       <use xlink:href="#m16cbbffd78" x="86.70125" y="205.949314" style="stroke: #000000; stroke-width: 0.8"/>
      </g>
     </g>
     <g id="text_35">
      <text style="font-size: 6px; font-family: 'PingFang SC', 'Heiti SC', 'STHeiti', 'Arial Unicode MS', 'Arial', 'Helvetica', 'DejaVu Sans', sans-serif; text-anchor: end" x="80.20125" y="208.337126" transform="rotate(-0 80.20125 208.337126)">btc-above-100k-till-20…</text>
     </g>
    </g>
    <g id="ytick_16">
     <g id="line2d_44">
      <g>
       <use xlink:href="#m16cbbffd78" x="86.70125" y="194.629382" style="stroke: #000000; stroke-width: 0.8"/>
      </g>
     </g>
     <g id="text_36">
      <text style="font-size: 6px; font-family: 'PingFang SC', 'Heiti SC', 'STHeiti', 'Arial Unicode MS', 'Arial', 'Helvetica', 'DejaVu Sans', sans-serif; text-anchor: end" x="80.20125" y="197.017194" transform="rotate(-0 80.20125 197.017194)">nfl-kc-nyg-2025-09-21</text>
     </g>
    </g>
   </g>
   <g id="line2d_45">
    <path d="M 393.187077 306.58351 
L 393.187077 184.554642 
" clip-path="url(#p5afb8a1b59)" style="fill: none; stroke-dasharray: 0.6,0.99; stroke-dashoffset: 0; stroke: #767676; stroke-width: 0.6"/>
   </g>
   <g id="patch_16">
    <path d="M 86.70125 306.58351 
L 86.70125 184.554642 
" style="fill: none; stroke: #000000; stroke-width: 0.8; stroke-linejoin: miter; stroke-linecap: square"/>
   </g>
   <g id="patch_17">
    <path d="M 86.70125 306.58351 
L 515.781407 306.58351 
" style="fill: none; stroke: #000000; stroke-width: 0.8; stroke-linejoin: miter; stroke-linecap: square"/>
   </g>
   <g id="text_37">
    <text style="font-weight: 700; font-size: 9px; font-family: 'PingFang SC', 'Heiti SC', 'STHeiti', 'Arial Unicode MS', 'Arial', 'Helvetica', 'DejaVu Sans', sans-serif; text-anchor: start" x="18.048425" y="177.246636" transform="rotate(-0 18.048425 177.246636)">b</text>
   </g>
  </g>
 </g>
 <defs>
  <clipPath id="p7265b46c19">
   <rect x="86.70125" y="21.671443" width="429.080157" height="122.028868"/>
  </clipPath>
  <clipPath id="p5afb8a1b59">
   <rect x="86.70125" y="184.554642" width="429.080157" height="122.028868"/>
  </clipPath>
 </defs>
</svg>
