<?xml version="1.0" encoding="utf-8" standalone="no"?>
<!DOCTYPE svg PUBLIC "-//W3C//DTD SVG 1.1//EN"
  "http://www.w3.org/Graphics/SVG/1.1/DTD/svg11.dtd">
<svg xmlns:xlink="http://www.w3.org/1999/xlink" width="526.902032pt" height="319.587586pt" viewBox="0 0 526.902032 319.587586" xmlns="http://www.w3.org/2000/svg" version="1.1">
 <metadata>
  <rdf:RDF xmlns:dc="http://purl.org/dc/elements/1.1/" xmlns:cc="http://creativecommons.org/ns#" xmlns:rdf="http://www.w3.org/1999/02/22-rdf-syntax-ns#">
   <cc:Work>
    <dc:type rdf:resource="http://purl.org/dc/dcmitype/StillImage"/>
    <dc:date>2026-05-23T23:52:01.008171</dc:date>
    <dc:format>image/svg+xml</dc:format>
    <dc:creator>
     <cc:Agent>
      <dc:title>Matplotlib v3.10.9, https://matplotlib.org/</dc:title>
     </cc:Agent>
    </dc:creator>
   </cc:Work>
  </rdf:RDF>
 </metadata>
 <defs>
  <style type="text/css">*{stroke-linejoin: round; stroke-linecap: butt}</style>
 </defs>
 <g id="figure_1">
  <g id="patch_1">
   <path d="M 0 319.587586 
L 526.902032 319.587586 
L 526.902032 0 
L 0 0 
z
" style="fill: #ffffff"/>
  </g>
  <g id="axes_1">
   <g id="patch_2">
    <path d="M 32.506875 133.997074 
L 519.702032 133.997074 
L 519.702032 18.771563 
L 32.506875 18.771563 
z
" style="fill: #ffffff"/>
   </g>
   <g id="matplotlib.axis_1">
    <g id="xtick_1">
     <g id="line2d_1">
      <defs>
       <path id="mf0364e792f" d="M 0 0 
L 0 3 
" style="stroke: #000000; stroke-width: 0.8"/>
      </defs>
      <g>
       <use xlink:href="#mf0364e792f" x="54.652109" y="133.997074" style="stroke: #000000; stroke-width: 0.8"/>
      </g>
     </g>
     <g id="text_1">
      <text style="font-size: 7px; font-family: 'PingFang SC', 'Heiti SC', 'STHeiti', 'Arial Unicode MS', 'Arial', 'Helvetica', 'DejaVu Sans', sans-serif; text-anchor: middle" x="54.652109" y="146.068637" transform="rotate(-0 54.652109 146.068637)">0.0</text>
     </g>
    </g>
    <g id="xtick_2">
     <g id="line2d_2">
      <g>
       <use xlink:href="#mf0364e792f" x="112.929042" y="133.997074" style="stroke: #000000; stroke-width: 0.8"/>
      </g>
     </g>
     <g id="text_2">
      <text style="font-size: 7px; font-family: 'PingFang SC', 'Heiti SC', 'STHeiti', 'Arial Unicode MS', 'Arial', 'Helvetica', 'DejaVu Sans', sans-serif; text-anchor: middle" x="112.929042" y="146.068637" transform="rotate(-0 112.929042 146.068637)">2.5</text>
     </g>
    </g>
    <g id="xtick_3">
     <g id="line2d_3">
      <g>
       <use xlink:href="#mf0364e792f" x="171.205975" y="133.997074" style="stroke: #000000; stroke-width: 0.8"/>
      </g>
     </g>
     <g id="text_3">
      <text style="font-size: 7px; font-family: 'PingFang SC', 'Heiti SC', 'STHeiti', 'Arial Unicode MS', 'Arial', 'Helvetica', 'DejaVu Sans', sans-serif; text-anchor: middle" x="171.205975" y="146.068637" transform="rotate(-0 171.205975 146.068637)">5.0</text>
     </g>
    </g>
    <g id="xtick_4">
     <g id="line2d_4">
      <g>
       <use xlink:href="#mf0364e792f" x="229.482908" y="133.997074" style="stroke: #000000; stroke-width: 0.8"/>
      </g>
     </g>
     <g id="text_4">
      <text style="font-size: 7px; font-family: 'PingFang SC', 'Heiti SC', 'STHeiti', 'Arial Unicode MS', 'Arial', 'Helvetica', 'DejaVu Sans', sans-serif; text-anchor: middle" x="229.482908" y="146.068637" transform="rotate(-0 229.482908 146.068637)">7.5</text>
     </g>
    </g>
    <g id="xtick_5">
     <g id="line2d_5">
      <g>
       <use xlink:href="#mf0364e792f" x="287.75984" y="133.997074" style="stroke: #000000; stroke-width: 0.8"/>
      </g>
     </g>
     <g id="text_5">
      <text style="font-size: 7px; font-family: 'PingFang SC', 'Heiti SC', 'STHeiti', 'Arial Unicode MS', 'Arial', 'Helvetica', 'DejaVu Sans', sans-serif; text-anchor: middle" x="287.75984" y="146.068637" transform="rotate(-0 287.75984 146.068637)">10.0</text>
     </g>
    </g>
    <g id="xtick_6">
     <g id="line2d_6">
      <g>
       <use xlink:href="#mf0364e792f" x="346.036773" y="133.997074" style="stroke: #000000; stroke-width: 0.8"/>
      </g>
     </g>
     <g id="text_6">
      <text style="font-size: 7px; font-family: 'PingFang SC', 'Heiti SC', 'STHeiti', 'Arial Unicode MS', 'Arial', 'Helvetica', 'DejaVu Sans', sans-serif; text-anchor: middle" x="346.036773" y="146.068637" transform="rotate(-0 346.036773 146.068637)">12.5</text>
     </g>
    </g>
    <g id="xtick_7">
     <g id="line2d_7">
      <g>
       <use xlink:href="#mf0364e792f" x="404.313706" y="133.997074" style="stroke: #000000; stroke-width: 0.8"/>
      </g>
     </g>
     <g id="text_7">
      <text style="font-size: 7px; font-family: 'PingFang SC', 'Heiti SC', 'STHeiti', 'Arial Unicode MS', 'Arial', 'Helvetica', 'DejaVu Sans', sans-serif; text-anchor: middle" x="404.313706" y="146.068637" transform="rotate(-0 404.313706 146.068637)">15.0</text>
     </g>
    </g>
    <g id="xtick_8">
     <g id="line2d_8">
      <g>
       <use xlink:href="#mf0364e792f" x="462.590638" y="133.997074" style="stroke: #000000; stroke-width: 0.8"/>
      </g>
     </g>
     <g id="text_8">
      <text style="font-size: 7px; font-family: 'PingFang SC', 'Heiti SC', 'STHeiti', 'Arial Unicode MS', 'Arial', 'Helvetica', 'DejaVu Sans', sans-serif; text-anchor: middle" x="462.590638" y="146.068637" transform="rotate(-0 462.590638 146.068637)">17.5</text>
     </g>
    </g>
    <g id="text_9">
     <text style="font-size: 7.5px; font-family: 'PingFang SC', 'Heiti SC', 'STHeiti', 'Arial Unicode MS', 'Arial', 'Helvetica', 'DejaVu Sans', sans-serif; text-anchor: middle" x="276.104454" y="156.976606" transform="rotate(-0 276.104454 156.976606)">决策轮次</text>
    </g>
   </g>
   <g id="matplotlib.axis_2">
    <g id="ytick_1">
     <g id="line2d_9">
      <defs>
       <path id="m943253c441" d="M 0 0 
L -3 0 
" style="stroke: #000000; stroke-width: 0.8"/>
      </defs>
      <g>
       <use xlink:href="#m943253c441" x="32.506875" y="128.759551" style="stroke: #000000; stroke-width: 0.8"/>
      </g>
     </g>
     <g id="text_10">
      <text style="font-size: 7px; font-family: 'PingFang SC', 'Heiti SC', 'STHeiti', 'Arial Unicode MS', 'Arial', 'Helvetica', 'DejaVu Sans', sans-serif; text-anchor: end" x="26.006875" y="131.545332" transform="rotate(-0 26.006875 131.545332)">0</text>
     </g>
    </g>
    <g id="ytick_2">
     <g id="line2d_10">
      <g>
       <use xlink:href="#m943253c441" x="32.506875" y="110.328048" style="stroke: #000000; stroke-width: 0.8"/>
      </g>
     </g>
     <g id="text_11">
      <text style="font-size: 7px; font-family: 'PingFang SC', 'Heiti SC', 'STHeiti', 'Arial Unicode MS', 'Arial', 'Helvetica', 'DejaVu Sans', sans-serif; text-anchor: end" x="26.006875" y="113.11383" transform="rotate(-0 26.006875 113.11383)">5</text>
     </g>
    </g>
    <g id="ytick_3">
     <g id="line2d_11">
      <g>
       <use xlink:href="#m943253c441" x="32.506875" y="91.896546" style="stroke: #000000; stroke-width: 0.8"/>
      </g>
     </g>
     <g id="text_12">
      <text style="font-size: 7px; font-family: 'PingFang SC', 'Heiti SC', 'STHeiti', 'Arial Unicode MS', 'Arial', 'Helvetica', 'DejaVu Sans', sans-serif; text-anchor: end" x="26.006875" y="94.682327" transform="rotate(-0 26.006875 94.682327)">10</text>
     </g>
    </g>
    <g id="ytick_4">
     <g id="line2d_12">
      <g>
       <use xlink:href="#m943253c441" x="32.506875" y="73.465043" style="stroke: #000000; stroke-width: 0.8"/>
      </g>
     </g>
     <g id="text_13">
      <text style="font-size: 7px; font-family: 'PingFang SC', 'Heiti SC', 'STHeiti', 'Arial Unicode MS', 'Arial', 'Helvetica', 'DejaVu Sans', sans-serif; text-anchor: end" x="26.006875" y="76.250824" transform="rotate(-0 26.006875 76.250824)">15</text>
     </g>
    </g>
    <g id="ytick_5">
     <g id="line2d_13">
      <g>
       <use xlink:href="#m943253c441" x="32.506875" y="55.033541" style="stroke: #000000; stroke-width: 0.8"/>
      </g>
     </g>
     <g id="text_14">
      <text style="font-size: 7px; font-family: 'PingFang SC', 'Heiti SC', 'STHeiti', 'Arial Unicode MS', 'Arial', 'Helvetica', 'DejaVu Sans', sans-serif; text-anchor: end" x="26.006875" y="57.819322" transform="rotate(-0 26.006875 57.819322)">20</text>
     </g>
    </g>
    <g id="ytick_6">
     <g id="line2d_14">
      <g>
       <use xlink:href="#m943253c441" x="32.506875" y="36.602038" style="stroke: #000000; stroke-width: 0.8"/>
      </g>
     </g>
     <g id="text_15">
      <text style="font-size: 7px; font-family: 'PingFang SC', 'Heiti SC', 'STHeiti', 'Arial Unicode MS', 'Arial', 'Helvetica', 'DejaVu Sans', sans-serif; text-anchor: end" x="26.006875" y="39.387819" transform="rotate(-0 26.006875 39.387819)">25</text>
     </g>
    </g>
    <g id="text_16">
     <text style="font-size: 7.5px; font-family: 'PingFang SC', 'Heiti SC', 'STHeiti', 'Arial Unicode MS', 'Arial', 'Helvetica', 'DejaVu Sans', sans-serif; text-anchor: middle" x="13.244531" y="76.384318" transform="rotate(-90 13.244531 76.384318)">撤单占比（%）</text>
    </g>
   </g>
   <g id="line2d_15">
    <path d="M 54.652109 128.759551 
L 77.962883 128.759551 
L 101.273656 65.459441 
L 124.584429 128.759551 
L 147.895202 32.692325 
L 171.205975 116.471883 
L 194.516748 106.232159 
L 217.827521 118.519827 
L 241.138294 128.759551 
L 264.449067 97.109496 
L 287.75984 109.855446 
L 311.070613 91.896546 
L 334.381386 117.588943 
L 357.69216 79.608877 
L 381.002933 128.759551 
L 404.313706 91.896546 
L 427.624479 95.061551 
L 450.935252 94.130667 
L 474.246025 104.184214 
L 497.556798 72.906513 
" clip-path="url(#p87fd03dd82)" style="fill: none; stroke: #0f4d92; stroke-linecap: square"/>
   </g>
   <g id="line2d_16">
    <path d="M 54.652109 128.759551 
L 77.962883 128.759551 
L 101.273656 24.009086 
L 124.584429 82.738035 
L 147.895202 94.981761 
L 171.205975 117.322977 
L 194.516748 111.714545 
L 217.827521 113.456228 
L 241.138294 100.567065 
L 264.449067 94.981761 
L 287.75984 87.800656 
L 311.070613 117.05701 
L 334.381386 122.615717 
L 357.69216 99.064352 
L 381.002933 123.174247 
L 404.313706 107.492842 
L 427.624479 105.354468 
L 450.935252 128.759551 
L 474.246025 95.733407 
L 497.556798 106.880887 
" clip-path="url(#p87fd03dd82)" style="fill: none; stroke: #8bcf8b; stroke-linecap: square"/>
   </g>
   <g id="line2d_17">
    <path d="M 54.652109 128.759551 
L 77.962883 128.759551 
L 101.273656 60.325702 
L 124.584429 100.615491 
L 147.895202 108.763608 
L 171.205975 99.084869 
L 194.516748 102.224222 
L 217.827521 104.05098 
L 241.138294 114.06322 
L 264.449067 99.686924 
L 287.75984 109.063471 
L 311.070613 94.637435 
L 334.381386 98.897039 
L 357.69216 112.324364 
L 381.002933 112.434585 
L 404.313706 104.816331 
L 427.624479 119.858444 
L 450.935252 114.663843 
L 474.246025 107.47843 
L 497.556798 119.43639 
" clip-path="url(#p87fd03dd82)" style="fill: none; stroke: #4d4d4d; stroke-linecap: square"/>
   </g>
   <g id="line2d_18">
    <path d="M 54.652109 128.759551 
L 77.962883 125.408369 
L 101.273656 71.588601 
L 124.584429 101.880111 
L 147.895202 90.243001 
L 171.205975 99.777785 
L 194.516748 110.644042 
L 217.827521 112.169154 
L 241.138294 113.491898 
L 264.449067 106.541357 
L 287.75984 118.457371 
L 311.070613 104.835919 
L 334.381386 106.365343 
L 357.69216 109.959289 
L 381.002933 106.788654 
L 404.313706 112.189594 
L 427.624479 108.246106 
L 450.935252 110.656074 
L 474.246025 105.248805 
L 497.556798 108.955103 
" clip-path="url(#p87fd03dd82)" style="fill: none; stroke: #b64342; stroke-linecap: square"/>
   </g>
   <g id="patch_3">
    <path d="M 32.506875 133.997074 
L 32.506875 18.771563 
" style="fill: none; stroke: #000000; stroke-width: 0.8; stroke-linejoin: miter; stroke-linecap: square"/>
   </g>
   <g id="patch_4">
    <path d="M 32.506875 133.997074 
L 519.702032 133.997074 
" style="fill: none; stroke: #000000; stroke-width: 0.8; stroke-linejoin: miter; stroke-linecap: square"/>
   </g>
   <g id="text_17">
    <text style="font-size: 7px; font-family: 'PingFang SC', 'Heiti SC', 'STHeiti', 'Arial Unicode MS', 'Arial', 'Helvetica', 'DejaVu Sans', sans-serif; text-anchor: middle; fill: #4d4d4d" x="276.104454" y="12.771563" transform="rotate(-0 276.104454 12.771563)">基底市场：Robotaxi</text>
   </g>
   <g id="legend_1">
    <g id="line2d_19">
     <path d="M 483.233282 26.247188 
L 488.033282 26.247188 
L 492.833282 26.247188 
" style="fill: none; stroke: #0f4d92; stroke-linecap: square"/>
    </g>
    <g id="text_18">
     <text style="font-size: 6px; font-family: 'PingFang SC', 'Heiti SC', 'STHeiti', 'Arial Unicode MS', 'Arial', 'Helvetica', 'DejaVu Sans', sans-serif; text-anchor: start" x="497.633282" y="28.347188" transform="rotate(-0 497.633282 28.347188)">n=10</text>
    </g>
    <g id="line2d_20">
     <path d="M 483.233282 34.827188 
L 488.033282 34.827188 
L 492.833282 34.827188 
" style="fill: none; stroke: #8bcf8b; stroke-linecap: square"/>
    </g>
    <g id="text_19">
     <text style="font-size: 6px; font-family: 'PingFang SC', 'Heiti SC', 'STHeiti', 'Arial Unicode MS', 'Arial', 'Helvetica', 'DejaVu Sans', sans-serif; text-anchor: start" x="497.633282" y="36.927188" transform="rotate(-0 497.633282 36.927188)">n=20</text>
    </g>
    <g id="line2d_21">
     <path d="M 483.233282 43.407188 
L 488.033282 43.407188 
L 492.833282 43.407188 
" style="fill: none; stroke: #4d4d4d; stroke-linecap: square"/>
    </g>
    <g id="text_20">
     <text style="font-size: 6px; font-family: 'PingFang SC', 'Heiti SC', 'STHeiti', 'Arial Unicode MS', 'Arial', 'Helvetica', 'DejaVu Sans', sans-serif; text-anchor: start" x="497.633282" y="45.507188" transform="rotate(-0 497.633282 45.507188)">n=50</text>
    </g>
    <g id="line2d_22">
     <path d="M 483.233282 51.987188 
L 488.033282 51.987188 
L 492.833282 51.987188 
" style="fill: none; stroke: #b64342; stroke-linecap: square"/>
    </g>
    <g id="text_21">
     <text style="font-size: 6px; font-family: 'PingFang SC', 'Heiti SC', 'STHeiti', 'Arial Unicode MS', 'Arial', 'Helvetica', 'DejaVu Sans', sans-serif; text-anchor: start" x="497.633282" y="54.087188" transform="rotate(-0 497.633282 54.087188)">n=100</text>
    </g>
   </g>
  </g>
  <g id="axes_2">
   <g id="patch_5">
    <path d="M 32.506875 288.402586 
L 519.702032 288.402586 
L 519.702032 173.177074 
L 32.506875 173.177074 
z
" style="fill: #ffffff"/>
   </g>
   <g id="matplotlib.axis_3">
    <g id="xtick_9">
     <g id="line2d_23">
      <g>
       <use xlink:href="#mf0364e792f" x="54.652109" y="288.402586" style="stroke: #000000; stroke-width: 0.8"/>
      </g>
     </g>
     <g id="text_22">
      <text style="font-size: 7px; font-family: 'PingFang SC', 'Heiti SC', 'STHeiti', 'Arial Unicode MS', 'Arial', 'Helvetica', 'DejaVu Sans', sans-serif; text-anchor: middle" x="54.652109" y="300.474149" transform="rotate(-0 54.652109 300.474149)">0.0</text>
     </g>
    </g>
    <g id="xtick_10">
     <g id="line2d_24">
      <g>
       <use xlink:href="#mf0364e792f" x="112.929042" y="288.402586" style="stroke: #000000; stroke-width: 0.8"/>
      </g>
     </g>
     <g id="text_23">
      <text style="font-size: 7px; font-family: 'PingFang SC', 'Heiti SC', 'STHeiti', 'Arial Unicode MS', 'Arial', 'Helvetica', 'DejaVu Sans', sans-serif; text-anchor: middle" x="112.929042" y="300.474149" transform="rotate(-0 112.929042 300.474149)">2.5</text>
     </g>
    </g>
    <g id="xtick_11">
     <g id="line2d_25">
      <g>
       <use xlink:href="#mf0364e792f" x="171.205975" y="288.402586" style="stroke: #000000; stroke-width: 0.8"/>
      </g>
     </g>
     <g id="text_24">
      <text style="font-size: 7px; font-family: 'PingFang SC', 'Heiti SC', 'STHeiti', 'Arial Unicode MS', 'Arial', 'Helvetica', 'DejaVu Sans', sans-serif; text-anchor: middle" x="171.205975" y="300.474149" transform="rotate(-0 171.205975 300.474149)">5.0</text>
     </g>
    </g>
    <g id="xtick_12">
     <g id="line2d_26">
      <g>
       <use xlink:href="#mf0364e792f" x="229.482908" y="288.402586" style="stroke: #000000; stroke-width: 0.8"/>
      </g>
     </g>
     <g id="text_25">
      <text style="font-size: 7px; font-family: 'PingFang SC', 'Heiti SC', 'STHeiti', 'Arial Unicode MS', 'Arial', 'Helvetica', 'DejaVu Sans', sans-serif; text-anchor: middle" x="229.482908" y="300.474149" transform="rotate(-0 229.482908 300.474149)">7.5</text>
     </g>
    </g>
    <g id="xtick_13">
     <g id="line2d_27">
      <g>
       <use xlink:href="#mf0364e792f" x="287.75984" y="288.402586" style="stroke: #000000; stroke-width: 0.8"/>
      </g>
     </g>
     <g id="text_26">
      <text style="font-size: 7px; font-family: 'PingFang SC', 'Heiti SC', 'STHeiti', 'Arial Unicode MS', 'Arial', 'Helvetica', 'DejaVu Sans', sans-serif; text-anchor: middle" x="287.75984" y="300.474149" transform="rotate(-0 287.75984 300.474149)">10.0</text>
     </g>
    </g>
    <g id="xtick_14">
     <g id="line2d_28">
      <g>
       <use xlink:href="#mf0364e792f" x="346.036773" y="288.402586" style="stroke: #000000; stroke-width: 0.8"/>
      </g>
     </g>
     <g id="text_27">
      <text style="font-size: 7px; font-family: 'PingFang SC', 'Heiti SC', 'STHeiti', 'Arial Unicode MS', 'Arial', 'Helvetica', 'DejaVu Sans', sans-serif; text-anchor: middle" x="346.036773" y="300.474149" transform="rotate(-0 346.036773 300.474149)">12.5</text>
     </g>
    </g>
    <g id="xtick_15">
     <g id="line2d_29">
      <g>
       <use xlink:href="#mf0364e792f" x="404.313706" y="288.402586" style="stroke: #000000; stroke-width: 0.8"/>
      </g>
     </g>
     <g id="text_28">
      <text style="font-size: 7px; font-family: 'PingFang SC', 'Heiti SC', 'STHeiti', 'Arial Unicode MS', 'Arial', 'Helvetica', 'DejaVu Sans', sans-serif; text-anchor: middle" x="404.313706" y="300.474149" transform="rotate(-0 404.313706 300.474149)">15.0</text>
     </g>
    </g>
    <g id="xtick_16">
     <g id="line2d_30">
      <g>
       <use xlink:href="#mf0364e792f" x="462.590638" y="288.402586" style="stroke: #000000; stroke-width: 0.8"/>
      </g>
     </g>
     <g id="text_29">
      <text style="font-size: 7px; font-family: 'PingFang SC', 'Heiti SC', 'STHeiti', 'Arial Unicode MS', 'Arial', 'Helvetica', 'DejaVu Sans', sans-serif; text-anchor: middle" x="462.590638" y="300.474149" transform="rotate(-0 462.590638 300.474149)">17.5</text>
     </g>
    </g>
    <g id="text_30">
     <text style="font-size: 7.5px; font-family: 'PingFang SC', 'Heiti SC', 'STHeiti', 'Arial Unicode MS', 'Arial', 'Helvetica', 'DejaVu Sans', sans-serif; text-anchor: middle" x="276.104454" y="311.382117" transform="rotate(-0 276.104454 311.382117)">决策轮次</text>
    </g>
   </g>
   <g id="matplotlib.axis_4">
    <g id="ytick_7">
     <g id="line2d_31">
      <g>
       <use xlink:href="#m943253c441" x="32.506875" y="283.165063" style="stroke: #000000; stroke-width: 0.8"/>
      </g>
     </g>
     <g id="text_31">
      <text style="font-size: 7px; font-family: 'PingFang SC', 'Heiti SC', 'STHeiti', 'Arial Unicode MS', 'Arial', 'Helvetica', 'DejaVu Sans', sans-serif; text-anchor: end" x="26.006875" y="285.950844" transform="rotate(-0 26.006875 285.950844)">0</text>
     </g>
    </g>
    <g id="ytick_8">
     <g id="line2d_32">
      <g>
       <use xlink:href="#m943253c441" x="32.506875" y="267.003562" style="stroke: #000000; stroke-width: 0.8"/>
      </g>
     </g>
     <g id="text_32">
      <text style="font-size: 7px; font-family: 'PingFang SC', 'Heiti SC', 'STHeiti', 'Arial Unicode MS', 'Arial', 'Helvetica', 'DejaVu Sans', sans-serif; text-anchor: end" x="26.006875" y="269.789344" transform="rotate(-0 26.006875 269.789344)">5</text>
     </g>
    </g>
    <g id="ytick_9">
     <g id="line2d_33">
      <g>
       <use xlink:href="#m943253c441" x="32.506875" y="250.842062" style="stroke: #000000; stroke-width: 0.8"/>
      </g>
     </g>
     <g id="text_33">
      <text style="font-size: 7px; font-family: 'PingFang SC', 'Heiti SC', 'STHeiti', 'Arial Unicode MS', 'Arial', 'Helvetica', 'DejaVu Sans', sans-serif; text-anchor: end" x="26.006875" y="253.627843" transform="rotate(-0 26.006875 253.627843)">10</text>
     </g>
    </g>
    <g id="ytick_10">
     <g id="line2d_34">
      <g>
       <use xlink:href="#m943253c441" x="32.506875" y="234.680562" style="stroke: #000000; stroke-width: 0.8"/>
      </g>
     </g>
     <g id="text_34">
      <text style="font-size: 7px; font-family: 'PingFang SC', 'Heiti SC', 'STHeiti', 'Arial Unicode MS', 'Arial', 'Helvetica', 'DejaVu Sans', sans-serif; text-anchor: end" x="26.006875" y="237.466343" transform="rotate(-0 26.006875 237.466343)">15</text>
     </g>
    </g>
    <g id="ytick_11">
     <g id="line2d_35">
      <g>
       <use xlink:href="#m943253c441" x="32.506875" y="218.519061" style="stroke: #000000; stroke-width: 0.8"/>
      </g>
     </g>
     <g id="text_35">
      <text style="font-size: 7px; font-family: 'PingFang SC', 'Heiti SC', 'STHeiti', 'Arial Unicode MS', 'Arial', 'Helvetica', 'DejaVu Sans', sans-serif; text-anchor: end" x="26.006875" y="221.304843" transform="rotate(-0 26.006875 221.304843)">20</text>
     </g>
    </g>
    <g id="ytick_12">
     <g id="line2d_36">
      <g>
       <use xlink:href="#m943253c441" x="32.506875" y="202.357561" style="stroke: #000000; stroke-width: 0.8"/>
      </g>
     </g>
     <g id="text_36">
      <text style="font-size: 7px; font-family: 'PingFang SC', 'Heiti SC', 'STHeiti', 'Arial Unicode MS', 'Arial', 'Helvetica', 'DejaVu Sans', sans-serif; text-anchor: end" x="26.006875" y="205.143342" transform="rotate(-0 26.006875 205.143342)">25</text>
     </g>
    </g>
    <g id="ytick_13">
     <g id="line2d_37">
      <g>
       <use xlink:href="#m943253c441" x="32.506875" y="186.196061" style="stroke: #000000; stroke-width: 0.8"/>
      </g>
     </g>
     <g id="text_37">
      <text style="font-size: 7px; font-family: 'PingFang SC', 'Heiti SC', 'STHeiti', 'Arial Unicode MS', 'Arial', 'Helvetica', 'DejaVu Sans', sans-serif; text-anchor: end" x="26.006875" y="188.981842" transform="rotate(-0 26.006875 188.981842)">30</text>
     </g>
    </g>
   </g>
   <g id="line2d_38">
    <path d="M 54.652109 283.165063 
L 77.962883 283.165063 
L 101.273656 203.487736 
L 124.584429 246.999468 
L 147.895202 223.416486 
L 171.205975 273.370214 
L 194.516748 283.165063 
L 217.827521 252.801032 
L 241.138294 273.370214 
L 264.449067 283.165063 
L 287.75984 252.801032 
L 311.070613 264.391603 
L 334.381386 283.165063 
L 357.69216 264.10278 
L 381.002933 272.390729 
L 404.313706 241.863451 
L 427.624479 252.637784 
L 450.935252 263.575365 
L 474.246025 273.370214 
L 497.556798 253.780517 
" clip-path="url(#p389a3fb243)" style="fill: none; stroke: #0f4d92; stroke-linecap: square"/>
   </g>
   <g id="line2d_39">
    <path d="M 54.652109 283.165063 
L 77.962883 263.342155 
L 101.273656 212.936707 
L 124.584429 242.878424 
L 147.895202 253.973169 
L 171.205975 264.391603 
L 194.516748 273.370214 
L 217.827521 273.796077 
L 241.138294 268.006368 
L 264.449067 264.427091 
L 287.75984 264.163056 
L 311.070613 273.093403 
L 334.381386 263.085623 
L 357.69216 273.349935 
L 381.002933 252.109823 
L 404.313706 273.370214 
L 427.624479 259.083525 
L 450.935252 273.370214 
L 474.246025 254.940993 
L 497.556798 250.457265 
" clip-path="url(#p389a3fb243)" style="fill: none; stroke: #8bcf8b; stroke-linecap: square"/>
   </g>
   <g id="line2d_40">
    <path d="M 54.652109 283.165063 
L 77.962883 281.206093 
L 101.273656 178.414598 
L 124.584429 241.930781 
L 147.895202 254.770454 
L 171.205975 275.413038 
L 194.516748 269.58074 
L 217.827521 278.939834 
L 241.138294 274.916208 
L 264.449067 271.460153 
L 287.75984 267.653598 
L 311.070613 265.582321 
L 334.381386 265.460412 
L 357.69216 265.807915 
L 381.002933 281.206093 
L 404.313706 271.820167 
L 427.624479 259.835733 
L 450.935252 266.601487 
L 474.246025 255.641302 
L 497.556798 247.666576 
" clip-path="url(#p389a3fb243)" style="fill: none; stroke: #4d4d4d; stroke-linecap: square"/>
   </g>
   <g id="line2d_41">
    <path d="M 54.652109 283.165063 
L 77.962883 274.092336 
L 101.273656 185.470027 
L 124.584429 255.074841 
L 147.895202 274.874423 
L 171.205975 268.845456 
L 194.516748 268.568101 
L 217.827521 272.971556 
L 241.138294 276.050079 
L 264.449067 276.506798 
L 287.75984 269.49591 
L 311.070613 267.934982 
L 334.381386 263.003622 
L 357.69216 262.202201 
L 381.002933 278.007127 
L 404.313706 271.696369 
L 427.624479 264.133443 
L 450.935252 267.703825 
L 474.246025 260.20674 
L 497.556798 259.550481 
" clip-path="url(#p389a3fb243)" style="fill: none; stroke: #b64342; stroke-linecap: square"/>
   </g>
   <g id="patch_6">
    <path d="M 32.506875 288.402586 
L 32.506875 173.177074 
" style="fill: none; stroke: #000000; stroke-width: 0.8; stroke-linejoin: miter; stroke-linecap: square"/>
   </g>
   <g id="patch_7">
    <path d="M 32.506875 288.402586 
L 519.702032 288.402586 
" style="fill: none; stroke: #000000; stroke-width: 0.8; stroke-linejoin: miter; stroke-linecap: square"/>
   </g>
   <g id="text_38">
    <text style="font-size: 7px; font-family: 'PingFang SC', 'Heiti SC', 'STHeiti', 'Arial Unicode MS', 'Arial', 'Helvetica', 'DejaVu Sans', sans-serif; text-anchor: middle; fill: #4d4d4d" x="276.104454" y="167.177074" transform="rotate(-0 276.104454 167.177074)">基底市场：Ethereum</text>
   </g>
   <g id="legend_2">
    <g id="line2d_42">
     <path d="M 483.233282 180.652699 
L 488.033282 180.652699 
L 492.833282 180.652699 
" style="fill: none; stroke: #0f4d92; stroke-linecap: square"/>
    </g>
    <g id="text_39">
     <text style="font-size: 6px; font-family: 'PingFang SC', 'Heiti SC', 'STHeiti', 'Arial Unicode MS', 'Arial', 'Helvetica', 'DejaVu Sans', sans-serif; text-anchor: start" x="497.633282" y="182.752699" transform="rotate(-0 497.633282 182.752699)">n=10</text>
    </g>
    <g id="line2d_43">
     <path d="M 483.233282 189.232699 
L 488.033282 189.232699 
L 492.833282 189.232699 
" style="fill: none; stroke: #8bcf8b; stroke-linecap: square"/>
    </g>
    <g id="text_40">
     <text style="font-size: 6px; font-family: 'PingFang SC', 'Heiti SC', 'STHeiti', 'Arial Unicode MS', 'Arial', 'Helvetica', 'DejaVu Sans', sans-serif; text-anchor: start" x="497.633282" y="191.332699" transform="rotate(-0 497.633282 191.332699)">n=20</text>
    </g>
    <g id="line2d_44">
     <path d="M 483.233282 197.812699 
L 488.033282 197.812699 
L 492.833282 197.812699 
" style="fill: none; stroke: #4d4d4d; stroke-linecap: square"/>
    </g>
    <g id="text_41">
     <text style="font-size: 6px; font-family: 'PingFang SC', 'Heiti SC', 'STHeiti', 'Arial Unicode MS', 'Arial', 'Helvetica', 'DejaVu Sans', sans-serif; text-anchor: start" x="497.633282" y="199.912699" transform="rotate(-0 497.633282 199.912699)">n=50</text>
    </g>
    <g id="line2d_45">
     <path d="M 483.233282 206.392699 
L 488.033282 206.392699 
L 492.833282 206.392699 
" style="fill: none; stroke: #b64342; stroke-linecap: square"/>
    </g>
    <g id="text_42">
     <text style="font-size: 6px; font-family: 'PingFang SC', 'Heiti SC', 'STHeiti', 'Arial Unicode MS', 'Arial', 'Helvetica', 'DejaVu Sans', sans-serif; text-anchor: start" x="497.633282" y="208.492699" transform="rotate(-0 497.633282 208.492699)">n=100</text>
    </g>
   </g>
  </g>
 </g>
 <defs>
  <clipPath id="p87fd03dd82">
   <rect x="32.506875" y="18.771563" width="487.195157" height="115.225512"/>
  </clipPath>
  <clipPath id="p389a3fb243">
   <rect x="32.506875" y="173.177074" width="487.195157" height="115.225512"/>
  </clipPath>
 </defs>
</svg>
