<?xml version="1.0" encoding="utf-8" standalone="no"?>
<!DOCTYPE svg PUBLIC "-//W3C//DTD SVG 1.1//EN"
  "http://www.w3.org/Graphics/SVG/1.1/DTD/svg11.dtd">
<svg xmlns:xlink="http://www.w3.org/1999/xlink" width="526.913126pt" height="160.387897pt" viewBox="0 0 526.913126 160.387897" xmlns="http://www.w3.org/2000/svg" version="1.1">
 <metadata>
  <rdf:RDF xmlns:dc="http://purl.org/dc/elements/1.1/" xmlns:cc="http://creativecommons.org/ns#" xmlns:rdf="http://www.w3.org/1999/02/22-rdf-syntax-ns#">
   <cc:Work>
    <dc:type rdf:resource="http://purl.org/dc/dcmitype/StillImage"/>
    <dc:date>2026-05-29T20:53:24.091704</dc:date>
    <dc:format>image/svg+xml</dc:format>
    <dc:creator>
     <cc:Agent>
      <dc:title>Matplotlib v3.10.9, https://matplotlib.org/</dc:title>
     </cc:Agent>
    </dc:creator>
   </cc:Work>
  </rdf:RDF>
 </metadata>
 <defs>
  <style type="text/css">*{stroke-linejoin: round; stroke-linecap: butt}</style>
 </defs>
 <g id="figure_1">
  <g id="patch_1">
   <path d="M 0 160.387897 
L 526.913126 160.387897 
L 526.913126 0 
L 0 0 
z
" style="fill: #ffffff"/>
  </g>
  <g id="axes_1">
   <g id="patch_2">
    <path d="M 33.530469 129.197897 
L 519.713126 129.197897 
L 519.713126 19.319531 
L 33.530469 19.319531 
z
" style="fill: #ffffff"/>
   </g>
   <g id="PathCollection_1">
    <defs>
     <path id="m43d96f4003" d="M 0 1.414214 
C 0.375054 1.414214 0.734797 1.265203 1 1 
C 1.265203 0.734797 1.414214 0.375054 1.414214 0 
C 1.414214 -0.375054 1.265203 -0.734797 1 -1 
C 0.734797 -1.265203 0.375054 -1.414214 0 -1.414214 
C -0.375054 -1.414214 -0.734797 -1.265203 -1 -1 
C -1.265203 -0.734797 -1.414214 -0.375054 -1.414214 0 
C -1.414214 0.375054 -1.265203 0.734797 -1 1 
C -0.734797 1.265203 -0.375054 1.414214 0 1.414214 
z
"/>
    </defs>
    <g clip-path="url(#pb37a7aeb01)">
     <use xlink:href="#m43d96f4003" x="36.961539" y="72.819008" style="fill: #4d4d4d; fill-opacity: 0.75"/>
     <use xlink:href="#m43d96f4003" x="60.240699" y="71.667244" style="fill: #4d4d4d; fill-opacity: 0.75"/>
     <use xlink:href="#m43d96f4003" x="83.51986" y="71.63845" style="fill: #4d4d4d; fill-opacity: 0.75"/>
     <use xlink:href="#m43d96f4003" x="106.79902" y="71.609067" style="fill: #4d4d4d; fill-opacity: 0.75"/>
     <use xlink:href="#m43d96f4003" x="130.07818" y="71.379302" style="fill: #4d4d4d; fill-opacity: 0.75"/>
     <use xlink:href="#m43d96f4003" x="153.357341" y="71.474735" style="fill: #4d4d4d; fill-opacity: 0.75"/>
     <use xlink:href="#m43d96f4003" x="176.636501" y="75.383779" style="fill: #4d4d4d; fill-opacity: 0.75"/>
     <use xlink:href="#m43d96f4003" x="199.915661" y="82.552114" style="fill: #4d4d4d; fill-opacity: 0.75"/>
     <use xlink:href="#m43d96f4003" x="223.194822" y="65.198554" style="fill: #4d4d4d; fill-opacity: 0.75"/>
     <use xlink:href="#m43d96f4003" x="246.473982" y="44.386361" style="fill: #4d4d4d; fill-opacity: 0.75"/>
     <use xlink:href="#m43d96f4003" x="269.753142" y="38.789029" style="fill: #4d4d4d; fill-opacity: 0.75"/>
     <use xlink:href="#m43d96f4003" x="293.032303" y="45.608565" style="fill: #4d4d4d; fill-opacity: 0.75"/>
     <use xlink:href="#m43d96f4003" x="316.311463" y="42.957598" style="fill: #4d4d4d; fill-opacity: 0.75"/>
     <use xlink:href="#m43d96f4003" x="339.590623" y="31.271695" style="fill: #4d4d4d; fill-opacity: 0.75"/>
     <use xlink:href="#m43d96f4003" x="362.869784" y="36.124301" style="fill: #4d4d4d; fill-opacity: 0.75"/>
     <use xlink:href="#m43d96f4003" x="386.148944" y="25.420766" style="fill: #4d4d4d; fill-opacity: 0.75"/>
     <use xlink:href="#m43d96f4003" x="409.428104" y="45.774283" style="fill: #4d4d4d; fill-opacity: 0.75"/>
     <use xlink:href="#m43d96f4003" x="432.707265" y="45.640109" style="fill: #4d4d4d; fill-opacity: 0.75"/>
     <use xlink:href="#m43d96f4003" x="455.986425" y="82.112823" style="fill: #4d4d4d; fill-opacity: 0.75"/>
     <use xlink:href="#m43d96f4003" x="479.265585" y="116.697527" style="fill: #4d4d4d; fill-opacity: 0.75"/>
    </g>
   </g>
   <g id="matplotlib.axis_1">
    <g id="xtick_1">
     <g id="line2d_1">
      <defs>
       <path id="mf12c8bb575" d="M 0 0 
L 0 3 
" style="stroke: #000000; stroke-width: 0.8"/>
      </defs>
      <g>
       <use xlink:href="#mf12c8bb575" x="36.961539" y="129.197897" style="stroke: #000000; stroke-width: 0.8"/>
      </g>
     </g>
     <g id="text_1">
      <text style="font-size: 7px; font-family: 'Times New Roman', 'DejaVu Serif'; text-anchor: middle" x="36.961539" y="140.558522" transform="rotate(-0 36.961539 140.558522)">0</text>
     </g>
    </g>
    <g id="xtick_2">
     <g id="line2d_2">
      <g>
       <use xlink:href="#mf12c8bb575" x="91.858663" y="129.197897" style="stroke: #000000; stroke-width: 0.8"/>
      </g>
     </g>
     <g id="text_2">
      <text style="font-size: 7px; font-family: 'Times New Roman', 'DejaVu Serif'; text-anchor: middle" x="91.858663" y="140.558522" transform="rotate(-0 91.858663 140.558522)">8</text>
     </g>
    </g>
    <g id="xtick_3">
     <g id="line2d_3">
      <g>
       <use xlink:href="#mf12c8bb575" x="146.755788" y="129.197897" style="stroke: #000000; stroke-width: 0.8"/>
      </g>
     </g>
     <g id="text_3">
      <text style="font-size: 7px; font-family: 'Times New Roman', 'DejaVu Serif'; text-anchor: middle" x="146.755788" y="140.558522" transform="rotate(-0 146.755788 140.558522)">16</text>
     </g>
    </g>
    <g id="xtick_4">
     <g id="line2d_4">
      <g>
       <use xlink:href="#mf12c8bb575" x="201.652912" y="129.197897" style="stroke: #000000; stroke-width: 0.8"/>
      </g>
     </g>
     <g id="text_4">
      <text style="font-size: 7px; font-family: 'Times New Roman', 'DejaVu Serif'; text-anchor: middle" x="201.652912" y="140.558522" transform="rotate(-0 201.652912 140.558522)">24</text>
     </g>
    </g>
    <g id="xtick_5">
     <g id="line2d_5">
      <g>
       <use xlink:href="#mf12c8bb575" x="256.550036" y="129.197897" style="stroke: #000000; stroke-width: 0.8"/>
      </g>
     </g>
     <g id="text_5">
      <text style="font-size: 7px; font-family: 'Times New Roman', 'DejaVu Serif'; text-anchor: middle" x="256.550036" y="140.558522" transform="rotate(-0 256.550036 140.558522)">32</text>
     </g>
    </g>
    <g id="xtick_6">
     <g id="line2d_6">
      <g>
       <use xlink:href="#mf12c8bb575" x="311.447161" y="129.197897" style="stroke: #000000; stroke-width: 0.8"/>
      </g>
     </g>
     <g id="text_6">
      <text style="font-size: 7px; font-family: 'Times New Roman', 'DejaVu Serif'; text-anchor: middle" x="311.447161" y="140.558522" transform="rotate(-0 311.447161 140.558522)">40</text>
     </g>
    </g>
    <g id="xtick_7">
     <g id="line2d_7">
      <g>
       <use xlink:href="#mf12c8bb575" x="366.344285" y="129.197897" style="stroke: #000000; stroke-width: 0.8"/>
      </g>
     </g>
     <g id="text_7">
      <text style="font-size: 7px; font-family: 'Times New Roman', 'DejaVu Serif'; text-anchor: middle" x="366.344285" y="140.558522" transform="rotate(-0 366.344285 140.558522)">48</text>
     </g>
    </g>
    <g id="xtick_8">
     <g id="line2d_8">
      <g>
       <use xlink:href="#mf12c8bb575" x="421.241409" y="129.197897" style="stroke: #000000; stroke-width: 0.8"/>
      </g>
     </g>
     <g id="text_8">
      <text style="font-size: 7px; font-family: 'Times New Roman', 'DejaVu Serif'; text-anchor: middle" x="421.241409" y="140.558522" transform="rotate(-0 421.241409 140.558522)">56</text>
     </g>
    </g>
    <g id="xtick_9">
     <g id="line2d_9">
      <g>
       <use xlink:href="#mf12c8bb575" x="476.138534" y="129.197897" style="stroke: #000000; stroke-width: 0.8"/>
      </g>
     </g>
     <g id="text_9">
      <text style="font-size: 7px; font-family: 'Times New Roman', 'DejaVu Serif'; text-anchor: middle" x="476.138534" y="140.558522" transform="rotate(-0 476.138534 140.558522)">64</text>
     </g>
    </g>
    <g id="text_10">
     <text style="font-size: 7.5px; font-family: 'Songti SC', 'Arial Unicode MS'; text-anchor: middle" x="276.621797" y="152.144929" transform="rotate(-0 276.621797 152.144929)">累积成交笔数</text>
    </g>
   </g>
   <g id="matplotlib.axis_2">
    <g id="ytick_1">
     <g id="line2d_10">
      <defs>
       <path id="m3f1d019a5d" d="M 0 0 
L -3 0 
" style="stroke: #000000; stroke-width: 0.8"/>
      </defs>
      <g>
       <use xlink:href="#m3f1d019a5d" x="33.530469" y="126.088132" style="stroke: #000000; stroke-width: 0.8"/>
      </g>
     </g>
     <g id="text_11">
      <text style="font-size: 7px; font-family: 'Times New Roman', 'DejaVu Serif'; text-anchor: end" x="27.030469" y="128.518445" transform="rotate(-0 27.030469 128.518445)">0.0</text>
     </g>
    </g>
    <g id="ytick_2">
     <g id="line2d_11">
      <g>
       <use xlink:href="#m3f1d019a5d" x="33.530469" y="105.356365" style="stroke: #000000; stroke-width: 0.8"/>
      </g>
     </g>
     <g id="text_12">
      <text style="font-size: 7px; font-family: 'Times New Roman', 'DejaVu Serif'; text-anchor: end" x="27.030469" y="107.786678" transform="rotate(-0 27.030469 107.786678)">0.2</text>
     </g>
    </g>
    <g id="ytick_3">
     <g id="line2d_12">
      <g>
       <use xlink:href="#m3f1d019a5d" x="33.530469" y="84.624598" style="stroke: #000000; stroke-width: 0.8"/>
      </g>
     </g>
     <g id="text_13">
      <text style="font-size: 7px; font-family: 'Times New Roman', 'DejaVu Serif'; text-anchor: end" x="27.030469" y="87.05491" transform="rotate(-0 27.030469 87.05491)">0.4</text>
     </g>
    </g>
    <g id="ytick_4">
     <g id="line2d_13">
      <g>
       <use xlink:href="#m3f1d019a5d" x="33.530469" y="63.892831" style="stroke: #000000; stroke-width: 0.8"/>
      </g>
     </g>
     <g id="text_14">
      <text style="font-size: 7px; font-family: 'Times New Roman', 'DejaVu Serif'; text-anchor: end" x="27.030469" y="66.323143" transform="rotate(-0 27.030469 66.323143)">0.6</text>
     </g>
    </g>
    <g id="ytick_5">
     <g id="line2d_14">
      <g>
       <use xlink:href="#m3f1d019a5d" x="33.530469" y="43.161064" style="stroke: #000000; stroke-width: 0.8"/>
      </g>
     </g>
     <g id="text_15">
      <text style="font-size: 7px; font-family: 'Times New Roman', 'DejaVu Serif'; text-anchor: end" x="27.030469" y="45.591376" transform="rotate(-0 27.030469 45.591376)">0.8</text>
     </g>
    </g>
    <g id="ytick_6">
     <g id="line2d_15">
      <g>
       <use xlink:href="#m3f1d019a5d" x="33.530469" y="22.429296" style="stroke: #000000; stroke-width: 0.8"/>
      </g>
     </g>
     <g id="text_16">
      <text style="font-size: 7px; font-family: 'Times New Roman', 'DejaVu Serif'; text-anchor: end" x="27.030469" y="24.859609" transform="rotate(-0 27.030469 24.859609)">1.0</text>
     </g>
    </g>
    <g id="text_17">
     <text style="font-size: 7.5px; font-family: 'Songti SC', 'Arial Unicode MS'; text-anchor: middle" x="13.2375" y="74.258714" transform="rotate(-90 13.2375 74.258714)">YES 价格</text>
    </g>
   </g>
   <g id="line2d_16">
    <path d="M 36.961539 70.112361 
L 64.410101 70.112361 
L 78.134382 70.112361 
L 105.582944 71.667243 
L 119.307226 71.148949 
L 133.031507 71.148949 
L 181.06649 71.667243 
L 181.06649 71.667243 
L 201.652912 71.667243 
L 201.652912 71.667243 
L 201.652912 71.667243 
L 229.101474 71.667243 
L 256.550036 71.667243 
L 263.412177 71.148949 
L 311.447161 72.185538 
L 366.344285 70.112361 
L 414.379269 72.185538 
L 434.965691 71.148949 
L 441.827831 72.185538 
L 448.689972 71.667243 
L 496.724955 72.703832 
" clip-path="url(#pb37a7aeb01)" style="fill: none; stroke: #0f4d92; stroke-width: 1.5; stroke-linecap: square"/>
    <defs>
     <path id="m71dbd1f7b5" d="M 0 1.4 
C 0.371284 1.4 0.727412 1.252487 0.989949 0.989949 
C 1.252487 0.727412 1.4 0.371284 1.4 0 
C 1.4 -0.371284 1.252487 -0.727412 0.989949 -0.989949 
C 0.727412 -1.252487 0.371284 -1.4 0 -1.4 
C -0.371284 -1.4 -0.727412 -1.252487 -0.989949 -0.989949 
C -1.252487 -0.727412 -1.4 -0.371284 -1.4 0 
C -1.4 0.371284 -1.252487 0.727412 -0.989949 0.989949 
C -0.727412 1.252487 -0.371284 1.4 0 1.4 
z
" style="stroke: #0f4d92"/>
    </defs>
    <g clip-path="url(#pb37a7aeb01)">
     <use xlink:href="#m71dbd1f7b5" x="36.961539" y="70.112361" style="fill: #0f4d92; stroke: #0f4d92"/>
     <use xlink:href="#m71dbd1f7b5" x="64.410101" y="70.112361" style="fill: #0f4d92; stroke: #0f4d92"/>
     <use xlink:href="#m71dbd1f7b5" x="78.134382" y="70.112361" style="fill: #0f4d92; stroke: #0f4d92"/>
     <use xlink:href="#m71dbd1f7b5" x="105.582944" y="71.667243" style="fill: #0f4d92; stroke: #0f4d92"/>
     <use xlink:href="#m71dbd1f7b5" x="119.307226" y="71.148949" style="fill: #0f4d92; stroke: #0f4d92"/>
     <use xlink:href="#m71dbd1f7b5" x="133.031507" y="71.148949" style="fill: #0f4d92; stroke: #0f4d92"/>
     <use xlink:href="#m71dbd1f7b5" x="181.06649" y="71.667243" style="fill: #0f4d92; stroke: #0f4d92"/>
     <use xlink:href="#m71dbd1f7b5" x="181.06649" y="71.667243" style="fill: #0f4d92; stroke: #0f4d92"/>
     <use xlink:href="#m71dbd1f7b5" x="201.652912" y="71.667243" style="fill: #0f4d92; stroke: #0f4d92"/>
     <use xlink:href="#m71dbd1f7b5" x="201.652912" y="71.667243" style="fill: #0f4d92; stroke: #0f4d92"/>
     <use xlink:href="#m71dbd1f7b5" x="201.652912" y="71.667243" style="fill: #0f4d92; stroke: #0f4d92"/>
     <use xlink:href="#m71dbd1f7b5" x="229.101474" y="71.667243" style="fill: #0f4d92; stroke: #0f4d92"/>
     <use xlink:href="#m71dbd1f7b5" x="256.550036" y="71.667243" style="fill: #0f4d92; stroke: #0f4d92"/>
     <use xlink:href="#m71dbd1f7b5" x="263.412177" y="71.148949" style="fill: #0f4d92; stroke: #0f4d92"/>
     <use xlink:href="#m71dbd1f7b5" x="311.447161" y="72.185538" style="fill: #0f4d92; stroke: #0f4d92"/>
     <use xlink:href="#m71dbd1f7b5" x="366.344285" y="70.112361" style="fill: #0f4d92; stroke: #0f4d92"/>
     <use xlink:href="#m71dbd1f7b5" x="414.379269" y="72.185538" style="fill: #0f4d92; stroke: #0f4d92"/>
     <use xlink:href="#m71dbd1f7b5" x="434.965691" y="71.148949" style="fill: #0f4d92; stroke: #0f4d92"/>
     <use xlink:href="#m71dbd1f7b5" x="441.827831" y="72.185538" style="fill: #0f4d92; stroke: #0f4d92"/>
     <use xlink:href="#m71dbd1f7b5" x="448.689972" y="71.667243" style="fill: #0f4d92; stroke: #0f4d92"/>
     <use xlink:href="#m71dbd1f7b5" x="496.724955" y="72.703832" style="fill: #0f4d92; stroke: #0f4d92"/>
    </g>
   </g>
   <g id="line2d_17">
    <path d="M 36.961539 72.819008 
L 42.781329 72.329507 
L 48.601119 71.566892 
L 54.420909 71.682051 
L 60.240699 71.667244 
L 66.060489 71.638448 
L 71.88028 71.771446 
L 77.70007 72.039314 
L 83.51986 71.63845 
L 89.33965 71.552876 
L 95.15944 71.563583 
L 100.97923 70.865853 
L 106.79902 71.609067 
L 112.61881 71.504351 
L 118.4386 71.29292 
L 124.25839 71.408096 
L 130.07818 71.379302 
L 135.89797 71.593202 
L 141.71776 71.523273 
L 147.537551 71.724832 
L 153.357341 71.474735 
L 159.177131 71.609655 
L 164.996921 71.86923 
L 170.816711 72.371481 
L 176.636501 75.383779 
L 182.456291 82.349862 
L 188.276081 82.974747 
L 194.095871 78.707102 
L 199.915661 82.552114 
L 205.735451 84.460397 
L 211.555241 77.800424 
L 217.375032 72.97156 
L 223.194822 65.198554 
L 229.014612 62.691218 
L 234.834402 53.906426 
L 240.654192 45.215185 
L 246.473982 44.386361 
L 252.293772 47.524835 
L 258.113562 46.951184 
L 263.933352 40.895065 
L 269.753142 38.789029 
L 275.572932 41.582511 
L 281.392722 40.656143 
L 287.212512 43.814479 
L 293.032303 45.608565 
L 298.852093 41.379616 
L 304.671883 35.735754 
L 310.491673 39.801517 
L 316.311463 42.957598 
L 322.131253 42.32579 
L 327.951043 46.690171 
L 333.770833 36.647279 
L 339.590623 31.271695 
L 345.410413 31.32668 
L 351.230203 33.543555 
L 357.049993 36.558419 
L 362.869784 36.124301 
L 368.689574 33.273394 
L 374.509364 26.643192 
L 380.329154 27.061032 
L 386.148944 25.420766 
L 391.968734 25.036971 
L 397.788524 26.94547 
L 403.608314 34.718135 
L 409.428104 45.774283 
L 415.247894 49.021369 
L 421.067684 39.423857 
L 426.887474 39.27797 
L 432.707265 45.640109 
L 438.527055 61.947553 
L 444.346845 67.671785 
L 450.166635 73.999567 
L 455.986425 82.112823 
L 461.806215 108.79297 
L 467.626005 117.435985 
L 473.445795 117.412892 
L 479.265585 116.697527 
L 485.085375 117.144086 
L 490.905165 123.017578 
" clip-path="url(#pb37a7aeb01)" style="fill: none; stroke: #4d4d4d; stroke-opacity: 0.86; stroke-width: 1.25; stroke-linecap: square"/>
   </g>
   <g id="line2d_18">
    <path d="M 496.724955 129.197897 
L 496.724955 19.319531 
" clip-path="url(#pb37a7aeb01)" style="fill: none; stroke-dasharray: 5.12,1.28,0.8,1.28; stroke-dashoffset: 0; stroke: #4d4d4d; stroke-opacity: 0.75; stroke-width: 0.8"/>
   </g>
   <g id="line2d_19">
    <path d="M 33.530469 126.088132 
L 519.713126 126.088132 
" clip-path="url(#pb37a7aeb01)" style="fill: none; stroke-dasharray: 3.33,1.44; stroke-dashoffset: 0; stroke: #8bcf8b; stroke-width: 0.9"/>
   </g>
   <g id="line2d_20">
    <path d="M 33.530469 74.258714 
L 519.713126 74.258714 
" clip-path="url(#pb37a7aeb01)" style="fill: none; stroke-dasharray: 0.8,1.32; stroke-dashoffset: 0; stroke: #767676; stroke-width: 0.8"/>
   </g>
   <g id="patch_3">
    <path d="M 33.530469 129.197897 
L 33.530469 19.319531 
" style="fill: none; stroke: #000000; stroke-width: 0.8; stroke-linejoin: miter; stroke-linecap: square"/>
   </g>
   <g id="patch_4">
    <path d="M 33.530469 129.197897 
L 519.713126 129.197897 
" style="fill: none; stroke: #000000; stroke-width: 0.8; stroke-linejoin: miter; stroke-linecap: square"/>
   </g>
   <g id="text_18">
    <text style="font-size: 7.5px; font-family: 'Songti SC', 'Arial Unicode MS'; text-anchor: middle" x="276.621797" y="13.319531" transform="rotate(-0 276.621797 13.319531)">NFL乌鸦对比尔比赛结果</text>
   </g>
   <g id="legend_1">
    <g id="line2d_21">
     <path d="M 38.490469 27.100531 
L 43.450469 27.100531 
L 48.410469 27.100531 
" style="fill: none; stroke: #0f4d92; stroke-width: 1.5; stroke-linecap: square"/>
     <g>
      <use xlink:href="#m71dbd1f7b5" x="43.450469" y="27.100531" style="fill: #0f4d92; stroke: #0f4d92"/>
     </g>
    </g>
    <g id="text_19">
     <text style="font-size: 6.2px; font-family: 'Songti SC', 'Arial Unicode MS'; text-anchor: start" x="53.370469" y="29.270531" transform="rotate(-0 53.370469 29.270531)">模拟市场价格</text>
    </g>
    <g id="line2d_22">
     <path d="M 38.490469 36.053719 
L 43.450469 36.053719 
L 48.410469 36.053719 
" style="fill: none; stroke: #4d4d4d; stroke-opacity: 0.86; stroke-width: 1.25; stroke-linecap: square"/>
    </g>
    <g id="text_20">
     <text style="font-size: 6.2px; font-family: 'Songti SC', 'Arial Unicode MS'; text-anchor: start" x="53.370469" y="38.223719" transform="rotate(-0 53.370469 38.223719)">真实市场价格</text>
    </g>
    <g id="line2d_23">
     <path d="M 38.490469 45.037906 
L 43.450469 45.037906 
L 48.410469 45.037906 
" style="fill: none; stroke-dasharray: 5.12,1.28,0.8,1.28; stroke-dashoffset: 0; stroke: #4d4d4d; stroke-opacity: 0.75; stroke-width: 0.8"/>
    </g>
    <g id="text_21">
     <text style="font-size: 6.2px; font-family: 'Songti SC', 'Arial Unicode MS'; text-anchor: start" x="53.370469" y="47.207906" transform="rotate(-0 53.370469 47.207906)">事件结束</text>
    </g>
   </g>
  </g>
 </g>
 <defs>
  <clipPath id="pb37a7aeb01">
   <rect x="33.530469" y="19.319531" width="486.182657" height="109.878366"/>
  </clipPath>
 </defs>
</svg>
