<?xml version="1.0" encoding="utf-8" standalone="no"?>
<!DOCTYPE svg PUBLIC "-//W3C//DTD SVG 1.1//EN"
  "http://www.w3.org/Graphics/SVG/1.1/DTD/svg11.dtd">
<svg xmlns:xlink="http://www.w3.org/1999/xlink" width="527.040157pt" height="160.350866pt" viewBox="0 0 527.040157 160.350866" xmlns="http://www.w3.org/2000/svg" version="1.1">
 <metadata>
  <rdf:RDF xmlns:dc="http://purl.org/dc/elements/1.1/" xmlns:cc="http://creativecommons.org/ns#" xmlns:rdf="http://www.w3.org/1999/02/22-rdf-syntax-ns#">
   <cc:Work>
    <dc:type rdf:resource="http://purl.org/dc/dcmitype/StillImage"/>
    <dc:date>2026-05-29T20:53:19.032949</dc:date>
    <dc:format>image/svg+xml</dc:format>
    <dc:creator>
     <cc:Agent>
      <dc:title>Matplotlib v3.10.9, https://matplotlib.org/</dc:title>
     </cc:Agent>
    </dc:creator>
   </cc:Work>
  </rdf:RDF>
 </metadata>
 <defs>
  <style type="text/css">*{stroke-linejoin: round; stroke-linecap: butt}</style>
 </defs>
 <g id="figure_1">
  <g id="patch_1">
   <path d="M 0 160.350866 
L 527.040157 160.350866 
L 527.040157 0 
L 0 0 
z
" style="fill: #ffffff"/>
  </g>
  <g id="axes_1">
   <g id="patch_2">
    <path d="M 33.575 129.220632 
L 519.840157 129.220632 
L 519.840157 19.334766 
L 33.575 19.334766 
z
" style="fill: #ffffff"/>
   </g>
   <g id="PathCollection_1">
    <defs>
     <path id="ma22f4ae458" d="M 0 1.414214 
C 0.375054 1.414214 0.734797 1.265203 1 1 
C 1.265203 0.734797 1.414214 0.375054 1.414214 0 
C 1.414214 -0.375054 1.265203 -0.734797 1 -1 
C 0.734797 -1.265203 0.375054 -1.414214 0 -1.414214 
C -0.375054 -1.414214 -0.734797 -1.265203 -1 -1 
C -1.265203 -0.734797 -1.414214 -0.375054 -1.414214 0 
C -1.414214 0.375054 -1.265203 0.734797 -1 1 
C -0.734797 1.265203 -0.375054 1.414214 0 1.414214 
z
"/>
    </defs>
    <g clip-path="url(#pd91715cb99)">
     <use xlink:href="#ma22f4ae458" x="55.677962" y="71.689367" style="fill: #4d4d4d; fill-opacity: 0.75"/>
     <use xlink:href="#ma22f4ae458" x="78.060708" y="82.322549" style="fill: #4d4d4d; fill-opacity: 0.75"/>
     <use xlink:href="#ma22f4ae458" x="100.443454" y="83.994184" style="fill: #4d4d4d; fill-opacity: 0.75"/>
     <use xlink:href="#ma22f4ae458" x="122.8262" y="78.273815" style="fill: #4d4d4d; fill-opacity: 0.75"/>
     <use xlink:href="#ma22f4ae458" x="145.208946" y="66.461613" style="fill: #4d4d4d; fill-opacity: 0.75"/>
     <use xlink:href="#ma22f4ae458" x="167.591692" y="62.765333" style="fill: #4d4d4d; fill-opacity: 0.75"/>
     <use xlink:href="#ma22f4ae458" x="189.974438" y="61.994629" style="fill: #4d4d4d; fill-opacity: 0.75"/>
     <use xlink:href="#ma22f4ae458" x="212.357184" y="73.637374" style="fill: #4d4d4d; fill-opacity: 0.75"/>
     <use xlink:href="#ma22f4ae458" x="234.73993" y="69.647831" style="fill: #4d4d4d; fill-opacity: 0.75"/>
     <use xlink:href="#ma22f4ae458" x="257.122676" y="70.131062" style="fill: #4d4d4d; fill-opacity: 0.75"/>
     <use xlink:href="#ma22f4ae458" x="279.505422" y="71.353032" style="fill: #4d4d4d; fill-opacity: 0.75"/>
     <use xlink:href="#ma22f4ae458" x="301.888168" y="72.848562" style="fill: #4d4d4d; fill-opacity: 0.75"/>
     <use xlink:href="#ma22f4ae458" x="324.270914" y="63.434813" style="fill: #4d4d4d; fill-opacity: 0.75"/>
     <use xlink:href="#ma22f4ae458" x="346.65366" y="61.880307" style="fill: #4d4d4d; fill-opacity: 0.75"/>
     <use xlink:href="#ma22f4ae458" x="369.036406" y="51.152018" style="fill: #4d4d4d; fill-opacity: 0.75"/>
     <use xlink:href="#ma22f4ae458" x="391.419152" y="44.463843" style="fill: #4d4d4d; fill-opacity: 0.75"/>
     <use xlink:href="#ma22f4ae458" x="413.801898" y="40.254265" style="fill: #4d4d4d; fill-opacity: 0.75"/>
     <use xlink:href="#ma22f4ae458" x="436.184644" y="33.933795" style="fill: #4d4d4d; fill-opacity: 0.75"/>
     <use xlink:href="#ma22f4ae458" x="458.56739" y="26.152" style="fill: #4d4d4d; fill-opacity: 0.75"/>
     <use xlink:href="#ma22f4ae458" x="480.950136" y="31.856317" style="fill: #4d4d4d; fill-opacity: 0.75"/>
    </g>
   </g>
   <g id="matplotlib.axis_1">
    <g id="xtick_1">
     <g id="line2d_1">
      <defs>
       <path id="m29d6cf2c7e" d="M 0 0 
L 0 3 
" style="stroke: #000000; stroke-width: 0.8"/>
      </defs>
      <g>
       <use xlink:href="#m29d6cf2c7e" x="55.677962" y="129.220632" style="stroke: #000000; stroke-width: 0.8"/>
      </g>
     </g>
     <g id="text_1">
      <text style="font-size: 7px; font-family: 'Times New Roman', 'DejaVu Serif'; text-anchor: middle" x="55.677962" y="140.581257" transform="rotate(-0 55.677962 140.581257)">0</text>
     </g>
    </g>
    <g id="xtick_2">
     <g id="line2d_2">
      <g>
       <use xlink:href="#m29d6cf2c7e" x="125.476788" y="129.220632" style="stroke: #000000; stroke-width: 0.8"/>
      </g>
     </g>
     <g id="text_2">
      <text style="font-size: 7px; font-family: 'Times New Roman', 'DejaVu Serif'; text-anchor: middle" x="125.476788" y="140.581257" transform="rotate(-0 125.476788 140.581257)">3</text>
     </g>
    </g>
    <g id="xtick_3">
     <g id="line2d_3">
      <g>
       <use xlink:href="#m29d6cf2c7e" x="195.275615" y="129.220632" style="stroke: #000000; stroke-width: 0.8"/>
      </g>
     </g>
     <g id="text_3">
      <text style="font-size: 7px; font-family: 'Times New Roman', 'DejaVu Serif'; text-anchor: middle" x="195.275615" y="140.581257" transform="rotate(-0 195.275615 140.581257)">6</text>
     </g>
    </g>
    <g id="xtick_4">
     <g id="line2d_4">
      <g>
       <use xlink:href="#m29d6cf2c7e" x="265.074441" y="129.220632" style="stroke: #000000; stroke-width: 0.8"/>
      </g>
     </g>
     <g id="text_4">
      <text style="font-size: 7px; font-family: 'Times New Roman', 'DejaVu Serif'; text-anchor: middle" x="265.074441" y="140.581257" transform="rotate(-0 265.074441 140.581257)">9</text>
     </g>
    </g>
    <g id="xtick_5">
     <g id="line2d_5">
      <g>
       <use xlink:href="#m29d6cf2c7e" x="334.873267" y="129.220632" style="stroke: #000000; stroke-width: 0.8"/>
      </g>
     </g>
     <g id="text_5">
      <text style="font-size: 7px; font-family: 'Times New Roman', 'DejaVu Serif'; text-anchor: middle" x="334.873267" y="140.581257" transform="rotate(-0 334.873267 140.581257)">12</text>
     </g>
    </g>
    <g id="xtick_6">
     <g id="line2d_6">
      <g>
       <use xlink:href="#m29d6cf2c7e" x="404.672094" y="129.220632" style="stroke: #000000; stroke-width: 0.8"/>
      </g>
     </g>
     <g id="text_6">
      <text style="font-size: 7px; font-family: 'Times New Roman', 'DejaVu Serif'; text-anchor: middle" x="404.672094" y="140.581257" transform="rotate(-0 404.672094 140.581257)">15</text>
     </g>
    </g>
    <g id="xtick_7">
     <g id="line2d_7">
      <g>
       <use xlink:href="#m29d6cf2c7e" x="474.47092" y="129.220632" style="stroke: #000000; stroke-width: 0.8"/>
      </g>
     </g>
     <g id="text_7">
      <text style="font-size: 7px; font-family: 'Times New Roman', 'DejaVu Serif'; text-anchor: middle" x="474.47092" y="140.581257" transform="rotate(-0 474.47092 140.581257)">18</text>
     </g>
    </g>
    <g id="text_8">
     <text style="font-size: 7.5px; font-family: 'Songti SC', 'Arial Unicode MS'; text-anchor: middle" x="276.707579" y="152.107897" transform="rotate(-0 276.707579 152.107897)">决策轮次 tick</text>
    </g>
   </g>
   <g id="matplotlib.axis_2">
    <g id="ytick_1">
     <g id="line2d_8">
      <defs>
       <path id="m6d321ce841" d="M 0 0 
L -3 0 
" style="stroke: #000000; stroke-width: 0.8"/>
      </defs>
      <g>
       <use xlink:href="#m6d321ce841" x="33.575" y="126.110654" style="stroke: #000000; stroke-width: 0.8"/>
      </g>
     </g>
     <g id="text_9">
      <text style="font-size: 7px; font-family: 'Times New Roman', 'DejaVu Serif'; text-anchor: end" x="27.075" y="128.540967" transform="rotate(-0 27.075 128.540967)">0.0</text>
     </g>
    </g>
    <g id="ytick_2">
     <g id="line2d_9">
      <g>
       <use xlink:href="#m6d321ce841" x="33.575" y="105.377472" style="stroke: #000000; stroke-width: 0.8"/>
      </g>
     </g>
     <g id="text_10">
      <text style="font-size: 7px; font-family: 'Times New Roman', 'DejaVu Serif'; text-anchor: end" x="27.075" y="107.807785" transform="rotate(-0 27.075 107.807785)">0.2</text>
     </g>
    </g>
    <g id="ytick_3">
     <g id="line2d_10">
      <g>
       <use xlink:href="#m6d321ce841" x="33.575" y="84.64429" style="stroke: #000000; stroke-width: 0.8"/>
      </g>
     </g>
     <g id="text_11">
      <text style="font-size: 7px; font-family: 'Times New Roman', 'DejaVu Serif'; text-anchor: end" x="27.075" y="87.074602" transform="rotate(-0 27.075 87.074602)">0.4</text>
     </g>
    </g>
    <g id="ytick_4">
     <g id="line2d_11">
      <g>
       <use xlink:href="#m6d321ce841" x="33.575" y="63.911108" style="stroke: #000000; stroke-width: 0.8"/>
      </g>
     </g>
     <g id="text_12">
      <text style="font-size: 7px; font-family: 'Times New Roman', 'DejaVu Serif'; text-anchor: end" x="27.075" y="66.34142" transform="rotate(-0 27.075 66.34142)">0.6</text>
     </g>
    </g>
    <g id="ytick_5">
     <g id="line2d_12">
      <g>
       <use xlink:href="#m6d321ce841" x="33.575" y="43.177925" style="stroke: #000000; stroke-width: 0.8"/>
      </g>
     </g>
     <g id="text_13">
      <text style="font-size: 7px; font-family: 'Times New Roman', 'DejaVu Serif'; text-anchor: end" x="27.075" y="45.608238" transform="rotate(-0 27.075 45.608238)">0.8</text>
     </g>
    </g>
    <g id="ytick_6">
     <g id="line2d_13">
      <g>
       <use xlink:href="#m6d321ce841" x="33.575" y="22.444743" style="stroke: #000000; stroke-width: 0.8"/>
      </g>
     </g>
     <g id="text_14">
      <text style="font-size: 7px; font-family: 'Times New Roman', 'DejaVu Serif'; text-anchor: end" x="27.075" y="24.875055" transform="rotate(-0 27.075 24.875055)">1.0</text>
     </g>
    </g>
    <g id="text_15">
     <text style="font-size: 7.5px; font-family: 'Songti SC', 'Arial Unicode MS'; text-anchor: middle" x="13.282031" y="74.277699" transform="rotate(-90 13.282031 74.277699)">YES 中间价</text>
    </g>
   </g>
   <g id="line2d_14">
    <path d="M 55.677962 67.539414 
L 78.944237 69.612733 
L 102.210513 65.984426 
L 125.476788 65.984426 
L 148.743064 66.502755 
L 172.009339 64.429437 
L 195.275615 64.947767 
L 218.54189 63.911108 
L 241.808166 64.429437 
L 265.074441 63.911108 
L 288.340716 63.392778 
L 311.606992 63.392778 
L 334.873267 63.392778 
L 358.139543 63.392778 
L 381.405818 63.392778 
L 404.672094 63.392778 
L 427.938369 63.392778 
L 451.204645 63.392778 
L 474.47092 68.057744 
L 497.737196 72.20438 
" clip-path="url(#pd91715cb99)" style="fill: none; stroke: #0f4d92; stroke-width: 1.5; stroke-linecap: square"/>
    <defs>
     <path id="m2175dab4e3" d="M 0 1.4 
C 0.371284 1.4 0.727412 1.252487 0.989949 0.989949 
C 1.252487 0.727412 1.4 0.371284 1.4 0 
C 1.4 -0.371284 1.252487 -0.727412 0.989949 -0.989949 
C 0.727412 -1.252487 0.371284 -1.4 0 -1.4 
C -0.371284 -1.4 -0.727412 -1.252487 -0.989949 -0.989949 
C -1.252487 -0.727412 -1.4 -0.371284 -1.4 0 
C -1.4 0.371284 -1.252487 0.727412 -0.989949 0.989949 
C -0.727412 1.252487 -0.371284 1.4 0 1.4 
z
" style="stroke: #0f4d92"/>
    </defs>
    <g clip-path="url(#pd91715cb99)">
     <use xlink:href="#m2175dab4e3" x="55.677962" y="67.539414" style="fill: #0f4d92; stroke: #0f4d92"/>
     <use xlink:href="#m2175dab4e3" x="78.944237" y="69.612733" style="fill: #0f4d92; stroke: #0f4d92"/>
     <use xlink:href="#m2175dab4e3" x="102.210513" y="65.984426" style="fill: #0f4d92; stroke: #0f4d92"/>
     <use xlink:href="#m2175dab4e3" x="125.476788" y="65.984426" style="fill: #0f4d92; stroke: #0f4d92"/>
     <use xlink:href="#m2175dab4e3" x="148.743064" y="66.502755" style="fill: #0f4d92; stroke: #0f4d92"/>
     <use xlink:href="#m2175dab4e3" x="172.009339" y="64.429437" style="fill: #0f4d92; stroke: #0f4d92"/>
     <use xlink:href="#m2175dab4e3" x="195.275615" y="64.947767" style="fill: #0f4d92; stroke: #0f4d92"/>
     <use xlink:href="#m2175dab4e3" x="218.54189" y="63.911108" style="fill: #0f4d92; stroke: #0f4d92"/>
     <use xlink:href="#m2175dab4e3" x="241.808166" y="64.429437" style="fill: #0f4d92; stroke: #0f4d92"/>
     <use xlink:href="#m2175dab4e3" x="265.074441" y="63.911108" style="fill: #0f4d92; stroke: #0f4d92"/>
     <use xlink:href="#m2175dab4e3" x="288.340716" y="63.392778" style="fill: #0f4d92; stroke: #0f4d92"/>
     <use xlink:href="#m2175dab4e3" x="311.606992" y="63.392778" style="fill: #0f4d92; stroke: #0f4d92"/>
     <use xlink:href="#m2175dab4e3" x="334.873267" y="63.392778" style="fill: #0f4d92; stroke: #0f4d92"/>
     <use xlink:href="#m2175dab4e3" x="358.139543" y="63.392778" style="fill: #0f4d92; stroke: #0f4d92"/>
     <use xlink:href="#m2175dab4e3" x="381.405818" y="63.392778" style="fill: #0f4d92; stroke: #0f4d92"/>
     <use xlink:href="#m2175dab4e3" x="404.672094" y="63.392778" style="fill: #0f4d92; stroke: #0f4d92"/>
     <use xlink:href="#m2175dab4e3" x="427.938369" y="63.392778" style="fill: #0f4d92; stroke: #0f4d92"/>
     <use xlink:href="#m2175dab4e3" x="451.204645" y="63.392778" style="fill: #0f4d92; stroke: #0f4d92"/>
     <use xlink:href="#m2175dab4e3" x="474.47092" y="68.057744" style="fill: #0f4d92; stroke: #0f4d92"/>
     <use xlink:href="#m2175dab4e3" x="497.737196" y="72.20438" style="fill: #0f4d92; stroke: #0f4d92"/>
    </g>
   </g>
   <g id="line2d_15">
    <path d="M 55.677962 71.689367 
L 61.273648 71.137781 
L 66.869335 73.747096 
L 72.465021 74.053627 
L 78.060708 82.322549 
L 83.656394 81.239323 
L 89.252081 86.16874 
L 94.847767 87.009882 
L 100.443454 83.994184 
L 106.03914 85.338147 
L 111.634827 81.814031 
L 117.230513 81.960717 
L 122.8262 78.273815 
L 128.421886 75.912533 
L 134.017573 69.641859 
L 139.613259 72.514938 
L 145.208946 66.461613 
L 150.804632 62.426189 
L 156.400319 62.437986 
L 161.996005 62.874457 
L 167.591692 62.765333 
L 173.187378 63.266705 
L 178.783065 63.328143 
L 184.378751 63.197243 
L 189.974438 61.994629 
L 195.570124 61.098646 
L 201.165811 65.239769 
L 206.761497 73.969928 
L 212.357184 73.637374 
L 217.95287 73.079692 
L 223.548557 73.147436 
L 229.144243 70.957929 
L 234.73993 69.647831 
L 240.335616 69.934937 
L 245.931303 69.912818 
L 251.526989 70.018991 
L 257.122676 70.131062 
L 262.718362 69.842542 
L 268.314049 69.858257 
L 273.909735 69.761737 
L 279.505422 71.353032 
L 285.101109 73.553053 
L 290.696795 73.204956 
L 296.292482 71.702549 
L 301.888168 72.848562 
L 307.483855 72.737211 
L 313.079541 68.702154 
L 318.675228 64.243856 
L 324.270914 63.434813 
L 329.866601 62.27946 
L 335.462287 62.74393 
L 341.057974 57.963958 
L 346.65366 61.880307 
L 352.249347 58.955255 
L 357.845033 59.780539 
L 363.44072 53.62784 
L 369.036406 51.152018 
L 374.632093 46.386628 
L 380.227779 46.59497 
L 385.823466 46.560708 
L 391.419152 44.463843 
L 397.014839 46.610533 
L 402.610525 45.643493 
L 408.206212 42.394815 
L 413.801898 40.254265 
L 419.397585 43.545732 
L 424.993271 40.286052 
L 430.588958 37.530862 
L 436.184644 33.933795 
L 441.780331 35.613334 
L 447.376017 31.09386 
L 452.971704 29.371016 
L 458.56739 26.152 
L 464.163077 25.984025 
L 469.758763 27.292469 
L 475.35445 29.569103 
L 480.950136 31.856317 
L 486.545823 32.247449 
L 492.141509 26.06219 
" clip-path="url(#pd91715cb99)" style="fill: none; stroke: #4d4d4d; stroke-opacity: 0.86; stroke-width: 1.25; stroke-linecap: square"/>
   </g>
   <g id="line2d_16">
    <path d="M 497.737196 129.220632 
L 497.737196 19.334766 
" clip-path="url(#pd91715cb99)" style="fill: none; stroke-dasharray: 5.12,1.28,0.8,1.28; stroke-dashoffset: 0; stroke: #4d4d4d; stroke-opacity: 0.75; stroke-width: 0.8"/>
   </g>
   <g id="line2d_17">
    <path d="M 33.575 22.444743 
L 519.840157 22.444743 
" clip-path="url(#pd91715cb99)" style="fill: none; stroke-dasharray: 3.33,1.44; stroke-dashoffset: 0; stroke: #b64342; stroke-width: 0.9"/>
   </g>
   <g id="line2d_18">
    <path d="M 33.575 74.277699 
L 519.840157 74.277699 
" clip-path="url(#pd91715cb99)" style="fill: none; stroke-dasharray: 0.8,1.32; stroke-dashoffset: 0; stroke: #767676; stroke-width: 0.8"/>
   </g>
   <g id="patch_3">
    <path d="M 33.575 129.220632 
L 33.575 19.334766 
" style="fill: none; stroke: #000000; stroke-width: 0.8; stroke-linejoin: miter; stroke-linecap: square"/>
   </g>
   <g id="patch_4">
    <path d="M 33.575 129.220632 
L 519.840157 129.220632 
" style="fill: none; stroke: #000000; stroke-width: 0.8; stroke-linejoin: miter; stroke-linecap: square"/>
   </g>
   <g id="text_16">
    <text style="font-size: 7.5px; font-family: 'Songti SC', 'Arial Unicode MS'; text-anchor: middle" x="276.707579" y="13.334766" transform="rotate(-0 276.707579 13.334766)">2025年底比特币高于10万美元</text>
   </g>
   <g id="legend_1">
    <g id="line2d_19">
     <path d="M 38.535 103.291069 
L 43.495 103.291069 
L 48.455 103.291069 
" style="fill: none; stroke: #0f4d92; stroke-width: 1.5; stroke-linecap: square"/>
     <g>
      <use xlink:href="#m2175dab4e3" x="43.495" y="103.291069" style="fill: #0f4d92; stroke: #0f4d92"/>
     </g>
    </g>
    <g id="text_17">
     <text style="font-size: 6.2px; font-family: 'Songti SC', 'Arial Unicode MS'; text-anchor: start" x="53.415" y="105.461069" transform="rotate(-0 53.415 105.461069)">模拟市场价格</text>
    </g>
    <g id="line2d_20">
     <path d="M 38.535 112.244257 
L 43.495 112.244257 
L 48.455 112.244257 
" style="fill: none; stroke: #4d4d4d; stroke-opacity: 0.86; stroke-width: 1.25; stroke-linecap: square"/>
    </g>
    <g id="text_18">
     <text style="font-size: 6.2px; font-family: 'Songti SC', 'Arial Unicode MS'; text-anchor: start" x="53.415" y="114.414257" transform="rotate(-0 53.415 114.414257)">真实市场价格</text>
    </g>
    <g id="line2d_21">
     <path d="M 38.535 121.228444 
L 43.495 121.228444 
L 48.455 121.228444 
" style="fill: none; stroke-dasharray: 5.12,1.28,0.8,1.28; stroke-dashoffset: 0; stroke: #4d4d4d; stroke-opacity: 0.75; stroke-width: 0.8"/>
    </g>
    <g id="text_19">
     <text style="font-size: 6.2px; font-family: 'Songti SC', 'Arial Unicode MS'; text-anchor: start" x="53.415" y="123.398444" transform="rotate(-0 53.415 123.398444)">事件结束</text>
    </g>
   </g>
  </g>
 </g>
 <defs>
  <clipPath id="pd91715cb99">
   <rect x="33.575" y="19.334766" width="486.265157" height="109.885866"/>
  </clipPath>
 </defs>
</svg>
