<?xml version="1.0" encoding="utf-8" standalone="no"?>
<!DOCTYPE svg PUBLIC "-//W3C//DTD SVG 1.1//EN"
  "http://www.w3.org/Graphics/SVG/1.1/DTD/svg11.dtd">
<svg xmlns:xlink="http://www.w3.org/1999/xlink" width="534.562998pt" height="347.968367pt" viewBox="0 0 534.562998 347.968367" xmlns="http://www.w3.org/2000/svg" version="1.1">
 <metadata>
  <rdf:RDF xmlns:dc="http://purl.org/dc/elements/1.1/" xmlns:cc="http://creativecommons.org/ns#" xmlns:rdf="http://www.w3.org/1999/02/22-rdf-syntax-ns#">
   <cc:Work>
    <dc:type rdf:resource="http://purl.org/dc/dcmitype/StillImage"/>
    <dc:date>2026-05-29T20:53:30.697561</dc:date>
    <dc:format>image/svg+xml</dc:format>
    <dc:creator>
     <cc:Agent>
      <dc:title>Matplotlib v3.10.9, https://matplotlib.org/</dc:title>
     </cc:Agent>
    </dc:creator>
   </cc:Work>
  </rdf:RDF>
 </metadata>
 <defs>
  <style type="text/css">*{stroke-linejoin: round; stroke-linecap: butt}</style>
 </defs>
 <g id="figure_1">
  <g id="patch_1">
   <path d="M 0 347.968367 
L 534.562998 347.968367 
L 534.562998 0 
L 0 0 
z
" style="fill: #ffffff"/>
  </g>
  <g id="axes_1">
   <g id="patch_2">
    <path d="M 78.94662 148.199627 
L 527.362998 148.199627 
L 527.362998 21.423643 
L 78.94662 21.423643 
z
" style="fill: #ffffff"/>
   </g>
   <g id="matplotlib.axis_1">
    <g id="xtick_1">
     <g id="line2d_1">
      <defs>
       <path id="mb261e1554f" d="M 0 0 
L 0 3 
" style="stroke: #000000; stroke-width: 0.8"/>
      </defs>
      <g>
       <use xlink:href="#mb261e1554f" x="99.329183" y="148.199627" style="stroke: #000000; stroke-width: 0.8"/>
      </g>
     </g>
     <g id="text_1">
      <text style="font-size: 7px; font-family: 'Times New Roman', 'DejaVu Serif'; text-anchor: middle" x="99.329183" y="159.560252" transform="rotate(-0 99.329183 159.560252)">0</text>
     </g>
    </g>
    <g id="xtick_2">
     <g id="line2d_2">
      <g>
       <use xlink:href="#mb261e1554f" x="144.323803" y="148.199627" style="stroke: #000000; stroke-width: 0.8"/>
      </g>
     </g>
     <g id="text_2">
      <text style="font-size: 7px; font-family: 'Times New Roman', 'DejaVu Serif'; text-anchor: middle" x="144.323803" y="159.560252" transform="rotate(-0 144.323803 159.560252)">50</text>
     </g>
    </g>
    <g id="xtick_3">
     <g id="line2d_3">
      <g>
       <use xlink:href="#mb261e1554f" x="189.318422" y="148.199627" style="stroke: #000000; stroke-width: 0.8"/>
      </g>
     </g>
     <g id="text_3">
      <text style="font-size: 7px; font-family: 'Times New Roman', 'DejaVu Serif'; text-anchor: middle" x="189.318422" y="159.560252" transform="rotate(-0 189.318422 159.560252)">100</text>
     </g>
    </g>
    <g id="xtick_4">
     <g id="line2d_4">
      <g>
       <use xlink:href="#mb261e1554f" x="234.313042" y="148.199627" style="stroke: #000000; stroke-width: 0.8"/>
      </g>
     </g>
     <g id="text_4">
      <text style="font-size: 7px; font-family: 'Times New Roman', 'DejaVu Serif'; text-anchor: middle" x="234.313042" y="159.560252" transform="rotate(-0 234.313042 159.560252)">150</text>
     </g>
    </g>
    <g id="xtick_5">
     <g id="line2d_5">
      <g>
       <use xlink:href="#mb261e1554f" x="279.307661" y="148.199627" style="stroke: #000000; stroke-width: 0.8"/>
      </g>
     </g>
     <g id="text_5">
      <text style="font-size: 7px; font-family: 'Times New Roman', 'DejaVu Serif'; text-anchor: middle" x="279.307661" y="159.560252" transform="rotate(-0 279.307661 159.560252)">200</text>
     </g>
    </g>
    <g id="xtick_6">
     <g id="line2d_6">
      <g>
       <use xlink:href="#mb261e1554f" x="324.302281" y="148.199627" style="stroke: #000000; stroke-width: 0.8"/>
      </g>
     </g>
     <g id="text_6">
      <text style="font-size: 7px; font-family: 'Times New Roman', 'DejaVu Serif'; text-anchor: middle" x="324.302281" y="159.560252" transform="rotate(-0 324.302281 159.560252)">250</text>
     </g>
    </g>
    <g id="xtick_7">
     <g id="line2d_7">
      <g>
       <use xlink:href="#mb261e1554f" x="369.2969" y="148.199627" style="stroke: #000000; stroke-width: 0.8"/>
      </g>
     </g>
     <g id="text_7">
      <text style="font-size: 7px; font-family: 'Times New Roman', 'DejaVu Serif'; text-anchor: middle" x="369.2969" y="159.560252" transform="rotate(-0 369.2969 159.560252)">300</text>
     </g>
    </g>
    <g id="xtick_8">
     <g id="line2d_8">
      <g>
       <use xlink:href="#mb261e1554f" x="414.29152" y="148.199627" style="stroke: #000000; stroke-width: 0.8"/>
      </g>
     </g>
     <g id="text_8">
      <text style="font-size: 7px; font-family: 'Times New Roman', 'DejaVu Serif'; text-anchor: middle" x="414.29152" y="159.560252" transform="rotate(-0 414.29152 159.560252)">350</text>
     </g>
    </g>
    <g id="xtick_9">
     <g id="line2d_9">
      <g>
       <use xlink:href="#mb261e1554f" x="459.286139" y="148.199627" style="stroke: #000000; stroke-width: 0.8"/>
      </g>
     </g>
     <g id="text_9">
      <text style="font-size: 7px; font-family: 'Times New Roman', 'DejaVu Serif'; text-anchor: middle" x="459.286139" y="159.560252" transform="rotate(-0 459.286139 159.560252)">400</text>
     </g>
    </g>
    <g id="xtick_10">
     <g id="line2d_10">
      <g>
       <use xlink:href="#mb261e1554f" x="504.280759" y="148.199627" style="stroke: #000000; stroke-width: 0.8"/>
      </g>
     </g>
     <g id="text_10">
      <text style="font-size: 7px; font-family: 'Times New Roman', 'DejaVu Serif'; text-anchor: middle" x="504.280759" y="159.560252" transform="rotate(-0 504.280759 159.560252)">450</text>
     </g>
    </g>
    <g id="text_11">
     <text style="font-size: 7.5px; font-family: 'Songti SC', 'Arial Unicode MS'; text-anchor: middle" x="303.154809" y="171.146658" transform="rotate(-0 303.154809 171.146658)">累积成交笔数</text>
    </g>
   </g>
   <g id="matplotlib.axis_2">
    <g id="ytick_1">
     <g id="line2d_11">
      <defs>
       <path id="mdf260e69f3" d="M 0 0 
L -3 0 
" style="stroke: #000000; stroke-width: 0.8"/>
      </defs>
      <g>
       <use xlink:href="#mdf260e69f3" x="78.94662" y="144.611628" style="stroke: #000000; stroke-width: 0.8"/>
      </g>
     </g>
     <g id="text_12">
      <text style="font-size: 7px; font-family: 'Times New Roman', 'DejaVu Serif'; text-anchor: end" x="72.44662" y="147.04194" transform="rotate(-0 72.44662 147.04194)">0.0</text>
     </g>
    </g>
    <g id="ytick_2">
     <g id="line2d_12">
      <g>
       <use xlink:href="#mdf260e69f3" x="78.94662" y="120.691631" style="stroke: #000000; stroke-width: 0.8"/>
      </g>
     </g>
     <g id="text_13">
      <text style="font-size: 7px; font-family: 'Times New Roman', 'DejaVu Serif'; text-anchor: end" x="72.44662" y="123.121943" transform="rotate(-0 72.44662 123.121943)">0.2</text>
     </g>
    </g>
    <g id="ytick_3">
     <g id="line2d_13">
      <g>
       <use xlink:href="#mdf260e69f3" x="78.94662" y="96.771634" style="stroke: #000000; stroke-width: 0.8"/>
      </g>
     </g>
     <g id="text_14">
      <text style="font-size: 7px; font-family: 'Times New Roman', 'DejaVu Serif'; text-anchor: end" x="72.44662" y="99.201946" transform="rotate(-0 72.44662 99.201946)">0.4</text>
     </g>
    </g>
    <g id="ytick_4">
     <g id="line2d_14">
      <g>
       <use xlink:href="#mdf260e69f3" x="78.94662" y="72.851637" style="stroke: #000000; stroke-width: 0.8"/>
      </g>
     </g>
     <g id="text_15">
      <text style="font-size: 7px; font-family: 'Times New Roman', 'DejaVu Serif'; text-anchor: end" x="72.44662" y="75.281949" transform="rotate(-0 72.44662 75.281949)">0.6</text>
     </g>
    </g>
    <g id="ytick_5">
     <g id="line2d_15">
      <g>
       <use xlink:href="#mdf260e69f3" x="78.94662" y="48.93164" style="stroke: #000000; stroke-width: 0.8"/>
      </g>
     </g>
     <g id="text_16">
      <text style="font-size: 7px; font-family: 'Times New Roman', 'DejaVu Serif'; text-anchor: end" x="72.44662" y="51.361952" transform="rotate(-0 72.44662 51.361952)">0.8</text>
     </g>
    </g>
    <g id="ytick_6">
     <g id="line2d_16">
      <g>
       <use xlink:href="#mdf260e69f3" x="78.94662" y="25.011643" style="stroke: #000000; stroke-width: 0.8"/>
      </g>
     </g>
     <g id="text_17">
      <text style="font-size: 7px; font-family: 'Times New Roman', 'DejaVu Serif'; text-anchor: end" x="72.44662" y="27.441955" transform="rotate(-0 72.44662 27.441955)">1.0</text>
     </g>
    </g>
    <g id="text_18">
     <text style="font-size: 7.5px; font-family: 'Songti SC', 'Arial Unicode MS'; text-anchor: middle" x="58.653652" y="84.811635" transform="rotate(-90 58.653652 84.811635)">YES 价格</text>
    </g>
   </g>
   <g id="line2d_17">
    <path d="M 99.329183 75.841636 
L 101.128968 75.841636 
L 102.02886 75.243636 
L 102.928753 75.243636 
L 104.728537 75.243636 
L 104.728537 74.645636 
L 105.62843 77.037636 
L 109.227999 77.635636 
L 109.227999 78.831636 
L 109.227999 79.429636 
L 110.127892 80.625636 
L 111.027784 80.625636 
L 112.827569 80.625636 
L 112.827569 77.635636 
L 112.827569 79.429636 
L 112.827569 77.635636 
L 114.627354 77.635636 
L 117.327031 81.821635 
L 119.126816 81.821635 
L 121.826493 82.419635 
L 121.826493 82.419635 
" clip-path="url(#pa880289583)" style="fill: none; stroke: #0f4d92; stroke-linecap: square"/>
   </g>
   <g id="line2d_18">
    <path d="M 99.329183 75.841636 
L 102.928753 75.841636 
L 102.928753 75.243636 
L 107.428215 76.439636 
L 108.328107 75.841636 
L 109.227999 77.635636 
L 111.927677 79.429636 
L 115.527246 80.027636 
L 118.226923 80.625636 
L 122.726385 81.821635 
L 126.325955 84.811635 
L 131.725309 87.203635 
L 133.525094 87.203635 
L 135.324879 87.203635 
L 135.324879 87.203635 
L 136.224771 97.369634 
L 137.124663 102.751633 
L 137.124663 102.751633 
L 138.924448 102.751633 
L 140.724233 102.751633 
L 140.724233 102.751633 
" clip-path="url(#pa880289583)" style="fill: none; stroke: #8bcf8b; stroke-linecap: square"/>
   </g>
   <g id="line2d_19">
    <path d="M 99.329183 71.655637 
L 105.62843 71.655637 
L 111.027784 75.841636 
L 111.927677 77.635636 
L 121.826493 74.645636 
L 126.325955 74.645636 
L 140.724233 74.645636 
L 142.524018 74.645636 
L 148.823265 74.645636 
L 155.122511 74.645636 
L 165.92122 76.439636 
L 182.119283 77.037636 
L 193.817884 78.831636 
L 206.416378 79.429636 
L 219.014871 79.429636 
L 237.012719 80.625636 
L 248.71132 82.419635 
L 255.010567 82.419635 
L 259.510029 82.419635 
L 262.209706 82.419635 
L 271.20863 115.907631 
" clip-path="url(#pa880289583)" style="fill: none; stroke: #d4a93b; stroke-linecap: square"/>
   </g>
   <g id="line2d_20">
    <path d="M 99.329183 73.449636 
L 108.328107 73.449636 
L 112.827569 74.645636 
L 115.527246 74.645636 
L 142.524018 74.645636 
L 168.620897 74.645636 
L 178.519713 74.645636 
L 202.816808 74.645636 
L 225.314118 74.047636 
L 252.310889 74.047636 
L 269.408845 73.449636 
L 283.807123 73.449636 
L 311.703787 73.449636 
L 338.700559 73.449636 
L 355.798514 73.449636 
L 391.79421 73.449636 
L 424.190336 73.449636 
L 443.987968 75.243636 
L 464.685493 76.439636 
L 485.383018 78.831636 
L 506.980436 94.379634 
" clip-path="url(#pa880289583)" style="fill: none; stroke: #b64342; stroke-linecap: square"/>
   </g>
   <g id="line2d_21">
    <path d="M 99.329183 82.085071 
L 104.489326 76.144517 
L 109.649468 73.639324 
L 114.80961 76.286471 
L 119.969753 82.105057 
L 125.129895 74.010125 
L 130.290038 54.46389 
L 135.45018 43.882344 
L 140.610323 43.056991 
L 145.770465 68.034957 
L 150.930607 64.643328 
L 156.09075 66.084389 
L 161.250892 72.236507 
L 166.411035 70.676574 
L 171.571177 77.833866 
L 176.73132 78.546115 
L 181.891462 85.12309 
L 187.051605 96.679209 
L 192.211747 107.498291 
L 197.371889 106.681479 
L 202.532032 98.811344 
L 207.692174 101.820067 
L 212.852317 108.826164 
L 218.012459 127.50761 
L 223.172602 128.309213 
L 228.332744 128.026972 
L 233.492887 130.017649 
L 238.653029 127.246721 
L 243.813171 126.357739 
L 248.973314 127.512516 
L 254.133456 130.005778 
L 259.293599 128.957706 
L 264.453741 122.589069 
L 269.613884 123.694207 
L 274.774026 118.483918 
L 279.934168 120.344708 
L 285.094311 116.581967 
L 290.254453 113.016099 
L 295.414596 113.975793 
L 300.574738 108.65925 
L 305.734881 115.040614 
L 310.895023 116.222959 
L 316.055166 115.376955 
L 321.215308 114.497438 
L 326.37545 113.642787 
L 331.535593 114.373698 
L 336.695735 115.032778 
L 341.855878 121.509733 
L 347.01602 128.595422 
L 352.176163 133.514479 
L 357.336305 130.885626 
L 362.496447 126.74836 
L 367.65659 125.490881 
L 372.816732 128.16913 
L 377.976875 132.016975 
L 383.137017 137.332621 
L 388.29716 139.151762 
L 393.457302 139.373013 
L 398.617445 139.99341 
L 403.777587 142.344893 
L 408.937729 142.730251 
L 414.097872 143.050002 
" clip-path="url(#pa880289583)" style="fill: none; stroke: #4d4d4d; stroke-opacity: 0.85; stroke-width: 1.2; stroke-linecap: square"/>
   </g>
   <g id="line2d_22">
    <path d="M 419.258014 148.199627 
L 419.258014 21.423643 
" clip-path="url(#pa880289583)" style="fill: none; stroke-dasharray: 5.12,1.28,0.8,1.28; stroke-dashoffset: 0; stroke: #4d4d4d; stroke-opacity: 0.75; stroke-width: 0.8"/>
   </g>
   <g id="line2d_23">
    <path d="M 78.94662 144.611628 
L 527.362998 144.611628 
" clip-path="url(#pa880289583)" style="fill: none; stroke-dasharray: 2.96,1.28; stroke-dashoffset: 0; stroke: #4d4d4d; stroke-width: 0.8"/>
   </g>
   <g id="patch_3">
    <path d="M 78.94662 148.199627 
L 78.94662 21.423643 
" style="fill: none; stroke: #000000; stroke-width: 0.8; stroke-linejoin: miter; stroke-linecap: square"/>
   </g>
   <g id="patch_4">
    <path d="M 78.94662 148.199627 
L 527.362998 148.199627 
" style="fill: none; stroke: #000000; stroke-width: 0.8; stroke-linejoin: miter; stroke-linecap: square"/>
   </g>
   <g id="text_19">
    <text style="font-weight: 700; font-size: 9px; font-family: 'Times New Roman', 'DejaVu Serif'; text-anchor: start" x="7.2" y="13.159687" transform="rotate(-0 7.2 13.159687)">a</text>
   </g>
   <g id="text_20">
    <text style="font-size: 7.5px; font-family: 'Songti SC', 'Arial Unicode MS'; text-anchor: middle" x="303.154809" y="15.423643" transform="rotate(-0 303.154809 15.423643)">以太坊 5000 美元</text>
   </g>
   <g id="legend_1">
    <g id="line2d_24">
     <path d="M 470.322998 28.553643 
L 475.282998 28.553643 
L 480.242998 28.553643 
" style="fill: none; stroke: #0f4d92; stroke-linecap: square"/>
    </g>
    <g id="text_21">
     <text style="font-size: 6.2px; font-family: 'Times New Roman', 'DejaVu Serif'; text-anchor: start" x="485.202998" y="30.723643" transform="rotate(-0 485.202998 30.723643)">n=10</text>
    </g>
    <g id="line2d_25">
     <path d="M 470.322998 37.319862 
L 475.282998 37.319862 
L 480.242998 37.319862 
" style="fill: none; stroke: #8bcf8b; stroke-linecap: square"/>
    </g>
    <g id="text_22">
     <text style="font-size: 6.2px; font-family: 'Times New Roman', 'DejaVu Serif'; text-anchor: start" x="485.202998" y="39.489862" transform="rotate(-0 485.202998 39.489862)">n=20</text>
    </g>
    <g id="line2d_26">
     <path d="M 470.322998 46.08608 
L 475.282998 46.08608 
L 480.242998 46.08608 
" style="fill: none; stroke: #d4a93b; stroke-linecap: square"/>
    </g>
    <g id="text_23">
     <text style="font-size: 6.2px; font-family: 'Times New Roman', 'DejaVu Serif'; text-anchor: start" x="485.202998" y="48.25608" transform="rotate(-0 485.202998 48.25608)">n=50</text>
    </g>
    <g id="line2d_27">
     <path d="M 470.322998 54.852299 
L 475.282998 54.852299 
L 480.242998 54.852299 
" style="fill: none; stroke: #b64342; stroke-linecap: square"/>
    </g>
    <g id="text_24">
     <text style="font-size: 6.2px; font-family: 'Times New Roman', 'DejaVu Serif'; text-anchor: start" x="485.202998" y="57.022299" transform="rotate(-0 485.202998 57.022299)">n=100</text>
    </g>
    <g id="line2d_28">
     <path d="M 470.322998 64.269518 
L 475.282998 64.269518 
L 480.242998 64.269518 
" style="fill: none; stroke: #4d4d4d; stroke-opacity: 0.85; stroke-width: 1.2; stroke-linecap: square"/>
    </g>
    <g id="text_25">
     <text style="font-size: 6.2px; font-family: 'Songti SC', 'Arial Unicode MS'; text-anchor: start" x="485.202998" y="66.439518" transform="rotate(-0 485.202998 66.439518)">真实市场价格</text>
    </g>
    <g id="line2d_29">
     <path d="M 470.322998 73.253705 
L 475.282998 73.253705 
L 480.242998 73.253705 
" style="fill: none; stroke-dasharray: 5.12,1.28,0.8,1.28; stroke-dashoffset: 0; stroke: #4d4d4d; stroke-opacity: 0.75; stroke-width: 0.8"/>
    </g>
    <g id="text_26">
     <text style="font-size: 6.2px; font-family: 'Songti SC', 'Arial Unicode MS'; text-anchor: start" x="485.202998" y="75.423705" transform="rotate(-0 485.202998 75.423705)">事件结束</text>
    </g>
   </g>
  </g>
  <g id="axes_2">
   <g id="patch_5">
    <path d="M 78.94662 316.778367 
L 527.362998 316.778367 
L 527.362998 190.002383 
L 78.94662 190.002383 
z
" style="fill: #ffffff"/>
   </g>
   <g id="matplotlib.axis_3">
    <g id="xtick_11">
     <g id="line2d_30">
      <g>
       <use xlink:href="#mb261e1554f" x="99.329183" y="316.778367" style="stroke: #000000; stroke-width: 0.8"/>
      </g>
     </g>
     <g id="text_27">
      <text style="font-size: 7px; font-family: 'Times New Roman', 'DejaVu Serif'; text-anchor: middle" x="99.329183" y="328.138992" transform="rotate(-0 99.329183 328.138992)">0</text>
     </g>
    </g>
    <g id="xtick_12">
     <g id="line2d_31">
      <g>
       <use xlink:href="#mb261e1554f" x="145.52196" y="316.778367" style="stroke: #000000; stroke-width: 0.8"/>
      </g>
     </g>
     <g id="text_28">
      <text style="font-size: 7px; font-family: 'Times New Roman', 'DejaVu Serif'; text-anchor: middle" x="145.52196" y="328.138992" transform="rotate(-0 145.52196 328.138992)">40</text>
     </g>
    </g>
    <g id="xtick_13">
     <g id="line2d_32">
      <g>
       <use xlink:href="#mb261e1554f" x="191.714736" y="316.778367" style="stroke: #000000; stroke-width: 0.8"/>
      </g>
     </g>
     <g id="text_29">
      <text style="font-size: 7px; font-family: 'Times New Roman', 'DejaVu Serif'; text-anchor: middle" x="191.714736" y="328.138992" transform="rotate(-0 191.714736 328.138992)">80</text>
     </g>
    </g>
    <g id="xtick_14">
     <g id="line2d_33">
      <g>
       <use xlink:href="#mb261e1554f" x="237.907513" y="316.778367" style="stroke: #000000; stroke-width: 0.8"/>
      </g>
     </g>
     <g id="text_30">
      <text style="font-size: 7px; font-family: 'Times New Roman', 'DejaVu Serif'; text-anchor: middle" x="237.907513" y="328.138992" transform="rotate(-0 237.907513 328.138992)">120</text>
     </g>
    </g>
    <g id="xtick_15">
     <g id="line2d_34">
      <g>
       <use xlink:href="#mb261e1554f" x="284.100289" y="316.778367" style="stroke: #000000; stroke-width: 0.8"/>
      </g>
     </g>
     <g id="text_31">
      <text style="font-size: 7px; font-family: 'Times New Roman', 'DejaVu Serif'; text-anchor: middle" x="284.100289" y="328.138992" transform="rotate(-0 284.100289 328.138992)">160</text>
     </g>
    </g>
    <g id="xtick_16">
     <g id="line2d_35">
      <g>
       <use xlink:href="#mb261e1554f" x="330.293066" y="316.778367" style="stroke: #000000; stroke-width: 0.8"/>
      </g>
     </g>
     <g id="text_32">
      <text style="font-size: 7px; font-family: 'Times New Roman', 'DejaVu Serif'; text-anchor: middle" x="330.293066" y="328.138992" transform="rotate(-0 330.293066 328.138992)">200</text>
     </g>
    </g>
    <g id="xtick_17">
     <g id="line2d_36">
      <g>
       <use xlink:href="#mb261e1554f" x="376.485842" y="316.778367" style="stroke: #000000; stroke-width: 0.8"/>
      </g>
     </g>
     <g id="text_33">
      <text style="font-size: 7px; font-family: 'Times New Roman', 'DejaVu Serif'; text-anchor: middle" x="376.485842" y="328.138992" transform="rotate(-0 376.485842 328.138992)">240</text>
     </g>
    </g>
    <g id="xtick_18">
     <g id="line2d_37">
      <g>
       <use xlink:href="#mb261e1554f" x="422.678619" y="316.778367" style="stroke: #000000; stroke-width: 0.8"/>
      </g>
     </g>
     <g id="text_34">
      <text style="font-size: 7px; font-family: 'Times New Roman', 'DejaVu Serif'; text-anchor: middle" x="422.678619" y="328.138992" transform="rotate(-0 422.678619 328.138992)">280</text>
     </g>
    </g>
    <g id="xtick_19">
     <g id="line2d_38">
      <g>
       <use xlink:href="#mb261e1554f" x="468.871395" y="316.778367" style="stroke: #000000; stroke-width: 0.8"/>
      </g>
     </g>
     <g id="text_35">
      <text style="font-size: 7px; font-family: 'Times New Roman', 'DejaVu Serif'; text-anchor: middle" x="468.871395" y="328.138992" transform="rotate(-0 468.871395 328.138992)">320</text>
     </g>
    </g>
    <g id="xtick_20">
     <g id="line2d_39">
      <g>
       <use xlink:href="#mb261e1554f" x="515.064172" y="316.778367" style="stroke: #000000; stroke-width: 0.8"/>
      </g>
     </g>
     <g id="text_36">
      <text style="font-size: 7px; font-family: 'Times New Roman', 'DejaVu Serif'; text-anchor: middle" x="515.064172" y="328.138992" transform="rotate(-0 515.064172 328.138992)">360</text>
     </g>
    </g>
    <g id="text_37">
     <text style="font-size: 7.5px; font-family: 'Songti SC', 'Arial Unicode MS'; text-anchor: middle" x="303.154809" y="339.725399" transform="rotate(-0 303.154809 339.725399)">累积成交笔数</text>
    </g>
   </g>
   <g id="matplotlib.axis_4">
    <g id="ytick_7">
     <g id="line2d_40">
      <g>
       <use xlink:href="#mdf260e69f3" x="78.94662" y="313.190368" style="stroke: #000000; stroke-width: 0.8"/>
      </g>
     </g>
     <g id="text_38">
      <text style="font-size: 7px; font-family: 'Times New Roman', 'DejaVu Serif'; text-anchor: end" x="72.44662" y="315.62068" transform="rotate(-0 72.44662 315.62068)">0.0</text>
     </g>
    </g>
    <g id="ytick_8">
     <g id="line2d_41">
      <g>
       <use xlink:href="#mdf260e69f3" x="78.94662" y="289.270371" style="stroke: #000000; stroke-width: 0.8"/>
      </g>
     </g>
     <g id="text_39">
      <text style="font-size: 7px; font-family: 'Times New Roman', 'DejaVu Serif'; text-anchor: end" x="72.44662" y="291.700683" transform="rotate(-0 72.44662 291.700683)">0.2</text>
     </g>
    </g>
    <g id="ytick_9">
     <g id="line2d_42">
      <g>
       <use xlink:href="#mdf260e69f3" x="78.94662" y="265.350374" style="stroke: #000000; stroke-width: 0.8"/>
      </g>
     </g>
     <g id="text_40">
      <text style="font-size: 7px; font-family: 'Times New Roman', 'DejaVu Serif'; text-anchor: end" x="72.44662" y="267.780686" transform="rotate(-0 72.44662 267.780686)">0.4</text>
     </g>
    </g>
    <g id="ytick_10">
     <g id="line2d_43">
      <g>
       <use xlink:href="#mdf260e69f3" x="78.94662" y="241.430377" style="stroke: #000000; stroke-width: 0.8"/>
      </g>
     </g>
     <g id="text_41">
      <text style="font-size: 7px; font-family: 'Times New Roman', 'DejaVu Serif'; text-anchor: end" x="72.44662" y="243.860689" transform="rotate(-0 72.44662 243.860689)">0.6</text>
     </g>
    </g>
    <g id="ytick_11">
     <g id="line2d_44">
      <g>
       <use xlink:href="#mdf260e69f3" x="78.94662" y="217.51038" style="stroke: #000000; stroke-width: 0.8"/>
      </g>
     </g>
     <g id="text_42">
      <text style="font-size: 7px; font-family: 'Times New Roman', 'DejaVu Serif'; text-anchor: end" x="72.44662" y="219.940692" transform="rotate(-0 72.44662 219.940692)">0.8</text>
     </g>
    </g>
    <g id="ytick_12">
     <g id="line2d_45">
      <g>
       <use xlink:href="#mdf260e69f3" x="78.94662" y="193.590383" style="stroke: #000000; stroke-width: 0.8"/>
      </g>
     </g>
     <g id="text_43">
      <text style="font-size: 7px; font-family: 'Times New Roman', 'DejaVu Serif'; text-anchor: end" x="72.44662" y="196.020695" transform="rotate(-0 72.44662 196.020695)">1.0</text>
     </g>
    </g>
    <g id="text_44">
     <text style="font-size: 7.5px; font-family: 'Songti SC', 'Arial Unicode MS'; text-anchor: middle" x="58.653652" y="253.390375" transform="rotate(-90 58.653652 253.390375)">YES 价格</text>
    </g>
   </g>
   <g id="line2d_46">
    <path d="M 99.329183 255.184375 
L 99.329183 255.184375 
L 100.484003 258.174375 
L 100.484003 254.586375 
L 100.484003 254.586375 
L 101.638822 254.586375 
L 105.10328 258.174375 
L 105.10328 254.586375 
L 106.2581 254.586375 
L 106.2581 254.586375 
L 106.2581 254.586375 
L 106.2581 254.586375 
L 107.412919 254.586375 
L 108.567738 254.586375 
L 108.567738 258.174375 
L 109.722558 254.586375 
L 114.341835 254.586375 
L 120.115933 254.586375 
L 120.115933 258.174375 
L 123.580391 256.380375 
L 127.044849 262.360374 
" clip-path="url(#p3e36d99509)" style="fill: none; stroke: #0f4d92; stroke-linecap: square"/>
   </g>
   <g id="line2d_47">
    <path d="M 99.329183 256.380375 
L 100.484003 256.380375 
L 102.793641 257.576375 
L 106.2581 256.380375 
L 107.412919 259.370375 
L 108.567738 259.968374 
L 110.877377 256.380375 
L 114.341835 258.174375 
L 115.496655 255.782375 
L 117.806294 256.978375 
L 118.961113 256.978375 
L 122.425571 255.184375 
L 122.425571 256.380375 
L 127.044849 259.370375 
L 131.664127 259.370375 
L 138.593043 261.164374 
L 140.902682 264.752374 
L 143.212321 265.948374 
L 144.36714 266.546374 
L 148.986418 266.546374 
L 153.605696 266.546374 
" clip-path="url(#p3e36d99509)" style="fill: none; stroke: #8bcf8b; stroke-linecap: square"/>
   </g>
   <g id="line2d_48">
    <path d="M 99.329183 254.586375 
L 102.793641 254.586375 
L 112.032197 249.802376 
L 118.961113 256.978375 
L 132.818946 256.978375 
L 152.450876 253.390375 
L 159.379793 253.390375 
L 174.392445 254.586375 
L 190.559917 250.998376 
L 210.191847 253.390375 
L 221.740041 247.410376 
L 240.217151 253.988375 
L 258.694262 259.370375 
L 267.932817 270.134373 
L 280.635831 265.948374 
L 285.255109 268.938373 
L 297.958122 271.330373 
L 314.125594 273.124373 
L 331.447885 276.114372 
L 346.460537 311.994368 
L 363.782829 306.612369 
" clip-path="url(#p3e36d99509)" style="fill: none; stroke: #d4a93b; stroke-linecap: square"/>
   </g>
   <g id="line2d_49">
    <path d="M 99.329183 253.988375 
L 108.567738 253.988375 
L 117.806294 256.380375 
L 123.580391 256.380375 
L 140.902682 256.380375 
L 151.296057 256.380375 
L 174.392445 256.380375 
L 192.869556 256.380375 
L 215.965944 257.576375 
L 235.597874 261.164374 
L 258.694262 262.360374 
L 280.635831 262.958374 
L 292.184025 266.546374 
L 314.125594 267.742373 
L 330.293066 303.622369 
L 346.460537 283.290372 
L 368.402106 285.682371 
L 405.356327 286.280371 
L 436.536452 283.888371 
L 467.716576 283.888371 
L 506.980436 283.888371 
" clip-path="url(#p3e36d99509)" style="fill: none; stroke: #b64342; stroke-linecap: square"/>
   </g>
   <g id="line2d_50">
    <path d="M 99.329183 266.582713 
L 104.489326 264.711408 
L 109.649468 267.580536 
L 114.80961 270.199503 
L 119.969753 273.23691 
L 125.129895 275.16078 
L 130.290038 274.956193 
L 135.45018 273.910413 
L 140.610323 269.523364 
L 145.770465 268.247932 
L 150.930607 274.228575 
L 156.09075 281.560609 
L 161.250892 270.0214 
L 166.411035 244.242975 
L 171.571177 236.114382 
L 176.73132 235.150776 
L 181.891462 237.18674 
L 187.051605 239.089955 
L 192.211747 233.033363 
L 197.371889 230.645343 
L 202.532032 236.231035 
L 207.692174 230.759789 
L 212.852317 222.42518 
L 218.012459 224.629742 
L 223.172602 215.194396 
L 228.332744 218.583398 
L 233.492887 219.932716 
L 238.653029 228.726156 
L 243.813171 232.499662 
L 248.973314 230.914451 
L 254.133456 231.267011 
L 259.293599 227.681113 
L 264.453741 223.385675 
L 269.613884 226.04776 
L 274.774026 227.917204 
L 279.934168 225.086626 
L 285.094311 220.182416 
L 290.254453 208.697528 
L 295.414596 211.049504 
L 300.574738 205.073722 
L 305.734881 200.808565 
L 310.895023 199.774654 
L 316.055166 201.329008 
L 321.215308 201.190768 
L 326.37545 204.20099 
L 331.535593 212.613964 
L 336.695735 218.157788 
L 341.855878 213.667832 
L 347.01602 211.093704 
L 352.176163 209.44903 
L 357.336305 210.203599 
L 362.496447 206.979839 
" clip-path="url(#p3e36d99509)" style="fill: none; stroke: #4d4d4d; stroke-opacity: 0.85; stroke-width: 1.2; stroke-linecap: square"/>
   </g>
   <g id="line2d_51">
    <path d="M 367.65659 316.778367 
L 367.65659 190.002383 
" clip-path="url(#p3e36d99509)" style="fill: none; stroke-dasharray: 5.12,1.28,0.8,1.28; stroke-dashoffset: 0; stroke: #4d4d4d; stroke-opacity: 0.75; stroke-width: 0.8"/>
   </g>
   <g id="line2d_52">
    <path d="M 78.94662 193.590383 
L 527.362998 193.590383 
" clip-path="url(#p3e36d99509)" style="fill: none; stroke-dasharray: 2.96,1.28; stroke-dashoffset: 0; stroke: #4d4d4d; stroke-width: 0.8"/>
   </g>
   <g id="patch_6">
    <path d="M 78.94662 316.778367 
L 78.94662 190.002383 
" style="fill: none; stroke: #000000; stroke-width: 0.8; stroke-linejoin: miter; stroke-linecap: square"/>
   </g>
   <g id="patch_7">
    <path d="M 78.94662 316.778367 
L 527.362998 316.778367 
" style="fill: none; stroke: #000000; stroke-width: 0.8; stroke-linejoin: miter; stroke-linecap: square"/>
   </g>
   <g id="text_45">
    <text style="font-weight: 700; font-size: 9px; font-family: 'Times New Roman', 'DejaVu Serif'; text-anchor: start" x="7.2" y="181.738428" transform="rotate(-0 7.2 181.738428)">b</text>
   </g>
   <g id="text_46">
    <text style="font-size: 7.5px; font-family: 'Songti SC', 'Arial Unicode MS'; text-anchor: middle" x="303.154809" y="184.002383" transform="rotate(-0 303.154809 184.002383)">特斯拉 Robotaxi</text>
   </g>
   <g id="legend_2">
    <g id="line2d_53">
     <path d="M 470.322998 230.60925 
L 475.282998 230.60925 
L 480.242998 230.60925 
" style="fill: none; stroke: #0f4d92; stroke-linecap: square"/>
    </g>
    <g id="text_47">
     <text style="font-size: 6.2px; font-family: 'Times New Roman', 'DejaVu Serif'; text-anchor: start" x="485.202998" y="232.77925" transform="rotate(-0 485.202998 232.77925)">n=10</text>
    </g>
    <g id="line2d_54">
     <path d="M 470.322998 239.375469 
L 475.282998 239.375469 
L 480.242998 239.375469 
" style="fill: none; stroke: #8bcf8b; stroke-linecap: square"/>
    </g>
    <g id="text_48">
     <text style="font-size: 6.2px; font-family: 'Times New Roman', 'DejaVu Serif'; text-anchor: start" x="485.202998" y="241.545469" transform="rotate(-0 485.202998 241.545469)">n=20</text>
    </g>
    <g id="line2d_55">
     <path d="M 470.322998 248.141688 
L 475.282998 248.141688 
L 480.242998 248.141688 
" style="fill: none; stroke: #d4a93b; stroke-linecap: square"/>
    </g>
    <g id="text_49">
     <text style="font-size: 6.2px; font-family: 'Times New Roman', 'DejaVu Serif'; text-anchor: start" x="485.202998" y="250.311688" transform="rotate(-0 485.202998 250.311688)">n=50</text>
    </g>
    <g id="line2d_56">
     <path d="M 470.322998 256.907906 
L 475.282998 256.907906 
L 480.242998 256.907906 
" style="fill: none; stroke: #b64342; stroke-linecap: square"/>
    </g>
    <g id="text_50">
     <text style="font-size: 6.2px; font-family: 'Times New Roman', 'DejaVu Serif'; text-anchor: start" x="485.202998" y="259.077906" transform="rotate(-0 485.202998 259.077906)">n=100</text>
    </g>
    <g id="line2d_57">
     <path d="M 470.322998 266.325125 
L 475.282998 266.325125 
L 480.242998 266.325125 
" style="fill: none; stroke: #4d4d4d; stroke-opacity: 0.85; stroke-width: 1.2; stroke-linecap: square"/>
    </g>
    <g id="text_51">
     <text style="font-size: 6.2px; font-family: 'Songti SC', 'Arial Unicode MS'; text-anchor: start" x="485.202998" y="268.495125" transform="rotate(-0 485.202998 268.495125)">真实市场价格</text>
    </g>
    <g id="line2d_58">
     <path d="M 470.322998 275.309313 
L 475.282998 275.309313 
L 480.242998 275.309313 
" style="fill: none; stroke-dasharray: 5.12,1.28,0.8,1.28; stroke-dashoffset: 0; stroke: #4d4d4d; stroke-opacity: 0.75; stroke-width: 0.8"/>
    </g>
    <g id="text_52">
     <text style="font-size: 6.2px; font-family: 'Songti SC', 'Arial Unicode MS'; text-anchor: start" x="485.202998" y="277.479313" transform="rotate(-0 485.202998 277.479313)">事件结束</text>
    </g>
   </g>
  </g>
 </g>
 <defs>
  <clipPath id="pa880289583">
   <rect x="78.94662" y="21.423643" width="448.416378" height="126.775984"/>
  </clipPath>
  <clipPath id="p3e36d99509">
   <rect x="78.94662" y="190.002383" width="448.416378" height="126.775984"/>
  </clipPath>
 </defs>
</svg>
