<?xml version="1.0" encoding="utf-8" standalone="no"?>
<!DOCTYPE svg PUBLIC "-//W3C//DTD SVG 1.1//EN"
  "http://www.w3.org/Graphics/SVG/1.1/DTD/svg11.dtd">
<svg xmlns:xlink="http://www.w3.org/1999/xlink" width="534.562998pt" height="279.4631pt" viewBox="0 0 534.562998 279.4631" xmlns="http://www.w3.org/2000/svg" version="1.1">
 <metadata>
  <rdf:RDF xmlns:dc="http://purl.org/dc/elements/1.1/" xmlns:cc="http://creativecommons.org/ns#" xmlns:rdf="http://www.w3.org/1999/02/22-rdf-syntax-ns#">
   <cc:Work>
    <dc:type rdf:resource="http://purl.org/dc/dcmitype/StillImage"/>
    <dc:date>2026-05-29T20:53:28.206808</dc:date>
    <dc:format>image/svg+xml</dc:format>
    <dc:creator>
     <cc:Agent>
      <dc:title>Matplotlib v3.10.9, https://matplotlib.org/</dc:title>
     </cc:Agent>
    </dc:creator>
   </cc:Work>
  </rdf:RDF>
 </metadata>
 <defs>
  <style type="text/css">*{stroke-linejoin: round; stroke-linecap: butt}</style>
 </defs>
 <g id="figure_1">
  <g id="patch_1">
   <path d="M 0 279.4631 
L 534.562998 279.4631 
L 534.562998 0 
L 0 0 
z
" style="fill: #ffffff"/>
  </g>
  <g id="axes_1">
   <g id="patch_2">
    <path d="M 78.94662 113.721358 
L 527.362998 113.721358 
L 527.362998 19.781821 
L 78.94662 19.781821 
z
" style="fill: #ffffff"/>
   </g>
   <g id="PathCollection_1">
    <defs>
     <path id="m410976bc3b" d="M 0 1.414214 
C 0.375054 1.414214 0.734797 1.265203 1 1 
C 1.265203 0.734797 1.414214 0.375054 1.414214 0 
C 1.414214 -0.375054 1.265203 -0.734797 1 -1 
C 0.734797 -1.265203 0.375054 -1.414214 0 -1.414214 
C -0.375054 -1.414214 -0.734797 -1.265203 -1 -1 
C -1.265203 -0.734797 -1.414214 -0.375054 -1.414214 0 
C -1.414214 0.375054 -1.265203 0.734797 -1 1 
C -0.734797 1.265203 -0.375054 1.414214 0 1.414214 
z
"/>
    </defs>
    <g clip-path="url(#pe6deacd77b)">
     <use xlink:href="#m410976bc3b" x="99.329183" y="50.35648" style="fill: #4d4d4d; fill-opacity: 0.75"/>
     <use xlink:href="#m410976bc3b" x="119.898742" y="48.584037" style="fill: #4d4d4d; fill-opacity: 0.75"/>
     <use xlink:href="#m410976bc3b" x="140.4683" y="50.578037" style="fill: #4d4d4d; fill-opacity: 0.75"/>
     <use xlink:href="#m410976bc3b" x="161.037859" y="76.056921" style="fill: #4d4d4d; fill-opacity: 0.75"/>
     <use xlink:href="#m410976bc3b" x="181.607418" y="76.017246" style="fill: #4d4d4d; fill-opacity: 0.75"/>
     <use xlink:href="#m410976bc3b" x="202.176976" y="75.842382" style="fill: #4d4d4d; fill-opacity: 0.75"/>
     <use xlink:href="#m410976bc3b" x="222.746535" y="77.704666" style="fill: #4d4d4d; fill-opacity: 0.75"/>
     <use xlink:href="#m410976bc3b" x="243.316093" y="82.177233" style="fill: #4d4d4d; fill-opacity: 0.75"/>
     <use xlink:href="#m410976bc3b" x="263.885652" y="98.388709" style="fill: #4d4d4d; fill-opacity: 0.75"/>
     <use xlink:href="#m410976bc3b" x="284.455211" y="99.203499" style="fill: #4d4d4d; fill-opacity: 0.75"/>
     <use xlink:href="#m410976bc3b" x="305.024769" y="103.475455" style="fill: #4d4d4d; fill-opacity: 0.75"/>
     <use xlink:href="#m410976bc3b" x="325.594328" y="105.193618" style="fill: #4d4d4d; fill-opacity: 0.75"/>
     <use xlink:href="#m410976bc3b" x="346.163887" y="105.702906" style="fill: #4d4d4d; fill-opacity: 0.75"/>
     <use xlink:href="#m410976bc3b" x="366.733445" y="102.422027" style="fill: #4d4d4d; fill-opacity: 0.75"/>
     <use xlink:href="#m410976bc3b" x="386.368024" y="104.21607" style="fill: #4d4d4d; fill-opacity: 0.75"/>
     <use xlink:href="#m410976bc3b" x="406.937582" y="106.631582" style="fill: #4d4d4d; fill-opacity: 0.75"/>
     <use xlink:href="#m410976bc3b" x="427.507141" y="106.443865" style="fill: #4d4d4d; fill-opacity: 0.75"/>
     <use xlink:href="#m410976bc3b" x="448.0767" y="107.103845" style="fill: #4d4d4d; fill-opacity: 0.75"/>
     <use xlink:href="#m410976bc3b" x="468.646258" y="110.860911" style="fill: #4d4d4d; fill-opacity: 0.75"/>
     <use xlink:href="#m410976bc3b" x="489.215817" y="109.307456" style="fill: #4d4d4d; fill-opacity: 0.75"/>
    </g>
   </g>
   <g id="matplotlib.axis_1">
    <g id="xtick_1">
     <g id="line2d_1">
      <defs>
       <path id="m5e77ecfe2c" d="M 0 0 
L 0 3 
" style="stroke: #000000; stroke-width: 0.8"/>
      </defs>
      <g>
       <use xlink:href="#m5e77ecfe2c" x="95.589263" y="113.721358" style="stroke: #000000; stroke-width: 0.8"/>
      </g>
     </g>
     <g id="text_1">
      <text style="font-size: 7px; font-family: 'Times New Roman', 'DejaVu Serif'; text-anchor: middle" x="95.589263" y="125.081983" transform="rotate(-0 95.589263 125.081983)">0</text>
     </g>
    </g>
    <g id="xtick_2">
     <g id="line2d_2">
      <g>
       <use xlink:href="#m5e77ecfe2c" x="142.33826" y="113.721358" style="stroke: #000000; stroke-width: 0.8"/>
      </g>
     </g>
     <g id="text_2">
      <text style="font-size: 7px; font-family: 'Times New Roman', 'DejaVu Serif'; text-anchor: middle" x="142.33826" y="125.081983" transform="rotate(-0 142.33826 125.081983)">50</text>
     </g>
    </g>
    <g id="xtick_3">
     <g id="line2d_3">
      <g>
       <use xlink:href="#m5e77ecfe2c" x="189.087257" y="113.721358" style="stroke: #000000; stroke-width: 0.8"/>
      </g>
     </g>
     <g id="text_3">
      <text style="font-size: 7px; font-family: 'Times New Roman', 'DejaVu Serif'; text-anchor: middle" x="189.087257" y="125.081983" transform="rotate(-0 189.087257 125.081983)">100</text>
     </g>
    </g>
    <g id="xtick_4">
     <g id="line2d_4">
      <g>
       <use xlink:href="#m5e77ecfe2c" x="235.836254" y="113.721358" style="stroke: #000000; stroke-width: 0.8"/>
      </g>
     </g>
     <g id="text_4">
      <text style="font-size: 7px; font-family: 'Times New Roman', 'DejaVu Serif'; text-anchor: middle" x="235.836254" y="125.081983" transform="rotate(-0 235.836254 125.081983)">150</text>
     </g>
    </g>
    <g id="xtick_5">
     <g id="line2d_5">
      <g>
       <use xlink:href="#m5e77ecfe2c" x="282.585251" y="113.721358" style="stroke: #000000; stroke-width: 0.8"/>
      </g>
     </g>
     <g id="text_5">
      <text style="font-size: 7px; font-family: 'Times New Roman', 'DejaVu Serif'; text-anchor: middle" x="282.585251" y="125.081983" transform="rotate(-0 282.585251 125.081983)">200</text>
     </g>
    </g>
    <g id="xtick_6">
     <g id="line2d_6">
      <g>
       <use xlink:href="#m5e77ecfe2c" x="329.334248" y="113.721358" style="stroke: #000000; stroke-width: 0.8"/>
      </g>
     </g>
     <g id="text_6">
      <text style="font-size: 7px; font-family: 'Times New Roman', 'DejaVu Serif'; text-anchor: middle" x="329.334248" y="125.081983" transform="rotate(-0 329.334248 125.081983)">250</text>
     </g>
    </g>
    <g id="xtick_7">
     <g id="line2d_7">
      <g>
       <use xlink:href="#m5e77ecfe2c" x="376.083245" y="113.721358" style="stroke: #000000; stroke-width: 0.8"/>
      </g>
     </g>
     <g id="text_7">
      <text style="font-size: 7px; font-family: 'Times New Roman', 'DejaVu Serif'; text-anchor: middle" x="376.083245" y="125.081983" transform="rotate(-0 376.083245 125.081983)">300</text>
     </g>
    </g>
    <g id="xtick_8">
     <g id="line2d_8">
      <g>
       <use xlink:href="#m5e77ecfe2c" x="422.832241" y="113.721358" style="stroke: #000000; stroke-width: 0.8"/>
      </g>
     </g>
     <g id="text_8">
      <text style="font-size: 7px; font-family: 'Times New Roman', 'DejaVu Serif'; text-anchor: middle" x="422.832241" y="125.081983" transform="rotate(-0 422.832241 125.081983)">350</text>
     </g>
    </g>
    <g id="xtick_9">
     <g id="line2d_9">
      <g>
       <use xlink:href="#m5e77ecfe2c" x="469.581238" y="113.721358" style="stroke: #000000; stroke-width: 0.8"/>
      </g>
     </g>
     <g id="text_9">
      <text style="font-size: 7px; font-family: 'Times New Roman', 'DejaVu Serif'; text-anchor: middle" x="469.581238" y="125.081983" transform="rotate(-0 469.581238 125.081983)">400</text>
     </g>
    </g>
    <g id="xtick_10">
     <g id="line2d_10">
      <g>
       <use xlink:href="#m5e77ecfe2c" x="516.330235" y="113.721358" style="stroke: #000000; stroke-width: 0.8"/>
      </g>
     </g>
     <g id="text_10">
      <text style="font-size: 7px; font-family: 'Times New Roman', 'DejaVu Serif'; text-anchor: middle" x="516.330235" y="125.081983" transform="rotate(-0 516.330235 125.081983)">450</text>
     </g>
    </g>
    <g id="text_11">
     <text style="font-size: 7.5px; font-family: 'Songti SC', 'Arial Unicode MS'; text-anchor: middle" x="303.154809" y="136.668389" transform="rotate(-0 303.154809 136.668389)">真实累积成交笔数</text>
    </g>
   </g>
   <g id="matplotlib.axis_2">
    <g id="ytick_1">
     <g id="line2d_11">
      <defs>
       <path id="maaeb01caf4" d="M 0 0 
L -3 0 
" style="stroke: #000000; stroke-width: 0.8"/>
      </defs>
      <g>
       <use xlink:href="#maaeb01caf4" x="78.94662" y="111.062692" style="stroke: #000000; stroke-width: 0.8"/>
      </g>
     </g>
     <g id="text_12">
      <text style="font-size: 7px; font-family: 'Times New Roman', 'DejaVu Serif'; text-anchor: end" x="72.44662" y="113.493004" transform="rotate(-0 72.44662 113.493004)">0.0</text>
     </g>
    </g>
    <g id="ytick_2">
     <g id="line2d_12">
      <g>
       <use xlink:href="#maaeb01caf4" x="78.94662" y="93.338251" style="stroke: #000000; stroke-width: 0.8"/>
      </g>
     </g>
     <g id="text_13">
      <text style="font-size: 7px; font-family: 'Times New Roman', 'DejaVu Serif'; text-anchor: end" x="72.44662" y="95.768563" transform="rotate(-0 72.44662 95.768563)">0.2</text>
     </g>
    </g>
    <g id="ytick_3">
     <g id="line2d_13">
      <g>
       <use xlink:href="#maaeb01caf4" x="78.94662" y="75.61381" style="stroke: #000000; stroke-width: 0.8"/>
      </g>
     </g>
     <g id="text_14">
      <text style="font-size: 7px; font-family: 'Times New Roman', 'DejaVu Serif'; text-anchor: end" x="72.44662" y="78.044122" transform="rotate(-0 72.44662 78.044122)">0.4</text>
     </g>
    </g>
    <g id="ytick_4">
     <g id="line2d_14">
      <g>
       <use xlink:href="#maaeb01caf4" x="78.94662" y="57.889369" style="stroke: #000000; stroke-width: 0.8"/>
      </g>
     </g>
     <g id="text_15">
      <text style="font-size: 7px; font-family: 'Times New Roman', 'DejaVu Serif'; text-anchor: end" x="72.44662" y="60.319681" transform="rotate(-0 72.44662 60.319681)">0.6</text>
     </g>
    </g>
    <g id="ytick_5">
     <g id="line2d_15">
      <g>
       <use xlink:href="#maaeb01caf4" x="78.94662" y="40.164928" style="stroke: #000000; stroke-width: 0.8"/>
      </g>
     </g>
     <g id="text_16">
      <text style="font-size: 7px; font-family: 'Times New Roman', 'DejaVu Serif'; text-anchor: end" x="72.44662" y="42.59524" transform="rotate(-0 72.44662 42.59524)">0.8</text>
     </g>
    </g>
    <g id="ytick_6">
     <g id="line2d_16">
      <g>
       <use xlink:href="#maaeb01caf4" x="78.94662" y="22.440487" style="stroke: #000000; stroke-width: 0.8"/>
      </g>
     </g>
     <g id="text_17">
      <text style="font-size: 7px; font-family: 'Times New Roman', 'DejaVu Serif'; text-anchor: end" x="72.44662" y="24.870799" transform="rotate(-0 72.44662 24.870799)">1.0</text>
     </g>
    </g>
    <g id="text_18">
     <text style="font-size: 7.5px; font-family: 'Songti SC', 'Arial Unicode MS'; text-anchor: middle" x="58.653652" y="66.751589" transform="rotate(-90 58.653652 66.751589)">YES 价格</text>
    </g>
   </g>
   <g id="line2d_17">
    <path d="M 99.329183 50.35648 
L 103.069103 41.803703 
L 105.874043 41.937372 
L 109.613962 43.866337 
L 113.353882 42.823594 
L 116.158822 46.663885 
L 119.898742 48.584037 
L 123.638661 51.242703 
L 126.443601 49.617963 
L 130.183521 48.127475 
L 133.923441 47.30425 
L 136.728381 48.140929 
L 140.4683 50.578037 
L 144.20822 50.118946 
L 147.01316 56.048592 
L 150.75308 61.396281 
L 154.492999 67.869629 
L 157.297939 71.563136 
L 161.037859 76.056921 
L 164.777779 83.037748 
L 167.582719 77.232643 
L 171.322638 76.078184 
L 175.062558 69.983644 
L 177.867498 74.039594 
L 181.607418 76.017246 
L 185.347337 73.789602 
L 188.152277 76.23456 
L 191.892197 80.601199 
L 195.632117 81.576944 
L 198.437056 78.035881 
L 202.176976 75.842382 
L 205.916896 83.903897 
L 208.721836 85.476247 
L 212.461756 91.561855 
L 216.201675 92.568375 
L 219.006615 80.04492 
L 222.746535 77.704666 
L 226.486455 79.295054 
L 229.291394 84.47603 
L 233.031314 84.502595 
L 235.836254 85.617761 
L 239.576174 85.14115 
L 243.316093 82.177233 
L 246.121033 82.868051 
L 249.860953 90.014915 
L 253.600873 90.600834 
L 256.405813 95.972556 
L 260.145732 95.515483 
L 263.885652 98.388709 
L 266.690592 100.889123 
L 270.430512 98.358117 
L 274.170431 100.100731 
L 276.975371 97.774195 
L 280.715291 100.464646 
L 284.455211 99.203499 
L 287.260151 96.554481 
L 291.00007 99.32025 
L 294.73999 102.65562 
L 297.54493 99.633371 
L 301.28485 104.506843 
L 305.024769 103.475455 
L 307.829709 106.442933 
L 311.569629 104.53175 
L 315.309549 105.523804 
L 318.114488 106.926989 
L 321.854408 106.853137 
L 325.594328 105.193618 
L 328.399268 102.495878 
L 332.139188 93.267053 
L 335.879107 87.356252 
L 338.684047 101.314252 
L 342.423967 103.664462 
L 346.163887 105.702906 
L 348.968826 104.268318 
L 352.708746 105.080691 
L 356.448666 103.311776 
L 359.253606 102.200471 
L 362.993525 102.200471 
L 366.733445 102.422027 
L 369.538385 102.495879 
L 373.278305 97.437639 
L 376.083245 105.35011 
L 379.823164 100.297789 
L 383.563084 103.694579 
L 386.368024 104.21607 
L 390.107944 102.81868 
L 393.847863 108.719322 
L 396.652803 107.146088 
L 400.392723 104.859138 
L 404.132643 106.723154 
L 406.937582 106.631582 
L 410.677502 106.83351 
L 414.417422 104.947658 
L 417.222362 107.813211 
L 420.962282 104.859137 
L 424.702201 106.410026 
L 427.507141 106.443865 
L 431.247061 107.883176 
L 434.986981 107.988 
L 437.79192 106.176976 
L 441.53184 107.091629 
L 445.27176 108.556413 
L 448.0767 107.103845 
L 451.816619 109.372982 
L 455.556539 108.055469 
L 458.361479 109.393644 
L 462.101399 109.168817 
L 465.841319 110.316389 
L 468.646258 110.860911 
L 472.386178 110.573565 
L 476.126098 110.002686 
L 478.931038 109.881062 
L 482.670957 110.05053 
L 486.410877 109.999442 
L 489.215817 109.307456 
L 492.955737 109.419232 
L 496.695656 109.488714 
L 499.500596 109.363138 
L 503.240516 109.71146 
L 506.980436 109.957647 
" clip-path="url(#pe6deacd77b)" style="fill: none; stroke: #4d4d4d; stroke-width: 1.25; stroke-linecap: square"/>
   </g>
   <g id="line2d_18">
    <path d="M 78.94662 111.062692 
L 527.362998 111.062692 
" clip-path="url(#pe6deacd77b)" style="fill: none; stroke-dasharray: 3.33,1.44; stroke-dashoffset: 0; stroke: #8bcf8b; stroke-width: 0.9"/>
   </g>
   <g id="line2d_19">
    <path d="M 78.94662 66.751589 
L 527.362998 66.751589 
" clip-path="url(#pe6deacd77b)" style="fill: none; stroke-dasharray: 0.8,1.32; stroke-dashoffset: 0; stroke: #767676; stroke-width: 0.8"/>
   </g>
   <g id="patch_3">
    <path d="M 78.94662 113.721358 
L 78.94662 19.781821 
" style="fill: none; stroke: #000000; stroke-width: 0.8; stroke-linejoin: miter; stroke-linecap: square"/>
   </g>
   <g id="patch_4">
    <path d="M 78.94662 113.721358 
L 527.362998 113.721358 
" style="fill: none; stroke: #000000; stroke-width: 0.8; stroke-linejoin: miter; stroke-linecap: square"/>
   </g>
   <g id="text_19">
    <text style="font-weight: 700; font-size: 9px; font-family: 'Times New Roman', 'DejaVu Serif'; text-anchor: start" x="7.2" y="13.159688" transform="rotate(-0 7.2 13.159688)">a</text>
   </g>
   <g id="text_20">
    <text style="font-size: 7.5px; font-family: 'Songti SC', 'Arial Unicode MS'; text-anchor: middle" x="303.154809" y="13.781821" transform="rotate(-0 303.154809 13.781821)">MicroStrategy继续购买比特币</text>
   </g>
   <g id="legend_1">
    <g id="line2d_20">
     <path d="M 470.322998 27.562821 
L 475.282998 27.562821 
L 480.242998 27.562821 
" style="fill: none; stroke: #4d4d4d; stroke-width: 1.25; stroke-linecap: square"/>
    </g>
    <g id="text_21">
     <text style="font-size: 6.2px; font-family: 'Songti SC', 'Arial Unicode MS'; text-anchor: start" x="485.202998" y="29.732821" transform="rotate(-0 485.202998 29.732821)">真实市场价格</text>
    </g>
   </g>
  </g>
  <g id="axes_2">
   <g id="patch_5">
    <path d="M 78.94662 248.2731 
L 527.362998 248.2731 
L 527.362998 154.333563 
L 78.94662 154.333563 
z
" style="fill: #ffffff"/>
   </g>
   <g id="matplotlib.axis_3">
    <g id="xtick_11">
     <g id="line2d_21">
      <g>
       <use xlink:href="#m5e77ecfe2c" x="99.329183" y="248.2731" style="stroke: #000000; stroke-width: 0.8"/>
      </g>
     </g>
     <g id="text_22">
      <text style="font-size: 7px; font-family: 'Times New Roman', 'DejaVu Serif'; text-anchor: middle" x="99.329183" y="259.633725" transform="rotate(-0 99.329183 259.633725)">0</text>
     </g>
    </g>
    <g id="xtick_12">
     <g id="line2d_22">
      <g>
       <use xlink:href="#m5e77ecfe2c" x="151.369769" y="248.2731" style="stroke: #000000; stroke-width: 0.8"/>
      </g>
     </g>
     <g id="text_23">
      <text style="font-size: 7px; font-family: 'Times New Roman', 'DejaVu Serif'; text-anchor: middle" x="151.369769" y="259.633725" transform="rotate(-0 151.369769 259.633725)">6</text>
     </g>
    </g>
    <g id="xtick_13">
     <g id="line2d_23">
      <g>
       <use xlink:href="#m5e77ecfe2c" x="203.410354" y="248.2731" style="stroke: #000000; stroke-width: 0.8"/>
      </g>
     </g>
     <g id="text_24">
      <text style="font-size: 7px; font-family: 'Times New Roman', 'DejaVu Serif'; text-anchor: middle" x="203.410354" y="259.633725" transform="rotate(-0 203.410354 259.633725)">12</text>
     </g>
    </g>
    <g id="xtick_14">
     <g id="line2d_24">
      <g>
       <use xlink:href="#m5e77ecfe2c" x="255.450939" y="248.2731" style="stroke: #000000; stroke-width: 0.8"/>
      </g>
     </g>
     <g id="text_25">
      <text style="font-size: 7px; font-family: 'Times New Roman', 'DejaVu Serif'; text-anchor: middle" x="255.450939" y="259.633725" transform="rotate(-0 255.450939 259.633725)">18</text>
     </g>
    </g>
    <g id="xtick_15">
     <g id="line2d_25">
      <g>
       <use xlink:href="#m5e77ecfe2c" x="307.491525" y="248.2731" style="stroke: #000000; stroke-width: 0.8"/>
      </g>
     </g>
     <g id="text_26">
      <text style="font-size: 7px; font-family: 'Times New Roman', 'DejaVu Serif'; text-anchor: middle" x="307.491525" y="259.633725" transform="rotate(-0 307.491525 259.633725)">24</text>
     </g>
    </g>
    <g id="xtick_16">
     <g id="line2d_26">
      <g>
       <use xlink:href="#m5e77ecfe2c" x="359.53211" y="248.2731" style="stroke: #000000; stroke-width: 0.8"/>
      </g>
     </g>
     <g id="text_27">
      <text style="font-size: 7px; font-family: 'Times New Roman', 'DejaVu Serif'; text-anchor: middle" x="359.53211" y="259.633725" transform="rotate(-0 359.53211 259.633725)">30</text>
     </g>
    </g>
    <g id="xtick_17">
     <g id="line2d_27">
      <g>
       <use xlink:href="#m5e77ecfe2c" x="411.572696" y="248.2731" style="stroke: #000000; stroke-width: 0.8"/>
      </g>
     </g>
     <g id="text_28">
      <text style="font-size: 7px; font-family: 'Times New Roman', 'DejaVu Serif'; text-anchor: middle" x="411.572696" y="259.633725" transform="rotate(-0 411.572696 259.633725)">36</text>
     </g>
    </g>
    <g id="xtick_18">
     <g id="line2d_28">
      <g>
       <use xlink:href="#m5e77ecfe2c" x="463.613281" y="248.2731" style="stroke: #000000; stroke-width: 0.8"/>
      </g>
     </g>
     <g id="text_29">
      <text style="font-size: 7px; font-family: 'Times New Roman', 'DejaVu Serif'; text-anchor: middle" x="463.613281" y="259.633725" transform="rotate(-0 463.613281 259.633725)">42</text>
     </g>
    </g>
    <g id="xtick_19">
     <g id="line2d_29">
      <g>
       <use xlink:href="#m5e77ecfe2c" x="515.653867" y="248.2731" style="stroke: #000000; stroke-width: 0.8"/>
      </g>
     </g>
     <g id="text_30">
      <text style="font-size: 7px; font-family: 'Times New Roman', 'DejaVu Serif'; text-anchor: middle" x="515.653867" y="259.633725" transform="rotate(-0 515.653867 259.633725)">48</text>
     </g>
    </g>
    <g id="text_31">
     <text style="font-size: 7.5px; font-family: 'Songti SC', 'Arial Unicode MS'; text-anchor: middle" x="303.154809" y="271.220131" transform="rotate(-0 303.154809 271.220131)">模拟累积成交笔数</text>
    </g>
   </g>
   <g id="matplotlib.axis_4">
    <g id="ytick_7">
     <g id="line2d_30">
      <g>
       <use xlink:href="#maaeb01caf4" x="78.94662" y="245.614434" style="stroke: #000000; stroke-width: 0.8"/>
      </g>
     </g>
     <g id="text_32">
      <text style="font-size: 7px; font-family: 'Times New Roman', 'DejaVu Serif'; text-anchor: end" x="72.44662" y="248.044746" transform="rotate(-0 72.44662 248.044746)">0.0</text>
     </g>
    </g>
    <g id="ytick_8">
     <g id="line2d_31">
      <g>
       <use xlink:href="#maaeb01caf4" x="78.94662" y="227.889993" style="stroke: #000000; stroke-width: 0.8"/>
      </g>
     </g>
     <g id="text_33">
      <text style="font-size: 7px; font-family: 'Times New Roman', 'DejaVu Serif'; text-anchor: end" x="72.44662" y="230.320305" transform="rotate(-0 72.44662 230.320305)">0.2</text>
     </g>
    </g>
    <g id="ytick_9">
     <g id="line2d_32">
      <g>
       <use xlink:href="#maaeb01caf4" x="78.94662" y="210.165552" style="stroke: #000000; stroke-width: 0.8"/>
      </g>
     </g>
     <g id="text_34">
      <text style="font-size: 7px; font-family: 'Times New Roman', 'DejaVu Serif'; text-anchor: end" x="72.44662" y="212.595864" transform="rotate(-0 72.44662 212.595864)">0.4</text>
     </g>
    </g>
    <g id="ytick_10">
     <g id="line2d_33">
      <g>
       <use xlink:href="#maaeb01caf4" x="78.94662" y="192.441111" style="stroke: #000000; stroke-width: 0.8"/>
      </g>
     </g>
     <g id="text_35">
      <text style="font-size: 7px; font-family: 'Times New Roman', 'DejaVu Serif'; text-anchor: end" x="72.44662" y="194.871423" transform="rotate(-0 72.44662 194.871423)">0.6</text>
     </g>
    </g>
    <g id="ytick_11">
     <g id="line2d_34">
      <g>
       <use xlink:href="#maaeb01caf4" x="78.94662" y="174.71667" style="stroke: #000000; stroke-width: 0.8"/>
      </g>
     </g>
     <g id="text_36">
      <text style="font-size: 7px; font-family: 'Times New Roman', 'DejaVu Serif'; text-anchor: end" x="72.44662" y="177.146982" transform="rotate(-0 72.44662 177.146982)">0.8</text>
     </g>
    </g>
    <g id="ytick_12">
     <g id="line2d_35">
      <g>
       <use xlink:href="#maaeb01caf4" x="78.94662" y="156.992229" style="stroke: #000000; stroke-width: 0.8"/>
      </g>
     </g>
     <g id="text_37">
      <text style="font-size: 7px; font-family: 'Times New Roman', 'DejaVu Serif'; text-anchor: end" x="72.44662" y="159.422541" transform="rotate(-0 72.44662 159.422541)">1.0</text>
     </g>
    </g>
    <g id="text_38">
     <text style="font-size: 7.5px; font-family: 'Songti SC', 'Arial Unicode MS'; text-anchor: middle" x="58.653652" y="201.303331" transform="rotate(-90 58.653652 201.303331)">YES 价格</text>
    </g>
   </g>
   <g id="line2d_36">
    <path d="M 99.329183 169.399338 
L 108.002614 169.399338 
L 108.002614 172.058004 
L 160.043199 170.728671 
L 177.390061 170.728671 
L 194.736923 170.728671 
L 229.430647 170.28556 
L 238.104078 170.28556 
L 264.12437 171.614893 
L 281.471232 171.614893 
L 307.491525 171.614893 
L 316.164956 171.614893 
L 342.185249 171.614893 
L 350.858679 171.614893 
L 394.225834 173.387337 
L 394.225834 173.387337 
L 402.899265 174.273559 
L 472.286712 176.489114 
L 489.633574 178.261558 
L 506.980436 178.261558 
L 506.980436 178.261558 
" clip-path="url(#p4bb87901d8)" style="fill: none; stroke: #0f4d92; stroke-width: 1.5; stroke-linecap: square"/>
    <defs>
     <path id="mf6e9638c12" d="M 0 1.4 
C 0.371284 1.4 0.727412 1.252487 0.989949 0.989949 
C 1.252487 0.727412 1.4 0.371284 1.4 0 
C 1.4 -0.371284 1.252487 -0.727412 0.989949 -0.989949 
C 0.727412 -1.252487 0.371284 -1.4 0 -1.4 
C -0.371284 -1.4 -0.727412 -1.252487 -0.989949 -0.989949 
C -1.252487 -0.727412 -1.4 -0.371284 -1.4 0 
C -1.4 0.371284 -1.252487 0.727412 -0.989949 0.989949 
C -0.727412 1.252487 -0.371284 1.4 0 1.4 
z
" style="stroke: #0f4d92"/>
    </defs>
    <g clip-path="url(#p4bb87901d8)">
     <use xlink:href="#mf6e9638c12" x="99.329183" y="169.399338" style="fill: #0f4d92; stroke: #0f4d92"/>
     <use xlink:href="#mf6e9638c12" x="108.002614" y="169.399338" style="fill: #0f4d92; stroke: #0f4d92"/>
     <use xlink:href="#mf6e9638c12" x="108.002614" y="172.058004" style="fill: #0f4d92; stroke: #0f4d92"/>
     <use xlink:href="#mf6e9638c12" x="160.043199" y="170.728671" style="fill: #0f4d92; stroke: #0f4d92"/>
     <use xlink:href="#mf6e9638c12" x="177.390061" y="170.728671" style="fill: #0f4d92; stroke: #0f4d92"/>
     <use xlink:href="#mf6e9638c12" x="194.736923" y="170.728671" style="fill: #0f4d92; stroke: #0f4d92"/>
     <use xlink:href="#mf6e9638c12" x="229.430647" y="170.28556" style="fill: #0f4d92; stroke: #0f4d92"/>
     <use xlink:href="#mf6e9638c12" x="238.104078" y="170.28556" style="fill: #0f4d92; stroke: #0f4d92"/>
     <use xlink:href="#mf6e9638c12" x="264.12437" y="171.614893" style="fill: #0f4d92; stroke: #0f4d92"/>
     <use xlink:href="#mf6e9638c12" x="281.471232" y="171.614893" style="fill: #0f4d92; stroke: #0f4d92"/>
     <use xlink:href="#mf6e9638c12" x="307.491525" y="171.614893" style="fill: #0f4d92; stroke: #0f4d92"/>
     <use xlink:href="#mf6e9638c12" x="316.164956" y="171.614893" style="fill: #0f4d92; stroke: #0f4d92"/>
     <use xlink:href="#mf6e9638c12" x="342.185249" y="171.614893" style="fill: #0f4d92; stroke: #0f4d92"/>
     <use xlink:href="#mf6e9638c12" x="350.858679" y="171.614893" style="fill: #0f4d92; stroke: #0f4d92"/>
     <use xlink:href="#mf6e9638c12" x="394.225834" y="173.387337" style="fill: #0f4d92; stroke: #0f4d92"/>
     <use xlink:href="#mf6e9638c12" x="394.225834" y="173.387337" style="fill: #0f4d92; stroke: #0f4d92"/>
     <use xlink:href="#mf6e9638c12" x="402.899265" y="174.273559" style="fill: #0f4d92; stroke: #0f4d92"/>
     <use xlink:href="#mf6e9638c12" x="472.286712" y="176.489114" style="fill: #0f4d92; stroke: #0f4d92"/>
     <use xlink:href="#mf6e9638c12" x="489.633574" y="178.261558" style="fill: #0f4d92; stroke: #0f4d92"/>
     <use xlink:href="#mf6e9638c12" x="506.980436" y="178.261558" style="fill: #0f4d92; stroke: #0f4d92"/>
     <use xlink:href="#mf6e9638c12" x="506.980436" y="178.261558" style="fill: #0f4d92; stroke: #0f4d92"/>
    </g>
   </g>
   <g id="line2d_37">
    <path d="M 78.94662 245.614434 
L 527.362998 245.614434 
" clip-path="url(#p4bb87901d8)" style="fill: none; stroke-dasharray: 3.33,1.44; stroke-dashoffset: 0; stroke: #8bcf8b; stroke-width: 0.9"/>
   </g>
   <g id="line2d_38">
    <path d="M 78.94662 201.303331 
L 527.362998 201.303331 
" clip-path="url(#p4bb87901d8)" style="fill: none; stroke-dasharray: 0.8,1.32; stroke-dashoffset: 0; stroke: #767676; stroke-width: 0.8"/>
   </g>
   <g id="patch_6">
    <path d="M 78.94662 248.2731 
L 78.94662 154.333563 
" style="fill: none; stroke: #000000; stroke-width: 0.8; stroke-linejoin: miter; stroke-linecap: square"/>
   </g>
   <g id="patch_7">
    <path d="M 78.94662 248.2731 
L 527.362998 248.2731 
" style="fill: none; stroke: #000000; stroke-width: 0.8; stroke-linejoin: miter; stroke-linecap: square"/>
   </g>
   <g id="text_39">
    <text style="font-weight: 700; font-size: 9px; font-family: 'Times New Roman', 'DejaVu Serif'; text-anchor: start" x="7.2" y="147.71143" transform="rotate(-0 7.2 147.71143)">b</text>
   </g>
   <g id="legend_2">
    <g id="line2d_39">
     <path d="M 470.322998 162.114563 
L 475.282998 162.114563 
L 480.242998 162.114563 
" style="fill: none; stroke: #0f4d92; stroke-width: 1.5; stroke-linecap: square"/>
     <g>
      <use xlink:href="#mf6e9638c12" x="475.282998" y="162.114563" style="fill: #0f4d92; stroke: #0f4d92"/>
     </g>
    </g>
    <g id="text_40">
     <text style="font-size: 6.2px; font-family: 'Songti SC', 'Arial Unicode MS'; text-anchor: start" x="485.202998" y="164.284563" transform="rotate(-0 485.202998 164.284563)">模拟市场价格</text>
    </g>
   </g>
  </g>
 </g>
 <defs>
  <clipPath id="pe6deacd77b">
   <rect x="78.94662" y="19.781821" width="448.416378" height="93.939537"/>
  </clipPath>
  <clipPath id="p4bb87901d8">
   <rect x="78.94662" y="154.333563" width="448.416378" height="93.939537"/>
  </clipPath>
 </defs>
</svg>
