<?xml version="1.0" encoding="utf-8" standalone="no"?>
<!DOCTYPE svg PUBLIC "-//W3C//DTD SVG 1.1//EN"
  "http://www.w3.org/Graphics/SVG/1.1/DTD/svg11.dtd">
<svg xmlns:xlink="http://www.w3.org/1999/xlink" width="534.562998pt" height="279.4631pt" viewBox="0 0 534.562998 279.4631" xmlns="http://www.w3.org/2000/svg" version="1.1">
 <metadata>
  <rdf:RDF xmlns:dc="http://purl.org/dc/elements/1.1/" xmlns:cc="http://creativecommons.org/ns#" xmlns:rdf="http://www.w3.org/1999/02/22-rdf-syntax-ns#">
   <cc:Work>
    <dc:type rdf:resource="http://purl.org/dc/dcmitype/StillImage"/>
    <dc:date>2026-05-29T20:53:26.477887</dc:date>
    <dc:format>image/svg+xml</dc:format>
    <dc:creator>
     <cc:Agent>
      <dc:title>Matplotlib v3.10.9, https://matplotlib.org/</dc:title>
     </cc:Agent>
    </dc:creator>
   </cc:Work>
  </rdf:RDF>
 </metadata>
 <defs>
  <style type="text/css">*{stroke-linejoin: round; stroke-linecap: butt}</style>
 </defs>
 <g id="figure_1">
  <g id="patch_1">
   <path d="M 0 279.4631 
L 534.562998 279.4631 
L 534.562998 0 
L 0 0 
z
" style="fill: #ffffff"/>
  </g>
  <g id="axes_1">
   <g id="patch_2">
    <path d="M 78.94662 113.721358 
L 527.362998 113.721358 
L 527.362998 19.781821 
L 78.94662 19.781821 
z
" style="fill: #ffffff"/>
   </g>
   <g id="PathCollection_1">
    <defs>
     <path id="m73e0861a43" d="M 0 1.414214 
C 0.375054 1.414214 0.734797 1.265203 1 1 
C 1.265203 0.734797 1.414214 0.375054 1.414214 0 
C 1.414214 -0.375054 1.265203 -0.734797 1 -1 
C 0.734797 -1.265203 0.375054 -1.414214 0 -1.414214 
C -0.375054 -1.414214 -0.734797 -1.265203 -1 -1 
C -1.265203 -0.734797 -1.414214 -0.375054 -1.414214 0 
C -1.414214 0.375054 -1.265203 0.734797 -1 1 
C -0.734797 1.265203 -0.375054 1.414214 0 1.414214 
z
"/>
    </defs>
    <g clip-path="url(#pee1442203a)">
     <use xlink:href="#m73e0861a43" x="99.329183" y="85.565204" style="fill: #4d4d4d; fill-opacity: 0.75"/>
     <use xlink:href="#m73e0861a43" x="119.998248" y="101.366381" style="fill: #4d4d4d; fill-opacity: 0.75"/>
     <use xlink:href="#m73e0861a43" x="140.462668" y="108.549946" style="fill: #4d4d4d; fill-opacity: 0.75"/>
     <use xlink:href="#m73e0861a43" x="160.927088" y="87.320635" style="fill: #4d4d4d; fill-opacity: 0.75"/>
     <use xlink:href="#m73e0861a43" x="181.596153" y="89.680701" style="fill: #4d4d4d; fill-opacity: 0.75"/>
     <use xlink:href="#m73e0861a43" x="202.060573" y="95.445389" style="fill: #4d4d4d; fill-opacity: 0.75"/>
     <use xlink:href="#m73e0861a43" x="222.729638" y="105.001676" style="fill: #4d4d4d; fill-opacity: 0.75"/>
     <use xlink:href="#m73e0861a43" x="243.194058" y="66.123899" style="fill: #4d4d4d; fill-opacity: 0.75"/>
     <use xlink:href="#m73e0861a43" x="263.658478" y="94.146955" style="fill: #4d4d4d; fill-opacity: 0.75"/>
     <use xlink:href="#m73e0861a43" x="284.327543" y="93.591393" style="fill: #4d4d4d; fill-opacity: 0.75"/>
     <use xlink:href="#m73e0861a43" x="304.791963" y="83.605641" style="fill: #4d4d4d; fill-opacity: 0.75"/>
     <use xlink:href="#m73e0861a43" x="325.461028" y="83.534863" style="fill: #4d4d4d; fill-opacity: 0.75"/>
     <use xlink:href="#m73e0861a43" x="345.925448" y="86.428434" style="fill: #4d4d4d; fill-opacity: 0.75"/>
     <use xlink:href="#m73e0861a43" x="366.389868" y="91.531027" style="fill: #4d4d4d; fill-opacity: 0.75"/>
     <use xlink:href="#m73e0861a43" x="387.058933" y="91.985464" style="fill: #4d4d4d; fill-opacity: 0.75"/>
     <use xlink:href="#m73e0861a43" x="407.523353" y="92.513514" style="fill: #4d4d4d; fill-opacity: 0.75"/>
     <use xlink:href="#m73e0861a43" x="428.192418" y="93.211772" style="fill: #4d4d4d; fill-opacity: 0.75"/>
     <use xlink:href="#m73e0861a43" x="448.656838" y="102.18891" style="fill: #4d4d4d; fill-opacity: 0.75"/>
     <use xlink:href="#m73e0861a43" x="469.121258" y="104.52301" style="fill: #4d4d4d; fill-opacity: 0.75"/>
     <use xlink:href="#m73e0861a43" x="489.790323" y="106.900441" style="fill: #4d4d4d; fill-opacity: 0.75"/>
    </g>
   </g>
   <g id="matplotlib.axis_1">
    <g id="xtick_1">
     <g id="line2d_1">
      <defs>
       <path id="m927304489c" d="M 0 0 
L 0 3 
" style="stroke: #000000; stroke-width: 0.8"/>
      </defs>
      <g>
       <use xlink:href="#m927304489c" x="95.850232" y="113.721358" style="stroke: #000000; stroke-width: 0.8"/>
      </g>
     </g>
     <g id="text_1">
      <text style="font-size: 7px; font-family: 'Times New Roman', 'DejaVu Serif'; text-anchor: middle" x="95.850232" y="125.081983" transform="rotate(-0 95.850232 125.081983)">0</text>
     </g>
    </g>
    <g id="xtick_2">
     <g id="line2d_2">
      <g>
       <use xlink:href="#m927304489c" x="147.011282" y="113.721358" style="stroke: #000000; stroke-width: 0.8"/>
      </g>
     </g>
     <g id="text_2">
      <text style="font-size: 7px; font-family: 'Times New Roman', 'DejaVu Serif'; text-anchor: middle" x="147.011282" y="125.081983" transform="rotate(-0 147.011282 125.081983)">250</text>
     </g>
    </g>
    <g id="xtick_3">
     <g id="line2d_3">
      <g>
       <use xlink:href="#m927304489c" x="198.172333" y="113.721358" style="stroke: #000000; stroke-width: 0.8"/>
      </g>
     </g>
     <g id="text_3">
      <text style="font-size: 7px; font-family: 'Times New Roman', 'DejaVu Serif'; text-anchor: middle" x="198.172333" y="125.081983" transform="rotate(-0 198.172333 125.081983)">500</text>
     </g>
    </g>
    <g id="xtick_4">
     <g id="line2d_4">
      <g>
       <use xlink:href="#m927304489c" x="249.333384" y="113.721358" style="stroke: #000000; stroke-width: 0.8"/>
      </g>
     </g>
     <g id="text_4">
      <text style="font-size: 7px; font-family: 'Times New Roman', 'DejaVu Serif'; text-anchor: middle" x="249.333384" y="125.081983" transform="rotate(-0 249.333384 125.081983)">750</text>
     </g>
    </g>
    <g id="xtick_5">
     <g id="line2d_5">
      <g>
       <use xlink:href="#m927304489c" x="300.494435" y="113.721358" style="stroke: #000000; stroke-width: 0.8"/>
      </g>
     </g>
     <g id="text_5">
      <text style="font-size: 7px; font-family: 'Times New Roman', 'DejaVu Serif'; text-anchor: middle" x="300.494435" y="125.081983" transform="rotate(-0 300.494435 125.081983)">1000</text>
     </g>
    </g>
    <g id="xtick_6">
     <g id="line2d_6">
      <g>
       <use xlink:href="#m927304489c" x="351.655486" y="113.721358" style="stroke: #000000; stroke-width: 0.8"/>
      </g>
     </g>
     <g id="text_6">
      <text style="font-size: 7px; font-family: 'Times New Roman', 'DejaVu Serif'; text-anchor: middle" x="351.655486" y="125.081983" transform="rotate(-0 351.655486 125.081983)">1250</text>
     </g>
    </g>
    <g id="xtick_7">
     <g id="line2d_7">
      <g>
       <use xlink:href="#m927304489c" x="402.816536" y="113.721358" style="stroke: #000000; stroke-width: 0.8"/>
      </g>
     </g>
     <g id="text_7">
      <text style="font-size: 7px; font-family: 'Times New Roman', 'DejaVu Serif'; text-anchor: middle" x="402.816536" y="125.081983" transform="rotate(-0 402.816536 125.081983)">1500</text>
     </g>
    </g>
    <g id="xtick_8">
     <g id="line2d_8">
      <g>
       <use xlink:href="#m927304489c" x="453.977587" y="113.721358" style="stroke: #000000; stroke-width: 0.8"/>
      </g>
     </g>
     <g id="text_8">
      <text style="font-size: 7px; font-family: 'Times New Roman', 'DejaVu Serif'; text-anchor: middle" x="453.977587" y="125.081983" transform="rotate(-0 453.977587 125.081983)">1750</text>
     </g>
    </g>
    <g id="xtick_9">
     <g id="line2d_9">
      <g>
       <use xlink:href="#m927304489c" x="505.138638" y="113.721358" style="stroke: #000000; stroke-width: 0.8"/>
      </g>
     </g>
     <g id="text_9">
      <text style="font-size: 7px; font-family: 'Times New Roman', 'DejaVu Serif'; text-anchor: middle" x="505.138638" y="125.081983" transform="rotate(-0 505.138638 125.081983)">2000</text>
     </g>
    </g>
    <g id="text_10">
     <text style="font-size: 7.5px; font-family: 'Songti SC', 'Arial Unicode MS'; text-anchor: middle" x="303.154809" y="136.668389" transform="rotate(-0 303.154809 136.668389)">真实累积成交笔数</text>
    </g>
   </g>
   <g id="matplotlib.axis_2">
    <g id="ytick_1">
     <g id="line2d_10">
      <defs>
       <path id="m29a83d8526" d="M 0 0 
L -3 0 
" style="stroke: #000000; stroke-width: 0.8"/>
      </defs>
      <g>
       <use xlink:href="#m29a83d8526" x="78.94662" y="111.062692" style="stroke: #000000; stroke-width: 0.8"/>
      </g>
     </g>
     <g id="text_11">
      <text style="font-size: 7px; font-family: 'Times New Roman', 'DejaVu Serif'; text-anchor: end" x="72.44662" y="113.493004" transform="rotate(-0 72.44662 113.493004)">0.0</text>
     </g>
    </g>
    <g id="ytick_2">
     <g id="line2d_11">
      <g>
       <use xlink:href="#m29a83d8526" x="78.94662" y="93.338251" style="stroke: #000000; stroke-width: 0.8"/>
      </g>
     </g>
     <g id="text_12">
      <text style="font-size: 7px; font-family: 'Times New Roman', 'DejaVu Serif'; text-anchor: end" x="72.44662" y="95.768563" transform="rotate(-0 72.44662 95.768563)">0.2</text>
     </g>
    </g>
    <g id="ytick_3">
     <g id="line2d_12">
      <g>
       <use xlink:href="#m29a83d8526" x="78.94662" y="75.61381" style="stroke: #000000; stroke-width: 0.8"/>
      </g>
     </g>
     <g id="text_13">
      <text style="font-size: 7px; font-family: 'Times New Roman', 'DejaVu Serif'; text-anchor: end" x="72.44662" y="78.044122" transform="rotate(-0 72.44662 78.044122)">0.4</text>
     </g>
    </g>
    <g id="ytick_4">
     <g id="line2d_13">
      <g>
       <use xlink:href="#m29a83d8526" x="78.94662" y="57.889369" style="stroke: #000000; stroke-width: 0.8"/>
      </g>
     </g>
     <g id="text_14">
      <text style="font-size: 7px; font-family: 'Times New Roman', 'DejaVu Serif'; text-anchor: end" x="72.44662" y="60.319681" transform="rotate(-0 72.44662 60.319681)">0.6</text>
     </g>
    </g>
    <g id="ytick_5">
     <g id="line2d_14">
      <g>
       <use xlink:href="#m29a83d8526" x="78.94662" y="40.164928" style="stroke: #000000; stroke-width: 0.8"/>
      </g>
     </g>
     <g id="text_15">
      <text style="font-size: 7px; font-family: 'Times New Roman', 'DejaVu Serif'; text-anchor: end" x="72.44662" y="42.59524" transform="rotate(-0 72.44662 42.59524)">0.8</text>
     </g>
    </g>
    <g id="ytick_6">
     <g id="line2d_15">
      <g>
       <use xlink:href="#m29a83d8526" x="78.94662" y="22.440487" style="stroke: #000000; stroke-width: 0.8"/>
      </g>
     </g>
     <g id="text_16">
      <text style="font-size: 7px; font-family: 'Times New Roman', 'DejaVu Serif'; text-anchor: end" x="72.44662" y="24.870799" transform="rotate(-0 72.44662 24.870799)">1.0</text>
     </g>
    </g>
    <g id="text_17">
     <text style="font-size: 7.5px; font-family: 'Songti SC', 'Arial Unicode MS'; text-anchor: middle" x="58.653652" y="66.751589" transform="rotate(-90 58.653652 66.751589)">YES 价格</text>
    </g>
   </g>
   <g id="line2d_16">
    <path d="M 99.329183 85.565204 
L 102.808135 89.624557 
L 106.287086 91.368639 
L 109.561393 93.661045 
L 113.040345 99.483133 
L 116.519296 100.949336 
L 119.998248 101.366381 
L 123.272555 102.957669 
L 126.751506 104.995123 
L 130.230458 104.167854 
L 133.709409 106.343101 
L 136.983716 108.252534 
L 140.462668 108.549946 
L 143.941619 107.92246 
L 147.420571 108.134775 
L 150.694878 108.479425 
L 154.17383 108.719193 
L 157.652781 107.91669 
L 160.927088 87.320635 
L 164.40604 90.237133 
L 167.884991 91.931029 
L 171.363943 91.043575 
L 174.63825 90.577244 
L 178.117201 90.326577 
L 181.596153 89.680701 
L 185.075104 88.243768 
L 188.349411 92.150956 
L 191.828363 88.318243 
L 195.307314 89.529994 
L 198.786266 93.511645 
L 202.060573 95.445389 
L 205.539525 97.666224 
L 209.018476 99.646452 
L 212.292783 101.572213 
L 215.771735 104.731771 
L 219.250686 106.372414 
L 222.729638 105.001676 
L 226.003945 106.622754 
L 229.482896 108.012199 
L 232.961848 108.463095 
L 236.440799 90.424898 
L 239.715106 79.363676 
L 243.194058 66.123899 
L 246.673009 73.475006 
L 250.151961 81.808485 
L 253.426268 86.465051 
L 256.90522 84.477182 
L 260.384171 88.822671 
L 263.658478 94.146955 
L 267.13743 92.066962 
L 270.616381 91.374341 
L 274.095333 93.292666 
L 277.36964 94.230293 
L 280.848591 93.828729 
L 284.327543 93.591393 
L 287.806494 93.816264 
L 291.080801 93.158646 
L 294.559753 90.6182 
L 298.038704 92.675627 
L 301.517656 87.975066 
L 304.791963 83.605641 
L 308.270915 84.024649 
L 311.749866 85.494574 
L 315.024173 84.818215 
L 318.503125 80.502256 
L 321.982076 81.925422 
L 325.461028 83.534863 
L 328.735335 85.602346 
L 332.214286 85.761245 
L 335.693238 87.025902 
L 339.172189 88.420986 
L 342.446496 86.942648 
L 345.925448 86.428434 
L 349.404399 88.01104 
L 352.883351 87.212157 
L 356.157658 85.733383 
L 359.63661 89.196116 
L 363.115561 91.876897 
L 366.389868 91.531027 
L 369.86882 91.602063 
L 373.347771 91.633346 
L 376.826723 91.852543 
L 380.10103 91.003915 
L 383.579981 92.348499 
L 387.058933 91.985464 
L 390.537884 92.803536 
L 393.812191 94.313597 
L 397.291143 95.338994 
L 400.770094 95.11927 
L 404.249046 93.973862 
L 407.523353 92.513514 
L 411.002305 91.992296 
L 414.481256 94.541384 
L 417.755563 93.974569 
L 421.234515 91.451075 
L 424.713466 90.612234 
L 428.192418 93.211772 
L 431.466725 97.522574 
L 434.945676 99.616163 
L 438.424628 100.2393 
L 441.903579 97.038518 
L 445.177886 100.697689 
L 448.656838 102.18891 
L 452.135789 100.81359 
L 455.614741 101.615281 
L 458.889048 101.0877 
L 462.368 98.578826 
L 465.846951 91.831615 
L 469.121258 104.52301 
L 472.60021 104.307972 
L 476.079161 103.491704 
L 479.558113 105.293187 
L 482.83242 105.015167 
L 486.311371 106.276039 
L 489.790323 106.900441 
L 493.269274 104.661043 
L 496.543581 106.318381 
L 500.022533 105.705453 
L 503.501484 106.099555 
L 506.980436 97.980758 
" clip-path="url(#pee1442203a)" style="fill: none; stroke: #4d4d4d; stroke-width: 1.25; stroke-linecap: square"/>
   </g>
   <g id="line2d_17">
    <path d="M 78.94662 111.062692 
L 527.362998 111.062692 
" clip-path="url(#pee1442203a)" style="fill: none; stroke-dasharray: 3.33,1.44; stroke-dashoffset: 0; stroke: #8bcf8b; stroke-width: 0.9"/>
   </g>
   <g id="line2d_18">
    <path d="M 78.94662 66.751589 
L 527.362998 66.751589 
" clip-path="url(#pee1442203a)" style="fill: none; stroke-dasharray: 0.8,1.32; stroke-dashoffset: 0; stroke: #767676; stroke-width: 0.8"/>
   </g>
   <g id="patch_3">
    <path d="M 78.94662 113.721358 
L 78.94662 19.781821 
" style="fill: none; stroke: #000000; stroke-width: 0.8; stroke-linejoin: miter; stroke-linecap: square"/>
   </g>
   <g id="patch_4">
    <path d="M 78.94662 113.721358 
L 527.362998 113.721358 
" style="fill: none; stroke: #000000; stroke-width: 0.8; stroke-linejoin: miter; stroke-linecap: square"/>
   </g>
   <g id="text_18">
    <text style="font-weight: 700; font-size: 9px; font-family: 'Times New Roman', 'DejaVu Serif'; text-anchor: start" x="7.2" y="13.159688" transform="rotate(-0 7.2 13.159688)">a</text>
   </g>
   <g id="text_19">
    <text style="font-size: 7.5px; font-family: 'Songti SC', 'Arial Unicode MS'; text-anchor: middle" x="303.154809" y="13.781821" transform="rotate(-0 303.154809 13.781821)">Katy Perry与Justin Trudeau关系确认</text>
   </g>
   <g id="legend_1">
    <g id="line2d_19">
     <path d="M 470.322998 27.562821 
L 475.282998 27.562821 
L 480.242998 27.562821 
" style="fill: none; stroke: #4d4d4d; stroke-width: 1.25; stroke-linecap: square"/>
    </g>
    <g id="text_20">
     <text style="font-size: 6.2px; font-family: 'Songti SC', 'Arial Unicode MS'; text-anchor: start" x="485.202998" y="29.732821" transform="rotate(-0 485.202998 29.732821)">真实市场价格</text>
    </g>
   </g>
  </g>
  <g id="axes_2">
   <g id="patch_5">
    <path d="M 78.94662 248.2731 
L 527.362998 248.2731 
L 527.362998 154.333563 
L 78.94662 154.333563 
z
" style="fill: #ffffff"/>
   </g>
   <g id="matplotlib.axis_3">
    <g id="xtick_10">
     <g id="line2d_20">
      <g>
       <use xlink:href="#m927304489c" x="99.329183" y="248.2731" style="stroke: #000000; stroke-width: 0.8"/>
      </g>
     </g>
     <g id="text_21">
      <text style="font-size: 7px; font-family: 'Times New Roman', 'DejaVu Serif'; text-anchor: middle" x="99.329183" y="259.633725" transform="rotate(-0 99.329183 259.633725)">0</text>
     </g>
    </g>
    <g id="xtick_11">
     <g id="line2d_21">
      <g>
       <use xlink:href="#m927304489c" x="145.261719" y="248.2731" style="stroke: #000000; stroke-width: 0.8"/>
      </g>
     </g>
     <g id="text_22">
      <text style="font-size: 7px; font-family: 'Times New Roman', 'DejaVu Serif'; text-anchor: middle" x="145.261719" y="259.633725" transform="rotate(-0 145.261719 259.633725)">8</text>
     </g>
    </g>
    <g id="xtick_12">
     <g id="line2d_22">
      <g>
       <use xlink:href="#m927304489c" x="191.194254" y="248.2731" style="stroke: #000000; stroke-width: 0.8"/>
      </g>
     </g>
     <g id="text_23">
      <text style="font-size: 7px; font-family: 'Times New Roman', 'DejaVu Serif'; text-anchor: middle" x="191.194254" y="259.633725" transform="rotate(-0 191.194254 259.633725)">16</text>
     </g>
    </g>
    <g id="xtick_13">
     <g id="line2d_23">
      <g>
       <use xlink:href="#m927304489c" x="237.12679" y="248.2731" style="stroke: #000000; stroke-width: 0.8"/>
      </g>
     </g>
     <g id="text_24">
      <text style="font-size: 7px; font-family: 'Times New Roman', 'DejaVu Serif'; text-anchor: middle" x="237.12679" y="259.633725" transform="rotate(-0 237.12679 259.633725)">24</text>
     </g>
    </g>
    <g id="xtick_14">
     <g id="line2d_24">
      <g>
       <use xlink:href="#m927304489c" x="283.059325" y="248.2731" style="stroke: #000000; stroke-width: 0.8"/>
      </g>
     </g>
     <g id="text_25">
      <text style="font-size: 7px; font-family: 'Times New Roman', 'DejaVu Serif'; text-anchor: middle" x="283.059325" y="259.633725" transform="rotate(-0 283.059325 259.633725)">32</text>
     </g>
    </g>
    <g id="xtick_15">
     <g id="line2d_25">
      <g>
       <use xlink:href="#m927304489c" x="328.991861" y="248.2731" style="stroke: #000000; stroke-width: 0.8"/>
      </g>
     </g>
     <g id="text_26">
      <text style="font-size: 7px; font-family: 'Times New Roman', 'DejaVu Serif'; text-anchor: middle" x="328.991861" y="259.633725" transform="rotate(-0 328.991861 259.633725)">40</text>
     </g>
    </g>
    <g id="xtick_16">
     <g id="line2d_26">
      <g>
       <use xlink:href="#m927304489c" x="374.924396" y="248.2731" style="stroke: #000000; stroke-width: 0.8"/>
      </g>
     </g>
     <g id="text_27">
      <text style="font-size: 7px; font-family: 'Times New Roman', 'DejaVu Serif'; text-anchor: middle" x="374.924396" y="259.633725" transform="rotate(-0 374.924396 259.633725)">48</text>
     </g>
    </g>
    <g id="xtick_17">
     <g id="line2d_27">
      <g>
       <use xlink:href="#m927304489c" x="420.856932" y="248.2731" style="stroke: #000000; stroke-width: 0.8"/>
      </g>
     </g>
     <g id="text_28">
      <text style="font-size: 7px; font-family: 'Times New Roman', 'DejaVu Serif'; text-anchor: middle" x="420.856932" y="259.633725" transform="rotate(-0 420.856932 259.633725)">56</text>
     </g>
    </g>
    <g id="xtick_18">
     <g id="line2d_28">
      <g>
       <use xlink:href="#m927304489c" x="466.789467" y="248.2731" style="stroke: #000000; stroke-width: 0.8"/>
      </g>
     </g>
     <g id="text_29">
      <text style="font-size: 7px; font-family: 'Times New Roman', 'DejaVu Serif'; text-anchor: middle" x="466.789467" y="259.633725" transform="rotate(-0 466.789467 259.633725)">64</text>
     </g>
    </g>
    <g id="xtick_19">
     <g id="line2d_29">
      <g>
       <use xlink:href="#m927304489c" x="512.722003" y="248.2731" style="stroke: #000000; stroke-width: 0.8"/>
      </g>
     </g>
     <g id="text_30">
      <text style="font-size: 7px; font-family: 'Times New Roman', 'DejaVu Serif'; text-anchor: middle" x="512.722003" y="259.633725" transform="rotate(-0 512.722003 259.633725)">72</text>
     </g>
    </g>
    <g id="text_31">
     <text style="font-size: 7.5px; font-family: 'Songti SC', 'Arial Unicode MS'; text-anchor: middle" x="303.154809" y="271.220131" transform="rotate(-0 303.154809 271.220131)">模拟累积成交笔数</text>
    </g>
   </g>
   <g id="matplotlib.axis_4">
    <g id="ytick_7">
     <g id="line2d_30">
      <g>
       <use xlink:href="#m29a83d8526" x="78.94662" y="245.614434" style="stroke: #000000; stroke-width: 0.8"/>
      </g>
     </g>
     <g id="text_32">
      <text style="font-size: 7px; font-family: 'Times New Roman', 'DejaVu Serif'; text-anchor: end" x="72.44662" y="248.044746" transform="rotate(-0 72.44662 248.044746)">0.0</text>
     </g>
    </g>
    <g id="ytick_8">
     <g id="line2d_31">
      <g>
       <use xlink:href="#m29a83d8526" x="78.94662" y="227.889993" style="stroke: #000000; stroke-width: 0.8"/>
      </g>
     </g>
     <g id="text_33">
      <text style="font-size: 7px; font-family: 'Times New Roman', 'DejaVu Serif'; text-anchor: end" x="72.44662" y="230.320305" transform="rotate(-0 72.44662 230.320305)">0.2</text>
     </g>
    </g>
    <g id="ytick_9">
     <g id="line2d_32">
      <g>
       <use xlink:href="#m29a83d8526" x="78.94662" y="210.165552" style="stroke: #000000; stroke-width: 0.8"/>
      </g>
     </g>
     <g id="text_34">
      <text style="font-size: 7px; font-family: 'Times New Roman', 'DejaVu Serif'; text-anchor: end" x="72.44662" y="212.595864" transform="rotate(-0 72.44662 212.595864)">0.4</text>
     </g>
    </g>
    <g id="ytick_10">
     <g id="line2d_33">
      <g>
       <use xlink:href="#m29a83d8526" x="78.94662" y="192.441111" style="stroke: #000000; stroke-width: 0.8"/>
      </g>
     </g>
     <g id="text_35">
      <text style="font-size: 7px; font-family: 'Times New Roman', 'DejaVu Serif'; text-anchor: end" x="72.44662" y="194.871423" transform="rotate(-0 72.44662 194.871423)">0.6</text>
     </g>
    </g>
    <g id="ytick_11">
     <g id="line2d_34">
      <g>
       <use xlink:href="#m29a83d8526" x="78.94662" y="174.71667" style="stroke: #000000; stroke-width: 0.8"/>
      </g>
     </g>
     <g id="text_36">
      <text style="font-size: 7px; font-family: 'Times New Roman', 'DejaVu Serif'; text-anchor: end" x="72.44662" y="177.146982" transform="rotate(-0 72.44662 177.146982)">0.8</text>
     </g>
    </g>
    <g id="ytick_12">
     <g id="line2d_35">
      <g>
       <use xlink:href="#m29a83d8526" x="78.94662" y="156.992229" style="stroke: #000000; stroke-width: 0.8"/>
      </g>
     </g>
     <g id="text_37">
      <text style="font-size: 7px; font-family: 'Times New Roman', 'DejaVu Serif'; text-anchor: end" x="72.44662" y="159.422541" transform="rotate(-0 72.44662 159.422541)">1.0</text>
     </g>
    </g>
    <g id="text_38">
     <text style="font-size: 7.5px; font-family: 'Songti SC', 'Arial Unicode MS'; text-anchor: middle" x="58.653652" y="201.303331" transform="rotate(-90 58.653652 201.303331)">YES 价格</text>
    </g>
   </g>
   <g id="line2d_36">
    <path d="M 99.329183 215.482884 
L 110.812317 215.482884 
L 116.553884 215.925995 
L 122.295451 213.71044 
L 133.778585 212.381107 
L 151.003286 211.494885 
L 156.744852 211.051774 
L 173.969553 210.608663 
L 185.452687 211.051774 
L 196.935821 211.051774 
L 214.160522 210.165552 
L 271.576191 210.165552 
L 340.474995 210.165552 
L 374.924396 210.165552 
L 392.149097 207.949997 
L 420.856932 208.393108 
L 432.340066 208.393108 
L 461.0479 208.393108 
L 461.0479 208.393108 
L 495.497302 222.572661 
L 506.980436 219.027772 
" clip-path="url(#p0987884200)" style="fill: none; stroke: #0f4d92; stroke-width: 1.5; stroke-linecap: square"/>
    <defs>
     <path id="mfd1393cedc" d="M 0 1.4 
C 0.371284 1.4 0.727412 1.252487 0.989949 0.989949 
C 1.252487 0.727412 1.4 0.371284 1.4 0 
C 1.4 -0.371284 1.252487 -0.727412 0.989949 -0.989949 
C 0.727412 -1.252487 0.371284 -1.4 0 -1.4 
C -0.371284 -1.4 -0.727412 -1.252487 -0.989949 -0.989949 
C -1.252487 -0.727412 -1.4 -0.371284 -1.4 0 
C -1.4 0.371284 -1.252487 0.727412 -0.989949 0.989949 
C -0.727412 1.252487 -0.371284 1.4 0 1.4 
z
" style="stroke: #0f4d92"/>
    </defs>
    <g clip-path="url(#p0987884200)">
     <use xlink:href="#mfd1393cedc" x="99.329183" y="215.482884" style="fill: #0f4d92; stroke: #0f4d92"/>
     <use xlink:href="#mfd1393cedc" x="110.812317" y="215.482884" style="fill: #0f4d92; stroke: #0f4d92"/>
     <use xlink:href="#mfd1393cedc" x="116.553884" y="215.925995" style="fill: #0f4d92; stroke: #0f4d92"/>
     <use xlink:href="#mfd1393cedc" x="122.295451" y="213.71044" style="fill: #0f4d92; stroke: #0f4d92"/>
     <use xlink:href="#mfd1393cedc" x="133.778585" y="212.381107" style="fill: #0f4d92; stroke: #0f4d92"/>
     <use xlink:href="#mfd1393cedc" x="151.003286" y="211.494885" style="fill: #0f4d92; stroke: #0f4d92"/>
     <use xlink:href="#mfd1393cedc" x="156.744852" y="211.051774" style="fill: #0f4d92; stroke: #0f4d92"/>
     <use xlink:href="#mfd1393cedc" x="173.969553" y="210.608663" style="fill: #0f4d92; stroke: #0f4d92"/>
     <use xlink:href="#mfd1393cedc" x="185.452687" y="211.051774" style="fill: #0f4d92; stroke: #0f4d92"/>
     <use xlink:href="#mfd1393cedc" x="196.935821" y="211.051774" style="fill: #0f4d92; stroke: #0f4d92"/>
     <use xlink:href="#mfd1393cedc" x="214.160522" y="210.165552" style="fill: #0f4d92; stroke: #0f4d92"/>
     <use xlink:href="#mfd1393cedc" x="271.576191" y="210.165552" style="fill: #0f4d92; stroke: #0f4d92"/>
     <use xlink:href="#mfd1393cedc" x="340.474995" y="210.165552" style="fill: #0f4d92; stroke: #0f4d92"/>
     <use xlink:href="#mfd1393cedc" x="374.924396" y="210.165552" style="fill: #0f4d92; stroke: #0f4d92"/>
     <use xlink:href="#mfd1393cedc" x="392.149097" y="207.949997" style="fill: #0f4d92; stroke: #0f4d92"/>
     <use xlink:href="#mfd1393cedc" x="420.856932" y="208.393108" style="fill: #0f4d92; stroke: #0f4d92"/>
     <use xlink:href="#mfd1393cedc" x="432.340066" y="208.393108" style="fill: #0f4d92; stroke: #0f4d92"/>
     <use xlink:href="#mfd1393cedc" x="461.0479" y="208.393108" style="fill: #0f4d92; stroke: #0f4d92"/>
     <use xlink:href="#mfd1393cedc" x="461.0479" y="208.393108" style="fill: #0f4d92; stroke: #0f4d92"/>
     <use xlink:href="#mfd1393cedc" x="495.497302" y="222.572661" style="fill: #0f4d92; stroke: #0f4d92"/>
     <use xlink:href="#mfd1393cedc" x="506.980436" y="219.027772" style="fill: #0f4d92; stroke: #0f4d92"/>
    </g>
   </g>
   <g id="line2d_37">
    <path d="M 78.94662 245.614434 
L 527.362998 245.614434 
" clip-path="url(#p0987884200)" style="fill: none; stroke-dasharray: 3.33,1.44; stroke-dashoffset: 0; stroke: #8bcf8b; stroke-width: 0.9"/>
   </g>
   <g id="line2d_38">
    <path d="M 78.94662 201.303331 
L 527.362998 201.303331 
" clip-path="url(#p0987884200)" style="fill: none; stroke-dasharray: 0.8,1.32; stroke-dashoffset: 0; stroke: #767676; stroke-width: 0.8"/>
   </g>
   <g id="patch_6">
    <path d="M 78.94662 248.2731 
L 78.94662 154.333563 
" style="fill: none; stroke: #000000; stroke-width: 0.8; stroke-linejoin: miter; stroke-linecap: square"/>
   </g>
   <g id="patch_7">
    <path d="M 78.94662 248.2731 
L 527.362998 248.2731 
" style="fill: none; stroke: #000000; stroke-width: 0.8; stroke-linejoin: miter; stroke-linecap: square"/>
   </g>
   <g id="text_39">
    <text style="font-weight: 700; font-size: 9px; font-family: 'Times New Roman', 'DejaVu Serif'; text-anchor: start" x="7.2" y="147.71143" transform="rotate(-0 7.2 147.71143)">b</text>
   </g>
   <g id="legend_2">
    <g id="line2d_39">
     <path d="M 470.322998 162.114563 
L 475.282998 162.114563 
L 480.242998 162.114563 
" style="fill: none; stroke: #0f4d92; stroke-width: 1.5; stroke-linecap: square"/>
     <g>
      <use xlink:href="#mfd1393cedc" x="475.282998" y="162.114563" style="fill: #0f4d92; stroke: #0f4d92"/>
     </g>
    </g>
    <g id="text_40">
     <text style="font-size: 6.2px; font-family: 'Songti SC', 'Arial Unicode MS'; text-anchor: start" x="485.202998" y="164.284563" transform="rotate(-0 485.202998 164.284563)">模拟市场价格</text>
    </g>
   </g>
  </g>
 </g>
 <defs>
  <clipPath id="pee1442203a">
   <rect x="78.94662" y="19.781821" width="448.416378" height="93.939537"/>
  </clipPath>
  <clipPath id="p0987884200">
   <rect x="78.94662" y="154.333563" width="448.416378" height="93.939537"/>
  </clipPath>
 </defs>
</svg>
