<?xml version="1.0" encoding="utf-8" standalone="no"?>
<!DOCTYPE svg PUBLIC "-//W3C//DTD SVG 1.1//EN"
  "http://www.w3.org/Graphics/SVG/1.1/DTD/svg11.dtd">
<svg xmlns:xlink="http://www.w3.org/1999/xlink" width="526.913126pt" height="160.538601pt" viewBox="0 0 526.913126 160.538601" xmlns="http://www.w3.org/2000/svg" version="1.1">
 <metadata>
  <rdf:RDF xmlns:dc="http://purl.org/dc/elements/1.1/" xmlns:cc="http://creativecommons.org/ns#" xmlns:rdf="http://www.w3.org/1999/02/22-rdf-syntax-ns#">
   <cc:Work>
    <dc:type rdf:resource="http://purl.org/dc/dcmitype/StillImage"/>
    <dc:date>2026-05-29T20:53:23.399299</dc:date>
    <dc:format>image/svg+xml</dc:format>
    <dc:creator>
     <cc:Agent>
      <dc:title>Matplotlib v3.10.9, https://matplotlib.org/</dc:title>
     </cc:Agent>
    </dc:creator>
   </cc:Work>
  </rdf:RDF>
 </metadata>
 <defs>
  <style type="text/css">*{stroke-linejoin: round; stroke-linecap: butt}</style>
 </defs>
 <g id="figure_1">
  <g id="patch_1">
   <path d="M 0 160.538601 
L 526.913126 160.538601 
L 526.913126 0 
L 0 0 
z
" style="fill: #ffffff"/>
  </g>
  <g id="axes_1">
   <g id="patch_2">
    <path d="M 33.530469 129.348601 
L 519.713126 129.348601 
L 519.713126 19.477734 
L 33.530469 19.477734 
z
" style="fill: #ffffff"/>
   </g>
   <g id="PathCollection_1">
    <defs>
     <path id="m17fc72eb7b" d="M 0 1.414214 
C 0.375054 1.414214 0.734797 1.265203 1 1 
C 1.265203 0.734797 1.414214 0.375054 1.414214 0 
C 1.414214 -0.375054 1.265203 -0.734797 1 -1 
C 0.734797 -1.265203 0.375054 -1.414214 0 -1.414214 
C -0.375054 -1.414214 -0.734797 -1.265203 -1 -1 
C -1.265203 -0.734797 -1.414214 -0.375054 -1.414214 0 
C -1.414214 0.375054 -1.265203 0.734797 -1 1 
C -0.734797 1.265203 -0.375054 1.414214 0 1.414214 
z
"/>
    </defs>
    <g clip-path="url(#p492b72cf44)">
     <use xlink:href="#m17fc72eb7b" x="38.406925" y="52.542071" style="fill: #4d4d4d; fill-opacity: 0.75"/>
     <use xlink:href="#m17fc72eb7b" x="61.616386" y="54.373827" style="fill: #4d4d4d; fill-opacity: 0.75"/>
     <use xlink:href="#m17fc72eb7b" x="84.825847" y="55.225132" style="fill: #4d4d4d; fill-opacity: 0.75"/>
     <use xlink:href="#m17fc72eb7b" x="108.035308" y="88.746039" style="fill: #4d4d4d; fill-opacity: 0.75"/>
     <use xlink:href="#m17fc72eb7b" x="131.244769" y="84.163837" style="fill: #4d4d4d; fill-opacity: 0.75"/>
     <use xlink:href="#m17fc72eb7b" x="154.454231" y="87.279538" style="fill: #4d4d4d; fill-opacity: 0.75"/>
     <use xlink:href="#m17fc72eb7b" x="177.663692" y="89.155914" style="fill: #4d4d4d; fill-opacity: 0.75"/>
     <use xlink:href="#m17fc72eb7b" x="200.873153" y="92.065239" style="fill: #4d4d4d; fill-opacity: 0.75"/>
     <use xlink:href="#m17fc72eb7b" x="224.082614" y="112.134865" style="fill: #4d4d4d; fill-opacity: 0.75"/>
     <use xlink:href="#m17fc72eb7b" x="247.292075" y="110.945755" style="fill: #4d4d4d; fill-opacity: 0.75"/>
     <use xlink:href="#m17fc72eb7b" x="270.501537" y="117.866031" style="fill: #4d4d4d; fill-opacity: 0.75"/>
     <use xlink:href="#m17fc72eb7b" x="293.710998" y="119.503692" style="fill: #4d4d4d; fill-opacity: 0.75"/>
     <use xlink:href="#m17fc72eb7b" x="316.920459" y="119.358309" style="fill: #4d4d4d; fill-opacity: 0.75"/>
     <use xlink:href="#m17fc72eb7b" x="340.12992" y="116.288479" style="fill: #4d4d4d; fill-opacity: 0.75"/>
     <use xlink:href="#m17fc72eb7b" x="363.339381" y="117.288327" style="fill: #4d4d4d; fill-opacity: 0.75"/>
     <use xlink:href="#m17fc72eb7b" x="386.548843" y="121.05646" style="fill: #4d4d4d; fill-opacity: 0.75"/>
     <use xlink:href="#m17fc72eb7b" x="409.758304" y="122.510419" style="fill: #4d4d4d; fill-opacity: 0.75"/>
     <use xlink:href="#m17fc72eb7b" x="432.967765" y="122.750567" style="fill: #4d4d4d; fill-opacity: 0.75"/>
     <use xlink:href="#m17fc72eb7b" x="456.177226" y="125.931604" style="fill: #4d4d4d; fill-opacity: 0.75"/>
     <use xlink:href="#m17fc72eb7b" x="479.386687" y="124.509774" style="fill: #4d4d4d; fill-opacity: 0.75"/>
    </g>
   </g>
   <g id="matplotlib.axis_1">
    <g id="xtick_1">
     <g id="line2d_1">
      <defs>
       <path id="ma2d7c31564" d="M 0 0 
L 0 3 
" style="stroke: #000000; stroke-width: 0.8"/>
      </defs>
      <g>
       <use xlink:href="#ma2d7c31564" x="38.406925" y="129.348601" style="stroke: #000000; stroke-width: 0.8"/>
      </g>
     </g>
     <g id="text_1">
      <text style="font-size: 7px; font-family: 'Times New Roman', 'DejaVu Serif'; text-anchor: middle" x="38.406925" y="140.709226" transform="rotate(-0 38.406925 140.709226)">0</text>
     </g>
    </g>
    <g id="xtick_2">
     <g id="line2d_2">
      <g>
       <use xlink:href="#ma2d7c31564" x="87.171484" y="129.348601" style="stroke: #000000; stroke-width: 0.8"/>
      </g>
     </g>
     <g id="text_2">
      <text style="font-size: 7px; font-family: 'Times New Roman', 'DejaVu Serif'; text-anchor: middle" x="87.171484" y="140.709226" transform="rotate(-0 87.171484 140.709226)">5</text>
     </g>
    </g>
    <g id="xtick_3">
     <g id="line2d_3">
      <g>
       <use xlink:href="#ma2d7c31564" x="135.936044" y="129.348601" style="stroke: #000000; stroke-width: 0.8"/>
      </g>
     </g>
     <g id="text_3">
      <text style="font-size: 7px; font-family: 'Times New Roman', 'DejaVu Serif'; text-anchor: middle" x="135.936044" y="140.709226" transform="rotate(-0 135.936044 140.709226)">10</text>
     </g>
    </g>
    <g id="xtick_4">
     <g id="line2d_4">
      <g>
       <use xlink:href="#ma2d7c31564" x="184.700603" y="129.348601" style="stroke: #000000; stroke-width: 0.8"/>
      </g>
     </g>
     <g id="text_4">
      <text style="font-size: 7px; font-family: 'Times New Roman', 'DejaVu Serif'; text-anchor: middle" x="184.700603" y="140.709226" transform="rotate(-0 184.700603 140.709226)">15</text>
     </g>
    </g>
    <g id="xtick_5">
     <g id="line2d_5">
      <g>
       <use xlink:href="#ma2d7c31564" x="233.465162" y="129.348601" style="stroke: #000000; stroke-width: 0.8"/>
      </g>
     </g>
     <g id="text_5">
      <text style="font-size: 7px; font-family: 'Times New Roman', 'DejaVu Serif'; text-anchor: middle" x="233.465162" y="140.709226" transform="rotate(-0 233.465162 140.709226)">20</text>
     </g>
    </g>
    <g id="xtick_6">
     <g id="line2d_6">
      <g>
       <use xlink:href="#ma2d7c31564" x="282.229722" y="129.348601" style="stroke: #000000; stroke-width: 0.8"/>
      </g>
     </g>
     <g id="text_6">
      <text style="font-size: 7px; font-family: 'Times New Roman', 'DejaVu Serif'; text-anchor: middle" x="282.229722" y="140.709226" transform="rotate(-0 282.229722 140.709226)">25</text>
     </g>
    </g>
    <g id="xtick_7">
     <g id="line2d_7">
      <g>
       <use xlink:href="#ma2d7c31564" x="330.994281" y="129.348601" style="stroke: #000000; stroke-width: 0.8"/>
      </g>
     </g>
     <g id="text_7">
      <text style="font-size: 7px; font-family: 'Times New Roman', 'DejaVu Serif'; text-anchor: middle" x="330.994281" y="140.709226" transform="rotate(-0 330.994281 140.709226)">30</text>
     </g>
    </g>
    <g id="xtick_8">
     <g id="line2d_8">
      <g>
       <use xlink:href="#ma2d7c31564" x="379.758841" y="129.348601" style="stroke: #000000; stroke-width: 0.8"/>
      </g>
     </g>
     <g id="text_8">
      <text style="font-size: 7px; font-family: 'Times New Roman', 'DejaVu Serif'; text-anchor: middle" x="379.758841" y="140.709226" transform="rotate(-0 379.758841 140.709226)">35</text>
     </g>
    </g>
    <g id="xtick_9">
     <g id="line2d_9">
      <g>
       <use xlink:href="#ma2d7c31564" x="428.5234" y="129.348601" style="stroke: #000000; stroke-width: 0.8"/>
      </g>
     </g>
     <g id="text_9">
      <text style="font-size: 7px; font-family: 'Times New Roman', 'DejaVu Serif'; text-anchor: middle" x="428.5234" y="140.709226" transform="rotate(-0 428.5234 140.709226)">40</text>
     </g>
    </g>
    <g id="xtick_10">
     <g id="line2d_10">
      <g>
       <use xlink:href="#ma2d7c31564" x="477.28796" y="129.348601" style="stroke: #000000; stroke-width: 0.8"/>
      </g>
     </g>
     <g id="text_10">
      <text style="font-size: 7px; font-family: 'Times New Roman', 'DejaVu Serif'; text-anchor: middle" x="477.28796" y="140.709226" transform="rotate(-0 477.28796 140.709226)">45</text>
     </g>
    </g>
    <g id="text_11">
     <text style="font-size: 7.5px; font-family: 'Songti SC', 'Arial Unicode MS'; text-anchor: middle" x="276.621797" y="152.295632" transform="rotate(-0 276.621797 152.295632)">累积成交笔数</text>
    </g>
   </g>
   <g id="matplotlib.axis_2">
    <g id="ytick_1">
     <g id="line2d_11">
      <defs>
       <path id="m6347fcbacc" d="M 0 0 
L -3 0 
" style="stroke: #000000; stroke-width: 0.8"/>
      </defs>
      <g>
       <use xlink:href="#m6347fcbacc" x="33.530469" y="126.239048" style="stroke: #000000; stroke-width: 0.8"/>
      </g>
     </g>
     <g id="text_12">
      <text style="font-size: 7px; font-family: 'Times New Roman', 'DejaVu Serif'; text-anchor: end" x="27.030469" y="128.66936" transform="rotate(-0 27.030469 128.66936)">0.0</text>
     </g>
    </g>
    <g id="ytick_2">
     <g id="line2d_12">
      <g>
       <use xlink:href="#m6347fcbacc" x="33.530469" y="105.508696" style="stroke: #000000; stroke-width: 0.8"/>
      </g>
     </g>
     <g id="text_13">
      <text style="font-size: 7px; font-family: 'Times New Roman', 'DejaVu Serif'; text-anchor: end" x="27.030469" y="107.939008" transform="rotate(-0 27.030469 107.939008)">0.2</text>
     </g>
    </g>
    <g id="ytick_3">
     <g id="line2d_13">
      <g>
       <use xlink:href="#m6347fcbacc" x="33.530469" y="84.778343" style="stroke: #000000; stroke-width: 0.8"/>
      </g>
     </g>
     <g id="text_14">
      <text style="font-size: 7px; font-family: 'Times New Roman', 'DejaVu Serif'; text-anchor: end" x="27.030469" y="87.208656" transform="rotate(-0 27.030469 87.208656)">0.4</text>
     </g>
    </g>
    <g id="ytick_4">
     <g id="line2d_14">
      <g>
       <use xlink:href="#m6347fcbacc" x="33.530469" y="64.047991" style="stroke: #000000; stroke-width: 0.8"/>
      </g>
     </g>
     <g id="text_15">
      <text style="font-size: 7px; font-family: 'Times New Roman', 'DejaVu Serif'; text-anchor: end" x="27.030469" y="66.478304" transform="rotate(-0 27.030469 66.478304)">0.6</text>
     </g>
    </g>
    <g id="ytick_5">
     <g id="line2d_15">
      <g>
       <use xlink:href="#m6347fcbacc" x="33.530469" y="43.317639" style="stroke: #000000; stroke-width: 0.8"/>
      </g>
     </g>
     <g id="text_16">
      <text style="font-size: 7px; font-family: 'Times New Roman', 'DejaVu Serif'; text-anchor: end" x="27.030469" y="45.747952" transform="rotate(-0 27.030469 45.747952)">0.8</text>
     </g>
    </g>
    <g id="ytick_6">
     <g id="line2d_16">
      <g>
       <use xlink:href="#m6347fcbacc" x="33.530469" y="22.587287" style="stroke: #000000; stroke-width: 0.8"/>
      </g>
     </g>
     <g id="text_17">
      <text style="font-size: 7px; font-family: 'Times New Roman', 'DejaVu Serif'; text-anchor: end" x="27.030469" y="25.0176" transform="rotate(-0 27.030469 25.0176)">1.0</text>
     </g>
    </g>
    <g id="text_18">
     <text style="font-size: 7.5px; font-family: 'Songti SC', 'Arial Unicode MS'; text-anchor: middle" x="13.2375" y="74.413167" transform="rotate(-90 13.2375 74.413167)">YES 价格</text>
    </g>
   </g>
   <g id="line2d_17">
    <path d="M 38.406925 37.098534 
L 48.159837 37.098534 
L 48.159837 40.208086 
L 106.677308 38.65331 
L 126.183132 38.65331 
L 145.688955 38.65331 
L 184.700603 38.135051 
L 194.453515 38.135051 
L 223.712251 39.689828 
L 243.218074 39.689828 
L 272.47681 39.689828 
L 282.229722 39.689828 
L 311.488457 39.689828 
L 321.241369 39.689828 
L 370.005929 41.762863 
L 370.005929 41.762863 
L 379.758841 42.79938 
L 457.782136 45.390675 
L 477.28796 47.46371 
L 496.793783 47.46371 
L 496.793783 47.46371 
" clip-path="url(#p492b72cf44)" style="fill: none; stroke: #0f4d92; stroke-width: 1.5; stroke-linecap: square"/>
    <defs>
     <path id="mec508aa5e4" d="M 0 1.4 
C 0.371284 1.4 0.727412 1.252487 0.989949 0.989949 
C 1.252487 0.727412 1.4 0.371284 1.4 0 
C 1.4 -0.371284 1.252487 -0.727412 0.989949 -0.989949 
C 0.727412 -1.252487 0.371284 -1.4 0 -1.4 
C -0.371284 -1.4 -0.727412 -1.252487 -0.989949 -0.989949 
C -1.252487 -0.727412 -1.4 -0.371284 -1.4 0 
C -1.4 0.371284 -1.252487 0.727412 -0.989949 0.989949 
C -0.727412 1.252487 -0.371284 1.4 0 1.4 
z
" style="stroke: #0f4d92"/>
    </defs>
    <g clip-path="url(#p492b72cf44)">
     <use xlink:href="#mec508aa5e4" x="38.406925" y="37.098534" style="fill: #0f4d92; stroke: #0f4d92"/>
     <use xlink:href="#mec508aa5e4" x="48.159837" y="37.098534" style="fill: #0f4d92; stroke: #0f4d92"/>
     <use xlink:href="#mec508aa5e4" x="48.159837" y="40.208086" style="fill: #0f4d92; stroke: #0f4d92"/>
     <use xlink:href="#mec508aa5e4" x="106.677308" y="38.65331" style="fill: #0f4d92; stroke: #0f4d92"/>
     <use xlink:href="#mec508aa5e4" x="126.183132" y="38.65331" style="fill: #0f4d92; stroke: #0f4d92"/>
     <use xlink:href="#mec508aa5e4" x="145.688955" y="38.65331" style="fill: #0f4d92; stroke: #0f4d92"/>
     <use xlink:href="#mec508aa5e4" x="184.700603" y="38.135051" style="fill: #0f4d92; stroke: #0f4d92"/>
     <use xlink:href="#mec508aa5e4" x="194.453515" y="38.135051" style="fill: #0f4d92; stroke: #0f4d92"/>
     <use xlink:href="#mec508aa5e4" x="223.712251" y="39.689828" style="fill: #0f4d92; stroke: #0f4d92"/>
     <use xlink:href="#mec508aa5e4" x="243.218074" y="39.689828" style="fill: #0f4d92; stroke: #0f4d92"/>
     <use xlink:href="#mec508aa5e4" x="272.47681" y="39.689828" style="fill: #0f4d92; stroke: #0f4d92"/>
     <use xlink:href="#mec508aa5e4" x="282.229722" y="39.689828" style="fill: #0f4d92; stroke: #0f4d92"/>
     <use xlink:href="#mec508aa5e4" x="311.488457" y="39.689828" style="fill: #0f4d92; stroke: #0f4d92"/>
     <use xlink:href="#mec508aa5e4" x="321.241369" y="39.689828" style="fill: #0f4d92; stroke: #0f4d92"/>
     <use xlink:href="#mec508aa5e4" x="370.005929" y="41.762863" style="fill: #0f4d92; stroke: #0f4d92"/>
     <use xlink:href="#mec508aa5e4" x="370.005929" y="41.762863" style="fill: #0f4d92; stroke: #0f4d92"/>
     <use xlink:href="#mec508aa5e4" x="379.758841" y="42.79938" style="fill: #0f4d92; stroke: #0f4d92"/>
     <use xlink:href="#mec508aa5e4" x="457.782136" y="45.390675" style="fill: #0f4d92; stroke: #0f4d92"/>
     <use xlink:href="#mec508aa5e4" x="477.28796" y="47.46371" style="fill: #0f4d92; stroke: #0f4d92"/>
     <use xlink:href="#mec508aa5e4" x="496.793783" y="47.46371" style="fill: #0f4d92; stroke: #0f4d92"/>
     <use xlink:href="#mec508aa5e4" x="496.793783" y="47.46371" style="fill: #0f4d92; stroke: #0f4d92"/>
    </g>
   </g>
   <g id="line2d_18">
    <path d="M 38.406925 52.542071 
L 44.20929 44.56146 
L 50.011655 47.931259 
L 55.814021 48.292921 
L 61.616386 54.373827 
L 67.418751 54.926637 
L 73.221116 52.529586 
L 79.023482 51.990912 
L 84.825847 55.225132 
L 90.628212 59.232057 
L 96.430578 70.763747 
L 102.232943 78.2043 
L 108.035308 88.746039 
L 113.837674 88.514119 
L 119.640039 82.823466 
L 125.442404 81.18599 
L 131.244769 84.163837 
L 137.047135 84.621989 
L 142.8495 91.527819 
L 148.651865 88.624782 
L 154.454231 87.279538 
L 160.256596 96.668602 
L 166.058961 104.123591 
L 171.861327 95.459685 
L 177.663692 89.155914 
L 183.466057 91.145163 
L 189.268422 94.968147 
L 195.070788 96.802371 
L 200.873153 92.065239 
L 206.675518 100.740712 
L 212.477884 104.051022 
L 218.280249 108.58239 
L 224.082614 112.134865 
L 229.88498 112.278684 
L 235.687345 112.458494 
L 241.48971 113.277329 
L 247.292075 110.945755 
L 253.094441 112.326378 
L 258.896806 115.218153 
L 264.699171 117.443139 
L 270.501537 117.866031 
L 276.303902 119.506614 
L 282.106267 120.019942 
L 287.908633 121.401966 
L 293.710998 119.503692 
L 299.513363 108.38998 
L 305.315728 101.984536 
L 311.118094 116.497129 
L 316.920459 119.358309 
L 322.722824 119.156172 
L 328.52519 116.913689 
L 334.327555 115.873872 
L 340.12992 116.288479 
L 345.932286 112.16016 
L 351.734651 118.900566 
L 357.537016 114.874944 
L 363.339381 117.288327 
L 369.141747 121.438833 
L 374.944112 120.588303 
L 380.746477 120.43685 
L 386.548843 121.05646 
L 392.351208 119.900907 
L 398.153573 121.05646 
L 403.955939 120.192695 
L 409.758304 122.510419 
L 415.560669 121.76859 
L 421.363034 121.540956 
L 427.1654 122.246417 
L 432.967765 122.750567 
L 438.77013 123.16867 
L 444.572496 124.005266 
L 450.374861 125.06586 
L 456.177226 125.931604 
L 461.979592 125.169349 
L 467.781957 124.787923 
L 473.584322 125.139051 
L 479.386687 124.509774 
L 485.189053 124.14493 
L 490.991418 124.156514 
L 496.793783 125.065375 
" clip-path="url(#p492b72cf44)" style="fill: none; stroke: #4d4d4d; stroke-opacity: 0.86; stroke-width: 1.25; stroke-linecap: square"/>
   </g>
   <g id="line2d_19">
    <path d="M 33.530469 126.239048 
L 519.713126 126.239048 
" clip-path="url(#p492b72cf44)" style="fill: none; stroke-dasharray: 3.33,1.44; stroke-dashoffset: 0; stroke: #8bcf8b; stroke-width: 0.9"/>
   </g>
   <g id="line2d_20">
    <path d="M 33.530469 74.413167 
L 519.713126 74.413167 
" clip-path="url(#p492b72cf44)" style="fill: none; stroke-dasharray: 0.8,1.32; stroke-dashoffset: 0; stroke: #767676; stroke-width: 0.8"/>
   </g>
   <g id="patch_3">
    <path d="M 33.530469 129.348601 
L 33.530469 19.477734 
" style="fill: none; stroke: #000000; stroke-width: 0.8; stroke-linejoin: miter; stroke-linecap: square"/>
   </g>
   <g id="patch_4">
    <path d="M 33.530469 129.348601 
L 519.713126 129.348601 
" style="fill: none; stroke: #000000; stroke-width: 0.8; stroke-linejoin: miter; stroke-linecap: square"/>
   </g>
   <g id="text_19">
    <text style="font-size: 7.5px; font-family: 'Songti SC', 'Arial Unicode MS'; text-anchor: middle" x="276.621797" y="13.477734" transform="rotate(-0 276.621797 13.477734)">MicroStrategy继续购买比特币</text>
   </g>
   <g id="legend_1">
    <g id="line2d_21">
     <path d="M 462.673126 27.258734 
L 467.633126 27.258734 
L 472.593126 27.258734 
" style="fill: none; stroke: #0f4d92; stroke-width: 1.5; stroke-linecap: square"/>
     <g>
      <use xlink:href="#mec508aa5e4" x="467.633126" y="27.258734" style="fill: #0f4d92; stroke: #0f4d92"/>
     </g>
    </g>
    <g id="text_20">
     <text style="font-size: 6.2px; font-family: 'Songti SC', 'Arial Unicode MS'; text-anchor: start" x="477.553126" y="29.428734" transform="rotate(-0 477.553126 29.428734)">模拟市场价格</text>
    </g>
    <g id="line2d_22">
     <path d="M 462.673126 36.211922 
L 467.633126 36.211922 
L 472.593126 36.211922 
" style="fill: none; stroke: #4d4d4d; stroke-opacity: 0.86; stroke-width: 1.25; stroke-linecap: square"/>
    </g>
    <g id="text_21">
     <text style="font-size: 6.2px; font-family: 'Songti SC', 'Arial Unicode MS'; text-anchor: start" x="477.553126" y="38.381922" transform="rotate(-0 477.553126 38.381922)">真实市场价格</text>
    </g>
   </g>
  </g>
 </g>
 <defs>
  <clipPath id="p492b72cf44">
   <rect x="33.530469" y="19.477734" width="486.182657" height="109.870866"/>
  </clipPath>
 </defs>
</svg>
