<?xml version="1.0" encoding="utf-8" standalone="no"?>
<!DOCTYPE svg PUBLIC "-//W3C//DTD SVG 1.1//EN"
  "http://www.w3.org/Graphics/SVG/1.1/DTD/svg11.dtd">
<svg xmlns:xlink="http://www.w3.org/1999/xlink" width="527.040157pt" height="160.471569pt" viewBox="0 0 527.040157 160.471569" xmlns="http://www.w3.org/2000/svg" version="1.1">
 <metadata>
  <rdf:RDF xmlns:dc="http://purl.org/dc/elements/1.1/" xmlns:cc="http://creativecommons.org/ns#" xmlns:rdf="http://www.w3.org/1999/02/22-rdf-syntax-ns#">
   <cc:Work>
    <dc:type rdf:resource="http://purl.org/dc/dcmitype/StillImage"/>
    <dc:date>2026-05-29T20:53:18.413050</dc:date>
    <dc:format>image/svg+xml</dc:format>
    <dc:creator>
     <cc:Agent>
      <dc:title>Matplotlib v3.10.9, https://matplotlib.org/</dc:title>
     </cc:Agent>
    </dc:creator>
   </cc:Work>
  </rdf:RDF>
 </metadata>
 <defs>
  <style type="text/css">*{stroke-linejoin: round; stroke-linecap: butt}</style>
 </defs>
 <g id="figure_1">
  <g id="patch_1">
   <path d="M 0 160.471569 
L 527.040157 160.471569 
L 527.040157 0 
L 0 0 
z
" style="fill: #ffffff"/>
  </g>
  <g id="axes_1">
   <g id="patch_2">
    <path d="M 33.575 129.341335 
L 519.840157 129.341335 
L 519.840157 19.455469 
L 33.575 19.455469 
z
" style="fill: #ffffff"/>
   </g>
   <g id="PathCollection_1">
    <defs>
     <path id="mdc80acd05e" d="M 0 1.414214 
C 0.375054 1.414214 0.734797 1.265203 1 1 
C 1.265203 0.734797 1.414214 0.375054 1.414214 0 
C 1.414214 -0.375054 1.265203 -0.734797 1 -1 
C 0.734797 -1.265203 0.375054 -1.414214 0 -1.414214 
C -0.375054 -1.414214 -0.734797 -1.265203 -1 -1 
C -1.265203 -0.734797 -1.414214 -0.375054 -1.414214 0 
C -1.414214 0.375054 -1.265203 0.734797 -1 1 
C -0.734797 1.265203 -0.375054 1.414214 0 1.414214 
z
"/>
    </defs>
    <g clip-path="url(#p3cc771b8e9)">
     <use xlink:href="#mdc80acd05e" x="55.677962" y="97.629734" style="fill: #4d4d4d; fill-opacity: 0.75"/>
     <use xlink:href="#mdc80acd05e" x="78.060708" y="115.284238" style="fill: #4d4d4d; fill-opacity: 0.75"/>
     <use xlink:href="#mdc80acd05e" x="100.443454" y="123.028556" style="fill: #4d4d4d; fill-opacity: 0.75"/>
     <use xlink:href="#mdc80acd05e" x="122.8262" y="98.167699" style="fill: #4d4d4d; fill-opacity: 0.75"/>
     <use xlink:href="#mdc80acd05e" x="145.208946" y="100.970579" style="fill: #4d4d4d; fill-opacity: 0.75"/>
     <use xlink:href="#mdc80acd05e" x="167.591692" y="108.488157" style="fill: #4d4d4d; fill-opacity: 0.75"/>
     <use xlink:href="#mdc80acd05e" x="189.974438" y="119.070572" style="fill: #4d4d4d; fill-opacity: 0.75"/>
     <use xlink:href="#mdc80acd05e" x="212.357184" y="76.987199" style="fill: #4d4d4d; fill-opacity: 0.75"/>
     <use xlink:href="#mdc80acd05e" x="234.73993" y="105.781624" style="fill: #4d4d4d; fill-opacity: 0.75"/>
     <use xlink:href="#mdc80acd05e" x="257.122676" y="105.793811" style="fill: #4d4d4d; fill-opacity: 0.75"/>
     <use xlink:href="#mdc80acd05e" x="279.505422" y="93.828954" style="fill: #4d4d4d; fill-opacity: 0.75"/>
     <use xlink:href="#mdc80acd05e" x="301.888168" y="94.666152" style="fill: #4d4d4d; fill-opacity: 0.75"/>
     <use xlink:href="#mdc80acd05e" x="324.270914" y="97.788269" style="fill: #4d4d4d; fill-opacity: 0.75"/>
     <use xlink:href="#mdc80acd05e" x="346.65366" y="103.696065" style="fill: #4d4d4d; fill-opacity: 0.75"/>
     <use xlink:href="#mdc80acd05e" x="369.036406" y="104.173316" style="fill: #4d4d4d; fill-opacity: 0.75"/>
     <use xlink:href="#mdc80acd05e" x="391.419152" y="104.17955" style="fill: #4d4d4d; fill-opacity: 0.75"/>
     <use xlink:href="#mdc80acd05e" x="413.801898" y="106.707596" style="fill: #4d4d4d; fill-opacity: 0.75"/>
     <use xlink:href="#mdc80acd05e" x="436.184644" y="115.365212" style="fill: #4d4d4d; fill-opacity: 0.75"/>
     <use xlink:href="#mdc80acd05e" x="458.56739" y="118.679489" style="fill: #4d4d4d; fill-opacity: 0.75"/>
     <use xlink:href="#mdc80acd05e" x="480.950136" y="120.348045" style="fill: #4d4d4d; fill-opacity: 0.75"/>
    </g>
   </g>
   <g id="matplotlib.axis_1">
    <g id="xtick_1">
     <g id="line2d_1">
      <defs>
       <path id="m770705077a" d="M 0 0 
L 0 3 
" style="stroke: #000000; stroke-width: 0.8"/>
      </defs>
      <g>
       <use xlink:href="#m770705077a" x="55.677962" y="129.341335" style="stroke: #000000; stroke-width: 0.8"/>
      </g>
     </g>
     <g id="text_1">
      <text style="font-size: 7px; font-family: 'Times New Roman', 'DejaVu Serif'; text-anchor: middle" x="55.677962" y="140.70196" transform="rotate(-0 55.677962 140.70196)">0</text>
     </g>
    </g>
    <g id="xtick_2">
     <g id="line2d_2">
      <g>
       <use xlink:href="#m770705077a" x="125.476788" y="129.341335" style="stroke: #000000; stroke-width: 0.8"/>
      </g>
     </g>
     <g id="text_2">
      <text style="font-size: 7px; font-family: 'Times New Roman', 'DejaVu Serif'; text-anchor: middle" x="125.476788" y="140.70196" transform="rotate(-0 125.476788 140.70196)">3</text>
     </g>
    </g>
    <g id="xtick_3">
     <g id="line2d_3">
      <g>
       <use xlink:href="#m770705077a" x="195.275615" y="129.341335" style="stroke: #000000; stroke-width: 0.8"/>
      </g>
     </g>
     <g id="text_3">
      <text style="font-size: 7px; font-family: 'Times New Roman', 'DejaVu Serif'; text-anchor: middle" x="195.275615" y="140.70196" transform="rotate(-0 195.275615 140.70196)">6</text>
     </g>
    </g>
    <g id="xtick_4">
     <g id="line2d_4">
      <g>
       <use xlink:href="#m770705077a" x="265.074441" y="129.341335" style="stroke: #000000; stroke-width: 0.8"/>
      </g>
     </g>
     <g id="text_4">
      <text style="font-size: 7px; font-family: 'Times New Roman', 'DejaVu Serif'; text-anchor: middle" x="265.074441" y="140.70196" transform="rotate(-0 265.074441 140.70196)">9</text>
     </g>
    </g>
    <g id="xtick_5">
     <g id="line2d_5">
      <g>
       <use xlink:href="#m770705077a" x="334.873267" y="129.341335" style="stroke: #000000; stroke-width: 0.8"/>
      </g>
     </g>
     <g id="text_5">
      <text style="font-size: 7px; font-family: 'Times New Roman', 'DejaVu Serif'; text-anchor: middle" x="334.873267" y="140.70196" transform="rotate(-0 334.873267 140.70196)">12</text>
     </g>
    </g>
    <g id="xtick_6">
     <g id="line2d_6">
      <g>
       <use xlink:href="#m770705077a" x="404.672094" y="129.341335" style="stroke: #000000; stroke-width: 0.8"/>
      </g>
     </g>
     <g id="text_6">
      <text style="font-size: 7px; font-family: 'Times New Roman', 'DejaVu Serif'; text-anchor: middle" x="404.672094" y="140.70196" transform="rotate(-0 404.672094 140.70196)">15</text>
     </g>
    </g>
    <g id="xtick_7">
     <g id="line2d_7">
      <g>
       <use xlink:href="#m770705077a" x="474.47092" y="129.341335" style="stroke: #000000; stroke-width: 0.8"/>
      </g>
     </g>
     <g id="text_7">
      <text style="font-size: 7px; font-family: 'Times New Roman', 'DejaVu Serif'; text-anchor: middle" x="474.47092" y="140.70196" transform="rotate(-0 474.47092 140.70196)">18</text>
     </g>
    </g>
    <g id="text_8">
     <text style="font-size: 7.5px; font-family: 'Songti SC', 'Arial Unicode MS'; text-anchor: middle" x="276.707579" y="152.228601" transform="rotate(-0 276.707579 152.228601)">决策轮次 tick</text>
    </g>
   </g>
   <g id="matplotlib.axis_2">
    <g id="ytick_1">
     <g id="line2d_8">
      <defs>
       <path id="m2f838f129a" d="M 0 0 
L -3 0 
" style="stroke: #000000; stroke-width: 0.8"/>
      </defs>
      <g>
       <use xlink:href="#m2f838f129a" x="33.575" y="126.231358" style="stroke: #000000; stroke-width: 0.8"/>
      </g>
     </g>
     <g id="text_9">
      <text style="font-size: 7px; font-family: 'Times New Roman', 'DejaVu Serif'; text-anchor: end" x="27.075" y="128.66167" transform="rotate(-0 27.075 128.66167)">0.0</text>
     </g>
    </g>
    <g id="ytick_2">
     <g id="line2d_9">
      <g>
       <use xlink:href="#m2f838f129a" x="33.575" y="105.498175" style="stroke: #000000; stroke-width: 0.8"/>
      </g>
     </g>
     <g id="text_10">
      <text style="font-size: 7px; font-family: 'Times New Roman', 'DejaVu Serif'; text-anchor: end" x="27.075" y="107.928488" transform="rotate(-0 27.075 107.928488)">0.2</text>
     </g>
    </g>
    <g id="ytick_3">
     <g id="line2d_10">
      <g>
       <use xlink:href="#m2f838f129a" x="33.575" y="84.764993" style="stroke: #000000; stroke-width: 0.8"/>
      </g>
     </g>
     <g id="text_11">
      <text style="font-size: 7px; font-family: 'Times New Roman', 'DejaVu Serif'; text-anchor: end" x="27.075" y="87.195305" transform="rotate(-0 27.075 87.195305)">0.4</text>
     </g>
    </g>
    <g id="ytick_4">
     <g id="line2d_11">
      <g>
       <use xlink:href="#m2f838f129a" x="33.575" y="64.031811" style="stroke: #000000; stroke-width: 0.8"/>
      </g>
     </g>
     <g id="text_12">
      <text style="font-size: 7px; font-family: 'Times New Roman', 'DejaVu Serif'; text-anchor: end" x="27.075" y="66.462123" transform="rotate(-0 27.075 66.462123)">0.6</text>
     </g>
    </g>
    <g id="ytick_5">
     <g id="line2d_12">
      <g>
       <use xlink:href="#m2f838f129a" x="33.575" y="43.298628" style="stroke: #000000; stroke-width: 0.8"/>
      </g>
     </g>
     <g id="text_13">
      <text style="font-size: 7px; font-family: 'Times New Roman', 'DejaVu Serif'; text-anchor: end" x="27.075" y="45.728941" transform="rotate(-0 27.075 45.728941)">0.8</text>
     </g>
    </g>
    <g id="ytick_6">
     <g id="line2d_13">
      <g>
       <use xlink:href="#m2f838f129a" x="33.575" y="22.565446" style="stroke: #000000; stroke-width: 0.8"/>
      </g>
     </g>
     <g id="text_14">
      <text style="font-size: 7px; font-family: 'Times New Roman', 'DejaVu Serif'; text-anchor: end" x="27.075" y="24.995759" transform="rotate(-0 27.075 24.995759)">1.0</text>
     </g>
    </g>
    <g id="text_15">
     <text style="font-size: 7.5px; font-family: 'Songti SC', 'Arial Unicode MS'; text-anchor: middle" x="13.282031" y="74.398402" transform="rotate(-90 13.282031 74.398402)">YES 中间价</text>
    </g>
   </g>
   <g id="line2d_14">
    <path d="M 55.677962 90.984948 
L 78.944237 91.503277 
L 102.210513 88.911629 
L 125.476788 87.356641 
L 148.743064 86.319982 
L 172.009339 85.801652 
L 195.275615 85.283323 
L 218.54189 85.801652 
L 241.808166 85.801652 
L 265.074441 84.764993 
L 288.340716 84.764993 
L 311.606992 84.764993 
L 334.873267 84.764993 
L 358.139543 82.173345 
L 381.405818 82.691675 
L 404.672094 82.691675 
L 427.938369 82.691675 
L 451.204645 82.691675 
L 474.47092 99.278221 
L 497.737196 95.131584 
" clip-path="url(#p3cc771b8e9)" style="fill: none; stroke: #0f4d92; stroke-width: 1.5; stroke-linecap: square"/>
    <defs>
     <path id="m1d8cbfd60d" d="M 0 1.4 
C 0.371284 1.4 0.727412 1.252487 0.989949 0.989949 
C 1.252487 0.727412 1.4 0.371284 1.4 0 
C 1.4 -0.371284 1.252487 -0.727412 0.989949 -0.989949 
C 0.727412 -1.252487 0.371284 -1.4 0 -1.4 
C -0.371284 -1.4 -0.727412 -1.252487 -0.989949 -0.989949 
C -1.252487 -0.727412 -1.4 -0.371284 -1.4 0 
C -1.4 0.371284 -1.252487 0.727412 -0.989949 0.989949 
C -0.727412 1.252487 -0.371284 1.4 0 1.4 
z
" style="stroke: #0f4d92"/>
    </defs>
    <g clip-path="url(#p3cc771b8e9)">
     <use xlink:href="#m1d8cbfd60d" x="55.677962" y="90.984948" style="fill: #0f4d92; stroke: #0f4d92"/>
     <use xlink:href="#m1d8cbfd60d" x="78.944237" y="91.503277" style="fill: #0f4d92; stroke: #0f4d92"/>
     <use xlink:href="#m1d8cbfd60d" x="102.210513" y="88.911629" style="fill: #0f4d92; stroke: #0f4d92"/>
     <use xlink:href="#m1d8cbfd60d" x="125.476788" y="87.356641" style="fill: #0f4d92; stroke: #0f4d92"/>
     <use xlink:href="#m1d8cbfd60d" x="148.743064" y="86.319982" style="fill: #0f4d92; stroke: #0f4d92"/>
     <use xlink:href="#m1d8cbfd60d" x="172.009339" y="85.801652" style="fill: #0f4d92; stroke: #0f4d92"/>
     <use xlink:href="#m1d8cbfd60d" x="195.275615" y="85.283323" style="fill: #0f4d92; stroke: #0f4d92"/>
     <use xlink:href="#m1d8cbfd60d" x="218.54189" y="85.801652" style="fill: #0f4d92; stroke: #0f4d92"/>
     <use xlink:href="#m1d8cbfd60d" x="241.808166" y="85.801652" style="fill: #0f4d92; stroke: #0f4d92"/>
     <use xlink:href="#m1d8cbfd60d" x="265.074441" y="84.764993" style="fill: #0f4d92; stroke: #0f4d92"/>
     <use xlink:href="#m1d8cbfd60d" x="288.340716" y="84.764993" style="fill: #0f4d92; stroke: #0f4d92"/>
     <use xlink:href="#m1d8cbfd60d" x="311.606992" y="84.764993" style="fill: #0f4d92; stroke: #0f4d92"/>
     <use xlink:href="#m1d8cbfd60d" x="334.873267" y="84.764993" style="fill: #0f4d92; stroke: #0f4d92"/>
     <use xlink:href="#m1d8cbfd60d" x="358.139543" y="82.173345" style="fill: #0f4d92; stroke: #0f4d92"/>
     <use xlink:href="#m1d8cbfd60d" x="381.405818" y="82.691675" style="fill: #0f4d92; stroke: #0f4d92"/>
     <use xlink:href="#m1d8cbfd60d" x="404.672094" y="82.691675" style="fill: #0f4d92; stroke: #0f4d92"/>
     <use xlink:href="#m1d8cbfd60d" x="427.938369" y="82.691675" style="fill: #0f4d92; stroke: #0f4d92"/>
     <use xlink:href="#m1d8cbfd60d" x="451.204645" y="82.691675" style="fill: #0f4d92; stroke: #0f4d92"/>
     <use xlink:href="#m1d8cbfd60d" x="474.47092" y="99.278221" style="fill: #0f4d92; stroke: #0f4d92"/>
     <use xlink:href="#m1d8cbfd60d" x="497.737196" y="95.131584" style="fill: #0f4d92; stroke: #0f4d92"/>
    </g>
   </g>
   <g id="line2d_15">
    <path d="M 55.677962 97.629734 
L 61.273648 102.977758 
L 66.869335 107.674977 
L 72.465021 114.504948 
L 78.060708 115.284238 
L 83.656394 118.571654 
L 89.252081 118.775941 
L 94.847767 122.344502 
L 100.443454 123.028556 
L 106.03914 122.747987 
L 111.634827 123.496177 
L 117.230513 122.666083 
L 122.8262 98.167699 
L 128.421886 104.737548 
L 134.017573 102.648391 
L 139.613259 102.060123 
L 145.208946 100.970579 
L 150.804632 102.175279 
L 156.400319 99.670704 
L 161.996005 104.481946 
L 167.591692 108.488157 
L 173.187378 112.546023 
L 178.783065 116.064921 
L 184.378751 120.526236 
L 189.974438 119.070572 
L 195.570124 122.820652 
L 201.165811 119.062708 
L 206.761497 91.185102 
L 212.357184 76.987199 
L 217.95287 88.087485 
L 223.548557 97.91033 
L 229.144243 97.300267 
L 234.73993 105.781624 
L 240.335616 103.246779 
L 245.931303 105.670768 
L 251.526989 106.347283 
L 257.122676 105.793811 
L 262.718362 105.649664 
L 268.314049 103.197493 
L 273.909735 101.021211 
L 279.505422 93.828954 
L 285.101109 96.233744 
L 290.696795 93.205821 
L 296.292482 92.123826 
L 301.888168 94.666152 
L 307.483855 96.713888 
L 313.079541 98.375199 
L 318.675228 98.900764 
L 324.270914 97.788269 
L 329.866601 98.866748 
L 335.462287 98.230861 
L 341.057974 102.614989 
L 346.65366 103.696065 
L 352.249347 103.210174 
L 357.845033 103.32705 
L 363.44072 103.952666 
L 369.036406 104.173316 
L 374.632093 106.051841 
L 380.227779 107.672295 
L 385.823466 106.786246 
L 391.419152 104.17955 
L 397.014839 106.085764 
L 402.610525 105.538142 
L 408.206212 102.265107 
L 413.801898 106.707596 
L 419.397585 112.314347 
L 424.993271 112.07723 
L 430.588958 112.861307 
L 436.184644 115.365212 
L 441.780331 114.827951 
L 447.376017 113.221738 
L 452.971704 106.546255 
L 458.56739 118.679489 
L 464.163077 117.492248 
L 469.758763 119.402932 
L 475.35445 120.135668 
L 480.950136 120.348045 
L 486.545823 120.160035 
L 492.141509 120.252983 
L 497.737196 114.080838 
" clip-path="url(#p3cc771b8e9)" style="fill: none; stroke: #4d4d4d; stroke-opacity: 0.86; stroke-width: 1.25; stroke-linecap: square"/>
   </g>
   <g id="line2d_16">
    <path d="M 33.575 126.231358 
L 519.840157 126.231358 
" clip-path="url(#p3cc771b8e9)" style="fill: none; stroke-dasharray: 3.33,1.44; stroke-dashoffset: 0; stroke: #8bcf8b; stroke-width: 0.9"/>
   </g>
   <g id="line2d_17">
    <path d="M 33.575 74.398402 
L 519.840157 74.398402 
" clip-path="url(#p3cc771b8e9)" style="fill: none; stroke-dasharray: 0.8,1.32; stroke-dashoffset: 0; stroke: #767676; stroke-width: 0.8"/>
   </g>
   <g id="patch_3">
    <path d="M 33.575 129.341335 
L 33.575 19.455469 
" style="fill: none; stroke: #000000; stroke-width: 0.8; stroke-linejoin: miter; stroke-linecap: square"/>
   </g>
   <g id="patch_4">
    <path d="M 33.575 129.341335 
L 519.840157 129.341335 
" style="fill: none; stroke: #000000; stroke-width: 0.8; stroke-linejoin: miter; stroke-linecap: square"/>
   </g>
   <g id="text_16">
    <text style="font-size: 7.5px; font-family: 'Songti SC', 'Arial Unicode MS'; text-anchor: middle" x="276.707579" y="13.455469" transform="rotate(-0 276.707579 13.455469)">Katy Perry与Justin Trudeau关系确认</text>
   </g>
   <g id="legend_1">
    <g id="line2d_18">
     <path d="M 462.800157 27.236469 
L 467.760157 27.236469 
L 472.720157 27.236469 
" style="fill: none; stroke: #0f4d92; stroke-width: 1.5; stroke-linecap: square"/>
     <g>
      <use xlink:href="#m1d8cbfd60d" x="467.760157" y="27.236469" style="fill: #0f4d92; stroke: #0f4d92"/>
     </g>
    </g>
    <g id="text_17">
     <text style="font-size: 6.2px; font-family: 'Songti SC', 'Arial Unicode MS'; text-anchor: start" x="477.680157" y="29.406469" transform="rotate(-0 477.680157 29.406469)">模拟市场价格</text>
    </g>
    <g id="line2d_19">
     <path d="M 462.800157 36.189656 
L 467.760157 36.189656 
L 472.720157 36.189656 
" style="fill: none; stroke: #4d4d4d; stroke-opacity: 0.86; stroke-width: 1.25; stroke-linecap: square"/>
    </g>
    <g id="text_18">
     <text style="font-size: 6.2px; font-family: 'Songti SC', 'Arial Unicode MS'; text-anchor: start" x="477.680157" y="38.359656" transform="rotate(-0 477.680157 38.359656)">真实市场价格</text>
    </g>
   </g>
  </g>
 </g>
 <defs>
  <clipPath id="p3cc771b8e9">
   <rect x="33.575" y="19.455469" width="486.265157" height="109.885866"/>
  </clipPath>
 </defs>
</svg>
