<?xml version="1.0" encoding="utf-8" standalone="no"?>
<!DOCTYPE svg PUBLIC "-//W3C//DTD SVG 1.1//EN"
  "http://www.w3.org/Graphics/SVG/1.1/DTD/svg11.dtd">
<svg xmlns:xlink="http://www.w3.org/1999/xlink" width="526.810438pt" height="160.402897pt" viewBox="0 0 526.810438 160.402897" xmlns="http://www.w3.org/2000/svg" version="1.1">
 <metadata>
  <rdf:RDF xmlns:dc="http://purl.org/dc/elements/1.1/" xmlns:cc="http://creativecommons.org/ns#" xmlns:rdf="http://www.w3.org/1999/02/22-rdf-syntax-ns#">
   <cc:Work>
    <dc:type rdf:resource="http://purl.org/dc/dcmitype/StillImage"/>
    <dc:date>2026-05-29T20:53:24.403752</dc:date>
    <dc:format>image/svg+xml</dc:format>
    <dc:creator>
     <cc:Agent>
      <dc:title>Matplotlib v3.10.9, https://matplotlib.org/</dc:title>
     </cc:Agent>
    </dc:creator>
   </cc:Work>
  </rdf:RDF>
 </metadata>
 <defs>
  <style type="text/css">*{stroke-linejoin: round; stroke-linecap: butt}</style>
 </defs>
 <g id="figure_1">
  <g id="patch_1">
   <path d="M 0 160.402897 
L 526.810438 160.402897 
L 526.810438 0 
L 0 0 
z
" style="fill: #ffffff"/>
  </g>
  <g id="axes_1">
   <g id="patch_2">
    <path d="M 33.530469 129.212897 
L 516.484531 129.212897 
L 516.484531 19.319531 
L 33.530469 19.319531 
z
" style="fill: #ffffff"/>
   </g>
   <g id="PathCollection_1">
    <defs>
     <path id="m77258777cc" d="M 0 1.414214 
C 0.375054 1.414214 0.734797 1.265203 1 1 
C 1.265203 0.734797 1.414214 0.375054 1.414214 0 
C 1.414214 -0.375054 1.265203 -0.734797 1 -1 
C 0.734797 -1.265203 0.375054 -1.414214 0 -1.414214 
C -0.375054 -1.414214 -0.734797 -1.265203 -1 -1 
C -1.265203 -0.734797 -1.414214 -0.375054 -1.414214 0 
C -1.414214 0.375054 -1.265203 0.734797 -1 1 
C -0.734797 1.265203 -0.375054 1.414214 0 1.414214 
z
"/>
    </defs>
    <g clip-path="url(#p553aa6a49a)">
     <use xlink:href="#m77258777cc" x="37.271399" y="100.056169" style="fill: #4d4d4d; fill-opacity: 0.75"/>
     <use xlink:href="#m77258777cc" x="60.379928" y="100.211741" style="fill: #4d4d4d; fill-opacity: 0.75"/>
     <use xlink:href="#m77258777cc" x="83.488458" y="103.755321" style="fill: #4d4d4d; fill-opacity: 0.75"/>
     <use xlink:href="#m77258777cc" x="106.596988" y="108.158105" style="fill: #4d4d4d; fill-opacity: 0.75"/>
     <use xlink:href="#m77258777cc" x="129.705517" y="109.699597" style="fill: #4d4d4d; fill-opacity: 0.75"/>
     <use xlink:href="#m77258777cc" x="152.814047" y="101.41032" style="fill: #4d4d4d; fill-opacity: 0.75"/>
     <use xlink:href="#m77258777cc" x="175.922576" y="111.890123" style="fill: #4d4d4d; fill-opacity: 0.75"/>
     <use xlink:href="#m77258777cc" x="199.031106" y="107.137884" style="fill: #4d4d4d; fill-opacity: 0.75"/>
     <use xlink:href="#m77258777cc" x="222.139635" y="107.00505" style="fill: #4d4d4d; fill-opacity: 0.75"/>
     <use xlink:href="#m77258777cc" x="245.248165" y="100.12951" style="fill: #4d4d4d; fill-opacity: 0.75"/>
     <use xlink:href="#m77258777cc" x="268.356695" y="107.55169" style="fill: #4d4d4d; fill-opacity: 0.75"/>
     <use xlink:href="#m77258777cc" x="291.465224" y="103.130093" style="fill: #4d4d4d; fill-opacity: 0.75"/>
     <use xlink:href="#m77258777cc" x="314.573754" y="97.633041" style="fill: #4d4d4d; fill-opacity: 0.75"/>
     <use xlink:href="#m77258777cc" x="337.682283" y="104.646479" style="fill: #4d4d4d; fill-opacity: 0.75"/>
     <use xlink:href="#m77258777cc" x="360.790813" y="106.774868" style="fill: #4d4d4d; fill-opacity: 0.75"/>
     <use xlink:href="#m77258777cc" x="383.899343" y="118.998651" style="fill: #4d4d4d; fill-opacity: 0.75"/>
     <use xlink:href="#m77258777cc" x="407.007872" y="116.522077" style="fill: #4d4d4d; fill-opacity: 0.75"/>
     <use xlink:href="#m77258777cc" x="430.116402" y="118.89255" style="fill: #4d4d4d; fill-opacity: 0.75"/>
     <use xlink:href="#m77258777cc" x="453.224931" y="119.702949" style="fill: #4d4d4d; fill-opacity: 0.75"/>
     <use xlink:href="#m77258777cc" x="476.333461" y="125.014089" style="fill: #4d4d4d; fill-opacity: 0.75"/>
    </g>
   </g>
   <g id="matplotlib.axis_1">
    <g id="xtick_1">
     <g id="line2d_1">
      <defs>
       <path id="m0a5c583687" d="M 0 0 
L 0 3 
" style="stroke: #000000; stroke-width: 0.8"/>
      </defs>
      <g>
       <use xlink:href="#m0a5c583687" x="37.271399" y="129.212897" style="stroke: #000000; stroke-width: 0.8"/>
      </g>
     </g>
     <g id="text_1">
      <text style="font-size: 7px; font-family: 'Times New Roman', 'DejaVu Serif'; text-anchor: middle" x="37.271399" y="140.573522" transform="rotate(-0 37.271399 140.573522)">0</text>
     </g>
    </g>
    <g id="xtick_2">
     <g id="line2d_2">
      <g>
       <use xlink:href="#m0a5c583687" x="97.126279" y="129.212897" style="stroke: #000000; stroke-width: 0.8"/>
      </g>
     </g>
     <g id="text_2">
      <text style="font-size: 7px; font-family: 'Times New Roman', 'DejaVu Serif'; text-anchor: middle" x="97.126279" y="140.573522" transform="rotate(-0 97.126279 140.573522)">8</text>
     </g>
    </g>
    <g id="xtick_3">
     <g id="line2d_3">
      <g>
       <use xlink:href="#m0a5c583687" x="156.981159" y="129.212897" style="stroke: #000000; stroke-width: 0.8"/>
      </g>
     </g>
     <g id="text_3">
      <text style="font-size: 7px; font-family: 'Times New Roman', 'DejaVu Serif'; text-anchor: middle" x="156.981159" y="140.573522" transform="rotate(-0 156.981159 140.573522)">16</text>
     </g>
    </g>
    <g id="xtick_4">
     <g id="line2d_4">
      <g>
       <use xlink:href="#m0a5c583687" x="216.836038" y="129.212897" style="stroke: #000000; stroke-width: 0.8"/>
      </g>
     </g>
     <g id="text_4">
      <text style="font-size: 7px; font-family: 'Times New Roman', 'DejaVu Serif'; text-anchor: middle" x="216.836038" y="140.573522" transform="rotate(-0 216.836038 140.573522)">24</text>
     </g>
    </g>
    <g id="xtick_5">
     <g id="line2d_5">
      <g>
       <use xlink:href="#m0a5c583687" x="276.690918" y="129.212897" style="stroke: #000000; stroke-width: 0.8"/>
      </g>
     </g>
     <g id="text_5">
      <text style="font-size: 7px; font-family: 'Times New Roman', 'DejaVu Serif'; text-anchor: middle" x="276.690918" y="140.573522" transform="rotate(-0 276.690918 140.573522)">32</text>
     </g>
    </g>
    <g id="xtick_6">
     <g id="line2d_6">
      <g>
       <use xlink:href="#m0a5c583687" x="336.545798" y="129.212897" style="stroke: #000000; stroke-width: 0.8"/>
      </g>
     </g>
     <g id="text_6">
      <text style="font-size: 7px; font-family: 'Times New Roman', 'DejaVu Serif'; text-anchor: middle" x="336.545798" y="140.573522" transform="rotate(-0 336.545798 140.573522)">40</text>
     </g>
    </g>
    <g id="xtick_7">
     <g id="line2d_7">
      <g>
       <use xlink:href="#m0a5c583687" x="396.400678" y="129.212897" style="stroke: #000000; stroke-width: 0.8"/>
      </g>
     </g>
     <g id="text_7">
      <text style="font-size: 7px; font-family: 'Times New Roman', 'DejaVu Serif'; text-anchor: middle" x="396.400678" y="140.573522" transform="rotate(-0 396.400678 140.573522)">48</text>
     </g>
    </g>
    <g id="xtick_8">
     <g id="line2d_8">
      <g>
       <use xlink:href="#m0a5c583687" x="456.255558" y="129.212897" style="stroke: #000000; stroke-width: 0.8"/>
      </g>
     </g>
     <g id="text_8">
      <text style="font-size: 7px; font-family: 'Times New Roman', 'DejaVu Serif'; text-anchor: middle" x="456.255558" y="140.573522" transform="rotate(-0 456.255558 140.573522)">56</text>
     </g>
    </g>
    <g id="xtick_9">
     <g id="line2d_9">
      <g>
       <use xlink:href="#m0a5c583687" x="516.110438" y="129.212897" style="stroke: #000000; stroke-width: 0.8"/>
      </g>
     </g>
     <g id="text_9">
      <text style="font-size: 7px; font-family: 'Times New Roman', 'DejaVu Serif'; text-anchor: middle" x="516.110438" y="140.573522" transform="rotate(-0 516.110438 140.573522)">64</text>
     </g>
    </g>
    <g id="text_10">
     <text style="font-size: 7.5px; font-family: 'Songti SC', 'Arial Unicode MS'; text-anchor: middle" x="275.0075" y="152.159929" transform="rotate(-0 275.0075 152.159929)">累积成交笔数</text>
    </g>
   </g>
   <g id="matplotlib.axis_2">
    <g id="ytick_1">
     <g id="line2d_10">
      <defs>
       <path id="m2fca6ede96" d="M 0 0 
L -3 0 
" style="stroke: #000000; stroke-width: 0.8"/>
      </defs>
      <g>
       <use xlink:href="#m2fca6ede96" x="33.530469" y="126.102708" style="stroke: #000000; stroke-width: 0.8"/>
      </g>
     </g>
     <g id="text_11">
      <text style="font-size: 7px; font-family: 'Times New Roman', 'DejaVu Serif'; text-anchor: end" x="27.030469" y="128.53302" transform="rotate(-0 27.030469 128.53302)">0.0</text>
     </g>
    </g>
    <g id="ytick_2">
     <g id="line2d_11">
      <g>
       <use xlink:href="#m2fca6ede96" x="33.530469" y="105.36811" style="stroke: #000000; stroke-width: 0.8"/>
      </g>
     </g>
     <g id="text_12">
      <text style="font-size: 7px; font-family: 'Times New Roman', 'DejaVu Serif'; text-anchor: end" x="27.030469" y="107.798423" transform="rotate(-0 27.030469 107.798423)">0.2</text>
     </g>
    </g>
    <g id="ytick_3">
     <g id="line2d_12">
      <g>
       <use xlink:href="#m2fca6ede96" x="33.530469" y="84.633513" style="stroke: #000000; stroke-width: 0.8"/>
      </g>
     </g>
     <g id="text_13">
      <text style="font-size: 7px; font-family: 'Times New Roman', 'DejaVu Serif'; text-anchor: end" x="27.030469" y="87.063826" transform="rotate(-0 27.030469 87.063826)">0.4</text>
     </g>
    </g>
    <g id="ytick_4">
     <g id="line2d_13">
      <g>
       <use xlink:href="#m2fca6ede96" x="33.530469" y="63.898916" style="stroke: #000000; stroke-width: 0.8"/>
      </g>
     </g>
     <g id="text_14">
      <text style="font-size: 7px; font-family: 'Times New Roman', 'DejaVu Serif'; text-anchor: end" x="27.030469" y="66.329228" transform="rotate(-0 27.030469 66.329228)">0.6</text>
     </g>
    </g>
    <g id="ytick_5">
     <g id="line2d_14">
      <g>
       <use xlink:href="#m2fca6ede96" x="33.530469" y="43.164318" style="stroke: #000000; stroke-width: 0.8"/>
      </g>
     </g>
     <g id="text_15">
      <text style="font-size: 7px; font-family: 'Times New Roman', 'DejaVu Serif'; text-anchor: end" x="27.030469" y="45.594631" transform="rotate(-0 27.030469 45.594631)">0.8</text>
     </g>
    </g>
    <g id="ytick_6">
     <g id="line2d_15">
      <g>
       <use xlink:href="#m2fca6ede96" x="33.530469" y="22.429721" style="stroke: #000000; stroke-width: 0.8"/>
      </g>
     </g>
     <g id="text_16">
      <text style="font-size: 7px; font-family: 'Times New Roman', 'DejaVu Serif'; text-anchor: end" x="27.030469" y="24.860033" transform="rotate(-0 27.030469 24.860033)">1.0</text>
     </g>
    </g>
    <g id="text_17">
     <text style="font-size: 7.5px; font-family: 'Songti SC', 'Arial Unicode MS'; text-anchor: middle" x="13.2375" y="74.266214" transform="rotate(-90 13.2375 74.266214)">YES 价格</text>
    </g>
   </g>
   <g id="line2d_16">
    <path d="M 37.271399 101.221191 
L 37.271399 101.221191 
L 52.235119 101.739556 
L 89.644419 101.739556 
L 97.126279 101.739556 
L 97.126279 101.739556 
L 112.089999 101.739556 
L 119.571859 101.739556 
L 149.499299 101.739556 
L 171.944879 101.739556 
L 194.390459 102.257921 
L 231.799758 102.257921 
L 269.209058 102.776286 
L 291.654638 101.739556 
L 321.582078 102.776286 
L 344.027658 101.739556 
L 358.991378 101.739556 
L 388.918818 101.739556 
L 433.809978 99.666096 
L 478.701138 101.739556 
L 493.664858 104.331381 
" clip-path="url(#p553aa6a49a)" style="fill: none; stroke: #0f4d92; stroke-width: 1.5; stroke-linecap: square"/>
    <defs>
     <path id="mf700c4b9f2" d="M 0 1.4 
C 0.371284 1.4 0.727412 1.252487 0.989949 0.989949 
C 1.252487 0.727412 1.4 0.371284 1.4 0 
C 1.4 -0.371284 1.252487 -0.727412 0.989949 -0.989949 
C 0.727412 -1.252487 0.371284 -1.4 0 -1.4 
C -0.371284 -1.4 -0.727412 -1.252487 -0.989949 -0.989949 
C -1.252487 -0.727412 -1.4 -0.371284 -1.4 0 
C -1.4 0.371284 -1.252487 0.727412 -0.989949 0.989949 
C -0.727412 1.252487 -0.371284 1.4 0 1.4 
z
" style="stroke: #0f4d92"/>
    </defs>
    <g clip-path="url(#p553aa6a49a)">
     <use xlink:href="#mf700c4b9f2" x="37.271399" y="101.221191" style="fill: #0f4d92; stroke: #0f4d92"/>
     <use xlink:href="#mf700c4b9f2" x="37.271399" y="101.221191" style="fill: #0f4d92; stroke: #0f4d92"/>
     <use xlink:href="#mf700c4b9f2" x="52.235119" y="101.739556" style="fill: #0f4d92; stroke: #0f4d92"/>
     <use xlink:href="#mf700c4b9f2" x="89.644419" y="101.739556" style="fill: #0f4d92; stroke: #0f4d92"/>
     <use xlink:href="#mf700c4b9f2" x="97.126279" y="101.739556" style="fill: #0f4d92; stroke: #0f4d92"/>
     <use xlink:href="#mf700c4b9f2" x="97.126279" y="101.739556" style="fill: #0f4d92; stroke: #0f4d92"/>
     <use xlink:href="#mf700c4b9f2" x="112.089999" y="101.739556" style="fill: #0f4d92; stroke: #0f4d92"/>
     <use xlink:href="#mf700c4b9f2" x="119.571859" y="101.739556" style="fill: #0f4d92; stroke: #0f4d92"/>
     <use xlink:href="#mf700c4b9f2" x="149.499299" y="101.739556" style="fill: #0f4d92; stroke: #0f4d92"/>
     <use xlink:href="#mf700c4b9f2" x="171.944879" y="101.739556" style="fill: #0f4d92; stroke: #0f4d92"/>
     <use xlink:href="#mf700c4b9f2" x="194.390459" y="102.257921" style="fill: #0f4d92; stroke: #0f4d92"/>
     <use xlink:href="#mf700c4b9f2" x="231.799758" y="102.257921" style="fill: #0f4d92; stroke: #0f4d92"/>
     <use xlink:href="#mf700c4b9f2" x="269.209058" y="102.776286" style="fill: #0f4d92; stroke: #0f4d92"/>
     <use xlink:href="#mf700c4b9f2" x="291.654638" y="101.739556" style="fill: #0f4d92; stroke: #0f4d92"/>
     <use xlink:href="#mf700c4b9f2" x="321.582078" y="102.776286" style="fill: #0f4d92; stroke: #0f4d92"/>
     <use xlink:href="#mf700c4b9f2" x="344.027658" y="101.739556" style="fill: #0f4d92; stroke: #0f4d92"/>
     <use xlink:href="#mf700c4b9f2" x="358.991378" y="101.739556" style="fill: #0f4d92; stroke: #0f4d92"/>
     <use xlink:href="#mf700c4b9f2" x="388.918818" y="101.739556" style="fill: #0f4d92; stroke: #0f4d92"/>
     <use xlink:href="#mf700c4b9f2" x="433.809978" y="99.666096" style="fill: #0f4d92; stroke: #0f4d92"/>
     <use xlink:href="#mf700c4b9f2" x="478.701138" y="101.739556" style="fill: #0f4d92; stroke: #0f4d92"/>
     <use xlink:href="#mf700c4b9f2" x="493.664858" y="104.331381" style="fill: #0f4d92; stroke: #0f4d92"/>
    </g>
   </g>
   <g id="line2d_17">
    <path d="M 37.271399 100.056169 
L 43.048531 99.650996 
L 48.825664 99.390411 
L 54.602796 99.904264 
L 60.379928 100.211741 
L 66.157061 99.568027 
L 71.934193 100.340738 
L 77.711326 102.475557 
L 83.488458 103.755321 
L 89.26559 101.675489 
L 95.042723 102.368674 
L 100.819855 104.467249 
L 106.596988 108.158105 
L 112.37412 110.556921 
L 118.151252 110.206981 
L 123.928385 107.65845 
L 129.705517 109.699597 
L 135.482649 109.007665 
L 141.259782 108.8977 
L 147.036914 106.300049 
L 152.814047 101.41032 
L 158.591179 105.731815 
L 164.368311 109.846315 
L 170.145444 112.277238 
L 175.922576 111.890123 
L 181.699709 110.343445 
L 187.476841 111.127269 
L 193.253973 109.037749 
L 199.031106 107.137884 
L 204.808238 104.254159 
L 210.585371 105.37148 
L 216.362503 106.273213 
L 222.139635 107.00505 
L 227.916768 106.758964 
L 233.6939 101.758481 
L 239.471033 101.289668 
L 245.248165 100.12951 
L 251.025297 98.824132 
L 256.80243 103.55575 
L 262.579562 106.119731 
L 268.356695 107.55169 
L 274.133827 107.102256 
L 279.910959 106.480774 
L 285.688092 102.073896 
L 291.465224 103.130093 
L 297.242357 102.502139 
L 303.019489 102.194156 
L 308.796621 97.837063 
L 314.573754 97.633041 
L 320.350886 98.894188 
L 326.128019 104.268557 
L 331.905151 102.029243 
L 337.682283 104.646479 
L 343.459416 106.164674 
L 349.236548 107.21528 
L 355.013681 107.682591 
L 360.790813 106.774868 
L 366.567945 114.318502 
L 372.345078 118.344668 
L 378.12221 118.543403 
L 383.899343 118.998651 
L 389.676475 117.22102 
L 395.453607 118.503992 
L 401.23074 117.777474 
L 407.007872 116.522077 
L 412.785005 116.219467 
L 418.562137 120.00287 
L 424.339269 120.588442 
L 430.116402 118.89255 
L 435.893534 118.901388 
L 441.670667 117.959232 
L 447.447799 118.742938 
L 453.224931 119.702949 
L 459.002064 119.932898 
L 464.779196 120.871993 
L 470.556328 123.130101 
L 476.333461 125.014089 
" clip-path="url(#p553aa6a49a)" style="fill: none; stroke: #4d4d4d; stroke-opacity: 0.86; stroke-width: 1.25; stroke-linecap: square"/>
   </g>
   <g id="line2d_18">
    <path d="M 482.110593 129.212897 
L 482.110593 19.319531 
" clip-path="url(#p553aa6a49a)" style="fill: none; stroke-dasharray: 5.12,1.28,0.8,1.28; stroke-dashoffset: 0; stroke: #4d4d4d; stroke-opacity: 0.75; stroke-width: 0.8"/>
   </g>
   <g id="line2d_19">
    <path d="M 33.530469 126.102708 
L 516.484531 126.102708 
" clip-path="url(#p553aa6a49a)" style="fill: none; stroke-dasharray: 3.33,1.44; stroke-dashoffset: 0; stroke: #8bcf8b; stroke-width: 0.9"/>
   </g>
   <g id="line2d_20">
    <path d="M 33.530469 74.266214 
L 516.484531 74.266214 
" clip-path="url(#p553aa6a49a)" style="fill: none; stroke-dasharray: 0.8,1.32; stroke-dashoffset: 0; stroke: #767676; stroke-width: 0.8"/>
   </g>
   <g id="patch_3">
    <path d="M 33.530469 129.212897 
L 33.530469 19.319531 
" style="fill: none; stroke: #000000; stroke-width: 0.8; stroke-linejoin: miter; stroke-linecap: square"/>
   </g>
   <g id="patch_4">
    <path d="M 33.530469 129.212897 
L 516.484531 129.212897 
" style="fill: none; stroke: #000000; stroke-width: 0.8; stroke-linejoin: miter; stroke-linecap: square"/>
   </g>
   <g id="text_18">
    <text style="font-size: 7.5px; font-family: 'Songti SC', 'Arial Unicode MS'; text-anchor: middle" x="275.0075" y="13.319531" transform="rotate(-0 275.0075 13.319531)">Lord Miles完成40天禁食挑战</text>
   </g>
   <g id="legend_1">
    <g id="line2d_21">
     <path d="M 38.490469 27.100531 
L 43.450469 27.100531 
L 48.410469 27.100531 
" style="fill: none; stroke: #0f4d92; stroke-width: 1.5; stroke-linecap: square"/>
     <g>
      <use xlink:href="#mf700c4b9f2" x="43.450469" y="27.100531" style="fill: #0f4d92; stroke: #0f4d92"/>
     </g>
    </g>
    <g id="text_19">
     <text style="font-size: 6.2px; font-family: 'Songti SC', 'Arial Unicode MS'; text-anchor: start" x="53.370469" y="29.270531" transform="rotate(-0 53.370469 29.270531)">模拟市场价格</text>
    </g>
    <g id="line2d_22">
     <path d="M 38.490469 36.053719 
L 43.450469 36.053719 
L 48.410469 36.053719 
" style="fill: none; stroke: #4d4d4d; stroke-opacity: 0.86; stroke-width: 1.25; stroke-linecap: square"/>
    </g>
    <g id="text_20">
     <text style="font-size: 6.2px; font-family: 'Songti SC', 'Arial Unicode MS'; text-anchor: start" x="53.370469" y="38.223719" transform="rotate(-0 53.370469 38.223719)">真实市场价格</text>
    </g>
    <g id="line2d_23">
     <path d="M 38.490469 45.037906 
L 43.450469 45.037906 
L 48.410469 45.037906 
" style="fill: none; stroke-dasharray: 5.12,1.28,0.8,1.28; stroke-dashoffset: 0; stroke: #4d4d4d; stroke-opacity: 0.75; stroke-width: 0.8"/>
    </g>
    <g id="text_21">
     <text style="font-size: 6.2px; font-family: 'Songti SC', 'Arial Unicode MS'; text-anchor: start" x="53.370469" y="47.207906" transform="rotate(-0 53.370469 47.207906)">事件结束</text>
    </g>
   </g>
  </g>
 </g>
 <defs>
  <clipPath id="p553aa6a49a">
   <rect x="33.530469" y="19.319531" width="482.954062" height="109.893366"/>
  </clipPath>
 </defs>
</svg>
