<?xml version="1.0" encoding="utf-8" standalone="no"?>
<!DOCTYPE svg PUBLIC "-//W3C//DTD SVG 1.1//EN"
  "http://www.w3.org/Graphics/SVG/1.1/DTD/svg11.dtd">
<svg xmlns:xlink="http://www.w3.org/1999/xlink" width="527.040157pt" height="160.365632pt" viewBox="0 0 527.040157 160.365632" xmlns="http://www.w3.org/2000/svg" version="1.1">
 <metadata>
  <rdf:RDF xmlns:dc="http://purl.org/dc/elements/1.1/" xmlns:cc="http://creativecommons.org/ns#" xmlns:rdf="http://www.w3.org/1999/02/22-rdf-syntax-ns#">
   <cc:Work>
    <dc:type rdf:resource="http://purl.org/dc/dcmitype/StillImage"/>
    <dc:date>2026-05-29T20:53:20.303122</dc:date>
    <dc:format>image/svg+xml</dc:format>
    <dc:creator>
     <cc:Agent>
      <dc:title>Matplotlib v3.10.9, https://matplotlib.org/</dc:title>
     </cc:Agent>
    </dc:creator>
   </cc:Work>
  </rdf:RDF>
 </metadata>
 <defs>
  <style type="text/css">*{stroke-linejoin: round; stroke-linecap: butt}</style>
 </defs>
 <g id="figure_1">
  <g id="patch_1">
   <path d="M 0 160.365632 
L 527.040157 160.365632 
L 527.040157 0 
L 0 0 
z
" style="fill: #ffffff"/>
  </g>
  <g id="axes_1">
   <g id="patch_2">
    <path d="M 33.575 129.235397 
L 519.840157 129.235397 
L 519.840157 19.319531 
L 33.575 19.319531 
z
" style="fill: #ffffff"/>
   </g>
   <g id="PathCollection_1">
    <defs>
     <path id="m2959368acb" d="M 0 1.414214 
C 0.375054 1.414214 0.734797 1.265203 1 1 
C 1.265203 0.734797 1.414214 0.375054 1.414214 0 
C 1.414214 -0.375054 1.265203 -0.734797 1 -1 
C 0.734797 -1.265203 0.375054 -1.414214 0 -1.414214 
C -0.375054 -1.414214 -0.734797 -1.265203 -1 -1 
C -1.265203 -0.734797 -1.414214 -0.375054 -1.414214 0 
C -1.414214 0.375054 -1.265203 0.734797 -1 1 
C -0.734797 1.265203 -0.375054 1.414214 0 1.414214 
z
"/>
    </defs>
    <g clip-path="url(#p4ef5596ef7)">
     <use xlink:href="#m2959368acb" x="55.677962" y="100.0727" style="fill: #4d4d4d; fill-opacity: 0.75"/>
     <use xlink:href="#m2959368acb" x="78.060708" y="100.228304" style="fill: #4d4d4d; fill-opacity: 0.75"/>
     <use xlink:href="#m2959368acb" x="100.443454" y="103.772609" style="fill: #4d4d4d; fill-opacity: 0.75"/>
     <use xlink:href="#m2959368acb" x="122.8262" y="108.176294" style="fill: #4d4d4d; fill-opacity: 0.75"/>
     <use xlink:href="#m2959368acb" x="145.208946" y="109.718102" style="fill: #4d4d4d; fill-opacity: 0.75"/>
     <use xlink:href="#m2959368acb" x="167.591692" y="101.427128" style="fill: #4d4d4d; fill-opacity: 0.75"/>
     <use xlink:href="#m2959368acb" x="189.974438" y="111.909077" style="fill: #4d4d4d; fill-opacity: 0.75"/>
     <use xlink:href="#m2959368acb" x="212.357184" y="107.155864" style="fill: #4d4d4d; fill-opacity: 0.75"/>
     <use xlink:href="#m2959368acb" x="234.73993" y="107.023003" style="fill: #4d4d4d; fill-opacity: 0.75"/>
     <use xlink:href="#m2959368acb" x="257.122676" y="100.146056" style="fill: #4d4d4d; fill-opacity: 0.75"/>
     <use xlink:href="#m2959368acb" x="279.505422" y="107.569755" style="fill: #4d4d4d; fill-opacity: 0.75"/>
     <use xlink:href="#m2959368acb" x="301.888168" y="103.147253" style="fill: #4d4d4d; fill-opacity: 0.75"/>
     <use xlink:href="#m2959368acb" x="324.270914" y="97.649076" style="fill: #4d4d4d; fill-opacity: 0.75"/>
     <use xlink:href="#m2959368acb" x="346.65366" y="104.66395" style="fill: #4d4d4d; fill-opacity: 0.75"/>
     <use xlink:href="#m2959368acb" x="369.036406" y="106.792774" style="fill: #4d4d4d; fill-opacity: 0.75"/>
     <use xlink:href="#m2959368acb" x="391.419152" y="119.01906" style="fill: #4d4d4d; fill-opacity: 0.75"/>
     <use xlink:href="#m2959368acb" x="413.801898" y="116.541979" style="fill: #4d4d4d; fill-opacity: 0.75"/>
     <use xlink:href="#m2959368acb" x="436.184644" y="118.912937" style="fill: #4d4d4d; fill-opacity: 0.75"/>
     <use xlink:href="#m2959368acb" x="458.56739" y="119.723502" style="fill: #4d4d4d; fill-opacity: 0.75"/>
     <use xlink:href="#m2959368acb" x="480.950136" y="125.035729" style="fill: #4d4d4d; fill-opacity: 0.75"/>
    </g>
   </g>
   <g id="matplotlib.axis_1">
    <g id="xtick_1">
     <g id="line2d_1">
      <defs>
       <path id="m6b245cec18" d="M 0 0 
L 0 3 
" style="stroke: #000000; stroke-width: 0.8"/>
      </defs>
      <g>
       <use xlink:href="#m6b245cec18" x="55.677962" y="129.235397" style="stroke: #000000; stroke-width: 0.8"/>
      </g>
     </g>
     <g id="text_1">
      <text style="font-size: 7px; font-family: 'Times New Roman', 'DejaVu Serif'; text-anchor: middle" x="55.677962" y="140.596022" transform="rotate(-0 55.677962 140.596022)">0</text>
     </g>
    </g>
    <g id="xtick_2">
     <g id="line2d_2">
      <g>
       <use xlink:href="#m6b245cec18" x="125.476788" y="129.235397" style="stroke: #000000; stroke-width: 0.8"/>
      </g>
     </g>
     <g id="text_2">
      <text style="font-size: 7px; font-family: 'Times New Roman', 'DejaVu Serif'; text-anchor: middle" x="125.476788" y="140.596022" transform="rotate(-0 125.476788 140.596022)">3</text>
     </g>
    </g>
    <g id="xtick_3">
     <g id="line2d_3">
      <g>
       <use xlink:href="#m6b245cec18" x="195.275615" y="129.235397" style="stroke: #000000; stroke-width: 0.8"/>
      </g>
     </g>
     <g id="text_3">
      <text style="font-size: 7px; font-family: 'Times New Roman', 'DejaVu Serif'; text-anchor: middle" x="195.275615" y="140.596022" transform="rotate(-0 195.275615 140.596022)">6</text>
     </g>
    </g>
    <g id="xtick_4">
     <g id="line2d_4">
      <g>
       <use xlink:href="#m6b245cec18" x="265.074441" y="129.235397" style="stroke: #000000; stroke-width: 0.8"/>
      </g>
     </g>
     <g id="text_4">
      <text style="font-size: 7px; font-family: 'Times New Roman', 'DejaVu Serif'; text-anchor: middle" x="265.074441" y="140.596022" transform="rotate(-0 265.074441 140.596022)">9</text>
     </g>
    </g>
    <g id="xtick_5">
     <g id="line2d_5">
      <g>
       <use xlink:href="#m6b245cec18" x="334.873267" y="129.235397" style="stroke: #000000; stroke-width: 0.8"/>
      </g>
     </g>
     <g id="text_5">
      <text style="font-size: 7px; font-family: 'Times New Roman', 'DejaVu Serif'; text-anchor: middle" x="334.873267" y="140.596022" transform="rotate(-0 334.873267 140.596022)">12</text>
     </g>
    </g>
    <g id="xtick_6">
     <g id="line2d_6">
      <g>
       <use xlink:href="#m6b245cec18" x="404.672094" y="129.235397" style="stroke: #000000; stroke-width: 0.8"/>
      </g>
     </g>
     <g id="text_6">
      <text style="font-size: 7px; font-family: 'Times New Roman', 'DejaVu Serif'; text-anchor: middle" x="404.672094" y="140.596022" transform="rotate(-0 404.672094 140.596022)">15</text>
     </g>
    </g>
    <g id="xtick_7">
     <g id="line2d_7">
      <g>
       <use xlink:href="#m6b245cec18" x="474.47092" y="129.235397" style="stroke: #000000; stroke-width: 0.8"/>
      </g>
     </g>
     <g id="text_7">
      <text style="font-size: 7px; font-family: 'Times New Roman', 'DejaVu Serif'; text-anchor: middle" x="474.47092" y="140.596022" transform="rotate(-0 474.47092 140.596022)">18</text>
     </g>
    </g>
    <g id="text_8">
     <text style="font-size: 7.5px; font-family: 'Songti SC', 'Arial Unicode MS'; text-anchor: middle" x="276.707579" y="152.122663" transform="rotate(-0 276.707579 152.122663)">决策轮次 tick</text>
    </g>
   </g>
   <g id="matplotlib.axis_2">
    <g id="ytick_1">
     <g id="line2d_8">
      <defs>
       <path id="m57262c239a" d="M 0 0 
L -3 0 
" style="stroke: #000000; stroke-width: 0.8"/>
      </defs>
      <g>
       <use xlink:href="#m57262c239a" x="33.575" y="126.124571" style="stroke: #000000; stroke-width: 0.8"/>
      </g>
     </g>
     <g id="text_9">
      <text style="font-size: 7px; font-family: 'Times New Roman', 'DejaVu Serif'; text-anchor: end" x="27.075" y="128.554883" transform="rotate(-0 27.075 128.554883)">0.0</text>
     </g>
    </g>
    <g id="ytick_2">
     <g id="line2d_9">
      <g>
       <use xlink:href="#m57262c239a" x="33.575" y="105.385728" style="stroke: #000000; stroke-width: 0.8"/>
      </g>
     </g>
     <g id="text_10">
      <text style="font-size: 7px; font-family: 'Times New Roman', 'DejaVu Serif'; text-anchor: end" x="27.075" y="107.816041" transform="rotate(-0 27.075 107.816041)">0.2</text>
     </g>
    </g>
    <g id="ytick_3">
     <g id="line2d_10">
      <g>
       <use xlink:href="#m57262c239a" x="33.575" y="84.646886" style="stroke: #000000; stroke-width: 0.8"/>
      </g>
     </g>
     <g id="text_11">
      <text style="font-size: 7px; font-family: 'Times New Roman', 'DejaVu Serif'; text-anchor: end" x="27.075" y="87.077198" transform="rotate(-0 27.075 87.077198)">0.4</text>
     </g>
    </g>
    <g id="ytick_4">
     <g id="line2d_11">
      <g>
       <use xlink:href="#m57262c239a" x="33.575" y="63.908043" style="stroke: #000000; stroke-width: 0.8"/>
      </g>
     </g>
     <g id="text_12">
      <text style="font-size: 7px; font-family: 'Times New Roman', 'DejaVu Serif'; text-anchor: end" x="27.075" y="66.338355" transform="rotate(-0 27.075 66.338355)">0.6</text>
     </g>
    </g>
    <g id="ytick_5">
     <g id="line2d_12">
      <g>
       <use xlink:href="#m57262c239a" x="33.575" y="43.1692" style="stroke: #000000; stroke-width: 0.8"/>
      </g>
     </g>
     <g id="text_13">
      <text style="font-size: 7px; font-family: 'Times New Roman', 'DejaVu Serif'; text-anchor: end" x="27.075" y="45.599513" transform="rotate(-0 27.075 45.599513)">0.8</text>
     </g>
    </g>
    <g id="ytick_6">
     <g id="line2d_13">
      <g>
       <use xlink:href="#m57262c239a" x="33.575" y="22.430358" style="stroke: #000000; stroke-width: 0.8"/>
      </g>
     </g>
     <g id="text_14">
      <text style="font-size: 7px; font-family: 'Times New Roman', 'DejaVu Serif'; text-anchor: end" x="27.075" y="24.86067" transform="rotate(-0 27.075 24.86067)">1.0</text>
     </g>
    </g>
    <g id="text_15">
     <text style="font-size: 7.5px; font-family: 'Songti SC', 'Arial Unicode MS'; text-anchor: middle" x="13.282031" y="74.277464" transform="rotate(-90 13.282031 74.277464)">YES 中间价</text>
    </g>
   </g>
   <g id="line2d_14">
    <path d="M 55.677962 101.23796 
L 78.944237 101.756431 
L 102.210513 101.756431 
L 125.476788 101.756431 
L 148.743064 101.756431 
L 172.009339 101.756431 
L 195.275615 101.756431 
L 218.54189 101.756431 
L 241.808166 101.756431 
L 265.074441 102.274902 
L 288.340716 102.274902 
L 311.606992 102.793373 
L 334.873267 101.756431 
L 358.139543 102.793373 
L 381.405818 101.756431 
L 404.672094 101.756431 
L 427.938369 101.756431 
L 451.204645 99.682547 
L 474.47092 101.756431 
L 497.737196 104.348786 
" clip-path="url(#p4ef5596ef7)" style="fill: none; stroke: #0f4d92; stroke-width: 1.5; stroke-linecap: square"/>
    <defs>
     <path id="m073aaf7590" d="M 0 1.4 
C 0.371284 1.4 0.727412 1.252487 0.989949 0.989949 
C 1.252487 0.727412 1.4 0.371284 1.4 0 
C 1.4 -0.371284 1.252487 -0.727412 0.989949 -0.989949 
C 0.727412 -1.252487 0.371284 -1.4 0 -1.4 
C -0.371284 -1.4 -0.727412 -1.252487 -0.989949 -0.989949 
C -1.252487 -0.727412 -1.4 -0.371284 -1.4 0 
C -1.4 0.371284 -1.252487 0.727412 -0.989949 0.989949 
C -0.727412 1.252487 -0.371284 1.4 0 1.4 
z
" style="stroke: #0f4d92"/>
    </defs>
    <g clip-path="url(#p4ef5596ef7)">
     <use xlink:href="#m073aaf7590" x="55.677962" y="101.23796" style="fill: #0f4d92; stroke: #0f4d92"/>
     <use xlink:href="#m073aaf7590" x="78.944237" y="101.756431" style="fill: #0f4d92; stroke: #0f4d92"/>
     <use xlink:href="#m073aaf7590" x="102.210513" y="101.756431" style="fill: #0f4d92; stroke: #0f4d92"/>
     <use xlink:href="#m073aaf7590" x="125.476788" y="101.756431" style="fill: #0f4d92; stroke: #0f4d92"/>
     <use xlink:href="#m073aaf7590" x="148.743064" y="101.756431" style="fill: #0f4d92; stroke: #0f4d92"/>
     <use xlink:href="#m073aaf7590" x="172.009339" y="101.756431" style="fill: #0f4d92; stroke: #0f4d92"/>
     <use xlink:href="#m073aaf7590" x="195.275615" y="101.756431" style="fill: #0f4d92; stroke: #0f4d92"/>
     <use xlink:href="#m073aaf7590" x="218.54189" y="101.756431" style="fill: #0f4d92; stroke: #0f4d92"/>
     <use xlink:href="#m073aaf7590" x="241.808166" y="101.756431" style="fill: #0f4d92; stroke: #0f4d92"/>
     <use xlink:href="#m073aaf7590" x="265.074441" y="102.274902" style="fill: #0f4d92; stroke: #0f4d92"/>
     <use xlink:href="#m073aaf7590" x="288.340716" y="102.274902" style="fill: #0f4d92; stroke: #0f4d92"/>
     <use xlink:href="#m073aaf7590" x="311.606992" y="102.793373" style="fill: #0f4d92; stroke: #0f4d92"/>
     <use xlink:href="#m073aaf7590" x="334.873267" y="101.756431" style="fill: #0f4d92; stroke: #0f4d92"/>
     <use xlink:href="#m073aaf7590" x="358.139543" y="102.793373" style="fill: #0f4d92; stroke: #0f4d92"/>
     <use xlink:href="#m073aaf7590" x="381.405818" y="101.756431" style="fill: #0f4d92; stroke: #0f4d92"/>
     <use xlink:href="#m073aaf7590" x="404.672094" y="101.756431" style="fill: #0f4d92; stroke: #0f4d92"/>
     <use xlink:href="#m073aaf7590" x="427.938369" y="101.756431" style="fill: #0f4d92; stroke: #0f4d92"/>
     <use xlink:href="#m073aaf7590" x="451.204645" y="99.682547" style="fill: #0f4d92; stroke: #0f4d92"/>
     <use xlink:href="#m073aaf7590" x="474.47092" y="101.756431" style="fill: #0f4d92; stroke: #0f4d92"/>
     <use xlink:href="#m073aaf7590" x="497.737196" y="104.348786" style="fill: #0f4d92; stroke: #0f4d92"/>
    </g>
   </g>
   <g id="line2d_15">
    <path d="M 55.677962 100.0727 
L 61.273648 99.667444 
L 66.869335 99.406805 
L 72.465021 99.920763 
L 78.060708 100.228304 
L 83.656394 99.584458 
L 89.252081 100.357327 
L 94.847767 102.492582 
L 100.443454 103.772609 
L 106.03914 101.692351 
L 111.634827 102.385678 
L 117.230513 104.484682 
L 122.8262 108.176294 
L 128.421886 110.575601 
L 134.017573 110.22559 
L 139.613259 107.676536 
L 145.208946 109.718102 
L 150.804632 109.026028 
L 156.400319 108.916041 
L 161.996005 106.317858 
L 167.591692 101.427128 
L 173.187378 105.749507 
L 178.783065 109.86485 
L 184.378751 112.296271 
L 189.974438 111.909077 
L 195.570124 110.362081 
L 201.165811 111.146066 
L 206.761497 109.056119 
L 212.357184 107.155864 
L 217.95287 104.271549 
L 223.548557 105.389099 
L 229.144243 106.291016 
L 234.73993 107.023003 
L 240.335616 106.776867 
L 245.931303 101.77536 
L 251.526989 101.306451 
L 257.122676 100.146056 
L 262.718362 98.84041 
L 268.314049 103.572997 
L 273.909735 106.137503 
L 279.505422 107.569755 
L 285.101109 107.120229 
L 290.696795 106.498619 
L 296.292482 102.09084 
L 301.888168 103.147253 
L 307.483855 102.51917 
L 313.079541 102.211124 
L 318.675228 97.853139 
L 324.270914 97.649076 
L 329.866601 98.91048 
L 335.462287 104.285949 
L 341.057974 102.046177 
L 346.65366 104.66395 
L 352.249347 106.182455 
L 357.845033 107.233276 
L 363.44072 107.700682 
L 369.036406 106.792774 
L 374.632093 114.337952 
L 380.227779 118.364942 
L 385.823466 118.563718 
L 391.419152 119.01906 
L 397.014839 117.241065 
L 402.610525 118.524299 
L 408.206212 117.797633 
L 413.801898 116.541979 
L 419.397585 116.239306 
L 424.993271 120.023485 
L 430.588958 120.609176 
L 436.184644 118.912937 
L 441.780331 118.921776 
L 447.376017 117.979428 
L 452.971704 118.763294 
L 458.56739 119.723502 
L 464.163077 119.953498 
L 469.758763 120.892786 
L 475.35445 123.151355 
L 480.950136 125.035729 
" clip-path="url(#p4ef5596ef7)" style="fill: none; stroke: #4d4d4d; stroke-opacity: 0.86; stroke-width: 1.25; stroke-linecap: square"/>
   </g>
   <g id="line2d_16">
    <path d="M 486.545823 129.235397 
L 486.545823 19.319531 
" clip-path="url(#p4ef5596ef7)" style="fill: none; stroke-dasharray: 5.12,1.28,0.8,1.28; stroke-dashoffset: 0; stroke: #4d4d4d; stroke-opacity: 0.75; stroke-width: 0.8"/>
   </g>
   <g id="line2d_17">
    <path d="M 33.575 126.124571 
L 519.840157 126.124571 
" clip-path="url(#p4ef5596ef7)" style="fill: none; stroke-dasharray: 3.33,1.44; stroke-dashoffset: 0; stroke: #8bcf8b; stroke-width: 0.9"/>
   </g>
   <g id="line2d_18">
    <path d="M 33.575 74.277464 
L 519.840157 74.277464 
" clip-path="url(#p4ef5596ef7)" style="fill: none; stroke-dasharray: 0.8,1.32; stroke-dashoffset: 0; stroke: #767676; stroke-width: 0.8"/>
   </g>
   <g id="patch_3">
    <path d="M 33.575 129.235397 
L 33.575 19.319531 
" style="fill: none; stroke: #000000; stroke-width: 0.8; stroke-linejoin: miter; stroke-linecap: square"/>
   </g>
   <g id="patch_4">
    <path d="M 33.575 129.235397 
L 519.840157 129.235397 
" style="fill: none; stroke: #000000; stroke-width: 0.8; stroke-linejoin: miter; stroke-linecap: square"/>
   </g>
   <g id="text_16">
    <text style="font-size: 7.5px; font-family: 'Songti SC', 'Arial Unicode MS'; text-anchor: middle" x="276.707579" y="13.319531" transform="rotate(-0 276.707579 13.319531)">Lord Miles完成40天禁食挑战</text>
   </g>
   <g id="legend_1">
    <g id="line2d_19">
     <path d="M 38.535 27.100531 
L 43.495 27.100531 
L 48.455 27.100531 
" style="fill: none; stroke: #0f4d92; stroke-width: 1.5; stroke-linecap: square"/>
     <g>
      <use xlink:href="#m073aaf7590" x="43.495" y="27.100531" style="fill: #0f4d92; stroke: #0f4d92"/>
     </g>
    </g>
    <g id="text_17">
     <text style="font-size: 6.2px; font-family: 'Songti SC', 'Arial Unicode MS'; text-anchor: start" x="53.415" y="29.270531" transform="rotate(-0 53.415 29.270531)">模拟市场价格</text>
    </g>
    <g id="line2d_20">
     <path d="M 38.535 36.053719 
L 43.495 36.053719 
L 48.455 36.053719 
" style="fill: none; stroke: #4d4d4d; stroke-opacity: 0.86; stroke-width: 1.25; stroke-linecap: square"/>
    </g>
    <g id="text_18">
     <text style="font-size: 6.2px; font-family: 'Songti SC', 'Arial Unicode MS'; text-anchor: start" x="53.415" y="38.223719" transform="rotate(-0 53.415 38.223719)">真实市场价格</text>
    </g>
    <g id="line2d_21">
     <path d="M 38.535 45.037906 
L 43.495 45.037906 
L 48.455 45.037906 
" style="fill: none; stroke-dasharray: 5.12,1.28,0.8,1.28; stroke-dashoffset: 0; stroke: #4d4d4d; stroke-opacity: 0.75; stroke-width: 0.8"/>
    </g>
    <g id="text_19">
     <text style="font-size: 6.2px; font-family: 'Songti SC', 'Arial Unicode MS'; text-anchor: start" x="53.415" y="47.207906" transform="rotate(-0 53.415 47.207906)">事件结束</text>
    </g>
   </g>
  </g>
 </g>
 <defs>
  <clipPath id="p4ef5596ef7">
   <rect x="33.575" y="19.319531" width="486.265157" height="109.915866"/>
  </clipPath>
 </defs>
</svg>
