<?xml version="1.0" encoding="utf-8" standalone="no"?>
<!DOCTYPE svg PUBLIC "-//W3C//DTD SVG 1.1//EN"
  "http://www.w3.org/Graphics/SVG/1.1/DTD/svg11.dtd">
<svg xmlns:xlink="http://www.w3.org/1999/xlink" width="527.040157pt" height="160.350632pt" viewBox="0 0 527.040157 160.350632" xmlns="http://www.w3.org/2000/svg" version="1.1">
 <metadata>
  <rdf:RDF xmlns:dc="http://purl.org/dc/elements/1.1/" xmlns:cc="http://creativecommons.org/ns#" xmlns:rdf="http://www.w3.org/1999/02/22-rdf-syntax-ns#">
   <cc:Work>
    <dc:type rdf:resource="http://purl.org/dc/dcmitype/StillImage"/>
    <dc:date>2026-05-29T20:53:19.657642</dc:date>
    <dc:format>image/svg+xml</dc:format>
    <dc:creator>
     <cc:Agent>
      <dc:title>Matplotlib v3.10.9, https://matplotlib.org/</dc:title>
     </cc:Agent>
    </dc:creator>
   </cc:Work>
  </rdf:RDF>
 </metadata>
 <defs>
  <style type="text/css">*{stroke-linejoin: round; stroke-linecap: butt}</style>
 </defs>
 <g id="figure_1">
  <g id="patch_1">
   <path d="M 0 160.350632 
L 527.040157 160.350632 
L 527.040157 0 
L 0 0 
z
" style="fill: #ffffff"/>
  </g>
  <g id="axes_1">
   <g id="patch_2">
    <path d="M 33.575 129.220397 
L 519.840157 129.220397 
L 519.840157 19.319531 
L 33.575 19.319531 
z
" style="fill: #ffffff"/>
   </g>
   <g id="PathCollection_1">
    <defs>
     <path id="m1cb568721a" d="M 0 1.414214 
C 0.375054 1.414214 0.734797 1.265203 1 1 
C 1.265203 0.734797 1.414214 0.375054 1.414214 0 
C 1.414214 -0.375054 1.265203 -0.734797 1 -1 
C 0.734797 -1.265203 0.375054 -1.414214 0 -1.414214 
C -0.375054 -1.414214 -0.734797 -1.265203 -1 -1 
C -1.265203 -0.734797 -1.414214 -0.375054 -1.414214 0 
C -1.414214 0.375054 -1.265203 0.734797 -1 1 
C -0.734797 1.265203 -0.375054 1.414214 0 1.414214 
z
"/>
    </defs>
    <g clip-path="url(#p0143fd9dbd)">
     <use xlink:href="#m1cb568721a" x="55.677962" y="50.581567" style="fill: #4d4d4d; fill-opacity: 0.75"/>
     <use xlink:href="#m1cb568721a" x="78.060708" y="51.56403" style="fill: #4d4d4d; fill-opacity: 0.75"/>
     <use xlink:href="#m1cb568721a" x="100.443454" y="50.559778" style="fill: #4d4d4d; fill-opacity: 0.75"/>
     <use xlink:href="#m1cb568721a" x="122.8262" y="49.870589" style="fill: #4d4d4d; fill-opacity: 0.75"/>
     <use xlink:href="#m1cb568721a" x="145.208946" y="50.352048" style="fill: #4d4d4d; fill-opacity: 0.75"/>
     <use xlink:href="#m1cb568721a" x="167.591692" y="50.596351" style="fill: #4d4d4d; fill-opacity: 0.75"/>
     <use xlink:href="#m1cb568721a" x="189.974438" y="49.565508" style="fill: #4d4d4d; fill-opacity: 0.75"/>
     <use xlink:href="#m1cb568721a" x="212.357184" y="49.69779" style="fill: #4d4d4d; fill-opacity: 0.75"/>
     <use xlink:href="#m1cb568721a" x="234.73993" y="50.030281" style="fill: #4d4d4d; fill-opacity: 0.75"/>
     <use xlink:href="#m1cb568721a" x="257.122676" y="50.043389" style="fill: #4d4d4d; fill-opacity: 0.75"/>
     <use xlink:href="#m1cb568721a" x="279.505422" y="54.466763" style="fill: #4d4d4d; fill-opacity: 0.75"/>
     <use xlink:href="#m1cb568721a" x="301.888168" y="45.998751" style="fill: #4d4d4d; fill-opacity: 0.75"/>
     <use xlink:href="#m1cb568721a" x="324.270914" y="42.669997" style="fill: #4d4d4d; fill-opacity: 0.75"/>
     <use xlink:href="#m1cb568721a" x="346.65366" y="41.613325" style="fill: #4d4d4d; fill-opacity: 0.75"/>
     <use xlink:href="#m1cb568721a" x="369.036406" y="51.091661" style="fill: #4d4d4d; fill-opacity: 0.75"/>
     <use xlink:href="#m1cb568721a" x="391.419152" y="50.71867" style="fill: #4d4d4d; fill-opacity: 0.75"/>
     <use xlink:href="#m1cb568721a" x="413.801898" y="42.250881" style="fill: #4d4d4d; fill-opacity: 0.75"/>
     <use xlink:href="#m1cb568721a" x="436.184644" y="30.700918" style="fill: #4d4d4d; fill-opacity: 0.75"/>
     <use xlink:href="#m1cb568721a" x="458.56739" y="32.301458" style="fill: #4d4d4d; fill-opacity: 0.75"/>
     <use xlink:href="#m1cb568721a" x="480.950136" y="26.079542" style="fill: #4d4d4d; fill-opacity: 0.75"/>
    </g>
   </g>
   <g id="matplotlib.axis_1">
    <g id="xtick_1">
     <g id="line2d_1">
      <defs>
       <path id="mbaf8bab050" d="M 0 0 
L 0 3 
" style="stroke: #000000; stroke-width: 0.8"/>
      </defs>
      <g>
       <use xlink:href="#mbaf8bab050" x="55.677962" y="129.220397" style="stroke: #000000; stroke-width: 0.8"/>
      </g>
     </g>
     <g id="text_1">
      <text style="font-size: 7px; font-family: 'Times New Roman', 'DejaVu Serif'; text-anchor: middle" x="55.677962" y="140.581022" transform="rotate(-0 55.677962 140.581022)">0</text>
     </g>
    </g>
    <g id="xtick_2">
     <g id="line2d_2">
      <g>
       <use xlink:href="#mbaf8bab050" x="125.476788" y="129.220397" style="stroke: #000000; stroke-width: 0.8"/>
      </g>
     </g>
     <g id="text_2">
      <text style="font-size: 7px; font-family: 'Times New Roman', 'DejaVu Serif'; text-anchor: middle" x="125.476788" y="140.581022" transform="rotate(-0 125.476788 140.581022)">3</text>
     </g>
    </g>
    <g id="xtick_3">
     <g id="line2d_3">
      <g>
       <use xlink:href="#mbaf8bab050" x="195.275615" y="129.220397" style="stroke: #000000; stroke-width: 0.8"/>
      </g>
     </g>
     <g id="text_3">
      <text style="font-size: 7px; font-family: 'Times New Roman', 'DejaVu Serif'; text-anchor: middle" x="195.275615" y="140.581022" transform="rotate(-0 195.275615 140.581022)">6</text>
     </g>
    </g>
    <g id="xtick_4">
     <g id="line2d_4">
      <g>
       <use xlink:href="#mbaf8bab050" x="265.074441" y="129.220397" style="stroke: #000000; stroke-width: 0.8"/>
      </g>
     </g>
     <g id="text_4">
      <text style="font-size: 7px; font-family: 'Times New Roman', 'DejaVu Serif'; text-anchor: middle" x="265.074441" y="140.581022" transform="rotate(-0 265.074441 140.581022)">9</text>
     </g>
    </g>
    <g id="xtick_5">
     <g id="line2d_5">
      <g>
       <use xlink:href="#mbaf8bab050" x="334.873267" y="129.220397" style="stroke: #000000; stroke-width: 0.8"/>
      </g>
     </g>
     <g id="text_5">
      <text style="font-size: 7px; font-family: 'Times New Roman', 'DejaVu Serif'; text-anchor: middle" x="334.873267" y="140.581022" transform="rotate(-0 334.873267 140.581022)">12</text>
     </g>
    </g>
    <g id="xtick_6">
     <g id="line2d_6">
      <g>
       <use xlink:href="#mbaf8bab050" x="404.672094" y="129.220397" style="stroke: #000000; stroke-width: 0.8"/>
      </g>
     </g>
     <g id="text_6">
      <text style="font-size: 7px; font-family: 'Times New Roman', 'DejaVu Serif'; text-anchor: middle" x="404.672094" y="140.581022" transform="rotate(-0 404.672094 140.581022)">15</text>
     </g>
    </g>
    <g id="xtick_7">
     <g id="line2d_7">
      <g>
       <use xlink:href="#mbaf8bab050" x="474.47092" y="129.220397" style="stroke: #000000; stroke-width: 0.8"/>
      </g>
     </g>
     <g id="text_7">
      <text style="font-size: 7px; font-family: 'Times New Roman', 'DejaVu Serif'; text-anchor: middle" x="474.47092" y="140.581022" transform="rotate(-0 474.47092 140.581022)">18</text>
     </g>
    </g>
    <g id="text_8">
     <text style="font-size: 7.5px; font-family: 'Songti SC', 'Arial Unicode MS'; text-anchor: middle" x="276.707579" y="152.107663" transform="rotate(-0 276.707579 152.107663)">决策轮次 tick</text>
    </g>
   </g>
   <g id="matplotlib.axis_2">
    <g id="ytick_1">
     <g id="line2d_8">
      <defs>
       <path id="mfc537df175" d="M 0 0 
L -3 0 
" style="stroke: #000000; stroke-width: 0.8"/>
      </defs>
      <g>
       <use xlink:href="#mfc537df175" x="33.575" y="126.109996" style="stroke: #000000; stroke-width: 0.8"/>
      </g>
     </g>
     <g id="text_9">
      <text style="font-size: 7px; font-family: 'Times New Roman', 'DejaVu Serif'; text-anchor: end" x="27.075" y="128.540308" transform="rotate(-0 27.075 128.540308)">0.0</text>
     </g>
    </g>
    <g id="ytick_2">
     <g id="line2d_9">
      <g>
       <use xlink:href="#mfc537df175" x="33.575" y="105.373983" style="stroke: #000000; stroke-width: 0.8"/>
      </g>
     </g>
     <g id="text_10">
      <text style="font-size: 7px; font-family: 'Times New Roman', 'DejaVu Serif'; text-anchor: end" x="27.075" y="107.804296" transform="rotate(-0 27.075 107.804296)">0.2</text>
     </g>
    </g>
    <g id="ytick_3">
     <g id="line2d_10">
      <g>
       <use xlink:href="#mfc537df175" x="33.575" y="84.637971" style="stroke: #000000; stroke-width: 0.8"/>
      </g>
     </g>
     <g id="text_11">
      <text style="font-size: 7px; font-family: 'Times New Roman', 'DejaVu Serif'; text-anchor: end" x="27.075" y="87.068283" transform="rotate(-0 27.075 87.068283)">0.4</text>
     </g>
    </g>
    <g id="ytick_4">
     <g id="line2d_11">
      <g>
       <use xlink:href="#mfc537df175" x="33.575" y="63.901958" style="stroke: #000000; stroke-width: 0.8"/>
      </g>
     </g>
     <g id="text_12">
      <text style="font-size: 7px; font-family: 'Times New Roman', 'DejaVu Serif'; text-anchor: end" x="27.075" y="66.332271" transform="rotate(-0 27.075 66.332271)">0.6</text>
     </g>
    </g>
    <g id="ytick_5">
     <g id="line2d_12">
      <g>
       <use xlink:href="#mfc537df175" x="33.575" y="43.165946" style="stroke: #000000; stroke-width: 0.8"/>
      </g>
     </g>
     <g id="text_13">
      <text style="font-size: 7px; font-family: 'Times New Roman', 'DejaVu Serif'; text-anchor: end" x="27.075" y="45.596258" transform="rotate(-0 27.075 45.596258)">0.8</text>
     </g>
    </g>
    <g id="ytick_6">
     <g id="line2d_13">
      <g>
       <use xlink:href="#mfc537df175" x="33.575" y="22.429933" style="stroke: #000000; stroke-width: 0.8"/>
      </g>
     </g>
     <g id="text_14">
      <text style="font-size: 7px; font-family: 'Times New Roman', 'DejaVu Serif'; text-anchor: end" x="27.075" y="24.860246" transform="rotate(-0 27.075 24.860246)">1.0</text>
     </g>
    </g>
    <g id="text_15">
     <text style="font-size: 7.5px; font-family: 'Songti SC', 'Arial Unicode MS'; text-anchor: middle" x="13.282031" y="74.269964" transform="rotate(-90 13.282031 74.269964)">YES 中间价</text>
    </g>
   </g>
   <g id="line2d_14">
    <path d="M 55.677962 48.349949 
L 78.944237 48.349949 
L 102.210513 46.794748 
L 125.476788 46.794748 
L 148.743064 46.276347 
L 172.009339 46.276347 
L 195.275615 46.276347 
L 218.54189 43.165946 
L 241.808166 42.129145 
L 265.074441 41.610745 
L 288.340716 41.092344 
L 311.606992 41.092344 
L 334.873267 39.018743 
L 358.139543 37.463542 
L 381.405818 36.426742 
L 404.672094 36.426742 
L 427.938369 36.426742 
L 451.204645 36.426742 
L 474.47092 35.908341 
L 497.737196 35.908341 
" clip-path="url(#p0143fd9dbd)" style="fill: none; stroke: #0f4d92; stroke-width: 1.5; stroke-linecap: square"/>
    <defs>
     <path id="m50a7cf9800" d="M 0 1.4 
C 0.371284 1.4 0.727412 1.252487 0.989949 0.989949 
C 1.252487 0.727412 1.4 0.371284 1.4 0 
C 1.4 -0.371284 1.252487 -0.727412 0.989949 -0.989949 
C 0.727412 -1.252487 0.371284 -1.4 0 -1.4 
C -0.371284 -1.4 -0.727412 -1.252487 -0.989949 -0.989949 
C -1.252487 -0.727412 -1.4 -0.371284 -1.4 0 
C -1.4 0.371284 -1.252487 0.727412 -0.989949 0.989949 
C -0.727412 1.252487 -0.371284 1.4 0 1.4 
z
" style="stroke: #0f4d92"/>
    </defs>
    <g clip-path="url(#p0143fd9dbd)">
     <use xlink:href="#m50a7cf9800" x="55.677962" y="48.349949" style="fill: #0f4d92; stroke: #0f4d92"/>
     <use xlink:href="#m50a7cf9800" x="78.944237" y="48.349949" style="fill: #0f4d92; stroke: #0f4d92"/>
     <use xlink:href="#m50a7cf9800" x="102.210513" y="46.794748" style="fill: #0f4d92; stroke: #0f4d92"/>
     <use xlink:href="#m50a7cf9800" x="125.476788" y="46.794748" style="fill: #0f4d92; stroke: #0f4d92"/>
     <use xlink:href="#m50a7cf9800" x="148.743064" y="46.276347" style="fill: #0f4d92; stroke: #0f4d92"/>
     <use xlink:href="#m50a7cf9800" x="172.009339" y="46.276347" style="fill: #0f4d92; stroke: #0f4d92"/>
     <use xlink:href="#m50a7cf9800" x="195.275615" y="46.276347" style="fill: #0f4d92; stroke: #0f4d92"/>
     <use xlink:href="#m50a7cf9800" x="218.54189" y="43.165946" style="fill: #0f4d92; stroke: #0f4d92"/>
     <use xlink:href="#m50a7cf9800" x="241.808166" y="42.129145" style="fill: #0f4d92; stroke: #0f4d92"/>
     <use xlink:href="#m50a7cf9800" x="265.074441" y="41.610745" style="fill: #0f4d92; stroke: #0f4d92"/>
     <use xlink:href="#m50a7cf9800" x="288.340716" y="41.092344" style="fill: #0f4d92; stroke: #0f4d92"/>
     <use xlink:href="#m50a7cf9800" x="311.606992" y="41.092344" style="fill: #0f4d92; stroke: #0f4d92"/>
     <use xlink:href="#m50a7cf9800" x="334.873267" y="39.018743" style="fill: #0f4d92; stroke: #0f4d92"/>
     <use xlink:href="#m50a7cf9800" x="358.139543" y="37.463542" style="fill: #0f4d92; stroke: #0f4d92"/>
     <use xlink:href="#m50a7cf9800" x="381.405818" y="36.426742" style="fill: #0f4d92; stroke: #0f4d92"/>
     <use xlink:href="#m50a7cf9800" x="404.672094" y="36.426742" style="fill: #0f4d92; stroke: #0f4d92"/>
     <use xlink:href="#m50a7cf9800" x="427.938369" y="36.426742" style="fill: #0f4d92; stroke: #0f4d92"/>
     <use xlink:href="#m50a7cf9800" x="451.204645" y="36.426742" style="fill: #0f4d92; stroke: #0f4d92"/>
     <use xlink:href="#m50a7cf9800" x="474.47092" y="35.908341" style="fill: #0f4d92; stroke: #0f4d92"/>
     <use xlink:href="#m50a7cf9800" x="497.737196" y="35.908341" style="fill: #0f4d92; stroke: #0f4d92"/>
    </g>
   </g>
   <g id="line2d_15">
    <path d="M 55.677962 50.581567 
L 61.273648 51.183871 
L 66.869335 50.781069 
L 72.465021 51.093177 
L 78.060708 51.56403 
L 83.656394 51.152058 
L 89.252081 51.098696 
L 94.847767 51.376604 
L 100.443454 50.559778 
L 106.03914 49.871798 
L 111.634827 50.173287 
L 117.230513 50.073135 
L 122.8262 49.870589 
L 128.421886 49.708516 
L 134.017573 49.870588 
L 139.613259 49.866974 
L 145.208946 50.352048 
L 150.804632 50.270428 
L 156.400319 49.851522 
L 161.996005 50.547419 
L 167.591692 50.596351 
L 173.187378 49.529757 
L 178.783065 49.663229 
L 184.378751 49.559549 
L 189.974438 49.565508 
L 195.570124 49.209443 
L 201.165811 49.279494 
L 206.761497 49.524989 
L 212.357184 49.69779 
L 217.95287 50.316295 
L 223.548557 49.962981 
L 229.144243 49.697789 
L 234.73993 50.030281 
L 240.335616 49.766909 
L 245.931303 49.851521 
L 251.526989 49.663229 
L 257.122676 50.043389 
L 262.718362 50.101784 
L 268.314049 50.04339 
L 273.909735 52.2363 
L 279.505422 54.466763 
L 285.101109 55.057113 
L 290.696795 50.505259 
L 296.292482 46.00821 
L 301.888168 45.998751 
L 307.483855 46.441465 
L 313.079541 44.148519 
L 318.675228 43.079466 
L 324.270914 42.669997 
L 329.866601 40.772829 
L 335.462287 35.289113 
L 341.057974 34.289162 
L 346.65366 41.613325 
L 352.249347 45.791096 
L 357.845033 46.387659 
L 363.44072 52.558594 
L 369.036406 51.091661 
L 374.632093 49.661238 
L 380.227779 55.587776 
L 385.823466 63.020996 
L 391.419152 50.71867 
L 397.014839 48.844841 
L 402.610525 44.963067 
L 408.206212 45.773421 
L 413.801898 42.250881 
L 419.397585 34.4898 
L 424.993271 34.232765 
L 430.588958 32.190515 
L 436.184644 30.700918 
L 441.780331 33.802454 
L 447.376017 32.723968 
L 452.971704 35.686369 
L 458.56739 32.301458 
L 464.163077 27.301251 
L 469.758763 25.460468 
L 475.35445 25.955678 
L 480.950136 26.079542 
" clip-path="url(#p0143fd9dbd)" style="fill: none; stroke: #4d4d4d; stroke-opacity: 0.86; stroke-width: 1.25; stroke-linecap: square"/>
   </g>
   <g id="line2d_16">
    <path d="M 486.545823 129.220397 
L 486.545823 19.319531 
" clip-path="url(#p0143fd9dbd)" style="fill: none; stroke-dasharray: 5.12,1.28,0.8,1.28; stroke-dashoffset: 0; stroke: #4d4d4d; stroke-opacity: 0.75; stroke-width: 0.8"/>
   </g>
   <g id="line2d_17">
    <path d="M 33.575 22.429933 
L 519.840157 22.429933 
" clip-path="url(#p0143fd9dbd)" style="fill: none; stroke-dasharray: 3.33,1.44; stroke-dashoffset: 0; stroke: #8bcf8b; stroke-width: 0.9"/>
   </g>
   <g id="line2d_18">
    <path d="M 33.575 74.269964 
L 519.840157 74.269964 
" clip-path="url(#p0143fd9dbd)" style="fill: none; stroke-dasharray: 0.8,1.32; stroke-dashoffset: 0; stroke: #767676; stroke-width: 0.8"/>
   </g>
   <g id="patch_3">
    <path d="M 33.575 129.220397 
L 33.575 19.319531 
" style="fill: none; stroke: #000000; stroke-width: 0.8; stroke-linejoin: miter; stroke-linecap: square"/>
   </g>
   <g id="patch_4">
    <path d="M 33.575 129.220397 
L 519.840157 129.220397 
" style="fill: none; stroke: #000000; stroke-width: 0.8; stroke-linejoin: miter; stroke-linecap: square"/>
   </g>
   <g id="text_16">
    <text style="font-size: 7.5px; font-family: 'Songti SC', 'Arial Unicode MS'; text-anchor: middle" x="276.707579" y="13.319531" transform="rotate(-0 276.707579 13.319531)">NFL酋长对巨人比赛结果</text>
   </g>
   <g id="legend_1">
    <g id="line2d_19">
     <path d="M 38.535 103.290835 
L 43.495 103.290835 
L 48.455 103.290835 
" style="fill: none; stroke: #0f4d92; stroke-width: 1.5; stroke-linecap: square"/>
     <g>
      <use xlink:href="#m50a7cf9800" x="43.495" y="103.290835" style="fill: #0f4d92; stroke: #0f4d92"/>
     </g>
    </g>
    <g id="text_17">
     <text style="font-size: 6.2px; font-family: 'Songti SC', 'Arial Unicode MS'; text-anchor: start" x="53.415" y="105.460835" transform="rotate(-0 53.415 105.460835)">模拟市场价格</text>
    </g>
    <g id="line2d_20">
     <path d="M 38.535 112.244022 
L 43.495 112.244022 
L 48.455 112.244022 
" style="fill: none; stroke: #4d4d4d; stroke-opacity: 0.86; stroke-width: 1.25; stroke-linecap: square"/>
    </g>
    <g id="text_18">
     <text style="font-size: 6.2px; font-family: 'Songti SC', 'Arial Unicode MS'; text-anchor: start" x="53.415" y="114.414022" transform="rotate(-0 53.415 114.414022)">真实市场价格</text>
    </g>
    <g id="line2d_21">
     <path d="M 38.535 121.22821 
L 43.495 121.22821 
L 48.455 121.22821 
" style="fill: none; stroke-dasharray: 5.12,1.28,0.8,1.28; stroke-dashoffset: 0; stroke: #4d4d4d; stroke-opacity: 0.75; stroke-width: 0.8"/>
    </g>
    <g id="text_19">
     <text style="font-size: 6.2px; font-family: 'Songti SC', 'Arial Unicode MS'; text-anchor: start" x="53.415" y="123.39821" transform="rotate(-0 53.415 123.39821)">事件结束</text>
    </g>
   </g>
  </g>
 </g>
 <defs>
  <clipPath id="p0143fd9dbd">
   <rect x="33.575" y="19.319531" width="486.265157" height="109.900866"/>
  </clipPath>
 </defs>
</svg>
