<?xml version="1.0" encoding="utf-8" standalone="no"?>
<!DOCTYPE svg PUBLIC "-//W3C//DTD SVG 1.1//EN"
  "http://www.w3.org/Graphics/SVG/1.1/DTD/svg11.dtd">
<svg xmlns:xlink="http://www.w3.org/1999/xlink" width="526.913126pt" height="160.410397pt" viewBox="0 0 526.913126 160.410397" xmlns="http://www.w3.org/2000/svg" version="1.1">
 <metadata>
  <rdf:RDF xmlns:dc="http://purl.org/dc/elements/1.1/" xmlns:cc="http://creativecommons.org/ns#" xmlns:rdf="http://www.w3.org/1999/02/22-rdf-syntax-ns#">
   <cc:Work>
    <dc:type rdf:resource="http://purl.org/dc/dcmitype/StillImage"/>
    <dc:date>2026-05-29T20:53:21.279990</dc:date>
    <dc:format>image/svg+xml</dc:format>
    <dc:creator>
     <cc:Agent>
      <dc:title>Matplotlib v3.10.9, https://matplotlib.org/</dc:title>
     </cc:Agent>
    </dc:creator>
   </cc:Work>
  </rdf:RDF>
 </metadata>
 <defs>
  <style type="text/css">*{stroke-linejoin: round; stroke-linecap: butt}</style>
 </defs>
 <g id="figure_1">
  <g id="patch_1">
   <path d="M 0 160.410397 
L 526.913126 160.410397 
L 526.913126 0 
L 0 0 
z
" style="fill: #ffffff"/>
  </g>
  <g id="axes_1">
   <g id="patch_2">
    <path d="M 33.530469 129.220397 
L 519.713126 129.220397 
L 519.713126 19.357031 
L 33.530469 19.357031 
z
" style="fill: #ffffff"/>
   </g>
   <g id="PathCollection_1">
    <defs>
     <path id="m49871f78dd" d="M 0 1.414214 
C 0.375054 1.414214 0.734797 1.265203 1 1 
C 1.265203 0.734797 1.414214 0.375054 1.414214 0 
C 1.414214 -0.375054 1.265203 -0.734797 1 -1 
C 0.734797 -1.265203 0.375054 -1.414214 0 -1.414214 
C -0.375054 -1.414214 -0.734797 -1.265203 -1 -1 
C -1.265203 -0.734797 -1.414214 -0.375054 -1.414214 0 
C -1.414214 0.375054 -1.265203 0.734797 -1 1 
C -0.734797 1.265203 -0.375054 1.414214 0 1.414214 
z
"/>
    </defs>
    <g clip-path="url(#pcacf6db5ef)">
     <use xlink:href="#m49871f78dd" x="38.027996" y="59.552897" style="fill: #4d4d4d; fill-opacity: 0.75"/>
     <use xlink:href="#m49871f78dd" x="43.834929" y="54.458408" style="fill: #4d4d4d; fill-opacity: 0.75"/>
     <use xlink:href="#m49871f78dd" x="49.641863" y="60.777371" style="fill: #4d4d4d; fill-opacity: 0.75"/>
     <use xlink:href="#m49871f78dd" x="55.448796" y="61.613042" style="fill: #4d4d4d; fill-opacity: 0.75"/>
     <use xlink:href="#m49871f78dd" x="61.255729" y="60.441084" style="fill: #4d4d4d; fill-opacity: 0.75"/>
     <use xlink:href="#m49871f78dd" x="67.062663" y="60.570594" style="fill: #4d4d4d; fill-opacity: 0.75"/>
     <use xlink:href="#m49871f78dd" x="72.869596" y="64.601724" style="fill: #4d4d4d; fill-opacity: 0.75"/>
     <use xlink:href="#m49871f78dd" x="78.67653" y="62.749184" style="fill: #4d4d4d; fill-opacity: 0.75"/>
     <use xlink:href="#m49871f78dd" x="84.483463" y="59.813884" style="fill: #4d4d4d; fill-opacity: 0.75"/>
     <use xlink:href="#m49871f78dd" x="90.290397" y="58.529777" style="fill: #4d4d4d; fill-opacity: 0.75"/>
     <use xlink:href="#m49871f78dd" x="96.09733" y="36.682325" style="fill: #4d4d4d; fill-opacity: 0.75"/>
     <use xlink:href="#m49871f78dd" x="101.904264" y="29.798758" style="fill: #4d4d4d; fill-opacity: 0.75"/>
     <use xlink:href="#m49871f78dd" x="107.711197" y="27.868016" style="fill: #4d4d4d; fill-opacity: 0.75"/>
     <use xlink:href="#m49871f78dd" x="113.518131" y="27.482409" style="fill: #4d4d4d; fill-opacity: 0.75"/>
     <use xlink:href="#m49871f78dd" x="119.325064" y="26.718029" style="fill: #4d4d4d; fill-opacity: 0.75"/>
    </g>
   </g>
   <g id="matplotlib.axis_1">
    <g id="xtick_1">
     <g id="line2d_1">
      <defs>
       <path id="mb16b2aaa4e" d="M 0 0 
L 0 3 
" style="stroke: #000000; stroke-width: 0.8"/>
      </defs>
      <g>
       <use xlink:href="#mb16b2aaa4e" x="38.027996" y="129.220397" style="stroke: #000000; stroke-width: 0.8"/>
      </g>
     </g>
     <g id="text_1">
      <text style="font-size: 7px; font-family: 'Times New Roman', 'DejaVu Serif'; text-anchor: middle" x="38.027996" y="140.581022" transform="rotate(-0 38.027996 140.581022)">0</text>
     </g>
    </g>
    <g id="xtick_2">
     <g id="line2d_2">
      <g>
       <use xlink:href="#mb16b2aaa4e" x="91.998318" y="129.220397" style="stroke: #000000; stroke-width: 0.8"/>
      </g>
     </g>
     <g id="text_2">
      <text style="font-size: 7px; font-family: 'Times New Roman', 'DejaVu Serif'; text-anchor: middle" x="91.998318" y="140.581022" transform="rotate(-0 91.998318 140.581022)">6</text>
     </g>
    </g>
    <g id="xtick_3">
     <g id="line2d_3">
      <g>
       <use xlink:href="#mb16b2aaa4e" x="145.968641" y="129.220397" style="stroke: #000000; stroke-width: 0.8"/>
      </g>
     </g>
     <g id="text_3">
      <text style="font-size: 7px; font-family: 'Times New Roman', 'DejaVu Serif'; text-anchor: middle" x="145.968641" y="140.581022" transform="rotate(-0 145.968641 140.581022)">12</text>
     </g>
    </g>
    <g id="xtick_4">
     <g id="line2d_4">
      <g>
       <use xlink:href="#mb16b2aaa4e" x="199.938964" y="129.220397" style="stroke: #000000; stroke-width: 0.8"/>
      </g>
     </g>
     <g id="text_4">
      <text style="font-size: 7px; font-family: 'Times New Roman', 'DejaVu Serif'; text-anchor: middle" x="199.938964" y="140.581022" transform="rotate(-0 199.938964 140.581022)">18</text>
     </g>
    </g>
    <g id="xtick_5">
     <g id="line2d_5">
      <g>
       <use xlink:href="#mb16b2aaa4e" x="253.909287" y="129.220397" style="stroke: #000000; stroke-width: 0.8"/>
      </g>
     </g>
     <g id="text_5">
      <text style="font-size: 7px; font-family: 'Times New Roman', 'DejaVu Serif'; text-anchor: middle" x="253.909287" y="140.581022" transform="rotate(-0 253.909287 140.581022)">24</text>
     </g>
    </g>
    <g id="xtick_6">
     <g id="line2d_6">
      <g>
       <use xlink:href="#mb16b2aaa4e" x="307.879609" y="129.220397" style="stroke: #000000; stroke-width: 0.8"/>
      </g>
     </g>
     <g id="text_6">
      <text style="font-size: 7px; font-family: 'Times New Roman', 'DejaVu Serif'; text-anchor: middle" x="307.879609" y="140.581022" transform="rotate(-0 307.879609 140.581022)">30</text>
     </g>
    </g>
    <g id="xtick_7">
     <g id="line2d_7">
      <g>
       <use xlink:href="#mb16b2aaa4e" x="361.849932" y="129.220397" style="stroke: #000000; stroke-width: 0.8"/>
      </g>
     </g>
     <g id="text_7">
      <text style="font-size: 7px; font-family: 'Times New Roman', 'DejaVu Serif'; text-anchor: middle" x="361.849932" y="140.581022" transform="rotate(-0 361.849932 140.581022)">36</text>
     </g>
    </g>
    <g id="xtick_8">
     <g id="line2d_8">
      <g>
       <use xlink:href="#mb16b2aaa4e" x="415.820255" y="129.220397" style="stroke: #000000; stroke-width: 0.8"/>
      </g>
     </g>
     <g id="text_8">
      <text style="font-size: 7px; font-family: 'Times New Roman', 'DejaVu Serif'; text-anchor: middle" x="415.820255" y="140.581022" transform="rotate(-0 415.820255 140.581022)">42</text>
     </g>
    </g>
    <g id="xtick_9">
     <g id="line2d_9">
      <g>
       <use xlink:href="#mb16b2aaa4e" x="469.790578" y="129.220397" style="stroke: #000000; stroke-width: 0.8"/>
      </g>
     </g>
     <g id="text_9">
      <text style="font-size: 7px; font-family: 'Times New Roman', 'DejaVu Serif'; text-anchor: middle" x="469.790578" y="140.581022" transform="rotate(-0 469.790578 140.581022)">48</text>
     </g>
    </g>
    <g id="text_10">
     <text style="font-size: 7.5px; font-family: 'Songti SC', 'Arial Unicode MS'; text-anchor: middle" x="276.621797" y="152.167429" transform="rotate(-0 276.621797 152.167429)">累积成交笔数</text>
    </g>
   </g>
   <g id="matplotlib.axis_2">
    <g id="ytick_1">
     <g id="line2d_10">
      <defs>
       <path id="m3909d381b8" d="M 0 0 
L -3 0 
" style="stroke: #000000; stroke-width: 0.8"/>
      </defs>
      <g>
       <use xlink:href="#m3909d381b8" x="33.530469" y="126.111057" style="stroke: #000000; stroke-width: 0.8"/>
      </g>
     </g>
     <g id="text_11">
      <text style="font-size: 7px; font-family: 'Times New Roman', 'DejaVu Serif'; text-anchor: end" x="27.030469" y="128.541369" transform="rotate(-0 27.030469 128.541369)">0.0</text>
     </g>
    </g>
    <g id="ytick_2">
     <g id="line2d_11">
      <g>
       <use xlink:href="#m3909d381b8" x="33.530469" y="105.38212" style="stroke: #000000; stroke-width: 0.8"/>
      </g>
     </g>
     <g id="text_12">
      <text style="font-size: 7px; font-family: 'Times New Roman', 'DejaVu Serif'; text-anchor: end" x="27.030469" y="107.812432" transform="rotate(-0 27.030469 107.812432)">0.2</text>
     </g>
    </g>
    <g id="ytick_3">
     <g id="line2d_12">
      <g>
       <use xlink:href="#m3909d381b8" x="33.530469" y="84.653183" style="stroke: #000000; stroke-width: 0.8"/>
      </g>
     </g>
     <g id="text_13">
      <text style="font-size: 7px; font-family: 'Times New Roman', 'DejaVu Serif'; text-anchor: end" x="27.030469" y="87.083495" transform="rotate(-0 27.030469 87.083495)">0.4</text>
     </g>
    </g>
    <g id="ytick_4">
     <g id="line2d_13">
      <g>
       <use xlink:href="#m3909d381b8" x="33.530469" y="63.924246" style="stroke: #000000; stroke-width: 0.8"/>
      </g>
     </g>
     <g id="text_14">
      <text style="font-size: 7px; font-family: 'Times New Roman', 'DejaVu Serif'; text-anchor: end" x="27.030469" y="66.354558" transform="rotate(-0 27.030469 66.354558)">0.6</text>
     </g>
    </g>
    <g id="ytick_5">
     <g id="line2d_14">
      <g>
       <use xlink:href="#m3909d381b8" x="33.530469" y="43.195309" style="stroke: #000000; stroke-width: 0.8"/>
      </g>
     </g>
     <g id="text_15">
      <text style="font-size: 7px; font-family: 'Times New Roman', 'DejaVu Serif'; text-anchor: end" x="27.030469" y="45.625621" transform="rotate(-0 27.030469 45.625621)">0.8</text>
     </g>
    </g>
    <g id="ytick_6">
     <g id="line2d_15">
      <g>
       <use xlink:href="#m3909d381b8" x="33.530469" y="22.466372" style="stroke: #000000; stroke-width: 0.8"/>
      </g>
     </g>
     <g id="text_16">
      <text style="font-size: 7px; font-family: 'Times New Roman', 'DejaVu Serif'; text-anchor: end" x="27.030469" y="24.896684" transform="rotate(-0 27.030469 24.896684)">1.0</text>
     </g>
    </g>
    <g id="text_17">
     <text style="font-size: 7.5px; font-family: 'Songti SC', 'Arial Unicode MS'; text-anchor: middle" x="13.2375" y="74.288714" transform="rotate(-90 13.2375 74.288714)">YES 价格</text>
    </g>
   </g>
   <g id="line2d_16">
    <path d="M 38.027996 55.632671 
L 91.998318 55.632671 
L 91.998318 55.632671 
L 91.998318 55.632671 
L 118.98348 52.52333 
L 127.978534 52.52333 
L 163.958749 51.486884 
L 199.938964 51.486884 
L 226.924125 48.377543 
L 253.909287 48.377543 
L 253.909287 44.749979 
L 298.884556 45.268203 
L 343.859825 44.749979 
L 379.84004 45.268203 
L 433.810363 62.369576 
L 433.810363 62.369576 
L 460.795524 63.406022 
L 487.780685 63.924246 
L 487.780685 63.924246 
L 496.775739 63.924246 
L 496.775739 63.924246 
" clip-path="url(#pcacf6db5ef)" style="fill: none; stroke: #0f4d92; stroke-width: 1.5; stroke-linecap: square"/>
    <defs>
     <path id="m0b16b051fd" d="M 0 1.4 
C 0.371284 1.4 0.727412 1.252487 0.989949 0.989949 
C 1.252487 0.727412 1.4 0.371284 1.4 0 
C 1.4 -0.371284 1.252487 -0.727412 0.989949 -0.989949 
C 0.727412 -1.252487 0.371284 -1.4 0 -1.4 
C -0.371284 -1.4 -0.727412 -1.252487 -0.989949 -0.989949 
C -1.252487 -0.727412 -1.4 -0.371284 -1.4 0 
C -1.4 0.371284 -1.252487 0.727412 -0.989949 0.989949 
C -0.727412 1.252487 -0.371284 1.4 0 1.4 
z
" style="stroke: #0f4d92"/>
    </defs>
    <g clip-path="url(#pcacf6db5ef)">
     <use xlink:href="#m0b16b051fd" x="38.027996" y="55.632671" style="fill: #0f4d92; stroke: #0f4d92"/>
     <use xlink:href="#m0b16b051fd" x="91.998318" y="55.632671" style="fill: #0f4d92; stroke: #0f4d92"/>
     <use xlink:href="#m0b16b051fd" x="91.998318" y="55.632671" style="fill: #0f4d92; stroke: #0f4d92"/>
     <use xlink:href="#m0b16b051fd" x="91.998318" y="55.632671" style="fill: #0f4d92; stroke: #0f4d92"/>
     <use xlink:href="#m0b16b051fd" x="118.98348" y="52.52333" style="fill: #0f4d92; stroke: #0f4d92"/>
     <use xlink:href="#m0b16b051fd" x="127.978534" y="52.52333" style="fill: #0f4d92; stroke: #0f4d92"/>
     <use xlink:href="#m0b16b051fd" x="163.958749" y="51.486884" style="fill: #0f4d92; stroke: #0f4d92"/>
     <use xlink:href="#m0b16b051fd" x="199.938964" y="51.486884" style="fill: #0f4d92; stroke: #0f4d92"/>
     <use xlink:href="#m0b16b051fd" x="226.924125" y="48.377543" style="fill: #0f4d92; stroke: #0f4d92"/>
     <use xlink:href="#m0b16b051fd" x="253.909287" y="48.377543" style="fill: #0f4d92; stroke: #0f4d92"/>
     <use xlink:href="#m0b16b051fd" x="253.909287" y="44.749979" style="fill: #0f4d92; stroke: #0f4d92"/>
     <use xlink:href="#m0b16b051fd" x="298.884556" y="45.268203" style="fill: #0f4d92; stroke: #0f4d92"/>
     <use xlink:href="#m0b16b051fd" x="343.859825" y="44.749979" style="fill: #0f4d92; stroke: #0f4d92"/>
     <use xlink:href="#m0b16b051fd" x="379.84004" y="45.268203" style="fill: #0f4d92; stroke: #0f4d92"/>
     <use xlink:href="#m0b16b051fd" x="433.810363" y="62.369576" style="fill: #0f4d92; stroke: #0f4d92"/>
     <use xlink:href="#m0b16b051fd" x="433.810363" y="62.369576" style="fill: #0f4d92; stroke: #0f4d92"/>
     <use xlink:href="#m0b16b051fd" x="460.795524" y="63.406022" style="fill: #0f4d92; stroke: #0f4d92"/>
     <use xlink:href="#m0b16b051fd" x="487.780685" y="63.924246" style="fill: #0f4d92; stroke: #0f4d92"/>
     <use xlink:href="#m0b16b051fd" x="487.780685" y="63.924246" style="fill: #0f4d92; stroke: #0f4d92"/>
     <use xlink:href="#m0b16b051fd" x="496.775739" y="63.924246" style="fill: #0f4d92; stroke: #0f4d92"/>
     <use xlink:href="#m0b16b051fd" x="496.775739" y="63.924246" style="fill: #0f4d92; stroke: #0f4d92"/>
    </g>
   </g>
   <g id="line2d_17">
    <path d="M 38.027996 59.552897 
L 43.834929 54.458408 
L 49.641863 60.777371 
L 55.448796 61.613042 
L 61.255729 60.441084 
L 67.062663 60.570594 
L 72.869596 64.601724 
L 78.67653 62.749184 
L 84.483463 59.813884 
L 90.290397 58.529777 
L 96.09733 36.682325 
L 101.904264 29.798758 
L 107.711197 27.868016 
L 113.518131 27.482409 
L 119.325064 26.718029 
" clip-path="url(#pcacf6db5ef)" style="fill: none; stroke: #4d4d4d; stroke-opacity: 0.86; stroke-width: 1.25; stroke-linecap: square"/>
   </g>
   <g id="line2d_18">
    <path d="M 125.131998 129.220397 
L 125.131998 19.357031 
" clip-path="url(#pcacf6db5ef)" style="fill: none; stroke-dasharray: 5.12,1.28,0.8,1.28; stroke-dashoffset: 0; stroke: #4d4d4d; stroke-opacity: 0.75; stroke-width: 0.8"/>
   </g>
   <g id="line2d_19">
    <path d="M 33.530469 22.466372 
L 519.713126 22.466372 
" clip-path="url(#pcacf6db5ef)" style="fill: none; stroke-dasharray: 3.33,1.44; stroke-dashoffset: 0; stroke: #b64342; stroke-width: 0.9"/>
   </g>
   <g id="line2d_20">
    <path d="M 33.530469 74.288714 
L 519.713126 74.288714 
" clip-path="url(#pcacf6db5ef)" style="fill: none; stroke-dasharray: 0.8,1.32; stroke-dashoffset: 0; stroke: #767676; stroke-width: 0.8"/>
   </g>
   <g id="patch_3">
    <path d="M 33.530469 129.220397 
L 33.530469 19.357031 
" style="fill: none; stroke: #000000; stroke-width: 0.8; stroke-linejoin: miter; stroke-linecap: square"/>
   </g>
   <g id="patch_4">
    <path d="M 33.530469 129.220397 
L 519.713126 129.220397 
" style="fill: none; stroke: #000000; stroke-width: 0.8; stroke-linejoin: miter; stroke-linecap: square"/>
   </g>
   <g id="text_18">
    <text style="font-size: 7.5px; font-family: 'Songti SC', 'Arial Unicode MS'; text-anchor: middle" x="276.621797" y="13.357031" transform="rotate(-0 276.621797 13.357031)">特斯拉10月底前推出无监督FSD</text>
   </g>
   <g id="legend_1">
    <g id="line2d_21">
     <path d="M 38.490469 103.290835 
L 43.450469 103.290835 
L 48.410469 103.290835 
" style="fill: none; stroke: #0f4d92; stroke-width: 1.5; stroke-linecap: square"/>
     <g>
      <use xlink:href="#m0b16b051fd" x="43.450469" y="103.290835" style="fill: #0f4d92; stroke: #0f4d92"/>
     </g>
    </g>
    <g id="text_19">
     <text style="font-size: 6.2px; font-family: 'Songti SC', 'Arial Unicode MS'; text-anchor: start" x="53.370469" y="105.460835" transform="rotate(-0 53.370469 105.460835)">模拟市场价格</text>
    </g>
    <g id="line2d_22">
     <path d="M 38.490469 112.244022 
L 43.450469 112.244022 
L 48.410469 112.244022 
" style="fill: none; stroke: #4d4d4d; stroke-opacity: 0.86; stroke-width: 1.25; stroke-linecap: square"/>
    </g>
    <g id="text_20">
     <text style="font-size: 6.2px; font-family: 'Songti SC', 'Arial Unicode MS'; text-anchor: start" x="53.370469" y="114.414022" transform="rotate(-0 53.370469 114.414022)">真实市场价格</text>
    </g>
    <g id="line2d_23">
     <path d="M 38.490469 121.22821 
L 43.450469 121.22821 
L 48.410469 121.22821 
" style="fill: none; stroke-dasharray: 5.12,1.28,0.8,1.28; stroke-dashoffset: 0; stroke: #4d4d4d; stroke-opacity: 0.75; stroke-width: 0.8"/>
    </g>
    <g id="text_21">
     <text style="font-size: 6.2px; font-family: 'Songti SC', 'Arial Unicode MS'; text-anchor: start" x="53.370469" y="123.39821" transform="rotate(-0 53.370469 123.39821)">事件结束</text>
    </g>
   </g>
  </g>
 </g>
 <defs>
  <clipPath id="pcacf6db5ef">
   <rect x="33.530469" y="19.357031" width="486.182657" height="109.863366"/>
  </clipPath>
 </defs>
</svg>
