<?xml version="1.0" encoding="utf-8" standalone="no"?>
<!DOCTYPE svg PUBLIC "-//W3C//DTD SVG 1.1//EN"
  "http://www.w3.org/Graphics/SVG/1.1/DTD/svg11.dtd">
<svg xmlns:xlink="http://www.w3.org/1999/xlink" width="526.913126pt" height="160.388132pt" viewBox="0 0 526.913126 160.388132" xmlns="http://www.w3.org/2000/svg" version="1.1">
 <metadata>
  <rdf:RDF xmlns:dc="http://purl.org/dc/elements/1.1/" xmlns:cc="http://creativecommons.org/ns#" xmlns:rdf="http://www.w3.org/1999/02/22-rdf-syntax-ns#">
   <cc:Work>
    <dc:type rdf:resource="http://purl.org/dc/dcmitype/StillImage"/>
    <dc:date>2026-05-29T20:53:23.055172</dc:date>
    <dc:format>image/svg+xml</dc:format>
    <dc:creator>
     <cc:Agent>
      <dc:title>Matplotlib v3.10.9, https://matplotlib.org/</dc:title>
     </cc:Agent>
    </dc:creator>
   </cc:Work>
  </rdf:RDF>
 </metadata>
 <defs>
  <style type="text/css">*{stroke-linejoin: round; stroke-linecap: butt}</style>
 </defs>
 <g id="figure_1">
  <g id="patch_1">
   <path d="M 0 160.388132 
L 526.913126 160.388132 
L 526.913126 0 
L 0 0 
z
" style="fill: #ffffff"/>
  </g>
  <g id="axes_1">
   <g id="patch_2">
    <path d="M 33.530469 129.198132 
L 519.713126 129.198132 
L 519.713126 19.334766 
L 33.530469 19.334766 
z
" style="fill: #ffffff"/>
   </g>
   <g id="PathCollection_1">
    <defs>
     <path id="m9b823024eb" d="M 0 1.414214 
C 0.375054 1.414214 0.734797 1.265203 1 1 
C 1.265203 0.734797 1.414214 0.375054 1.414214 0 
C 1.414214 -0.375054 1.265203 -0.734797 1 -1 
C 0.734797 -1.265203 0.375054 -1.414214 0 -1.414214 
C -0.375054 -1.414214 -0.734797 -1.265203 -1 -1 
C -1.265203 -0.734797 -1.414214 -0.375054 -1.414214 0 
C -1.414214 0.375054 -1.265203 0.734797 -1 1 
C -0.734797 1.265203 -0.375054 1.414214 0 1.414214 
z
"/>
    </defs>
    <g clip-path="url(#pdfb3a92eb1)">
     <use xlink:href="#m9b823024eb" x="37.489611" y="71.678647" style="fill: #4d4d4d; fill-opacity: 0.75"/>
     <use xlink:href="#m9b823024eb" x="60.743307" y="82.309652" style="fill: #4d4d4d; fill-opacity: 0.75"/>
     <use xlink:href="#m9b823024eb" x="83.997002" y="83.980945" style="fill: #4d4d4d; fill-opacity: 0.75"/>
     <use xlink:href="#m9b823024eb" x="107.250698" y="78.261747" style="fill: #4d4d4d; fill-opacity: 0.75"/>
     <use xlink:href="#m9b823024eb" x="130.504394" y="66.451963" style="fill: #4d4d4d; fill-opacity: 0.75"/>
     <use xlink:href="#m9b823024eb" x="153.75809" y="62.75644" style="fill: #4d4d4d; fill-opacity: 0.75"/>
     <use xlink:href="#m9b823024eb" x="177.011785" y="61.985894" style="fill: #4d4d4d; fill-opacity: 0.75"/>
     <use xlink:href="#m9b823024eb" x="200.265481" y="73.626255" style="fill: #4d4d4d; fill-opacity: 0.75"/>
     <use xlink:href="#m9b823024eb" x="223.519177" y="69.637529" style="fill: #4d4d4d; fill-opacity: 0.75"/>
     <use xlink:href="#m9b823024eb" x="246.772873" y="70.120661" style="fill: #4d4d4d; fill-opacity: 0.75"/>
     <use xlink:href="#m9b823024eb" x="270.026568" y="71.342381" style="fill: #4d4d4d; fill-opacity: 0.75"/>
     <use xlink:href="#m9b823024eb" x="293.280264" y="72.837604" style="fill: #4d4d4d; fill-opacity: 0.75"/>
     <use xlink:href="#m9b823024eb" x="316.53396" y="63.425783" style="fill: #4d4d4d; fill-opacity: 0.75"/>
     <use xlink:href="#m9b823024eb" x="339.787655" y="61.871595" style="fill: #4d4d4d; fill-opacity: 0.75"/>
     <use xlink:href="#m9b823024eb" x="363.041351" y="51.145503" style="fill: #4d4d4d; fill-opacity: 0.75"/>
     <use xlink:href="#m9b823024eb" x="386.295047" y="44.458698" style="fill: #4d4d4d; fill-opacity: 0.75"/>
     <use xlink:href="#m9b823024eb" x="409.548743" y="40.249982" style="fill: #4d4d4d; fill-opacity: 0.75"/>
     <use xlink:href="#m9b823024eb" x="432.802438" y="33.930805" style="fill: #4d4d4d; fill-opacity: 0.75"/>
     <use xlink:href="#m9b823024eb" x="456.056134" y="26.150605" style="fill: #4d4d4d; fill-opacity: 0.75"/>
     <use xlink:href="#m9b823024eb" x="479.30983" y="31.853753" style="fill: #4d4d4d; fill-opacity: 0.75"/>
    </g>
   </g>
   <g id="matplotlib.axis_1">
    <g id="xtick_1">
     <g id="line2d_1">
      <defs>
       <path id="mec83560938" d="M 0 0 
L 0 3 
" style="stroke: #000000; stroke-width: 0.8"/>
      </defs>
      <g>
       <use xlink:href="#mec83560938" x="37.489611" y="129.198132" style="stroke: #000000; stroke-width: 0.8"/>
      </g>
     </g>
     <g id="text_1">
      <text style="font-size: 7px; font-family: 'Times New Roman', 'DejaVu Serif'; text-anchor: middle" x="37.489611" y="140.558757" transform="rotate(-0 37.489611 140.558757)">0</text>
     </g>
    </g>
    <g id="xtick_2">
     <g id="line2d_2">
      <g>
       <use xlink:href="#mec83560938" x="100.835886" y="129.198132" style="stroke: #000000; stroke-width: 0.8"/>
      </g>
     </g>
     <g id="text_2">
      <text style="font-size: 7px; font-family: 'Times New Roman', 'DejaVu Serif'; text-anchor: middle" x="100.835886" y="140.558757" transform="rotate(-0 100.835886 140.558757)">8</text>
     </g>
    </g>
    <g id="xtick_3">
     <g id="line2d_3">
      <g>
       <use xlink:href="#mec83560938" x="164.18216" y="129.198132" style="stroke: #000000; stroke-width: 0.8"/>
      </g>
     </g>
     <g id="text_3">
      <text style="font-size: 7px; font-family: 'Times New Roman', 'DejaVu Serif'; text-anchor: middle" x="164.18216" y="140.558757" transform="rotate(-0 164.18216 140.558757)">16</text>
     </g>
    </g>
    <g id="xtick_4">
     <g id="line2d_4">
      <g>
       <use xlink:href="#mec83560938" x="227.528435" y="129.198132" style="stroke: #000000; stroke-width: 0.8"/>
      </g>
     </g>
     <g id="text_4">
      <text style="font-size: 7px; font-family: 'Times New Roman', 'DejaVu Serif'; text-anchor: middle" x="227.528435" y="140.558757" transform="rotate(-0 227.528435 140.558757)">24</text>
     </g>
    </g>
    <g id="xtick_5">
     <g id="line2d_5">
      <g>
       <use xlink:href="#mec83560938" x="290.874709" y="129.198132" style="stroke: #000000; stroke-width: 0.8"/>
      </g>
     </g>
     <g id="text_5">
      <text style="font-size: 7px; font-family: 'Times New Roman', 'DejaVu Serif'; text-anchor: middle" x="290.874709" y="140.558757" transform="rotate(-0 290.874709 140.558757)">32</text>
     </g>
    </g>
    <g id="xtick_6">
     <g id="line2d_6">
      <g>
       <use xlink:href="#mec83560938" x="354.220984" y="129.198132" style="stroke: #000000; stroke-width: 0.8"/>
      </g>
     </g>
     <g id="text_6">
      <text style="font-size: 7px; font-family: 'Times New Roman', 'DejaVu Serif'; text-anchor: middle" x="354.220984" y="140.558757" transform="rotate(-0 354.220984 140.558757)">40</text>
     </g>
    </g>
    <g id="xtick_7">
     <g id="line2d_7">
      <g>
       <use xlink:href="#mec83560938" x="417.567258" y="129.198132" style="stroke: #000000; stroke-width: 0.8"/>
      </g>
     </g>
     <g id="text_7">
      <text style="font-size: 7px; font-family: 'Times New Roman', 'DejaVu Serif'; text-anchor: middle" x="417.567258" y="140.558757" transform="rotate(-0 417.567258 140.558757)">48</text>
     </g>
    </g>
    <g id="xtick_8">
     <g id="line2d_8">
      <g>
       <use xlink:href="#mec83560938" x="480.913533" y="129.198132" style="stroke: #000000; stroke-width: 0.8"/>
      </g>
     </g>
     <g id="text_8">
      <text style="font-size: 7px; font-family: 'Times New Roman', 'DejaVu Serif'; text-anchor: middle" x="480.913533" y="140.558757" transform="rotate(-0 480.913533 140.558757)">56</text>
     </g>
    </g>
    <g id="text_9">
     <text style="font-size: 7.5px; font-family: 'Songti SC', 'Arial Unicode MS'; text-anchor: middle" x="276.621797" y="152.145163" transform="rotate(-0 276.621797 152.145163)">累积成交笔数</text>
    </g>
   </g>
   <g id="matplotlib.axis_2">
    <g id="ytick_1">
     <g id="line2d_9">
      <defs>
       <path id="mbfc37d92ca" d="M 0 0 
L -3 0 
" style="stroke: #000000; stroke-width: 0.8"/>
      </defs>
      <g>
       <use xlink:href="#mbfc37d92ca" x="33.530469" y="126.088791" style="stroke: #000000; stroke-width: 0.8"/>
      </g>
     </g>
     <g id="text_10">
      <text style="font-size: 7px; font-family: 'Times New Roman', 'DejaVu Serif'; text-anchor: end" x="27.030469" y="128.519104" transform="rotate(-0 27.030469 128.519104)">0.0</text>
     </g>
    </g>
    <g id="ytick_2">
     <g id="line2d_10">
      <g>
       <use xlink:href="#mbfc37d92ca" x="33.530469" y="105.359854" style="stroke: #000000; stroke-width: 0.8"/>
      </g>
     </g>
     <g id="text_11">
      <text style="font-size: 7px; font-family: 'Times New Roman', 'DejaVu Serif'; text-anchor: end" x="27.030469" y="107.790167" transform="rotate(-0 27.030469 107.790167)">0.2</text>
     </g>
    </g>
    <g id="ytick_3">
     <g id="line2d_11">
      <g>
       <use xlink:href="#mbfc37d92ca" x="33.530469" y="84.630917" style="stroke: #000000; stroke-width: 0.8"/>
      </g>
     </g>
     <g id="text_12">
      <text style="font-size: 7px; font-family: 'Times New Roman', 'DejaVu Serif'; text-anchor: end" x="27.030469" y="87.06123" transform="rotate(-0 27.030469 87.06123)">0.4</text>
     </g>
    </g>
    <g id="ytick_4">
     <g id="line2d_12">
      <g>
       <use xlink:href="#mbfc37d92ca" x="33.530469" y="63.90198" style="stroke: #000000; stroke-width: 0.8"/>
      </g>
     </g>
     <g id="text_13">
      <text style="font-size: 7px; font-family: 'Times New Roman', 'DejaVu Serif'; text-anchor: end" x="27.030469" y="66.332293" transform="rotate(-0 27.030469 66.332293)">0.6</text>
     </g>
    </g>
    <g id="ytick_5">
     <g id="line2d_13">
      <g>
       <use xlink:href="#mbfc37d92ca" x="33.530469" y="43.173043" style="stroke: #000000; stroke-width: 0.8"/>
      </g>
     </g>
     <g id="text_14">
      <text style="font-size: 7px; font-family: 'Times New Roman', 'DejaVu Serif'; text-anchor: end" x="27.030469" y="45.603356" transform="rotate(-0 27.030469 45.603356)">0.8</text>
     </g>
    </g>
    <g id="ytick_6">
     <g id="line2d_14">
      <g>
       <use xlink:href="#mbfc37d92ca" x="33.530469" y="22.444106" style="stroke: #000000; stroke-width: 0.8"/>
      </g>
     </g>
     <g id="text_15">
      <text style="font-size: 7px; font-family: 'Times New Roman', 'DejaVu Serif'; text-anchor: end" x="27.030469" y="24.874419" transform="rotate(-0 27.030469 24.874419)">1.0</text>
     </g>
    </g>
    <g id="text_16">
     <text style="font-size: 7.5px; font-family: 'Songti SC', 'Arial Unicode MS'; text-anchor: middle" x="13.2375" y="74.266449" transform="rotate(-90 13.2375 74.266449)">YES 价格</text>
    </g>
   </g>
   <g id="line2d_15">
    <path d="M 37.489611 67.529544 
L 61.244464 67.529544 
L 77.081033 69.602438 
L 100.835886 65.974874 
L 100.835886 65.974874 
L 124.590738 66.493097 
L 124.590738 64.420204 
L 124.590738 64.938427 
L 132.509023 63.90198 
L 187.937013 64.420204 
L 211.691866 63.90198 
L 243.365003 63.383757 
L 259.201572 63.383757 
L 275.038141 63.383757 
L 306.711278 63.383757 
L 338.384415 63.383757 
L 362.139268 63.383757 
L 370.057553 63.383757 
L 401.73069 63.383757 
L 425.485543 68.047768 
L 496.750102 72.193555 
" clip-path="url(#pdfb3a92eb1)" style="fill: none; stroke: #0f4d92; stroke-width: 1.5; stroke-linecap: square"/>
    <defs>
     <path id="mb74579ba62" d="M 0 1.4 
C 0.371284 1.4 0.727412 1.252487 0.989949 0.989949 
C 1.252487 0.727412 1.4 0.371284 1.4 0 
C 1.4 -0.371284 1.252487 -0.727412 0.989949 -0.989949 
C 0.727412 -1.252487 0.371284 -1.4 0 -1.4 
C -0.371284 -1.4 -0.727412 -1.252487 -0.989949 -0.989949 
C -1.252487 -0.727412 -1.4 -0.371284 -1.4 0 
C -1.4 0.371284 -1.252487 0.727412 -0.989949 0.989949 
C -0.727412 1.252487 -0.371284 1.4 0 1.4 
z
" style="stroke: #0f4d92"/>
    </defs>
    <g clip-path="url(#pdfb3a92eb1)">
     <use xlink:href="#mb74579ba62" x="37.489611" y="67.529544" style="fill: #0f4d92; stroke: #0f4d92"/>
     <use xlink:href="#mb74579ba62" x="61.244464" y="67.529544" style="fill: #0f4d92; stroke: #0f4d92"/>
     <use xlink:href="#mb74579ba62" x="77.081033" y="69.602438" style="fill: #0f4d92; stroke: #0f4d92"/>
     <use xlink:href="#mb74579ba62" x="100.835886" y="65.974874" style="fill: #0f4d92; stroke: #0f4d92"/>
     <use xlink:href="#mb74579ba62" x="100.835886" y="65.974874" style="fill: #0f4d92; stroke: #0f4d92"/>
     <use xlink:href="#mb74579ba62" x="124.590738" y="66.493097" style="fill: #0f4d92; stroke: #0f4d92"/>
     <use xlink:href="#mb74579ba62" x="124.590738" y="64.420204" style="fill: #0f4d92; stroke: #0f4d92"/>
     <use xlink:href="#mb74579ba62" x="124.590738" y="64.938427" style="fill: #0f4d92; stroke: #0f4d92"/>
     <use xlink:href="#mb74579ba62" x="132.509023" y="63.90198" style="fill: #0f4d92; stroke: #0f4d92"/>
     <use xlink:href="#mb74579ba62" x="187.937013" y="64.420204" style="fill: #0f4d92; stroke: #0f4d92"/>
     <use xlink:href="#mb74579ba62" x="211.691866" y="63.90198" style="fill: #0f4d92; stroke: #0f4d92"/>
     <use xlink:href="#mb74579ba62" x="243.365003" y="63.383757" style="fill: #0f4d92; stroke: #0f4d92"/>
     <use xlink:href="#mb74579ba62" x="259.201572" y="63.383757" style="fill: #0f4d92; stroke: #0f4d92"/>
     <use xlink:href="#mb74579ba62" x="275.038141" y="63.383757" style="fill: #0f4d92; stroke: #0f4d92"/>
     <use xlink:href="#mb74579ba62" x="306.711278" y="63.383757" style="fill: #0f4d92; stroke: #0f4d92"/>
     <use xlink:href="#mb74579ba62" x="338.384415" y="63.383757" style="fill: #0f4d92; stroke: #0f4d92"/>
     <use xlink:href="#mb74579ba62" x="362.139268" y="63.383757" style="fill: #0f4d92; stroke: #0f4d92"/>
     <use xlink:href="#mb74579ba62" x="370.057553" y="63.383757" style="fill: #0f4d92; stroke: #0f4d92"/>
     <use xlink:href="#mb74579ba62" x="401.73069" y="63.383757" style="fill: #0f4d92; stroke: #0f4d92"/>
     <use xlink:href="#mb74579ba62" x="425.485543" y="68.047768" style="fill: #0f4d92; stroke: #0f4d92"/>
     <use xlink:href="#mb74579ba62" x="496.750102" y="72.193555" style="fill: #0f4d92; stroke: #0f4d92"/>
    </g>
   </g>
   <g id="line2d_16">
    <path d="M 37.489611 71.678647 
L 43.303035 71.127174 
L 49.116459 73.735955 
L 54.929883 74.042423 
L 60.743307 82.309652 
L 66.556731 81.226647 
L 72.370155 86.155055 
L 78.183578 86.996025 
L 83.997002 83.980945 
L 89.810426 85.324632 
L 95.62385 81.801238 
L 101.437274 81.947893 
L 107.250698 78.261747 
L 113.064122 75.900949 
L 118.877546 69.631558 
L 124.69097 72.504049 
L 130.504394 66.451963 
L 136.317818 62.417366 
L 142.131242 62.429161 
L 147.944666 62.865542 
L 153.75809 62.75644 
L 159.571514 63.25771 
L 165.384937 63.319135 
L 171.198361 63.188262 
L 177.011785 61.985894 
L 182.825209 61.090095 
L 188.638633 65.23037 
L 194.452057 73.958741 
L 200.265481 73.626255 
L 206.078905 73.068687 
L 211.892329 73.136418 
L 217.705753 70.947359 
L 223.519177 69.637529 
L 229.332601 69.924576 
L 235.146025 69.902462 
L 240.959449 70.008613 
L 246.772873 70.120661 
L 252.586296 69.8322 
L 258.39972 69.847912 
L 264.213144 69.751411 
L 270.026568 71.342381 
L 275.839992 73.541951 
L 281.653416 73.193925 
L 287.46684 71.691826 
L 293.280264 72.837604 
L 299.093688 72.726276 
L 304.907112 68.692045 
L 310.720536 64.23466 
L 316.53396 63.425783 
L 322.347384 62.270667 
L 328.160808 62.735041 
L 333.974232 57.956048 
L 339.787655 61.871595 
L 345.601079 58.947143 
L 351.414503 59.772257 
L 357.227927 53.620818 
L 363.041351 51.145503 
L 368.854775 46.381089 
L 374.668199 46.589388 
L 380.481623 46.555133 
L 386.295047 44.458698 
L 392.108471 46.604948 
L 397.921895 45.638106 
L 403.735319 42.390094 
L 409.548743 40.249982 
L 415.362167 43.540774 
L 421.175591 40.281762 
L 426.989014 37.527136 
L 432.802438 33.930805 
L 438.615862 35.610001 
L 444.429286 31.091452 
L 450.24271 29.368961 
L 456.056134 26.150605 
L 461.869558 25.982664 
L 467.682982 27.29084 
L 473.496406 29.567007 
L 479.30983 31.853753 
L 485.123254 32.244805 
L 490.936678 26.060813 
" clip-path="url(#pdfb3a92eb1)" style="fill: none; stroke: #4d4d4d; stroke-opacity: 0.86; stroke-width: 1.25; stroke-linecap: square"/>
   </g>
   <g id="line2d_17">
    <path d="M 496.750102 129.198132 
L 496.750102 19.334766 
" clip-path="url(#pdfb3a92eb1)" style="fill: none; stroke-dasharray: 5.12,1.28,0.8,1.28; stroke-dashoffset: 0; stroke: #4d4d4d; stroke-opacity: 0.75; stroke-width: 0.8"/>
   </g>
   <g id="line2d_18">
    <path d="M 33.530469 22.444106 
L 519.713126 22.444106 
" clip-path="url(#pdfb3a92eb1)" style="fill: none; stroke-dasharray: 3.33,1.44; stroke-dashoffset: 0; stroke: #b64342; stroke-width: 0.9"/>
   </g>
   <g id="line2d_19">
    <path d="M 33.530469 74.266449 
L 519.713126 74.266449 
" clip-path="url(#pdfb3a92eb1)" style="fill: none; stroke-dasharray: 0.8,1.32; stroke-dashoffset: 0; stroke: #767676; stroke-width: 0.8"/>
   </g>
   <g id="patch_3">
    <path d="M 33.530469 129.198132 
L 33.530469 19.334766 
" style="fill: none; stroke: #000000; stroke-width: 0.8; stroke-linejoin: miter; stroke-linecap: square"/>
   </g>
   <g id="patch_4">
    <path d="M 33.530469 129.198132 
L 519.713126 129.198132 
" style="fill: none; stroke: #000000; stroke-width: 0.8; stroke-linejoin: miter; stroke-linecap: square"/>
   </g>
   <g id="text_17">
    <text style="font-size: 7.5px; font-family: 'Songti SC', 'Arial Unicode MS'; text-anchor: middle" x="276.621797" y="13.334766" transform="rotate(-0 276.621797 13.334766)">2025年底比特币高于10万美元</text>
   </g>
   <g id="legend_1">
    <g id="line2d_20">
     <path d="M 38.490469 103.268569 
L 43.450469 103.268569 
L 48.410469 103.268569 
" style="fill: none; stroke: #0f4d92; stroke-width: 1.5; stroke-linecap: square"/>
     <g>
      <use xlink:href="#mb74579ba62" x="43.450469" y="103.268569" style="fill: #0f4d92; stroke: #0f4d92"/>
     </g>
    </g>
    <g id="text_18">
     <text style="font-size: 6.2px; font-family: 'Songti SC', 'Arial Unicode MS'; text-anchor: start" x="53.370469" y="105.438569" transform="rotate(-0 53.370469 105.438569)">模拟市场价格</text>
    </g>
    <g id="line2d_21">
     <path d="M 38.490469 112.221757 
L 43.450469 112.221757 
L 48.410469 112.221757 
" style="fill: none; stroke: #4d4d4d; stroke-opacity: 0.86; stroke-width: 1.25; stroke-linecap: square"/>
    </g>
    <g id="text_19">
     <text style="font-size: 6.2px; font-family: 'Songti SC', 'Arial Unicode MS'; text-anchor: start" x="53.370469" y="114.391757" transform="rotate(-0 53.370469 114.391757)">真实市场价格</text>
    </g>
    <g id="line2d_22">
     <path d="M 38.490469 121.205944 
L 43.450469 121.205944 
L 48.410469 121.205944 
" style="fill: none; stroke-dasharray: 5.12,1.28,0.8,1.28; stroke-dashoffset: 0; stroke: #4d4d4d; stroke-opacity: 0.75; stroke-width: 0.8"/>
    </g>
    <g id="text_20">
     <text style="font-size: 6.2px; font-family: 'Songti SC', 'Arial Unicode MS'; text-anchor: start" x="53.370469" y="123.375944" transform="rotate(-0 53.370469 123.375944)">事件结束</text>
    </g>
   </g>
  </g>
 </g>
 <defs>
  <clipPath id="pdfb3a92eb1">
   <rect x="33.530469" y="19.334766" width="486.182657" height="109.863366"/>
  </clipPath>
 </defs>
</svg>
