<?xml version="1.0" encoding="utf-8" standalone="no"?>
<!DOCTYPE svg PUBLIC "-//W3C//DTD SVG 1.1//EN"
  "http://www.w3.org/Graphics/SVG/1.1/DTD/svg11.dtd">
<svg xmlns:xlink="http://www.w3.org/1999/xlink" width="527.040157pt" height="160.373132pt" viewBox="0 0 527.040157 160.373132" xmlns="http://www.w3.org/2000/svg" version="1.1">
 <metadata>
  <rdf:RDF xmlns:dc="http://purl.org/dc/elements/1.1/" xmlns:cc="http://creativecommons.org/ns#" xmlns:rdf="http://www.w3.org/1999/02/22-rdf-syntax-ns#">
   <cc:Work>
    <dc:type rdf:resource="http://purl.org/dc/dcmitype/StillImage"/>
    <dc:date>2026-05-29T20:53:17.464676</dc:date>
    <dc:format>image/svg+xml</dc:format>
    <dc:creator>
     <cc:Agent>
      <dc:title>Matplotlib v3.10.9, https://matplotlib.org/</dc:title>
     </cc:Agent>
    </dc:creator>
   </cc:Work>
  </rdf:RDF>
 </metadata>
 <defs>
  <style type="text/css">*{stroke-linejoin: round; stroke-linecap: butt}</style>
 </defs>
 <g id="figure_1">
  <g id="patch_1">
   <path d="M 0 160.373132 
L 527.040157 160.373132 
L 527.040157 0 
L 0 0 
z
" style="fill: #ffffff"/>
  </g>
  <g id="axes_1">
   <g id="patch_2">
    <path d="M 33.575 129.242897 
L 519.840157 129.242897 
L 519.840157 19.357031 
L 33.575 19.357031 
z
" style="fill: #ffffff"/>
   </g>
   <g id="PathCollection_1">
    <defs>
     <path id="m9151bf9c9b" d="M 0 1.414214 
C 0.375054 1.414214 0.734797 1.265203 1 1 
C 1.265203 0.734797 1.414214 0.375054 1.414214 0 
C 1.414214 -0.375054 1.265203 -0.734797 1 -1 
C 0.734797 -1.265203 0.375054 -1.414214 0 -1.414214 
C -0.375054 -1.414214 -0.734797 -1.265203 -1 -1 
C -1.265203 -0.734797 -1.414214 -0.375054 -1.414214 0 
C -1.414214 0.375054 -1.265203 0.734797 -1 1 
C -0.734797 1.265203 -0.375054 1.414214 0 1.414214 
z
"/>
    </defs>
    <g clip-path="url(#p7dbdfcfdbd)">
     <use xlink:href="#m9151bf9c9b" x="55.677962" y="59.561129" style="fill: #4d4d4d; fill-opacity: 0.75"/>
     <use xlink:href="#m9151bf9c9b" x="61.273648" y="54.465597" style="fill: #4d4d4d; fill-opacity: 0.75"/>
     <use xlink:href="#m9151bf9c9b" x="66.869335" y="60.785854" style="fill: #4d4d4d; fill-opacity: 0.75"/>
     <use xlink:href="#m9151bf9c9b" x="72.465021" y="61.621696" style="fill: #4d4d4d; fill-opacity: 0.75"/>
     <use xlink:href="#m9151bf9c9b" x="78.060708" y="60.449498" style="fill: #4d4d4d; fill-opacity: 0.75"/>
     <use xlink:href="#m9151bf9c9b" x="83.656394" y="60.579035" style="fill: #4d4d4d; fill-opacity: 0.75"/>
     <use xlink:href="#m9151bf9c9b" x="89.252081" y="64.61099" style="fill: #4d4d4d; fill-opacity: 0.75"/>
     <use xlink:href="#m9151bf9c9b" x="94.847767" y="62.758071" style="fill: #4d4d4d; fill-opacity: 0.75"/>
     <use xlink:href="#m9151bf9c9b" x="100.443454" y="59.822169" style="fill: #4d4d4d; fill-opacity: 0.75"/>
     <use xlink:href="#m9151bf9c9b" x="106.03914" y="58.537799" style="fill: #4d4d4d; fill-opacity: 0.75"/>
     <use xlink:href="#m9151bf9c9b" x="111.634827" y="36.685873" style="fill: #4d4d4d; fill-opacity: 0.75"/>
     <use xlink:href="#m9151bf9c9b" x="117.230513" y="29.800896" style="fill: #4d4d4d; fill-opacity: 0.75"/>
     <use xlink:href="#m9151bf9c9b" x="122.8262" y="27.86976" style="fill: #4d4d4d; fill-opacity: 0.75"/>
     <use xlink:href="#m9151bf9c9b" x="128.421886" y="27.484073" style="fill: #4d4d4d; fill-opacity: 0.75"/>
     <use xlink:href="#m9151bf9c9b" x="134.017573" y="26.719537" style="fill: #4d4d4d; fill-opacity: 0.75"/>
    </g>
   </g>
   <g id="matplotlib.axis_1">
    <g id="xtick_1">
     <g id="line2d_1">
      <defs>
       <path id="me29bbcc4cb" d="M 0 0 
L 0 3 
" style="stroke: #000000; stroke-width: 0.8"/>
      </defs>
      <g>
       <use xlink:href="#me29bbcc4cb" x="55.677962" y="129.242897" style="stroke: #000000; stroke-width: 0.8"/>
      </g>
     </g>
     <g id="text_1">
      <text style="font-size: 7px; font-family: 'Times New Roman', 'DejaVu Serif'; text-anchor: middle" x="55.677962" y="140.603522" transform="rotate(-0 55.677962 140.603522)">0</text>
     </g>
    </g>
    <g id="xtick_2">
     <g id="line2d_2">
      <g>
       <use xlink:href="#me29bbcc4cb" x="125.476788" y="129.242897" style="stroke: #000000; stroke-width: 0.8"/>
      </g>
     </g>
     <g id="text_2">
      <text style="font-size: 7px; font-family: 'Times New Roman', 'DejaVu Serif'; text-anchor: middle" x="125.476788" y="140.603522" transform="rotate(-0 125.476788 140.603522)">3</text>
     </g>
    </g>
    <g id="xtick_3">
     <g id="line2d_3">
      <g>
       <use xlink:href="#me29bbcc4cb" x="195.275615" y="129.242897" style="stroke: #000000; stroke-width: 0.8"/>
      </g>
     </g>
     <g id="text_3">
      <text style="font-size: 7px; font-family: 'Times New Roman', 'DejaVu Serif'; text-anchor: middle" x="195.275615" y="140.603522" transform="rotate(-0 195.275615 140.603522)">6</text>
     </g>
    </g>
    <g id="xtick_4">
     <g id="line2d_4">
      <g>
       <use xlink:href="#me29bbcc4cb" x="265.074441" y="129.242897" style="stroke: #000000; stroke-width: 0.8"/>
      </g>
     </g>
     <g id="text_4">
      <text style="font-size: 7px; font-family: 'Times New Roman', 'DejaVu Serif'; text-anchor: middle" x="265.074441" y="140.603522" transform="rotate(-0 265.074441 140.603522)">9</text>
     </g>
    </g>
    <g id="xtick_5">
     <g id="line2d_5">
      <g>
       <use xlink:href="#me29bbcc4cb" x="334.873267" y="129.242897" style="stroke: #000000; stroke-width: 0.8"/>
      </g>
     </g>
     <g id="text_5">
      <text style="font-size: 7px; font-family: 'Times New Roman', 'DejaVu Serif'; text-anchor: middle" x="334.873267" y="140.603522" transform="rotate(-0 334.873267 140.603522)">12</text>
     </g>
    </g>
    <g id="xtick_6">
     <g id="line2d_6">
      <g>
       <use xlink:href="#me29bbcc4cb" x="404.672094" y="129.242897" style="stroke: #000000; stroke-width: 0.8"/>
      </g>
     </g>
     <g id="text_6">
      <text style="font-size: 7px; font-family: 'Times New Roman', 'DejaVu Serif'; text-anchor: middle" x="404.672094" y="140.603522" transform="rotate(-0 404.672094 140.603522)">15</text>
     </g>
    </g>
    <g id="xtick_7">
     <g id="line2d_7">
      <g>
       <use xlink:href="#me29bbcc4cb" x="474.47092" y="129.242897" style="stroke: #000000; stroke-width: 0.8"/>
      </g>
     </g>
     <g id="text_7">
      <text style="font-size: 7px; font-family: 'Times New Roman', 'DejaVu Serif'; text-anchor: middle" x="474.47092" y="140.603522" transform="rotate(-0 474.47092 140.603522)">18</text>
     </g>
    </g>
    <g id="text_8">
     <text style="font-size: 7.5px; font-family: 'Songti SC', 'Arial Unicode MS'; text-anchor: middle" x="276.707579" y="152.130163" transform="rotate(-0 276.707579 152.130163)">决策轮次 tick</text>
    </g>
   </g>
   <g id="matplotlib.axis_2">
    <g id="ytick_1">
     <g id="line2d_8">
      <defs>
       <path id="m0af2976f0e" d="M 0 0 
L -3 0 
" style="stroke: #000000; stroke-width: 0.8"/>
      </defs>
      <g>
       <use xlink:href="#m0af2976f0e" x="33.575" y="126.13292" style="stroke: #000000; stroke-width: 0.8"/>
      </g>
     </g>
     <g id="text_9">
      <text style="font-size: 7px; font-family: 'Times New Roman', 'DejaVu Serif'; text-anchor: end" x="27.075" y="128.563233" transform="rotate(-0 27.075 128.563233)">0.0</text>
     </g>
    </g>
    <g id="ytick_2">
     <g id="line2d_9">
      <g>
       <use xlink:href="#m0af2976f0e" x="33.575" y="105.399738" style="stroke: #000000; stroke-width: 0.8"/>
      </g>
     </g>
     <g id="text_10">
      <text style="font-size: 7px; font-family: 'Times New Roman', 'DejaVu Serif'; text-anchor: end" x="27.075" y="107.83005" transform="rotate(-0 27.075 107.83005)">0.2</text>
     </g>
    </g>
    <g id="ytick_3">
     <g id="line2d_10">
      <g>
       <use xlink:href="#m0af2976f0e" x="33.575" y="84.666555" style="stroke: #000000; stroke-width: 0.8"/>
      </g>
     </g>
     <g id="text_11">
      <text style="font-size: 7px; font-family: 'Times New Roman', 'DejaVu Serif'; text-anchor: end" x="27.075" y="87.096868" transform="rotate(-0 27.075 87.096868)">0.4</text>
     </g>
    </g>
    <g id="ytick_4">
     <g id="line2d_11">
      <g>
       <use xlink:href="#m0af2976f0e" x="33.575" y="63.933373" style="stroke: #000000; stroke-width: 0.8"/>
      </g>
     </g>
     <g id="text_12">
      <text style="font-size: 7px; font-family: 'Times New Roman', 'DejaVu Serif'; text-anchor: end" x="27.075" y="66.363686" transform="rotate(-0 27.075 66.363686)">0.6</text>
     </g>
    </g>
    <g id="ytick_5">
     <g id="line2d_12">
      <g>
       <use xlink:href="#m0af2976f0e" x="33.575" y="43.200191" style="stroke: #000000; stroke-width: 0.8"/>
      </g>
     </g>
     <g id="text_13">
      <text style="font-size: 7px; font-family: 'Times New Roman', 'DejaVu Serif'; text-anchor: end" x="27.075" y="45.630503" transform="rotate(-0 27.075 45.630503)">0.8</text>
     </g>
    </g>
    <g id="ytick_6">
     <g id="line2d_13">
      <g>
       <use xlink:href="#m0af2976f0e" x="33.575" y="22.467009" style="stroke: #000000; stroke-width: 0.8"/>
      </g>
     </g>
     <g id="text_14">
      <text style="font-size: 7px; font-family: 'Times New Roman', 'DejaVu Serif'; text-anchor: end" x="27.075" y="24.897321" transform="rotate(-0 27.075 24.897321)">1.0</text>
     </g>
    </g>
    <g id="text_15">
     <text style="font-size: 7.5px; font-family: 'Songti SC', 'Arial Unicode MS'; text-anchor: middle" x="13.282031" y="74.299964" transform="rotate(-90 13.282031 74.299964)">YES 中间价</text>
    </g>
   </g>
   <g id="line2d_14">
    <path d="M 55.677962 55.6401 
L 78.944237 55.6401 
L 102.210513 55.6401 
L 125.476788 52.530123 
L 148.743064 52.530123 
L 172.009339 51.493464 
L 195.275615 51.493464 
L 218.54189 48.383486 
L 241.808166 48.383486 
L 265.074441 44.75518 
L 288.340716 45.273509 
L 311.606992 44.75518 
L 334.873267 45.273509 
L 358.139543 62.378385 
L 381.405818 62.378385 
L 404.672094 63.415044 
L 427.938369 63.933373 
L 451.204645 63.933373 
L 474.47092 63.933373 
L 497.737196 63.933373 
" clip-path="url(#p7dbdfcfdbd)" style="fill: none; stroke: #0f4d92; stroke-width: 1.5; stroke-linecap: square"/>
    <defs>
     <path id="m5800a3d0ef" d="M 0 1.4 
C 0.371284 1.4 0.727412 1.252487 0.989949 0.989949 
C 1.252487 0.727412 1.4 0.371284 1.4 0 
C 1.4 -0.371284 1.252487 -0.727412 0.989949 -0.989949 
C 0.727412 -1.252487 0.371284 -1.4 0 -1.4 
C -0.371284 -1.4 -0.727412 -1.252487 -0.989949 -0.989949 
C -1.252487 -0.727412 -1.4 -0.371284 -1.4 0 
C -1.4 0.371284 -1.252487 0.727412 -0.989949 0.989949 
C -0.727412 1.252487 -0.371284 1.4 0 1.4 
z
" style="stroke: #0f4d92"/>
    </defs>
    <g clip-path="url(#p7dbdfcfdbd)">
     <use xlink:href="#m5800a3d0ef" x="55.677962" y="55.6401" style="fill: #0f4d92; stroke: #0f4d92"/>
     <use xlink:href="#m5800a3d0ef" x="78.944237" y="55.6401" style="fill: #0f4d92; stroke: #0f4d92"/>
     <use xlink:href="#m5800a3d0ef" x="102.210513" y="55.6401" style="fill: #0f4d92; stroke: #0f4d92"/>
     <use xlink:href="#m5800a3d0ef" x="125.476788" y="52.530123" style="fill: #0f4d92; stroke: #0f4d92"/>
     <use xlink:href="#m5800a3d0ef" x="148.743064" y="52.530123" style="fill: #0f4d92; stroke: #0f4d92"/>
     <use xlink:href="#m5800a3d0ef" x="172.009339" y="51.493464" style="fill: #0f4d92; stroke: #0f4d92"/>
     <use xlink:href="#m5800a3d0ef" x="195.275615" y="51.493464" style="fill: #0f4d92; stroke: #0f4d92"/>
     <use xlink:href="#m5800a3d0ef" x="218.54189" y="48.383486" style="fill: #0f4d92; stroke: #0f4d92"/>
     <use xlink:href="#m5800a3d0ef" x="241.808166" y="48.383486" style="fill: #0f4d92; stroke: #0f4d92"/>
     <use xlink:href="#m5800a3d0ef" x="265.074441" y="44.75518" style="fill: #0f4d92; stroke: #0f4d92"/>
     <use xlink:href="#m5800a3d0ef" x="288.340716" y="45.273509" style="fill: #0f4d92; stroke: #0f4d92"/>
     <use xlink:href="#m5800a3d0ef" x="311.606992" y="44.75518" style="fill: #0f4d92; stroke: #0f4d92"/>
     <use xlink:href="#m5800a3d0ef" x="334.873267" y="45.273509" style="fill: #0f4d92; stroke: #0f4d92"/>
     <use xlink:href="#m5800a3d0ef" x="358.139543" y="62.378385" style="fill: #0f4d92; stroke: #0f4d92"/>
     <use xlink:href="#m5800a3d0ef" x="381.405818" y="62.378385" style="fill: #0f4d92; stroke: #0f4d92"/>
     <use xlink:href="#m5800a3d0ef" x="404.672094" y="63.415044" style="fill: #0f4d92; stroke: #0f4d92"/>
     <use xlink:href="#m5800a3d0ef" x="427.938369" y="63.933373" style="fill: #0f4d92; stroke: #0f4d92"/>
     <use xlink:href="#m5800a3d0ef" x="451.204645" y="63.933373" style="fill: #0f4d92; stroke: #0f4d92"/>
     <use xlink:href="#m5800a3d0ef" x="474.47092" y="63.933373" style="fill: #0f4d92; stroke: #0f4d92"/>
     <use xlink:href="#m5800a3d0ef" x="497.737196" y="63.933373" style="fill: #0f4d92; stroke: #0f4d92"/>
    </g>
   </g>
   <g id="line2d_15">
    <path d="M 55.677962 59.561129 
L 61.273648 54.465597 
L 66.869335 60.785854 
L 72.465021 61.621696 
L 78.060708 60.449498 
L 83.656394 60.579035 
L 89.252081 64.61099 
L 94.847767 62.758071 
L 100.443454 59.822169 
L 106.03914 58.537799 
L 111.634827 36.685873 
L 117.230513 29.800896 
L 122.8262 27.86976 
L 128.421886 27.484073 
L 134.017573 26.719537 
" clip-path="url(#p7dbdfcfdbd)" style="fill: none; stroke: #4d4d4d; stroke-opacity: 0.86; stroke-width: 1.25; stroke-linecap: square"/>
   </g>
   <g id="line2d_16">
    <path d="M 139.613259 129.242897 
L 139.613259 19.357031 
" clip-path="url(#p7dbdfcfdbd)" style="fill: none; stroke-dasharray: 5.12,1.28,0.8,1.28; stroke-dashoffset: 0; stroke: #4d4d4d; stroke-opacity: 0.75; stroke-width: 0.8"/>
   </g>
   <g id="line2d_17">
    <path d="M 33.575 22.467009 
L 519.840157 22.467009 
" clip-path="url(#p7dbdfcfdbd)" style="fill: none; stroke-dasharray: 3.33,1.44; stroke-dashoffset: 0; stroke: #b64342; stroke-width: 0.9"/>
   </g>
   <g id="line2d_18">
    <path d="M 33.575 74.299964 
L 519.840157 74.299964 
" clip-path="url(#p7dbdfcfdbd)" style="fill: none; stroke-dasharray: 0.8,1.32; stroke-dashoffset: 0; stroke: #767676; stroke-width: 0.8"/>
   </g>
   <g id="patch_3">
    <path d="M 33.575 129.242897 
L 33.575 19.357031 
" style="fill: none; stroke: #000000; stroke-width: 0.8; stroke-linejoin: miter; stroke-linecap: square"/>
   </g>
   <g id="patch_4">
    <path d="M 33.575 129.242897 
L 519.840157 129.242897 
" style="fill: none; stroke: #000000; stroke-width: 0.8; stroke-linejoin: miter; stroke-linecap: square"/>
   </g>
   <g id="text_16">
    <text style="font-size: 7.5px; font-family: 'Songti SC', 'Arial Unicode MS'; text-anchor: middle" x="276.707579" y="13.357031" transform="rotate(-0 276.707579 13.357031)">特斯拉10月底前推出无监督FSD</text>
   </g>
   <g id="legend_1">
    <g id="line2d_19">
     <path d="M 38.535 103.313335 
L 43.495 103.313335 
L 48.455 103.313335 
" style="fill: none; stroke: #0f4d92; stroke-width: 1.5; stroke-linecap: square"/>
     <g>
      <use xlink:href="#m5800a3d0ef" x="43.495" y="103.313335" style="fill: #0f4d92; stroke: #0f4d92"/>
     </g>
    </g>
    <g id="text_17">
     <text style="font-size: 6.2px; font-family: 'Songti SC', 'Arial Unicode MS'; text-anchor: start" x="53.415" y="105.483335" transform="rotate(-0 53.415 105.483335)">模拟市场价格</text>
    </g>
    <g id="line2d_20">
     <path d="M 38.535 112.266522 
L 43.495 112.266522 
L 48.455 112.266522 
" style="fill: none; stroke: #4d4d4d; stroke-opacity: 0.86; stroke-width: 1.25; stroke-linecap: square"/>
    </g>
    <g id="text_18">
     <text style="font-size: 6.2px; font-family: 'Songti SC', 'Arial Unicode MS'; text-anchor: start" x="53.415" y="114.436522" transform="rotate(-0 53.415 114.436522)">真实市场价格</text>
    </g>
    <g id="line2d_21">
     <path d="M 38.535 121.25071 
L 43.495 121.25071 
L 48.455 121.25071 
" style="fill: none; stroke-dasharray: 5.12,1.28,0.8,1.28; stroke-dashoffset: 0; stroke: #4d4d4d; stroke-opacity: 0.75; stroke-width: 0.8"/>
    </g>
    <g id="text_19">
     <text style="font-size: 6.2px; font-family: 'Songti SC', 'Arial Unicode MS'; text-anchor: start" x="53.415" y="123.42071" transform="rotate(-0 53.415 123.42071)">事件结束</text>
    </g>
   </g>
  </g>
 </g>
 <defs>
  <clipPath id="p7dbdfcfdbd">
   <rect x="33.575" y="19.357031" width="486.265157" height="109.885866"/>
  </clipPath>
 </defs>
</svg>
