<?xml version="1.0" encoding="utf-8" standalone="no"?>
<!DOCTYPE svg PUBLIC "-//W3C//DTD SVG 1.1//EN"
  "http://www.w3.org/Graphics/SVG/1.1/DTD/svg11.dtd">
<svg xmlns:xlink="http://www.w3.org/1999/xlink" width="526.913126pt" height="160.387897pt" viewBox="0 0 526.913126 160.387897" xmlns="http://www.w3.org/2000/svg" version="1.1">
 <metadata>
  <rdf:RDF xmlns:dc="http://purl.org/dc/elements/1.1/" xmlns:cc="http://creativecommons.org/ns#" xmlns:rdf="http://www.w3.org/1999/02/22-rdf-syntax-ns#">
   <cc:Work>
    <dc:type rdf:resource="http://purl.org/dc/dcmitype/StillImage"/>
    <dc:date>2026-05-29T20:53:23.777064</dc:date>
    <dc:format>image/svg+xml</dc:format>
    <dc:creator>
     <cc:Agent>
      <dc:title>Matplotlib v3.10.9, https://matplotlib.org/</dc:title>
     </cc:Agent>
    </dc:creator>
   </cc:Work>
  </rdf:RDF>
 </metadata>
 <defs>
  <style type="text/css">*{stroke-linejoin: round; stroke-linecap: butt}</style>
 </defs>
 <g id="figure_1">
  <g id="patch_1">
   <path d="M 0 160.387897 
L 526.913126 160.387897 
L 526.913126 0 
L 0 0 
z
" style="fill: #ffffff"/>
  </g>
  <g id="axes_1">
   <g id="patch_2">
    <path d="M 33.530469 129.197897 
L 519.713126 129.197897 
L 519.713126 19.319531 
L 33.530469 19.319531 
z
" style="fill: #ffffff"/>
   </g>
   <g id="PathCollection_1">
    <defs>
     <path id="m2cfc36b17b" d="M 0 1.414214 
C 0.375054 1.414214 0.734797 1.265203 1 1 
C 1.265203 0.734797 1.414214 0.375054 1.414214 0 
C 1.414214 -0.375054 1.265203 -0.734797 1 -1 
C 0.734797 -1.265203 0.375054 -1.414214 0 -1.414214 
C -0.375054 -1.414214 -0.734797 -1.265203 -1 -1 
C -1.265203 -0.734797 -1.414214 -0.375054 -1.414214 0 
C -1.414214 0.375054 -1.265203 0.734797 -1 1 
C -0.734797 1.265203 -0.375054 1.414214 0 1.414214 
z
"/>
    </defs>
    <g clip-path="url(#p4cef09f461)">
     <use xlink:href="#m2cfc36b17b" x="36.911433" y="50.575167" style="fill: #4d4d4d; fill-opacity: 0.75"/>
     <use xlink:href="#m2cfc36b17b" x="60.19301" y="51.557429" style="fill: #4d4d4d; fill-opacity: 0.75"/>
     <use xlink:href="#m2cfc36b17b" x="83.474586" y="50.553382" style="fill: #4d4d4d; fill-opacity: 0.75"/>
     <use xlink:href="#m2cfc36b17b" x="106.756163" y="49.864334" style="fill: #4d4d4d; fill-opacity: 0.75"/>
     <use xlink:href="#m2cfc36b17b" x="130.037739" y="50.345694" style="fill: #4d4d4d; fill-opacity: 0.75"/>
     <use xlink:href="#m2cfc36b17b" x="153.319316" y="50.589948" style="fill: #4d4d4d; fill-opacity: 0.75"/>
     <use xlink:href="#m2cfc36b17b" x="176.600892" y="49.559316" style="fill: #4d4d4d; fill-opacity: 0.75"/>
     <use xlink:href="#m2cfc36b17b" x="199.882469" y="49.69157" style="fill: #4d4d4d; fill-opacity: 0.75"/>
     <use xlink:href="#m2cfc36b17b" x="223.164045" y="50.023993" style="fill: #4d4d4d; fill-opacity: 0.75"/>
     <use xlink:href="#m2cfc36b17b" x="246.445622" y="50.037099" style="fill: #4d4d4d; fill-opacity: 0.75"/>
     <use xlink:href="#m2cfc36b17b" x="269.727198" y="54.459568" style="fill: #4d4d4d; fill-opacity: 0.75"/>
     <use xlink:href="#m2cfc36b17b" x="293.008775" y="45.993289" style="fill: #4d4d4d; fill-opacity: 0.75"/>
     <use xlink:href="#m2cfc36b17b" x="316.290351" y="42.665217" style="fill: #4d4d4d; fill-opacity: 0.75"/>
     <use xlink:href="#m2cfc36b17b" x="339.571928" y="41.608761" style="fill: #4d4d4d; fill-opacity: 0.75"/>
     <use xlink:href="#m2cfc36b17b" x="362.853504" y="51.085156" style="fill: #4d4d4d; fill-opacity: 0.75"/>
     <use xlink:href="#m2cfc36b17b" x="386.135081" y="50.712242" style="fill: #4d4d4d; fill-opacity: 0.75"/>
     <use xlink:href="#m2cfc36b17b" x="409.416657" y="42.246187" style="fill: #4d4d4d; fill-opacity: 0.75"/>
     <use xlink:href="#m2cfc36b17b" x="432.698234" y="30.698588" style="fill: #4d4d4d; fill-opacity: 0.75"/>
     <use xlink:href="#m2cfc36b17b" x="455.97981" y="32.2988" style="fill: #4d4d4d; fill-opacity: 0.75"/>
     <use xlink:href="#m2cfc36b17b" x="479.261387" y="26.078159" style="fill: #4d4d4d; fill-opacity: 0.75"/>
    </g>
   </g>
   <g id="matplotlib.axis_1">
    <g id="xtick_1">
     <g id="line2d_1">
      <defs>
       <path id="me98d7e3777" d="M 0 0 
L 0 3 
" style="stroke: #000000; stroke-width: 0.8"/>
      </defs>
      <g>
       <use xlink:href="#me98d7e3777" x="36.911433" y="129.197897" style="stroke: #000000; stroke-width: 0.8"/>
      </g>
     </g>
     <g id="text_1">
      <text style="font-size: 7px; font-family: 'Times New Roman', 'DejaVu Serif'; text-anchor: middle" x="36.911433" y="140.558522" transform="rotate(-0 36.911433 140.558522)">0</text>
     </g>
    </g>
    <g id="xtick_2">
     <g id="line2d_2">
      <g>
       <use xlink:href="#me98d7e3777" x="91.006861" y="129.197897" style="stroke: #000000; stroke-width: 0.8"/>
      </g>
     </g>
     <g id="text_2">
      <text style="font-size: 7px; font-family: 'Times New Roman', 'DejaVu Serif'; text-anchor: middle" x="91.006861" y="140.558522" transform="rotate(-0 91.006861 140.558522)">8</text>
     </g>
    </g>
    <g id="xtick_3">
     <g id="line2d_3">
      <g>
       <use xlink:href="#me98d7e3777" x="145.102289" y="129.197897" style="stroke: #000000; stroke-width: 0.8"/>
      </g>
     </g>
     <g id="text_3">
      <text style="font-size: 7px; font-family: 'Times New Roman', 'DejaVu Serif'; text-anchor: middle" x="145.102289" y="140.558522" transform="rotate(-0 145.102289 140.558522)">16</text>
     </g>
    </g>
    <g id="xtick_4">
     <g id="line2d_4">
      <g>
       <use xlink:href="#me98d7e3777" x="199.197716" y="129.197897" style="stroke: #000000; stroke-width: 0.8"/>
      </g>
     </g>
     <g id="text_4">
      <text style="font-size: 7px; font-family: 'Times New Roman', 'DejaVu Serif'; text-anchor: middle" x="199.197716" y="140.558522" transform="rotate(-0 199.197716 140.558522)">24</text>
     </g>
    </g>
    <g id="xtick_5">
     <g id="line2d_5">
      <g>
       <use xlink:href="#me98d7e3777" x="253.293144" y="129.197897" style="stroke: #000000; stroke-width: 0.8"/>
      </g>
     </g>
     <g id="text_5">
      <text style="font-size: 7px; font-family: 'Times New Roman', 'DejaVu Serif'; text-anchor: middle" x="253.293144" y="140.558522" transform="rotate(-0 253.293144 140.558522)">32</text>
     </g>
    </g>
    <g id="xtick_6">
     <g id="line2d_6">
      <g>
       <use xlink:href="#me98d7e3777" x="307.388572" y="129.197897" style="stroke: #000000; stroke-width: 0.8"/>
      </g>
     </g>
     <g id="text_6">
      <text style="font-size: 7px; font-family: 'Times New Roman', 'DejaVu Serif'; text-anchor: middle" x="307.388572" y="140.558522" transform="rotate(-0 307.388572 140.558522)">40</text>
     </g>
    </g>
    <g id="xtick_7">
     <g id="line2d_7">
      <g>
       <use xlink:href="#me98d7e3777" x="361.484" y="129.197897" style="stroke: #000000; stroke-width: 0.8"/>
      </g>
     </g>
     <g id="text_7">
      <text style="font-size: 7px; font-family: 'Times New Roman', 'DejaVu Serif'; text-anchor: middle" x="361.484" y="140.558522" transform="rotate(-0 361.484 140.558522)">48</text>
     </g>
    </g>
    <g id="xtick_8">
     <g id="line2d_8">
      <g>
       <use xlink:href="#me98d7e3777" x="415.579428" y="129.197897" style="stroke: #000000; stroke-width: 0.8"/>
      </g>
     </g>
     <g id="text_8">
      <text style="font-size: 7px; font-family: 'Times New Roman', 'DejaVu Serif'; text-anchor: middle" x="415.579428" y="140.558522" transform="rotate(-0 415.579428 140.558522)">56</text>
     </g>
    </g>
    <g id="xtick_9">
     <g id="line2d_9">
      <g>
       <use xlink:href="#me98d7e3777" x="469.674856" y="129.197897" style="stroke: #000000; stroke-width: 0.8"/>
      </g>
     </g>
     <g id="text_9">
      <text style="font-size: 7px; font-family: 'Times New Roman', 'DejaVu Serif'; text-anchor: middle" x="469.674856" y="140.558522" transform="rotate(-0 469.674856 140.558522)">64</text>
     </g>
    </g>
    <g id="text_10">
     <text style="font-size: 7.5px; font-family: 'Songti SC', 'Arial Unicode MS'; text-anchor: middle" x="276.621797" y="152.144929" transform="rotate(-0 276.621797 152.144929)">累积成交笔数</text>
    </g>
   </g>
   <g id="matplotlib.axis_2">
    <g id="ytick_1">
     <g id="line2d_10">
      <defs>
       <path id="mb4fb5ba7e2" d="M 0 0 
L -3 0 
" style="stroke: #000000; stroke-width: 0.8"/>
      </defs>
      <g>
       <use xlink:href="#mb4fb5ba7e2" x="33.530469" y="126.088132" style="stroke: #000000; stroke-width: 0.8"/>
      </g>
     </g>
     <g id="text_11">
      <text style="font-size: 7px; font-family: 'Times New Roman', 'DejaVu Serif'; text-anchor: end" x="27.030469" y="128.518445" transform="rotate(-0 27.030469 128.518445)">0.0</text>
     </g>
    </g>
    <g id="ytick_2">
     <g id="line2d_11">
      <g>
       <use xlink:href="#mb4fb5ba7e2" x="33.530469" y="105.356365" style="stroke: #000000; stroke-width: 0.8"/>
      </g>
     </g>
     <g id="text_12">
      <text style="font-size: 7px; font-family: 'Times New Roman', 'DejaVu Serif'; text-anchor: end" x="27.030469" y="107.786678" transform="rotate(-0 27.030469 107.786678)">0.2</text>
     </g>
    </g>
    <g id="ytick_3">
     <g id="line2d_12">
      <g>
       <use xlink:href="#mb4fb5ba7e2" x="33.530469" y="84.624598" style="stroke: #000000; stroke-width: 0.8"/>
      </g>
     </g>
     <g id="text_13">
      <text style="font-size: 7px; font-family: 'Times New Roman', 'DejaVu Serif'; text-anchor: end" x="27.030469" y="87.05491" transform="rotate(-0 27.030469 87.05491)">0.4</text>
     </g>
    </g>
    <g id="ytick_4">
     <g id="line2d_13">
      <g>
       <use xlink:href="#mb4fb5ba7e2" x="33.530469" y="63.892831" style="stroke: #000000; stroke-width: 0.8"/>
      </g>
     </g>
     <g id="text_14">
      <text style="font-size: 7px; font-family: 'Times New Roman', 'DejaVu Serif'; text-anchor: end" x="27.030469" y="66.323143" transform="rotate(-0 27.030469 66.323143)">0.6</text>
     </g>
    </g>
    <g id="ytick_5">
     <g id="line2d_14">
      <g>
       <use xlink:href="#mb4fb5ba7e2" x="33.530469" y="43.161064" style="stroke: #000000; stroke-width: 0.8"/>
      </g>
     </g>
     <g id="text_15">
      <text style="font-size: 7px; font-family: 'Times New Roman', 'DejaVu Serif'; text-anchor: end" x="27.030469" y="45.591376" transform="rotate(-0 27.030469 45.591376)">0.8</text>
     </g>
    </g>
    <g id="ytick_6">
     <g id="line2d_15">
      <g>
       <use xlink:href="#mb4fb5ba7e2" x="33.530469" y="22.429296" style="stroke: #000000; stroke-width: 0.8"/>
      </g>
     </g>
     <g id="text_16">
      <text style="font-size: 7px; font-family: 'Times New Roman', 'DejaVu Serif'; text-anchor: end" x="27.030469" y="24.859609" transform="rotate(-0 27.030469 24.859609)">1.0</text>
     </g>
    </g>
    <g id="text_17">
     <text style="font-size: 7.5px; font-family: 'Songti SC', 'Arial Unicode MS'; text-anchor: middle" x="13.2375" y="74.258714" transform="rotate(-90 13.2375 74.258714)">YES 价格</text>
    </g>
   </g>
   <g id="line2d_16">
    <path d="M 36.911433 48.344005 
L 77.483004 48.344005 
L 77.483004 48.344005 
L 84.244932 46.789123 
L 111.292646 46.789123 
L 124.816503 46.270829 
L 124.816503 46.270829 
L 151.864217 46.270829 
L 192.435788 43.161064 
L 239.769287 42.124475 
L 253.293144 41.606181 
L 293.864715 41.087887 
L 320.912429 41.087887 
L 361.484 39.01471 
L 381.769785 37.459828 
L 408.817499 36.423239 
L 415.579428 36.423239 
L 435.865213 36.423239 
L 449.38907 36.423239 
L 489.960641 35.904945 
L 496.722569 35.904945 
" clip-path="url(#p4cef09f461)" style="fill: none; stroke: #0f4d92; stroke-width: 1.5; stroke-linecap: square"/>
    <defs>
     <path id="ma56ecd16f5" d="M 0 1.4 
C 0.371284 1.4 0.727412 1.252487 0.989949 0.989949 
C 1.252487 0.727412 1.4 0.371284 1.4 0 
C 1.4 -0.371284 1.252487 -0.727412 0.989949 -0.989949 
C 0.727412 -1.252487 0.371284 -1.4 0 -1.4 
C -0.371284 -1.4 -0.727412 -1.252487 -0.989949 -0.989949 
C -1.252487 -0.727412 -1.4 -0.371284 -1.4 0 
C -1.4 0.371284 -1.252487 0.727412 -0.989949 0.989949 
C -0.727412 1.252487 -0.371284 1.4 0 1.4 
z
" style="stroke: #0f4d92"/>
    </defs>
    <g clip-path="url(#p4cef09f461)">
     <use xlink:href="#ma56ecd16f5" x="36.911433" y="48.344005" style="fill: #0f4d92; stroke: #0f4d92"/>
     <use xlink:href="#ma56ecd16f5" x="77.483004" y="48.344005" style="fill: #0f4d92; stroke: #0f4d92"/>
     <use xlink:href="#ma56ecd16f5" x="77.483004" y="48.344005" style="fill: #0f4d92; stroke: #0f4d92"/>
     <use xlink:href="#ma56ecd16f5" x="84.244932" y="46.789123" style="fill: #0f4d92; stroke: #0f4d92"/>
     <use xlink:href="#ma56ecd16f5" x="111.292646" y="46.789123" style="fill: #0f4d92; stroke: #0f4d92"/>
     <use xlink:href="#ma56ecd16f5" x="124.816503" y="46.270829" style="fill: #0f4d92; stroke: #0f4d92"/>
     <use xlink:href="#ma56ecd16f5" x="124.816503" y="46.270829" style="fill: #0f4d92; stroke: #0f4d92"/>
     <use xlink:href="#ma56ecd16f5" x="151.864217" y="46.270829" style="fill: #0f4d92; stroke: #0f4d92"/>
     <use xlink:href="#ma56ecd16f5" x="192.435788" y="43.161064" style="fill: #0f4d92; stroke: #0f4d92"/>
     <use xlink:href="#ma56ecd16f5" x="239.769287" y="42.124475" style="fill: #0f4d92; stroke: #0f4d92"/>
     <use xlink:href="#ma56ecd16f5" x="253.293144" y="41.606181" style="fill: #0f4d92; stroke: #0f4d92"/>
     <use xlink:href="#ma56ecd16f5" x="293.864715" y="41.087887" style="fill: #0f4d92; stroke: #0f4d92"/>
     <use xlink:href="#ma56ecd16f5" x="320.912429" y="41.087887" style="fill: #0f4d92; stroke: #0f4d92"/>
     <use xlink:href="#ma56ecd16f5" x="361.484" y="39.01471" style="fill: #0f4d92; stroke: #0f4d92"/>
     <use xlink:href="#ma56ecd16f5" x="381.769785" y="37.459828" style="fill: #0f4d92; stroke: #0f4d92"/>
     <use xlink:href="#ma56ecd16f5" x="408.817499" y="36.423239" style="fill: #0f4d92; stroke: #0f4d92"/>
     <use xlink:href="#ma56ecd16f5" x="415.579428" y="36.423239" style="fill: #0f4d92; stroke: #0f4d92"/>
     <use xlink:href="#ma56ecd16f5" x="435.865213" y="36.423239" style="fill: #0f4d92; stroke: #0f4d92"/>
     <use xlink:href="#ma56ecd16f5" x="449.38907" y="36.423239" style="fill: #0f4d92; stroke: #0f4d92"/>
     <use xlink:href="#ma56ecd16f5" x="489.960641" y="35.904945" style="fill: #0f4d92; stroke: #0f4d92"/>
     <use xlink:href="#ma56ecd16f5" x="496.722569" y="35.904945" style="fill: #0f4d92; stroke: #0f4d92"/>
    </g>
   </g>
   <g id="line2d_17">
    <path d="M 36.911433 50.575167 
L 42.731827 51.177348 
L 48.552221 50.774628 
L 54.372615 51.086672 
L 60.19301 51.557429 
L 66.013404 51.145541 
L 71.833798 51.09219 
L 77.654192 51.370041 
L 83.474586 50.553382 
L 89.29498 49.865543 
L 95.115374 50.16697 
L 100.935768 50.066839 
L 106.756163 49.864334 
L 112.576557 49.702295 
L 118.396951 49.864333 
L 124.217345 49.86072 
L 130.037739 50.345694 
L 135.858133 50.264091 
L 141.678527 49.845272 
L 147.498921 50.541025 
L 153.319316 50.589948 
L 159.13971 49.523572 
L 164.960104 49.657017 
L 170.780498 49.553358 
L 176.600892 49.559316 
L 182.421286 49.203324 
L 188.24168 49.27336 
L 194.062075 49.518805 
L 199.882469 49.69157 
L 205.702863 50.309949 
L 211.523257 49.956707 
L 217.343651 49.69157 
L 223.164045 50.023993 
L 228.984439 49.760676 
L 234.804833 49.84527 
L 240.625228 49.657017 
L 246.445622 50.037099 
L 252.266016 50.095482 
L 258.08641 50.0371 
L 263.906804 52.229561 
L 269.727198 54.459568 
L 275.547592 55.049797 
L 281.367987 50.498875 
L 287.188381 46.002746 
L 293.008775 45.993289 
L 298.829169 46.435912 
L 304.649563 44.143436 
L 310.469957 43.074602 
L 316.290351 42.665217 
L 322.110745 40.768437 
L 327.93114 35.285844 
L 333.751534 34.286097 
L 339.571928 41.608761 
L 345.392322 45.785676 
L 351.212716 46.382118 
L 357.03311 52.551789 
L 362.853504 51.085156 
L 368.673899 49.655026 
L 374.494293 55.580351 
L 380.314687 63.012049 
L 386.135081 50.712242 
L 391.955475 48.838796 
L 397.775869 44.957817 
L 403.596263 45.768005 
L 409.416657 42.246187 
L 415.237052 34.486694 
L 421.057446 34.229712 
L 426.87784 32.18788 
L 432.698234 30.698588 
L 438.518628 33.799489 
L 444.339022 32.721224 
L 450.159416 35.683018 
L 455.97981 32.2988 
L 461.800205 27.299617 
L 467.620599 25.459211 
L 473.440993 25.954319 
L 479.261387 26.078159 
" clip-path="url(#p4cef09f461)" style="fill: none; stroke: #4d4d4d; stroke-opacity: 0.86; stroke-width: 1.25; stroke-linecap: square"/>
   </g>
   <g id="line2d_18">
    <path d="M 485.081781 129.197897 
L 485.081781 19.319531 
" clip-path="url(#p4cef09f461)" style="fill: none; stroke-dasharray: 5.12,1.28,0.8,1.28; stroke-dashoffset: 0; stroke: #4d4d4d; stroke-opacity: 0.75; stroke-width: 0.8"/>
   </g>
   <g id="line2d_19">
    <path d="M 33.530469 22.429296 
L 519.713126 22.429296 
" clip-path="url(#p4cef09f461)" style="fill: none; stroke-dasharray: 3.33,1.44; stroke-dashoffset: 0; stroke: #8bcf8b; stroke-width: 0.9"/>
   </g>
   <g id="line2d_20">
    <path d="M 33.530469 74.258714 
L 519.713126 74.258714 
" clip-path="url(#p4cef09f461)" style="fill: none; stroke-dasharray: 0.8,1.32; stroke-dashoffset: 0; stroke: #767676; stroke-width: 0.8"/>
   </g>
   <g id="patch_3">
    <path d="M 33.530469 129.197897 
L 33.530469 19.319531 
" style="fill: none; stroke: #000000; stroke-width: 0.8; stroke-linejoin: miter; stroke-linecap: square"/>
   </g>
   <g id="patch_4">
    <path d="M 33.530469 129.197897 
L 519.713126 129.197897 
" style="fill: none; stroke: #000000; stroke-width: 0.8; stroke-linejoin: miter; stroke-linecap: square"/>
   </g>
   <g id="text_18">
    <text style="font-size: 7.5px; font-family: 'Songti SC', 'Arial Unicode MS'; text-anchor: middle" x="276.621797" y="13.319531" transform="rotate(-0 276.621797 13.319531)">NFL酋长对巨人比赛结果</text>
   </g>
   <g id="legend_1">
    <g id="line2d_21">
     <path d="M 38.490469 103.268335 
L 43.450469 103.268335 
L 48.410469 103.268335 
" style="fill: none; stroke: #0f4d92; stroke-width: 1.5; stroke-linecap: square"/>
     <g>
      <use xlink:href="#ma56ecd16f5" x="43.450469" y="103.268335" style="fill: #0f4d92; stroke: #0f4d92"/>
     </g>
    </g>
    <g id="text_19">
     <text style="font-size: 6.2px; font-family: 'Songti SC', 'Arial Unicode MS'; text-anchor: start" x="53.370469" y="105.438335" transform="rotate(-0 53.370469 105.438335)">模拟市场价格</text>
    </g>
    <g id="line2d_22">
     <path d="M 38.490469 112.221522 
L 43.450469 112.221522 
L 48.410469 112.221522 
" style="fill: none; stroke: #4d4d4d; stroke-opacity: 0.86; stroke-width: 1.25; stroke-linecap: square"/>
    </g>
    <g id="text_20">
     <text style="font-size: 6.2px; font-family: 'Songti SC', 'Arial Unicode MS'; text-anchor: start" x="53.370469" y="114.391522" transform="rotate(-0 53.370469 114.391522)">真实市场价格</text>
    </g>
    <g id="line2d_23">
     <path d="M 38.490469 121.20571 
L 43.450469 121.20571 
L 48.410469 121.20571 
" style="fill: none; stroke-dasharray: 5.12,1.28,0.8,1.28; stroke-dashoffset: 0; stroke: #4d4d4d; stroke-opacity: 0.75; stroke-width: 0.8"/>
    </g>
    <g id="text_21">
     <text style="font-size: 6.2px; font-family: 'Songti SC', 'Arial Unicode MS'; text-anchor: start" x="53.370469" y="123.37571" transform="rotate(-0 53.370469 123.37571)">事件结束</text>
    </g>
   </g>
  </g>
 </g>
 <defs>
  <clipPath id="p4cef09f461">
   <rect x="33.530469" y="19.319531" width="486.182657" height="109.878366"/>
  </clipPath>
 </defs>
</svg>
