<?xml version="1.0" encoding="utf-8" standalone="no"?>
<!DOCTYPE svg PUBLIC "-//W3C//DTD SVG 1.1//EN"
  "http://www.w3.org/Graphics/SVG/1.1/DTD/svg11.dtd">
<svg xmlns:xlink="http://www.w3.org/1999/xlink" width="533.650396pt" height="290.876801pt" viewBox="0 0 533.650396 290.876801" xmlns="http://www.w3.org/2000/svg" version="1.1">
 <metadata>
  <rdf:RDF xmlns:dc="http://purl.org/dc/elements/1.1/" xmlns:cc="http://creativecommons.org/ns#" xmlns:rdf="http://www.w3.org/1999/02/22-rdf-syntax-ns#">
   <cc:Work>
    <dc:type rdf:resource="http://purl.org/dc/dcmitype/StillImage"/>
    <dc:date>2026-05-29T20:53:31.965904</dc:date>
    <dc:format>image/svg+xml</dc:format>
    <dc:creator>
     <cc:Agent>
      <dc:title>Matplotlib v3.10.9, https://matplotlib.org/</dc:title>
     </cc:Agent>
    </dc:creator>
   </cc:Work>
  </rdf:RDF>
 </metadata>
 <defs>
  <style type="text/css">*{stroke-linejoin: round; stroke-linecap: butt}</style>
 </defs>
 <g id="figure_1">
  <g id="patch_1">
   <path d="M 0 290.876801 
L 533.650396 290.876801 
L 533.650396 0 
L 0 0 
z
" style="fill: #ffffff"/>
  </g>
  <g id="axes_1">
   <g id="patch_2">
    <path d="M 78.550221 119.465767 
L 524.489104 119.465767 
L 524.489104 20.055364 
L 78.550221 20.055364 
z
" style="fill: #ffffff"/>
   </g>
   <g id="matplotlib.axis_1">
    <g id="xtick_1">
     <g id="line2d_1">
      <defs>
       <path id="m5dab030d33" d="M 0 0 
L 0 3 
" style="stroke: #000000; stroke-width: 0.8"/>
      </defs>
      <g>
       <use xlink:href="#m5dab030d33" x="94.392484" y="119.465767" style="stroke: #000000; stroke-width: 0.8"/>
      </g>
     </g>
     <g id="text_1">
      <text style="font-size: 7px; font-family: 'Times New Roman', 'DejaVu Serif'; text-anchor: middle" x="94.392484" y="130.826392" transform="rotate(-0 94.392484 130.826392)">0</text>
     </g>
    </g>
    <g id="xtick_2">
     <g id="line2d_2">
      <g>
       <use xlink:href="#m5dab030d33" x="147.524723" y="119.465767" style="stroke: #000000; stroke-width: 0.8"/>
      </g>
     </g>
     <g id="text_2">
      <text style="font-size: 7px; font-family: 'Times New Roman', 'DejaVu Serif'; text-anchor: middle" x="147.524723" y="130.826392" transform="rotate(-0 147.524723 130.826392)">300</text>
     </g>
    </g>
    <g id="xtick_3">
     <g id="line2d_3">
      <g>
       <use xlink:href="#m5dab030d33" x="200.656962" y="119.465767" style="stroke: #000000; stroke-width: 0.8"/>
      </g>
     </g>
     <g id="text_3">
      <text style="font-size: 7px; font-family: 'Times New Roman', 'DejaVu Serif'; text-anchor: middle" x="200.656962" y="130.826392" transform="rotate(-0 200.656962 130.826392)">600</text>
     </g>
    </g>
    <g id="xtick_4">
     <g id="line2d_4">
      <g>
       <use xlink:href="#m5dab030d33" x="253.789201" y="119.465767" style="stroke: #000000; stroke-width: 0.8"/>
      </g>
     </g>
     <g id="text_4">
      <text style="font-size: 7px; font-family: 'Times New Roman', 'DejaVu Serif'; text-anchor: middle" x="253.789201" y="130.826392" transform="rotate(-0 253.789201 130.826392)">900</text>
     </g>
    </g>
    <g id="xtick_5">
     <g id="line2d_5">
      <g>
       <use xlink:href="#m5dab030d33" x="306.92144" y="119.465767" style="stroke: #000000; stroke-width: 0.8"/>
      </g>
     </g>
     <g id="text_5">
      <text style="font-size: 7px; font-family: 'Times New Roman', 'DejaVu Serif'; text-anchor: middle" x="306.92144" y="130.826392" transform="rotate(-0 306.92144 130.826392)">1200</text>
     </g>
    </g>
    <g id="xtick_6">
     <g id="line2d_6">
      <g>
       <use xlink:href="#m5dab030d33" x="360.053679" y="119.465767" style="stroke: #000000; stroke-width: 0.8"/>
      </g>
     </g>
     <g id="text_6">
      <text style="font-size: 7px; font-family: 'Times New Roman', 'DejaVu Serif'; text-anchor: middle" x="360.053679" y="130.826392" transform="rotate(-0 360.053679 130.826392)">1500</text>
     </g>
    </g>
    <g id="xtick_7">
     <g id="line2d_7">
      <g>
       <use xlink:href="#m5dab030d33" x="413.185918" y="119.465767" style="stroke: #000000; stroke-width: 0.8"/>
      </g>
     </g>
     <g id="text_7">
      <text style="font-size: 7px; font-family: 'Times New Roman', 'DejaVu Serif'; text-anchor: middle" x="413.185918" y="130.826392" transform="rotate(-0 413.185918 130.826392)">1800</text>
     </g>
    </g>
    <g id="xtick_8">
     <g id="line2d_8">
      <g>
       <use xlink:href="#m5dab030d33" x="466.318157" y="119.465767" style="stroke: #000000; stroke-width: 0.8"/>
      </g>
     </g>
     <g id="text_8">
      <text style="font-size: 7px; font-family: 'Times New Roman', 'DejaVu Serif'; text-anchor: middle" x="466.318157" y="130.826392" transform="rotate(-0 466.318157 130.826392)">2100</text>
     </g>
    </g>
    <g id="xtick_9">
     <g id="line2d_9">
      <g>
       <use xlink:href="#m5dab030d33" x="519.450396" y="119.465767" style="stroke: #000000; stroke-width: 0.8"/>
      </g>
     </g>
     <g id="text_9">
      <text style="font-size: 7px; font-family: 'Times New Roman', 'DejaVu Serif'; text-anchor: middle" x="519.450396" y="130.826392" transform="rotate(-0 519.450396 130.826392)">2400</text>
     </g>
    </g>
    <g id="text_10">
     <text style="font-size: 7.5px; font-family: 'Songti SC', 'Arial Unicode MS'; text-anchor: middle" x="301.519662" y="142.412799" transform="rotate(-0 301.519662 142.412799)">真实累积成交笔数</text>
    </g>
   </g>
   <g id="matplotlib.axis_2">
    <g id="ytick_1">
     <g id="line2d_10">
      <defs>
       <path id="m787e99c47b" d="M 0 0 
L -3 0 
" style="stroke: #000000; stroke-width: 0.8"/>
      </defs>
      <g>
       <use xlink:href="#m787e99c47b" x="78.550221" y="116.652265" style="stroke: #000000; stroke-width: 0.8"/>
      </g>
     </g>
     <g id="text_11">
      <text style="font-size: 7px; font-family: 'Times New Roman', 'DejaVu Serif'; text-anchor: end" x="72.050221" y="119.082578" transform="rotate(-0 72.050221 119.082578)">0.0</text>
     </g>
    </g>
    <g id="ytick_2">
     <g id="line2d_11">
      <g>
       <use xlink:href="#m787e99c47b" x="78.550221" y="97.895586" style="stroke: #000000; stroke-width: 0.8"/>
      </g>
     </g>
     <g id="text_12">
      <text style="font-size: 7px; font-family: 'Times New Roman', 'DejaVu Serif'; text-anchor: end" x="72.050221" y="100.325898" transform="rotate(-0 72.050221 100.325898)">0.2</text>
     </g>
    </g>
    <g id="ytick_3">
     <g id="line2d_12">
      <g>
       <use xlink:href="#m787e99c47b" x="78.550221" y="79.138906" style="stroke: #000000; stroke-width: 0.8"/>
      </g>
     </g>
     <g id="text_13">
      <text style="font-size: 7px; font-family: 'Times New Roman', 'DejaVu Serif'; text-anchor: end" x="72.050221" y="81.569218" transform="rotate(-0 72.050221 81.569218)">0.4</text>
     </g>
    </g>
    <g id="ytick_4">
     <g id="line2d_13">
      <g>
       <use xlink:href="#m787e99c47b" x="78.550221" y="60.382226" style="stroke: #000000; stroke-width: 0.8"/>
      </g>
     </g>
     <g id="text_14">
      <text style="font-size: 7px; font-family: 'Times New Roman', 'DejaVu Serif'; text-anchor: end" x="72.050221" y="62.812538" transform="rotate(-0 72.050221 62.812538)">0.6</text>
     </g>
    </g>
    <g id="ytick_5">
     <g id="line2d_14">
      <g>
       <use xlink:href="#m787e99c47b" x="78.550221" y="41.625546" style="stroke: #000000; stroke-width: 0.8"/>
      </g>
     </g>
     <g id="text_15">
      <text style="font-size: 7px; font-family: 'Times New Roman', 'DejaVu Serif'; text-anchor: end" x="72.050221" y="44.055858" transform="rotate(-0 72.050221 44.055858)">0.8</text>
     </g>
    </g>
    <g id="ytick_6">
     <g id="line2d_15">
      <g>
       <use xlink:href="#m787e99c47b" x="78.550221" y="22.868866" style="stroke: #000000; stroke-width: 0.8"/>
      </g>
     </g>
     <g id="text_16">
      <text style="font-size: 7px; font-family: 'Times New Roman', 'DejaVu Serif'; text-anchor: end" x="72.050221" y="25.299178" transform="rotate(-0 72.050221 25.299178)">1.0</text>
     </g>
    </g>
    <g id="text_17">
     <text style="font-size: 7.5px; font-family: 'Songti SC', 'Arial Unicode MS'; text-anchor: middle" x="58.257252" y="69.760566" transform="rotate(-90 58.257252 69.760566)">YES 价格</text>
    </g>
   </g>
   <g id="line2d_16">
    <path d="M 98.82017 68.600245 
L 103.247857 64.706182 
L 107.675544 62.667034 
L 112.10323 60.518689 
L 116.530917 61.900338 
L 120.958603 63.735752 
L 125.38629 67.795257 
L 129.813977 66.315905 
L 134.064556 59.066213 
L 138.492242 48.649836 
L 142.919929 40.775483 
L 147.347615 36.185326 
L 151.775302 35.613418 
L 156.202989 48.677522 
L 160.630675 56.537161 
L 165.058362 53.476016 
L 169.308941 53.644045 
L 173.736627 56.3775 
L 178.164314 58.589315 
L 182.592001 59.931286 
L 187.019687 59.368679 
L 191.447374 61.696414 
L 195.87506 67.671788 
L 200.302747 64.347731 
L 204.553326 70.105764 
L 208.981013 71.550252 
L 213.408699 81.773623 
L 217.836386 86.123537 
L 222.264072 90.827893 
L 226.691759 84.725407 
L 231.119446 81.854925 
L 235.547132 79.925673 
L 239.797711 84.058926 
L 244.225398 86.897713 
L 248.653085 96.023695 
L 253.080771 104.533096 
L 257.508458 103.737565 
L 261.936144 103.30243 
L 266.363831 104.230164 
L 270.791517 106.193541 
L 275.042097 102.858837 
L 279.469783 103.263421 
L 283.89747 101.84576 
L 288.325156 103.311134 
L 292.752843 103.199122 
L 297.18053 105.298114 
L 301.608216 104.548479 
L 306.035903 104.501819 
L 310.286482 99.138216 
L 314.714168 100.134393 
L 319.141855 100.150469 
L 323.569542 95.083489 
L 327.997228 98.674503 
L 332.424915 96.953151 
L 336.852601 96.49254 
L 341.280288 90.944518 
L 345.530867 92.35083 
L 349.958554 91.988003 
L 354.38624 91.404411 
L 358.813927 88.325816 
L 363.241613 93.719508 
L 367.6693 92.786265 
L 372.096987 95.296614 
L 376.524673 94.289905 
L 380.775252 92.428795 
L 385.202939 93.392993 
L 389.630626 92.20733 
L 394.058312 92.404757 
L 398.485999 93.341026 
L 402.913685 93.342781 
L 407.341372 96.062879 
L 411.769058 98.688918 
L 416.019638 103.500222 
L 420.447324 106.02156 
L 424.875011 108.443057 
L 429.302697 106.844887 
L 433.730384 104.203572 
L 438.158071 101.687732 
L 442.585757 101.05073 
L 447.013444 103.524853 
L 451.264023 103.586347 
L 455.691709 105.506934 
L 460.119396 109.609434 
L 464.547083 111.381401 
L 468.974769 111.804171 
L 473.402456 113.083474 
L 477.830142 112.488926 
L 482.257829 112.990176 
L 486.508408 113.720735 
L 490.936095 115.138427 
L 495.363781 115.398722 
L 499.791468 114.902564 
L 504.219154 115.60079 
" clip-path="url(#p115937e550)" style="fill: none; stroke: #4d4d4d; stroke-width: 1.25; stroke-linecap: square"/>
   </g>
   <g id="line2d_17">
    <path d="M 508.646841 119.465767 
L 508.646841 20.055364 
" clip-path="url(#p115937e550)" style="fill: none; stroke-dasharray: 5.12,1.28,0.8,1.28; stroke-dashoffset: 0; stroke: #4d4d4d; stroke-opacity: 0.75; stroke-width: 0.8"/>
   </g>
   <g id="line2d_18">
    <path d="M 78.550221 116.652265 
L 524.489104 116.652265 
" clip-path="url(#p115937e550)" style="fill: none; stroke-dasharray: 2.96,1.28; stroke-dashoffset: 0; stroke: #4d4d4d; stroke-width: 0.8"/>
   </g>
   <g id="line2d_19">
    <path d="M 78.550221 69.760566 
L 524.489104 69.760566 
" clip-path="url(#p115937e550)" style="fill: none; stroke-dasharray: 0.8,1.32; stroke-dashoffset: 0; stroke: #767676; stroke-width: 0.8"/>
   </g>
   <g id="patch_3">
    <path d="M 78.550221 119.465767 
L 78.550221 20.055364 
" style="fill: none; stroke: #000000; stroke-width: 0.8; stroke-linejoin: miter; stroke-linecap: square"/>
   </g>
   <g id="patch_4">
    <path d="M 78.550221 119.465767 
L 524.489104 119.465767 
" style="fill: none; stroke: #000000; stroke-width: 0.8; stroke-linejoin: miter; stroke-linecap: square"/>
   </g>
   <g id="text_18">
    <text style="font-weight: 700; font-size: 9px; font-family: 'Times New Roman', 'DejaVu Serif'; text-anchor: start" x="7.2" y="13.159687" transform="rotate(-0 7.2 13.159687)">a</text>
   </g>
   <g id="text_19">
    <text style="font-size: 7.5px; font-family: 'Songti SC', 'Arial Unicode MS'; text-anchor: middle" x="301.519662" y="14.055364" transform="rotate(-0 301.519662 14.055364)">以太坊 5000 美元</text>
   </g>
   <g id="legend_1">
    <g id="line2d_20">
     <path d="M 83.510221 27.836364 
L 88.470221 27.836364 
L 93.430221 27.836364 
" style="fill: none; stroke: #4d4d4d; stroke-width: 1.25; stroke-linecap: square"/>
    </g>
    <g id="text_20">
     <text style="font-size: 6.2px; font-family: 'Songti SC', 'Arial Unicode MS'; text-anchor: start" x="98.390221" y="30.006364" transform="rotate(-0 98.390221 30.006364)">真实市场价格</text>
    </g>
    <g id="line2d_21">
     <path d="M 83.510221 36.820551 
L 88.470221 36.820551 
L 93.430221 36.820551 
" style="fill: none; stroke-dasharray: 5.12,1.28,0.8,1.28; stroke-dashoffset: 0; stroke: #4d4d4d; stroke-opacity: 0.75; stroke-width: 0.8"/>
    </g>
    <g id="text_21">
     <text style="font-size: 6.2px; font-family: 'Songti SC', 'Arial Unicode MS'; text-anchor: start" x="98.390221" y="38.990551" transform="rotate(-0 98.390221 38.990551)">事件结束</text>
    </g>
   </g>
  </g>
  <g id="axes_2">
   <g id="patch_5">
    <path d="M 78.550221 259.686801 
L 524.489104 259.686801 
L 524.489104 160.276397 
L 78.550221 160.276397 
z
" style="fill: #ffffff"/>
   </g>
   <g id="matplotlib.axis_3">
    <g id="xtick_10">
     <g id="line2d_22">
      <g>
       <use xlink:href="#m5dab030d33" x="98.82017" y="259.686801" style="stroke: #000000; stroke-width: 0.8"/>
      </g>
     </g>
     <g id="text_22">
      <text style="font-size: 7px; font-family: 'Times New Roman', 'DejaVu Serif'; text-anchor: middle" x="98.82017" y="271.047426" transform="rotate(-0 98.82017 271.047426)">0</text>
     </g>
    </g>
    <g id="xtick_11">
     <g id="line2d_23">
      <g>
       <use xlink:href="#m5dab030d33" x="143.566195" y="259.686801" style="stroke: #000000; stroke-width: 0.8"/>
      </g>
     </g>
     <g id="text_23">
      <text style="font-size: 7px; font-family: 'Times New Roman', 'DejaVu Serif'; text-anchor: middle" x="143.566195" y="271.047426" transform="rotate(-0 143.566195 271.047426)">50</text>
     </g>
    </g>
    <g id="xtick_12">
     <g id="line2d_24">
      <g>
       <use xlink:href="#m5dab030d33" x="188.31222" y="259.686801" style="stroke: #000000; stroke-width: 0.8"/>
      </g>
     </g>
     <g id="text_24">
      <text style="font-size: 7px; font-family: 'Times New Roman', 'DejaVu Serif'; text-anchor: middle" x="188.31222" y="271.047426" transform="rotate(-0 188.31222 271.047426)">100</text>
     </g>
    </g>
    <g id="xtick_13">
     <g id="line2d_25">
      <g>
       <use xlink:href="#m5dab030d33" x="233.058245" y="259.686801" style="stroke: #000000; stroke-width: 0.8"/>
      </g>
     </g>
     <g id="text_25">
      <text style="font-size: 7px; font-family: 'Times New Roman', 'DejaVu Serif'; text-anchor: middle" x="233.058245" y="271.047426" transform="rotate(-0 233.058245 271.047426)">150</text>
     </g>
    </g>
    <g id="xtick_14">
     <g id="line2d_26">
      <g>
       <use xlink:href="#m5dab030d33" x="277.804269" y="259.686801" style="stroke: #000000; stroke-width: 0.8"/>
      </g>
     </g>
     <g id="text_26">
      <text style="font-size: 7px; font-family: 'Times New Roman', 'DejaVu Serif'; text-anchor: middle" x="277.804269" y="271.047426" transform="rotate(-0 277.804269 271.047426)">200</text>
     </g>
    </g>
    <g id="xtick_15">
     <g id="line2d_27">
      <g>
       <use xlink:href="#m5dab030d33" x="322.550294" y="259.686801" style="stroke: #000000; stroke-width: 0.8"/>
      </g>
     </g>
     <g id="text_27">
      <text style="font-size: 7px; font-family: 'Times New Roman', 'DejaVu Serif'; text-anchor: middle" x="322.550294" y="271.047426" transform="rotate(-0 322.550294 271.047426)">250</text>
     </g>
    </g>
    <g id="xtick_16">
     <g id="line2d_28">
      <g>
       <use xlink:href="#m5dab030d33" x="367.296319" y="259.686801" style="stroke: #000000; stroke-width: 0.8"/>
      </g>
     </g>
     <g id="text_28">
      <text style="font-size: 7px; font-family: 'Times New Roman', 'DejaVu Serif'; text-anchor: middle" x="367.296319" y="271.047426" transform="rotate(-0 367.296319 271.047426)">300</text>
     </g>
    </g>
    <g id="xtick_17">
     <g id="line2d_29">
      <g>
       <use xlink:href="#m5dab030d33" x="412.042343" y="259.686801" style="stroke: #000000; stroke-width: 0.8"/>
      </g>
     </g>
     <g id="text_29">
      <text style="font-size: 7px; font-family: 'Times New Roman', 'DejaVu Serif'; text-anchor: middle" x="412.042343" y="271.047426" transform="rotate(-0 412.042343 271.047426)">350</text>
     </g>
    </g>
    <g id="xtick_18">
     <g id="line2d_30">
      <g>
       <use xlink:href="#m5dab030d33" x="456.788368" y="259.686801" style="stroke: #000000; stroke-width: 0.8"/>
      </g>
     </g>
     <g id="text_30">
      <text style="font-size: 7px; font-family: 'Times New Roman', 'DejaVu Serif'; text-anchor: middle" x="456.788368" y="271.047426" transform="rotate(-0 456.788368 271.047426)">400</text>
     </g>
    </g>
    <g id="xtick_19">
     <g id="line2d_31">
      <g>
       <use xlink:href="#m5dab030d33" x="501.534393" y="259.686801" style="stroke: #000000; stroke-width: 0.8"/>
      </g>
     </g>
     <g id="text_31">
      <text style="font-size: 7px; font-family: 'Times New Roman', 'DejaVu Serif'; text-anchor: middle" x="501.534393" y="271.047426" transform="rotate(-0 501.534393 271.047426)">450</text>
     </g>
    </g>
    <g id="text_32">
     <text style="font-size: 7.5px; font-family: 'Songti SC', 'Arial Unicode MS'; text-anchor: middle" x="301.519662" y="282.633832" transform="rotate(-0 301.519662 282.633832)">模拟累积成交笔数</text>
    </g>
   </g>
   <g id="matplotlib.axis_4">
    <g id="ytick_7">
     <g id="line2d_32">
      <g>
       <use xlink:href="#m787e99c47b" x="78.550221" y="256.873299" style="stroke: #000000; stroke-width: 0.8"/>
      </g>
     </g>
     <g id="text_33">
      <text style="font-size: 7px; font-family: 'Times New Roman', 'DejaVu Serif'; text-anchor: end" x="72.050221" y="259.303611" transform="rotate(-0 72.050221 259.303611)">0.0</text>
     </g>
    </g>
    <g id="ytick_8">
     <g id="line2d_33">
      <g>
       <use xlink:href="#m787e99c47b" x="78.550221" y="238.116619" style="stroke: #000000; stroke-width: 0.8"/>
      </g>
     </g>
     <g id="text_34">
      <text style="font-size: 7px; font-family: 'Times New Roman', 'DejaVu Serif'; text-anchor: end" x="72.050221" y="240.546932" transform="rotate(-0 72.050221 240.546932)">0.2</text>
     </g>
    </g>
    <g id="ytick_9">
     <g id="line2d_34">
      <g>
       <use xlink:href="#m787e99c47b" x="78.550221" y="219.359939" style="stroke: #000000; stroke-width: 0.8"/>
      </g>
     </g>
     <g id="text_35">
      <text style="font-size: 7px; font-family: 'Times New Roman', 'DejaVu Serif'; text-anchor: end" x="72.050221" y="221.790252" transform="rotate(-0 72.050221 221.790252)">0.4</text>
     </g>
    </g>
    <g id="ytick_10">
     <g id="line2d_35">
      <g>
       <use xlink:href="#m787e99c47b" x="78.550221" y="200.603259" style="stroke: #000000; stroke-width: 0.8"/>
      </g>
     </g>
     <g id="text_36">
      <text style="font-size: 7px; font-family: 'Times New Roman', 'DejaVu Serif'; text-anchor: end" x="72.050221" y="203.033572" transform="rotate(-0 72.050221 203.033572)">0.6</text>
     </g>
    </g>
    <g id="ytick_11">
     <g id="line2d_36">
      <g>
       <use xlink:href="#m787e99c47b" x="78.550221" y="181.846579" style="stroke: #000000; stroke-width: 0.8"/>
      </g>
     </g>
     <g id="text_37">
      <text style="font-size: 7px; font-family: 'Times New Roman', 'DejaVu Serif'; text-anchor: end" x="72.050221" y="184.276892" transform="rotate(-0 72.050221 184.276892)">0.8</text>
     </g>
    </g>
    <g id="ytick_12">
     <g id="line2d_37">
      <g>
       <use xlink:href="#m787e99c47b" x="78.550221" y="163.089899" style="stroke: #000000; stroke-width: 0.8"/>
      </g>
     </g>
     <g id="text_38">
      <text style="font-size: 7px; font-family: 'Times New Roman', 'DejaVu Serif'; text-anchor: end" x="72.050221" y="165.520212" transform="rotate(-0 72.050221 165.520212)">1.0</text>
     </g>
    </g>
    <g id="text_39">
     <text style="font-size: 7.5px; font-family: 'Songti SC', 'Arial Unicode MS'; text-anchor: middle" x="58.257252" y="209.981599" transform="rotate(-90 58.257252 209.981599)">YES 价格</text>
    </g>
   </g>
   <g id="line2d_38">
    <path d="M 98.82017 202.947844 
L 100.610011 202.947844 
L 101.504932 202.478927 
L 102.399852 202.478927 
L 104.189693 202.478927 
L 104.189693 202.01001 
L 105.084614 203.885678 
L 108.664296 204.354595 
L 108.664296 205.292429 
L 108.664296 205.761346 
L 109.559216 206.69918 
L 110.454137 206.69918 
L 112.243978 206.69918 
L 112.243978 204.354595 
L 112.243978 205.761346 
L 112.243978 204.354595 
L 114.033819 204.354595 
L 116.71858 207.637014 
L 118.508421 207.637014 
L 121.193183 208.105931 
L 121.193183 208.105931 
" clip-path="url(#pc6b1bb4597)" style="fill: none; stroke: #0f4d92; stroke-linecap: square"/>
   </g>
   <g id="line2d_39">
    <path d="M 98.82017 202.947844 
L 102.399852 202.947844 
L 102.399852 202.478927 
L 106.874455 203.416761 
L 107.769375 202.947844 
L 108.664296 204.354595 
L 111.349057 205.761346 
L 114.928739 206.230263 
L 117.613501 206.69918 
L 122.088103 207.637014 
L 125.667785 209.981599 
L 131.037308 211.857267 
L 132.827149 211.857267 
L 134.61699 211.857267 
L 134.61699 211.857267 
L 135.511911 219.828856 
L 136.406831 224.049109 
L 136.406831 224.049109 
L 138.196672 224.049109 
L 139.986513 224.049109 
L 139.986513 224.049109 
" clip-path="url(#pc6b1bb4597)" style="fill: none; stroke: #8bcf8b; stroke-linecap: square"/>
   </g>
   <g id="line2d_40">
    <path d="M 98.82017 199.665425 
L 105.084614 199.665425 
L 110.454137 202.947844 
L 111.349057 204.354595 
L 121.193183 202.01001 
L 125.667785 202.01001 
L 139.986513 202.01001 
L 141.776354 202.01001 
L 148.040798 202.01001 
L 154.305241 202.01001 
L 165.044287 203.416761 
L 181.152856 203.885678 
L 192.786822 205.292429 
L 205.315709 205.761346 
L 217.844596 205.761346 
L 235.743006 206.69918 
L 247.376972 208.105931 
L 253.641416 208.105931 
L 258.116018 208.105931 
L 260.80078 208.105931 
L 269.749985 234.365283 
" clip-path="url(#pc6b1bb4597)" style="fill: none; stroke: #d4a93b; stroke-linecap: square"/>
   </g>
   <g id="line2d_41">
    <path d="M 98.82017 201.072176 
L 107.769375 201.072176 
L 112.243978 202.01001 
L 114.928739 202.01001 
L 141.776354 202.01001 
L 167.729048 202.01001 
L 177.573174 202.01001 
L 201.736027 202.01001 
L 224.10904 201.541093 
L 250.956654 201.541093 
L 267.960144 201.072176 
L 282.278872 201.072176 
L 310.021407 201.072176 
L 336.869022 201.072176 
L 353.872511 201.072176 
L 389.669331 201.072176 
L 421.886469 201.072176 
L 441.57472 202.478927 
L 462.157891 203.416761 
L 482.741063 205.292429 
L 504.219154 217.484271 
" clip-path="url(#pc6b1bb4597)" style="fill: none; stroke: #b64342; stroke-linecap: square"/>
   </g>
   <g id="line2d_42">
    <path d="M 78.550221 256.873299 
L 524.489104 256.873299 
" clip-path="url(#pc6b1bb4597)" style="fill: none; stroke-dasharray: 2.96,1.28; stroke-dashoffset: 0; stroke: #4d4d4d; stroke-width: 0.8"/>
   </g>
   <g id="line2d_43">
    <path d="M 78.550221 209.981599 
L 524.489104 209.981599 
" clip-path="url(#pc6b1bb4597)" style="fill: none; stroke-dasharray: 0.8,1.32; stroke-dashoffset: 0; stroke: #767676; stroke-width: 0.8"/>
   </g>
   <g id="patch_6">
    <path d="M 78.550221 259.686801 
L 78.550221 160.276397 
" style="fill: none; stroke: #000000; stroke-width: 0.8; stroke-linejoin: miter; stroke-linecap: square"/>
   </g>
   <g id="patch_7">
    <path d="M 78.550221 259.686801 
L 524.489104 259.686801 
" style="fill: none; stroke: #000000; stroke-width: 0.8; stroke-linejoin: miter; stroke-linecap: square"/>
   </g>
   <g id="text_40">
    <text style="font-weight: 700; font-size: 9px; font-family: 'Times New Roman', 'DejaVu Serif'; text-anchor: start" x="7.2" y="153.380721" transform="rotate(-0 7.2 153.380721)">b</text>
   </g>
   <g id="legend_2">
    <g id="line2d_44">
     <path d="M 488.752885 167.406397 
L 493.712885 167.406397 
L 498.672885 167.406397 
" style="fill: none; stroke: #0f4d92; stroke-linecap: square"/>
    </g>
    <g id="text_41">
     <text style="font-size: 6.2px; font-family: 'Times New Roman', 'DejaVu Serif'; text-anchor: start" x="503.632885" y="169.576397" transform="rotate(-0 503.632885 169.576397)">n=10</text>
    </g>
    <g id="line2d_45">
     <path d="M 488.752885 176.172616 
L 493.712885 176.172616 
L 498.672885 176.172616 
" style="fill: none; stroke: #8bcf8b; stroke-linecap: square"/>
    </g>
    <g id="text_42">
     <text style="font-size: 6.2px; font-family: 'Times New Roman', 'DejaVu Serif'; text-anchor: start" x="503.632885" y="178.342616" transform="rotate(-0 503.632885 178.342616)">n=20</text>
    </g>
    <g id="line2d_46">
     <path d="M 488.752885 184.938835 
L 493.712885 184.938835 
L 498.672885 184.938835 
" style="fill: none; stroke: #d4a93b; stroke-linecap: square"/>
    </g>
    <g id="text_43">
     <text style="font-size: 6.2px; font-family: 'Times New Roman', 'DejaVu Serif'; text-anchor: start" x="503.632885" y="187.108835" transform="rotate(-0 503.632885 187.108835)">n=50</text>
    </g>
    <g id="line2d_47">
     <path d="M 488.752885 193.705054 
L 493.712885 193.705054 
L 498.672885 193.705054 
" style="fill: none; stroke: #b64342; stroke-linecap: square"/>
    </g>
    <g id="text_44">
     <text style="font-size: 6.2px; font-family: 'Times New Roman', 'DejaVu Serif'; text-anchor: start" x="503.632885" y="195.875054" transform="rotate(-0 503.632885 195.875054)">n=100</text>
    </g>
   </g>
  </g>
 </g>
 <defs>
  <clipPath id="p115937e550">
   <rect x="78.550221" y="20.055364" width="445.938882" height="99.410404"/>
  </clipPath>
  <clipPath id="pc6b1bb4597">
   <rect x="78.550221" y="160.276397" width="445.938882" height="99.410404"/>
  </clipPath>
 </defs>
</svg>
