<?xml version="1.0" encoding="utf-8" standalone="no"?>
<!DOCTYPE svg PUBLIC "-//W3C//DTD SVG 1.1//EN"
  "http://www.w3.org/Graphics/SVG/1.1/DTD/svg11.dtd">
<svg xmlns:xlink="http://www.w3.org/1999/xlink" width="534.562998pt" height="279.4631pt" viewBox="0 0 534.562998 279.4631" xmlns="http://www.w3.org/2000/svg" version="1.1">
 <metadata>
  <rdf:RDF xmlns:dc="http://purl.org/dc/elements/1.1/" xmlns:cc="http://creativecommons.org/ns#" xmlns:rdf="http://www.w3.org/1999/02/22-rdf-syntax-ns#">
   <cc:Work>
    <dc:type rdf:resource="http://purl.org/dc/dcmitype/StillImage"/>
    <dc:date>2026-05-29T20:53:27.000177</dc:date>
    <dc:format>image/svg+xml</dc:format>
    <dc:creator>
     <cc:Agent>
      <dc:title>Matplotlib v3.10.9, https://matplotlib.org/</dc:title>
     </cc:Agent>
    </dc:creator>
   </cc:Work>
  </rdf:RDF>
 </metadata>
 <defs>
  <style type="text/css">*{stroke-linejoin: round; stroke-linecap: butt}</style>
 </defs>
 <g id="figure_1">
  <g id="patch_1">
   <path d="M 0 279.4631 
L 534.562998 279.4631 
L 534.562998 0 
L 0 0 
z
" style="fill: #ffffff"/>
  </g>
  <g id="axes_1">
   <g id="patch_2">
    <path d="M 78.94662 113.721358 
L 527.362998 113.721358 
L 527.362998 19.781821 
L 78.94662 19.781821 
z
" style="fill: #ffffff"/>
   </g>
   <g id="PathCollection_1">
    <defs>
     <path id="ma776d0a29a" d="M 0 1.414214 
C 0.375054 1.414214 0.734797 1.265203 1 1 
C 1.265203 0.734797 1.414214 0.375054 1.414214 0 
C 1.414214 -0.375054 1.265203 -0.734797 1 -1 
C 0.734797 -1.265203 0.375054 -1.414214 0 -1.414214 
C -0.375054 -1.414214 -0.734797 -1.265203 -1 -1 
C -1.265203 -0.734797 -1.414214 -0.375054 -1.414214 0 
C -1.414214 0.375054 -1.265203 0.734797 -1 1 
C -0.734797 1.265203 -0.375054 1.414214 0 1.414214 
z
"/>
    </defs>
    <g clip-path="url(#pba9a2e5f10)">
     <use xlink:href="#ma776d0a29a" x="99.329183" y="89.373195" style="fill: #4d4d4d; fill-opacity: 0.75"/>
     <use xlink:href="#ma776d0a29a" x="118.558016" y="84.088983" style="fill: #4d4d4d; fill-opacity: 0.75"/>
     <use xlink:href="#ma776d0a29a" x="137.786848" y="88.729896" style="fill: #4d4d4d; fill-opacity: 0.75"/>
     <use xlink:href="#ma776d0a29a" x="157.015681" y="98.659091" style="fill: #4d4d4d; fill-opacity: 0.75"/>
     <use xlink:href="#ma776d0a29a" x="176.244514" y="98.265645" style="fill: #4d4d4d; fill-opacity: 0.75"/>
     <use xlink:href="#ma776d0a29a" x="195.473346" y="99.784679" style="fill: #4d4d4d; fill-opacity: 0.75"/>
     <use xlink:href="#ma776d0a29a" x="214.702179" y="93.674196" style="fill: #4d4d4d; fill-opacity: 0.75"/>
     <use xlink:href="#ma776d0a29a" x="233.931012" y="94.394258" style="fill: #4d4d4d; fill-opacity: 0.75"/>
     <use xlink:href="#ma776d0a29a" x="253.159844" y="94.719664" style="fill: #4d4d4d; fill-opacity: 0.75"/>
     <use xlink:href="#ma776d0a29a" x="272.388677" y="89.970607" style="fill: #4d4d4d; fill-opacity: 0.75"/>
     <use xlink:href="#ma776d0a29a" x="291.61751" y="94.029238" style="fill: #4d4d4d; fill-opacity: 0.75"/>
     <use xlink:href="#ma776d0a29a" x="310.846343" y="91.353114" style="fill: #4d4d4d; fill-opacity: 0.75"/>
     <use xlink:href="#ma776d0a29a" x="330.075175" y="98.848587" style="fill: #4d4d4d; fill-opacity: 0.75"/>
     <use xlink:href="#ma776d0a29a" x="349.304008" y="102.081874" style="fill: #4d4d4d; fill-opacity: 0.75"/>
     <use xlink:href="#ma776d0a29a" x="368.532841" y="103.33885" style="fill: #4d4d4d; fill-opacity: 0.75"/>
     <use xlink:href="#ma776d0a29a" x="387.761673" y="100.85323" style="fill: #4d4d4d; fill-opacity: 0.75"/>
     <use xlink:href="#ma776d0a29a" x="406.990506" y="102.767653" style="fill: #4d4d4d; fill-opacity: 0.75"/>
     <use xlink:href="#ma776d0a29a" x="426.219339" y="106.919448" style="fill: #4d4d4d; fill-opacity: 0.75"/>
     <use xlink:href="#ma776d0a29a" x="445.448171" y="108.272909" style="fill: #4d4d4d; fill-opacity: 0.75"/>
     <use xlink:href="#ma776d0a29a" x="464.677004" y="108.333673" style="fill: #4d4d4d; fill-opacity: 0.75"/>
     <use xlink:href="#ma776d0a29a" x="483.905837" y="110.059017" style="fill: #4d4d4d; fill-opacity: 0.75"/>
     <use xlink:href="#ma776d0a29a" x="503.134669" y="110.376072" style="fill: #4d4d4d; fill-opacity: 0.75"/>
    </g>
   </g>
   <g id="matplotlib.axis_1">
    <g id="xtick_1">
     <g id="line2d_1">
      <defs>
       <path id="m7b00034f88" d="M 0 0 
L 0 3 
" style="stroke: #000000; stroke-width: 0.8"/>
      </defs>
      <g>
       <use xlink:href="#m7b00034f88" x="95.483417" y="113.721358" style="stroke: #000000; stroke-width: 0.8"/>
      </g>
     </g>
     <g id="text_1">
      <text style="font-size: 7px; font-family: 'Times New Roman', 'DejaVu Serif'; text-anchor: middle" x="95.483417" y="125.081983" transform="rotate(-0 95.483417 125.081983)">0</text>
     </g>
    </g>
    <g id="xtick_2">
     <g id="line2d_2">
      <g>
       <use xlink:href="#m7b00034f88" x="141.632615" y="113.721358" style="stroke: #000000; stroke-width: 0.8"/>
      </g>
     </g>
     <g id="text_2">
      <text style="font-size: 7px; font-family: 'Times New Roman', 'DejaVu Serif'; text-anchor: middle" x="141.632615" y="125.081983" transform="rotate(-0 141.632615 125.081983)">300</text>
     </g>
    </g>
    <g id="xtick_3">
     <g id="line2d_3">
      <g>
       <use xlink:href="#m7b00034f88" x="187.781813" y="113.721358" style="stroke: #000000; stroke-width: 0.8"/>
      </g>
     </g>
     <g id="text_3">
      <text style="font-size: 7px; font-family: 'Times New Roman', 'DejaVu Serif'; text-anchor: middle" x="187.781813" y="125.081983" transform="rotate(-0 187.781813 125.081983)">600</text>
     </g>
    </g>
    <g id="xtick_4">
     <g id="line2d_4">
      <g>
       <use xlink:href="#m7b00034f88" x="233.931012" y="113.721358" style="stroke: #000000; stroke-width: 0.8"/>
      </g>
     </g>
     <g id="text_4">
      <text style="font-size: 7px; font-family: 'Times New Roman', 'DejaVu Serif'; text-anchor: middle" x="233.931012" y="125.081983" transform="rotate(-0 233.931012 125.081983)">900</text>
     </g>
    </g>
    <g id="xtick_5">
     <g id="line2d_5">
      <g>
       <use xlink:href="#m7b00034f88" x="280.08021" y="113.721358" style="stroke: #000000; stroke-width: 0.8"/>
      </g>
     </g>
     <g id="text_5">
      <text style="font-size: 7px; font-family: 'Times New Roman', 'DejaVu Serif'; text-anchor: middle" x="280.08021" y="125.081983" transform="rotate(-0 280.08021 125.081983)">1200</text>
     </g>
    </g>
    <g id="xtick_6">
     <g id="line2d_6">
      <g>
       <use xlink:href="#m7b00034f88" x="326.229409" y="113.721358" style="stroke: #000000; stroke-width: 0.8"/>
      </g>
     </g>
     <g id="text_6">
      <text style="font-size: 7px; font-family: 'Times New Roman', 'DejaVu Serif'; text-anchor: middle" x="326.229409" y="125.081983" transform="rotate(-0 326.229409 125.081983)">1500</text>
     </g>
    </g>
    <g id="xtick_7">
     <g id="line2d_7">
      <g>
       <use xlink:href="#m7b00034f88" x="372.378607" y="113.721358" style="stroke: #000000; stroke-width: 0.8"/>
      </g>
     </g>
     <g id="text_7">
      <text style="font-size: 7px; font-family: 'Times New Roman', 'DejaVu Serif'; text-anchor: middle" x="372.378607" y="125.081983" transform="rotate(-0 372.378607 125.081983)">1800</text>
     </g>
    </g>
    <g id="xtick_8">
     <g id="line2d_8">
      <g>
       <use xlink:href="#m7b00034f88" x="418.527805" y="113.721358" style="stroke: #000000; stroke-width: 0.8"/>
      </g>
     </g>
     <g id="text_8">
      <text style="font-size: 7px; font-family: 'Times New Roman', 'DejaVu Serif'; text-anchor: middle" x="418.527805" y="125.081983" transform="rotate(-0 418.527805 125.081983)">2100</text>
     </g>
    </g>
    <g id="xtick_9">
     <g id="line2d_9">
      <g>
       <use xlink:href="#m7b00034f88" x="464.677004" y="113.721358" style="stroke: #000000; stroke-width: 0.8"/>
      </g>
     </g>
     <g id="text_9">
      <text style="font-size: 7px; font-family: 'Times New Roman', 'DejaVu Serif'; text-anchor: middle" x="464.677004" y="125.081983" transform="rotate(-0 464.677004 125.081983)">2400</text>
     </g>
    </g>
    <g id="xtick_10">
     <g id="line2d_10">
      <g>
       <use xlink:href="#m7b00034f88" x="510.826202" y="113.721358" style="stroke: #000000; stroke-width: 0.8"/>
      </g>
     </g>
     <g id="text_10">
      <text style="font-size: 7px; font-family: 'Times New Roman', 'DejaVu Serif'; text-anchor: middle" x="510.826202" y="125.081983" transform="rotate(-0 510.826202 125.081983)">2700</text>
     </g>
    </g>
    <g id="text_11">
     <text style="font-size: 7.5px; font-family: 'Songti SC', 'Arial Unicode MS'; text-anchor: middle" x="303.154809" y="136.668389" transform="rotate(-0 303.154809 136.668389)">真实累积成交笔数</text>
    </g>
   </g>
   <g id="matplotlib.axis_2">
    <g id="ytick_1">
     <g id="line2d_11">
      <defs>
       <path id="m72963c8acc" d="M 0 0 
L -3 0 
" style="stroke: #000000; stroke-width: 0.8"/>
      </defs>
      <g>
       <use xlink:href="#m72963c8acc" x="78.94662" y="111.062692" style="stroke: #000000; stroke-width: 0.8"/>
      </g>
     </g>
     <g id="text_12">
      <text style="font-size: 7px; font-family: 'Times New Roman', 'DejaVu Serif'; text-anchor: end" x="72.44662" y="113.493004" transform="rotate(-0 72.44662 113.493004)">0.0</text>
     </g>
    </g>
    <g id="ytick_2">
     <g id="line2d_12">
      <g>
       <use xlink:href="#m72963c8acc" x="78.94662" y="93.338251" style="stroke: #000000; stroke-width: 0.8"/>
      </g>
     </g>
     <g id="text_13">
      <text style="font-size: 7px; font-family: 'Times New Roman', 'DejaVu Serif'; text-anchor: end" x="72.44662" y="95.768563" transform="rotate(-0 72.44662 95.768563)">0.2</text>
     </g>
    </g>
    <g id="ytick_3">
     <g id="line2d_13">
      <g>
       <use xlink:href="#m72963c8acc" x="78.94662" y="75.61381" style="stroke: #000000; stroke-width: 0.8"/>
      </g>
     </g>
     <g id="text_14">
      <text style="font-size: 7px; font-family: 'Times New Roman', 'DejaVu Serif'; text-anchor: end" x="72.44662" y="78.044122" transform="rotate(-0 72.44662 78.044122)">0.4</text>
     </g>
    </g>
    <g id="ytick_4">
     <g id="line2d_14">
      <g>
       <use xlink:href="#m72963c8acc" x="78.94662" y="57.889369" style="stroke: #000000; stroke-width: 0.8"/>
      </g>
     </g>
     <g id="text_15">
      <text style="font-size: 7px; font-family: 'Times New Roman', 'DejaVu Serif'; text-anchor: end" x="72.44662" y="60.319681" transform="rotate(-0 72.44662 60.319681)">0.6</text>
     </g>
    </g>
    <g id="ytick_5">
     <g id="line2d_15">
      <g>
       <use xlink:href="#m72963c8acc" x="78.94662" y="40.164928" style="stroke: #000000; stroke-width: 0.8"/>
      </g>
     </g>
     <g id="text_16">
      <text style="font-size: 7px; font-family: 'Times New Roman', 'DejaVu Serif'; text-anchor: end" x="72.44662" y="42.59524" transform="rotate(-0 72.44662 42.59524)">0.8</text>
     </g>
    </g>
    <g id="ytick_6">
     <g id="line2d_16">
      <g>
       <use xlink:href="#m72963c8acc" x="78.94662" y="22.440487" style="stroke: #000000; stroke-width: 0.8"/>
      </g>
     </g>
     <g id="text_17">
      <text style="font-size: 7px; font-family: 'Times New Roman', 'DejaVu Serif'; text-anchor: end" x="72.44662" y="24.870799" transform="rotate(-0 72.44662 24.870799)">1.0</text>
     </g>
    </g>
    <g id="text_18">
     <text style="font-size: 7.5px; font-family: 'Songti SC', 'Arial Unicode MS'; text-anchor: middle" x="58.653652" y="66.751589" transform="rotate(-90 58.653652 66.751589)">YES 价格</text>
    </g>
   </g>
   <g id="line2d_17">
    <path d="M 99.329183 89.373195 
L 103.17495 88.878881 
L 107.020716 89.452119 
L 110.866483 89.549207 
L 114.712249 90.338733 
L 118.558016 84.088983 
L 122.403782 82.774485 
L 126.249549 85.468889 
L 130.095315 86.124521 
L 133.941082 86.167981 
L 137.786848 88.729896 
L 141.632615 89.714009 
L 145.478382 92.64002 
L 149.324148 94.884092 
L 153.169915 99.295276 
L 157.015681 98.659091 
L 160.861448 98.574822 
L 164.707214 99.311616 
L 168.552981 101.282698 
L 172.398747 99.453686 
L 176.244514 98.265645 
L 180.09028 98.882098 
L 183.936047 99.267178 
L 187.781813 99.873015 
L 191.62758 100.17089 
L 195.473346 99.784679 
L 199.319113 98.658028 
L 203.16488 98.194538 
L 207.010646 97.311594 
L 210.856413 94.089036 
L 214.702179 93.674196 
L 218.547946 93.331567 
L 222.393712 94.86579 
L 226.239479 96.970738 
L 230.085245 94.933448 
L 233.931012 94.394258 
L 237.776778 94.313758 
L 241.622545 95.696421 
L 245.468311 96.649512 
L 249.314078 96.634997 
L 253.159844 94.719664 
L 257.005611 95.907761 
L 260.851378 97.044212 
L 264.697144 96.847823 
L 268.542911 94.273255 
L 272.388677 89.970607 
L 276.234444 87.774198 
L 280.08021 89.164398 
L 283.925977 90.450372 
L 287.771743 93.244521 
L 291.61751 94.029238 
L 295.463276 95.364319 
L 299.309043 90.763322 
L 303.154809 90.684959 
L 307.000576 91.520076 
L 310.846343 91.353114 
L 314.692109 93.292519 
L 318.537876 94.374569 
L 322.383642 96.918589 
L 326.229409 98.051745 
L 330.075175 98.848587 
L 333.920942 97.804809 
L 337.766708 98.761928 
L 341.612475 99.240296 
L 345.458241 101.137005 
L 349.304008 102.081874 
L 353.149774 101.571409 
L 356.995541 102.377716 
L 360.841307 103.325478 
L 364.687074 102.377716 
L 368.532841 103.33885 
L 372.378607 103.051245 
L 376.224374 102.803102 
L 380.07014 103.68607 
L 383.915907 102.247377 
L 387.761673 100.85323 
L 391.60744 101.291637 
L 395.453206 102.661305 
L 399.298973 102.814798 
L 403.144739 102.484062 
L 406.990506 102.767653 
L 410.836272 105.135936 
L 414.682039 106.530615 
L 418.527805 107.191624 
L 422.373572 107.917202 
L 426.219339 106.919448 
L 430.065105 107.819015 
L 433.910872 107.875905 
L 437.756638 107.106515 
L 441.602405 107.647715 
L 445.448171 108.272909 
L 449.293938 108.289962 
L 453.139704 108.274232 
L 456.985471 108.238787 
L 460.831237 108.571771 
L 464.677004 108.333673 
L 468.52277 108.324267 
L 472.368537 108.295612 
L 476.214304 109.124238 
L 480.06007 109.609752 
L 483.905837 110.059017 
L 487.751603 110.219959 
L 491.59737 110.46007 
L 495.443136 110.067541 
L 499.288903 110.366154 
L 503.134669 110.376072 
L 506.980436 110.109588 
" clip-path="url(#pba9a2e5f10)" style="fill: none; stroke: #4d4d4d; stroke-width: 1.25; stroke-linecap: square"/>
   </g>
   <g id="line2d_18">
    <path d="M 510.826202 113.721358 
L 510.826202 19.781821 
" clip-path="url(#pba9a2e5f10)" style="fill: none; stroke-dasharray: 5.12,1.28,0.8,1.28; stroke-dashoffset: 0; stroke: #4d4d4d; stroke-opacity: 0.75; stroke-width: 0.8"/>
   </g>
   <g id="line2d_19">
    <path d="M 78.94662 111.062692 
L 527.362998 111.062692 
" clip-path="url(#pba9a2e5f10)" style="fill: none; stroke-dasharray: 3.33,1.44; stroke-dashoffset: 0; stroke: #8bcf8b; stroke-width: 0.9"/>
   </g>
   <g id="line2d_20">
    <path d="M 78.94662 66.751589 
L 527.362998 66.751589 
" clip-path="url(#pba9a2e5f10)" style="fill: none; stroke-dasharray: 0.8,1.32; stroke-dashoffset: 0; stroke: #767676; stroke-width: 0.8"/>
   </g>
   <g id="patch_3">
    <path d="M 78.94662 113.721358 
L 78.94662 19.781821 
" style="fill: none; stroke: #000000; stroke-width: 0.8; stroke-linejoin: miter; stroke-linecap: square"/>
   </g>
   <g id="patch_4">
    <path d="M 78.94662 113.721358 
L 527.362998 113.721358 
" style="fill: none; stroke: #000000; stroke-width: 0.8; stroke-linejoin: miter; stroke-linecap: square"/>
   </g>
   <g id="text_19">
    <text style="font-weight: 700; font-size: 9px; font-family: 'Times New Roman', 'DejaVu Serif'; text-anchor: start" x="7.2" y="13.159688" transform="rotate(-0 7.2 13.159688)">a</text>
   </g>
   <g id="text_20">
    <text style="font-size: 7.5px; font-family: 'Songti SC', 'Arial Unicode MS'; text-anchor: middle" x="303.154809" y="13.781821" transform="rotate(-0 303.154809 13.781821)">比特币7月触及12.5万美元</text>
   </g>
   <g id="legend_1">
    <g id="line2d_21">
     <path d="M 83.90662 27.562821 
L 88.86662 27.562821 
L 93.82662 27.562821 
" style="fill: none; stroke: #4d4d4d; stroke-width: 1.25; stroke-linecap: square"/>
    </g>
    <g id="text_21">
     <text style="font-size: 6.2px; font-family: 'Songti SC', 'Arial Unicode MS'; text-anchor: start" x="98.78662" y="29.732821" transform="rotate(-0 98.78662 29.732821)">真实市场价格</text>
    </g>
    <g id="line2d_22">
     <path d="M 83.90662 36.547008 
L 88.86662 36.547008 
L 93.82662 36.547008 
" style="fill: none; stroke-dasharray: 5.12,1.28,0.8,1.28; stroke-dashoffset: 0; stroke: #4d4d4d; stroke-opacity: 0.75; stroke-width: 0.8"/>
    </g>
    <g id="text_22">
     <text style="font-size: 6.2px; font-family: 'Songti SC', 'Arial Unicode MS'; text-anchor: start" x="98.78662" y="38.717008" transform="rotate(-0 98.78662 38.717008)">事件结束</text>
    </g>
   </g>
  </g>
  <g id="axes_2">
   <g id="patch_5">
    <path d="M 78.94662 248.2731 
L 527.362998 248.2731 
L 527.362998 154.333563 
L 78.94662 154.333563 
z
" style="fill: #ffffff"/>
   </g>
   <g id="matplotlib.axis_3">
    <g id="xtick_11">
     <g id="line2d_23">
      <g>
       <use xlink:href="#m7b00034f88" x="99.329183" y="248.2731" style="stroke: #000000; stroke-width: 0.8"/>
      </g>
     </g>
     <g id="text_23">
      <text style="font-size: 7px; font-family: 'Times New Roman', 'DejaVu Serif'; text-anchor: middle" x="99.329183" y="259.633725" transform="rotate(-0 99.329183 259.633725)">0</text>
     </g>
    </g>
    <g id="xtick_12">
     <g id="line2d_24">
      <g>
       <use xlink:href="#m7b00034f88" x="146.365866" y="248.2731" style="stroke: #000000; stroke-width: 0.8"/>
      </g>
     </g>
     <g id="text_24">
      <text style="font-size: 7px; font-family: 'Times New Roman', 'DejaVu Serif'; text-anchor: middle" x="146.365866" y="259.633725" transform="rotate(-0 146.365866 259.633725)">6</text>
     </g>
    </g>
    <g id="xtick_13">
     <g id="line2d_25">
      <g>
       <use xlink:href="#m7b00034f88" x="193.402549" y="248.2731" style="stroke: #000000; stroke-width: 0.8"/>
      </g>
     </g>
     <g id="text_25">
      <text style="font-size: 7px; font-family: 'Times New Roman', 'DejaVu Serif'; text-anchor: middle" x="193.402549" y="259.633725" transform="rotate(-0 193.402549 259.633725)">12</text>
     </g>
    </g>
    <g id="xtick_14">
     <g id="line2d_26">
      <g>
       <use xlink:href="#m7b00034f88" x="240.439232" y="248.2731" style="stroke: #000000; stroke-width: 0.8"/>
      </g>
     </g>
     <g id="text_26">
      <text style="font-size: 7px; font-family: 'Times New Roman', 'DejaVu Serif'; text-anchor: middle" x="240.439232" y="259.633725" transform="rotate(-0 240.439232 259.633725)">18</text>
     </g>
    </g>
    <g id="xtick_15">
     <g id="line2d_27">
      <g>
       <use xlink:href="#m7b00034f88" x="287.475915" y="248.2731" style="stroke: #000000; stroke-width: 0.8"/>
      </g>
     </g>
     <g id="text_27">
      <text style="font-size: 7px; font-family: 'Times New Roman', 'DejaVu Serif'; text-anchor: middle" x="287.475915" y="259.633725" transform="rotate(-0 287.475915 259.633725)">24</text>
     </g>
    </g>
    <g id="xtick_16">
     <g id="line2d_28">
      <g>
       <use xlink:href="#m7b00034f88" x="334.512598" y="248.2731" style="stroke: #000000; stroke-width: 0.8"/>
      </g>
     </g>
     <g id="text_28">
      <text style="font-size: 7px; font-family: 'Times New Roman', 'DejaVu Serif'; text-anchor: middle" x="334.512598" y="259.633725" transform="rotate(-0 334.512598 259.633725)">30</text>
     </g>
    </g>
    <g id="xtick_17">
     <g id="line2d_29">
      <g>
       <use xlink:href="#m7b00034f88" x="381.549281" y="248.2731" style="stroke: #000000; stroke-width: 0.8"/>
      </g>
     </g>
     <g id="text_29">
      <text style="font-size: 7px; font-family: 'Times New Roman', 'DejaVu Serif'; text-anchor: middle" x="381.549281" y="259.633725" transform="rotate(-0 381.549281 259.633725)">36</text>
     </g>
    </g>
    <g id="xtick_18">
     <g id="line2d_30">
      <g>
       <use xlink:href="#m7b00034f88" x="428.585964" y="248.2731" style="stroke: #000000; stroke-width: 0.8"/>
      </g>
     </g>
     <g id="text_30">
      <text style="font-size: 7px; font-family: 'Times New Roman', 'DejaVu Serif'; text-anchor: middle" x="428.585964" y="259.633725" transform="rotate(-0 428.585964 259.633725)">42</text>
     </g>
    </g>
    <g id="xtick_19">
     <g id="line2d_31">
      <g>
       <use xlink:href="#m7b00034f88" x="475.622647" y="248.2731" style="stroke: #000000; stroke-width: 0.8"/>
      </g>
     </g>
     <g id="text_31">
      <text style="font-size: 7px; font-family: 'Times New Roman', 'DejaVu Serif'; text-anchor: middle" x="475.622647" y="259.633725" transform="rotate(-0 475.622647 259.633725)">48</text>
     </g>
    </g>
    <g id="xtick_20">
     <g id="line2d_32">
      <g>
       <use xlink:href="#m7b00034f88" x="522.65933" y="248.2731" style="stroke: #000000; stroke-width: 0.8"/>
      </g>
     </g>
     <g id="text_32">
      <text style="font-size: 7px; font-family: 'Times New Roman', 'DejaVu Serif'; text-anchor: middle" x="522.65933" y="259.633725" transform="rotate(-0 522.65933 259.633725)">54</text>
     </g>
    </g>
    <g id="text_33">
     <text style="font-size: 7.5px; font-family: 'Songti SC', 'Arial Unicode MS'; text-anchor: middle" x="303.154809" y="271.220131" transform="rotate(-0 303.154809 271.220131)">模拟累积成交笔数</text>
    </g>
   </g>
   <g id="matplotlib.axis_4">
    <g id="ytick_7">
     <g id="line2d_33">
      <g>
       <use xlink:href="#m72963c8acc" x="78.94662" y="245.614434" style="stroke: #000000; stroke-width: 0.8"/>
      </g>
     </g>
     <g id="text_34">
      <text style="font-size: 7px; font-family: 'Times New Roman', 'DejaVu Serif'; text-anchor: end" x="72.44662" y="248.044746" transform="rotate(-0 72.44662 248.044746)">0.0</text>
     </g>
    </g>
    <g id="ytick_8">
     <g id="line2d_34">
      <g>
       <use xlink:href="#m72963c8acc" x="78.94662" y="227.889993" style="stroke: #000000; stroke-width: 0.8"/>
      </g>
     </g>
     <g id="text_35">
      <text style="font-size: 7px; font-family: 'Times New Roman', 'DejaVu Serif'; text-anchor: end" x="72.44662" y="230.320305" transform="rotate(-0 72.44662 230.320305)">0.2</text>
     </g>
    </g>
    <g id="ytick_9">
     <g id="line2d_35">
      <g>
       <use xlink:href="#m72963c8acc" x="78.94662" y="210.165552" style="stroke: #000000; stroke-width: 0.8"/>
      </g>
     </g>
     <g id="text_36">
      <text style="font-size: 7px; font-family: 'Times New Roman', 'DejaVu Serif'; text-anchor: end" x="72.44662" y="212.595864" transform="rotate(-0 72.44662 212.595864)">0.4</text>
     </g>
    </g>
    <g id="ytick_10">
     <g id="line2d_36">
      <g>
       <use xlink:href="#m72963c8acc" x="78.94662" y="192.441111" style="stroke: #000000; stroke-width: 0.8"/>
      </g>
     </g>
     <g id="text_37">
      <text style="font-size: 7px; font-family: 'Times New Roman', 'DejaVu Serif'; text-anchor: end" x="72.44662" y="194.871423" transform="rotate(-0 72.44662 194.871423)">0.6</text>
     </g>
    </g>
    <g id="ytick_11">
     <g id="line2d_37">
      <g>
       <use xlink:href="#m72963c8acc" x="78.94662" y="174.71667" style="stroke: #000000; stroke-width: 0.8"/>
      </g>
     </g>
     <g id="text_38">
      <text style="font-size: 7px; font-family: 'Times New Roman', 'DejaVu Serif'; text-anchor: end" x="72.44662" y="177.146982" transform="rotate(-0 72.44662 177.146982)">0.8</text>
     </g>
    </g>
    <g id="ytick_12">
     <g id="line2d_38">
      <g>
       <use xlink:href="#m72963c8acc" x="78.94662" y="156.992229" style="stroke: #000000; stroke-width: 0.8"/>
      </g>
     </g>
     <g id="text_39">
      <text style="font-size: 7px; font-family: 'Times New Roman', 'DejaVu Serif'; text-anchor: end" x="72.44662" y="159.422541" transform="rotate(-0 72.44662 159.422541)">1.0</text>
     </g>
    </g>
    <g id="text_40">
     <text style="font-size: 7.5px; font-family: 'Songti SC', 'Arial Unicode MS'; text-anchor: middle" x="58.653652" y="201.303331" transform="rotate(-90 58.653652 201.303331)">YES 价格</text>
    </g>
   </g>
   <g id="line2d_39">
    <path d="M 99.329183 222.12955 
L 107.16863 222.12955 
L 130.686972 223.901994 
L 130.686972 222.12955 
L 138.526419 222.572661 
L 169.884208 222.12955 
L 193.402549 223.015772 
L 232.599785 222.572661 
L 232.599785 221.686439 
L 263.957574 224.788216 
L 271.797021 222.572661 
L 271.797021 223.901994 
L 295.315362 223.901994 
L 318.833704 223.901994 
L 389.388728 226.117549 
L 428.585964 228.333104 
L 444.264858 228.333104 
L 467.7832 228.776215 
L 491.301541 228.776215 
L 499.140989 228.776215 
L 506.980436 228.776215 
" clip-path="url(#p9f0a751e8a)" style="fill: none; stroke: #0f4d92; stroke-width: 1.5; stroke-linecap: square"/>
    <defs>
     <path id="m9ec8b4de9d" d="M 0 1.4 
C 0.371284 1.4 0.727412 1.252487 0.989949 0.989949 
C 1.252487 0.727412 1.4 0.371284 1.4 0 
C 1.4 -0.371284 1.252487 -0.727412 0.989949 -0.989949 
C 0.727412 -1.252487 0.371284 -1.4 0 -1.4 
C -0.371284 -1.4 -0.727412 -1.252487 -0.989949 -0.989949 
C -1.252487 -0.727412 -1.4 -0.371284 -1.4 0 
C -1.4 0.371284 -1.252487 0.727412 -0.989949 0.989949 
C -0.727412 1.252487 -0.371284 1.4 0 1.4 
z
" style="stroke: #0f4d92"/>
    </defs>
    <g clip-path="url(#p9f0a751e8a)">
     <use xlink:href="#m9ec8b4de9d" x="99.329183" y="222.12955" style="fill: #0f4d92; stroke: #0f4d92"/>
     <use xlink:href="#m9ec8b4de9d" x="107.16863" y="222.12955" style="fill: #0f4d92; stroke: #0f4d92"/>
     <use xlink:href="#m9ec8b4de9d" x="130.686972" y="223.901994" style="fill: #0f4d92; stroke: #0f4d92"/>
     <use xlink:href="#m9ec8b4de9d" x="130.686972" y="222.12955" style="fill: #0f4d92; stroke: #0f4d92"/>
     <use xlink:href="#m9ec8b4de9d" x="138.526419" y="222.572661" style="fill: #0f4d92; stroke: #0f4d92"/>
     <use xlink:href="#m9ec8b4de9d" x="169.884208" y="222.12955" style="fill: #0f4d92; stroke: #0f4d92"/>
     <use xlink:href="#m9ec8b4de9d" x="193.402549" y="223.015772" style="fill: #0f4d92; stroke: #0f4d92"/>
     <use xlink:href="#m9ec8b4de9d" x="232.599785" y="222.572661" style="fill: #0f4d92; stroke: #0f4d92"/>
     <use xlink:href="#m9ec8b4de9d" x="232.599785" y="221.686439" style="fill: #0f4d92; stroke: #0f4d92"/>
     <use xlink:href="#m9ec8b4de9d" x="263.957574" y="224.788216" style="fill: #0f4d92; stroke: #0f4d92"/>
     <use xlink:href="#m9ec8b4de9d" x="271.797021" y="222.572661" style="fill: #0f4d92; stroke: #0f4d92"/>
     <use xlink:href="#m9ec8b4de9d" x="271.797021" y="223.901994" style="fill: #0f4d92; stroke: #0f4d92"/>
     <use xlink:href="#m9ec8b4de9d" x="295.315362" y="223.901994" style="fill: #0f4d92; stroke: #0f4d92"/>
     <use xlink:href="#m9ec8b4de9d" x="318.833704" y="223.901994" style="fill: #0f4d92; stroke: #0f4d92"/>
     <use xlink:href="#m9ec8b4de9d" x="389.388728" y="226.117549" style="fill: #0f4d92; stroke: #0f4d92"/>
     <use xlink:href="#m9ec8b4de9d" x="428.585964" y="228.333104" style="fill: #0f4d92; stroke: #0f4d92"/>
     <use xlink:href="#m9ec8b4de9d" x="444.264858" y="228.333104" style="fill: #0f4d92; stroke: #0f4d92"/>
     <use xlink:href="#m9ec8b4de9d" x="467.7832" y="228.776215" style="fill: #0f4d92; stroke: #0f4d92"/>
     <use xlink:href="#m9ec8b4de9d" x="491.301541" y="228.776215" style="fill: #0f4d92; stroke: #0f4d92"/>
     <use xlink:href="#m9ec8b4de9d" x="499.140989" y="228.776215" style="fill: #0f4d92; stroke: #0f4d92"/>
     <use xlink:href="#m9ec8b4de9d" x="506.980436" y="228.776215" style="fill: #0f4d92; stroke: #0f4d92"/>
    </g>
   </g>
   <g id="line2d_40">
    <path d="M 78.94662 245.614434 
L 527.362998 245.614434 
" clip-path="url(#p9f0a751e8a)" style="fill: none; stroke-dasharray: 3.33,1.44; stroke-dashoffset: 0; stroke: #8bcf8b; stroke-width: 0.9"/>
   </g>
   <g id="line2d_41">
    <path d="M 78.94662 201.303331 
L 527.362998 201.303331 
" clip-path="url(#p9f0a751e8a)" style="fill: none; stroke-dasharray: 0.8,1.32; stroke-dashoffset: 0; stroke: #767676; stroke-width: 0.8"/>
   </g>
   <g id="patch_6">
    <path d="M 78.94662 248.2731 
L 78.94662 154.333563 
" style="fill: none; stroke: #000000; stroke-width: 0.8; stroke-linejoin: miter; stroke-linecap: square"/>
   </g>
   <g id="patch_7">
    <path d="M 78.94662 248.2731 
L 527.362998 248.2731 
" style="fill: none; stroke: #000000; stroke-width: 0.8; stroke-linejoin: miter; stroke-linecap: square"/>
   </g>
   <g id="text_41">
    <text style="font-weight: 700; font-size: 9px; font-family: 'Times New Roman', 'DejaVu Serif'; text-anchor: start" x="7.2" y="147.71143" transform="rotate(-0 7.2 147.71143)">b</text>
   </g>
   <g id="legend_2">
    <g id="line2d_42">
     <path d="M 470.322998 162.114563 
L 475.282998 162.114563 
L 480.242998 162.114563 
" style="fill: none; stroke: #0f4d92; stroke-width: 1.5; stroke-linecap: square"/>
     <g>
      <use xlink:href="#m9ec8b4de9d" x="475.282998" y="162.114563" style="fill: #0f4d92; stroke: #0f4d92"/>
     </g>
    </g>
    <g id="text_42">
     <text style="font-size: 6.2px; font-family: 'Songti SC', 'Arial Unicode MS'; text-anchor: start" x="485.202998" y="164.284563" transform="rotate(-0 485.202998 164.284563)">模拟市场价格</text>
    </g>
   </g>
  </g>
 </g>
 <defs>
  <clipPath id="pba9a2e5f10">
   <rect x="78.94662" y="19.781821" width="448.416378" height="93.939537"/>
  </clipPath>
  <clipPath id="p9f0a751e8a">
   <rect x="78.94662" y="154.333563" width="448.416378" height="93.939537"/>
  </clipPath>
 </defs>
</svg>
