<?xml version="1.0" encoding="utf-8" standalone="no"?>
<!DOCTYPE svg PUBLIC "-//W3C//DTD SVG 1.1//EN"
  "http://www.w3.org/Graphics/SVG/1.1/DTD/svg11.dtd">
<svg xmlns:xlink="http://www.w3.org/1999/xlink" width="526.913126pt" height="160.343132pt" viewBox="0 0 526.913126 160.343132" xmlns="http://www.w3.org/2000/svg" version="1.1">
 <metadata>
  <rdf:RDF xmlns:dc="http://purl.org/dc/elements/1.1/" xmlns:cc="http://creativecommons.org/ns#" xmlns:rdf="http://www.w3.org/1999/02/22-rdf-syntax-ns#">
   <cc:Work>
    <dc:type rdf:resource="http://purl.org/dc/dcmitype/StillImage"/>
    <dc:date>2026-05-29T20:53:21.645774</dc:date>
    <dc:format>image/svg+xml</dc:format>
    <dc:creator>
     <cc:Agent>
      <dc:title>Matplotlib v3.10.9, https://matplotlib.org/</dc:title>
     </cc:Agent>
    </dc:creator>
   </cc:Work>
  </rdf:RDF>
 </metadata>
 <defs>
  <style type="text/css">*{stroke-linejoin: round; stroke-linecap: butt}</style>
 </defs>
 <g id="figure_1">
  <g id="patch_1">
   <path d="M 0 160.343132 
L 526.913126 160.343132 
L 526.913126 -0 
L 0 -0 
z
" style="fill: #ffffff"/>
  </g>
  <g id="axes_1">
   <g id="patch_2">
    <path d="M 33.530469 129.153132 
L 519.713126 129.153132 
L 519.713126 19.297266 
L 33.530469 19.297266 
z
" style="fill: #ffffff"/>
   </g>
   <g id="PathCollection_1">
    <defs>
     <path id="m4d33c0ccc6" d="M 0 1.414214 
C 0.375054 1.414214 0.734797 1.265203 1 1 
C 1.265203 0.734797 1.414214 0.375054 1.414214 0 
C 1.414214 -0.375054 1.265203 -0.734797 1 -1 
C 0.734797 -1.265203 0.375054 -1.414214 0 -1.414214 
C -0.375054 -1.414214 -0.734797 -1.265203 -1 -1 
C -1.265203 -0.734797 -1.414214 -0.375054 -1.414214 0 
C -1.414214 0.375054 -1.265203 0.734797 -1 1 
C -0.734797 1.265203 -0.375054 1.414214 0 1.414214 
z
"/>
    </defs>
    <g clip-path="url(#pae8db0fa7a)">
     <use xlink:href="#m4d33c0ccc6" x="37.70371" y="89.422425" style="fill: #4d4d4d; fill-opacity: 0.75"/>
     <use xlink:href="#m4d33c0ccc6" x="49.325396" y="89.739071" style="fill: #4d4d4d; fill-opacity: 0.75"/>
     <use xlink:href="#m4d33c0ccc6" x="60.947082" y="84.41077" style="fill: #4d4d4d; fill-opacity: 0.75"/>
     <use xlink:href="#m4d33c0ccc6" x="72.568768" y="76.442262" style="fill: #4d4d4d; fill-opacity: 0.75"/>
     <use xlink:href="#m4d33c0ccc6" x="84.190453" y="74.889405" style="fill: #4d4d4d; fill-opacity: 0.75"/>
     <use xlink:href="#m4d33c0ccc6" x="95.812139" y="78.067374" style="fill: #4d4d4d; fill-opacity: 0.75"/>
     <use xlink:href="#m4d33c0ccc6" x="107.433825" y="66.58385" style="fill: #4d4d4d; fill-opacity: 0.75"/>
     <use xlink:href="#m4d33c0ccc6" x="119.055511" y="42.528442" style="fill: #4d4d4d; fill-opacity: 0.75"/>
     <use xlink:href="#m4d33c0ccc6" x="130.677196" y="75.608314" style="fill: #4d4d4d; fill-opacity: 0.75"/>
     <use xlink:href="#m4d33c0ccc6" x="142.298882" y="100.252638" style="fill: #4d4d4d; fill-opacity: 0.75"/>
     <use xlink:href="#m4d33c0ccc6" x="153.920568" y="115.749141" style="fill: #4d4d4d; fill-opacity: 0.75"/>
     <use xlink:href="#m4d33c0ccc6" x="165.542254" y="105.208253" style="fill: #4d4d4d; fill-opacity: 0.75"/>
     <use xlink:href="#m4d33c0ccc6" x="177.163939" y="100.402207" style="fill: #4d4d4d; fill-opacity: 0.75"/>
     <use xlink:href="#m4d33c0ccc6" x="188.785625" y="84.663559" style="fill: #4d4d4d; fill-opacity: 0.75"/>
     <use xlink:href="#m4d33c0ccc6" x="200.407311" y="97.067697" style="fill: #4d4d4d; fill-opacity: 0.75"/>
     <use xlink:href="#m4d33c0ccc6" x="212.028996" y="87.904052" style="fill: #4d4d4d; fill-opacity: 0.75"/>
     <use xlink:href="#m4d33c0ccc6" x="223.650682" y="90.951969" style="fill: #4d4d4d; fill-opacity: 0.75"/>
     <use xlink:href="#m4d33c0ccc6" x="235.272368" y="79.924165" style="fill: #4d4d4d; fill-opacity: 0.75"/>
     <use xlink:href="#m4d33c0ccc6" x="246.894054" y="89.481671" style="fill: #4d4d4d; fill-opacity: 0.75"/>
     <use xlink:href="#m4d33c0ccc6" x="258.515739" y="100.518989" style="fill: #4d4d4d; fill-opacity: 0.75"/>
     <use xlink:href="#m4d33c0ccc6" x="270.137425" y="96.263598" style="fill: #4d4d4d; fill-opacity: 0.75"/>
     <use xlink:href="#m4d33c0ccc6" x="281.759111" y="109.300861" style="fill: #4d4d4d; fill-opacity: 0.75"/>
     <use xlink:href="#m4d33c0ccc6" x="293.380797" y="100.087143" style="fill: #4d4d4d; fill-opacity: 0.75"/>
     <use xlink:href="#m4d33c0ccc6" x="305.002482" y="96.929558" style="fill: #4d4d4d; fill-opacity: 0.75"/>
     <use xlink:href="#m4d33c0ccc6" x="316.624168" y="94.308414" style="fill: #4d4d4d; fill-opacity: 0.75"/>
    </g>
   </g>
   <g id="matplotlib.axis_1">
    <g id="xtick_1">
     <g id="line2d_1">
      <defs>
       <path id="m692cff55a7" d="M 0 0 
L 0 3 
" style="stroke: #000000; stroke-width: 0.8"/>
      </defs>
      <g>
       <use xlink:href="#m692cff55a7" x="37.70371" y="129.153132" style="stroke: #000000; stroke-width: 0.8"/>
      </g>
     </g>
     <g id="text_1">
      <text style="font-size: 7px; font-family: 'Times New Roman', 'DejaVu Serif'; text-anchor: middle" x="37.70371" y="140.513757" transform="rotate(-0 37.70371 140.513757)">0</text>
     </g>
    </g>
    <g id="xtick_2">
     <g id="line2d_2">
      <g>
       <use xlink:href="#m692cff55a7" x="87.782611" y="129.153132" style="stroke: #000000; stroke-width: 0.8"/>
      </g>
     </g>
     <g id="text_2">
      <text style="font-size: 7px; font-family: 'Times New Roman', 'DejaVu Serif'; text-anchor: middle" x="87.782611" y="140.513757" transform="rotate(-0 87.782611 140.513757)">6</text>
     </g>
    </g>
    <g id="xtick_3">
     <g id="line2d_3">
      <g>
       <use xlink:href="#m692cff55a7" x="137.861511" y="129.153132" style="stroke: #000000; stroke-width: 0.8"/>
      </g>
     </g>
     <g id="text_3">
      <text style="font-size: 7px; font-family: 'Times New Roman', 'DejaVu Serif'; text-anchor: middle" x="137.861511" y="140.513757" transform="rotate(-0 137.861511 140.513757)">12</text>
     </g>
    </g>
    <g id="xtick_4">
     <g id="line2d_4">
      <g>
       <use xlink:href="#m692cff55a7" x="187.940411" y="129.153132" style="stroke: #000000; stroke-width: 0.8"/>
      </g>
     </g>
     <g id="text_4">
      <text style="font-size: 7px; font-family: 'Times New Roman', 'DejaVu Serif'; text-anchor: middle" x="187.940411" y="140.513757" transform="rotate(-0 187.940411 140.513757)">18</text>
     </g>
    </g>
    <g id="xtick_5">
     <g id="line2d_5">
      <g>
       <use xlink:href="#m692cff55a7" x="238.019312" y="129.153132" style="stroke: #000000; stroke-width: 0.8"/>
      </g>
     </g>
     <g id="text_5">
      <text style="font-size: 7px; font-family: 'Times New Roman', 'DejaVu Serif'; text-anchor: middle" x="238.019312" y="140.513757" transform="rotate(-0 238.019312 140.513757)">24</text>
     </g>
    </g>
    <g id="xtick_6">
     <g id="line2d_6">
      <g>
       <use xlink:href="#m692cff55a7" x="288.098212" y="129.153132" style="stroke: #000000; stroke-width: 0.8"/>
      </g>
     </g>
     <g id="text_6">
      <text style="font-size: 7px; font-family: 'Times New Roman', 'DejaVu Serif'; text-anchor: middle" x="288.098212" y="140.513757" transform="rotate(-0 288.098212 140.513757)">30</text>
     </g>
    </g>
    <g id="xtick_7">
     <g id="line2d_7">
      <g>
       <use xlink:href="#m692cff55a7" x="338.177112" y="129.153132" style="stroke: #000000; stroke-width: 0.8"/>
      </g>
     </g>
     <g id="text_7">
      <text style="font-size: 7px; font-family: 'Times New Roman', 'DejaVu Serif'; text-anchor: middle" x="338.177112" y="140.513757" transform="rotate(-0 338.177112 140.513757)">36</text>
     </g>
    </g>
    <g id="xtick_8">
     <g id="line2d_8">
      <g>
       <use xlink:href="#m692cff55a7" x="388.256013" y="129.153132" style="stroke: #000000; stroke-width: 0.8"/>
      </g>
     </g>
     <g id="text_8">
      <text style="font-size: 7px; font-family: 'Times New Roman', 'DejaVu Serif'; text-anchor: middle" x="388.256013" y="140.513757" transform="rotate(-0 388.256013 140.513757)">42</text>
     </g>
    </g>
    <g id="xtick_9">
     <g id="line2d_9">
      <g>
       <use xlink:href="#m692cff55a7" x="438.334913" y="129.153132" style="stroke: #000000; stroke-width: 0.8"/>
      </g>
     </g>
     <g id="text_9">
      <text style="font-size: 7px; font-family: 'Times New Roman', 'DejaVu Serif'; text-anchor: middle" x="438.334913" y="140.513757" transform="rotate(-0 438.334913 140.513757)">48</text>
     </g>
    </g>
    <g id="xtick_10">
     <g id="line2d_10">
      <g>
       <use xlink:href="#m692cff55a7" x="488.413814" y="129.153132" style="stroke: #000000; stroke-width: 0.8"/>
      </g>
     </g>
     <g id="text_10">
      <text style="font-size: 7px; font-family: 'Times New Roman', 'DejaVu Serif'; text-anchor: middle" x="488.413814" y="140.513757" transform="rotate(-0 488.413814 140.513757)">54</text>
     </g>
    </g>
    <g id="text_11">
     <text style="font-size: 7.5px; font-family: 'Songti SC', 'Arial Unicode MS'; text-anchor: middle" x="276.621797" y="152.100163" transform="rotate(-0 276.621797 152.100163)">累积成交笔数</text>
    </g>
   </g>
   <g id="matplotlib.axis_2">
    <g id="ytick_1">
     <g id="line2d_11">
      <defs>
       <path id="mf87b0cee60" d="M 0 0 
L -3 0 
" style="stroke: #000000; stroke-width: 0.8"/>
      </defs>
      <g>
       <use xlink:href="#mf87b0cee60" x="33.530469" y="126.044003" style="stroke: #000000; stroke-width: 0.8"/>
      </g>
     </g>
     <g id="text_12">
      <text style="font-size: 7px; font-family: 'Times New Roman', 'DejaVu Serif'; text-anchor: end" x="27.030469" y="128.474316" transform="rotate(-0 27.030469 128.474316)">0.0</text>
     </g>
    </g>
    <g id="ytick_2">
     <g id="line2d_12">
      <g>
       <use xlink:href="#mf87b0cee60" x="33.530469" y="105.316482" style="stroke: #000000; stroke-width: 0.8"/>
      </g>
     </g>
     <g id="text_13">
      <text style="font-size: 7px; font-family: 'Times New Roman', 'DejaVu Serif'; text-anchor: end" x="27.030469" y="107.746794" transform="rotate(-0 27.030469 107.746794)">0.2</text>
     </g>
    </g>
    <g id="ytick_3">
     <g id="line2d_13">
      <g>
       <use xlink:href="#mf87b0cee60" x="33.530469" y="84.58896" style="stroke: #000000; stroke-width: 0.8"/>
      </g>
     </g>
     <g id="text_14">
      <text style="font-size: 7px; font-family: 'Times New Roman', 'DejaVu Serif'; text-anchor: end" x="27.030469" y="87.019272" transform="rotate(-0 27.030469 87.019272)">0.4</text>
     </g>
    </g>
    <g id="ytick_4">
     <g id="line2d_14">
      <g>
       <use xlink:href="#mf87b0cee60" x="33.530469" y="63.861438" style="stroke: #000000; stroke-width: 0.8"/>
      </g>
     </g>
     <g id="text_15">
      <text style="font-size: 7px; font-family: 'Times New Roman', 'DejaVu Serif'; text-anchor: end" x="27.030469" y="66.29175" transform="rotate(-0 27.030469 66.29175)">0.6</text>
     </g>
    </g>
    <g id="ytick_5">
     <g id="line2d_15">
      <g>
       <use xlink:href="#mf87b0cee60" x="33.530469" y="43.133916" style="stroke: #000000; stroke-width: 0.8"/>
      </g>
     </g>
     <g id="text_16">
      <text style="font-size: 7px; font-family: 'Times New Roman', 'DejaVu Serif'; text-anchor: end" x="27.030469" y="45.564228" transform="rotate(-0 27.030469 45.564228)">0.8</text>
     </g>
    </g>
    <g id="ytick_6">
     <g id="line2d_16">
      <g>
       <use xlink:href="#mf87b0cee60" x="33.530469" y="22.406394" style="stroke: #000000; stroke-width: 0.8"/>
      </g>
     </g>
     <g id="text_17">
      <text style="font-size: 7px; font-family: 'Times New Roman', 'DejaVu Serif'; text-anchor: end" x="27.030469" y="24.836706" transform="rotate(-0 27.030469 24.836706)">1.0</text>
     </g>
    </g>
    <g id="text_18">
     <text style="font-size: 7.5px; font-family: 'Songti SC', 'Arial Unicode MS'; text-anchor: middle" x="13.2375" y="74.225199" transform="rotate(-90 13.2375 74.225199)">YES 价格</text>
    </g>
   </g>
   <g id="line2d_17">
    <path d="M 37.70371 74.225199 
L 71.089644 74.225199 
L 104.475578 99.098225 
L 129.515028 99.098225 
L 137.861511 98.580037 
L 162.900961 98.580037 
L 196.286895 98.580037 
L 246.365795 100.134601 
L 279.751729 100.134601 
L 304.791179 101.689165 
L 321.484146 102.725541 
L 379.909529 103.243729 
L 379.909529 103.243729 
L 413.295463 103.243729 
L 413.295463 103.243729 
L 421.641946 103.243729 
L 438.334913 103.243729 
L 455.02788 103.243729 
L 463.374363 103.243729 
L 471.720847 103.243729 
L 496.760297 103.243729 
" clip-path="url(#pae8db0fa7a)" style="fill: none; stroke: #0f4d92; stroke-width: 1.5; stroke-linecap: square"/>
    <defs>
     <path id="m0de4c33a2c" d="M 0 1.4 
C 0.371284 1.4 0.727412 1.252487 0.989949 0.989949 
C 1.252487 0.727412 1.4 0.371284 1.4 0 
C 1.4 -0.371284 1.252487 -0.727412 0.989949 -0.989949 
C 0.727412 -1.252487 0.371284 -1.4 0 -1.4 
C -0.371284 -1.4 -0.727412 -1.252487 -0.989949 -0.989949 
C -1.252487 -0.727412 -1.4 -0.371284 -1.4 0 
C -1.4 0.371284 -1.252487 0.727412 -0.989949 0.989949 
C -0.727412 1.252487 -0.371284 1.4 0 1.4 
z
" style="stroke: #0f4d92"/>
    </defs>
    <g clip-path="url(#pae8db0fa7a)">
     <use xlink:href="#m0de4c33a2c" x="37.70371" y="74.225199" style="fill: #0f4d92; stroke: #0f4d92"/>
     <use xlink:href="#m0de4c33a2c" x="71.089644" y="74.225199" style="fill: #0f4d92; stroke: #0f4d92"/>
     <use xlink:href="#m0de4c33a2c" x="104.475578" y="99.098225" style="fill: #0f4d92; stroke: #0f4d92"/>
     <use xlink:href="#m0de4c33a2c" x="129.515028" y="99.098225" style="fill: #0f4d92; stroke: #0f4d92"/>
     <use xlink:href="#m0de4c33a2c" x="137.861511" y="98.580037" style="fill: #0f4d92; stroke: #0f4d92"/>
     <use xlink:href="#m0de4c33a2c" x="162.900961" y="98.580037" style="fill: #0f4d92; stroke: #0f4d92"/>
     <use xlink:href="#m0de4c33a2c" x="196.286895" y="98.580037" style="fill: #0f4d92; stroke: #0f4d92"/>
     <use xlink:href="#m0de4c33a2c" x="246.365795" y="100.134601" style="fill: #0f4d92; stroke: #0f4d92"/>
     <use xlink:href="#m0de4c33a2c" x="279.751729" y="100.134601" style="fill: #0f4d92; stroke: #0f4d92"/>
     <use xlink:href="#m0de4c33a2c" x="304.791179" y="101.689165" style="fill: #0f4d92; stroke: #0f4d92"/>
     <use xlink:href="#m0de4c33a2c" x="321.484146" y="102.725541" style="fill: #0f4d92; stroke: #0f4d92"/>
     <use xlink:href="#m0de4c33a2c" x="379.909529" y="103.243729" style="fill: #0f4d92; stroke: #0f4d92"/>
     <use xlink:href="#m0de4c33a2c" x="379.909529" y="103.243729" style="fill: #0f4d92; stroke: #0f4d92"/>
     <use xlink:href="#m0de4c33a2c" x="413.295463" y="103.243729" style="fill: #0f4d92; stroke: #0f4d92"/>
     <use xlink:href="#m0de4c33a2c" x="413.295463" y="103.243729" style="fill: #0f4d92; stroke: #0f4d92"/>
     <use xlink:href="#m0de4c33a2c" x="421.641946" y="103.243729" style="fill: #0f4d92; stroke: #0f4d92"/>
     <use xlink:href="#m0de4c33a2c" x="438.334913" y="103.243729" style="fill: #0f4d92; stroke: #0f4d92"/>
     <use xlink:href="#m0de4c33a2c" x="455.02788" y="103.243729" style="fill: #0f4d92; stroke: #0f4d92"/>
     <use xlink:href="#m0de4c33a2c" x="463.374363" y="103.243729" style="fill: #0f4d92; stroke: #0f4d92"/>
     <use xlink:href="#m0de4c33a2c" x="471.720847" y="103.243729" style="fill: #0f4d92; stroke: #0f4d92"/>
     <use xlink:href="#m0de4c33a2c" x="496.760297" y="103.243729" style="fill: #0f4d92; stroke: #0f4d92"/>
    </g>
   </g>
   <g id="line2d_18">
    <path d="M 37.70371 89.422425 
L 43.514553 92.324723 
L 49.325396 89.739071 
L 55.136239 89.11184 
L 60.947082 84.41077 
L 66.757925 75.6672 
L 72.568768 76.442262 
L 78.379611 85.510381 
L 84.190453 74.889405 
L 90.001296 74.319822 
L 95.812139 78.067374 
L 101.622982 71.950935 
L 107.433825 66.58385 
L 113.244668 48.692955 
L 119.055511 42.528442 
L 124.866353 36.254197 
L 130.677196 75.608314 
L 136.488039 102.131039 
L 142.298882 100.252638 
L 148.109725 107.401063 
L 153.920568 115.749141 
L 159.731411 111.641046 
L 165.542254 105.208253 
L 171.353096 105.268885 
L 177.163939 100.402207 
L 182.974782 85.309626 
L 188.785625 84.663559 
L 194.596468 86.568106 
L 200.407311 97.067697 
L 206.218154 90.8338 
L 212.028996 87.904052 
L 217.839839 95.727848 
L 223.650682 90.951969 
L 229.461525 92.529777 
L 235.272368 79.924165 
L 241.083211 90.403797 
L 246.894054 89.481671 
L 252.704897 94.627328 
L 258.515739 100.518989 
L 264.326582 96.000585 
L 270.137425 96.263598 
L 275.948268 106.560164 
L 281.759111 109.300861 
L 287.569954 103.708845 
L 293.380797 100.087143 
L 299.191639 102.454473 
L 305.002482 96.929558 
L 310.813325 91.514052 
L 316.624168 94.308414 
L 322.435011 70.071077 
" clip-path="url(#pae8db0fa7a)" style="fill: none; stroke: #4d4d4d; stroke-opacity: 0.86; stroke-width: 1.25; stroke-linecap: square"/>
   </g>
   <g id="line2d_19">
    <path d="M 328.245854 129.153132 
L 328.245854 19.297266 
" clip-path="url(#pae8db0fa7a)" style="fill: none; stroke-dasharray: 5.12,1.28,0.8,1.28; stroke-dashoffset: 0; stroke: #4d4d4d; stroke-opacity: 0.75; stroke-width: 0.8"/>
   </g>
   <g id="line2d_20">
    <path d="M 33.530469 22.406394 
L 519.713126 22.406394 
" clip-path="url(#pae8db0fa7a)" style="fill: none; stroke-dasharray: 3.33,1.44; stroke-dashoffset: 0; stroke: #b64342; stroke-width: 0.9"/>
   </g>
   <g id="line2d_21">
    <path d="M 33.530469 74.225199 
L 519.713126 74.225199 
" clip-path="url(#pae8db0fa7a)" style="fill: none; stroke-dasharray: 0.8,1.32; stroke-dashoffset: 0; stroke: #767676; stroke-width: 0.8"/>
   </g>
   <g id="patch_3">
    <path d="M 33.530469 129.153132 
L 33.530469 19.297266 
" style="fill: none; stroke: #000000; stroke-width: 0.8; stroke-linejoin: miter; stroke-linecap: square"/>
   </g>
   <g id="patch_4">
    <path d="M 33.530469 129.153132 
L 519.713126 129.153132 
" style="fill: none; stroke: #000000; stroke-width: 0.8; stroke-linejoin: miter; stroke-linecap: square"/>
   </g>
   <g id="text_19">
    <text style="font-size: 7.5px; font-family: 'Songti SC', 'Arial Unicode MS'; text-anchor: middle" x="276.621797" y="13.297266" transform="rotate(-0 276.621797 13.297266)">特朗普周一前部署国民警卫队</text>
   </g>
   <g id="legend_1">
    <g id="line2d_22">
     <path d="M 38.490469 103.223569 
L 43.450469 103.223569 
L 48.410469 103.223569 
" style="fill: none; stroke: #0f4d92; stroke-width: 1.5; stroke-linecap: square"/>
     <g>
      <use xlink:href="#m0de4c33a2c" x="43.450469" y="103.223569" style="fill: #0f4d92; stroke: #0f4d92"/>
     </g>
    </g>
    <g id="text_20">
     <text style="font-size: 6.2px; font-family: 'Songti SC', 'Arial Unicode MS'; text-anchor: start" x="53.370469" y="105.393569" transform="rotate(-0 53.370469 105.393569)">模拟市场价格</text>
    </g>
    <g id="line2d_23">
     <path d="M 38.490469 112.176757 
L 43.450469 112.176757 
L 48.410469 112.176757 
" style="fill: none; stroke: #4d4d4d; stroke-opacity: 0.86; stroke-width: 1.25; stroke-linecap: square"/>
    </g>
    <g id="text_21">
     <text style="font-size: 6.2px; font-family: 'Songti SC', 'Arial Unicode MS'; text-anchor: start" x="53.370469" y="114.346757" transform="rotate(-0 53.370469 114.346757)">真实市场价格</text>
    </g>
    <g id="line2d_24">
     <path d="M 38.490469 121.160944 
L 43.450469 121.160944 
L 48.410469 121.160944 
" style="fill: none; stroke-dasharray: 5.12,1.28,0.8,1.28; stroke-dashoffset: 0; stroke: #4d4d4d; stroke-opacity: 0.75; stroke-width: 0.8"/>
    </g>
    <g id="text_22">
     <text style="font-size: 6.2px; font-family: 'Songti SC', 'Arial Unicode MS'; text-anchor: start" x="53.370469" y="123.330944" transform="rotate(-0 53.370469 123.330944)">事件结束</text>
    </g>
   </g>
  </g>
 </g>
 <defs>
  <clipPath id="pae8db0fa7a">
   <rect x="33.530469" y="19.297266" width="486.182657" height="109.855866"/>
  </clipPath>
 </defs>
</svg>
