<?xml version="1.0" encoding="utf-8" standalone="no"?>
<!DOCTYPE svg PUBLIC "-//W3C//DTD SVG 1.1//EN"
  "http://www.w3.org/Graphics/SVG/1.1/DTD/svg11.dtd">
<svg xmlns:xlink="http://www.w3.org/1999/xlink" width="527.040157pt" height="160.305866pt" viewBox="0 0 527.040157 160.305866" xmlns="http://www.w3.org/2000/svg" version="1.1">
 <metadata>
  <rdf:RDF xmlns:dc="http://purl.org/dc/elements/1.1/" xmlns:cc="http://creativecommons.org/ns#" xmlns:rdf="http://www.w3.org/1999/02/22-rdf-syntax-ns#">
   <cc:Work>
    <dc:type rdf:resource="http://purl.org/dc/dcmitype/StillImage"/>
    <dc:date>2026-05-29T20:53:17.796226</dc:date>
    <dc:format>image/svg+xml</dc:format>
    <dc:creator>
     <cc:Agent>
      <dc:title>Matplotlib v3.10.9, https://matplotlib.org/</dc:title>
     </cc:Agent>
    </dc:creator>
   </cc:Work>
  </rdf:RDF>
 </metadata>
 <defs>
  <style type="text/css">*{stroke-linejoin: round; stroke-linecap: butt}</style>
 </defs>
 <g id="figure_1">
  <g id="patch_1">
   <path d="M 0 160.305866 
L 527.040157 160.305866 
L 527.040157 -0 
L 0 -0 
z
" style="fill: #ffffff"/>
  </g>
  <g id="axes_1">
   <g id="patch_2">
    <path d="M 33.575 129.175632 
L 519.840157 129.175632 
L 519.840157 19.297266 
L 33.575 19.297266 
z
" style="fill: #ffffff"/>
   </g>
   <g id="PathCollection_1">
    <defs>
     <path id="m284ed50ddb" d="M 0 1.414214 
C 0.375054 1.414214 0.734797 1.265203 1 1 
C 1.265203 0.734797 1.414214 0.375054 1.414214 0 
C 1.414214 -0.375054 1.265203 -0.734797 1 -1 
C 0.734797 -1.265203 0.375054 -1.414214 0 -1.414214 
C -0.375054 -1.414214 -0.734797 -1.265203 -1 -1 
C -1.265203 -0.734797 -1.414214 -0.375054 -1.414214 0 
C -1.414214 0.375054 -1.265203 0.734797 -1 1 
C -0.734797 1.265203 -0.375054 1.414214 0 1.414214 
z
"/>
    </defs>
    <g clip-path="url(#pd85e1c95f2)">
     <use xlink:href="#m284ed50ddb" x="55.677962" y="89.436788" style="fill: #4d4d4d; fill-opacity: 0.75"/>
     <use xlink:href="#m284ed50ddb" x="66.869335" y="89.753498" style="fill: #4d4d4d; fill-opacity: 0.75"/>
     <use xlink:href="#m284ed50ddb" x="78.060708" y="84.424106" style="fill: #4d4d4d; fill-opacity: 0.75"/>
     <use xlink:href="#m284ed50ddb" x="89.252081" y="76.453966" style="fill: #4d4d4d; fill-opacity: 0.75"/>
     <use xlink:href="#m284ed50ddb" x="100.443454" y="74.900791" style="fill: #4d4d4d; fill-opacity: 0.75"/>
     <use xlink:href="#m284ed50ddb" x="111.634827" y="78.079411" style="fill: #4d4d4d; fill-opacity: 0.75"/>
     <use xlink:href="#m284ed50ddb" x="122.8262" y="66.593535" style="fill: #4d4d4d; fill-opacity: 0.75"/>
     <use xlink:href="#m284ed50ddb" x="134.017573" y="42.5332" style="fill: #4d4d4d; fill-opacity: 0.75"/>
     <use xlink:href="#m284ed50ddb" x="145.208946" y="75.619847" style="fill: #4d4d4d; fill-opacity: 0.75"/>
     <use xlink:href="#m284ed50ddb" x="156.400319" y="100.269219" style="fill: #4d4d4d; fill-opacity: 0.75"/>
     <use xlink:href="#m284ed50ddb" x="167.591692" y="115.768896" style="fill: #4d4d4d; fill-opacity: 0.75"/>
     <use xlink:href="#m284ed50ddb" x="178.783065" y="105.225848" style="fill: #4d4d4d; fill-opacity: 0.75"/>
     <use xlink:href="#m284ed50ddb" x="189.974438" y="100.418818" style="fill: #4d4d4d; fill-opacity: 0.75"/>
     <use xlink:href="#m284ed50ddb" x="201.165811" y="84.676947" style="fill: #4d4d4d; fill-opacity: 0.75"/>
     <use xlink:href="#m284ed50ddb" x="212.357184" y="97.083626" style="fill: #4d4d4d; fill-opacity: 0.75"/>
     <use xlink:href="#m284ed50ddb" x="223.548557" y="87.918104" style="fill: #4d4d4d; fill-opacity: 0.75"/>
     <use xlink:href="#m284ed50ddb" x="234.73993" y="90.966645" style="fill: #4d4d4d; fill-opacity: 0.75"/>
     <use xlink:href="#m284ed50ddb" x="245.931303" y="79.936582" style="fill: #4d4d4d; fill-opacity: 0.75"/>
     <use xlink:href="#m284ed50ddb" x="257.122676" y="89.496046" style="fill: #4d4d4d; fill-opacity: 0.75"/>
     <use xlink:href="#m284ed50ddb" x="268.314049" y="100.535624" style="fill: #4d4d4d; fill-opacity: 0.75"/>
     <use xlink:href="#m284ed50ddb" x="279.505422" y="96.279362" style="fill: #4d4d4d; fill-opacity: 0.75"/>
     <use xlink:href="#m284ed50ddb" x="290.696795" y="109.319295" style="fill: #4d4d4d; fill-opacity: 0.75"/>
     <use xlink:href="#m284ed50ddb" x="301.888168" y="100.10369" style="fill: #4d4d4d; fill-opacity: 0.75"/>
     <use xlink:href="#m284ed50ddb" x="313.079541" y="96.945458" style="fill: #4d4d4d; fill-opacity: 0.75"/>
     <use xlink:href="#m284ed50ddb" x="324.270914" y="94.323778" style="fill: #4d4d4d; fill-opacity: 0.75"/>
    </g>
   </g>
   <g id="matplotlib.axis_1">
    <g id="xtick_1">
     <g id="line2d_1">
      <defs>
       <path id="m12cb2a79cb" d="M 0 0 
L 0 3 
" style="stroke: #000000; stroke-width: 0.8"/>
      </defs>
      <g>
       <use xlink:href="#m12cb2a79cb" x="55.677962" y="129.175632" style="stroke: #000000; stroke-width: 0.8"/>
      </g>
     </g>
     <g id="text_1">
      <text style="font-size: 7px; font-family: 'Times New Roman', 'DejaVu Serif'; text-anchor: middle" x="55.677962" y="140.536257" transform="rotate(-0 55.677962 140.536257)">0</text>
     </g>
    </g>
    <g id="xtick_2">
     <g id="line2d_2">
      <g>
       <use xlink:href="#m12cb2a79cb" x="125.476788" y="129.175632" style="stroke: #000000; stroke-width: 0.8"/>
      </g>
     </g>
     <g id="text_2">
      <text style="font-size: 7px; font-family: 'Times New Roman', 'DejaVu Serif'; text-anchor: middle" x="125.476788" y="140.536257" transform="rotate(-0 125.476788 140.536257)">3</text>
     </g>
    </g>
    <g id="xtick_3">
     <g id="line2d_3">
      <g>
       <use xlink:href="#m12cb2a79cb" x="195.275615" y="129.175632" style="stroke: #000000; stroke-width: 0.8"/>
      </g>
     </g>
     <g id="text_3">
      <text style="font-size: 7px; font-family: 'Times New Roman', 'DejaVu Serif'; text-anchor: middle" x="195.275615" y="140.536257" transform="rotate(-0 195.275615 140.536257)">6</text>
     </g>
    </g>
    <g id="xtick_4">
     <g id="line2d_4">
      <g>
       <use xlink:href="#m12cb2a79cb" x="265.074441" y="129.175632" style="stroke: #000000; stroke-width: 0.8"/>
      </g>
     </g>
     <g id="text_4">
      <text style="font-size: 7px; font-family: 'Times New Roman', 'DejaVu Serif'; text-anchor: middle" x="265.074441" y="140.536257" transform="rotate(-0 265.074441 140.536257)">9</text>
     </g>
    </g>
    <g id="xtick_5">
     <g id="line2d_5">
      <g>
       <use xlink:href="#m12cb2a79cb" x="334.873267" y="129.175632" style="stroke: #000000; stroke-width: 0.8"/>
      </g>
     </g>
     <g id="text_5">
      <text style="font-size: 7px; font-family: 'Times New Roman', 'DejaVu Serif'; text-anchor: middle" x="334.873267" y="140.536257" transform="rotate(-0 334.873267 140.536257)">12</text>
     </g>
    </g>
    <g id="xtick_6">
     <g id="line2d_6">
      <g>
       <use xlink:href="#m12cb2a79cb" x="404.672094" y="129.175632" style="stroke: #000000; stroke-width: 0.8"/>
      </g>
     </g>
     <g id="text_6">
      <text style="font-size: 7px; font-family: 'Times New Roman', 'DejaVu Serif'; text-anchor: middle" x="404.672094" y="140.536257" transform="rotate(-0 404.672094 140.536257)">15</text>
     </g>
    </g>
    <g id="xtick_7">
     <g id="line2d_7">
      <g>
       <use xlink:href="#m12cb2a79cb" x="474.47092" y="129.175632" style="stroke: #000000; stroke-width: 0.8"/>
      </g>
     </g>
     <g id="text_7">
      <text style="font-size: 7px; font-family: 'Times New Roman', 'DejaVu Serif'; text-anchor: middle" x="474.47092" y="140.536257" transform="rotate(-0 474.47092 140.536257)">18</text>
     </g>
    </g>
    <g id="text_8">
     <text style="font-size: 7.5px; font-family: 'Songti SC', 'Arial Unicode MS'; text-anchor: middle" x="276.707579" y="152.062897" transform="rotate(-0 276.707579 152.062897)">决策轮次 tick</text>
    </g>
   </g>
   <g id="matplotlib.axis_2">
    <g id="ytick_1">
     <g id="line2d_8">
      <defs>
       <path id="m73e970e49d" d="M 0 0 
L -3 0 
" style="stroke: #000000; stroke-width: 0.8"/>
      </defs>
      <g>
       <use xlink:href="#m73e970e49d" x="33.575" y="126.065867" style="stroke: #000000; stroke-width: 0.8"/>
      </g>
     </g>
     <g id="text_9">
      <text style="font-size: 7px; font-family: 'Times New Roman', 'DejaVu Serif'; text-anchor: end" x="27.075" y="128.496179" transform="rotate(-0 27.075 128.496179)">0.0</text>
     </g>
    </g>
    <g id="ytick_2">
     <g id="line2d_9">
      <g>
       <use xlink:href="#m73e970e49d" x="33.575" y="105.334099" style="stroke: #000000; stroke-width: 0.8"/>
      </g>
     </g>
     <g id="text_10">
      <text style="font-size: 7px; font-family: 'Times New Roman', 'DejaVu Serif'; text-anchor: end" x="27.075" y="107.764412" transform="rotate(-0 27.075 107.764412)">0.2</text>
     </g>
    </g>
    <g id="ytick_3">
     <g id="line2d_10">
      <g>
       <use xlink:href="#m73e970e49d" x="33.575" y="84.602332" style="stroke: #000000; stroke-width: 0.8"/>
      </g>
     </g>
     <g id="text_11">
      <text style="font-size: 7px; font-family: 'Times New Roman', 'DejaVu Serif'; text-anchor: end" x="27.075" y="87.032645" transform="rotate(-0 27.075 87.032645)">0.4</text>
     </g>
    </g>
    <g id="ytick_4">
     <g id="line2d_11">
      <g>
       <use xlink:href="#m73e970e49d" x="33.575" y="63.870565" style="stroke: #000000; stroke-width: 0.8"/>
      </g>
     </g>
     <g id="text_12">
      <text style="font-size: 7px; font-family: 'Times New Roman', 'DejaVu Serif'; text-anchor: end" x="27.075" y="66.300878" transform="rotate(-0 27.075 66.300878)">0.6</text>
     </g>
    </g>
    <g id="ytick_5">
     <g id="line2d_12">
      <g>
       <use xlink:href="#m73e970e49d" x="33.575" y="43.138798" style="stroke: #000000; stroke-width: 0.8"/>
      </g>
     </g>
     <g id="text_13">
      <text style="font-size: 7px; font-family: 'Times New Roman', 'DejaVu Serif'; text-anchor: end" x="27.075" y="45.56911" transform="rotate(-0 27.075 45.56911)">0.8</text>
     </g>
    </g>
    <g id="ytick_6">
     <g id="line2d_13">
      <g>
       <use xlink:href="#m73e970e49d" x="33.575" y="22.407031" style="stroke: #000000; stroke-width: 0.8"/>
      </g>
     </g>
     <g id="text_14">
      <text style="font-size: 7px; font-family: 'Times New Roman', 'DejaVu Serif'; text-anchor: end" x="27.075" y="24.837343" transform="rotate(-0 27.075 24.837343)">1.0</text>
     </g>
    </g>
    <g id="text_15">
     <text style="font-size: 7.5px; font-family: 'Songti SC', 'Arial Unicode MS'; text-anchor: middle" x="13.282031" y="74.236449" transform="rotate(-90 13.282031 74.236449)">YES 中间价</text>
    </g>
   </g>
   <g id="line2d_14">
    <path d="M 55.677962 74.236449 
L 78.944237 99.114569 
L 102.210513 99.114569 
L 125.476788 98.596275 
L 148.743064 98.596275 
L 172.009339 98.596275 
L 195.275615 100.151158 
L 218.54189 100.151158 
L 241.808166 101.70604 
L 265.074441 102.742629 
L 288.340716 103.260923 
L 311.606992 103.260923 
L 334.873267 103.260923 
L 358.139543 103.260923 
L 381.405818 103.260923 
L 404.672094 103.260923 
L 427.938369 103.260923 
L 451.204645 103.260923 
L 474.47092 103.260923 
L 497.737196 103.260923 
" clip-path="url(#pd85e1c95f2)" style="fill: none; stroke: #0f4d92; stroke-width: 1.5; stroke-linecap: square"/>
    <defs>
     <path id="mf7a1263782" d="M 0 1.4 
C 0.371284 1.4 0.727412 1.252487 0.989949 0.989949 
C 1.252487 0.727412 1.4 0.371284 1.4 0 
C 1.4 -0.371284 1.252487 -0.727412 0.989949 -0.989949 
C 0.727412 -1.252487 0.371284 -1.4 0 -1.4 
C -0.371284 -1.4 -0.727412 -1.252487 -0.989949 -0.989949 
C -1.252487 -0.727412 -1.4 -0.371284 -1.4 0 
C -1.4 0.371284 -1.252487 0.727412 -0.989949 0.989949 
C -0.727412 1.252487 -0.371284 1.4 0 1.4 
z
" style="stroke: #0f4d92"/>
    </defs>
    <g clip-path="url(#pd85e1c95f2)">
     <use xlink:href="#mf7a1263782" x="55.677962" y="74.236449" style="fill: #0f4d92; stroke: #0f4d92"/>
     <use xlink:href="#mf7a1263782" x="78.944237" y="99.114569" style="fill: #0f4d92; stroke: #0f4d92"/>
     <use xlink:href="#mf7a1263782" x="102.210513" y="99.114569" style="fill: #0f4d92; stroke: #0f4d92"/>
     <use xlink:href="#mf7a1263782" x="125.476788" y="98.596275" style="fill: #0f4d92; stroke: #0f4d92"/>
     <use xlink:href="#mf7a1263782" x="148.743064" y="98.596275" style="fill: #0f4d92; stroke: #0f4d92"/>
     <use xlink:href="#mf7a1263782" x="172.009339" y="98.596275" style="fill: #0f4d92; stroke: #0f4d92"/>
     <use xlink:href="#mf7a1263782" x="195.275615" y="100.151158" style="fill: #0f4d92; stroke: #0f4d92"/>
     <use xlink:href="#mf7a1263782" x="218.54189" y="100.151158" style="fill: #0f4d92; stroke: #0f4d92"/>
     <use xlink:href="#mf7a1263782" x="241.808166" y="101.70604" style="fill: #0f4d92; stroke: #0f4d92"/>
     <use xlink:href="#mf7a1263782" x="265.074441" y="102.742629" style="fill: #0f4d92; stroke: #0f4d92"/>
     <use xlink:href="#mf7a1263782" x="288.340716" y="103.260923" style="fill: #0f4d92; stroke: #0f4d92"/>
     <use xlink:href="#mf7a1263782" x="311.606992" y="103.260923" style="fill: #0f4d92; stroke: #0f4d92"/>
     <use xlink:href="#mf7a1263782" x="334.873267" y="103.260923" style="fill: #0f4d92; stroke: #0f4d92"/>
     <use xlink:href="#mf7a1263782" x="358.139543" y="103.260923" style="fill: #0f4d92; stroke: #0f4d92"/>
     <use xlink:href="#mf7a1263782" x="381.405818" y="103.260923" style="fill: #0f4d92; stroke: #0f4d92"/>
     <use xlink:href="#mf7a1263782" x="404.672094" y="103.260923" style="fill: #0f4d92; stroke: #0f4d92"/>
     <use xlink:href="#mf7a1263782" x="427.938369" y="103.260923" style="fill: #0f4d92; stroke: #0f4d92"/>
     <use xlink:href="#mf7a1263782" x="451.204645" y="103.260923" style="fill: #0f4d92; stroke: #0f4d92"/>
     <use xlink:href="#mf7a1263782" x="474.47092" y="103.260923" style="fill: #0f4d92; stroke: #0f4d92"/>
     <use xlink:href="#mf7a1263782" x="497.737196" y="103.260923" style="fill: #0f4d92; stroke: #0f4d92"/>
    </g>
   </g>
   <g id="line2d_15">
    <path d="M 55.677962 89.436788 
L 61.273648 92.33968 
L 66.869335 89.753498 
L 72.465021 89.126139 
L 78.060708 84.424106 
L 83.656394 75.678745 
L 89.252081 76.453966 
L 94.847767 85.523943 
L 100.443454 74.900791 
L 106.03914 74.331091 
L 111.634827 78.079411 
L 117.230513 71.961719 
L 122.8262 66.593535 
L 128.421886 48.698975 
L 134.017573 42.5332 
L 139.613259 36.25767 
L 145.208946 75.619847 
L 150.804632 102.148005 
L 156.400319 100.269219 
L 161.996005 107.419108 
L 167.591692 115.768896 
L 173.187378 111.659959 
L 178.783065 105.225848 
L 184.378751 105.286493 
L 189.974438 100.418818 
L 195.570124 85.323146 
L 201.165811 84.676947 
L 206.761497 86.581884 
L 212.357184 97.083626 
L 217.95287 90.848451 
L 223.548557 87.918104 
L 229.144243 95.743502 
L 234.73993 90.966645 
L 240.335616 92.544776 
L 245.931303 79.936582 
L 251.526989 90.418361 
L 257.122676 89.496046 
L 262.718362 94.642757 
L 268.314049 100.535624 
L 273.909735 96.016295 
L 279.505422 96.279362 
L 285.101109 106.578037 
L 290.696795 109.319295 
L 296.292482 103.726134 
L 301.888168 100.10369 
L 307.483855 102.471505 
L 313.079541 96.945458 
L 318.675228 91.528843 
L 324.270914 94.323778 
L 329.866601 70.081476 
" clip-path="url(#pd85e1c95f2)" style="fill: none; stroke: #4d4d4d; stroke-opacity: 0.86; stroke-width: 1.25; stroke-linecap: square"/>
   </g>
   <g id="line2d_16">
    <path d="M 335.462287 129.175632 
L 335.462287 19.297266 
" clip-path="url(#pd85e1c95f2)" style="fill: none; stroke-dasharray: 5.12,1.28,0.8,1.28; stroke-dashoffset: 0; stroke: #4d4d4d; stroke-opacity: 0.75; stroke-width: 0.8"/>
   </g>
   <g id="line2d_17">
    <path d="M 33.575 22.407031 
L 519.840157 22.407031 
" clip-path="url(#pd85e1c95f2)" style="fill: none; stroke-dasharray: 3.33,1.44; stroke-dashoffset: 0; stroke: #b64342; stroke-width: 0.9"/>
   </g>
   <g id="line2d_18">
    <path d="M 33.575 74.236449 
L 519.840157 74.236449 
" clip-path="url(#pd85e1c95f2)" style="fill: none; stroke-dasharray: 0.8,1.32; stroke-dashoffset: 0; stroke: #767676; stroke-width: 0.8"/>
   </g>
   <g id="patch_3">
    <path d="M 33.575 129.175632 
L 33.575 19.297266 
" style="fill: none; stroke: #000000; stroke-width: 0.8; stroke-linejoin: miter; stroke-linecap: square"/>
   </g>
   <g id="patch_4">
    <path d="M 33.575 129.175632 
L 519.840157 129.175632 
" style="fill: none; stroke: #000000; stroke-width: 0.8; stroke-linejoin: miter; stroke-linecap: square"/>
   </g>
   <g id="text_16">
    <text style="font-size: 7.5px; font-family: 'Songti SC', 'Arial Unicode MS'; text-anchor: middle" x="276.707579" y="13.297266" transform="rotate(-0 276.707579 13.297266)">特朗普周一前部署国民警卫队</text>
   </g>
   <g id="legend_1">
    <g id="line2d_19">
     <path d="M 462.800157 27.078266 
L 467.760157 27.078266 
L 472.720157 27.078266 
" style="fill: none; stroke: #0f4d92; stroke-width: 1.5; stroke-linecap: square"/>
     <g>
      <use xlink:href="#mf7a1263782" x="467.760157" y="27.078266" style="fill: #0f4d92; stroke: #0f4d92"/>
     </g>
    </g>
    <g id="text_17">
     <text style="font-size: 6.2px; font-family: 'Songti SC', 'Arial Unicode MS'; text-anchor: start" x="477.680157" y="29.248266" transform="rotate(-0 477.680157 29.248266)">模拟市场价格</text>
    </g>
    <g id="line2d_20">
     <path d="M 462.800157 36.031453 
L 467.760157 36.031453 
L 472.720157 36.031453 
" style="fill: none; stroke: #4d4d4d; stroke-opacity: 0.86; stroke-width: 1.25; stroke-linecap: square"/>
    </g>
    <g id="text_18">
     <text style="font-size: 6.2px; font-family: 'Songti SC', 'Arial Unicode MS'; text-anchor: start" x="477.680157" y="38.201453" transform="rotate(-0 477.680157 38.201453)">真实市场价格</text>
    </g>
    <g id="line2d_21">
     <path d="M 462.800157 45.015641 
L 467.760157 45.015641 
L 472.720157 45.015641 
" style="fill: none; stroke-dasharray: 5.12,1.28,0.8,1.28; stroke-dashoffset: 0; stroke: #4d4d4d; stroke-opacity: 0.75; stroke-width: 0.8"/>
    </g>
    <g id="text_19">
     <text style="font-size: 6.2px; font-family: 'Songti SC', 'Arial Unicode MS'; text-anchor: start" x="477.680157" y="47.185641" transform="rotate(-0 477.680157 47.185641)">事件结束</text>
    </g>
   </g>
  </g>
 </g>
 <defs>
  <clipPath id="pd85e1c95f2">
   <rect x="33.575" y="19.297266" width="486.265157" height="109.878366"/>
  </clipPath>
 </defs>
</svg>
