<?xml version="1.0" encoding="utf-8" standalone="no"?>
<!DOCTYPE svg PUBLIC "-//W3C//DTD SVG 1.1//EN"
  "http://www.w3.org/Graphics/SVG/1.1/DTD/svg11.dtd">
<svg xmlns:xlink="http://www.w3.org/1999/xlink" width="533.972374pt" height="279.4631pt" viewBox="0 0 533.972374 279.4631" xmlns="http://www.w3.org/2000/svg" version="1.1">
 <metadata>
  <rdf:RDF xmlns:dc="http://purl.org/dc/elements/1.1/" xmlns:cc="http://creativecommons.org/ns#" xmlns:rdf="http://www.w3.org/1999/02/22-rdf-syntax-ns#">
   <cc:Work>
    <dc:type rdf:resource="http://purl.org/dc/dcmitype/StillImage"/>
    <dc:date>2026-05-29T20:53:29.820389</dc:date>
    <dc:format>image/svg+xml</dc:format>
    <dc:creator>
     <cc:Agent>
      <dc:title>Matplotlib v3.10.9, https://matplotlib.org/</dc:title>
     </cc:Agent>
    </dc:creator>
   </cc:Work>
  </rdf:RDF>
 </metadata>
 <defs>
  <style type="text/css">*{stroke-linejoin: round; stroke-linecap: butt}</style>
 </defs>
 <g id="figure_1">
  <g id="patch_1">
   <path d="M 0 279.4631 
L 533.972374 279.4631 
L 533.972374 0 
L 0 0 
z
" style="fill: #ffffff"/>
  </g>
  <g id="axes_1">
   <g id="patch_2">
    <path d="M 78.428152 113.721358 
L 523.6041 113.721358 
L 523.6041 19.781821 
L 78.428152 19.781821 
z
" style="fill: #ffffff"/>
   </g>
   <g id="PathCollection_1">
    <defs>
     <path id="ma322118533" d="M 0 1.414214 
C 0.375054 1.414214 0.734797 1.265203 1 1 
C 1.265203 0.734797 1.414214 0.375054 1.414214 0 
C 1.414214 -0.375054 1.265203 -0.734797 1 -1 
C 0.734797 -1.265203 0.375054 -1.414214 0 -1.414214 
C -0.375054 -1.414214 -0.734797 -1.265203 -1 -1 
C -1.265203 -0.734797 -1.414214 -0.375054 -1.414214 0 
C -1.414214 0.375054 -1.265203 0.734797 -1 1 
C -0.734797 1.265203 -0.375054 1.414214 0 1.414214 
z
"/>
    </defs>
    <g clip-path="url(#pbb323391b5)">
     <use xlink:href="#ma322118533" x="98.663422" y="88.350513" style="fill: #4d4d4d; fill-opacity: 0.75"/>
     <use xlink:href="#ma322118533" x="119.963707" y="88.942587" style="fill: #4d4d4d; fill-opacity: 0.75"/>
     <use xlink:href="#ma322118533" x="141.263991" y="92.668717" style="fill: #4d4d4d; fill-opacity: 0.75"/>
     <use xlink:href="#ma322118533" x="162.564276" y="94.937693" style="fill: #4d4d4d; fill-opacity: 0.75"/>
     <use xlink:href="#ma322118533" x="183.864561" y="97.041686" style="fill: #4d4d4d; fill-opacity: 0.75"/>
     <use xlink:href="#ma322118533" x="205.164845" y="88.877662" style="fill: #4d4d4d; fill-opacity: 0.75"/>
     <use xlink:href="#ma322118533" x="226.46513" y="99.684152" style="fill: #4d4d4d; fill-opacity: 0.75"/>
     <use xlink:href="#ma322118533" x="247.765414" y="95.560739" style="fill: #4d4d4d; fill-opacity: 0.75"/>
     <use xlink:href="#ma322118533" x="269.065699" y="94.720754" style="fill: #4d4d4d; fill-opacity: 0.75"/>
     <use xlink:href="#ma322118533" x="290.365984" y="88.891658" style="fill: #4d4d4d; fill-opacity: 0.75"/>
     <use xlink:href="#ma322118533" x="311.666268" y="95.108216" style="fill: #4d4d4d; fill-opacity: 0.75"/>
     <use xlink:href="#ma322118533" x="332.966553" y="91.718398" style="fill: #4d4d4d; fill-opacity: 0.75"/>
     <use xlink:href="#ma322118533" x="354.266838" y="86.785142" style="fill: #4d4d4d; fill-opacity: 0.75"/>
     <use xlink:href="#ma322118533" x="375.567122" y="92.925347" style="fill: #4d4d4d; fill-opacity: 0.75"/>
     <use xlink:href="#ma322118533" x="396.867407" y="94.869855" style="fill: #4d4d4d; fill-opacity: 0.75"/>
     <use xlink:href="#ma322118533" x="418.167691" y="104.931753" style="fill: #4d4d4d; fill-opacity: 0.75"/>
     <use xlink:href="#ma322118533" x="439.467976" y="102.907739" style="fill: #4d4d4d; fill-opacity: 0.75"/>
     <use xlink:href="#ma322118533" x="460.768261" y="105.336522" style="fill: #4d4d4d; fill-opacity: 0.75"/>
     <use xlink:href="#ma322118533" x="482.068545" y="105.855125" style="fill: #4d4d4d; fill-opacity: 0.75"/>
     <use xlink:href="#ma322118533" x="503.36883" y="110.105572" style="fill: #4d4d4d; fill-opacity: 0.75"/>
    </g>
   </g>
   <g id="matplotlib.axis_1">
    <g id="xtick_1">
     <g id="line2d_1">
      <defs>
       <path id="md7602fe6c1" d="M 0 0 
L 0 3 
" style="stroke: #000000; stroke-width: 0.8"/>
      </defs>
      <g>
       <use xlink:href="#md7602fe6c1" x="95.113375" y="113.721358" style="stroke: #000000; stroke-width: 0.8"/>
      </g>
     </g>
     <g id="text_1">
      <text style="font-size: 7px; font-family: 'Times New Roman', 'DejaVu Serif'; text-anchor: middle" x="95.113375" y="125.081983" transform="rotate(-0 95.113375 125.081983)">0</text>
     </g>
    </g>
    <g id="xtick_2">
     <g id="line2d_2">
      <g>
       <use xlink:href="#md7602fe6c1" x="151.914134" y="113.721358" style="stroke: #000000; stroke-width: 0.8"/>
      </g>
     </g>
     <g id="text_2">
      <text style="font-size: 7px; font-family: 'Times New Roman', 'DejaVu Serif'; text-anchor: middle" x="151.914134" y="125.081983" transform="rotate(-0 151.914134 125.081983)">400</text>
     </g>
    </g>
    <g id="xtick_3">
     <g id="line2d_3">
      <g>
       <use xlink:href="#md7602fe6c1" x="208.714893" y="113.721358" style="stroke: #000000; stroke-width: 0.8"/>
      </g>
     </g>
     <g id="text_3">
      <text style="font-size: 7px; font-family: 'Times New Roman', 'DejaVu Serif'; text-anchor: middle" x="208.714893" y="125.081983" transform="rotate(-0 208.714893 125.081983)">800</text>
     </g>
    </g>
    <g id="xtick_4">
     <g id="line2d_4">
      <g>
       <use xlink:href="#md7602fe6c1" x="265.515652" y="113.721358" style="stroke: #000000; stroke-width: 0.8"/>
      </g>
     </g>
     <g id="text_4">
      <text style="font-size: 7px; font-family: 'Times New Roman', 'DejaVu Serif'; text-anchor: middle" x="265.515652" y="125.081983" transform="rotate(-0 265.515652 125.081983)">1200</text>
     </g>
    </g>
    <g id="xtick_5">
     <g id="line2d_5">
      <g>
       <use xlink:href="#md7602fe6c1" x="322.316411" y="113.721358" style="stroke: #000000; stroke-width: 0.8"/>
      </g>
     </g>
     <g id="text_5">
      <text style="font-size: 7px; font-family: 'Times New Roman', 'DejaVu Serif'; text-anchor: middle" x="322.316411" y="125.081983" transform="rotate(-0 322.316411 125.081983)">1600</text>
     </g>
    </g>
    <g id="xtick_6">
     <g id="line2d_6">
      <g>
       <use xlink:href="#md7602fe6c1" x="379.11717" y="113.721358" style="stroke: #000000; stroke-width: 0.8"/>
      </g>
     </g>
     <g id="text_6">
      <text style="font-size: 7px; font-family: 'Times New Roman', 'DejaVu Serif'; text-anchor: middle" x="379.11717" y="125.081983" transform="rotate(-0 379.11717 125.081983)">2000</text>
     </g>
    </g>
    <g id="xtick_7">
     <g id="line2d_7">
      <g>
       <use xlink:href="#md7602fe6c1" x="435.917929" y="113.721358" style="stroke: #000000; stroke-width: 0.8"/>
      </g>
     </g>
     <g id="text_7">
      <text style="font-size: 7px; font-family: 'Times New Roman', 'DejaVu Serif'; text-anchor: middle" x="435.917929" y="125.081983" transform="rotate(-0 435.917929 125.081983)">2400</text>
     </g>
    </g>
    <g id="xtick_8">
     <g id="line2d_8">
      <g>
       <use xlink:href="#md7602fe6c1" x="492.718688" y="113.721358" style="stroke: #000000; stroke-width: 0.8"/>
      </g>
     </g>
     <g id="text_8">
      <text style="font-size: 7px; font-family: 'Times New Roman', 'DejaVu Serif'; text-anchor: middle" x="492.718688" y="125.081983" transform="rotate(-0 492.718688 125.081983)">2800</text>
     </g>
    </g>
    <g id="text_9">
     <text style="font-size: 7.5px; font-family: 'Songti SC', 'Arial Unicode MS'; text-anchor: middle" x="301.016126" y="136.668389" transform="rotate(-0 301.016126 136.668389)">真实累积成交笔数</text>
    </g>
   </g>
   <g id="matplotlib.axis_2">
    <g id="ytick_1">
     <g id="line2d_9">
      <defs>
       <path id="m97c860a641" d="M 0 0 
L -3 0 
" style="stroke: #000000; stroke-width: 0.8"/>
      </defs>
      <g>
       <use xlink:href="#m97c860a641" x="78.428152" y="111.062692" style="stroke: #000000; stroke-width: 0.8"/>
      </g>
     </g>
     <g id="text_10">
      <text style="font-size: 7px; font-family: 'Times New Roman', 'DejaVu Serif'; text-anchor: end" x="71.928152" y="113.493004" transform="rotate(-0 71.928152 113.493004)">0.0</text>
     </g>
    </g>
    <g id="ytick_2">
     <g id="line2d_10">
      <g>
       <use xlink:href="#m97c860a641" x="78.428152" y="93.338251" style="stroke: #000000; stroke-width: 0.8"/>
      </g>
     </g>
     <g id="text_11">
      <text style="font-size: 7px; font-family: 'Times New Roman', 'DejaVu Serif'; text-anchor: end" x="71.928152" y="95.768563" transform="rotate(-0 71.928152 95.768563)">0.2</text>
     </g>
    </g>
    <g id="ytick_3">
     <g id="line2d_11">
      <g>
       <use xlink:href="#m97c860a641" x="78.428152" y="75.61381" style="stroke: #000000; stroke-width: 0.8"/>
      </g>
     </g>
     <g id="text_12">
      <text style="font-size: 7px; font-family: 'Times New Roman', 'DejaVu Serif'; text-anchor: end" x="71.928152" y="78.044122" transform="rotate(-0 71.928152 78.044122)">0.4</text>
     </g>
    </g>
    <g id="ytick_4">
     <g id="line2d_12">
      <g>
       <use xlink:href="#m97c860a641" x="78.428152" y="57.889369" style="stroke: #000000; stroke-width: 0.8"/>
      </g>
     </g>
     <g id="text_13">
      <text style="font-size: 7px; font-family: 'Times New Roman', 'DejaVu Serif'; text-anchor: end" x="71.928152" y="60.319681" transform="rotate(-0 71.928152 60.319681)">0.6</text>
     </g>
    </g>
    <g id="ytick_5">
     <g id="line2d_13">
      <g>
       <use xlink:href="#m97c860a641" x="78.428152" y="40.164928" style="stroke: #000000; stroke-width: 0.8"/>
      </g>
     </g>
     <g id="text_14">
      <text style="font-size: 7px; font-family: 'Times New Roman', 'DejaVu Serif'; text-anchor: end" x="71.928152" y="42.59524" transform="rotate(-0 71.928152 42.59524)">0.8</text>
     </g>
    </g>
    <g id="ytick_6">
     <g id="line2d_14">
      <g>
       <use xlink:href="#m97c860a641" x="78.428152" y="22.440487" style="stroke: #000000; stroke-width: 0.8"/>
      </g>
     </g>
     <g id="text_15">
      <text style="font-size: 7px; font-family: 'Times New Roman', 'DejaVu Serif'; text-anchor: end" x="71.928152" y="24.870799" transform="rotate(-0 71.928152 24.870799)">1.0</text>
     </g>
    </g>
    <g id="text_16">
     <text style="font-size: 7.5px; font-family: 'Songti SC', 'Arial Unicode MS'; text-anchor: middle" x="58.135183" y="66.751589" transform="rotate(-90 58.135183 66.751589)">YES 价格</text>
    </g>
   </g>
   <g id="line2d_15">
    <path d="M 98.663422 88.350513 
L 102.21347 89.544097 
L 105.763517 87.98521 
L 109.313564 88.0172 
L 112.863612 88.694448 
L 116.413659 88.62355 
L 119.963707 88.942587 
L 123.513754 88.729896 
L 127.063802 88.30451 
L 130.613849 88.588101 
L 134.163896 90.104115 
L 137.713944 91.13082 
L 141.263991 92.668717 
L 144.814039 90.559109 
L 148.364086 90.019692 
L 151.914134 90.431443 
L 155.464181 91.37726 
L 159.014229 93.169066 
L 162.564276 94.937693 
L 166.114323 96.889128 
L 169.664371 98.377637 
L 173.214418 98.863524 
L 176.764466 94.588465 
L 180.314513 95.747669 
L 183.864561 97.041686 
L 187.414608 96.821443 
L 190.964655 96.384215 
L 194.514703 96.455797 
L 198.06475 95.569425 
L 201.614798 93.754677 
L 205.164845 88.877662 
L 208.714893 92.738312 
L 212.26494 93.716427 
L 215.814988 96.156078 
L 219.365035 99.160156 
L 222.915082 99.258214 
L 226.46513 99.684152 
L 230.015177 97.755558 
L 233.565225 97.343806 
L 237.115272 98.375344 
L 240.66532 98.052953 
L 244.215367 95.71213 
L 247.765414 95.560739 
L 251.315462 92.398506 
L 254.865509 92.945727 
L 258.415557 93.236283 
L 261.965604 93.65729 
L 265.515652 94.27064 
L 269.065699 94.720754 
L 272.615746 94.791654 
L 276.165794 94.388899 
L 279.715841 90.810521 
L 283.265889 89.571128 
L 286.815936 89.783191 
L 290.365984 88.891658 
L 293.916031 88.116448 
L 297.466079 87.920909 
L 301.016126 90.89982 
L 304.566173 93.366965 
L 308.116221 94.344014 
L 311.666268 95.108216 
L 315.216316 95.004349 
L 318.766363 94.917955 
L 322.316411 94.777383 
L 325.866458 91.80972 
L 329.416505 90.555043 
L 332.966553 91.718398 
L 336.5166 90.709591 
L 340.066648 91.031505 
L 343.616695 90.424588 
L 347.166743 89.760785 
L 350.71679 86.028543 
L 354.266838 86.785142 
L 357.816885 86.951516 
L 361.366932 88.080366 
L 364.91698 92.644775 
L 368.467027 90.570565 
L 372.017075 91.070021 
L 375.567122 92.925347 
L 379.11717 92.035332 
L 382.667217 95.176111 
L 386.217264 94.938939 
L 389.767312 95.040126 
L 393.317359 95.379897 
L 396.867407 94.869855 
L 400.417454 94.693792 
L 403.967502 103.860392 
L 407.517549 104.75912 
L 411.067596 104.007924 
L 414.617644 104.783967 
L 418.167691 104.931753 
L 421.717739 104.464617 
L 425.267786 103.263806 
L 428.817834 104.497855 
L 432.367881 104.894587 
L 435.917929 103.364941 
L 439.467976 102.907739 
L 443.018023 103.231763 
L 446.568071 102.086109 
L 450.118118 105.578822 
L 453.668166 106.38344 
L 457.218213 106.343796 
L 460.768261 105.336522 
L 464.318308 104.405705 
L 467.868355 104.967073 
L 471.418403 104.0568 
L 474.96845 104.362853 
L 478.518498 104.902991 
L 482.068545 105.855125 
L 485.618593 104.96672 
L 489.16864 106.253 
L 492.718688 106.729948 
L 496.268735 106.477575 
L 499.818782 109.500558 
L 503.36883 110.105572 
" clip-path="url(#pbb323391b5)" style="fill: none; stroke: #4d4d4d; stroke-width: 1.25; stroke-linecap: square"/>
   </g>
   <g id="line2d_16">
    <path d="M 506.918877 113.721358 
L 506.918877 19.781821 
" clip-path="url(#pbb323391b5)" style="fill: none; stroke-dasharray: 5.12,1.28,0.8,1.28; stroke-dashoffset: 0; stroke: #4d4d4d; stroke-opacity: 0.75; stroke-width: 0.8"/>
   </g>
   <g id="line2d_17">
    <path d="M 78.428152 111.062692 
L 523.6041 111.062692 
" clip-path="url(#pbb323391b5)" style="fill: none; stroke-dasharray: 3.33,1.44; stroke-dashoffset: 0; stroke: #8bcf8b; stroke-width: 0.9"/>
   </g>
   <g id="line2d_18">
    <path d="M 78.428152 66.751589 
L 523.6041 66.751589 
" clip-path="url(#pbb323391b5)" style="fill: none; stroke-dasharray: 0.8,1.32; stroke-dashoffset: 0; stroke: #767676; stroke-width: 0.8"/>
   </g>
   <g id="patch_3">
    <path d="M 78.428152 113.721358 
L 78.428152 19.781821 
" style="fill: none; stroke: #000000; stroke-width: 0.8; stroke-linejoin: miter; stroke-linecap: square"/>
   </g>
   <g id="patch_4">
    <path d="M 78.428152 113.721358 
L 523.6041 113.721358 
" style="fill: none; stroke: #000000; stroke-width: 0.8; stroke-linejoin: miter; stroke-linecap: square"/>
   </g>
   <g id="text_17">
    <text style="font-weight: 700; font-size: 9px; font-family: 'Times New Roman', 'DejaVu Serif'; text-anchor: start" x="7.2" y="13.159688" transform="rotate(-0 7.2 13.159688)">a</text>
   </g>
   <g id="text_18">
    <text style="font-size: 7.5px; font-family: 'Songti SC', 'Arial Unicode MS'; text-anchor: middle" x="301.016126" y="13.781821" transform="rotate(-0 301.016126 13.781821)">Lord Miles完成40天禁食挑战</text>
   </g>
   <g id="legend_1">
    <g id="line2d_19">
     <path d="M 83.388152 27.562821 
L 88.348152 27.562821 
L 93.308152 27.562821 
" style="fill: none; stroke: #4d4d4d; stroke-width: 1.25; stroke-linecap: square"/>
    </g>
    <g id="text_19">
     <text style="font-size: 6.2px; font-family: 'Songti SC', 'Arial Unicode MS'; text-anchor: start" x="98.268152" y="29.732821" transform="rotate(-0 98.268152 29.732821)">真实市场价格</text>
    </g>
    <g id="line2d_20">
     <path d="M 83.388152 36.547008 
L 88.348152 36.547008 
L 93.308152 36.547008 
" style="fill: none; stroke-dasharray: 5.12,1.28,0.8,1.28; stroke-dashoffset: 0; stroke: #4d4d4d; stroke-opacity: 0.75; stroke-width: 0.8"/>
    </g>
    <g id="text_20">
     <text style="font-size: 6.2px; font-family: 'Songti SC', 'Arial Unicode MS'; text-anchor: start" x="98.268152" y="38.717008" transform="rotate(-0 98.268152 38.717008)">事件结束</text>
    </g>
   </g>
  </g>
  <g id="axes_2">
   <g id="patch_5">
    <path d="M 78.428152 248.2731 
L 523.6041 248.2731 
L 523.6041 154.333563 
L 78.428152 154.333563 
z
" style="fill: #ffffff"/>
   </g>
   <g id="matplotlib.axis_3">
    <g id="xtick_9">
     <g id="line2d_21">
      <g>
       <use xlink:href="#md7602fe6c1" x="98.663422" y="248.2731" style="stroke: #000000; stroke-width: 0.8"/>
      </g>
     </g>
     <g id="text_21">
      <text style="font-size: 7px; font-family: 'Times New Roman', 'DejaVu Serif'; text-anchor: middle" x="98.663422" y="259.633725" transform="rotate(-0 98.663422 259.633725)">0</text>
     </g>
    </g>
    <g id="xtick_10">
     <g id="line2d_22">
      <g>
       <use xlink:href="#md7602fe6c1" x="151.739541" y="248.2731" style="stroke: #000000; stroke-width: 0.8"/>
      </g>
     </g>
     <g id="text_22">
      <text style="font-size: 7px; font-family: 'Times New Roman', 'DejaVu Serif'; text-anchor: middle" x="151.739541" y="259.633725" transform="rotate(-0 151.739541 259.633725)">8</text>
     </g>
    </g>
    <g id="xtick_11">
     <g id="line2d_23">
      <g>
       <use xlink:href="#md7602fe6c1" x="204.81566" y="248.2731" style="stroke: #000000; stroke-width: 0.8"/>
      </g>
     </g>
     <g id="text_23">
      <text style="font-size: 7px; font-family: 'Times New Roman', 'DejaVu Serif'; text-anchor: middle" x="204.81566" y="259.633725" transform="rotate(-0 204.81566 259.633725)">16</text>
     </g>
    </g>
    <g id="xtick_12">
     <g id="line2d_24">
      <g>
       <use xlink:href="#md7602fe6c1" x="257.891779" y="248.2731" style="stroke: #000000; stroke-width: 0.8"/>
      </g>
     </g>
     <g id="text_24">
      <text style="font-size: 7px; font-family: 'Times New Roman', 'DejaVu Serif'; text-anchor: middle" x="257.891779" y="259.633725" transform="rotate(-0 257.891779 259.633725)">24</text>
     </g>
    </g>
    <g id="xtick_13">
     <g id="line2d_25">
      <g>
       <use xlink:href="#md7602fe6c1" x="310.967898" y="248.2731" style="stroke: #000000; stroke-width: 0.8"/>
      </g>
     </g>
     <g id="text_25">
      <text style="font-size: 7px; font-family: 'Times New Roman', 'DejaVu Serif'; text-anchor: middle" x="310.967898" y="259.633725" transform="rotate(-0 310.967898 259.633725)">32</text>
     </g>
    </g>
    <g id="xtick_14">
     <g id="line2d_26">
      <g>
       <use xlink:href="#md7602fe6c1" x="364.044017" y="248.2731" style="stroke: #000000; stroke-width: 0.8"/>
      </g>
     </g>
     <g id="text_26">
      <text style="font-size: 7px; font-family: 'Times New Roman', 'DejaVu Serif'; text-anchor: middle" x="364.044017" y="259.633725" transform="rotate(-0 364.044017 259.633725)">40</text>
     </g>
    </g>
    <g id="xtick_15">
     <g id="line2d_27">
      <g>
       <use xlink:href="#md7602fe6c1" x="417.120136" y="248.2731" style="stroke: #000000; stroke-width: 0.8"/>
      </g>
     </g>
     <g id="text_27">
      <text style="font-size: 7px; font-family: 'Times New Roman', 'DejaVu Serif'; text-anchor: middle" x="417.120136" y="259.633725" transform="rotate(-0 417.120136 259.633725)">48</text>
     </g>
    </g>
    <g id="xtick_16">
     <g id="line2d_28">
      <g>
       <use xlink:href="#md7602fe6c1" x="470.196255" y="248.2731" style="stroke: #000000; stroke-width: 0.8"/>
      </g>
     </g>
     <g id="text_28">
      <text style="font-size: 7px; font-family: 'Times New Roman', 'DejaVu Serif'; text-anchor: middle" x="470.196255" y="259.633725" transform="rotate(-0 470.196255 259.633725)">56</text>
     </g>
    </g>
    <g id="xtick_17">
     <g id="line2d_29">
      <g>
       <use xlink:href="#md7602fe6c1" x="523.272374" y="248.2731" style="stroke: #000000; stroke-width: 0.8"/>
      </g>
     </g>
     <g id="text_29">
      <text style="font-size: 7px; font-family: 'Times New Roman', 'DejaVu Serif'; text-anchor: middle" x="523.272374" y="259.633725" transform="rotate(-0 523.272374 259.633725)">64</text>
     </g>
    </g>
    <g id="text_30">
     <text style="font-size: 7.5px; font-family: 'Songti SC', 'Arial Unicode MS'; text-anchor: middle" x="301.016126" y="271.220131" transform="rotate(-0 301.016126 271.220131)">模拟累积成交笔数</text>
    </g>
   </g>
   <g id="matplotlib.axis_4">
    <g id="ytick_7">
     <g id="line2d_30">
      <g>
       <use xlink:href="#m97c860a641" x="78.428152" y="245.614434" style="stroke: #000000; stroke-width: 0.8"/>
      </g>
     </g>
     <g id="text_31">
      <text style="font-size: 7px; font-family: 'Times New Roman', 'DejaVu Serif'; text-anchor: end" x="71.928152" y="248.044746" transform="rotate(-0 71.928152 248.044746)">0.0</text>
     </g>
    </g>
    <g id="ytick_8">
     <g id="line2d_31">
      <g>
       <use xlink:href="#m97c860a641" x="78.428152" y="227.889993" style="stroke: #000000; stroke-width: 0.8"/>
      </g>
     </g>
     <g id="text_32">
      <text style="font-size: 7px; font-family: 'Times New Roman', 'DejaVu Serif'; text-anchor: end" x="71.928152" y="230.320305" transform="rotate(-0 71.928152 230.320305)">0.2</text>
     </g>
    </g>
    <g id="ytick_9">
     <g id="line2d_32">
      <g>
       <use xlink:href="#m97c860a641" x="78.428152" y="210.165552" style="stroke: #000000; stroke-width: 0.8"/>
      </g>
     </g>
     <g id="text_33">
      <text style="font-size: 7px; font-family: 'Times New Roman', 'DejaVu Serif'; text-anchor: end" x="71.928152" y="212.595864" transform="rotate(-0 71.928152 212.595864)">0.4</text>
     </g>
    </g>
    <g id="ytick_10">
     <g id="line2d_33">
      <g>
       <use xlink:href="#m97c860a641" x="78.428152" y="192.441111" style="stroke: #000000; stroke-width: 0.8"/>
      </g>
     </g>
     <g id="text_34">
      <text style="font-size: 7px; font-family: 'Times New Roman', 'DejaVu Serif'; text-anchor: end" x="71.928152" y="194.871423" transform="rotate(-0 71.928152 194.871423)">0.6</text>
     </g>
    </g>
    <g id="ytick_11">
     <g id="line2d_34">
      <g>
       <use xlink:href="#m97c860a641" x="78.428152" y="174.71667" style="stroke: #000000; stroke-width: 0.8"/>
      </g>
     </g>
     <g id="text_35">
      <text style="font-size: 7px; font-family: 'Times New Roman', 'DejaVu Serif'; text-anchor: end" x="71.928152" y="177.146982" transform="rotate(-0 71.928152 177.146982)">0.8</text>
     </g>
    </g>
    <g id="ytick_12">
     <g id="line2d_35">
      <g>
       <use xlink:href="#m97c860a641" x="78.428152" y="156.992229" style="stroke: #000000; stroke-width: 0.8"/>
      </g>
     </g>
     <g id="text_36">
      <text style="font-size: 7px; font-family: 'Times New Roman', 'DejaVu Serif'; text-anchor: end" x="71.928152" y="159.422541" transform="rotate(-0 71.928152 159.422541)">1.0</text>
     </g>
    </g>
    <g id="text_37">
     <text style="font-size: 7.5px; font-family: 'Songti SC', 'Arial Unicode MS'; text-anchor: middle" x="58.135183" y="201.303331" transform="rotate(-90 58.135183 201.303331)">YES 价格</text>
    </g>
   </g>
   <g id="line2d_36">
    <path d="M 98.663422 224.345105 
L 98.663422 224.345105 
L 111.932452 224.788216 
L 145.105026 224.788216 
L 151.739541 224.788216 
L 151.739541 224.788216 
L 165.008571 224.788216 
L 171.643086 224.788216 
L 198.181145 224.788216 
L 218.08469 224.788216 
L 237.988235 225.231327 
L 271.160809 225.231327 
L 304.333383 225.674438 
L 324.236928 224.788216 
L 350.774988 225.674438 
L 370.678532 224.788216 
L 383.947562 224.788216 
L 410.485622 224.788216 
L 450.292711 223.015772 
L 490.0998 224.788216 
L 503.36883 227.003771 
" clip-path="url(#p36faa6a678)" style="fill: none; stroke: #0f4d92; stroke-width: 1.5; stroke-linecap: square"/>
    <defs>
     <path id="m491f16ba65" d="M 0 1.4 
C 0.371284 1.4 0.727412 1.252487 0.989949 0.989949 
C 1.252487 0.727412 1.4 0.371284 1.4 0 
C 1.4 -0.371284 1.252487 -0.727412 0.989949 -0.989949 
C 0.727412 -1.252487 0.371284 -1.4 0 -1.4 
C -0.371284 -1.4 -0.727412 -1.252487 -0.989949 -0.989949 
C -1.252487 -0.727412 -1.4 -0.371284 -1.4 0 
C -1.4 0.371284 -1.252487 0.727412 -0.989949 0.989949 
C -0.727412 1.252487 -0.371284 1.4 0 1.4 
z
" style="stroke: #0f4d92"/>
    </defs>
    <g clip-path="url(#p36faa6a678)">
     <use xlink:href="#m491f16ba65" x="98.663422" y="224.345105" style="fill: #0f4d92; stroke: #0f4d92"/>
     <use xlink:href="#m491f16ba65" x="98.663422" y="224.345105" style="fill: #0f4d92; stroke: #0f4d92"/>
     <use xlink:href="#m491f16ba65" x="111.932452" y="224.788216" style="fill: #0f4d92; stroke: #0f4d92"/>
     <use xlink:href="#m491f16ba65" x="145.105026" y="224.788216" style="fill: #0f4d92; stroke: #0f4d92"/>
     <use xlink:href="#m491f16ba65" x="151.739541" y="224.788216" style="fill: #0f4d92; stroke: #0f4d92"/>
     <use xlink:href="#m491f16ba65" x="151.739541" y="224.788216" style="fill: #0f4d92; stroke: #0f4d92"/>
     <use xlink:href="#m491f16ba65" x="165.008571" y="224.788216" style="fill: #0f4d92; stroke: #0f4d92"/>
     <use xlink:href="#m491f16ba65" x="171.643086" y="224.788216" style="fill: #0f4d92; stroke: #0f4d92"/>
     <use xlink:href="#m491f16ba65" x="198.181145" y="224.788216" style="fill: #0f4d92; stroke: #0f4d92"/>
     <use xlink:href="#m491f16ba65" x="218.08469" y="224.788216" style="fill: #0f4d92; stroke: #0f4d92"/>
     <use xlink:href="#m491f16ba65" x="237.988235" y="225.231327" style="fill: #0f4d92; stroke: #0f4d92"/>
     <use xlink:href="#m491f16ba65" x="271.160809" y="225.231327" style="fill: #0f4d92; stroke: #0f4d92"/>
     <use xlink:href="#m491f16ba65" x="304.333383" y="225.674438" style="fill: #0f4d92; stroke: #0f4d92"/>
     <use xlink:href="#m491f16ba65" x="324.236928" y="224.788216" style="fill: #0f4d92; stroke: #0f4d92"/>
     <use xlink:href="#m491f16ba65" x="350.774988" y="225.674438" style="fill: #0f4d92; stroke: #0f4d92"/>
     <use xlink:href="#m491f16ba65" x="370.678532" y="224.788216" style="fill: #0f4d92; stroke: #0f4d92"/>
     <use xlink:href="#m491f16ba65" x="383.947562" y="224.788216" style="fill: #0f4d92; stroke: #0f4d92"/>
     <use xlink:href="#m491f16ba65" x="410.485622" y="224.788216" style="fill: #0f4d92; stroke: #0f4d92"/>
     <use xlink:href="#m491f16ba65" x="450.292711" y="223.015772" style="fill: #0f4d92; stroke: #0f4d92"/>
     <use xlink:href="#m491f16ba65" x="490.0998" y="224.788216" style="fill: #0f4d92; stroke: #0f4d92"/>
     <use xlink:href="#m491f16ba65" x="503.36883" y="227.003771" style="fill: #0f4d92; stroke: #0f4d92"/>
    </g>
   </g>
   <g id="line2d_37">
    <path d="M 78.428152 245.614434 
L 523.6041 245.614434 
" clip-path="url(#p36faa6a678)" style="fill: none; stroke-dasharray: 3.33,1.44; stroke-dashoffset: 0; stroke: #8bcf8b; stroke-width: 0.9"/>
   </g>
   <g id="line2d_38">
    <path d="M 78.428152 201.303331 
L 523.6041 201.303331 
" clip-path="url(#p36faa6a678)" style="fill: none; stroke-dasharray: 0.8,1.32; stroke-dashoffset: 0; stroke: #767676; stroke-width: 0.8"/>
   </g>
   <g id="patch_6">
    <path d="M 78.428152 248.2731 
L 78.428152 154.333563 
" style="fill: none; stroke: #000000; stroke-width: 0.8; stroke-linejoin: miter; stroke-linecap: square"/>
   </g>
   <g id="patch_7">
    <path d="M 78.428152 248.2731 
L 523.6041 248.2731 
" style="fill: none; stroke: #000000; stroke-width: 0.8; stroke-linejoin: miter; stroke-linecap: square"/>
   </g>
   <g id="text_38">
    <text style="font-weight: 700; font-size: 9px; font-family: 'Times New Roman', 'DejaVu Serif'; text-anchor: start" x="7.2" y="147.71143" transform="rotate(-0 7.2 147.71143)">b</text>
   </g>
   <g id="legend_2">
    <g id="line2d_39">
     <path d="M 466.5641 162.114563 
L 471.5241 162.114563 
L 476.4841 162.114563 
" style="fill: none; stroke: #0f4d92; stroke-width: 1.5; stroke-linecap: square"/>
     <g>
      <use xlink:href="#m491f16ba65" x="471.5241" y="162.114563" style="fill: #0f4d92; stroke: #0f4d92"/>
     </g>
    </g>
    <g id="text_39">
     <text style="font-size: 6.2px; font-family: 'Songti SC', 'Arial Unicode MS'; text-anchor: start" x="481.4441" y="164.284563" transform="rotate(-0 481.4441 164.284563)">模拟市场价格</text>
    </g>
   </g>
  </g>
 </g>
 <defs>
  <clipPath id="pbb323391b5">
   <rect x="78.428152" y="19.781821" width="445.175948" height="93.939537"/>
  </clipPath>
  <clipPath id="p36faa6a678">
   <rect x="78.428152" y="154.333563" width="445.175948" height="93.939537"/>
  </clipPath>
 </defs>
</svg>
