<?xml version="1.0" encoding="utf-8" standalone="no"?>
<!DOCTYPE svg PUBLIC "-//W3C//DTD SVG 1.1//EN"
  "http://www.w3.org/Graphics/SVG/1.1/DTD/svg11.dtd">
<svg xmlns:xlink="http://www.w3.org/1999/xlink" width="526.823126pt" height="183.070991pt" viewBox="0 0 526.823126 183.070991" xmlns="http://www.w3.org/2000/svg" version="1.1">
 <metadata>
  <rdf:RDF xmlns:dc="http://purl.org/dc/elements/1.1/" xmlns:cc="http://creativecommons.org/ns#" xmlns:rdf="http://www.w3.org/1999/02/22-rdf-syntax-ns#">
   <cc:Work>
    <dc:type rdf:resource="http://purl.org/dc/dcmitype/StillImage"/>
    <dc:date>2026-05-29T21:34:24.173726</dc:date>
    <dc:format>image/svg+xml</dc:format>
    <dc:creator>
     <cc:Agent>
      <dc:title>Matplotlib v3.10.9, https://matplotlib.org/</dc:title>
     </cc:Agent>
    </dc:creator>
   </cc:Work>
  </rdf:RDF>
 </metadata>
 <defs>
  <style type="text/css">*{stroke-linejoin: round; stroke-linecap: butt}</style>
 </defs>
 <g id="figure_1">
  <g id="patch_1">
   <path d="M 0 183.070991 
L 526.823126 183.070991 
L 526.823126 0 
L 0 0 
z
" style="fill: #ffffff"/>
  </g>
  <g id="axes_1">
   <g id="patch_2">
    <path d="M 44.030469 151.872788 
L 261.753047 151.872788 
L 261.753047 21.598555 
L 44.030469 21.598555 
z
" style="fill: #ffffff"/>
   </g>
   <g id="FillBetweenPolyCollection_1">
    <defs>
     <path id="m2759c983f3" d="M 53.92695 -60.166526 
L 53.92695 -37.119759 
L 55.17179 -37.119759 
L 56.41663 -37.119759 
L 57.661471 -37.119759 
L 58.906311 -37.119759 
L 60.151151 -37.119759 
L 61.395992 -37.119759 
L 62.640832 -37.119759 
L 63.885672 -37.119759 
L 65.130513 -37.119759 
L 66.375353 -37.119759 
L 67.620194 -37.119759 
L 68.865034 -37.119759 
L 70.109874 -37.119759 
L 71.354715 -37.119759 
L 72.599555 -37.119759 
L 73.844395 -37.119759 
L 75.089236 -37.119759 
L 76.334076 -37.119759 
L 77.578916 -37.119759 
L 78.823757 -37.119759 
L 80.068597 -37.119759 
L 81.313437 -37.119759 
L 82.558278 -37.119759 
L 83.803118 -37.119759 
L 85.047959 -37.119759 
L 86.292799 -37.119759 
L 87.537639 -37.119759 
L 88.78248 -37.119759 
L 90.02732 -37.119759 
L 91.27216 -37.119759 
L 92.517001 -37.119759 
L 93.761841 -37.119759 
L 95.006681 -37.119759 
L 96.251522 -37.119759 
L 97.496362 -37.119759 
L 98.741203 -37.119759 
L 99.986043 -37.119759 
L 101.230883 -37.119759 
L 102.475724 -37.119759 
L 103.720564 -37.119759 
L 104.965404 -37.119759 
L 106.210245 -37.119759 
L 107.455085 -37.119759 
L 108.699925 -37.119759 
L 109.944766 -37.119759 
L 111.189606 -37.119759 
L 112.434446 -37.119759 
L 113.679287 -37.119759 
L 114.924127 -37.119759 
L 116.168968 -37.119759 
L 117.413808 -37.119759 
L 118.658648 -37.119759 
L 119.903489 -37.119759 
L 121.148329 -37.119759 
L 122.393169 -37.119759 
L 123.63801 -37.119759 
L 124.88285 -37.119759 
L 126.12769 -37.119759 
L 127.372531 -37.119759 
L 128.617371 -37.119759 
L 129.862211 -37.119759 
L 131.107052 -37.119759 
L 132.351892 -37.119759 
L 133.596733 -37.119759 
L 134.841573 -37.119759 
L 136.086413 -37.119759 
L 137.331254 -37.119759 
L 138.576094 -37.119759 
L 139.820934 -37.119759 
L 141.065775 -37.119759 
L 142.310615 -37.119759 
L 143.555455 -37.119759 
L 144.800296 -37.119759 
L 146.045136 -37.119759 
L 147.289977 -37.119759 
L 148.534817 -37.119759 
L 149.779657 -37.119759 
L 151.024498 -37.119759 
L 152.269338 -37.119759 
L 153.514178 -37.119759 
L 154.759019 -37.119759 
L 156.003859 -37.119759 
L 157.248699 -37.119759 
L 158.49354 -37.119759 
L 159.73838 -37.119759 
L 160.98322 -37.119759 
L 162.228061 -37.119759 
L 163.472901 -37.119759 
L 164.717742 -37.119759 
L 165.962582 -37.119759 
L 167.207422 -37.119759 
L 168.452263 -37.119759 
L 169.697103 -37.119759 
L 170.941943 -37.119759 
L 172.186784 -37.119759 
L 173.431624 -37.119759 
L 174.676464 -37.119759 
L 175.921305 -37.119759 
L 177.166145 -37.119759 
L 178.410985 -37.119759 
L 179.655826 -37.119759 
L 180.900666 -37.119759 
L 182.145507 -37.119759 
L 183.390347 -37.119759 
L 184.635187 -37.119759 
L 185.880028 -37.119759 
L 187.124868 -37.119759 
L 188.369708 -37.119759 
L 189.614549 -37.119759 
L 190.859389 -37.119759 
L 192.104229 -37.119759 
L 193.34907 -37.119759 
L 194.59391 -37.119759 
L 195.83875 -37.119759 
L 197.083591 -37.119759 
L 198.328431 -37.119759 
L 199.573272 -37.119759 
L 200.818112 -37.119759 
L 202.062952 -37.119759 
L 203.307793 -37.119759 
L 204.552633 -37.119759 
L 205.797473 -37.119759 
L 207.042314 -37.119759 
L 208.287154 -37.119759 
L 209.531994 -37.119759 
L 210.776835 -37.119759 
L 212.021675 -37.119759 
L 213.266516 -37.119759 
L 214.511356 -37.119759 
L 215.756196 -37.119759 
L 217.001037 -37.119759 
L 218.245877 -37.119759 
L 219.490717 -37.119759 
L 220.735558 -37.119759 
L 221.980398 -37.119759 
L 223.225238 -37.119759 
L 224.470079 -37.119759 
L 225.714919 -37.119759 
L 226.959759 -37.119759 
L 228.2046 -37.119759 
L 229.44944 -37.119759 
L 230.694281 -37.119759 
L 231.939121 -37.119759 
L 233.183961 -37.119759 
L 234.428802 -37.119759 
L 235.673642 -37.119759 
L 236.918482 -37.119759 
L 238.163323 -37.119759 
L 239.408163 -37.119759 
L 240.653003 -37.119759 
L 241.897844 -37.119759 
L 243.142684 -37.119759 
L 244.387524 -37.119759 
L 245.632365 -37.119759 
L 246.877205 -37.119759 
L 248.122046 -37.119759 
L 249.366886 -37.119759 
L 250.611726 -37.119759 
L 251.856567 -37.119759 
L 251.856567 -37.119759 
L 251.856567 -37.119759 
L 250.611726 -37.119759 
L 249.366886 -37.119759 
L 248.122046 -37.119759 
L 246.877205 -37.119759 
L 245.632365 -37.119759 
L 244.387524 -37.119759 
L 243.142684 -37.119759 
L 241.897844 -37.119759 
L 240.653003 -37.119759 
L 239.408163 -37.119759 
L 238.163323 -37.119759 
L 236.918482 -37.119759 
L 235.673642 -37.119759 
L 234.428802 -37.119759 
L 233.183961 -37.119759 
L 231.939121 -37.119759 
L 230.694281 -37.119759 
L 229.44944 -37.119759 
L 228.2046 -37.119759 
L 226.959759 -37.119759 
L 225.714919 -37.119759 
L 224.470079 -37.119759 
L 223.225238 -37.119759 
L 221.980398 -37.119759 
L 220.735558 -37.119759 
L 219.490717 -37.119759 
L 218.245877 -37.119759 
L 217.001037 -37.119759 
L 215.756196 -37.119759 
L 214.511356 -37.119759 
L 213.266516 -37.119759 
L 212.021675 -37.119759 
L 210.776835 -37.119759 
L 209.531994 -37.119759 
L 208.287154 -37.119759 
L 207.042314 -37.119759 
L 205.797473 -37.119759 
L 204.552633 -37.119759 
L 203.307793 -37.119759 
L 202.062952 -37.119759 
L 200.818112 -37.119759 
L 199.573272 -37.119759 
L 198.328431 -37.119759 
L 197.083591 -37.119759 
L 195.83875 -37.119759 
L 194.59391 -37.119759 
L 193.34907 -37.119759 
L 192.104229 -37.119759 
L 190.859389 -37.119759 
L 189.614549 -37.119759 
L 188.369708 -37.119759 
L 187.124868 -37.119759 
L 185.880028 -37.119759 
L 184.635187 -37.119759 
L 183.390347 -37.119759 
L 182.145507 -37.119759 
L 180.900666 -37.119759 
L 179.655826 -37.119759 
L 178.410985 -37.119759 
L 177.166145 -37.119759 
L 175.921305 -37.119759 
L 174.676464 -37.119759 
L 173.431624 -37.119759 
L 172.186784 -37.119759 
L 170.941943 -37.119759 
L 169.697103 -37.119759 
L 168.452263 -37.119759 
L 167.207422 -37.119759 
L 165.962582 -37.119759 
L 164.717742 -37.119759 
L 163.472901 -37.119759 
L 162.228061 -37.119759 
L 160.98322 -37.119759 
L 159.73838 -37.119759 
L 158.49354 -37.119759 
L 157.248699 -37.119759 
L 156.003859 -37.119759 
L 154.759019 -37.119759 
L 153.514178 -37.119759 
L 152.269338 -37.119759 
L 151.024498 -37.119759 
L 149.779657 -37.119759 
L 148.534817 -37.119759 
L 147.289977 -37.119759 
L 146.045136 -37.119759 
L 144.800296 -37.119759 
L 143.555455 -37.119759 
L 142.310615 -37.119759 
L 141.065775 -37.119759 
L 139.820934 -37.119759 
L 138.576094 -37.119759 
L 137.331254 -37.119759 
L 136.086413 -37.119759 
L 134.841573 -37.119759 
L 133.596733 -37.119759 
L 132.351892 -37.119759 
L 131.107052 -37.119759 
L 129.862211 -37.119759 
L 128.617371 -37.11976 
L 127.372531 -37.119761 
L 126.12769 -37.119766 
L 124.88285 -37.119781 
L 123.63801 -37.119824 
L 122.393169 -37.119946 
L 121.148329 -37.120275 
L 119.903489 -37.121117 
L 118.658648 -37.123169 
L 117.413808 -37.127929 
L 116.168968 -37.138439 
L 114.924127 -37.160512 
L 113.679287 -37.204593 
L 112.434446 -37.288268 
L 111.189606 -37.439147 
L 109.944766 -37.697399 
L 108.699925 -38.116648 
L 107.455085 -38.761462 
L 106.210245 -39.699728 
L 104.965404 -40.989026 
L 103.720564 -42.658017 
L 102.475724 -44.68645 
L 101.230883 -46.989856 
L 99.986043 -49.416003 
L 98.741203 -51.758641 
L 97.496362 -53.789658 
L 96.251522 -55.304538 
L 95.006681 -56.170294 
L 93.761841 -56.362427 
L 92.517001 -55.979664 
L 91.27216 -55.231852 
L 90.02732 -54.405117 
L 88.78248 -53.815494 
L 87.537639 -53.764801 
L 86.292799 -54.509366 
L 85.047959 -56.245175 
L 83.803118 -59.105386 
L 82.558278 -63.162003 
L 81.313437 -68.424596 
L 80.068597 -74.834633 
L 78.823757 -82.260596 
L 77.578916 -90.502112 
L 76.334076 -99.30816 
L 75.089236 -108.405743 
L 73.844395 -117.526217 
L 72.599555 -126.412981 
L 71.354715 -134.800725 
L 70.109874 -142.37182 
L 68.865034 -148.712532 
L 67.620194 -153.300783 
L 66.375353 -155.550879 
L 65.130513 -154.918999 
L 63.885672 -151.045036 
L 62.640832 -143.884794 
L 61.395992 -133.782962 
L 60.151151 -121.454774 
L 58.906311 -107.875723 
L 57.661471 -94.11054 
L 56.41663 -81.131398 
L 55.17179 -69.674532 
L 53.92695 -60.166526 
z
" style="stroke: #0f4d92; stroke-opacity: 0.06"/>
    </defs>
    <g clip-path="url(#pb770a066a6)">
     <use xlink:href="#m2759c983f3" x="0" y="183.070991" style="fill: #0f4d92; fill-opacity: 0.06; stroke: #0f4d92; stroke-opacity: 0.06"/>
    </g>
   </g>
   <g id="FillBetweenPolyCollection_2">
    <defs>
     <path id="m323af4a4ed" d="M 53.92695 -59.262401 
L 53.92695 -37.119759 
L 55.17179 -37.119759 
L 56.41663 -37.119759 
L 57.661471 -37.119759 
L 58.906311 -37.119759 
L 60.151151 -37.119759 
L 61.395992 -37.119759 
L 62.640832 -37.119759 
L 63.885672 -37.119759 
L 65.130513 -37.119759 
L 66.375353 -37.119759 
L 67.620194 -37.119759 
L 68.865034 -37.119759 
L 70.109874 -37.119759 
L 71.354715 -37.119759 
L 72.599555 -37.119759 
L 73.844395 -37.119759 
L 75.089236 -37.119759 
L 76.334076 -37.119759 
L 77.578916 -37.119759 
L 78.823757 -37.119759 
L 80.068597 -37.119759 
L 81.313437 -37.119759 
L 82.558278 -37.119759 
L 83.803118 -37.119759 
L 85.047959 -37.119759 
L 86.292799 -37.119759 
L 87.537639 -37.119759 
L 88.78248 -37.119759 
L 90.02732 -37.119759 
L 91.27216 -37.119759 
L 92.517001 -37.119759 
L 93.761841 -37.119759 
L 95.006681 -37.119759 
L 96.251522 -37.119759 
L 97.496362 -37.119759 
L 98.741203 -37.119759 
L 99.986043 -37.119759 
L 101.230883 -37.119759 
L 102.475724 -37.119759 
L 103.720564 -37.119759 
L 104.965404 -37.119759 
L 106.210245 -37.119759 
L 107.455085 -37.119759 
L 108.699925 -37.119759 
L 109.944766 -37.119759 
L 111.189606 -37.119759 
L 112.434446 -37.119759 
L 113.679287 -37.119759 
L 114.924127 -37.119759 
L 116.168968 -37.119759 
L 117.413808 -37.119759 
L 118.658648 -37.119759 
L 119.903489 -37.119759 
L 121.148329 -37.119759 
L 122.393169 -37.119759 
L 123.63801 -37.119759 
L 124.88285 -37.119759 
L 126.12769 -37.119759 
L 127.372531 -37.119759 
L 128.617371 -37.119759 
L 129.862211 -37.119759 
L 131.107052 -37.119759 
L 132.351892 -37.119759 
L 133.596733 -37.119759 
L 134.841573 -37.119759 
L 136.086413 -37.119759 
L 137.331254 -37.119759 
L 138.576094 -37.119759 
L 139.820934 -37.119759 
L 141.065775 -37.119759 
L 142.310615 -37.119759 
L 143.555455 -37.119759 
L 144.800296 -37.119759 
L 146.045136 -37.119759 
L 147.289977 -37.119759 
L 148.534817 -37.119759 
L 149.779657 -37.119759 
L 151.024498 -37.119759 
L 152.269338 -37.119759 
L 153.514178 -37.119759 
L 154.759019 -37.119759 
L 156.003859 -37.119759 
L 157.248699 -37.119759 
L 158.49354 -37.119759 
L 159.73838 -37.119759 
L 160.98322 -37.119759 
L 162.228061 -37.119759 
L 163.472901 -37.119759 
L 164.717742 -37.119759 
L 165.962582 -37.119759 
L 167.207422 -37.119759 
L 168.452263 -37.119759 
L 169.697103 -37.119759 
L 170.941943 -37.119759 
L 172.186784 -37.119759 
L 173.431624 -37.119759 
L 174.676464 -37.119759 
L 175.921305 -37.119759 
L 177.166145 -37.119759 
L 178.410985 -37.119759 
L 179.655826 -37.119759 
L 180.900666 -37.119759 
L 182.145507 -37.119759 
L 183.390347 -37.119759 
L 184.635187 -37.119759 
L 185.880028 -37.119759 
L 187.124868 -37.119759 
L 188.369708 -37.119759 
L 189.614549 -37.119759 
L 190.859389 -37.119759 
L 192.104229 -37.119759 
L 193.34907 -37.119759 
L 194.59391 -37.119759 
L 195.83875 -37.119759 
L 197.083591 -37.119759 
L 198.328431 -37.119759 
L 199.573272 -37.119759 
L 200.818112 -37.119759 
L 202.062952 -37.119759 
L 203.307793 -37.119759 
L 204.552633 -37.119759 
L 205.797473 -37.119759 
L 207.042314 -37.119759 
L 208.287154 -37.119759 
L 209.531994 -37.119759 
L 210.776835 -37.119759 
L 212.021675 -37.119759 
L 213.266516 -37.119759 
L 214.511356 -37.119759 
L 215.756196 -37.119759 
L 217.001037 -37.119759 
L 218.245877 -37.119759 
L 219.490717 -37.119759 
L 220.735558 -37.119759 
L 221.980398 -37.119759 
L 223.225238 -37.119759 
L 224.470079 -37.119759 
L 225.714919 -37.119759 
L 226.959759 -37.119759 
L 228.2046 -37.119759 
L 229.44944 -37.119759 
L 230.694281 -37.119759 
L 231.939121 -37.119759 
L 233.183961 -37.119759 
L 234.428802 -37.119759 
L 235.673642 -37.119759 
L 236.918482 -37.119759 
L 238.163323 -37.119759 
L 239.408163 -37.119759 
L 240.653003 -37.119759 
L 241.897844 -37.119759 
L 243.142684 -37.119759 
L 244.387524 -37.119759 
L 245.632365 -37.119759 
L 246.877205 -37.119759 
L 248.122046 -37.119759 
L 249.366886 -37.119759 
L 250.611726 -37.119759 
L 251.856567 -37.119759 
L 251.856567 -37.217275 
L 251.856567 -37.217275 
L 250.611726 -37.231598 
L 249.366886 -37.2477 
L 248.122046 -37.265751 
L 246.877205 -37.285929 
L 245.632365 -37.308423 
L 244.387524 -37.333429 
L 243.142684 -37.361148 
L 241.897844 -37.391792 
L 240.653003 -37.425574 
L 239.408163 -37.462713 
L 238.163323 -37.50343 
L 236.918482 -37.547947 
L 235.673642 -37.596487 
L 234.428802 -37.649267 
L 233.183961 -37.706503 
L 231.939121 -37.768402 
L 230.694281 -37.835165 
L 229.44944 -37.906978 
L 228.2046 -37.984019 
L 226.959759 -38.066447 
L 225.714919 -38.154404 
L 224.470079 -38.248013 
L 223.225238 -38.347375 
L 221.980398 -38.452566 
L 220.735558 -38.563637 
L 219.490717 -38.680612 
L 218.245877 -38.803483 
L 217.001037 -38.932214 
L 215.756196 -39.066736 
L 214.511356 -39.206945 
L 213.266516 -39.352706 
L 212.021675 -39.503847 
L 210.776835 -39.660163 
L 209.531994 -39.821412 
L 208.287154 -39.987318 
L 207.042314 -40.15757 
L 205.797473 -40.331823 
L 204.552633 -40.509696 
L 203.307793 -40.69078 
L 202.062952 -40.87463 
L 200.818112 -41.060773 
L 199.573272 -41.248709 
L 198.328431 -41.437907 
L 197.083591 -41.627816 
L 195.83875 -41.817859 
L 194.59391 -42.007441 
L 193.34907 -42.195947 
L 192.104229 -42.382752 
L 190.859389 -42.567214 
L 189.614549 -42.748689 
L 188.369708 -42.926524 
L 187.124868 -43.10007 
L 185.880028 -43.26868 
L 184.635187 -43.431717 
L 183.390347 -43.588559 
L 182.145507 -43.738603 
L 180.900666 -43.881272 
L 179.655826 -44.016019 
L 178.410985 -44.142336 
L 177.166145 -44.259757 
L 175.921305 -44.367868 
L 174.676464 -44.466311 
L 173.431624 -44.55479 
L 172.186784 -44.633081 
L 170.941943 -44.701035 
L 169.697103 -44.758585 
L 168.452263 -44.805751 
L 167.207422 -44.842645 
L 165.962582 -44.869478 
L 164.717742 -44.88656 
L 163.472901 -44.894304 
L 162.228061 -44.893231 
L 160.98322 -44.883966 
L 159.73838 -44.867242 
L 158.49354 -44.843897 
L 157.248699 -44.814873 
L 156.003859 -44.781213 
L 154.759019 -44.744053 
L 153.514178 -44.704621 
L 152.269338 -44.664228 
L 151.024498 -44.624261 
L 149.779657 -44.586172 
L 148.534817 -44.551473 
L 147.289977 -44.521723 
L 146.045136 -44.498516 
L 144.800296 -44.483472 
L 143.555455 -44.478225 
L 142.310615 -44.484408 
L 141.065775 -44.503646 
L 139.820934 -44.537539 
L 138.576094 -44.587652 
L 137.331254 -44.655502 
L 136.086413 -44.742548 
L 134.841573 -44.85018 
L 133.596733 -44.979705 
L 132.351892 -45.132339 
L 131.107052 -45.309199 
L 129.862211 -45.511289 
L 128.617371 -45.739495 
L 127.372531 -45.994578 
L 126.12769 -46.27716 
L 124.88285 -46.587725 
L 123.63801 -46.926606 
L 122.393169 -47.293983 
L 121.148329 -47.689875 
L 119.903489 -48.114135 
L 118.658648 -48.566446 
L 117.413808 -49.046317 
L 116.168968 -49.553076 
L 114.924127 -50.085872 
L 113.679287 -50.643667 
L 112.434446 -51.225233 
L 111.189606 -51.829157 
L 109.944766 -52.453832 
L 108.699925 -53.097461 
L 107.455085 -53.758059 
L 106.210245 -54.433452 
L 104.965404 -55.121282 
L 103.720564 -55.819011 
L 102.475724 -56.523929 
L 101.230883 -57.23316 
L 99.986043 -57.943675 
L 98.741203 -58.6523 
L 97.496362 -59.355733 
L 96.251522 -60.050562 
L 95.006681 -60.733277 
L 93.761841 -61.400299 
L 92.517001 -62.047995 
L 91.27216 -62.672708 
L 90.02732 -63.270782 
L 88.78248 -63.838589 
L 87.537639 -64.372559 
L 86.292799 -64.869214 
L 85.047959 -65.325195 
L 83.803118 -65.737296 
L 82.558278 -66.102496 
L 81.313437 -66.417991 
L 80.068597 -66.681222 
L 78.823757 -66.889908 
L 77.578916 -67.04207 
L 76.334076 -67.136059 
L 75.089236 -67.170574 
L 73.844395 -67.144686 
L 72.599555 -67.05785 
L 71.354715 -66.909916 
L 70.109874 -66.70114 
L 68.865034 -66.432183 
L 67.620194 -66.104111 
L 66.375353 -65.718388 
L 65.130513 -65.276866 
L 63.885672 -64.781769 
L 62.640832 -64.235671 
L 61.395992 -63.641476 
L 60.151151 -63.002386 
L 58.906311 -62.321872 
L 57.661471 -61.603639 
L 56.41663 -60.85159 
L 55.17179 -60.069784 
L 53.92695 -59.262401 
z
" style="stroke: #8bcf8b; stroke-opacity: 0.06"/>
    </defs>
    <g clip-path="url(#pb770a066a6)">
     <use xlink:href="#m323af4a4ed" x="0" y="183.070991" style="fill: #8bcf8b; fill-opacity: 0.06; stroke: #8bcf8b; stroke-opacity: 0.06"/>
    </g>
   </g>
   <g id="FillBetweenPolyCollection_3">
    <defs>
     <path id="md1b31f8703" d="M 53.92695 -63.963357 
L 53.92695 -37.119759 
L 55.17179 -37.119759 
L 56.41663 -37.119759 
L 57.661471 -37.119759 
L 58.906311 -37.119759 
L 60.151151 -37.119759 
L 61.395992 -37.119759 
L 62.640832 -37.119759 
L 63.885672 -37.119759 
L 65.130513 -37.119759 
L 66.375353 -37.119759 
L 67.620194 -37.119759 
L 68.865034 -37.119759 
L 70.109874 -37.119759 
L 71.354715 -37.119759 
L 72.599555 -37.119759 
L 73.844395 -37.119759 
L 75.089236 -37.119759 
L 76.334076 -37.119759 
L 77.578916 -37.119759 
L 78.823757 -37.119759 
L 80.068597 -37.119759 
L 81.313437 -37.119759 
L 82.558278 -37.119759 
L 83.803118 -37.119759 
L 85.047959 -37.119759 
L 86.292799 -37.119759 
L 87.537639 -37.119759 
L 88.78248 -37.119759 
L 90.02732 -37.119759 
L 91.27216 -37.119759 
L 92.517001 -37.119759 
L 93.761841 -37.119759 
L 95.006681 -37.119759 
L 96.251522 -37.119759 
L 97.496362 -37.119759 
L 98.741203 -37.119759 
L 99.986043 -37.119759 
L 101.230883 -37.119759 
L 102.475724 -37.119759 
L 103.720564 -37.119759 
L 104.965404 -37.119759 
L 106.210245 -37.119759 
L 107.455085 -37.119759 
L 108.699925 -37.119759 
L 109.944766 -37.119759 
L 111.189606 -37.119759 
L 112.434446 -37.119759 
L 113.679287 -37.119759 
L 114.924127 -37.119759 
L 116.168968 -37.119759 
L 117.413808 -37.119759 
L 118.658648 -37.119759 
L 119.903489 -37.119759 
L 121.148329 -37.119759 
L 122.393169 -37.119759 
L 123.63801 -37.119759 
L 124.88285 -37.119759 
L 126.12769 -37.119759 
L 127.372531 -37.119759 
L 128.617371 -37.119759 
L 129.862211 -37.119759 
L 131.107052 -37.119759 
L 132.351892 -37.119759 
L 133.596733 -37.119759 
L 134.841573 -37.119759 
L 136.086413 -37.119759 
L 137.331254 -37.119759 
L 138.576094 -37.119759 
L 139.820934 -37.119759 
L 141.065775 -37.119759 
L 142.310615 -37.119759 
L 143.555455 -37.119759 
L 144.800296 -37.119759 
L 146.045136 -37.119759 
L 147.289977 -37.119759 
L 148.534817 -37.119759 
L 149.779657 -37.119759 
L 151.024498 -37.119759 
L 152.269338 -37.119759 
L 153.514178 -37.119759 
L 154.759019 -37.119759 
L 156.003859 -37.119759 
L 157.248699 -37.119759 
L 158.49354 -37.119759 
L 159.73838 -37.119759 
L 160.98322 -37.119759 
L 162.228061 -37.119759 
L 163.472901 -37.119759 
L 164.717742 -37.119759 
L 165.962582 -37.119759 
L 167.207422 -37.119759 
L 168.452263 -37.119759 
L 169.697103 -37.119759 
L 170.941943 -37.119759 
L 172.186784 -37.119759 
L 173.431624 -37.119759 
L 174.676464 -37.119759 
L 175.921305 -37.119759 
L 177.166145 -37.119759 
L 178.410985 -37.119759 
L 179.655826 -37.119759 
L 180.900666 -37.119759 
L 182.145507 -37.119759 
L 183.390347 -37.119759 
L 184.635187 -37.119759 
L 185.880028 -37.119759 
L 187.124868 -37.119759 
L 188.369708 -37.119759 
L 189.614549 -37.119759 
L 190.859389 -37.119759 
L 192.104229 -37.119759 
L 193.34907 -37.119759 
L 194.59391 -37.119759 
L 195.83875 -37.119759 
L 197.083591 -37.119759 
L 198.328431 -37.119759 
L 199.573272 -37.119759 
L 200.818112 -37.119759 
L 202.062952 -37.119759 
L 203.307793 -37.119759 
L 204.552633 -37.119759 
L 205.797473 -37.119759 
L 207.042314 -37.119759 
L 208.287154 -37.119759 
L 209.531994 -37.119759 
L 210.776835 -37.119759 
L 212.021675 -37.119759 
L 213.266516 -37.119759 
L 214.511356 -37.119759 
L 215.756196 -37.119759 
L 217.001037 -37.119759 
L 218.245877 -37.119759 
L 219.490717 -37.119759 
L 220.735558 -37.119759 
L 221.980398 -37.119759 
L 223.225238 -37.119759 
L 224.470079 -37.119759 
L 225.714919 -37.119759 
L 226.959759 -37.119759 
L 228.2046 -37.119759 
L 229.44944 -37.119759 
L 230.694281 -37.119759 
L 231.939121 -37.119759 
L 233.183961 -37.119759 
L 234.428802 -37.119759 
L 235.673642 -37.119759 
L 236.918482 -37.119759 
L 238.163323 -37.119759 
L 239.408163 -37.119759 
L 240.653003 -37.119759 
L 241.897844 -37.119759 
L 243.142684 -37.119759 
L 244.387524 -37.119759 
L 245.632365 -37.119759 
L 246.877205 -37.119759 
L 248.122046 -37.119759 
L 249.366886 -37.119759 
L 250.611726 -37.119759 
L 251.856567 -37.119759 
L 251.856567 -39.139404 
L 251.856567 -39.139404 
L 250.611726 -39.167002 
L 249.366886 -39.189818 
L 248.122046 -39.207691 
L 246.877205 -39.220497 
L 245.632365 -39.228152 
L 244.387524 -39.230609 
L 243.142684 -39.227864 
L 241.897844 -39.219954 
L 240.653003 -39.206956 
L 239.408163 -39.18899 
L 238.163323 -39.166212 
L 236.918482 -39.138817 
L 235.673642 -39.107039 
L 234.428802 -39.07114 
L 233.183961 -39.031419 
L 231.939121 -38.988199 
L 230.694281 -38.941829 
L 229.44944 -38.892681 
L 228.2046 -38.841142 
L 226.959759 -38.787617 
L 225.714919 -38.73252 
L 224.470079 -38.676271 
L 223.225238 -38.619296 
L 221.980398 -38.562021 
L 220.735558 -38.504866 
L 219.490717 -38.448249 
L 218.245877 -38.392575 
L 217.001037 -38.338241 
L 215.756196 -38.285625 
L 214.511356 -38.235094 
L 213.266516 -38.186991 
L 212.021675 -38.141644 
L 210.776835 -38.099356 
L 209.531994 -38.060409 
L 208.287154 -38.025061 
L 207.042314 -37.993546 
L 205.797473 -37.96607 
L 204.552633 -37.942819 
L 203.307793 -37.923948 
L 202.062952 -37.909589 
L 200.818112 -37.899848 
L 199.573272 -37.894805 
L 198.328431 -37.894514 
L 197.083591 -37.899004 
L 195.83875 -37.908279 
L 194.59391 -37.922319 
L 193.34907 -37.941078 
L 192.104229 -37.96449 
L 190.859389 -37.992464 
L 189.614549 -38.024886 
L 188.369708 -38.061623 
L 187.124868 -38.102522 
L 185.880028 -38.147412 
L 184.635187 -38.196103 
L 183.390347 -38.248391 
L 182.145507 -38.304059 
L 180.900666 -38.362877 
L 179.655826 -38.42461 
L 178.410985 -38.489012 
L 177.166145 -38.555839 
L 175.921305 -38.624844 
L 174.676464 -38.695785 
L 173.431624 -38.768428 
L 172.186784 -38.842551 
L 170.941943 -38.917947 
L 169.697103 -38.994429 
L 168.452263 -39.071837 
L 167.207422 -39.150039 
L 165.962582 -39.228936 
L 164.717742 -39.30847 
L 163.472901 -39.388625 
L 162.228061 -39.469434 
L 160.98322 -39.550979 
L 159.73838 -39.6334 
L 158.49354 -39.716897 
L 157.248699 -39.801729 
L 156.003859 -39.888226 
L 154.759019 -39.976779 
L 153.514178 -40.067854 
L 152.269338 -40.161985 
L 151.024498 -40.259778 
L 149.779657 -40.361908 
L 148.534817 -40.469123 
L 147.289977 -40.582238 
L 146.045136 -40.702135 
L 144.800296 -40.829759 
L 143.555455 -40.966115 
L 142.310615 -41.112265 
L 141.065775 -41.269318 
L 139.820934 -41.438428 
L 138.576094 -41.620787 
L 137.331254 -41.817617 
L 136.086413 -42.03016 
L 134.841573 -42.259669 
L 133.596733 -42.507404 
L 132.351892 -42.774612 
L 131.107052 -43.062525 
L 129.862211 -43.37234 
L 128.617371 -43.705215 
L 127.372531 -44.062248 
L 126.12769 -44.444469 
L 124.88285 -44.852822 
L 123.63801 -45.288156 
L 122.393169 -45.751203 
L 121.148329 -46.242569 
L 119.903489 -46.762715 
L 118.658648 -47.311947 
L 117.413808 -47.890394 
L 116.168968 -48.498 
L 114.924127 -49.134506 
L 113.679287 -49.799439 
L 112.434446 -50.492101 
L 111.189606 -51.211553 
L 109.944766 -51.95661 
L 108.699925 -52.725832 
L 107.455085 -53.51752 
L 106.210245 -54.329705 
L 104.965404 -55.160157 
L 103.720564 -56.006379 
L 102.475724 -56.865611 
L 101.230883 -57.734841 
L 99.986043 -58.610815 
L 98.741203 -59.490044 
L 97.496362 -60.368831 
L 96.251522 -61.243279 
L 95.006681 -62.109326 
L 93.761841 -62.962761 
L 92.517001 -63.799263 
L 91.27216 -64.614424 
L 90.02732 -65.40379 
L 88.78248 -66.162896 
L 87.537639 -66.887304 
L 86.292799 -67.572644 
L 85.047959 -68.214655 
L 83.803118 -68.809225 
L 82.558278 -69.352434 
L 81.313437 -69.840594 
L 80.068597 -70.270288 
L 78.823757 -70.638406 
L 77.578916 -70.942184 
L 76.334076 -71.179231 
L 75.089236 -71.347561 
L 73.844395 -71.445617 
L 72.599555 -71.472289 
L 71.354715 -71.426932 
L 70.109874 -71.309375 
L 68.865034 -71.119926 
L 67.620194 -70.859374 
L 66.375353 -70.528979 
L 65.130513 -70.130468 
L 63.885672 -69.666009 
L 62.640832 -69.138201 
L 61.395992 -68.550039 
L 60.151151 -67.904888 
L 58.906311 -67.206449 
L 57.661471 -66.458719 
L 56.41663 -65.665952 
L 55.17179 -64.832619 
L 53.92695 -63.963357 
z
" style="stroke: #d4a93b; stroke-opacity: 0.06"/>
    </defs>
    <g clip-path="url(#pb770a066a6)">
     <use xlink:href="#md1b31f8703" x="0" y="183.070991" style="fill: #d4a93b; fill-opacity: 0.06; stroke: #d4a93b; stroke-opacity: 0.06"/>
    </g>
   </g>
   <g id="FillBetweenPolyCollection_4">
    <defs>
     <path id="m818c854165" d="M 53.92695 -67.948683 
L 53.92695 -37.119759 
L 55.17179 -37.119759 
L 56.41663 -37.119759 
L 57.661471 -37.119759 
L 58.906311 -37.119759 
L 60.151151 -37.119759 
L 61.395992 -37.119759 
L 62.640832 -37.119759 
L 63.885672 -37.119759 
L 65.130513 -37.119759 
L 66.375353 -37.119759 
L 67.620194 -37.119759 
L 68.865034 -37.119759 
L 70.109874 -37.119759 
L 71.354715 -37.119759 
L 72.599555 -37.119759 
L 73.844395 -37.119759 
L 75.089236 -37.119759 
L 76.334076 -37.119759 
L 77.578916 -37.119759 
L 78.823757 -37.119759 
L 80.068597 -37.119759 
L 81.313437 -37.119759 
L 82.558278 -37.119759 
L 83.803118 -37.119759 
L 85.047959 -37.119759 
L 86.292799 -37.119759 
L 87.537639 -37.119759 
L 88.78248 -37.119759 
L 90.02732 -37.119759 
L 91.27216 -37.119759 
L 92.517001 -37.119759 
L 93.761841 -37.119759 
L 95.006681 -37.119759 
L 96.251522 -37.119759 
L 97.496362 -37.119759 
L 98.741203 -37.119759 
L 99.986043 -37.119759 
L 101.230883 -37.119759 
L 102.475724 -37.119759 
L 103.720564 -37.119759 
L 104.965404 -37.119759 
L 106.210245 -37.119759 
L 107.455085 -37.119759 
L 108.699925 -37.119759 
L 109.944766 -37.119759 
L 111.189606 -37.119759 
L 112.434446 -37.119759 
L 113.679287 -37.119759 
L 114.924127 -37.119759 
L 116.168968 -37.119759 
L 117.413808 -37.119759 
L 118.658648 -37.119759 
L 119.903489 -37.119759 
L 121.148329 -37.119759 
L 122.393169 -37.119759 
L 123.63801 -37.119759 
L 124.88285 -37.119759 
L 126.12769 -37.119759 
L 127.372531 -37.119759 
L 128.617371 -37.119759 
L 129.862211 -37.119759 
L 131.107052 -37.119759 
L 132.351892 -37.119759 
L 133.596733 -37.119759 
L 134.841573 -37.119759 
L 136.086413 -37.119759 
L 137.331254 -37.119759 
L 138.576094 -37.119759 
L 139.820934 -37.119759 
L 141.065775 -37.119759 
L 142.310615 -37.119759 
L 143.555455 -37.119759 
L 144.800296 -37.119759 
L 146.045136 -37.119759 
L 147.289977 -37.119759 
L 148.534817 -37.119759 
L 149.779657 -37.119759 
L 151.024498 -37.119759 
L 152.269338 -37.119759 
L 153.514178 -37.119759 
L 154.759019 -37.119759 
L 156.003859 -37.119759 
L 157.248699 -37.119759 
L 158.49354 -37.119759 
L 159.73838 -37.119759 
L 160.98322 -37.119759 
L 162.228061 -37.119759 
L 163.472901 -37.119759 
L 164.717742 -37.119759 
L 165.962582 -37.119759 
L 167.207422 -37.119759 
L 168.452263 -37.119759 
L 169.697103 -37.119759 
L 170.941943 -37.119759 
L 172.186784 -37.119759 
L 173.431624 -37.119759 
L 174.676464 -37.119759 
L 175.921305 -37.119759 
L 177.166145 -37.119759 
L 178.410985 -37.119759 
L 179.655826 -37.119759 
L 180.900666 -37.119759 
L 182.145507 -37.119759 
L 183.390347 -37.119759 
L 184.635187 -37.119759 
L 185.880028 -37.119759 
L 187.124868 -37.119759 
L 188.369708 -37.119759 
L 189.614549 -37.119759 
L 190.859389 -37.119759 
L 192.104229 -37.119759 
L 193.34907 -37.119759 
L 194.59391 -37.119759 
L 195.83875 -37.119759 
L 197.083591 -37.119759 
L 198.328431 -37.119759 
L 199.573272 -37.119759 
L 200.818112 -37.119759 
L 202.062952 -37.119759 
L 203.307793 -37.119759 
L 204.552633 -37.119759 
L 205.797473 -37.119759 
L 207.042314 -37.119759 
L 208.287154 -37.119759 
L 209.531994 -37.119759 
L 210.776835 -37.119759 
L 212.021675 -37.119759 
L 213.266516 -37.119759 
L 214.511356 -37.119759 
L 215.756196 -37.119759 
L 217.001037 -37.119759 
L 218.245877 -37.119759 
L 219.490717 -37.119759 
L 220.735558 -37.119759 
L 221.980398 -37.119759 
L 223.225238 -37.119759 
L 224.470079 -37.119759 
L 225.714919 -37.119759 
L 226.959759 -37.119759 
L 228.2046 -37.119759 
L 229.44944 -37.119759 
L 230.694281 -37.119759 
L 231.939121 -37.119759 
L 233.183961 -37.119759 
L 234.428802 -37.119759 
L 235.673642 -37.119759 
L 236.918482 -37.119759 
L 238.163323 -37.119759 
L 239.408163 -37.119759 
L 240.653003 -37.119759 
L 241.897844 -37.119759 
L 243.142684 -37.119759 
L 244.387524 -37.119759 
L 245.632365 -37.119759 
L 246.877205 -37.119759 
L 248.122046 -37.119759 
L 249.366886 -37.119759 
L 250.611726 -37.119759 
L 251.856567 -37.119759 
L 251.856567 -37.121429 
L 251.856567 -37.121429 
L 250.611726 -37.121966 
L 249.366886 -37.122661 
L 248.122046 -37.123554 
L 246.877205 -37.124696 
L 245.632365 -37.126149 
L 244.387524 -37.127985 
L 243.142684 -37.130293 
L 241.897844 -37.133178 
L 240.653003 -37.136763 
L 239.408163 -37.141193 
L 238.163323 -37.146633 
L 236.918482 -37.153278 
L 235.673642 -37.161345 
L 234.428802 -37.171082 
L 233.183961 -37.182766 
L 231.939121 -37.196703 
L 230.694281 -37.213227 
L 229.44944 -37.232703 
L 228.2046 -37.255518 
L 226.959759 -37.282083 
L 225.714919 -37.312824 
L 224.470079 -37.348178 
L 223.225238 -37.388584 
L 221.980398 -37.434472 
L 220.735558 -37.486254 
L 219.490717 -37.544309 
L 218.245877 -37.608971 
L 217.001037 -37.680514 
L 215.756196 -37.759136 
L 214.511356 -37.844944 
L 213.266516 -37.937938 
L 212.021675 -38.037998 
L 210.776835 -38.14487 
L 209.531994 -38.258157 
L 208.287154 -38.377308 
L 207.042314 -38.501618 
L 205.797473 -38.630223 
L 204.552633 -38.762107 
L 203.307793 -38.896107 
L 202.062952 -39.030927 
L 200.818112 -39.165158 
L 199.573272 -39.297297 
L 198.328431 -39.425774 
L 197.083591 -39.548983 
L 195.83875 -39.665313 
L 194.59391 -39.773186 
L 193.34907 -39.871089 
L 192.104229 -39.957613 
L 190.859389 -40.031484 
L 189.614549 -40.091599 
L 188.369708 -40.137055 
L 187.124868 -40.167167 
L 185.880028 -40.181497 
L 184.635187 -40.179859 
L 183.390347 -40.162332 
L 182.145507 -40.129259 
L 180.900666 -40.081241 
L 179.655826 -40.019125 
L 178.410985 -39.943992 
L 177.166145 -39.857126 
L 175.921305 -39.76 
L 174.676464 -39.654238 
L 173.431624 -39.541587 
L 172.186784 -39.423892 
L 170.941943 -39.303055 
L 169.697103 -39.181014 
L 168.452263 -39.059713 
L 167.207422 -38.941074 
L 165.962582 -38.826982 
L 164.717742 -38.719262 
L 163.472901 -38.619667 
L 162.228061 -38.529868 
L 160.98322 -38.451445 
L 159.73838 -38.385886 
L 158.49354 -38.334578 
L 157.248699 -38.298812 
L 156.003859 -38.279781 
L 154.759019 -38.278579 
L 153.514178 -38.296199 
L 152.269338 -38.333535 
L 151.024498 -38.391378 
L 149.779657 -38.470407 
L 148.534817 -38.571187 
L 147.289977 -38.694162 
L 146.045136 -38.83964 
L 144.800296 -39.007791 
L 143.555455 -39.198634 
L 142.310615 -39.41203 
L 141.065775 -39.647677 
L 139.820934 -39.905108 
L 138.576094 -40.183691 
L 137.331254 -40.48264 
L 136.086413 -40.801024 
L 134.841573 -41.137788 
L 133.596733 -41.491781 
L 132.351892 -41.861783 
L 131.107052 -42.246551 
L 129.862211 -42.644858 
L 128.617371 -43.055544 
L 127.372531 -43.47757 
L 126.12769 -43.910069 
L 124.88285 -44.352403 
L 123.63801 -44.804217 
L 122.393169 -45.265481 
L 121.148329 -45.736539 
L 119.903489 -46.218139 
L 118.658648 -46.711457 
L 117.413808 -47.218113 
L 116.168968 -47.740166 
L 114.924127 -48.280102 
L 113.679287 -48.840801 
L 112.434446 -49.425495 
L 111.189606 -50.037703 
L 109.944766 -50.681159 
L 108.699925 -51.359718 
L 107.455085 -52.077255 
L 106.210245 -52.837547 
L 104.965404 -53.644151 
L 103.720564 -54.50027 
L 102.475724 -55.408615 
L 101.230883 -56.371266 
L 99.986043 -57.389535 
L 98.741203 -58.463828 
L 97.496362 -59.593525 
L 96.251522 -60.776859 
L 95.006681 -62.010823 
L 93.761841 -63.291089 
L 92.517001 -64.611954 
L 91.27216 -65.966309 
L 90.02732 -67.345645 
L 88.78248 -68.740084 
L 87.537639 -70.138452 
L 86.292799 -71.528384 
L 85.047959 -72.896469 
L 83.803118 -74.228425 
L 82.558278 -75.509319 
L 81.313437 -76.723806 
L 80.068597 -77.856401 
L 78.823757 -78.891772 
L 77.578916 -79.815042 
L 76.334076 -80.612106 
L 75.089236 -81.269936 
L 73.844395 -81.776884 
L 72.599555 -82.12296 
L 71.354715 -82.30008 
L 70.109874 -82.302285 
L 68.865034 -82.125908 
L 67.620194 -81.769693 
L 66.375353 -81.234862 
L 65.130513 -80.525119 
L 63.885672 -79.646601 
L 62.640832 -78.607769 
L 61.395992 -77.41924 
L 60.151151 -76.093577 
L 58.906311 -74.645024 
L 57.661471 -73.089222 
L 56.41663 -71.442875 
L 55.17179 -69.723422 
L 53.92695 -67.948683 
z
" style="stroke: #b64342; stroke-opacity: 0.06"/>
    </defs>
    <g clip-path="url(#pb770a066a6)">
     <use xlink:href="#m818c854165" x="0" y="183.070991" style="fill: #b64342; fill-opacity: 0.06; stroke: #b64342; stroke-opacity: 0.06"/>
    </g>
   </g>
   <g id="matplotlib.axis_1">
    <g id="xtick_1">
     <g id="line2d_1">
      <defs>
       <path id="mfba35b3fdb" d="M 0 0 
L 0 3 
" style="stroke: #000000; stroke-width: 0.8"/>
      </defs>
      <g>
       <use xlink:href="#mfba35b3fdb" x="63.089445" y="151.872788" style="stroke: #000000; stroke-width: 0.8"/>
      </g>
     </g>
     <g id="text_1">
      <text style="font-size: 7px; font-family: 'Times New Roman', 'DejaVu Serif'; text-anchor: middle" x="63.089445" y="163.233413" transform="rotate(-0 63.089445 163.233413)">0</text>
     </g>
    </g>
    <g id="xtick_2">
     <g id="line2d_2">
      <g>
       <use xlink:href="#mfba35b3fdb" x="101.318365" y="151.872788" style="stroke: #000000; stroke-width: 0.8"/>
      </g>
     </g>
     <g id="text_2">
      <text style="font-size: 7px; font-family: 'Times New Roman', 'DejaVu Serif'; text-anchor: middle" x="101.318365" y="163.233413" transform="rotate(-0 101.318365 163.233413)">100</text>
     </g>
    </g>
    <g id="xtick_3">
     <g id="line2d_3">
      <g>
       <use xlink:href="#mfba35b3fdb" x="139.547284" y="151.872788" style="stroke: #000000; stroke-width: 0.8"/>
      </g>
     </g>
     <g id="text_3">
      <text style="font-size: 7px; font-family: 'Times New Roman', 'DejaVu Serif'; text-anchor: middle" x="139.547284" y="163.233413" transform="rotate(-0 139.547284 163.233413)">200</text>
     </g>
    </g>
    <g id="xtick_4">
     <g id="line2d_4">
      <g>
       <use xlink:href="#mfba35b3fdb" x="177.776204" y="151.872788" style="stroke: #000000; stroke-width: 0.8"/>
      </g>
     </g>
     <g id="text_4">
      <text style="font-size: 7px; font-family: 'Times New Roman', 'DejaVu Serif'; text-anchor: middle" x="177.776204" y="163.233413" transform="rotate(-0 177.776204 163.233413)">300</text>
     </g>
    </g>
    <g id="xtick_5">
     <g id="line2d_5">
      <g>
       <use xlink:href="#mfba35b3fdb" x="216.005124" y="151.872788" style="stroke: #000000; stroke-width: 0.8"/>
      </g>
     </g>
     <g id="text_5">
      <text style="font-size: 7px; font-family: 'Times New Roman', 'DejaVu Serif'; text-anchor: middle" x="216.005124" y="163.233413" transform="rotate(-0 216.005124 163.233413)">400</text>
     </g>
    </g>
    <g id="xtick_6">
     <g id="line2d_6">
      <g>
       <use xlink:href="#mfba35b3fdb" x="254.234044" y="151.872788" style="stroke: #000000; stroke-width: 0.8"/>
      </g>
     </g>
     <g id="text_6">
      <text style="font-size: 7px; font-family: 'Times New Roman', 'DejaVu Serif'; text-anchor: middle" x="254.234044" y="163.233413" transform="rotate(-0 254.234044 163.233413)">500</text>
     </g>
    </g>
    <g id="text_7">
     <text style="font-size: 7.5px; font-family: 'Songti SC', 'Arial Unicode MS'; text-anchor: middle" x="152.891758" y="174.828022" transform="rotate(-0 152.891758 174.828022)">最终损益</text>
    </g>
   </g>
   <g id="matplotlib.axis_2">
    <g id="ytick_1">
     <g id="line2d_7">
      <defs>
       <path id="m37bff0bcff" d="M 0 0 
L -3 0 
" style="stroke: #000000; stroke-width: 0.8"/>
      </defs>
      <g>
       <use xlink:href="#m37bff0bcff" x="44.030469" y="145.951232" style="stroke: #000000; stroke-width: 0.8"/>
      </g>
     </g>
     <g id="text_8">
      <text style="font-size: 7px; font-family: 'Times New Roman', 'DejaVu Serif'; text-anchor: end" x="37.530469" y="148.381544" transform="rotate(-0 37.530469 148.381544)">0.0000</text>
     </g>
    </g>
    <g id="ytick_2">
     <g id="line2d_8">
      <g>
       <use xlink:href="#m37bff0bcff" x="44.030469" y="128.756559" style="stroke: #000000; stroke-width: 0.8"/>
      </g>
     </g>
     <g id="text_9">
      <text style="font-size: 7px; font-family: 'Times New Roman', 'DejaVu Serif'; text-anchor: end" x="37.530469" y="131.186872" transform="rotate(-0 37.530469 131.186872)">0.0025</text>
     </g>
    </g>
    <g id="ytick_3">
     <g id="line2d_9">
      <g>
       <use xlink:href="#m37bff0bcff" x="44.030469" y="111.561887" style="stroke: #000000; stroke-width: 0.8"/>
      </g>
     </g>
     <g id="text_10">
      <text style="font-size: 7px; font-family: 'Times New Roman', 'DejaVu Serif'; text-anchor: end" x="37.530469" y="113.9922" transform="rotate(-0 37.530469 113.9922)">0.0050</text>
     </g>
    </g>
    <g id="ytick_4">
     <g id="line2d_10">
      <g>
       <use xlink:href="#m37bff0bcff" x="44.030469" y="94.367215" style="stroke: #000000; stroke-width: 0.8"/>
      </g>
     </g>
     <g id="text_11">
      <text style="font-size: 7px; font-family: 'Times New Roman', 'DejaVu Serif'; text-anchor: end" x="37.530469" y="96.797528" transform="rotate(-0 37.530469 96.797528)">0.0075</text>
     </g>
    </g>
    <g id="ytick_5">
     <g id="line2d_11">
      <g>
       <use xlink:href="#m37bff0bcff" x="44.030469" y="77.172543" style="stroke: #000000; stroke-width: 0.8"/>
      </g>
     </g>
     <g id="text_12">
      <text style="font-size: 7px; font-family: 'Times New Roman', 'DejaVu Serif'; text-anchor: end" x="37.530469" y="79.602855" transform="rotate(-0 37.530469 79.602855)">0.0100</text>
     </g>
    </g>
    <g id="ytick_6">
     <g id="line2d_12">
      <g>
       <use xlink:href="#m37bff0bcff" x="44.030469" y="59.977871" style="stroke: #000000; stroke-width: 0.8"/>
      </g>
     </g>
     <g id="text_13">
      <text style="font-size: 7px; font-family: 'Times New Roman', 'DejaVu Serif'; text-anchor: end" x="37.530469" y="62.408183" transform="rotate(-0 37.530469 62.408183)">0.0125</text>
     </g>
    </g>
    <g id="ytick_7">
     <g id="line2d_13">
      <g>
       <use xlink:href="#m37bff0bcff" x="44.030469" y="42.783199" style="stroke: #000000; stroke-width: 0.8"/>
      </g>
     </g>
     <g id="text_14">
      <text style="font-size: 7px; font-family: 'Times New Roman', 'DejaVu Serif'; text-anchor: end" x="37.530469" y="45.213511" transform="rotate(-0 37.530469 45.213511)">0.0150</text>
     </g>
    </g>
    <g id="ytick_8">
     <g id="line2d_14">
      <g>
       <use xlink:href="#m37bff0bcff" x="44.030469" y="25.588526" style="stroke: #000000; stroke-width: 0.8"/>
      </g>
     </g>
     <g id="text_15">
      <text style="font-size: 7px; font-family: 'Times New Roman', 'DejaVu Serif'; text-anchor: end" x="37.530469" y="28.018839" transform="rotate(-0 37.530469 28.018839)">0.0175</text>
     </g>
    </g>
    <g id="text_16">
     <text style="font-size: 7.5px; font-family: 'Songti SC', 'Arial Unicode MS'; text-anchor: middle" x="13.2375" y="86.735672" transform="rotate(-90 13.2375 86.735672)">钱包密度</text>
    </g>
   </g>
   <g id="line2d_15">
    <path d="M 53.92695 122.904465 
L 55.17179 113.396459 
L 56.41663 101.939593 
L 58.906311 75.195267 
L 60.151151 61.616217 
L 61.395992 49.288028 
L 62.640832 39.186197 
L 63.885672 32.025955 
L 65.130513 28.151992 
L 66.375353 27.520111 
L 67.620194 29.770208 
L 68.865034 34.358459 
L 70.109874 40.699171 
L 71.354715 48.270266 
L 73.844395 65.544774 
L 77.578916 92.568878 
L 78.823757 100.810395 
L 80.068597 108.236357 
L 81.313437 114.646395 
L 82.558278 119.908988 
L 83.803118 123.965605 
L 85.047959 126.825816 
L 86.292799 128.561624 
L 87.537639 129.30619 
L 88.78248 129.255497 
L 90.02732 128.665874 
L 92.517001 127.091327 
L 93.761841 126.708563 
L 95.006681 126.900697 
L 96.251522 127.766452 
L 97.496362 129.281333 
L 98.741203 131.31235 
L 102.475724 138.384541 
L 103.720564 140.412974 
L 104.965404 142.081965 
L 106.210245 143.371263 
L 107.455085 144.309529 
L 108.699925 144.954343 
L 109.944766 145.373591 
L 112.434446 145.782723 
L 116.168968 145.932552 
L 131.107052 145.951232 
L 251.856567 145.951232 
L 251.856567 145.951232 
" clip-path="url(#pb770a066a6)" style="fill: none; stroke: #0f4d92; stroke-width: 1.35; stroke-linecap: square"/>
   </g>
   <g id="line2d_16">
    <path d="M 53.92695 123.80859 
L 57.661471 121.467351 
L 61.395992 119.429515 
L 63.885672 118.289222 
L 66.375353 117.352603 
L 68.865034 116.638808 
L 71.354715 116.161074 
L 73.844395 115.926304 
L 76.334076 115.934932 
L 78.823757 116.181083 
L 81.313437 116.653 
L 83.803118 117.333694 
L 86.292799 118.201776 
L 90.02732 119.800209 
L 93.761841 121.670692 
L 99.986043 125.127316 
L 108.699925 129.97353 
L 113.679287 132.427324 
L 117.413808 134.024674 
L 121.148329 135.381116 
L 124.88285 136.483266 
L 128.617371 137.331496 
L 132.351892 137.938652 
L 136.086413 138.328443 
L 141.065775 138.567344 
L 146.045136 138.572475 
L 157.248699 138.256117 
L 164.717742 138.184431 
L 170.941943 138.369956 
L 177.166145 138.811233 
L 183.390347 139.482432 
L 192.104229 140.688239 
L 212.021675 143.567143 
L 219.490717 144.390379 
L 226.959759 145.004544 
L 235.673642 145.474504 
L 245.632365 145.762567 
L 251.856567 145.853716 
L 251.856567 145.853716 
" clip-path="url(#pb770a066a6)" style="fill: none; stroke: #8bcf8b; stroke-width: 1.35; stroke-linecap: square"/>
   </g>
   <g id="line2d_17">
    <path d="M 53.92695 119.107634 
L 57.661471 116.612272 
L 60.151151 115.166102 
L 62.640832 113.93279 
L 65.130513 112.940523 
L 67.620194 112.211617 
L 70.109874 111.761616 
L 72.599555 111.598702 
L 75.089236 111.723429 
L 77.578916 112.128807 
L 80.068597 112.800703 
L 82.558278 113.718557 
L 85.047959 114.856336 
L 87.537639 116.183687 
L 91.27216 118.456567 
L 96.251522 121.827712 
L 106.210245 128.741285 
L 111.189606 131.859438 
L 114.924127 133.936485 
L 118.658648 135.759044 
L 122.393169 137.319788 
L 126.12769 138.626522 
L 129.862211 139.698651 
L 133.596733 140.563587 
L 138.576094 141.450203 
L 143.555455 142.104875 
L 149.779657 142.709083 
L 160.98322 143.520012 
L 179.655826 144.646381 
L 189.614549 145.046105 
L 198.328431 145.176477 
L 207.042314 145.077445 
L 217.001037 144.73275 
L 238.163323 143.904779 
L 246.877205 143.850494 
L 251.856567 143.931587 
L 251.856567 143.931587 
" clip-path="url(#pb770a066a6)" style="fill: none; stroke: #d4a93b; stroke-width: 1.35; stroke-linecap: square"/>
   </g>
   <g id="line2d_18">
    <path d="M 53.92695 115.122307 
L 57.661471 109.981769 
L 60.151151 106.977414 
L 62.640832 104.463222 
L 63.885672 103.42439 
L 65.130513 102.545872 
L 66.375353 101.836129 
L 67.620194 101.301298 
L 68.865034 100.945083 
L 70.109874 100.768706 
L 71.354715 100.770911 
L 72.599555 100.948031 
L 73.844395 101.294107 
L 75.089236 101.801055 
L 76.334076 102.458885 
L 78.823757 104.179219 
L 81.313437 106.347185 
L 83.803118 108.842566 
L 88.78248 114.330907 
L 93.761841 119.779902 
L 97.496362 123.477466 
L 99.986043 125.681456 
L 102.475724 127.662376 
L 104.965404 129.42684 
L 107.455085 130.993736 
L 111.189606 133.033288 
L 114.924127 134.790889 
L 119.903489 136.852852 
L 126.12769 139.160922 
L 132.351892 141.209208 
L 137.331254 142.588351 
L 141.065775 143.423313 
L 144.800296 144.0632 
L 148.534817 144.499804 
L 152.269338 144.737455 
L 156.003859 144.791209 
L 160.98322 144.619545 
L 167.207422 144.129917 
L 179.655826 143.051865 
L 184.635187 142.891132 
L 189.614549 142.979391 
L 194.59391 143.297805 
L 202.062952 144.040064 
L 212.021675 145.032992 
L 219.490717 145.526682 
L 226.959759 145.788908 
L 238.163323 145.924357 
L 251.856567 145.949562 
L 251.856567 145.949562 
" clip-path="url(#pb770a066a6)" style="fill: none; stroke: #b64342; stroke-width: 1.35; stroke-linecap: square"/>
   </g>
   <g id="line2d_19">
    <path d="M 63.089445 151.872788 
L 63.089445 21.598555 
" clip-path="url(#pb770a066a6)" style="fill: none; stroke-dasharray: 0.8,1.32; stroke-dashoffset: 0; stroke: #767676; stroke-width: 0.8"/>
   </g>
   <g id="patch_3">
    <path d="M 44.030469 151.872788 
L 44.030469 21.598555 
" style="fill: none; stroke: #000000; stroke-width: 0.8; stroke-linejoin: miter; stroke-linecap: square"/>
   </g>
   <g id="patch_4">
    <path d="M 44.030469 151.872788 
L 261.753047 151.872788 
" style="fill: none; stroke: #000000; stroke-width: 0.8; stroke-linejoin: miter; stroke-linecap: square"/>
   </g>
   <g id="text_17">
    <text style="font-weight: 700; font-size: 9px; font-family: 'Times New Roman', 'DejaVu Serif'; text-anchor: start" x="9.194856" y="13.159688" transform="rotate(-0 9.194856 13.159688)">a</text>
   </g>
   <g id="text_18">
    <text style="font-size: 7.2px; font-family: 'Songti SC', 'Arial Unicode MS'; text-anchor: middle" x="152.891758" y="15.598555" transform="rotate(-0 152.891758 15.598555)">决策轮数扩展·以太坊 5000 美元</text>
   </g>
   <g id="legend_1">
    <g id="line2d_20">
     <path d="M 192.470235 28.77243 
L 197.110235 28.77243 
L 201.750235 28.77243 
" style="fill: none; stroke: #0f4d92; stroke-width: 1.35; stroke-linecap: square"/>
    </g>
    <g id="text_19">
     <text style="font-size: 5.8px; font-family: 'Songti SC', 'Arial Unicode MS'; text-anchor: start" x="206.390235" y="30.80243" transform="rotate(-0 206.390235 30.80243)">10轮</text>
    </g>
    <g id="line2d_21">
     <path d="M 192.470235 37.042868 
L 197.110235 37.042868 
L 201.750235 37.042868 
" style="fill: none; stroke: #8bcf8b; stroke-width: 1.35; stroke-linecap: square"/>
    </g>
    <g id="text_20">
     <text style="font-size: 5.8px; font-family: 'Songti SC', 'Arial Unicode MS'; text-anchor: start" x="206.390235" y="39.072868" transform="rotate(-0 206.390235 39.072868)">20轮</text>
    </g>
    <g id="line2d_22">
     <path d="M 229.23136 28.77243 
L 233.87136 28.77243 
L 238.51136 28.77243 
" style="fill: none; stroke: #d4a93b; stroke-width: 1.35; stroke-linecap: square"/>
    </g>
    <g id="text_21">
     <text style="font-size: 5.8px; font-family: 'Songti SC', 'Arial Unicode MS'; text-anchor: start" x="243.15136" y="30.80243" transform="rotate(-0 243.15136 30.80243)">50轮</text>
    </g>
    <g id="line2d_23">
     <path d="M 229.23136 37.042868 
L 233.87136 37.042868 
L 238.51136 37.042868 
" style="fill: none; stroke: #b64342; stroke-width: 1.35; stroke-linecap: square"/>
    </g>
    <g id="text_22">
     <text style="font-size: 5.8px; font-family: 'Songti SC', 'Arial Unicode MS'; text-anchor: start" x="243.15136" y="39.072868" transform="rotate(-0 243.15136 39.072868)">100轮</text>
    </g>
   </g>
  </g>
  <g id="axes_2">
   <g id="patch_5">
    <path d="M 301.900547 151.872788 
L 519.623126 151.872788 
L 519.623126 21.598555 
L 301.900547 21.598555 
z
" style="fill: #ffffff"/>
   </g>
   <g id="FillBetweenPolyCollection_5">
    <defs>
     <path id="mfb9d07ab57" d="M 311.797028 -120.967831 
L 311.797028 -37.119759 
L 313.041869 -37.119759 
L 314.286709 -37.119759 
L 315.531549 -37.119759 
L 316.77639 -37.119759 
L 318.02123 -37.119759 
L 319.26607 -37.119759 
L 320.510911 -37.119759 
L 321.755751 -37.119759 
L 323.000592 -37.119759 
L 324.245432 -37.119759 
L 325.490272 -37.119759 
L 326.735113 -37.119759 
L 327.979953 -37.119759 
L 329.224793 -37.119759 
L 330.469634 -37.119759 
L 331.714474 -37.119759 
L 332.959314 -37.119759 
L 334.204155 -37.119759 
L 335.448995 -37.119759 
L 336.693836 -37.119759 
L 337.938676 -37.119759 
L 339.183516 -37.119759 
L 340.428357 -37.119759 
L 341.673197 -37.119759 
L 342.918037 -37.119759 
L 344.162878 -37.119759 
L 345.407718 -37.119759 
L 346.652558 -37.119759 
L 347.897399 -37.119759 
L 349.142239 -37.119759 
L 350.387079 -37.119759 
L 351.63192 -37.119759 
L 352.87676 -37.119759 
L 354.121601 -37.119759 
L 355.366441 -37.119759 
L 356.611281 -37.119759 
L 357.856122 -37.119759 
L 359.100962 -37.119759 
L 360.345802 -37.119759 
L 361.590643 -37.119759 
L 362.835483 -37.119759 
L 364.080323 -37.119759 
L 365.325164 -37.119759 
L 366.570004 -37.119759 
L 367.814844 -37.119759 
L 369.059685 -37.119759 
L 370.304525 -37.119759 
L 371.549366 -37.119759 
L 372.794206 -37.119759 
L 374.039046 -37.119759 
L 375.283887 -37.119759 
L 376.528727 -37.119759 
L 377.773567 -37.119759 
L 379.018408 -37.119759 
L 380.263248 -37.119759 
L 381.508088 -37.119759 
L 382.752929 -37.119759 
L 383.997769 -37.119759 
L 385.24261 -37.119759 
L 386.48745 -37.119759 
L 387.73229 -37.119759 
L 388.977131 -37.119759 
L 390.221971 -37.119759 
L 391.466811 -37.119759 
L 392.711652 -37.119759 
L 393.956492 -37.119759 
L 395.201332 -37.119759 
L 396.446173 -37.119759 
L 397.691013 -37.119759 
L 398.935853 -37.119759 
L 400.180694 -37.119759 
L 401.425534 -37.119759 
L 402.670375 -37.119759 
L 403.915215 -37.119759 
L 405.160055 -37.119759 
L 406.404896 -37.119759 
L 407.649736 -37.119759 
L 408.894576 -37.119759 
L 410.139417 -37.119759 
L 411.384257 -37.119759 
L 412.629097 -37.119759 
L 413.873938 -37.119759 
L 415.118778 -37.119759 
L 416.363618 -37.119759 
L 417.608459 -37.119759 
L 418.853299 -37.119759 
L 420.09814 -37.119759 
L 421.34298 -37.119759 
L 422.58782 -37.119759 
L 423.832661 -37.119759 
L 425.077501 -37.119759 
L 426.322341 -37.119759 
L 427.567182 -37.119759 
L 428.812022 -37.119759 
L 430.056862 -37.119759 
L 431.301703 -37.119759 
L 432.546543 -37.119759 
L 433.791383 -37.119759 
L 435.036224 -37.119759 
L 436.281064 -37.119759 
L 437.525905 -37.119759 
L 438.770745 -37.119759 
L 440.015585 -37.119759 
L 441.260426 -37.119759 
L 442.505266 -37.119759 
L 443.750106 -37.119759 
L 444.994947 -37.119759 
L 446.239787 -37.119759 
L 447.484627 -37.119759 
L 448.729468 -37.119759 
L 449.974308 -37.119759 
L 451.219149 -37.119759 
L 452.463989 -37.119759 
L 453.708829 -37.119759 
L 454.95367 -37.119759 
L 456.19851 -37.119759 
L 457.44335 -37.119759 
L 458.688191 -37.119759 
L 459.933031 -37.119759 
L 461.177871 -37.119759 
L 462.422712 -37.119759 
L 463.667552 -37.119759 
L 464.912392 -37.119759 
L 466.157233 -37.119759 
L 467.402073 -37.119759 
L 468.646914 -37.119759 
L 469.891754 -37.119759 
L 471.136594 -37.119759 
L 472.381435 -37.119759 
L 473.626275 -37.119759 
L 474.871115 -37.119759 
L 476.115956 -37.119759 
L 477.360796 -37.119759 
L 478.605636 -37.119759 
L 479.850477 -37.119759 
L 481.095317 -37.119759 
L 482.340157 -37.119759 
L 483.584998 -37.119759 
L 484.829838 -37.119759 
L 486.074679 -37.119759 
L 487.319519 -37.119759 
L 488.564359 -37.119759 
L 489.8092 -37.119759 
L 491.05404 -37.119759 
L 492.29888 -37.119759 
L 493.543721 -37.119759 
L 494.788561 -37.119759 
L 496.033401 -37.119759 
L 497.278242 -37.119759 
L 498.523082 -37.119759 
L 499.767923 -37.119759 
L 501.012763 -37.119759 
L 502.257603 -37.119759 
L 503.502444 -37.119759 
L 504.747284 -37.119759 
L 505.992124 -37.119759 
L 507.236965 -37.119759 
L 508.481805 -37.119759 
L 509.726645 -37.119759 
L 509.726645 -37.119759 
L 509.726645 -37.119759 
L 508.481805 -37.119759 
L 507.236965 -37.119759 
L 505.992124 -37.119759 
L 504.747284 -37.119759 
L 503.502444 -37.119759 
L 502.257603 -37.119759 
L 501.012763 -37.119759 
L 499.767923 -37.119759 
L 498.523082 -37.11976 
L 497.278242 -37.11976 
L 496.033401 -37.11976 
L 494.788561 -37.119761 
L 493.543721 -37.119762 
L 492.29888 -37.119763 
L 491.05404 -37.119766 
L 489.8092 -37.119769 
L 488.564359 -37.119774 
L 487.319519 -37.119782 
L 486.074679 -37.119793 
L 484.829838 -37.11981 
L 483.584998 -37.119835 
L 482.340157 -37.119871 
L 481.095317 -37.119923 
L 479.850477 -37.119998 
L 478.605636 -37.120105 
L 477.360796 -37.120255 
L 476.115956 -37.120467 
L 474.871115 -37.120761 
L 473.626275 -37.121168 
L 472.381435 -37.121728 
L 471.136594 -37.122491 
L 469.891754 -37.123525 
L 468.646914 -37.124914 
L 467.402073 -37.126769 
L 466.157233 -37.129226 
L 464.912392 -37.132458 
L 463.667552 -37.136679 
L 462.422712 -37.142151 
L 461.177871 -37.149193 
L 459.933031 -37.15819 
L 458.688191 -37.169599 
L 457.44335 -37.183961 
L 456.19851 -37.201906 
L 454.95367 -37.224164 
L 453.708829 -37.251565 
L 452.463989 -37.285047 
L 451.219149 -37.325651 
L 449.974308 -37.374525 
L 448.729468 -37.432908 
L 447.484627 -37.502122 
L 446.239787 -37.583553 
L 444.994947 -37.678625 
L 443.750106 -37.78877 
L 442.505266 -37.915394 
L 441.260426 -38.059833 
L 440.015585 -38.22331 
L 438.770745 -38.406883 
L 437.525905 -38.611397 
L 436.281064 -38.837434 
L 435.036224 -39.085265 
L 433.791383 -39.354809 
L 432.546543 -39.645597 
L 431.301703 -39.956749 
L 430.056862 -40.286956 
L 428.812022 -40.634488 
L 427.567182 -40.9972 
L 426.322341 -41.372565 
L 425.077501 -41.757718 
L 423.832661 -42.149508 
L 422.58782 -42.544568 
L 421.34298 -42.939391 
L 420.09814 -43.330409 
L 418.853299 -43.714076 
L 417.608459 -44.086949 
L 416.363618 -44.445763 
L 415.118778 -44.787498 
L 413.873938 -45.109433 
L 412.629097 -45.409191 
L 411.384257 -45.684762 
L 410.139417 -45.934523 
L 408.894576 -46.157238 
L 407.649736 -46.352047 
L 406.404896 -46.518451 
L 405.160055 -46.656286 
L 403.915215 -46.7657 
L 402.670375 -46.847126 
L 401.425534 -46.901263 
L 400.180694 -46.929056 
L 398.935853 -46.931684 
L 397.691013 -46.91056 
L 396.446173 -46.867325 
L 395.201332 -46.803853 
L 393.956492 -46.722255 
L 392.711652 -46.624879 
L 391.466811 -46.514306 
L 390.221971 -46.393339 
L 388.977131 -46.264982 
L 387.73229 -46.132407 
L 386.48745 -45.998915 
L 385.24261 -45.867882 
L 383.997769 -45.742707 
L 382.752929 -45.626749 
L 381.508088 -45.523279 
L 380.263248 -45.43543 
L 379.018408 -45.366176 
L 377.773567 -45.318321 
L 376.528727 -45.294528 
L 375.283887 -45.297365 
L 374.039046 -45.329406 
L 372.794206 -45.393345 
L 371.549366 -45.492163 
L 370.304525 -45.629312 
L 369.059685 -45.808924 
L 367.814844 -46.036035 
L 366.570004 -46.316807 
L 365.325164 -46.658737 
L 364.080323 -47.070839 
L 362.835483 -47.563782 
L 361.590643 -48.149969 
L 360.345802 -48.843536 
L 359.100962 -49.660271 
L 357.856122 -50.617422 
L 356.611281 -51.733406 
L 355.366441 -53.027395 
L 354.121601 -54.518798 
L 352.87676 -56.226627 
L 351.63192 -58.168768 
L 350.387079 -60.361167 
L 349.142239 -62.816961 
L 347.897399 -65.545571 
L 346.652558 -68.551796 
L 345.407718 -71.834952 
L 344.162878 -75.388071 
L 342.918037 -79.197238 
L 341.673197 -83.24107 
L 340.428357 -87.490407 
L 339.183516 -91.908228 
L 337.938676 -96.449833 
L 336.693836 -101.063299 
L 335.448995 -105.690235 
L 334.204155 -110.266817 
L 332.959314 -114.725087 
L 331.714474 -118.994502 
L 330.469634 -123.003664 
L 329.224793 -126.682206 
L 327.979953 -129.962735 
L 326.735113 -132.782785 
L 325.490272 -135.086698 
L 324.245432 -136.82734 
L 323.000592 -137.967606 
L 321.755751 -138.48162 
L 320.510911 -138.3556 
L 319.26607 -137.588333 
L 318.02123 -136.191246 
L 316.77639 -134.188059 
L 315.531549 -131.61405 
L 314.286709 -128.514947 
L 313.041869 -124.945505 
L 311.797028 -120.967831 
z
" style="stroke: #0f4d92; stroke-opacity: 0.06"/>
    </defs>
    <g clip-path="url(#pfccf9da20d)">
     <use xlink:href="#mfb9d07ab57" x="0" y="183.070991" style="fill: #0f4d92; fill-opacity: 0.06; stroke: #0f4d92; stroke-opacity: 0.06"/>
    </g>
   </g>
   <g id="FillBetweenPolyCollection_6">
    <defs>
     <path id="m773e174d05" d="M 311.797028 -94.400409 
L 311.797028 -37.119759 
L 313.041869 -37.119759 
L 314.286709 -37.119759 
L 315.531549 -37.119759 
L 316.77639 -37.119759 
L 318.02123 -37.119759 
L 319.26607 -37.119759 
L 320.510911 -37.119759 
L 321.755751 -37.119759 
L 323.000592 -37.119759 
L 324.245432 -37.119759 
L 325.490272 -37.119759 
L 326.735113 -37.119759 
L 327.979953 -37.119759 
L 329.224793 -37.119759 
L 330.469634 -37.119759 
L 331.714474 -37.119759 
L 332.959314 -37.119759 
L 334.204155 -37.119759 
L 335.448995 -37.119759 
L 336.693836 -37.119759 
L 337.938676 -37.119759 
L 339.183516 -37.119759 
L 340.428357 -37.119759 
L 341.673197 -37.119759 
L 342.918037 -37.119759 
L 344.162878 -37.119759 
L 345.407718 -37.119759 
L 346.652558 -37.119759 
L 347.897399 -37.119759 
L 349.142239 -37.119759 
L 350.387079 -37.119759 
L 351.63192 -37.119759 
L 352.87676 -37.119759 
L 354.121601 -37.119759 
L 355.366441 -37.119759 
L 356.611281 -37.119759 
L 357.856122 -37.119759 
L 359.100962 -37.119759 
L 360.345802 -37.119759 
L 361.590643 -37.119759 
L 362.835483 -37.119759 
L 364.080323 -37.119759 
L 365.325164 -37.119759 
L 366.570004 -37.119759 
L 367.814844 -37.119759 
L 369.059685 -37.119759 
L 370.304525 -37.119759 
L 371.549366 -37.119759 
L 372.794206 -37.119759 
L 374.039046 -37.119759 
L 375.283887 -37.119759 
L 376.528727 -37.119759 
L 377.773567 -37.119759 
L 379.018408 -37.119759 
L 380.263248 -37.119759 
L 381.508088 -37.119759 
L 382.752929 -37.119759 
L 383.997769 -37.119759 
L 385.24261 -37.119759 
L 386.48745 -37.119759 
L 387.73229 -37.119759 
L 388.977131 -37.119759 
L 390.221971 -37.119759 
L 391.466811 -37.119759 
L 392.711652 -37.119759 
L 393.956492 -37.119759 
L 395.201332 -37.119759 
L 396.446173 -37.119759 
L 397.691013 -37.119759 
L 398.935853 -37.119759 
L 400.180694 -37.119759 
L 401.425534 -37.119759 
L 402.670375 -37.119759 
L 403.915215 -37.119759 
L 405.160055 -37.119759 
L 406.404896 -37.119759 
L 407.649736 -37.119759 
L 408.894576 -37.119759 
L 410.139417 -37.119759 
L 411.384257 -37.119759 
L 412.629097 -37.119759 
L 413.873938 -37.119759 
L 415.118778 -37.119759 
L 416.363618 -37.119759 
L 417.608459 -37.119759 
L 418.853299 -37.119759 
L 420.09814 -37.119759 
L 421.34298 -37.119759 
L 422.58782 -37.119759 
L 423.832661 -37.119759 
L 425.077501 -37.119759 
L 426.322341 -37.119759 
L 427.567182 -37.119759 
L 428.812022 -37.119759 
L 430.056862 -37.119759 
L 431.301703 -37.119759 
L 432.546543 -37.119759 
L 433.791383 -37.119759 
L 435.036224 -37.119759 
L 436.281064 -37.119759 
L 437.525905 -37.119759 
L 438.770745 -37.119759 
L 440.015585 -37.119759 
L 441.260426 -37.119759 
L 442.505266 -37.119759 
L 443.750106 -37.119759 
L 444.994947 -37.119759 
L 446.239787 -37.119759 
L 447.484627 -37.119759 
L 448.729468 -37.119759 
L 449.974308 -37.119759 
L 451.219149 -37.119759 
L 452.463989 -37.119759 
L 453.708829 -37.119759 
L 454.95367 -37.119759 
L 456.19851 -37.119759 
L 457.44335 -37.119759 
L 458.688191 -37.119759 
L 459.933031 -37.119759 
L 461.177871 -37.119759 
L 462.422712 -37.119759 
L 463.667552 -37.119759 
L 464.912392 -37.119759 
L 466.157233 -37.119759 
L 467.402073 -37.119759 
L 468.646914 -37.119759 
L 469.891754 -37.119759 
L 471.136594 -37.119759 
L 472.381435 -37.119759 
L 473.626275 -37.119759 
L 474.871115 -37.119759 
L 476.115956 -37.119759 
L 477.360796 -37.119759 
L 478.605636 -37.119759 
L 479.850477 -37.119759 
L 481.095317 -37.119759 
L 482.340157 -37.119759 
L 483.584998 -37.119759 
L 484.829838 -37.119759 
L 486.074679 -37.119759 
L 487.319519 -37.119759 
L 488.564359 -37.119759 
L 489.8092 -37.119759 
L 491.05404 -37.119759 
L 492.29888 -37.119759 
L 493.543721 -37.119759 
L 494.788561 -37.119759 
L 496.033401 -37.119759 
L 497.278242 -37.119759 
L 498.523082 -37.119759 
L 499.767923 -37.119759 
L 501.012763 -37.119759 
L 502.257603 -37.119759 
L 503.502444 -37.119759 
L 504.747284 -37.119759 
L 505.992124 -37.119759 
L 507.236965 -37.119759 
L 508.481805 -37.119759 
L 509.726645 -37.119759 
L 509.726645 -40.701209 
L 509.726645 -40.701209 
L 508.481805 -40.750419 
L 507.236965 -40.791003 
L 505.992124 -40.82266 
L 504.747284 -40.845153 
L 503.502444 -40.858314 
L 502.257603 -40.862046 
L 501.012763 -40.856322 
L 499.767923 -40.84119 
L 498.523082 -40.816766 
L 497.278242 -40.783241 
L 496.033401 -40.740869 
L 494.788561 -40.689973 
L 493.543721 -40.630935 
L 492.29888 -40.564196 
L 491.05404 -40.490247 
L 489.8092 -40.409625 
L 488.564359 -40.322907 
L 487.319519 -40.230705 
L 486.074679 -40.133658 
L 484.829838 -40.032423 
L 483.584998 -39.927673 
L 482.340157 -39.820088 
L 481.095317 -39.710347 
L 479.850477 -39.599128 
L 478.605636 -39.487093 
L 477.360796 -39.374891 
L 476.115956 -39.26315 
L 474.871115 -39.152472 
L 473.626275 -39.043433 
L 472.381435 -38.936575 
L 471.136594 -38.832408 
L 469.891754 -38.731407 
L 468.646914 -38.63401 
L 467.402073 -38.540618 
L 466.157233 -38.451598 
L 464.912392 -38.367279 
L 463.667552 -38.287955 
L 462.422712 -38.213888 
L 461.177871 -38.145308 
L 459.933031 -38.082415 
L 458.688191 -38.025382 
L 457.44335 -37.974357 
L 456.19851 -37.929465 
L 454.95367 -37.89081 
L 453.708829 -37.858479 
L 452.463989 -37.832542 
L 451.219149 -37.813054 
L 449.974308 -37.800059 
L 448.729468 -37.793586 
L 447.484627 -37.793658 
L 446.239787 -37.800284 
L 444.994947 -37.813465 
L 443.750106 -37.833194 
L 442.505266 -37.859453 
L 441.260426 -37.892211 
L 440.015585 -37.931431 
L 438.770745 -37.977059 
L 437.525905 -38.029032 
L 436.281064 -38.087268 
L 435.036224 -38.151674 
L 433.791383 -38.222137 
L 432.546543 -38.298527 
L 431.301703 -38.380697 
L 430.056862 -38.46848 
L 428.812022 -38.561692 
L 427.567182 -38.660128 
L 426.322341 -38.76357 
L 425.077501 -38.871781 
L 423.832661 -38.984515 
L 422.58782 -39.101514 
L 421.34298 -39.222517 
L 420.09814 -39.347263 
L 418.853299 -39.475496 
L 417.608459 -39.606973 
L 416.363618 -39.741471 
L 415.118778 -39.878797 
L 413.873938 -40.018795 
L 412.629097 -40.161358 
L 411.384257 -40.306435 
L 410.139417 -40.454049 
L 408.894576 -40.604299 
L 407.649736 -40.757379 
L 406.404896 -40.913587 
L 405.160055 -41.073335 
L 403.915215 -41.237163 
L 402.670375 -41.405747 
L 401.425534 -41.579909 
L 400.180694 -41.760627 
L 398.935853 -41.949041 
L 397.691013 -42.14646 
L 396.446173 -42.354366 
L 395.201332 -42.574414 
L 393.956492 -42.808435 
L 392.711652 -43.058434 
L 391.466811 -43.326582 
L 390.221971 -43.615211 
L 388.977131 -43.926803 
L 387.73229 -44.263977 
L 386.48745 -44.629471 
L 385.24261 -45.026125 
L 383.997769 -45.456857 
L 382.752929 -45.924637 
L 381.508088 -46.43246 
L 380.263248 -46.983311 
L 379.018408 -47.580136 
L 377.773567 -48.225801 
L 376.528727 -48.923054 
L 375.283887 -49.674485 
L 374.039046 -50.482484 
L 372.794206 -51.349195 
L 371.549366 -52.276475 
L 370.304525 -53.265847 
L 369.059685 -54.318459 
L 367.814844 -55.435035 
L 366.570004 -56.615844 
L 365.325164 -57.860651 
L 364.080323 -59.168685 
L 362.835483 -60.53861 
L 361.590643 -61.96849 
L 360.345802 -63.455772 
L 359.100962 -64.997264 
L 357.856122 -66.589128 
L 356.611281 -68.226871 
L 355.366441 -69.905351 
L 354.121601 -71.618788 
L 352.87676 -73.360777 
L 351.63192 -75.124322 
L 350.387079 -76.901864 
L 349.142239 -78.68533 
L 347.897399 -80.46618 
L 346.652558 -82.235469 
L 345.407718 -83.983911 
L 344.162878 -85.701957 
L 342.918037 -87.379868 
L 341.673197 -89.00781 
L 340.428357 -90.575933 
L 339.183516 -92.074473 
L 337.938676 -93.493843 
L 336.693836 -94.824731 
L 335.448995 -96.058197 
L 334.204155 -97.185765 
L 332.959314 -98.199517 
L 331.714474 -99.092181 
L 330.469634 -99.857213 
L 329.224793 -100.488868 
L 327.979953 -100.982272 
L 326.735113 -101.333478 
L 325.490272 -101.539512 
L 324.245432 -101.598412 
L 323.000592 -101.509252 
L 321.755751 -101.272156 
L 320.510911 -100.888296 
L 319.26607 -100.359887 
L 318.02123 -99.690157 
L 316.77639 -98.883316 
L 315.531549 -97.944504 
L 314.286709 -96.879742 
L 313.041869 -95.695856 
L 311.797028 -94.400409 
z
" style="stroke: #8bcf8b; stroke-opacity: 0.06"/>
    </defs>
    <g clip-path="url(#pfccf9da20d)">
     <use xlink:href="#m773e174d05" x="0" y="183.070991" style="fill: #8bcf8b; fill-opacity: 0.06; stroke: #8bcf8b; stroke-opacity: 0.06"/>
    </g>
   </g>
   <g id="FillBetweenPolyCollection_7">
    <defs>
     <path id="mf8b901ff1e" d="M 311.797028 -122.478036 
L 311.797028 -37.119759 
L 313.041869 -37.119759 
L 314.286709 -37.119759 
L 315.531549 -37.119759 
L 316.77639 -37.119759 
L 318.02123 -37.119759 
L 319.26607 -37.119759 
L 320.510911 -37.119759 
L 321.755751 -37.119759 
L 323.000592 -37.119759 
L 324.245432 -37.119759 
L 325.490272 -37.119759 
L 326.735113 -37.119759 
L 327.979953 -37.119759 
L 329.224793 -37.119759 
L 330.469634 -37.119759 
L 331.714474 -37.119759 
L 332.959314 -37.119759 
L 334.204155 -37.119759 
L 335.448995 -37.119759 
L 336.693836 -37.119759 
L 337.938676 -37.119759 
L 339.183516 -37.119759 
L 340.428357 -37.119759 
L 341.673197 -37.119759 
L 342.918037 -37.119759 
L 344.162878 -37.119759 
L 345.407718 -37.119759 
L 346.652558 -37.119759 
L 347.897399 -37.119759 
L 349.142239 -37.119759 
L 350.387079 -37.119759 
L 351.63192 -37.119759 
L 352.87676 -37.119759 
L 354.121601 -37.119759 
L 355.366441 -37.119759 
L 356.611281 -37.119759 
L 357.856122 -37.119759 
L 359.100962 -37.119759 
L 360.345802 -37.119759 
L 361.590643 -37.119759 
L 362.835483 -37.119759 
L 364.080323 -37.119759 
L 365.325164 -37.119759 
L 366.570004 -37.119759 
L 367.814844 -37.119759 
L 369.059685 -37.119759 
L 370.304525 -37.119759 
L 371.549366 -37.119759 
L 372.794206 -37.119759 
L 374.039046 -37.119759 
L 375.283887 -37.119759 
L 376.528727 -37.119759 
L 377.773567 -37.119759 
L 379.018408 -37.119759 
L 380.263248 -37.119759 
L 381.508088 -37.119759 
L 382.752929 -37.119759 
L 383.997769 -37.119759 
L 385.24261 -37.119759 
L 386.48745 -37.119759 
L 387.73229 -37.119759 
L 388.977131 -37.119759 
L 390.221971 -37.119759 
L 391.466811 -37.119759 
L 392.711652 -37.119759 
L 393.956492 -37.119759 
L 395.201332 -37.119759 
L 396.446173 -37.119759 
L 397.691013 -37.119759 
L 398.935853 -37.119759 
L 400.180694 -37.119759 
L 401.425534 -37.119759 
L 402.670375 -37.119759 
L 403.915215 -37.119759 
L 405.160055 -37.119759 
L 406.404896 -37.119759 
L 407.649736 -37.119759 
L 408.894576 -37.119759 
L 410.139417 -37.119759 
L 411.384257 -37.119759 
L 412.629097 -37.119759 
L 413.873938 -37.119759 
L 415.118778 -37.119759 
L 416.363618 -37.119759 
L 417.608459 -37.119759 
L 418.853299 -37.119759 
L 420.09814 -37.119759 
L 421.34298 -37.119759 
L 422.58782 -37.119759 
L 423.832661 -37.119759 
L 425.077501 -37.119759 
L 426.322341 -37.119759 
L 427.567182 -37.119759 
L 428.812022 -37.119759 
L 430.056862 -37.119759 
L 431.301703 -37.119759 
L 432.546543 -37.119759 
L 433.791383 -37.119759 
L 435.036224 -37.119759 
L 436.281064 -37.119759 
L 437.525905 -37.119759 
L 438.770745 -37.119759 
L 440.015585 -37.119759 
L 441.260426 -37.119759 
L 442.505266 -37.119759 
L 443.750106 -37.119759 
L 444.994947 -37.119759 
L 446.239787 -37.119759 
L 447.484627 -37.119759 
L 448.729468 -37.119759 
L 449.974308 -37.119759 
L 451.219149 -37.119759 
L 452.463989 -37.119759 
L 453.708829 -37.119759 
L 454.95367 -37.119759 
L 456.19851 -37.119759 
L 457.44335 -37.119759 
L 458.688191 -37.119759 
L 459.933031 -37.119759 
L 461.177871 -37.119759 
L 462.422712 -37.119759 
L 463.667552 -37.119759 
L 464.912392 -37.119759 
L 466.157233 -37.119759 
L 467.402073 -37.119759 
L 468.646914 -37.119759 
L 469.891754 -37.119759 
L 471.136594 -37.119759 
L 472.381435 -37.119759 
L 473.626275 -37.119759 
L 474.871115 -37.119759 
L 476.115956 -37.119759 
L 477.360796 -37.119759 
L 478.605636 -37.119759 
L 479.850477 -37.119759 
L 481.095317 -37.119759 
L 482.340157 -37.119759 
L 483.584998 -37.119759 
L 484.829838 -37.119759 
L 486.074679 -37.119759 
L 487.319519 -37.119759 
L 488.564359 -37.119759 
L 489.8092 -37.119759 
L 491.05404 -37.119759 
L 492.29888 -37.119759 
L 493.543721 -37.119759 
L 494.788561 -37.119759 
L 496.033401 -37.119759 
L 497.278242 -37.119759 
L 498.523082 -37.119759 
L 499.767923 -37.119759 
L 501.012763 -37.119759 
L 502.257603 -37.119759 
L 503.502444 -37.119759 
L 504.747284 -37.119759 
L 505.992124 -37.119759 
L 507.236965 -37.119759 
L 508.481805 -37.119759 
L 509.726645 -37.119759 
L 509.726645 -37.119759 
L 509.726645 -37.119759 
L 508.481805 -37.119759 
L 507.236965 -37.119759 
L 505.992124 -37.119759 
L 504.747284 -37.119759 
L 503.502444 -37.119759 
L 502.257603 -37.119759 
L 501.012763 -37.119759 
L 499.767923 -37.119759 
L 498.523082 -37.119759 
L 497.278242 -37.119759 
L 496.033401 -37.119759 
L 494.788561 -37.119759 
L 493.543721 -37.119759 
L 492.29888 -37.119759 
L 491.05404 -37.11976 
L 489.8092 -37.11976 
L 488.564359 -37.11976 
L 487.319519 -37.119761 
L 486.074679 -37.119763 
L 484.829838 -37.119765 
L 483.584998 -37.119769 
L 482.340157 -37.119775 
L 481.095317 -37.119786 
L 479.850477 -37.119802 
L 478.605636 -37.119828 
L 477.360796 -37.119869 
L 476.115956 -37.119931 
L 474.871115 -37.120028 
L 473.626275 -37.120174 
L 472.381435 -37.120394 
L 471.136594 -37.120721 
L 469.891754 -37.121204 
L 468.646914 -37.121908 
L 467.402073 -37.122924 
L 466.157233 -37.124378 
L 464.912392 -37.126436 
L 463.667552 -37.12932 
L 462.422712 -37.133321 
L 461.177871 -37.138814 
L 459.933031 -37.146281 
L 458.688191 -37.156325 
L 457.44335 -37.169697 
L 456.19851 -37.187318 
L 454.95367 -37.210295 
L 453.708829 -37.239944 
L 452.463989 -37.277799 
L 451.219149 -37.325619 
L 449.974308 -37.385382 
L 448.729468 -37.459265 
L 447.484627 -37.54961 
L 446.239787 -37.658869 
L 444.994947 -37.789528 
L 443.750106 -37.944012 
L 442.505266 -38.124572 
L 441.260426 -38.333143 
L 440.015585 -38.571201 
L 438.770745 -38.839606 
L 437.525905 -39.138443 
L 436.281064 -39.466879 
L 435.036224 -39.823038 
L 433.791383 -40.203905 
L 432.546543 -40.605278 
L 431.301703 -41.021771 
L 430.056862 -41.446871 
L 428.812022 -41.87307 
L 427.567182 -42.292049 
L 426.322341 -42.694927 
L 425.077501 -43.072563 
L 423.832661 -43.415889 
L 422.58782 -43.71627 
L 421.34298 -43.965862 
L 420.09814 -44.157951 
L 418.853299 -44.287252 
L 417.608459 -44.350152 
L 416.363618 -44.344879 
L 415.118778 -44.271582 
L 413.873938 -44.132326 
L 412.629097 -43.930992 
L 411.384257 -43.673104 
L 410.139417 -43.365571 
L 408.894576 -43.016383 
L 407.649736 -42.634267 
L 406.404896 -42.228326 
L 405.160055 -41.807685 
L 403.915215 -41.38116 
L 402.670375 -40.956968 
L 401.425534 -40.542484 
L 400.180694 -40.144069 
L 398.935853 -39.766952 
L 397.691013 -39.415185 
L 396.446173 -39.091654 
L 395.201332 -38.798141 
L 393.956492 -38.535433 
L 392.711652 -38.303468 
L 391.466811 -38.101491 
L 390.221971 -37.928239 
L 388.977131 -37.782124 
L 387.73229 -37.661411 
L 386.48745 -37.564396 
L 385.24261 -37.489573 
L 383.997769 -37.43579 
L 382.752929 -37.402398 
L 381.508088 -37.389385 
L 380.263248 -37.39751 
L 379.018408 -37.428426 
L 377.773567 -37.4848 
L 376.528727 -37.57042 
L 375.283887 -37.690303 
L 374.039046 -37.850782 
L 372.794206 -38.059574 
L 371.549366 -38.325833 
L 370.304525 -38.660161 
L 369.059685 -39.074585 
L 367.814844 -39.582484 
L 366.570004 -40.198471 
L 365.325164 -40.938215 
L 364.080323 -41.818209 
L 362.835483 -42.855492 
L 361.590643 -44.067323 
L 360.345802 -45.47082 
L 359.100962 -47.082583 
L 357.856122 -48.918306 
L 356.611281 -50.992394 
L 355.366441 -53.317603 
L 354.121601 -55.904691 
L 352.87676 -58.762105 
L 351.63192 -61.895685 
L 350.387079 -65.308368 
L 349.142239 -68.999889 
L 347.897399 -72.966445 
L 346.652558 -77.200315 
L 345.407718 -81.689401 
L 344.162878 -86.416702 
L 342.918037 -91.359713 
L 341.673197 -96.48978 
L 340.428357 -101.771446 
L 339.183516 -107.161858 
L 337.938676 -112.610309 
L 336.693836 -118.057995 
L 335.448995 -123.438104 
L 334.204155 -128.676302 
L 332.959314 -133.691704 
L 331.714474 -138.398362 
L 330.469634 -142.707294 
L 329.224793 -146.529009 
L 327.979953 -149.776449 
L 326.735113 -152.368228 
L 325.490272 -154.231999 
L 324.245432 -155.30776 
L 323.000592 -155.550879 
L 321.755751 -154.93466 
L 320.510911 -153.452226 
L 319.26607 -151.117601 
L 318.02123 -147.965869 
L 316.77639 -144.052386 
L 315.531549 -139.451043 
L 314.286709 -134.251696 
L 313.041869 -128.556885 
L 311.797028 -122.478036 
z
" style="stroke: #d4a93b; stroke-opacity: 0.06"/>
    </defs>
    <g clip-path="url(#pfccf9da20d)">
     <use xlink:href="#mf8b901ff1e" x="0" y="183.070991" style="fill: #d4a93b; fill-opacity: 0.06; stroke: #d4a93b; stroke-opacity: 0.06"/>
    </g>
   </g>
   <g id="FillBetweenPolyCollection_8">
    <defs>
     <path id="m796c762de2" d="M 311.797028 -108.217841 
L 311.797028 -37.119759 
L 313.041869 -37.119759 
L 314.286709 -37.119759 
L 315.531549 -37.119759 
L 316.77639 -37.119759 
L 318.02123 -37.119759 
L 319.26607 -37.119759 
L 320.510911 -37.119759 
L 321.755751 -37.119759 
L 323.000592 -37.119759 
L 324.245432 -37.119759 
L 325.490272 -37.119759 
L 326.735113 -37.119759 
L 327.979953 -37.119759 
L 329.224793 -37.119759 
L 330.469634 -37.119759 
L 331.714474 -37.119759 
L 332.959314 -37.119759 
L 334.204155 -37.119759 
L 335.448995 -37.119759 
L 336.693836 -37.119759 
L 337.938676 -37.119759 
L 339.183516 -37.119759 
L 340.428357 -37.119759 
L 341.673197 -37.119759 
L 342.918037 -37.119759 
L 344.162878 -37.119759 
L 345.407718 -37.119759 
L 346.652558 -37.119759 
L 347.897399 -37.119759 
L 349.142239 -37.119759 
L 350.387079 -37.119759 
L 351.63192 -37.119759 
L 352.87676 -37.119759 
L 354.121601 -37.119759 
L 355.366441 -37.119759 
L 356.611281 -37.119759 
L 357.856122 -37.119759 
L 359.100962 -37.119759 
L 360.345802 -37.119759 
L 361.590643 -37.119759 
L 362.835483 -37.119759 
L 364.080323 -37.119759 
L 365.325164 -37.119759 
L 366.570004 -37.119759 
L 367.814844 -37.119759 
L 369.059685 -37.119759 
L 370.304525 -37.119759 
L 371.549366 -37.119759 
L 372.794206 -37.119759 
L 374.039046 -37.119759 
L 375.283887 -37.119759 
L 376.528727 -37.119759 
L 377.773567 -37.119759 
L 379.018408 -37.119759 
L 380.263248 -37.119759 
L 381.508088 -37.119759 
L 382.752929 -37.119759 
L 383.997769 -37.119759 
L 385.24261 -37.119759 
L 386.48745 -37.119759 
L 387.73229 -37.119759 
L 388.977131 -37.119759 
L 390.221971 -37.119759 
L 391.466811 -37.119759 
L 392.711652 -37.119759 
L 393.956492 -37.119759 
L 395.201332 -37.119759 
L 396.446173 -37.119759 
L 397.691013 -37.119759 
L 398.935853 -37.119759 
L 400.180694 -37.119759 
L 401.425534 -37.119759 
L 402.670375 -37.119759 
L 403.915215 -37.119759 
L 405.160055 -37.119759 
L 406.404896 -37.119759 
L 407.649736 -37.119759 
L 408.894576 -37.119759 
L 410.139417 -37.119759 
L 411.384257 -37.119759 
L 412.629097 -37.119759 
L 413.873938 -37.119759 
L 415.118778 -37.119759 
L 416.363618 -37.119759 
L 417.608459 -37.119759 
L 418.853299 -37.119759 
L 420.09814 -37.119759 
L 421.34298 -37.119759 
L 422.58782 -37.119759 
L 423.832661 -37.119759 
L 425.077501 -37.119759 
L 426.322341 -37.119759 
L 427.567182 -37.119759 
L 428.812022 -37.119759 
L 430.056862 -37.119759 
L 431.301703 -37.119759 
L 432.546543 -37.119759 
L 433.791383 -37.119759 
L 435.036224 -37.119759 
L 436.281064 -37.119759 
L 437.525905 -37.119759 
L 438.770745 -37.119759 
L 440.015585 -37.119759 
L 441.260426 -37.119759 
L 442.505266 -37.119759 
L 443.750106 -37.119759 
L 444.994947 -37.119759 
L 446.239787 -37.119759 
L 447.484627 -37.119759 
L 448.729468 -37.119759 
L 449.974308 -37.119759 
L 451.219149 -37.119759 
L 452.463989 -37.119759 
L 453.708829 -37.119759 
L 454.95367 -37.119759 
L 456.19851 -37.119759 
L 457.44335 -37.119759 
L 458.688191 -37.119759 
L 459.933031 -37.119759 
L 461.177871 -37.119759 
L 462.422712 -37.119759 
L 463.667552 -37.119759 
L 464.912392 -37.119759 
L 466.157233 -37.119759 
L 467.402073 -37.119759 
L 468.646914 -37.119759 
L 469.891754 -37.119759 
L 471.136594 -37.119759 
L 472.381435 -37.119759 
L 473.626275 -37.119759 
L 474.871115 -37.119759 
L 476.115956 -37.119759 
L 477.360796 -37.119759 
L 478.605636 -37.119759 
L 479.850477 -37.119759 
L 481.095317 -37.119759 
L 482.340157 -37.119759 
L 483.584998 -37.119759 
L 484.829838 -37.119759 
L 486.074679 -37.119759 
L 487.319519 -37.119759 
L 488.564359 -37.119759 
L 489.8092 -37.119759 
L 491.05404 -37.119759 
L 492.29888 -37.119759 
L 493.543721 -37.119759 
L 494.788561 -37.119759 
L 496.033401 -37.119759 
L 497.278242 -37.119759 
L 498.523082 -37.119759 
L 499.767923 -37.119759 
L 501.012763 -37.119759 
L 502.257603 -37.119759 
L 503.502444 -37.119759 
L 504.747284 -37.119759 
L 505.992124 -37.119759 
L 507.236965 -37.119759 
L 508.481805 -37.119759 
L 509.726645 -37.119759 
L 509.726645 -37.119759 
L 509.726645 -37.119759 
L 508.481805 -37.119759 
L 507.236965 -37.119759 
L 505.992124 -37.119759 
L 504.747284 -37.119759 
L 503.502444 -37.119759 
L 502.257603 -37.119759 
L 501.012763 -37.119759 
L 499.767923 -37.119759 
L 498.523082 -37.119759 
L 497.278242 -37.119759 
L 496.033401 -37.119759 
L 494.788561 -37.119759 
L 493.543721 -37.119759 
L 492.29888 -37.119759 
L 491.05404 -37.119759 
L 489.8092 -37.119759 
L 488.564359 -37.119759 
L 487.319519 -37.119759 
L 486.074679 -37.119759 
L 484.829838 -37.119759 
L 483.584998 -37.119759 
L 482.340157 -37.119759 
L 481.095317 -37.119759 
L 479.850477 -37.119759 
L 478.605636 -37.119759 
L 477.360796 -37.119759 
L 476.115956 -37.119759 
L 474.871115 -37.119759 
L 473.626275 -37.119759 
L 472.381435 -37.119759 
L 471.136594 -37.119759 
L 469.891754 -37.119759 
L 468.646914 -37.119759 
L 467.402073 -37.119759 
L 466.157233 -37.119759 
L 464.912392 -37.119759 
L 463.667552 -37.119759 
L 462.422712 -37.119759 
L 461.177871 -37.119759 
L 459.933031 -37.119759 
L 458.688191 -37.119759 
L 457.44335 -37.119759 
L 456.19851 -37.119759 
L 454.95367 -37.119759 
L 453.708829 -37.119759 
L 452.463989 -37.119759 
L 451.219149 -37.119759 
L 449.974308 -37.119759 
L 448.729468 -37.119759 
L 447.484627 -37.119759 
L 446.239787 -37.119759 
L 444.994947 -37.119759 
L 443.750106 -37.11976 
L 442.505266 -37.11976 
L 441.260426 -37.119761 
L 440.015585 -37.119763 
L 438.770745 -37.119766 
L 437.525905 -37.119771 
L 436.281064 -37.119781 
L 435.036224 -37.119797 
L 433.791383 -37.119826 
L 432.546543 -37.119873 
L 431.301703 -37.119953 
L 430.056862 -37.120084 
L 428.812022 -37.120296 
L 427.567182 -37.120637 
L 426.322341 -37.121174 
L 425.077501 -37.122013 
L 423.832661 -37.123302 
L 422.58782 -37.125258 
L 421.34298 -37.128187 
L 420.09814 -37.132511 
L 418.853299 -37.13881 
L 417.608459 -37.147861 
L 416.363618 -37.160688 
L 415.118778 -37.178619 
L 413.873938 -37.203337 
L 412.629097 -37.236944 
L 411.384257 -37.282001 
L 410.139417 -37.341571 
L 408.894576 -37.419227 
L 407.649736 -37.519042 
L 406.404896 -37.645532 
L 405.160055 -37.803565 
L 403.915215 -37.99821 
L 402.670375 -38.234552 
L 401.425534 -38.517454 
L 400.180694 -38.851295 
L 398.935853 -39.239699 
L 397.691013 -39.685272 
L 396.446173 -40.189385 
L 395.201332 -40.752041 
L 393.956492 -41.371832 
L 392.711652 -42.04604 
L 391.466811 -42.770876 
L 390.221971 -43.541859 
L 388.977131 -44.35433 
L 387.73229 -45.204049 
L 386.48745 -46.087831 
L 385.24261 -47.004148 
L 383.997769 -47.95363 
L 382.752929 -48.939373 
L 381.508088 -49.967003 
L 380.263248 -51.044442 
L 379.018408 -52.181345 
L 377.773567 -53.388233 
L 376.528727 -54.675358 
L 375.283887 -56.051383 
L 374.039046 -57.521985 
L 372.794206 -59.088521 
L 371.549366 -60.746877 
L 370.304525 -62.48665 
L 369.059685 -64.290777 
L 367.814844 -66.135681 
L 366.570004 -67.992005 
L 365.325164 -69.8259 
L 364.080323 -71.600843 
L 362.835483 -73.279875 
L 361.590643 -74.828126 
L 360.345802 -76.21546 
L 359.100962 -77.419065 
L 357.856122 -78.4258 
L 356.611281 -79.234129 
L 355.366441 -79.855483 
L 354.121601 -80.314953 
L 352.87676 -80.651211 
L 351.63192 -80.915645 
L 350.387079 -81.170711 
L 349.142239 -81.487546 
L 347.897399 -81.942936 
L 346.652558 -82.615758 
L 345.407718 -83.583017 
L 344.162878 -84.915666 
L 342.918037 -86.674351 
L 341.673197 -88.905288 
L 340.428357 -91.636442 
L 339.183516 -94.874224 
L 337.938676 -98.600894 
L 336.693836 -102.772876 
L 335.448995 -107.320159 
L 334.204155 -112.146957 
L 332.959314 -117.133733 
L 331.714474 -122.140644 
L 330.469634 -127.012369 
L 329.224793 -131.584207 
L 327.979953 -135.68918 
L 326.735113 -139.165827 
L 325.490272 -141.866227 
L 324.245432 -143.663757 
L 323.000592 -144.460052 
L 321.755751 -144.190646 
L 320.510911 -142.828863 
L 319.26607 -140.387606 
L 318.02123 -136.918894 
L 316.77639 -132.511131 
L 315.531549 -127.2843 
L 314.286709 -121.383437 
L 313.041869 -114.970877 
L 311.797028 -108.217841 
z
" style="stroke: #b64342; stroke-opacity: 0.06"/>
    </defs>
    <g clip-path="url(#pfccf9da20d)">
     <use xlink:href="#m796c762de2" x="0" y="183.070991" style="fill: #b64342; fill-opacity: 0.06; stroke: #b64342; stroke-opacity: 0.06"/>
    </g>
   </g>
   <g id="matplotlib.axis_3">
    <g id="xtick_7">
     <g id="line2d_24">
      <g>
       <use xlink:href="#mfba35b3fdb" x="319.127755" y="151.872788" style="stroke: #000000; stroke-width: 0.8"/>
      </g>
     </g>
     <g id="text_23">
      <text style="font-size: 7px; font-family: 'Times New Roman', 'DejaVu Serif'; text-anchor: middle" x="319.127755" y="163.233413" transform="rotate(-0 319.127755 163.233413)">0</text>
     </g>
    </g>
    <g id="xtick_8">
     <g id="line2d_25">
      <g>
       <use xlink:href="#mfba35b3fdb" x="344.828744" y="151.872788" style="stroke: #000000; stroke-width: 0.8"/>
      </g>
     </g>
     <g id="text_24">
      <text style="font-size: 7px; font-family: 'Times New Roman', 'DejaVu Serif'; text-anchor: middle" x="344.828744" y="163.233413" transform="rotate(-0 344.828744 163.233413)">250</text>
     </g>
    </g>
    <g id="xtick_9">
     <g id="line2d_26">
      <g>
       <use xlink:href="#mfba35b3fdb" x="370.529732" y="151.872788" style="stroke: #000000; stroke-width: 0.8"/>
      </g>
     </g>
     <g id="text_25">
      <text style="font-size: 7px; font-family: 'Times New Roman', 'DejaVu Serif'; text-anchor: middle" x="370.529732" y="163.233413" transform="rotate(-0 370.529732 163.233413)">500</text>
     </g>
    </g>
    <g id="xtick_10">
     <g id="line2d_27">
      <g>
       <use xlink:href="#mfba35b3fdb" x="396.230721" y="151.872788" style="stroke: #000000; stroke-width: 0.8"/>
      </g>
     </g>
     <g id="text_26">
      <text style="font-size: 7px; font-family: 'Times New Roman', 'DejaVu Serif'; text-anchor: middle" x="396.230721" y="163.233413" transform="rotate(-0 396.230721 163.233413)">750</text>
     </g>
    </g>
    <g id="xtick_11">
     <g id="line2d_28">
      <g>
       <use xlink:href="#mfba35b3fdb" x="421.93171" y="151.872788" style="stroke: #000000; stroke-width: 0.8"/>
      </g>
     </g>
     <g id="text_27">
      <text style="font-size: 7px; font-family: 'Times New Roman', 'DejaVu Serif'; text-anchor: middle" x="421.93171" y="163.233413" transform="rotate(-0 421.93171 163.233413)">1000</text>
     </g>
    </g>
    <g id="xtick_12">
     <g id="line2d_29">
      <g>
       <use xlink:href="#mfba35b3fdb" x="447.632699" y="151.872788" style="stroke: #000000; stroke-width: 0.8"/>
      </g>
     </g>
     <g id="text_28">
      <text style="font-size: 7px; font-family: 'Times New Roman', 'DejaVu Serif'; text-anchor: middle" x="447.632699" y="163.233413" transform="rotate(-0 447.632699 163.233413)">1250</text>
     </g>
    </g>
    <g id="xtick_13">
     <g id="line2d_30">
      <g>
       <use xlink:href="#mfba35b3fdb" x="473.333688" y="151.872788" style="stroke: #000000; stroke-width: 0.8"/>
      </g>
     </g>
     <g id="text_29">
      <text style="font-size: 7px; font-family: 'Times New Roman', 'DejaVu Serif'; text-anchor: middle" x="473.333688" y="163.233413" transform="rotate(-0 473.333688 163.233413)">1500</text>
     </g>
    </g>
    <g id="xtick_14">
     <g id="line2d_31">
      <g>
       <use xlink:href="#mfba35b3fdb" x="499.034676" y="151.872788" style="stroke: #000000; stroke-width: 0.8"/>
      </g>
     </g>
     <g id="text_30">
      <text style="font-size: 7px; font-family: 'Times New Roman', 'DejaVu Serif'; text-anchor: middle" x="499.034676" y="163.233413" transform="rotate(-0 499.034676 163.233413)">1750</text>
     </g>
    </g>
    <g id="text_31">
     <text style="font-size: 7.5px; font-family: 'Songti SC', 'Arial Unicode MS'; text-anchor: middle" x="410.761837" y="174.828022" transform="rotate(-0 410.761837 174.828022)">最终损益</text>
    </g>
   </g>
   <g id="matplotlib.axis_4">
    <g id="ytick_9">
     <g id="line2d_32">
      <g>
       <use xlink:href="#m37bff0bcff" x="301.900547" y="145.951232" style="stroke: #000000; stroke-width: 0.8"/>
      </g>
     </g>
     <g id="text_32">
      <text style="font-size: 7px; font-family: 'Times New Roman', 'DejaVu Serif'; text-anchor: end" x="295.400547" y="148.381544" transform="rotate(-0 295.400547 148.381544)">0.0000</text>
     </g>
    </g>
    <g id="ytick_10">
     <g id="line2d_33">
      <g>
       <use xlink:href="#m37bff0bcff" x="301.900547" y="123.376852" style="stroke: #000000; stroke-width: 0.8"/>
      </g>
     </g>
     <g id="text_33">
      <text style="font-size: 7px; font-family: 'Times New Roman', 'DejaVu Serif'; text-anchor: end" x="295.400547" y="125.807165" transform="rotate(-0 295.400547 125.807165)">0.0005</text>
     </g>
    </g>
    <g id="ytick_11">
     <g id="line2d_34">
      <g>
       <use xlink:href="#m37bff0bcff" x="301.900547" y="100.802473" style="stroke: #000000; stroke-width: 0.8"/>
      </g>
     </g>
     <g id="text_34">
      <text style="font-size: 7px; font-family: 'Times New Roman', 'DejaVu Serif'; text-anchor: end" x="295.400547" y="103.232786" transform="rotate(-0 295.400547 103.232786)">0.0010</text>
     </g>
    </g>
    <g id="ytick_12">
     <g id="line2d_35">
      <g>
       <use xlink:href="#m37bff0bcff" x="301.900547" y="78.228094" style="stroke: #000000; stroke-width: 0.8"/>
      </g>
     </g>
     <g id="text_35">
      <text style="font-size: 7px; font-family: 'Times New Roman', 'DejaVu Serif'; text-anchor: end" x="295.400547" y="80.658406" transform="rotate(-0 295.400547 80.658406)">0.0015</text>
     </g>
    </g>
    <g id="ytick_13">
     <g id="line2d_36">
      <g>
       <use xlink:href="#m37bff0bcff" x="301.900547" y="55.653715" style="stroke: #000000; stroke-width: 0.8"/>
      </g>
     </g>
     <g id="text_36">
      <text style="font-size: 7px; font-family: 'Times New Roman', 'DejaVu Serif'; text-anchor: end" x="295.400547" y="58.084027" transform="rotate(-0 295.400547 58.084027)">0.0020</text>
     </g>
    </g>
    <g id="ytick_14">
     <g id="line2d_37">
      <g>
       <use xlink:href="#m37bff0bcff" x="301.900547" y="33.079335" style="stroke: #000000; stroke-width: 0.8"/>
      </g>
     </g>
     <g id="text_37">
      <text style="font-size: 7px; font-family: 'Times New Roman', 'DejaVu Serif'; text-anchor: end" x="295.400547" y="35.509648" transform="rotate(-0 295.400547 35.509648)">0.0025</text>
     </g>
    </g>
    <g id="text_38">
     <text style="font-size: 7.5px; font-family: 'Songti SC', 'Arial Unicode MS'; text-anchor: middle" x="271.107579" y="86.735672" transform="rotate(-90 271.107579 86.735672)">钱包密度</text>
    </g>
   </g>
   <g id="line2d_38">
    <path d="M 311.797028 62.10316 
L 313.041869 58.125486 
L 314.286709 54.556044 
L 315.531549 51.456941 
L 316.77639 48.882932 
L 318.02123 46.879745 
L 319.26607 45.482658 
L 320.510911 44.715391 
L 321.755751 44.589371 
L 323.000592 45.103385 
L 324.245432 46.24365 
L 325.490272 47.984293 
L 326.735113 50.288206 
L 327.979953 53.108256 
L 329.224793 56.388785 
L 331.714474 64.076489 
L 334.204155 72.804174 
L 340.428357 95.580584 
L 342.918037 103.873753 
L 345.407718 111.236039 
L 347.897399 117.52542 
L 349.142239 120.25403 
L 350.387079 122.709823 
L 351.63192 124.902223 
L 352.87676 126.844363 
L 354.121601 128.552193 
L 355.366441 130.043596 
L 356.611281 131.337585 
L 357.856122 132.453568 
L 359.100962 133.41072 
L 361.590643 134.921022 
L 364.080323 136.000152 
L 366.570004 136.754184 
L 369.059685 137.262067 
L 371.549366 137.578828 
L 375.283887 137.773625 
L 379.018408 137.704815 
L 383.997769 137.328284 
L 395.201332 136.267138 
L 398.935853 136.139307 
L 402.670375 136.223864 
L 406.404896 136.55254 
L 410.139417 137.136468 
L 413.873938 137.961557 
L 418.853299 139.356915 
L 431.301703 143.114242 
L 435.036224 143.985725 
L 438.770745 144.664108 
L 442.505266 145.155597 
L 447.484627 145.568868 
L 453.708829 145.819426 
L 463.667552 145.934312 
L 501.012763 145.951231 
L 509.726645 145.951232 
L 509.726645 145.951232 
" clip-path="url(#pfccf9da20d)" style="fill: none; stroke: #0f4d92; stroke-width: 1.35; stroke-linecap: square"/>
   </g>
   <g id="line2d_39">
    <path d="M 311.797028 88.670582 
L 314.286709 86.191249 
L 316.77639 84.187675 
L 318.02123 83.380833 
L 319.26607 82.711104 
L 320.510911 82.182695 
L 321.755751 81.798835 
L 323.000592 81.561738 
L 324.245432 81.472578 
L 325.490272 81.531478 
L 326.735113 81.737512 
L 327.979953 82.088718 
L 329.224793 82.582123 
L 330.469634 83.213778 
L 332.959314 84.871474 
L 335.448995 87.012794 
L 337.938676 89.577148 
L 340.428357 92.495058 
L 344.162878 97.369034 
L 349.142239 104.385661 
L 355.366441 113.16564 
L 359.100962 118.073727 
L 362.835483 122.532381 
L 365.325164 125.21034 
L 367.814844 127.635955 
L 370.304525 129.805143 
L 372.794206 131.721796 
L 375.283887 133.396506 
L 377.773567 134.84519 
L 380.263248 136.08768 
L 382.752929 137.146354 
L 386.48745 138.44152 
L 390.221971 139.45578 
L 395.201332 140.496577 
L 401.425534 141.491082 
L 410.139417 142.616942 
L 421.34298 143.848474 
L 430.056862 144.60251 
L 437.525905 145.041959 
L 444.994947 145.257525 
L 452.463989 145.238449 
L 459.933031 144.988576 
L 467.402073 144.530373 
L 478.605636 143.583898 
L 489.8092 142.661366 
L 497.278242 142.28775 
L 503.502444 142.212677 
L 509.726645 142.369781 
L 509.726645 142.369781 
" clip-path="url(#pfccf9da20d)" style="fill: none; stroke: #8bcf8b; stroke-width: 1.35; stroke-linecap: square"/>
   </g>
   <g id="line2d_40">
    <path d="M 311.797028 60.592955 
L 314.286709 48.819295 
L 315.531549 43.619948 
L 316.77639 39.018605 
L 318.02123 35.105122 
L 319.26607 31.95339 
L 320.510911 29.618765 
L 321.755751 28.13633 
L 323.000592 27.520111 
L 324.245432 27.763231 
L 325.490272 28.838991 
L 326.735113 30.702763 
L 327.979953 33.294542 
L 329.224793 36.541982 
L 330.469634 40.363697 
L 332.959314 49.379287 
L 335.448995 59.632887 
L 342.918037 91.711277 
L 345.407718 101.381589 
L 347.897399 110.104546 
L 350.387079 117.762623 
L 352.87676 124.308886 
L 355.366441 129.753388 
L 356.611281 132.078596 
L 357.856122 134.152685 
L 359.100962 135.988408 
L 360.345802 137.600171 
L 361.590643 139.003668 
L 362.835483 140.215498 
L 364.080323 141.252782 
L 365.325164 142.132776 
L 367.814844 143.488507 
L 370.304525 144.41083 
L 372.794206 145.011417 
L 375.283887 145.380687 
L 379.018408 145.642565 
L 382.752929 145.668593 
L 386.48745 145.506595 
L 390.221971 145.142751 
L 393.956492 144.535557 
L 397.691013 143.655806 
L 401.425534 142.528507 
L 410.139417 139.705419 
L 412.629097 139.139999 
L 415.118778 138.799408 
L 417.608459 138.720839 
L 420.09814 138.91304 
L 422.58782 139.35472 
L 425.077501 139.998428 
L 430.056862 141.624119 
L 435.036224 143.247953 
L 438.770745 144.231385 
L 442.505266 144.946419 
L 446.239787 145.412122 
L 451.219149 145.745371 
L 457.44335 145.901293 
L 471.136594 145.950269 
L 509.726645 145.951232 
L 509.726645 145.951232 
" clip-path="url(#pfccf9da20d)" style="fill: none; stroke: #d4a93b; stroke-width: 1.35; stroke-linecap: square"/>
   </g>
   <g id="line2d_41">
    <path d="M 311.797028 74.85315 
L 314.286709 61.687554 
L 315.531549 55.786691 
L 316.77639 50.55986 
L 318.02123 46.152096 
L 319.26607 42.683385 
L 320.510911 40.242128 
L 321.755751 38.880345 
L 323.000592 38.610939 
L 324.245432 39.407234 
L 325.490272 41.204764 
L 326.735113 43.905164 
L 327.979953 47.381811 
L 329.224793 51.486784 
L 331.714474 60.930347 
L 335.448995 75.750832 
L 337.938676 84.470096 
L 339.183516 88.196767 
L 340.428357 91.434549 
L 341.673197 94.165702 
L 342.918037 96.396639 
L 344.162878 98.155325 
L 345.407718 99.487974 
L 346.652558 100.455233 
L 347.897399 101.128054 
L 349.142239 101.583445 
L 355.366441 103.215507 
L 356.611281 103.836862 
L 357.856122 104.64519 
L 359.100962 105.651926 
L 360.345802 106.855531 
L 362.835483 109.791116 
L 365.325164 113.245091 
L 371.549366 122.324114 
L 374.039046 125.549006 
L 376.528727 128.395633 
L 379.018408 130.889646 
L 381.508088 133.103988 
L 385.24261 136.066842 
L 388.977131 138.716661 
L 392.711652 141.02495 
L 395.201332 142.31895 
L 397.691013 143.385719 
L 400.180694 144.219695 
L 402.670375 144.836439 
L 405.160055 145.267426 
L 408.894576 145.651764 
L 413.873938 145.867654 
L 422.58782 145.945732 
L 496.033401 145.951232 
L 509.726645 145.951232 
L 509.726645 145.951232 
" clip-path="url(#pfccf9da20d)" style="fill: none; stroke: #b64342; stroke-width: 1.35; stroke-linecap: square"/>
   </g>
   <g id="line2d_42">
    <path d="M 319.127755 151.872788 
L 319.127755 21.598555 
" clip-path="url(#pfccf9da20d)" style="fill: none; stroke-dasharray: 0.8,1.32; stroke-dashoffset: 0; stroke: #767676; stroke-width: 0.8"/>
   </g>
   <g id="patch_6">
    <path d="M 301.900547 151.872788 
L 301.900547 21.598555 
" style="fill: none; stroke: #000000; stroke-width: 0.8; stroke-linejoin: miter; stroke-linecap: square"/>
   </g>
   <g id="patch_7">
    <path d="M 301.900547 151.872788 
L 519.623126 151.872788 
" style="fill: none; stroke: #000000; stroke-width: 0.8; stroke-linejoin: miter; stroke-linecap: square"/>
   </g>
   <g id="text_39">
    <text style="font-weight: 700; font-size: 9px; font-family: 'Times New Roman', 'DejaVu Serif'; text-anchor: start" x="267.064935" y="13.159688" transform="rotate(-0 267.064935 13.159688)">b</text>
   </g>
   <g id="text_40">
    <text style="font-size: 7.2px; font-family: 'Songti SC', 'Arial Unicode MS'; text-anchor: middle" x="410.761837" y="15.598555" transform="rotate(-0 410.761837 15.598555)">决策轮数扩展·特斯拉 Robotaxi</text>
   </g>
   <g id="legend_2">
    <g id="line2d_43">
     <path d="M 450.340314 28.77243 
L 454.980314 28.77243 
L 459.620314 28.77243 
" style="fill: none; stroke: #0f4d92; stroke-width: 1.35; stroke-linecap: square"/>
    </g>
    <g id="text_41">
     <text style="font-size: 5.8px; font-family: 'Songti SC', 'Arial Unicode MS'; text-anchor: start" x="464.260314" y="30.80243" transform="rotate(-0 464.260314 30.80243)">10轮</text>
    </g>
    <g id="line2d_44">
     <path d="M 450.340314 37.042868 
L 454.980314 37.042868 
L 459.620314 37.042868 
" style="fill: none; stroke: #8bcf8b; stroke-width: 1.35; stroke-linecap: square"/>
    </g>
    <g id="text_42">
     <text style="font-size: 5.8px; font-family: 'Songti SC', 'Arial Unicode MS'; text-anchor: start" x="464.260314" y="39.072868" transform="rotate(-0 464.260314 39.072868)">20轮</text>
    </g>
    <g id="line2d_45">
     <path d="M 487.101439 28.77243 
L 491.741439 28.77243 
L 496.381439 28.77243 
" style="fill: none; stroke: #d4a93b; stroke-width: 1.35; stroke-linecap: square"/>
    </g>
    <g id="text_43">
     <text style="font-size: 5.8px; font-family: 'Songti SC', 'Arial Unicode MS'; text-anchor: start" x="501.021439" y="30.80243" transform="rotate(-0 501.021439 30.80243)">50轮</text>
    </g>
    <g id="line2d_46">
     <path d="M 487.101439 37.042868 
L 491.741439 37.042868 
L 496.381439 37.042868 
" style="fill: none; stroke: #b64342; stroke-width: 1.35; stroke-linecap: square"/>
    </g>
    <g id="text_44">
     <text style="font-size: 5.8px; font-family: 'Songti SC', 'Arial Unicode MS'; text-anchor: start" x="501.021439" y="39.072868" transform="rotate(-0 501.021439 39.072868)">100轮</text>
    </g>
   </g>
  </g>
 </g>
 <defs>
  <clipPath id="pb770a066a6">
   <rect x="44.030469" y="21.598555" width="217.722579" height="130.274232"/>
  </clipPath>
  <clipPath id="pfccf9da20d">
   <rect x="301.900547" y="21.598555" width="217.722579" height="130.274232"/>
  </clipPath>
 </defs>
</svg>
