<?xml version="1.0" encoding="utf-8" standalone="no"?>
<!DOCTYPE svg PUBLIC "-//W3C//DTD SVG 1.1//EN"
  "http://www.w3.org/Graphics/SVG/1.1/DTD/svg11.dtd">
<svg xmlns:xlink="http://www.w3.org/1999/xlink" width="528.86507pt" height="183.070991pt" viewBox="0 0 528.86507 183.070991" xmlns="http://www.w3.org/2000/svg" version="1.1">
 <metadata>
  <rdf:RDF xmlns:dc="http://purl.org/dc/elements/1.1/" xmlns:cc="http://creativecommons.org/ns#" xmlns:rdf="http://www.w3.org/1999/02/22-rdf-syntax-ns#">
   <cc:Work>
    <dc:type rdf:resource="http://purl.org/dc/dcmitype/StillImage"/>
    <dc:date>2026-05-29T21:34:23.142233</dc:date>
    <dc:format>image/svg+xml</dc:format>
    <dc:creator>
     <cc:Agent>
      <dc:title>Matplotlib v3.10.9, https://matplotlib.org/</dc:title>
     </cc:Agent>
    </dc:creator>
   </cc:Work>
  </rdf:RDF>
 </metadata>
 <defs>
  <style type="text/css">*{stroke-linejoin: round; stroke-linecap: butt}</style>
 </defs>
 <g id="figure_1">
  <g id="patch_1">
   <path d="M 0 183.070991 
L 528.86507 183.070991 
L 528.86507 0 
L 0 0 
z
" style="fill: #ffffff"/>
  </g>
  <g id="axes_1">
   <g id="patch_2">
    <path d="M 42.592413 151.872788 
L 263.794991 151.872788 
L 263.794991 21.598555 
L 42.592413 21.598555 
z
" style="fill: #ffffff"/>
   </g>
   <g id="FillBetweenPolyCollection_1">
    <defs>
     <path id="mf33e10f733" d="M 52.647075 -37.51445 
L 52.647075 -37.119759 
L 53.911813 -37.119759 
L 55.17655 -37.119759 
L 56.441288 -37.119759 
L 57.706025 -37.119759 
L 58.970762 -37.119759 
L 60.2355 -37.119759 
L 61.500237 -37.119759 
L 62.764975 -37.119759 
L 64.029712 -37.119759 
L 65.29445 -37.119759 
L 66.559187 -37.119759 
L 67.823925 -37.119759 
L 69.088662 -37.119759 
L 70.353399 -37.119759 
L 71.618137 -37.119759 
L 72.882874 -37.119759 
L 74.147612 -37.119759 
L 75.412349 -37.119759 
L 76.677087 -37.119759 
L 77.941824 -37.119759 
L 79.206562 -37.119759 
L 80.471299 -37.119759 
L 81.736036 -37.119759 
L 83.000774 -37.119759 
L 84.265511 -37.119759 
L 85.530249 -37.119759 
L 86.794986 -37.119759 
L 88.059724 -37.119759 
L 89.324461 -37.119759 
L 90.589199 -37.119759 
L 91.853936 -37.119759 
L 93.118673 -37.119759 
L 94.383411 -37.119759 
L 95.648148 -37.119759 
L 96.912886 -37.119759 
L 98.177623 -37.119759 
L 99.442361 -37.119759 
L 100.707098 -37.119759 
L 101.971836 -37.119759 
L 103.236573 -37.119759 
L 104.50131 -37.119759 
L 105.766048 -37.119759 
L 107.030785 -37.119759 
L 108.295523 -37.119759 
L 109.56026 -37.119759 
L 110.824998 -37.119759 
L 112.089735 -37.119759 
L 113.354473 -37.119759 
L 114.61921 -37.119759 
L 115.883947 -37.119759 
L 117.148685 -37.119759 
L 118.413422 -37.119759 
L 119.67816 -37.119759 
L 120.942897 -37.119759 
L 122.207635 -37.119759 
L 123.472372 -37.119759 
L 124.73711 -37.119759 
L 126.001847 -37.119759 
L 127.266584 -37.119759 
L 128.531322 -37.119759 
L 129.796059 -37.119759 
L 131.060797 -37.119759 
L 132.325534 -37.119759 
L 133.590272 -37.119759 
L 134.855009 -37.119759 
L 136.119746 -37.119759 
L 137.384484 -37.119759 
L 138.649221 -37.119759 
L 139.913959 -37.119759 
L 141.178696 -37.119759 
L 142.443434 -37.119759 
L 143.708171 -37.119759 
L 144.972909 -37.119759 
L 146.237646 -37.119759 
L 147.502383 -37.119759 
L 148.767121 -37.119759 
L 150.031858 -37.119759 
L 151.296596 -37.119759 
L 152.561333 -37.119759 
L 153.826071 -37.119759 
L 155.090808 -37.119759 
L 156.355546 -37.119759 
L 157.620283 -37.119759 
L 158.88502 -37.119759 
L 160.149758 -37.119759 
L 161.414495 -37.119759 
L 162.679233 -37.119759 
L 163.94397 -37.119759 
L 165.208708 -37.119759 
L 166.473445 -37.119759 
L 167.738183 -37.119759 
L 169.00292 -37.119759 
L 170.267657 -37.119759 
L 171.532395 -37.119759 
L 172.797132 -37.119759 
L 174.06187 -37.119759 
L 175.326607 -37.119759 
L 176.591345 -37.119759 
L 177.856082 -37.119759 
L 179.12082 -37.119759 
L 180.385557 -37.119759 
L 181.650294 -37.119759 
L 182.915032 -37.119759 
L 184.179769 -37.119759 
L 185.444507 -37.119759 
L 186.709244 -37.119759 
L 187.973982 -37.119759 
L 189.238719 -37.119759 
L 190.503457 -37.119759 
L 191.768194 -37.119759 
L 193.032931 -37.119759 
L 194.297669 -37.119759 
L 195.562406 -37.119759 
L 196.827144 -37.119759 
L 198.091881 -37.119759 
L 199.356619 -37.119759 
L 200.621356 -37.119759 
L 201.886094 -37.119759 
L 203.150831 -37.119759 
L 204.415568 -37.119759 
L 205.680306 -37.119759 
L 206.945043 -37.119759 
L 208.209781 -37.119759 
L 209.474518 -37.119759 
L 210.739256 -37.119759 
L 212.003993 -37.119759 
L 213.26873 -37.119759 
L 214.533468 -37.119759 
L 215.798205 -37.119759 
L 217.062943 -37.119759 
L 218.32768 -37.119759 
L 219.592418 -37.119759 
L 220.857155 -37.119759 
L 222.121893 -37.119759 
L 223.38663 -37.119759 
L 224.651367 -37.119759 
L 225.916105 -37.119759 
L 227.180842 -37.119759 
L 228.44558 -37.119759 
L 229.710317 -37.119759 
L 230.975055 -37.119759 
L 232.239792 -37.119759 
L 233.50453 -37.119759 
L 234.769267 -37.119759 
L 236.034004 -37.119759 
L 237.298742 -37.119759 
L 238.563479 -37.119759 
L 239.828217 -37.119759 
L 241.092954 -37.119759 
L 242.357692 -37.119759 
L 243.622429 -37.119759 
L 244.887167 -37.119759 
L 246.151904 -37.119759 
L 247.416641 -37.119759 
L 248.681379 -37.119759 
L 249.946116 -37.119759 
L 251.210854 -37.119759 
L 252.475591 -37.119759 
L 253.740329 -37.119759 
L 253.740329 -37.119759 
L 253.740329 -37.119759 
L 252.475591 -37.119759 
L 251.210854 -37.119759 
L 249.946116 -37.119759 
L 248.681379 -37.119759 
L 247.416641 -37.119759 
L 246.151904 -37.119759 
L 244.887167 -37.119759 
L 243.622429 -37.119759 
L 242.357692 -37.119759 
L 241.092954 -37.119759 
L 239.828217 -37.119759 
L 238.563479 -37.119759 
L 237.298742 -37.119759 
L 236.034004 -37.119759 
L 234.769267 -37.119759 
L 233.50453 -37.119759 
L 232.239792 -37.119759 
L 230.975055 -37.119759 
L 229.710317 -37.119759 
L 228.44558 -37.119759 
L 227.180842 -37.119759 
L 225.916105 -37.119759 
L 224.651367 -37.119759 
L 223.38663 -37.119759 
L 222.121893 -37.119759 
L 220.857155 -37.119759 
L 219.592418 -37.119759 
L 218.32768 -37.119759 
L 217.062943 -37.119759 
L 215.798205 -37.119759 
L 214.533468 -37.119759 
L 213.26873 -37.119759 
L 212.003993 -37.119759 
L 210.739256 -37.119759 
L 209.474518 -37.119759 
L 208.209781 -37.119759 
L 206.945043 -37.119759 
L 205.680306 -37.119759 
L 204.415568 -37.119759 
L 203.150831 -37.119759 
L 201.886094 -37.119759 
L 200.621356 -37.119759 
L 199.356619 -37.119759 
L 198.091881 -37.119759 
L 196.827144 -37.119759 
L 195.562406 -37.119759 
L 194.297669 -37.119759 
L 193.032931 -37.119759 
L 191.768194 -37.119759 
L 190.503457 -37.119759 
L 189.238719 -37.119759 
L 187.973982 -37.119759 
L 186.709244 -37.119759 
L 185.444507 -37.119759 
L 184.179769 -37.119759 
L 182.915032 -37.119759 
L 181.650294 -37.119759 
L 180.385557 -37.119759 
L 179.12082 -37.119759 
L 177.856082 -37.119759 
L 176.591345 -37.119759 
L 175.326607 -37.119759 
L 174.06187 -37.119759 
L 172.797132 -37.119759 
L 171.532395 -37.119759 
L 170.267657 -37.119759 
L 169.00292 -37.119759 
L 167.738183 -37.119759 
L 166.473445 -37.119759 
L 165.208708 -37.119759 
L 163.94397 -37.119759 
L 162.679233 -37.119759 
L 161.414495 -37.119759 
L 160.149758 -37.119759 
L 158.88502 -37.119759 
L 157.620283 -37.119759 
L 156.355546 -37.119759 
L 155.090808 -37.119759 
L 153.826071 -37.119759 
L 152.561333 -37.119759 
L 151.296596 -37.119759 
L 150.031858 -37.119759 
L 148.767121 -37.119759 
L 147.502383 -37.119759 
L 146.237646 -37.119759 
L 144.972909 -37.119759 
L 143.708171 -37.119759 
L 142.443434 -37.119759 
L 141.178696 -37.119759 
L 139.913959 -37.119759 
L 138.649221 -37.119759 
L 137.384484 -37.119759 
L 136.119746 -37.119759 
L 134.855009 -37.119759 
L 133.590272 -37.119759 
L 132.325534 -37.119759 
L 131.060797 -37.119759 
L 129.796059 -37.119759 
L 128.531322 -37.119759 
L 127.266584 -37.119759 
L 126.001847 -37.119759 
L 124.73711 -37.119759 
L 123.472372 -37.119759 
L 122.207635 -37.119759 
L 120.942897 -37.119759 
L 119.67816 -37.119759 
L 118.413422 -37.119759 
L 117.148685 -37.119759 
L 115.883947 -37.119759 
L 114.61921 -37.119759 
L 113.354473 -37.119759 
L 112.089735 -37.119759 
L 110.824998 -37.119759 
L 109.56026 -37.119759 
L 108.295523 -37.119759 
L 107.030785 -37.119759 
L 105.766048 -37.119759 
L 104.50131 -37.119759 
L 103.236573 -37.119759 
L 101.971836 -37.119759 
L 100.707098 -37.119759 
L 99.442361 -37.119759 
L 98.177623 -37.119759 
L 96.912886 -37.119759 
L 95.648148 -37.119759 
L 94.383411 -37.119759 
L 93.118673 -37.119759 
L 91.853936 -37.119759 
L 90.589199 -37.119759 
L 89.324461 -37.119759 
L 88.059724 -37.119759 
L 86.794986 -37.119759 
L 85.530249 -37.119759 
L 84.265511 -37.11976 
L 83.000774 -37.119769 
L 81.736036 -37.119886 
L 80.471299 -37.121035 
L 79.206562 -37.129757 
L 77.941824 -37.180593 
L 76.677087 -37.407288 
L 75.412349 -38.176481 
L 74.147612 -40.147481 
L 72.882874 -43.930504 
L 71.618137 -49.374664 
L 70.353399 -55.597242 
L 69.088662 -62.757112 
L 67.823925 -73.726023 
L 66.559187 -92.118827 
L 65.29445 -117.283274 
L 64.029712 -141.898122 
L 62.764975 -155.550879 
L 61.500237 -151.271102 
L 60.2355 -130.002638 
L 58.970762 -100.154924 
L 57.706025 -72.32944 
L 56.441288 -53.108839 
L 55.17655 -42.96281 
L 53.911813 -38.824513 
L 52.647075 -37.51445 
z
" style="stroke: #0f4d92; stroke-opacity: 0.06"/>
    </defs>
    <g clip-path="url(#pae1355cda8)">
     <use xlink:href="#mf33e10f733" x="0" y="183.070991" style="fill: #0f4d92; fill-opacity: 0.06; stroke: #0f4d92; stroke-opacity: 0.06"/>
    </g>
   </g>
   <g id="FillBetweenPolyCollection_2">
    <defs>
     <path id="mb8d12973b2" d="M 52.647075 -57.511237 
L 52.647075 -37.119759 
L 53.911813 -37.119759 
L 55.17655 -37.119759 
L 56.441288 -37.119759 
L 57.706025 -37.119759 
L 58.970762 -37.119759 
L 60.2355 -37.119759 
L 61.500237 -37.119759 
L 62.764975 -37.119759 
L 64.029712 -37.119759 
L 65.29445 -37.119759 
L 66.559187 -37.119759 
L 67.823925 -37.119759 
L 69.088662 -37.119759 
L 70.353399 -37.119759 
L 71.618137 -37.119759 
L 72.882874 -37.119759 
L 74.147612 -37.119759 
L 75.412349 -37.119759 
L 76.677087 -37.119759 
L 77.941824 -37.119759 
L 79.206562 -37.119759 
L 80.471299 -37.119759 
L 81.736036 -37.119759 
L 83.000774 -37.119759 
L 84.265511 -37.119759 
L 85.530249 -37.119759 
L 86.794986 -37.119759 
L 88.059724 -37.119759 
L 89.324461 -37.119759 
L 90.589199 -37.119759 
L 91.853936 -37.119759 
L 93.118673 -37.119759 
L 94.383411 -37.119759 
L 95.648148 -37.119759 
L 96.912886 -37.119759 
L 98.177623 -37.119759 
L 99.442361 -37.119759 
L 100.707098 -37.119759 
L 101.971836 -37.119759 
L 103.236573 -37.119759 
L 104.50131 -37.119759 
L 105.766048 -37.119759 
L 107.030785 -37.119759 
L 108.295523 -37.119759 
L 109.56026 -37.119759 
L 110.824998 -37.119759 
L 112.089735 -37.119759 
L 113.354473 -37.119759 
L 114.61921 -37.119759 
L 115.883947 -37.119759 
L 117.148685 -37.119759 
L 118.413422 -37.119759 
L 119.67816 -37.119759 
L 120.942897 -37.119759 
L 122.207635 -37.119759 
L 123.472372 -37.119759 
L 124.73711 -37.119759 
L 126.001847 -37.119759 
L 127.266584 -37.119759 
L 128.531322 -37.119759 
L 129.796059 -37.119759 
L 131.060797 -37.119759 
L 132.325534 -37.119759 
L 133.590272 -37.119759 
L 134.855009 -37.119759 
L 136.119746 -37.119759 
L 137.384484 -37.119759 
L 138.649221 -37.119759 
L 139.913959 -37.119759 
L 141.178696 -37.119759 
L 142.443434 -37.119759 
L 143.708171 -37.119759 
L 144.972909 -37.119759 
L 146.237646 -37.119759 
L 147.502383 -37.119759 
L 148.767121 -37.119759 
L 150.031858 -37.119759 
L 151.296596 -37.119759 
L 152.561333 -37.119759 
L 153.826071 -37.119759 
L 155.090808 -37.119759 
L 156.355546 -37.119759 
L 157.620283 -37.119759 
L 158.88502 -37.119759 
L 160.149758 -37.119759 
L 161.414495 -37.119759 
L 162.679233 -37.119759 
L 163.94397 -37.119759 
L 165.208708 -37.119759 
L 166.473445 -37.119759 
L 167.738183 -37.119759 
L 169.00292 -37.119759 
L 170.267657 -37.119759 
L 171.532395 -37.119759 
L 172.797132 -37.119759 
L 174.06187 -37.119759 
L 175.326607 -37.119759 
L 176.591345 -37.119759 
L 177.856082 -37.119759 
L 179.12082 -37.119759 
L 180.385557 -37.119759 
L 181.650294 -37.119759 
L 182.915032 -37.119759 
L 184.179769 -37.119759 
L 185.444507 -37.119759 
L 186.709244 -37.119759 
L 187.973982 -37.119759 
L 189.238719 -37.119759 
L 190.503457 -37.119759 
L 191.768194 -37.119759 
L 193.032931 -37.119759 
L 194.297669 -37.119759 
L 195.562406 -37.119759 
L 196.827144 -37.119759 
L 198.091881 -37.119759 
L 199.356619 -37.119759 
L 200.621356 -37.119759 
L 201.886094 -37.119759 
L 203.150831 -37.119759 
L 204.415568 -37.119759 
L 205.680306 -37.119759 
L 206.945043 -37.119759 
L 208.209781 -37.119759 
L 209.474518 -37.119759 
L 210.739256 -37.119759 
L 212.003993 -37.119759 
L 213.26873 -37.119759 
L 214.533468 -37.119759 
L 215.798205 -37.119759 
L 217.062943 -37.119759 
L 218.32768 -37.119759 
L 219.592418 -37.119759 
L 220.857155 -37.119759 
L 222.121893 -37.119759 
L 223.38663 -37.119759 
L 224.651367 -37.119759 
L 225.916105 -37.119759 
L 227.180842 -37.119759 
L 228.44558 -37.119759 
L 229.710317 -37.119759 
L 230.975055 -37.119759 
L 232.239792 -37.119759 
L 233.50453 -37.119759 
L 234.769267 -37.119759 
L 236.034004 -37.119759 
L 237.298742 -37.119759 
L 238.563479 -37.119759 
L 239.828217 -37.119759 
L 241.092954 -37.119759 
L 242.357692 -37.119759 
L 243.622429 -37.119759 
L 244.887167 -37.119759 
L 246.151904 -37.119759 
L 247.416641 -37.119759 
L 248.681379 -37.119759 
L 249.946116 -37.119759 
L 251.210854 -37.119759 
L 252.475591 -37.119759 
L 253.740329 -37.119759 
L 253.740329 -37.119759 
L 253.740329 -37.119759 
L 252.475591 -37.119759 
L 251.210854 -37.119759 
L 249.946116 -37.119759 
L 248.681379 -37.119759 
L 247.416641 -37.119759 
L 246.151904 -37.119759 
L 244.887167 -37.119759 
L 243.622429 -37.119759 
L 242.357692 -37.119759 
L 241.092954 -37.119759 
L 239.828217 -37.119759 
L 238.563479 -37.119759 
L 237.298742 -37.119759 
L 236.034004 -37.119759 
L 234.769267 -37.119759 
L 233.50453 -37.119759 
L 232.239792 -37.119759 
L 230.975055 -37.119759 
L 229.710317 -37.119759 
L 228.44558 -37.119759 
L 227.180842 -37.119759 
L 225.916105 -37.119759 
L 224.651367 -37.119759 
L 223.38663 -37.119759 
L 222.121893 -37.119759 
L 220.857155 -37.119759 
L 219.592418 -37.119759 
L 218.32768 -37.119759 
L 217.062943 -37.119759 
L 215.798205 -37.119759 
L 214.533468 -37.119759 
L 213.26873 -37.119759 
L 212.003993 -37.119759 
L 210.739256 -37.119759 
L 209.474518 -37.119759 
L 208.209781 -37.119759 
L 206.945043 -37.119759 
L 205.680306 -37.119759 
L 204.415568 -37.119759 
L 203.150831 -37.119759 
L 201.886094 -37.119759 
L 200.621356 -37.119759 
L 199.356619 -37.119759 
L 198.091881 -37.119759 
L 196.827144 -37.119759 
L 195.562406 -37.119759 
L 194.297669 -37.119759 
L 193.032931 -37.119759 
L 191.768194 -37.119759 
L 190.503457 -37.119759 
L 189.238719 -37.119759 
L 187.973982 -37.119759 
L 186.709244 -37.119759 
L 185.444507 -37.119759 
L 184.179769 -37.119759 
L 182.915032 -37.119759 
L 181.650294 -37.119759 
L 180.385557 -37.119759 
L 179.12082 -37.119759 
L 177.856082 -37.119759 
L 176.591345 -37.119759 
L 175.326607 -37.119759 
L 174.06187 -37.119759 
L 172.797132 -37.119759 
L 171.532395 -37.119759 
L 170.267657 -37.119759 
L 169.00292 -37.119759 
L 167.738183 -37.119759 
L 166.473445 -37.11976 
L 165.208708 -37.119761 
L 163.94397 -37.119763 
L 162.679233 -37.119767 
L 161.414495 -37.119775 
L 160.149758 -37.119793 
L 158.88502 -37.119829 
L 157.620283 -37.1199 
L 156.355546 -37.120036 
L 155.090808 -37.120289 
L 153.826071 -37.120748 
L 152.561333 -37.121562 
L 151.296596 -37.122969 
L 150.031858 -37.125337 
L 148.767121 -37.129222 
L 147.502383 -37.135433 
L 146.237646 -37.145104 
L 144.972909 -37.15977 
L 143.708171 -37.181422 
L 142.443434 -37.212538 
L 141.178696 -37.256041 
L 139.913959 -37.315191 
L 138.649221 -37.393362 
L 137.384484 -37.493711 
L 136.119746 -37.618735 
L 134.855009 -37.769755 
L 133.590272 -37.946388 
L 132.325534 -38.14607 
L 131.060797 -38.363745 
L 129.796059 -38.591803 
L 128.531322 -38.820328 
L 127.266584 -39.037704 
L 126.001847 -39.23153 
L 124.73711 -39.389762 
L 123.472372 -39.501944 
L 122.207635 -39.56035 
L 120.942897 -39.560869 
L 119.67816 -39.503488 
L 118.413422 -39.392307 
L 117.148685 -39.235072 
L 115.883947 -39.042319 
L 114.61921 -38.826261 
L 113.354473 -38.599596 
L 112.089735 -38.374411 
L 110.824998 -38.161321 
L 109.56026 -37.96894 
L 108.295523 -37.803708 
L 107.030785 -37.670027 
L 105.766048 -37.570645 
L 104.50131 -37.507159 
L 103.236573 -37.480529 
L 101.971836 -37.491506 
L 100.707098 -37.540905 
L 99.442361 -37.629679 
L 98.177623 -37.758835 
L 96.912886 -37.929226 
L 95.648148 -38.141328 
L 94.383411 -38.395118 
L 93.118673 -38.690166 
L 91.853936 -39.026058 
L 90.589199 -39.403215 
L 89.324461 -39.824093 
L 88.059724 -40.294702 
L 86.794986 -40.826252 
L 85.530249 -41.436676 
L 84.265511 -42.151683 
L 83.000774 -43.004974 
L 81.736036 -44.037254 
L 80.471299 -45.293738 
L 79.206562 -46.82 
L 77.941824 -48.65624 
L 76.677087 -50.830292 
L 75.412349 -53.350054 
L 74.147612 -56.196273 
L 72.882874 -59.316873 
L 71.618137 -62.624033 
L 70.353399 -65.995113 
L 69.088662 -69.27808 
L 67.823925 -72.301525 
L 66.559187 -74.888571 
L 65.29445 -76.873258 
L 64.029712 -78.117381 
L 62.764975 -78.525469 
L 61.500237 -78.05571 
L 60.2355 -76.725138 
L 58.970762 -74.608246 
L 57.706025 -71.829198 
L 56.441288 -68.548824 
L 55.17655 -64.94832 
L 53.911813 -61.211976 
L 52.647075 -57.511237 
z
" style="stroke: #8bcf8b; stroke-opacity: 0.06"/>
    </defs>
    <g clip-path="url(#pae1355cda8)">
     <use xlink:href="#mb8d12973b2" x="0" y="183.070991" style="fill: #8bcf8b; fill-opacity: 0.06; stroke: #8bcf8b; stroke-opacity: 0.06"/>
    </g>
   </g>
   <g id="FillBetweenPolyCollection_3">
    <defs>
     <path id="m2063975337" d="M 52.647075 -56.299025 
L 52.647075 -37.119759 
L 53.911813 -37.119759 
L 55.17655 -37.119759 
L 56.441288 -37.119759 
L 57.706025 -37.119759 
L 58.970762 -37.119759 
L 60.2355 -37.119759 
L 61.500237 -37.119759 
L 62.764975 -37.119759 
L 64.029712 -37.119759 
L 65.29445 -37.119759 
L 66.559187 -37.119759 
L 67.823925 -37.119759 
L 69.088662 -37.119759 
L 70.353399 -37.119759 
L 71.618137 -37.119759 
L 72.882874 -37.119759 
L 74.147612 -37.119759 
L 75.412349 -37.119759 
L 76.677087 -37.119759 
L 77.941824 -37.119759 
L 79.206562 -37.119759 
L 80.471299 -37.119759 
L 81.736036 -37.119759 
L 83.000774 -37.119759 
L 84.265511 -37.119759 
L 85.530249 -37.119759 
L 86.794986 -37.119759 
L 88.059724 -37.119759 
L 89.324461 -37.119759 
L 90.589199 -37.119759 
L 91.853936 -37.119759 
L 93.118673 -37.119759 
L 94.383411 -37.119759 
L 95.648148 -37.119759 
L 96.912886 -37.119759 
L 98.177623 -37.119759 
L 99.442361 -37.119759 
L 100.707098 -37.119759 
L 101.971836 -37.119759 
L 103.236573 -37.119759 
L 104.50131 -37.119759 
L 105.766048 -37.119759 
L 107.030785 -37.119759 
L 108.295523 -37.119759 
L 109.56026 -37.119759 
L 110.824998 -37.119759 
L 112.089735 -37.119759 
L 113.354473 -37.119759 
L 114.61921 -37.119759 
L 115.883947 -37.119759 
L 117.148685 -37.119759 
L 118.413422 -37.119759 
L 119.67816 -37.119759 
L 120.942897 -37.119759 
L 122.207635 -37.119759 
L 123.472372 -37.119759 
L 124.73711 -37.119759 
L 126.001847 -37.119759 
L 127.266584 -37.119759 
L 128.531322 -37.119759 
L 129.796059 -37.119759 
L 131.060797 -37.119759 
L 132.325534 -37.119759 
L 133.590272 -37.119759 
L 134.855009 -37.119759 
L 136.119746 -37.119759 
L 137.384484 -37.119759 
L 138.649221 -37.119759 
L 139.913959 -37.119759 
L 141.178696 -37.119759 
L 142.443434 -37.119759 
L 143.708171 -37.119759 
L 144.972909 -37.119759 
L 146.237646 -37.119759 
L 147.502383 -37.119759 
L 148.767121 -37.119759 
L 150.031858 -37.119759 
L 151.296596 -37.119759 
L 152.561333 -37.119759 
L 153.826071 -37.119759 
L 155.090808 -37.119759 
L 156.355546 -37.119759 
L 157.620283 -37.119759 
L 158.88502 -37.119759 
L 160.149758 -37.119759 
L 161.414495 -37.119759 
L 162.679233 -37.119759 
L 163.94397 -37.119759 
L 165.208708 -37.119759 
L 166.473445 -37.119759 
L 167.738183 -37.119759 
L 169.00292 -37.119759 
L 170.267657 -37.119759 
L 171.532395 -37.119759 
L 172.797132 -37.119759 
L 174.06187 -37.119759 
L 175.326607 -37.119759 
L 176.591345 -37.119759 
L 177.856082 -37.119759 
L 179.12082 -37.119759 
L 180.385557 -37.119759 
L 181.650294 -37.119759 
L 182.915032 -37.119759 
L 184.179769 -37.119759 
L 185.444507 -37.119759 
L 186.709244 -37.119759 
L 187.973982 -37.119759 
L 189.238719 -37.119759 
L 190.503457 -37.119759 
L 191.768194 -37.119759 
L 193.032931 -37.119759 
L 194.297669 -37.119759 
L 195.562406 -37.119759 
L 196.827144 -37.119759 
L 198.091881 -37.119759 
L 199.356619 -37.119759 
L 200.621356 -37.119759 
L 201.886094 -37.119759 
L 203.150831 -37.119759 
L 204.415568 -37.119759 
L 205.680306 -37.119759 
L 206.945043 -37.119759 
L 208.209781 -37.119759 
L 209.474518 -37.119759 
L 210.739256 -37.119759 
L 212.003993 -37.119759 
L 213.26873 -37.119759 
L 214.533468 -37.119759 
L 215.798205 -37.119759 
L 217.062943 -37.119759 
L 218.32768 -37.119759 
L 219.592418 -37.119759 
L 220.857155 -37.119759 
L 222.121893 -37.119759 
L 223.38663 -37.119759 
L 224.651367 -37.119759 
L 225.916105 -37.119759 
L 227.180842 -37.119759 
L 228.44558 -37.119759 
L 229.710317 -37.119759 
L 230.975055 -37.119759 
L 232.239792 -37.119759 
L 233.50453 -37.119759 
L 234.769267 -37.119759 
L 236.034004 -37.119759 
L 237.298742 -37.119759 
L 238.563479 -37.119759 
L 239.828217 -37.119759 
L 241.092954 -37.119759 
L 242.357692 -37.119759 
L 243.622429 -37.119759 
L 244.887167 -37.119759 
L 246.151904 -37.119759 
L 247.416641 -37.119759 
L 248.681379 -37.119759 
L 249.946116 -37.119759 
L 251.210854 -37.119759 
L 252.475591 -37.119759 
L 253.740329 -37.119759 
L 253.740329 -37.119759 
L 253.740329 -37.119759 
L 252.475591 -37.119759 
L 251.210854 -37.119759 
L 249.946116 -37.119759 
L 248.681379 -37.119759 
L 247.416641 -37.119759 
L 246.151904 -37.119759 
L 244.887167 -37.119759 
L 243.622429 -37.119759 
L 242.357692 -37.119759 
L 241.092954 -37.119759 
L 239.828217 -37.119759 
L 238.563479 -37.119759 
L 237.298742 -37.119759 
L 236.034004 -37.119759 
L 234.769267 -37.119759 
L 233.50453 -37.119759 
L 232.239792 -37.119759 
L 230.975055 -37.119759 
L 229.710317 -37.119759 
L 228.44558 -37.119759 
L 227.180842 -37.119759 
L 225.916105 -37.119759 
L 224.651367 -37.119759 
L 223.38663 -37.119759 
L 222.121893 -37.119759 
L 220.857155 -37.119759 
L 219.592418 -37.119759 
L 218.32768 -37.119759 
L 217.062943 -37.119759 
L 215.798205 -37.119759 
L 214.533468 -37.119759 
L 213.26873 -37.119759 
L 212.003993 -37.119759 
L 210.739256 -37.119759 
L 209.474518 -37.119759 
L 208.209781 -37.119759 
L 206.945043 -37.119759 
L 205.680306 -37.119759 
L 204.415568 -37.119759 
L 203.150831 -37.119759 
L 201.886094 -37.119759 
L 200.621356 -37.119759 
L 199.356619 -37.119759 
L 198.091881 -37.119759 
L 196.827144 -37.119759 
L 195.562406 -37.119759 
L 194.297669 -37.119759 
L 193.032931 -37.119759 
L 191.768194 -37.119759 
L 190.503457 -37.119759 
L 189.238719 -37.119759 
L 187.973982 -37.119759 
L 186.709244 -37.119759 
L 185.444507 -37.119759 
L 184.179769 -37.119759 
L 182.915032 -37.119759 
L 181.650294 -37.119759 
L 180.385557 -37.119759 
L 179.12082 -37.119759 
L 177.856082 -37.119759 
L 176.591345 -37.119759 
L 175.326607 -37.119759 
L 174.06187 -37.119759 
L 172.797132 -37.119759 
L 171.532395 -37.11976 
L 170.267657 -37.119761 
L 169.00292 -37.119763 
L 167.738183 -37.119767 
L 166.473445 -37.119776 
L 165.208708 -37.119796 
L 163.94397 -37.119835 
L 162.679233 -37.119913 
L 161.414495 -37.120065 
L 160.149758 -37.120349 
L 158.88502 -37.120869 
L 157.620283 -37.121795 
L 156.355546 -37.123397 
L 155.090808 -37.126097 
L 153.826071 -37.130521 
L 152.561333 -37.13757 
L 151.296596 -37.148491 
L 150.031858 -37.164939 
L 148.767121 -37.18901 
L 147.502383 -37.223228 
L 146.237646 -37.270458 
L 144.972909 -37.33372 
L 143.708171 -37.415892 
L 142.443434 -37.519316 
L 141.178696 -37.645312 
L 139.913959 -37.793682 
L 138.649221 -37.96226 
L 137.384484 -38.146618 
L 136.119746 -38.340011 
L 134.855009 -38.533634 
L 133.590272 -38.717227 
L 132.325534 -38.879985 
L 131.060797 -39.011685 
L 129.796059 -39.103888 
L 128.531322 -39.151031 
L 127.266584 -39.151248 
L 126.001847 -39.106756 
L 124.73711 -39.023767 
L 123.472372 -38.911897 
L 122.207635 -38.78318 
L 120.942897 -38.650837 
L 119.67816 -38.527953 
L 118.413422 -38.426285 
L 117.148685 -38.355311 
L 115.883947 -38.321648 
L 114.61921 -38.328852 
L 113.354473 -38.377581 
L 112.089735 -38.466032 
L 110.824998 -38.590535 
L 109.56026 -38.746189 
L 108.295523 -38.927408 
L 107.030785 -39.128319 
L 105.766048 -39.342975 
L 104.50131 -39.565413 
L 103.236573 -39.78963 
L 101.971836 -40.009575 
L 100.707098 -40.219263 
L 99.442361 -40.413072 
L 98.177623 -40.586248 
L 96.912886 -40.735571 
L 95.648148 -40.860105 
L 94.383411 -40.961914 
L 93.118673 -41.046645 
L 91.853936 -41.123932 
L 90.589199 -41.207602 
L 89.324461 -41.315736 
L 88.059724 -41.470642 
L 86.794986 -41.698779 
L 85.530249 -42.030609 
L 84.265511 -42.500283 
L 83.000774 -43.144939 
L 81.736036 -44.003412 
L 80.471299 -45.114103 
L 79.206562 -46.511857 
L 77.941824 -48.223862 
L 76.677087 -50.264743 
L 75.412349 -52.631276 
L 74.147612 -55.297328 
L 72.882874 -58.209823 
L 71.618137 -61.286569 
L 70.353399 -64.41678 
L 69.088662 -67.464925 
L 67.823925 -70.278178 
L 66.559187 -72.69725 
L 65.29445 -74.569807 
L 64.029712 -75.765076 
L 62.764975 -76.187819 
L 61.500237 -75.789649 
L 60.2355 -74.575865 
L 58.970762 -72.606506 
L 57.706025 -69.991222 
L 56.441288 -66.878504 
L 55.17655 -63.44079 
L 53.911813 -59.857588 
L 52.647075 -56.299025 
z
" style="stroke: #d4a93b; stroke-opacity: 0.06"/>
    </defs>
    <g clip-path="url(#pae1355cda8)">
     <use xlink:href="#m2063975337" x="0" y="183.070991" style="fill: #d4a93b; fill-opacity: 0.06; stroke: #d4a93b; stroke-opacity: 0.06"/>
    </g>
   </g>
   <g id="FillBetweenPolyCollection_4">
    <defs>
     <path id="me33c51ad55" d="M 52.647075 -53.360345 
L 52.647075 -37.119759 
L 53.911813 -37.119759 
L 55.17655 -37.119759 
L 56.441288 -37.119759 
L 57.706025 -37.119759 
L 58.970762 -37.119759 
L 60.2355 -37.119759 
L 61.500237 -37.119759 
L 62.764975 -37.119759 
L 64.029712 -37.119759 
L 65.29445 -37.119759 
L 66.559187 -37.119759 
L 67.823925 -37.119759 
L 69.088662 -37.119759 
L 70.353399 -37.119759 
L 71.618137 -37.119759 
L 72.882874 -37.119759 
L 74.147612 -37.119759 
L 75.412349 -37.119759 
L 76.677087 -37.119759 
L 77.941824 -37.119759 
L 79.206562 -37.119759 
L 80.471299 -37.119759 
L 81.736036 -37.119759 
L 83.000774 -37.119759 
L 84.265511 -37.119759 
L 85.530249 -37.119759 
L 86.794986 -37.119759 
L 88.059724 -37.119759 
L 89.324461 -37.119759 
L 90.589199 -37.119759 
L 91.853936 -37.119759 
L 93.118673 -37.119759 
L 94.383411 -37.119759 
L 95.648148 -37.119759 
L 96.912886 -37.119759 
L 98.177623 -37.119759 
L 99.442361 -37.119759 
L 100.707098 -37.119759 
L 101.971836 -37.119759 
L 103.236573 -37.119759 
L 104.50131 -37.119759 
L 105.766048 -37.119759 
L 107.030785 -37.119759 
L 108.295523 -37.119759 
L 109.56026 -37.119759 
L 110.824998 -37.119759 
L 112.089735 -37.119759 
L 113.354473 -37.119759 
L 114.61921 -37.119759 
L 115.883947 -37.119759 
L 117.148685 -37.119759 
L 118.413422 -37.119759 
L 119.67816 -37.119759 
L 120.942897 -37.119759 
L 122.207635 -37.119759 
L 123.472372 -37.119759 
L 124.73711 -37.119759 
L 126.001847 -37.119759 
L 127.266584 -37.119759 
L 128.531322 -37.119759 
L 129.796059 -37.119759 
L 131.060797 -37.119759 
L 132.325534 -37.119759 
L 133.590272 -37.119759 
L 134.855009 -37.119759 
L 136.119746 -37.119759 
L 137.384484 -37.119759 
L 138.649221 -37.119759 
L 139.913959 -37.119759 
L 141.178696 -37.119759 
L 142.443434 -37.119759 
L 143.708171 -37.119759 
L 144.972909 -37.119759 
L 146.237646 -37.119759 
L 147.502383 -37.119759 
L 148.767121 -37.119759 
L 150.031858 -37.119759 
L 151.296596 -37.119759 
L 152.561333 -37.119759 
L 153.826071 -37.119759 
L 155.090808 -37.119759 
L 156.355546 -37.119759 
L 157.620283 -37.119759 
L 158.88502 -37.119759 
L 160.149758 -37.119759 
L 161.414495 -37.119759 
L 162.679233 -37.119759 
L 163.94397 -37.119759 
L 165.208708 -37.119759 
L 166.473445 -37.119759 
L 167.738183 -37.119759 
L 169.00292 -37.119759 
L 170.267657 -37.119759 
L 171.532395 -37.119759 
L 172.797132 -37.119759 
L 174.06187 -37.119759 
L 175.326607 -37.119759 
L 176.591345 -37.119759 
L 177.856082 -37.119759 
L 179.12082 -37.119759 
L 180.385557 -37.119759 
L 181.650294 -37.119759 
L 182.915032 -37.119759 
L 184.179769 -37.119759 
L 185.444507 -37.119759 
L 186.709244 -37.119759 
L 187.973982 -37.119759 
L 189.238719 -37.119759 
L 190.503457 -37.119759 
L 191.768194 -37.119759 
L 193.032931 -37.119759 
L 194.297669 -37.119759 
L 195.562406 -37.119759 
L 196.827144 -37.119759 
L 198.091881 -37.119759 
L 199.356619 -37.119759 
L 200.621356 -37.119759 
L 201.886094 -37.119759 
L 203.150831 -37.119759 
L 204.415568 -37.119759 
L 205.680306 -37.119759 
L 206.945043 -37.119759 
L 208.209781 -37.119759 
L 209.474518 -37.119759 
L 210.739256 -37.119759 
L 212.003993 -37.119759 
L 213.26873 -37.119759 
L 214.533468 -37.119759 
L 215.798205 -37.119759 
L 217.062943 -37.119759 
L 218.32768 -37.119759 
L 219.592418 -37.119759 
L 220.857155 -37.119759 
L 222.121893 -37.119759 
L 223.38663 -37.119759 
L 224.651367 -37.119759 
L 225.916105 -37.119759 
L 227.180842 -37.119759 
L 228.44558 -37.119759 
L 229.710317 -37.119759 
L 230.975055 -37.119759 
L 232.239792 -37.119759 
L 233.50453 -37.119759 
L 234.769267 -37.119759 
L 236.034004 -37.119759 
L 237.298742 -37.119759 
L 238.563479 -37.119759 
L 239.828217 -37.119759 
L 241.092954 -37.119759 
L 242.357692 -37.119759 
L 243.622429 -37.119759 
L 244.887167 -37.119759 
L 246.151904 -37.119759 
L 247.416641 -37.119759 
L 248.681379 -37.119759 
L 249.946116 -37.119759 
L 251.210854 -37.119759 
L 252.475591 -37.119759 
L 253.740329 -37.119759 
L 253.740329 -37.37328 
L 253.740329 -37.37328 
L 252.475591 -37.386438 
L 251.210854 -37.398625 
L 249.946116 -37.409751 
L 248.681379 -37.419774 
L 247.416641 -37.4287 
L 246.151904 -37.436584 
L 244.887167 -37.443535 
L 243.622429 -37.449708 
L 242.357692 -37.4553 
L 241.092954 -37.460542 
L 239.828217 -37.46569 
L 238.563479 -37.471009 
L 237.298742 -37.476764 
L 236.034004 -37.483204 
L 234.769267 -37.490547 
L 233.50453 -37.498968 
L 232.239792 -37.508587 
L 230.975055 -37.51946 
L 229.710317 -37.531571 
L 228.44558 -37.544828 
L 227.180842 -37.559066 
L 225.916105 -37.574046 
L 224.651367 -37.589465 
L 223.38663 -37.604966 
L 222.121893 -37.620147 
L 220.857155 -37.634585 
L 219.592418 -37.647843 
L 218.32768 -37.659497 
L 217.062943 -37.669147 
L 215.798205 -37.676438 
L 214.533468 -37.681074 
L 213.26873 -37.682834 
L 212.003993 -37.681578 
L 210.739256 -37.677257 
L 209.474518 -37.669916 
L 208.209781 -37.659693 
L 206.945043 -37.646816 
L 205.680306 -37.631595 
L 204.415568 -37.614412 
L 203.150831 -37.595707 
L 201.886094 -37.575965 
L 200.621356 -37.5557 
L 199.356619 -37.535437 
L 198.091881 -37.515695 
L 196.827144 -37.496977 
L 195.562406 -37.479749 
L 194.297669 -37.464436 
L 193.032931 -37.451403 
L 191.768194 -37.440957 
L 190.503457 -37.433337 
L 189.238719 -37.428715 
L 187.973982 -37.427196 
L 186.709244 -37.42882 
L 185.444507 -37.433572 
L 184.179769 -37.441384 
L 182.915032 -37.452145 
L 181.650294 -37.46571 
L 180.385557 -37.481911 
L 179.12082 -37.500562 
L 177.856082 -37.52147 
L 176.591345 -37.544439 
L 175.326607 -37.56928 
L 174.06187 -37.595809 
L 172.797132 -37.623854 
L 171.532395 -37.653254 
L 170.267657 -37.683856 
L 169.00292 -37.715513 
L 167.738183 -37.748082 
L 166.473445 -37.781421 
L 165.208708 -37.815379 
L 163.94397 -37.8498 
L 162.679233 -37.884514 
L 161.414495 -37.919336 
L 160.149758 -37.954067 
L 158.88502 -37.988492 
L 157.620283 -38.022385 
L 156.355546 -38.055508 
L 155.090808 -38.087623 
L 153.826071 -38.11849 
L 152.561333 -38.14788 
L 151.296596 -38.175576 
L 150.031858 -38.201389 
L 148.767121 -38.225157 
L 147.502383 -38.246757 
L 146.237646 -38.266109 
L 144.972909 -38.283184 
L 143.708171 -38.298007 
L 142.443434 -38.310663 
L 141.178696 -38.321299 
L 139.913959 -38.330129 
L 138.649221 -38.337435 
L 137.384484 -38.343568 
L 136.119746 -38.348947 
L 134.855009 -38.354063 
L 133.590272 -38.35947 
L 132.325534 -38.365787 
L 131.060797 -38.373691 
L 129.796059 -38.383909 
L 128.531322 -38.397213 
L 127.266584 -38.414404 
L 126.001847 -38.436306 
L 124.73711 -38.463749 
L 123.472372 -38.497559 
L 122.207635 -38.538541 
L 120.942897 -38.587471 
L 119.67816 -38.645083 
L 118.413422 -38.712062 
L 117.148685 -38.789044 
L 115.883947 -38.876615 
L 114.61921 -38.975322 
L 113.354473 -39.085688 
L 112.089735 -39.208231 
L 110.824998 -39.343495 
L 109.56026 -39.492084 
L 108.295523 -39.6547 
L 107.030785 -39.832188 
L 105.766048 -40.025578 
L 104.50131 -40.236125 
L 103.236573 -40.465347 
L 101.971836 -40.715051 
L 100.707098 -40.987347 
L 99.442361 -41.284649 
L 98.177623 -41.609644 
L 96.912886 -41.965254 
L 95.648148 -42.354556 
L 94.383411 -42.780686 
L 93.118673 -43.246705 
L 91.853936 -43.755447 
L 90.589199 -44.309338 
L 89.324461 -44.9102 
L 88.059724 -45.559039 
L 86.794986 -46.255835 
L 85.530249 -46.999337 
L 84.265511 -47.786875 
L 83.000774 -48.61421 
L 81.736036 -49.475419 
L 80.471299 -50.362838 
L 79.206562 -51.267072 
L 77.941824 -52.177074 
L 76.677087 -53.080299 
L 75.412349 -53.962943 
L 74.147612 -54.810248 
L 72.882874 -55.606881 
L 71.618137 -56.337359 
L 70.353399 -56.986528 
L 69.088662 -57.540044 
L 67.823925 -57.984873 
L 66.559187 -58.309748 
L 65.29445 -58.505597 
L 64.029712 -58.565897 
L 62.764975 -58.486939 
L 61.500237 -58.268001 
L 60.2355 -57.91141 
L 58.970762 -57.422489 
L 57.706025 -56.809395 
L 56.441288 -56.082852 
L 55.17655 -55.2558 
L 53.911813 -54.342957 
L 52.647075 -53.360345 
z
" style="stroke: #b64342; stroke-opacity: 0.06"/>
    </defs>
    <g clip-path="url(#pae1355cda8)">
     <use xlink:href="#me33c51ad55" x="0" y="183.070991" style="fill: #b64342; fill-opacity: 0.06; stroke: #b64342; stroke-opacity: 0.06"/>
    </g>
   </g>
   <g id="matplotlib.axis_1">
    <g id="xtick_1">
     <g id="line2d_1">
      <defs>
       <path id="mb08b46c68e" d="M 0 0 
L 0 3 
" style="stroke: #000000; stroke-width: 0.8"/>
      </defs>
      <g>
       <use xlink:href="#mb08b46c68e" x="60.094974" y="151.872788" style="stroke: #000000; stroke-width: 0.8"/>
      </g>
     </g>
     <g id="text_1">
      <text style="font-size: 7px; font-family: 'Times New Roman', 'DejaVu Serif'; text-anchor: middle" x="60.094974" y="163.233413" transform="rotate(-0 60.094974 163.233413)">0</text>
     </g>
    </g>
    <g id="xtick_2">
     <g id="line2d_2">
      <g>
       <use xlink:href="#mb08b46c68e" x="101.635107" y="151.872788" style="stroke: #000000; stroke-width: 0.8"/>
      </g>
     </g>
     <g id="text_2">
      <text style="font-size: 7px; font-family: 'Times New Roman', 'DejaVu Serif'; text-anchor: middle" x="101.635107" y="163.233413" transform="rotate(-0 101.635107 163.233413)">500</text>
     </g>
    </g>
    <g id="xtick_3">
     <g id="line2d_3">
      <g>
       <use xlink:href="#mb08b46c68e" x="143.17524" y="151.872788" style="stroke: #000000; stroke-width: 0.8"/>
      </g>
     </g>
     <g id="text_3">
      <text style="font-size: 7px; font-family: 'Times New Roman', 'DejaVu Serif'; text-anchor: middle" x="143.17524" y="163.233413" transform="rotate(-0 143.17524 163.233413)">1000</text>
     </g>
    </g>
    <g id="xtick_4">
     <g id="line2d_4">
      <g>
       <use xlink:href="#mb08b46c68e" x="184.715373" y="151.872788" style="stroke: #000000; stroke-width: 0.8"/>
      </g>
     </g>
     <g id="text_4">
      <text style="font-size: 7px; font-family: 'Times New Roman', 'DejaVu Serif'; text-anchor: middle" x="184.715373" y="163.233413" transform="rotate(-0 184.715373 163.233413)">1500</text>
     </g>
    </g>
    <g id="xtick_5">
     <g id="line2d_5">
      <g>
       <use xlink:href="#mb08b46c68e" x="226.255507" y="151.872788" style="stroke: #000000; stroke-width: 0.8"/>
      </g>
     </g>
     <g id="text_5">
      <text style="font-size: 7px; font-family: 'Times New Roman', 'DejaVu Serif'; text-anchor: middle" x="226.255507" y="163.233413" transform="rotate(-0 226.255507 163.233413)">2000</text>
     </g>
    </g>
    <g id="text_6">
     <text style="font-size: 7.5px; font-family: 'Songti SC', 'Arial Unicode MS'; text-anchor: middle" x="153.193702" y="174.828022" transform="rotate(-0 153.193702 174.828022)">最终损益</text>
    </g>
   </g>
   <g id="matplotlib.axis_2">
    <g id="ytick_1">
     <g id="line2d_6">
      <defs>
       <path id="m0d21fdad63" d="M 0 0 
L -3 0 
" style="stroke: #000000; stroke-width: 0.8"/>
      </defs>
      <g>
       <use xlink:href="#m0d21fdad63" x="42.592413" y="145.951232" style="stroke: #000000; stroke-width: 0.8"/>
      </g>
     </g>
     <g id="text_7">
      <text style="font-size: 7px; font-family: 'Times New Roman', 'DejaVu Serif'; text-anchor: end" x="36.092413" y="148.381544" transform="rotate(-0 36.092413 148.381544)">0.000</text>
     </g>
    </g>
    <g id="ytick_2">
     <g id="line2d_7">
      <g>
       <use xlink:href="#m0d21fdad63" x="42.592413" y="121.840995" style="stroke: #000000; stroke-width: 0.8"/>
      </g>
     </g>
     <g id="text_8">
      <text style="font-size: 7px; font-family: 'Times New Roman', 'DejaVu Serif'; text-anchor: end" x="36.092413" y="124.271307" transform="rotate(-0 36.092413 124.271307)">0.002</text>
     </g>
    </g>
    <g id="ytick_3">
     <g id="line2d_8">
      <g>
       <use xlink:href="#m0d21fdad63" x="42.592413" y="97.730758" style="stroke: #000000; stroke-width: 0.8"/>
      </g>
     </g>
     <g id="text_9">
      <text style="font-size: 7px; font-family: 'Times New Roman', 'DejaVu Serif'; text-anchor: end" x="36.092413" y="100.16107" transform="rotate(-0 36.092413 100.16107)">0.004</text>
     </g>
    </g>
    <g id="ytick_4">
     <g id="line2d_9">
      <g>
       <use xlink:href="#m0d21fdad63" x="42.592413" y="73.620521" style="stroke: #000000; stroke-width: 0.8"/>
      </g>
     </g>
     <g id="text_10">
      <text style="font-size: 7px; font-family: 'Times New Roman', 'DejaVu Serif'; text-anchor: end" x="36.092413" y="76.050833" transform="rotate(-0 36.092413 76.050833)">0.006</text>
     </g>
    </g>
    <g id="ytick_5">
     <g id="line2d_10">
      <g>
       <use xlink:href="#m0d21fdad63" x="42.592413" y="49.510284" style="stroke: #000000; stroke-width: 0.8"/>
      </g>
     </g>
     <g id="text_11">
      <text style="font-size: 7px; font-family: 'Times New Roman', 'DejaVu Serif'; text-anchor: end" x="36.092413" y="51.940596" transform="rotate(-0 36.092413 51.940596)">0.008</text>
     </g>
    </g>
    <g id="ytick_6">
     <g id="line2d_11">
      <g>
       <use xlink:href="#m0d21fdad63" x="42.592413" y="25.400047" style="stroke: #000000; stroke-width: 0.8"/>
      </g>
     </g>
     <g id="text_12">
      <text style="font-size: 7px; font-family: 'Times New Roman', 'DejaVu Serif'; text-anchor: end" x="36.092413" y="27.830359" transform="rotate(-0 36.092413 27.830359)">0.010</text>
     </g>
    </g>
    <g id="text_13">
     <text style="font-size: 7.5px; font-family: 'Songti SC', 'Arial Unicode MS'; text-anchor: middle" x="15.299444" y="86.735672" transform="rotate(-90 15.299444 86.735672)">钱包密度</text>
    </g>
   </g>
   <g id="line2d_12">
    <path d="M 52.647075 145.556541 
L 53.911813 144.246478 
L 55.17655 140.108181 
L 56.441288 129.962152 
L 57.706025 110.74155 
L 60.2355 53.068353 
L 61.500237 31.799888 
L 62.764975 27.520111 
L 64.029712 41.172869 
L 66.559187 90.952164 
L 67.823925 109.344967 
L 69.088662 120.313879 
L 70.353399 127.473749 
L 71.618137 133.696326 
L 72.882874 139.140487 
L 74.147612 142.92351 
L 75.412349 144.89451 
L 76.677087 145.663703 
L 77.941824 145.890398 
L 81.736036 145.951105 
L 253.740329 145.951232 
L 253.740329 145.951232 
" clip-path="url(#pae1355cda8)" style="fill: none; stroke: #0f4d92; stroke-width: 1.35; stroke-linecap: square"/>
   </g>
   <g id="line2d_13">
    <path d="M 52.647075 125.559754 
L 56.441288 114.522167 
L 57.706025 111.241793 
L 58.970762 108.462745 
L 60.2355 106.345853 
L 61.500237 105.015281 
L 62.764975 104.545522 
L 64.029712 104.953609 
L 65.29445 106.197732 
L 66.559187 108.18242 
L 67.823925 110.769466 
L 70.353399 117.075878 
L 74.147612 126.874717 
L 75.412349 129.720937 
L 76.677087 132.240698 
L 77.941824 134.414751 
L 79.206562 136.250991 
L 80.471299 137.777253 
L 81.736036 139.033737 
L 83.000774 140.066017 
L 84.265511 140.919308 
L 86.794986 142.244738 
L 89.324461 143.246898 
L 91.853936 144.044933 
L 94.383411 144.675872 
L 96.912886 145.141765 
L 99.442361 145.441312 
L 101.971836 145.579484 
L 104.50131 145.563832 
L 108.295523 145.267283 
L 112.089735 144.69658 
L 118.413422 143.678684 
L 120.942897 143.510122 
L 123.472372 143.569047 
L 126.001847 143.83946 
L 131.060797 144.707246 
L 134.855009 145.301236 
L 138.649221 145.677628 
L 143.708171 145.889568 
L 152.561333 145.949429 
L 253.740329 145.951232 
L 253.740329 145.951232 
" clip-path="url(#pae1355cda8)" style="fill: none; stroke: #8bcf8b; stroke-width: 1.35; stroke-linecap: square"/>
   </g>
   <g id="line2d_14">
    <path d="M 52.647075 126.771966 
L 56.441288 116.192487 
L 57.706025 113.079769 
L 58.970762 110.464485 
L 60.2355 108.495126 
L 61.500237 107.281341 
L 62.764975 106.883172 
L 64.029712 107.305915 
L 65.29445 108.501184 
L 66.559187 110.37374 
L 67.823925 112.792813 
L 70.353399 118.654211 
L 74.147612 127.773663 
L 75.412349 130.439715 
L 76.677087 132.806247 
L 77.941824 134.847129 
L 79.206562 136.559134 
L 80.471299 137.956888 
L 81.736036 139.067579 
L 83.000774 139.926052 
L 84.265511 140.570708 
L 85.530249 141.040381 
L 88.059724 141.600348 
L 90.589199 141.863389 
L 96.912886 142.33542 
L 100.707098 142.851728 
L 110.824998 144.480455 
L 113.354473 144.693409 
L 115.883947 144.749343 
L 119.67816 144.543038 
L 126.001847 143.964234 
L 128.531322 143.91996 
L 131.060797 144.059305 
L 134.855009 144.537357 
L 141.178696 145.425679 
L 144.972909 145.737271 
L 150.031858 145.906052 
L 161.414495 145.950926 
L 253.740329 145.951232 
L 253.740329 145.951232 
" clip-path="url(#pae1355cda8)" style="fill: none; stroke: #d4a93b; stroke-width: 1.35; stroke-linecap: square"/>
   </g>
   <g id="line2d_15">
    <path d="M 52.647075 129.710646 
L 55.17655 127.815191 
L 57.706025 126.261596 
L 58.970762 125.648502 
L 60.2355 125.159581 
L 61.500237 124.80299 
L 62.764975 124.584052 
L 64.029712 124.505094 
L 65.29445 124.565393 
L 66.559187 124.761243 
L 67.823925 125.086118 
L 70.353399 126.084463 
L 72.882874 127.46411 
L 75.412349 129.108048 
L 85.530249 136.071654 
L 88.059724 137.511951 
L 90.589199 138.761652 
L 93.118673 139.824286 
L 96.912886 141.105737 
L 100.707098 142.083643 
L 104.50131 142.834866 
L 109.56026 143.578907 
L 114.61921 144.095668 
L 120.942897 144.483519 
L 128.531322 144.673778 
L 160.149758 145.116924 
L 181.650294 145.605281 
L 193.032931 145.619588 
L 220.857155 145.436406 
L 251.210854 145.672366 
L 253.740329 145.697711 
L 253.740329 145.697711 
" clip-path="url(#pae1355cda8)" style="fill: none; stroke: #b64342; stroke-width: 1.35; stroke-linecap: square"/>
   </g>
   <g id="line2d_16">
    <path d="M 60.094974 151.872788 
L 60.094974 21.598555 
" clip-path="url(#pae1355cda8)" style="fill: none; stroke-dasharray: 0.8,1.32; stroke-dashoffset: 0; stroke: #767676; stroke-width: 0.8"/>
   </g>
   <g id="patch_3">
    <path d="M 42.592413 151.872788 
L 42.592413 21.598555 
" style="fill: none; stroke: #000000; stroke-width: 0.8; stroke-linejoin: miter; stroke-linecap: square"/>
   </g>
   <g id="patch_4">
    <path d="M 42.592413 151.872788 
L 263.794991 151.872788 
" style="fill: none; stroke: #000000; stroke-width: 0.8; stroke-linejoin: miter; stroke-linecap: square"/>
   </g>
   <g id="text_14">
    <text style="font-weight: 700; font-size: 9px; font-family: 'Times New Roman', 'DejaVu Serif'; text-anchor: start" x="7.2" y="13.159688" transform="rotate(-0 7.2 13.159688)">a</text>
   </g>
   <g id="text_15">
    <text style="font-size: 7.2px; font-family: 'Songti SC', 'Arial Unicode MS'; text-anchor: middle" x="153.193702" y="15.598555" transform="rotate(-0 153.193702 15.598555)">智能体数量扩展·以太坊 5000 美元</text>
   </g>
   <g id="legend_1">
    <g id="line2d_17">
     <path d="M 192.873679 28.268555 
L 197.513679 28.268555 
L 202.153679 28.268555 
" style="fill: none; stroke: #0f4d92; stroke-width: 1.35; stroke-linecap: square"/>
    </g>
    <g id="text_16">
     <text style="font-size: 5.8px; font-family: 'Times New Roman', 'DejaVu Serif'; text-anchor: start" x="206.793679" y="30.298555" transform="rotate(-0 206.793679 30.298555)">n=10</text>
    </g>
    <g id="line2d_18">
     <path d="M 192.873679 36.469212 
L 197.513679 36.469212 
L 202.153679 36.469212 
" style="fill: none; stroke: #8bcf8b; stroke-width: 1.35; stroke-linecap: square"/>
    </g>
    <g id="text_17">
     <text style="font-size: 5.8px; font-family: 'Times New Roman', 'DejaVu Serif'; text-anchor: start" x="206.793679" y="38.499212" transform="rotate(-0 206.793679 38.499212)">n=20</text>
    </g>
    <g id="line2d_19">
     <path d="M 230.364335 28.268555 
L 235.004335 28.268555 
L 239.644335 28.268555 
" style="fill: none; stroke: #d4a93b; stroke-width: 1.35; stroke-linecap: square"/>
    </g>
    <g id="text_18">
     <text style="font-size: 5.8px; font-family: 'Times New Roman', 'DejaVu Serif'; text-anchor: start" x="244.284335" y="30.298555" transform="rotate(-0 244.284335 30.298555)">n=50</text>
    </g>
    <g id="line2d_20">
     <path d="M 230.364335 36.469212 
L 235.004335 36.469212 
L 239.644335 36.469212 
" style="fill: none; stroke: #b64342; stroke-width: 1.35; stroke-linecap: square"/>
    </g>
    <g id="text_19">
     <text style="font-size: 5.8px; font-family: 'Times New Roman', 'DejaVu Serif'; text-anchor: start" x="244.284335" y="38.499212" transform="rotate(-0 244.284335 38.499212)">n=100</text>
    </g>
   </g>
  </g>
  <g id="axes_2">
   <g id="patch_5">
    <path d="M 300.462491 151.872788 
L 521.66507 151.872788 
L 521.66507 21.598555 
L 300.462491 21.598555 
z
" style="fill: #ffffff"/>
   </g>
   <g id="FillBetweenPolyCollection_5">
    <defs>
     <path id="m0dcb0df464" d="M 310.517154 -50.079343 
L 310.517154 -37.119759 
L 311.781891 -37.119759 
L 313.046629 -37.119759 
L 314.311366 -37.119759 
L 315.576104 -37.119759 
L 316.840841 -37.119759 
L 318.105579 -37.119759 
L 319.370316 -37.119759 
L 320.635054 -37.119759 
L 321.899791 -37.119759 
L 323.164528 -37.119759 
L 324.429266 -37.119759 
L 325.694003 -37.119759 
L 326.958741 -37.119759 
L 328.223478 -37.119759 
L 329.488216 -37.119759 
L 330.752953 -37.119759 
L 332.017691 -37.119759 
L 333.282428 -37.119759 
L 334.547165 -37.119759 
L 335.811903 -37.119759 
L 337.07664 -37.119759 
L 338.341378 -37.119759 
L 339.606115 -37.119759 
L 340.870853 -37.119759 
L 342.13559 -37.119759 
L 343.400328 -37.119759 
L 344.665065 -37.119759 
L 345.929802 -37.119759 
L 347.19454 -37.119759 
L 348.459277 -37.119759 
L 349.724015 -37.119759 
L 350.988752 -37.119759 
L 352.25349 -37.119759 
L 353.518227 -37.119759 
L 354.782965 -37.119759 
L 356.047702 -37.119759 
L 357.312439 -37.119759 
L 358.577177 -37.119759 
L 359.841914 -37.119759 
L 361.106652 -37.119759 
L 362.371389 -37.119759 
L 363.636127 -37.119759 
L 364.900864 -37.119759 
L 366.165601 -37.119759 
L 367.430339 -37.119759 
L 368.695076 -37.119759 
L 369.959814 -37.119759 
L 371.224551 -37.119759 
L 372.489289 -37.119759 
L 373.754026 -37.119759 
L 375.018764 -37.119759 
L 376.283501 -37.119759 
L 377.548238 -37.119759 
L 378.812976 -37.119759 
L 380.077713 -37.119759 
L 381.342451 -37.119759 
L 382.607188 -37.119759 
L 383.871926 -37.119759 
L 385.136663 -37.119759 
L 386.401401 -37.119759 
L 387.666138 -37.119759 
L 388.930875 -37.119759 
L 390.195613 -37.119759 
L 391.46035 -37.119759 
L 392.725088 -37.119759 
L 393.989825 -37.119759 
L 395.254563 -37.119759 
L 396.5193 -37.119759 
L 397.784038 -37.119759 
L 399.048775 -37.119759 
L 400.313512 -37.119759 
L 401.57825 -37.119759 
L 402.842987 -37.119759 
L 404.107725 -37.119759 
L 405.372462 -37.119759 
L 406.6372 -37.119759 
L 407.901937 -37.119759 
L 409.166675 -37.119759 
L 410.431412 -37.119759 
L 411.696149 -37.119759 
L 412.960887 -37.119759 
L 414.225624 -37.119759 
L 415.490362 -37.119759 
L 416.755099 -37.119759 
L 418.019837 -37.119759 
L 419.284574 -37.119759 
L 420.549312 -37.119759 
L 421.814049 -37.119759 
L 423.078786 -37.119759 
L 424.343524 -37.119759 
L 425.608261 -37.119759 
L 426.872999 -37.119759 
L 428.137736 -37.119759 
L 429.402474 -37.119759 
L 430.667211 -37.119759 
L 431.931949 -37.119759 
L 433.196686 -37.119759 
L 434.461423 -37.119759 
L 435.726161 -37.119759 
L 436.990898 -37.119759 
L 438.255636 -37.119759 
L 439.520373 -37.119759 
L 440.785111 -37.119759 
L 442.049848 -37.119759 
L 443.314585 -37.119759 
L 444.579323 -37.119759 
L 445.84406 -37.119759 
L 447.108798 -37.119759 
L 448.373535 -37.119759 
L 449.638273 -37.119759 
L 450.90301 -37.119759 
L 452.167748 -37.119759 
L 453.432485 -37.119759 
L 454.697222 -37.119759 
L 455.96196 -37.119759 
L 457.226697 -37.119759 
L 458.491435 -37.119759 
L 459.756172 -37.119759 
L 461.02091 -37.119759 
L 462.285647 -37.119759 
L 463.550385 -37.119759 
L 464.815122 -37.119759 
L 466.079859 -37.119759 
L 467.344597 -37.119759 
L 468.609334 -37.119759 
L 469.874072 -37.119759 
L 471.138809 -37.119759 
L 472.403547 -37.119759 
L 473.668284 -37.119759 
L 474.933022 -37.119759 
L 476.197759 -37.119759 
L 477.462496 -37.119759 
L 478.727234 -37.119759 
L 479.991971 -37.119759 
L 481.256709 -37.119759 
L 482.521446 -37.119759 
L 483.786184 -37.119759 
L 485.050921 -37.119759 
L 486.315659 -37.119759 
L 487.580396 -37.119759 
L 488.845133 -37.119759 
L 490.109871 -37.119759 
L 491.374608 -37.119759 
L 492.639346 -37.119759 
L 493.904083 -37.119759 
L 495.168821 -37.119759 
L 496.433558 -37.119759 
L 497.698296 -37.119759 
L 498.963033 -37.119759 
L 500.22777 -37.119759 
L 501.492508 -37.119759 
L 502.757245 -37.119759 
L 504.021983 -37.119759 
L 505.28672 -37.119759 
L 506.551458 -37.119759 
L 507.816195 -37.119759 
L 509.080933 -37.119759 
L 510.34567 -37.119759 
L 511.610407 -37.119759 
L 511.610407 -37.119759 
L 511.610407 -37.119759 
L 510.34567 -37.119759 
L 509.080933 -37.119759 
L 507.816195 -37.119759 
L 506.551458 -37.119759 
L 505.28672 -37.119759 
L 504.021983 -37.119759 
L 502.757245 -37.119759 
L 501.492508 -37.119759 
L 500.22777 -37.119759 
L 498.963033 -37.119759 
L 497.698296 -37.119759 
L 496.433558 -37.119759 
L 495.168821 -37.119759 
L 493.904083 -37.119759 
L 492.639346 -37.119759 
L 491.374608 -37.119759 
L 490.109871 -37.119759 
L 488.845133 -37.119759 
L 487.580396 -37.119759 
L 486.315659 -37.119759 
L 485.050921 -37.119759 
L 483.786184 -37.119759 
L 482.521446 -37.119759 
L 481.256709 -37.119759 
L 479.991971 -37.119759 
L 478.727234 -37.119759 
L 477.462496 -37.119759 
L 476.197759 -37.119759 
L 474.933022 -37.119759 
L 473.668284 -37.119759 
L 472.403547 -37.119759 
L 471.138809 -37.119759 
L 469.874072 -37.119759 
L 468.609334 -37.119759 
L 467.344597 -37.119759 
L 466.079859 -37.119759 
L 464.815122 -37.119759 
L 463.550385 -37.119759 
L 462.285647 -37.119759 
L 461.02091 -37.119759 
L 459.756172 -37.119759 
L 458.491435 -37.119759 
L 457.226697 -37.119759 
L 455.96196 -37.119759 
L 454.697222 -37.119759 
L 453.432485 -37.119759 
L 452.167748 -37.119759 
L 450.90301 -37.119759 
L 449.638273 -37.119759 
L 448.373535 -37.119759 
L 447.108798 -37.119759 
L 445.84406 -37.119759 
L 444.579323 -37.119759 
L 443.314585 -37.119759 
L 442.049848 -37.119759 
L 440.785111 -37.119759 
L 439.520373 -37.119759 
L 438.255636 -37.119759 
L 436.990898 -37.119759 
L 435.726161 -37.119759 
L 434.461423 -37.119759 
L 433.196686 -37.119759 
L 431.931949 -37.119759 
L 430.667211 -37.119759 
L 429.402474 -37.119759 
L 428.137736 -37.119759 
L 426.872999 -37.119759 
L 425.608261 -37.119759 
L 424.343524 -37.119759 
L 423.078786 -37.119759 
L 421.814049 -37.119759 
L 420.549312 -37.119759 
L 419.284574 -37.119759 
L 418.019837 -37.119759 
L 416.755099 -37.119759 
L 415.490362 -37.119759 
L 414.225624 -37.119759 
L 412.960887 -37.119759 
L 411.696149 -37.119759 
L 410.431412 -37.119759 
L 409.166675 -37.119759 
L 407.901937 -37.119759 
L 406.6372 -37.119759 
L 405.372462 -37.119759 
L 404.107725 -37.119759 
L 402.842987 -37.119759 
L 401.57825 -37.119759 
L 400.313512 -37.119759 
L 399.048775 -37.119759 
L 397.784038 -37.119759 
L 396.5193 -37.119759 
L 395.254563 -37.119759 
L 393.989825 -37.119759 
L 392.725088 -37.119759 
L 391.46035 -37.119759 
L 390.195613 -37.119759 
L 388.930875 -37.119759 
L 387.666138 -37.119759 
L 386.401401 -37.119759 
L 385.136663 -37.119759 
L 383.871926 -37.119759 
L 382.607188 -37.119759 
L 381.342451 -37.119759 
L 380.077713 -37.119759 
L 378.812976 -37.119759 
L 377.548238 -37.119759 
L 376.283501 -37.119759 
L 375.018764 -37.119759 
L 373.754026 -37.119759 
L 372.489289 -37.119759 
L 371.224551 -37.119759 
L 369.959814 -37.119759 
L 368.695076 -37.119759 
L 367.430339 -37.119759 
L 366.165601 -37.119759 
L 364.900864 -37.119759 
L 363.636127 -37.119759 
L 362.371389 -37.119759 
L 361.106652 -37.119759 
L 359.841914 -37.119759 
L 358.577177 -37.11976 
L 357.312439 -37.119762 
L 356.047702 -37.119773 
L 354.782965 -37.11983 
L 353.518227 -37.120091 
L 352.25349 -37.121152 
L 350.988752 -37.125036 
L 349.724015 -37.137806 
L 348.459277 -37.175488 
L 347.19454 -37.275181 
L 345.929802 -37.511398 
L 344.665065 -38.012004 
L 343.400328 -38.959436 
L 342.13559 -40.557786 
L 340.870853 -42.95623 
L 339.606115 -46.149172 
L 338.341378 -49.907494 
L 337.07664 -53.79912 
L 335.811903 -57.310192 
L 334.547165 -60.010002 
L 333.282428 -61.679788 
L 332.017691 -62.379091 
L 330.752953 -62.4977 
L 329.488216 -62.839418 
L 328.223478 -64.681027 
L 326.958741 -69.639292 
L 325.694003 -79.192742 
L 324.429266 -93.892597 
L 323.164528 -112.575568 
L 321.899791 -132.079732 
L 320.635054 -147.871454 
L 319.370316 -155.550879 
L 318.105579 -152.615215 
L 316.840841 -139.547465 
L 315.576104 -119.591362 
L 314.311366 -97.342195 
L 313.046629 -76.971513 
L 311.781891 -61.004621 
L 310.517154 -50.079343 
z
" style="stroke: #0f4d92; stroke-opacity: 0.06"/>
    </defs>
    <g clip-path="url(#pfccd9591f1)">
     <use xlink:href="#m0dcb0df464" x="0" y="183.070991" style="fill: #0f4d92; fill-opacity: 0.06; stroke: #0f4d92; stroke-opacity: 0.06"/>
    </g>
   </g>
   <g id="FillBetweenPolyCollection_6">
    <defs>
     <path id="m7e34a02451" d="M 310.517154 -64.097587 
L 310.517154 -37.119759 
L 311.781891 -37.119759 
L 313.046629 -37.119759 
L 314.311366 -37.119759 
L 315.576104 -37.119759 
L 316.840841 -37.119759 
L 318.105579 -37.119759 
L 319.370316 -37.119759 
L 320.635054 -37.119759 
L 321.899791 -37.119759 
L 323.164528 -37.119759 
L 324.429266 -37.119759 
L 325.694003 -37.119759 
L 326.958741 -37.119759 
L 328.223478 -37.119759 
L 329.488216 -37.119759 
L 330.752953 -37.119759 
L 332.017691 -37.119759 
L 333.282428 -37.119759 
L 334.547165 -37.119759 
L 335.811903 -37.119759 
L 337.07664 -37.119759 
L 338.341378 -37.119759 
L 339.606115 -37.119759 
L 340.870853 -37.119759 
L 342.13559 -37.119759 
L 343.400328 -37.119759 
L 344.665065 -37.119759 
L 345.929802 -37.119759 
L 347.19454 -37.119759 
L 348.459277 -37.119759 
L 349.724015 -37.119759 
L 350.988752 -37.119759 
L 352.25349 -37.119759 
L 353.518227 -37.119759 
L 354.782965 -37.119759 
L 356.047702 -37.119759 
L 357.312439 -37.119759 
L 358.577177 -37.119759 
L 359.841914 -37.119759 
L 361.106652 -37.119759 
L 362.371389 -37.119759 
L 363.636127 -37.119759 
L 364.900864 -37.119759 
L 366.165601 -37.119759 
L 367.430339 -37.119759 
L 368.695076 -37.119759 
L 369.959814 -37.119759 
L 371.224551 -37.119759 
L 372.489289 -37.119759 
L 373.754026 -37.119759 
L 375.018764 -37.119759 
L 376.283501 -37.119759 
L 377.548238 -37.119759 
L 378.812976 -37.119759 
L 380.077713 -37.119759 
L 381.342451 -37.119759 
L 382.607188 -37.119759 
L 383.871926 -37.119759 
L 385.136663 -37.119759 
L 386.401401 -37.119759 
L 387.666138 -37.119759 
L 388.930875 -37.119759 
L 390.195613 -37.119759 
L 391.46035 -37.119759 
L 392.725088 -37.119759 
L 393.989825 -37.119759 
L 395.254563 -37.119759 
L 396.5193 -37.119759 
L 397.784038 -37.119759 
L 399.048775 -37.119759 
L 400.313512 -37.119759 
L 401.57825 -37.119759 
L 402.842987 -37.119759 
L 404.107725 -37.119759 
L 405.372462 -37.119759 
L 406.6372 -37.119759 
L 407.901937 -37.119759 
L 409.166675 -37.119759 
L 410.431412 -37.119759 
L 411.696149 -37.119759 
L 412.960887 -37.119759 
L 414.225624 -37.119759 
L 415.490362 -37.119759 
L 416.755099 -37.119759 
L 418.019837 -37.119759 
L 419.284574 -37.119759 
L 420.549312 -37.119759 
L 421.814049 -37.119759 
L 423.078786 -37.119759 
L 424.343524 -37.119759 
L 425.608261 -37.119759 
L 426.872999 -37.119759 
L 428.137736 -37.119759 
L 429.402474 -37.119759 
L 430.667211 -37.119759 
L 431.931949 -37.119759 
L 433.196686 -37.119759 
L 434.461423 -37.119759 
L 435.726161 -37.119759 
L 436.990898 -37.119759 
L 438.255636 -37.119759 
L 439.520373 -37.119759 
L 440.785111 -37.119759 
L 442.049848 -37.119759 
L 443.314585 -37.119759 
L 444.579323 -37.119759 
L 445.84406 -37.119759 
L 447.108798 -37.119759 
L 448.373535 -37.119759 
L 449.638273 -37.119759 
L 450.90301 -37.119759 
L 452.167748 -37.119759 
L 453.432485 -37.119759 
L 454.697222 -37.119759 
L 455.96196 -37.119759 
L 457.226697 -37.119759 
L 458.491435 -37.119759 
L 459.756172 -37.119759 
L 461.02091 -37.119759 
L 462.285647 -37.119759 
L 463.550385 -37.119759 
L 464.815122 -37.119759 
L 466.079859 -37.119759 
L 467.344597 -37.119759 
L 468.609334 -37.119759 
L 469.874072 -37.119759 
L 471.138809 -37.119759 
L 472.403547 -37.119759 
L 473.668284 -37.119759 
L 474.933022 -37.119759 
L 476.197759 -37.119759 
L 477.462496 -37.119759 
L 478.727234 -37.119759 
L 479.991971 -37.119759 
L 481.256709 -37.119759 
L 482.521446 -37.119759 
L 483.786184 -37.119759 
L 485.050921 -37.119759 
L 486.315659 -37.119759 
L 487.580396 -37.119759 
L 488.845133 -37.119759 
L 490.109871 -37.119759 
L 491.374608 -37.119759 
L 492.639346 -37.119759 
L 493.904083 -37.119759 
L 495.168821 -37.119759 
L 496.433558 -37.119759 
L 497.698296 -37.119759 
L 498.963033 -37.119759 
L 500.22777 -37.119759 
L 501.492508 -37.119759 
L 502.757245 -37.119759 
L 504.021983 -37.119759 
L 505.28672 -37.119759 
L 506.551458 -37.119759 
L 507.816195 -37.119759 
L 509.080933 -37.119759 
L 510.34567 -37.119759 
L 511.610407 -37.119759 
L 511.610407 -37.119759 
L 511.610407 -37.119759 
L 510.34567 -37.119759 
L 509.080933 -37.119759 
L 507.816195 -37.119759 
L 506.551458 -37.119759 
L 505.28672 -37.119759 
L 504.021983 -37.119759 
L 502.757245 -37.119759 
L 501.492508 -37.119759 
L 500.22777 -37.119759 
L 498.963033 -37.119759 
L 497.698296 -37.119759 
L 496.433558 -37.119759 
L 495.168821 -37.119759 
L 493.904083 -37.119759 
L 492.639346 -37.119759 
L 491.374608 -37.119759 
L 490.109871 -37.119759 
L 488.845133 -37.119759 
L 487.580396 -37.119759 
L 486.315659 -37.119759 
L 485.050921 -37.119759 
L 483.786184 -37.119759 
L 482.521446 -37.11976 
L 481.256709 -37.11976 
L 479.991971 -37.11976 
L 478.727234 -37.119761 
L 477.462496 -37.119763 
L 476.197759 -37.119765 
L 474.933022 -37.119769 
L 473.668284 -37.119776 
L 472.403547 -37.119786 
L 471.138809 -37.119802 
L 469.874072 -37.119827 
L 468.609334 -37.119865 
L 467.344597 -37.119924 
L 466.079859 -37.120012 
L 464.815122 -37.120144 
L 463.550385 -37.12034 
L 462.285647 -37.120625 
L 461.02091 -37.121039 
L 459.756172 -37.121632 
L 458.491435 -37.122472 
L 457.226697 -37.123652 
L 455.96196 -37.125288 
L 454.697222 -37.127536 
L 453.432485 -37.13059 
L 452.167748 -37.134694 
L 450.90301 -37.140153 
L 449.638273 -37.147333 
L 448.373535 -37.156674 
L 447.108798 -37.168694 
L 445.84406 -37.183991 
L 444.579323 -37.203242 
L 443.314585 -37.227198 
L 442.049848 -37.256669 
L 440.785111 -37.29251 
L 439.520373 -37.335593 
L 438.255636 -37.386772 
L 436.990898 -37.446842 
L 435.726161 -37.51649 
L 434.461423 -37.596243 
L 433.196686 -37.686406 
L 431.931949 -37.787013 
L 430.667211 -37.897763 
L 429.402474 -38.017986 
L 428.137736 -38.146601 
L 426.872999 -38.282102 
L 425.608261 -38.42256 
L 424.343524 -38.565649 
L 423.078786 -38.708691 
L 421.814049 -38.848736 
L 420.549312 -38.982646 
L 419.284574 -39.107216 
L 418.019837 -39.219294 
L 416.755099 -39.315916 
L 415.490362 -39.394433 
L 414.225624 -39.452637 
L 412.960887 -39.488862 
L 411.696149 -39.502066 
L 410.431412 -39.491887 
L 409.166675 -39.45866 
L 407.901937 -39.403407 
L 406.6372 -39.327793 
L 405.372462 -39.234052 
L 404.107725 -39.124891 
L 402.842987 -39.003376 
L 401.57825 -38.872812 
L 400.313512 -38.736614 
L 399.048775 -38.598197 
L 397.784038 -38.460863 
L 396.5193 -38.327717 
L 395.254563 -38.201601 
L 393.989825 -38.085047 
L 392.725088 -37.980252 
L 391.46035 -37.889077 
L 390.195613 -37.813061 
L 388.930875 -37.753437 
L 387.666138 -37.711171 
L 386.401401 -37.686991 
L 385.136663 -37.681418 
L 383.871926 -37.694795 
L 382.607188 -37.727306 
L 381.342451 -37.778986 
L 380.077713 -37.849735 
L 378.812976 -37.939313 
L 377.548238 -38.047349 
L 376.283501 -38.173346 
L 375.018764 -38.316696 
L 373.754026 -38.476709 
L 372.489289 -38.652659 
L 371.224551 -38.843844 
L 369.959814 -39.049672 
L 368.695076 -39.269765 
L 367.430339 -39.50407 
L 366.165601 -39.752995 
L 364.900864 -40.017536 
L 363.636127 -40.299412 
L 362.371389 -40.601178 
L 361.106652 -40.92632 
L 359.841914 -41.279321 
L 358.577177 -41.665686 
L 357.312439 -42.091919 
L 356.047702 -42.565448 
L 354.782965 -43.094495 
L 353.518227 -43.687886 
L 352.25349 -44.354795 
L 350.988752 -45.104441 
L 349.724015 -45.945712 
L 348.459277 -46.886753 
L 347.19454 -47.934499 
L 345.929802 -49.094181 
L 344.665065 -50.368809 
L 343.400328 -51.758653 
L 342.13559 -53.260746 
L 340.870853 -54.868434 
L 339.606115 -56.570998 
L 338.341378 -58.35339 
L 337.07664 -60.196105 
L 335.811903 -62.075233 
L 334.547165 -63.962703 
L 333.282428 -65.826748 
L 332.017691 -67.632598 
L 330.752953 -69.343392 
L 329.488216 -70.921288 
L 328.223478 -72.328736 
L 326.958741 -73.529855 
L 325.694003 -74.491866 
L 324.429266 -75.18647 
L 323.164528 -75.591133 
L 321.899791 -75.690168 
L 320.635054 -75.475555 
L 319.370316 -74.94744 
L 318.105579 -74.114277 
L 316.840841 -72.992595 
L 315.576104 -71.606385 
L 314.311366 -69.986171 
L 313.046629 -68.167781 
L 311.781891 -66.190914 
L 310.517154 -64.097587 
z
" style="stroke: #8bcf8b; stroke-opacity: 0.06"/>
    </defs>
    <g clip-path="url(#pfccd9591f1)">
     <use xlink:href="#m7e34a02451" x="0" y="183.070991" style="fill: #8bcf8b; fill-opacity: 0.06; stroke: #8bcf8b; stroke-opacity: 0.06"/>
    </g>
   </g>
   <g id="FillBetweenPolyCollection_7">
    <defs>
     <path id="m228658db5f" d="M 310.517154 -66.59532 
L 310.517154 -37.119759 
L 311.781891 -37.119759 
L 313.046629 -37.119759 
L 314.311366 -37.119759 
L 315.576104 -37.119759 
L 316.840841 -37.119759 
L 318.105579 -37.119759 
L 319.370316 -37.119759 
L 320.635054 -37.119759 
L 321.899791 -37.119759 
L 323.164528 -37.119759 
L 324.429266 -37.119759 
L 325.694003 -37.119759 
L 326.958741 -37.119759 
L 328.223478 -37.119759 
L 329.488216 -37.119759 
L 330.752953 -37.119759 
L 332.017691 -37.119759 
L 333.282428 -37.119759 
L 334.547165 -37.119759 
L 335.811903 -37.119759 
L 337.07664 -37.119759 
L 338.341378 -37.119759 
L 339.606115 -37.119759 
L 340.870853 -37.119759 
L 342.13559 -37.119759 
L 343.400328 -37.119759 
L 344.665065 -37.119759 
L 345.929802 -37.119759 
L 347.19454 -37.119759 
L 348.459277 -37.119759 
L 349.724015 -37.119759 
L 350.988752 -37.119759 
L 352.25349 -37.119759 
L 353.518227 -37.119759 
L 354.782965 -37.119759 
L 356.047702 -37.119759 
L 357.312439 -37.119759 
L 358.577177 -37.119759 
L 359.841914 -37.119759 
L 361.106652 -37.119759 
L 362.371389 -37.119759 
L 363.636127 -37.119759 
L 364.900864 -37.119759 
L 366.165601 -37.119759 
L 367.430339 -37.119759 
L 368.695076 -37.119759 
L 369.959814 -37.119759 
L 371.224551 -37.119759 
L 372.489289 -37.119759 
L 373.754026 -37.119759 
L 375.018764 -37.119759 
L 376.283501 -37.119759 
L 377.548238 -37.119759 
L 378.812976 -37.119759 
L 380.077713 -37.119759 
L 381.342451 -37.119759 
L 382.607188 -37.119759 
L 383.871926 -37.119759 
L 385.136663 -37.119759 
L 386.401401 -37.119759 
L 387.666138 -37.119759 
L 388.930875 -37.119759 
L 390.195613 -37.119759 
L 391.46035 -37.119759 
L 392.725088 -37.119759 
L 393.989825 -37.119759 
L 395.254563 -37.119759 
L 396.5193 -37.119759 
L 397.784038 -37.119759 
L 399.048775 -37.119759 
L 400.313512 -37.119759 
L 401.57825 -37.119759 
L 402.842987 -37.119759 
L 404.107725 -37.119759 
L 405.372462 -37.119759 
L 406.6372 -37.119759 
L 407.901937 -37.119759 
L 409.166675 -37.119759 
L 410.431412 -37.119759 
L 411.696149 -37.119759 
L 412.960887 -37.119759 
L 414.225624 -37.119759 
L 415.490362 -37.119759 
L 416.755099 -37.119759 
L 418.019837 -37.119759 
L 419.284574 -37.119759 
L 420.549312 -37.119759 
L 421.814049 -37.119759 
L 423.078786 -37.119759 
L 424.343524 -37.119759 
L 425.608261 -37.119759 
L 426.872999 -37.119759 
L 428.137736 -37.119759 
L 429.402474 -37.119759 
L 430.667211 -37.119759 
L 431.931949 -37.119759 
L 433.196686 -37.119759 
L 434.461423 -37.119759 
L 435.726161 -37.119759 
L 436.990898 -37.119759 
L 438.255636 -37.119759 
L 439.520373 -37.119759 
L 440.785111 -37.119759 
L 442.049848 -37.119759 
L 443.314585 -37.119759 
L 444.579323 -37.119759 
L 445.84406 -37.119759 
L 447.108798 -37.119759 
L 448.373535 -37.119759 
L 449.638273 -37.119759 
L 450.90301 -37.119759 
L 452.167748 -37.119759 
L 453.432485 -37.119759 
L 454.697222 -37.119759 
L 455.96196 -37.119759 
L 457.226697 -37.119759 
L 458.491435 -37.119759 
L 459.756172 -37.119759 
L 461.02091 -37.119759 
L 462.285647 -37.119759 
L 463.550385 -37.119759 
L 464.815122 -37.119759 
L 466.079859 -37.119759 
L 467.344597 -37.119759 
L 468.609334 -37.119759 
L 469.874072 -37.119759 
L 471.138809 -37.119759 
L 472.403547 -37.119759 
L 473.668284 -37.119759 
L 474.933022 -37.119759 
L 476.197759 -37.119759 
L 477.462496 -37.119759 
L 478.727234 -37.119759 
L 479.991971 -37.119759 
L 481.256709 -37.119759 
L 482.521446 -37.119759 
L 483.786184 -37.119759 
L 485.050921 -37.119759 
L 486.315659 -37.119759 
L 487.580396 -37.119759 
L 488.845133 -37.119759 
L 490.109871 -37.119759 
L 491.374608 -37.119759 
L 492.639346 -37.119759 
L 493.904083 -37.119759 
L 495.168821 -37.119759 
L 496.433558 -37.119759 
L 497.698296 -37.119759 
L 498.963033 -37.119759 
L 500.22777 -37.119759 
L 501.492508 -37.119759 
L 502.757245 -37.119759 
L 504.021983 -37.119759 
L 505.28672 -37.119759 
L 506.551458 -37.119759 
L 507.816195 -37.119759 
L 509.080933 -37.119759 
L 510.34567 -37.119759 
L 511.610407 -37.119759 
L 511.610407 -37.119759 
L 511.610407 -37.119759 
L 510.34567 -37.119759 
L 509.080933 -37.119759 
L 507.816195 -37.119759 
L 506.551458 -37.119759 
L 505.28672 -37.119759 
L 504.021983 -37.119759 
L 502.757245 -37.119759 
L 501.492508 -37.119759 
L 500.22777 -37.119759 
L 498.963033 -37.119759 
L 497.698296 -37.119759 
L 496.433558 -37.119759 
L 495.168821 -37.119759 
L 493.904083 -37.119759 
L 492.639346 -37.119759 
L 491.374608 -37.119759 
L 490.109871 -37.119759 
L 488.845133 -37.119759 
L 487.580396 -37.119759 
L 486.315659 -37.119759 
L 485.050921 -37.119759 
L 483.786184 -37.119759 
L 482.521446 -37.119759 
L 481.256709 -37.119759 
L 479.991971 -37.119759 
L 478.727234 -37.119759 
L 477.462496 -37.119759 
L 476.197759 -37.119759 
L 474.933022 -37.119759 
L 473.668284 -37.119759 
L 472.403547 -37.119759 
L 471.138809 -37.119759 
L 469.874072 -37.119759 
L 468.609334 -37.119759 
L 467.344597 -37.119759 
L 466.079859 -37.119759 
L 464.815122 -37.119759 
L 463.550385 -37.119759 
L 462.285647 -37.119759 
L 461.02091 -37.119759 
L 459.756172 -37.119759 
L 458.491435 -37.119759 
L 457.226697 -37.119759 
L 455.96196 -37.119759 
L 454.697222 -37.119759 
L 453.432485 -37.119759 
L 452.167748 -37.119759 
L 450.90301 -37.119759 
L 449.638273 -37.119759 
L 448.373535 -37.119759 
L 447.108798 -37.119759 
L 445.84406 -37.119759 
L 444.579323 -37.119759 
L 443.314585 -37.119759 
L 442.049848 -37.119759 
L 440.785111 -37.119759 
L 439.520373 -37.119759 
L 438.255636 -37.119759 
L 436.990898 -37.119759 
L 435.726161 -37.119759 
L 434.461423 -37.119759 
L 433.196686 -37.119759 
L 431.931949 -37.119759 
L 430.667211 -37.119759 
L 429.402474 -37.119759 
L 428.137736 -37.119759 
L 426.872999 -37.119759 
L 425.608261 -37.119759 
L 424.343524 -37.119759 
L 423.078786 -37.119759 
L 421.814049 -37.119759 
L 420.549312 -37.119759 
L 419.284574 -37.119759 
L 418.019837 -37.119759 
L 416.755099 -37.119759 
L 415.490362 -37.119759 
L 414.225624 -37.119759 
L 412.960887 -37.119759 
L 411.696149 -37.119759 
L 410.431412 -37.119759 
L 409.166675 -37.119759 
L 407.901937 -37.11976 
L 406.6372 -37.119761 
L 405.372462 -37.119763 
L 404.107725 -37.119771 
L 402.842987 -37.11979 
L 401.57825 -37.119837 
L 400.313512 -37.119948 
L 399.048775 -37.120202 
L 397.784038 -37.120752 
L 396.5193 -37.121899 
L 395.254563 -37.124184 
L 393.989825 -37.128544 
L 392.725088 -37.136497 
L 391.46035 -37.150373 
L 390.195613 -37.173503 
L 388.930875 -37.210324 
L 387.666138 -37.266255 
L 386.401401 -37.347235 
L 385.136663 -37.458854 
L 383.871926 -37.605072 
L 382.607188 -37.78673 
L 381.342451 -38.000169 
L 380.077713 -38.236442 
L 378.812976 -38.481582 
L 377.548238 -38.718224 
L 376.283501 -38.928546 
L 375.018764 -39.098056 
L 373.754026 -39.21942 
L 372.489289 -39.295302 
L 371.224551 -39.339372 
L 369.959814 -39.37502 
L 368.695076 -39.431934 
L 367.430339 -39.541266 
L 366.165601 -39.730484 
L 364.900864 -40.019061 
L 363.636127 -40.415816 
L 362.371389 -40.918245 
L 361.106652 -41.513554 
L 359.841914 -42.180722 
L 358.577177 -42.892783 
L 357.312439 -43.618701 
L 356.047702 -44.324657 
L 354.782965 -44.975038 
L 353.518227 -45.533771 
L 352.25349 -45.966629 
L 350.988752 -46.24486 
L 349.724015 -46.349851 
L 348.459277 -46.277995 
L 347.19454 -46.044506 
L 345.929802 -45.685014 
L 344.665065 -45.254288 
L 343.400328 -44.822257 
L 342.13559 -44.468426 
L 340.870853 -44.276399 
L 339.606115 -44.330298 
L 338.341378 -44.714384 
L 337.07664 -45.516044 
L 335.811903 -46.83085 
L 334.547165 -48.766891 
L 333.282428 -51.444394 
L 332.017691 -54.986431 
L 330.752953 -59.497537 
L 329.488216 -65.029941 
L 328.223478 -71.541436 
L 326.958741 -78.853939 
L 325.694003 -86.625739 
L 324.429266 -94.351234 
L 323.164528 -101.398045 
L 321.899791 -107.082647 
L 320.635054 -110.774098 
L 319.370316 -112.004787 
L 318.105579 -110.561596 
L 316.840841 -106.533362 
L 315.576104 -100.30094 
L 314.311366 -92.471473 
L 313.046629 -83.773377 
L 311.781891 -74.938026 
L 310.517154 -66.59532 
z
" style="stroke: #d4a93b; stroke-opacity: 0.06"/>
    </defs>
    <g clip-path="url(#pfccd9591f1)">
     <use xlink:href="#m228658db5f" x="0" y="183.070991" style="fill: #d4a93b; fill-opacity: 0.06; stroke: #d4a93b; stroke-opacity: 0.06"/>
    </g>
   </g>
   <g id="FillBetweenPolyCollection_8">
    <defs>
     <path id="mfe7098823d" d="M 310.517154 -65.39666 
L 310.517154 -37.119759 
L 311.781891 -37.119759 
L 313.046629 -37.119759 
L 314.311366 -37.119759 
L 315.576104 -37.119759 
L 316.840841 -37.119759 
L 318.105579 -37.119759 
L 319.370316 -37.119759 
L 320.635054 -37.119759 
L 321.899791 -37.119759 
L 323.164528 -37.119759 
L 324.429266 -37.119759 
L 325.694003 -37.119759 
L 326.958741 -37.119759 
L 328.223478 -37.119759 
L 329.488216 -37.119759 
L 330.752953 -37.119759 
L 332.017691 -37.119759 
L 333.282428 -37.119759 
L 334.547165 -37.119759 
L 335.811903 -37.119759 
L 337.07664 -37.119759 
L 338.341378 -37.119759 
L 339.606115 -37.119759 
L 340.870853 -37.119759 
L 342.13559 -37.119759 
L 343.400328 -37.119759 
L 344.665065 -37.119759 
L 345.929802 -37.119759 
L 347.19454 -37.119759 
L 348.459277 -37.119759 
L 349.724015 -37.119759 
L 350.988752 -37.119759 
L 352.25349 -37.119759 
L 353.518227 -37.119759 
L 354.782965 -37.119759 
L 356.047702 -37.119759 
L 357.312439 -37.119759 
L 358.577177 -37.119759 
L 359.841914 -37.119759 
L 361.106652 -37.119759 
L 362.371389 -37.119759 
L 363.636127 -37.119759 
L 364.900864 -37.119759 
L 366.165601 -37.119759 
L 367.430339 -37.119759 
L 368.695076 -37.119759 
L 369.959814 -37.119759 
L 371.224551 -37.119759 
L 372.489289 -37.119759 
L 373.754026 -37.119759 
L 375.018764 -37.119759 
L 376.283501 -37.119759 
L 377.548238 -37.119759 
L 378.812976 -37.119759 
L 380.077713 -37.119759 
L 381.342451 -37.119759 
L 382.607188 -37.119759 
L 383.871926 -37.119759 
L 385.136663 -37.119759 
L 386.401401 -37.119759 
L 387.666138 -37.119759 
L 388.930875 -37.119759 
L 390.195613 -37.119759 
L 391.46035 -37.119759 
L 392.725088 -37.119759 
L 393.989825 -37.119759 
L 395.254563 -37.119759 
L 396.5193 -37.119759 
L 397.784038 -37.119759 
L 399.048775 -37.119759 
L 400.313512 -37.119759 
L 401.57825 -37.119759 
L 402.842987 -37.119759 
L 404.107725 -37.119759 
L 405.372462 -37.119759 
L 406.6372 -37.119759 
L 407.901937 -37.119759 
L 409.166675 -37.119759 
L 410.431412 -37.119759 
L 411.696149 -37.119759 
L 412.960887 -37.119759 
L 414.225624 -37.119759 
L 415.490362 -37.119759 
L 416.755099 -37.119759 
L 418.019837 -37.119759 
L 419.284574 -37.119759 
L 420.549312 -37.119759 
L 421.814049 -37.119759 
L 423.078786 -37.119759 
L 424.343524 -37.119759 
L 425.608261 -37.119759 
L 426.872999 -37.119759 
L 428.137736 -37.119759 
L 429.402474 -37.119759 
L 430.667211 -37.119759 
L 431.931949 -37.119759 
L 433.196686 -37.119759 
L 434.461423 -37.119759 
L 435.726161 -37.119759 
L 436.990898 -37.119759 
L 438.255636 -37.119759 
L 439.520373 -37.119759 
L 440.785111 -37.119759 
L 442.049848 -37.119759 
L 443.314585 -37.119759 
L 444.579323 -37.119759 
L 445.84406 -37.119759 
L 447.108798 -37.119759 
L 448.373535 -37.119759 
L 449.638273 -37.119759 
L 450.90301 -37.119759 
L 452.167748 -37.119759 
L 453.432485 -37.119759 
L 454.697222 -37.119759 
L 455.96196 -37.119759 
L 457.226697 -37.119759 
L 458.491435 -37.119759 
L 459.756172 -37.119759 
L 461.02091 -37.119759 
L 462.285647 -37.119759 
L 463.550385 -37.119759 
L 464.815122 -37.119759 
L 466.079859 -37.119759 
L 467.344597 -37.119759 
L 468.609334 -37.119759 
L 469.874072 -37.119759 
L 471.138809 -37.119759 
L 472.403547 -37.119759 
L 473.668284 -37.119759 
L 474.933022 -37.119759 
L 476.197759 -37.119759 
L 477.462496 -37.119759 
L 478.727234 -37.119759 
L 479.991971 -37.119759 
L 481.256709 -37.119759 
L 482.521446 -37.119759 
L 483.786184 -37.119759 
L 485.050921 -37.119759 
L 486.315659 -37.119759 
L 487.580396 -37.119759 
L 488.845133 -37.119759 
L 490.109871 -37.119759 
L 491.374608 -37.119759 
L 492.639346 -37.119759 
L 493.904083 -37.119759 
L 495.168821 -37.119759 
L 496.433558 -37.119759 
L 497.698296 -37.119759 
L 498.963033 -37.119759 
L 500.22777 -37.119759 
L 501.492508 -37.119759 
L 502.757245 -37.119759 
L 504.021983 -37.119759 
L 505.28672 -37.119759 
L 506.551458 -37.119759 
L 507.816195 -37.119759 
L 509.080933 -37.119759 
L 510.34567 -37.119759 
L 511.610407 -37.119759 
L 511.610407 -37.537443 
L 511.610407 -37.537443 
L 510.34567 -37.563389 
L 509.080933 -37.585707 
L 507.816195 -37.603705 
L 506.551458 -37.616808 
L 505.28672 -37.624589 
L 504.021983 -37.62679 
L 502.757245 -37.623337 
L 501.492508 -37.614345 
L 500.22777 -37.600113 
L 498.963033 -37.581103 
L 497.698296 -37.557918 
L 496.433558 -37.531273 
L 495.168821 -37.501954 
L 493.904083 -37.470782 
L 492.639346 -37.438577 
L 491.374608 -37.40612 
L 490.109871 -37.374129 
L 488.845133 -37.343233 
L 487.580396 -37.313959 
L 486.315659 -37.28672 
L 485.050921 -37.261819 
L 483.786184 -37.239456 
L 482.521446 -37.219734 
L 481.256709 -37.202678 
L 479.991971 -37.188255 
L 478.727234 -37.176387 
L 477.462496 -37.166975 
L 476.197759 -37.159915 
L 474.933022 -37.155113 
L 473.668284 -37.152498 
L 472.403547 -37.152029 
L 471.138809 -37.153706 
L 469.874072 -37.157567 
L 468.609334 -37.163687 
L 467.344597 -37.172174 
L 466.079859 -37.18316 
L 464.815122 -37.196789 
L 463.550385 -37.213205 
L 462.285647 -37.232533 
L 461.02091 -37.254871 
L 459.756172 -37.280269 
L 458.491435 -37.308723 
L 457.226697 -37.34016 
L 455.96196 -37.374438 
L 454.697222 -37.411344 
L 453.432485 -37.450603 
L 452.167748 -37.491883 
L 450.90301 -37.534819 
L 449.638273 -37.579023 
L 448.373535 -37.624112 
L 447.108798 -37.669726 
L 445.84406 -37.715542 
L 444.579323 -37.761292 
L 443.314585 -37.806761 
L 442.049848 -37.85179 
L 440.785111 -37.896259 
L 439.520373 -37.940073 
L 438.255636 -37.983128 
L 436.990898 -38.025287 
L 435.726161 -38.066349 
L 434.461423 -38.106023 
L 433.196686 -38.143906 
L 431.931949 -38.179485 
L 430.667211 -38.212135 
L 429.402474 -38.241144 
L 428.137736 -38.265751 
L 426.872999 -38.285192 
L 425.608261 -38.298755 
L 424.343524 -38.305847 
L 423.078786 -38.306049 
L 421.814049 -38.299172 
L 420.549312 -38.285297 
L 419.284574 -38.264798 
L 418.019837 -38.238348 
L 416.755099 -38.206903 
L 415.490362 -38.171663 
L 414.225624 -38.13402 
L 412.960887 -38.095491 
L 411.696149 -38.057637 
L 410.431412 -38.021989 
L 409.166675 -37.989967 
L 407.901937 -37.962818 
L 406.6372 -37.941558 
L 405.372462 -37.926937 
L 404.107725 -37.919421 
L 402.842987 -37.919192 
L 401.57825 -37.926172 
L 400.313512 -37.940056 
L 399.048775 -37.960358 
L 397.784038 -37.986471 
L 396.5193 -38.017728 
L 395.254563 -38.053457 
L 393.989825 -38.093035 
L 392.725088 -38.13594 
L 391.46035 -38.181774 
L 390.195613 -38.23029 
L 388.930875 -38.281397 
L 387.666138 -38.335145 
L 386.401401 -38.391713 
L 385.136663 -38.451368 
L 383.871926 -38.514435 
L 382.607188 -38.581249 
L 381.342451 -38.652117 
L 380.077713 -38.727286 
L 378.812976 -38.806915 
L 377.548238 -38.891067 
L 376.283501 -38.97972 
L 375.018764 -39.07279 
L 373.754026 -39.170184 
L 372.489289 -39.271865 
L 371.224551 -39.377945 
L 369.959814 -39.488778 
L 368.695076 -39.605078 
L 367.430339 -39.728029 
L 366.165601 -39.859397 
L 364.900864 -40.00163 
L 363.636127 -40.157942 
L 362.371389 -40.332376 
L 361.106652 -40.529845 
L 359.841914 -40.756132 
L 358.577177 -41.017879 
L 357.312439 -41.322525 
L 356.047702 -41.678232 
L 354.782965 -42.093767 
L 353.518227 -42.578366 
L 352.25349 -43.141562 
L 350.988752 -43.792973 
L 349.724015 -44.542067 
L 348.459277 -45.397871 
L 347.19454 -46.368632 
L 345.929802 -47.461422 
L 344.665065 -48.681688 
L 343.400328 -50.032735 
L 342.13559 -51.515165 
L 340.870853 -53.126285 
L 339.606115 -54.859503 
L 338.341378 -56.703767 
L 337.07664 -58.643079 
L 335.811903 -60.656148 
L 334.547165 -62.716245 
L 333.282428 -64.791304 
L 332.017691 -66.844329 
L 330.752953 -68.834138 
L 329.488216 -70.716439 
L 328.223478 -72.44525 
L 326.958741 -73.974584 
L 325.694003 -75.260351 
L 324.429266 -76.262353 
L 323.164528 -76.946263 
L 321.899791 -77.285441 
L 320.635054 -77.262474 
L 319.370316 -76.870295 
L 318.105579 -76.112813 
L 316.840841 -75.004972 
L 315.576104 -73.572233 
L 314.311366 -71.849497 
L 313.046629 -69.879551 
L 311.781891 -67.711118 
L 310.517154 -65.39666 
z
" style="stroke: #b64342; stroke-opacity: 0.06"/>
    </defs>
    <g clip-path="url(#pfccd9591f1)">
     <use xlink:href="#mfe7098823d" x="0" y="183.070991" style="fill: #b64342; fill-opacity: 0.06; stroke: #b64342; stroke-opacity: 0.06"/>
    </g>
   </g>
   <g id="matplotlib.axis_3">
    <g id="xtick_6">
     <g id="line2d_21">
      <g>
       <use xlink:href="#mb08b46c68e" x="317.965052" y="151.872788" style="stroke: #000000; stroke-width: 0.8"/>
      </g>
     </g>
     <g id="text_20">
      <text style="font-size: 7px; font-family: 'Times New Roman', 'DejaVu Serif'; text-anchor: middle" x="317.965052" y="163.233413" transform="rotate(-0 317.965052 163.233413)">0</text>
     </g>
    </g>
    <g id="xtick_7">
     <g id="line2d_22">
      <g>
       <use xlink:href="#mb08b46c68e" x="360.776138" y="151.872788" style="stroke: #000000; stroke-width: 0.8"/>
      </g>
     </g>
     <g id="text_21">
      <text style="font-size: 7px; font-family: 'Times New Roman', 'DejaVu Serif'; text-anchor: middle" x="360.776138" y="163.233413" transform="rotate(-0 360.776138 163.233413)">500</text>
     </g>
    </g>
    <g id="xtick_8">
     <g id="line2d_23">
      <g>
       <use xlink:href="#mb08b46c68e" x="403.587224" y="151.872788" style="stroke: #000000; stroke-width: 0.8"/>
      </g>
     </g>
     <g id="text_22">
      <text style="font-size: 7px; font-family: 'Times New Roman', 'DejaVu Serif'; text-anchor: middle" x="403.587224" y="163.233413" transform="rotate(-0 403.587224 163.233413)">1000</text>
     </g>
    </g>
    <g id="xtick_9">
     <g id="line2d_24">
      <g>
       <use xlink:href="#mb08b46c68e" x="446.398309" y="151.872788" style="stroke: #000000; stroke-width: 0.8"/>
      </g>
     </g>
     <g id="text_23">
      <text style="font-size: 7px; font-family: 'Times New Roman', 'DejaVu Serif'; text-anchor: middle" x="446.398309" y="163.233413" transform="rotate(-0 446.398309 163.233413)">1500</text>
     </g>
    </g>
    <g id="xtick_10">
     <g id="line2d_25">
      <g>
       <use xlink:href="#mb08b46c68e" x="489.209395" y="151.872788" style="stroke: #000000; stroke-width: 0.8"/>
      </g>
     </g>
     <g id="text_24">
      <text style="font-size: 7px; font-family: 'Times New Roman', 'DejaVu Serif'; text-anchor: middle" x="489.209395" y="163.233413" transform="rotate(-0 489.209395 163.233413)">2000</text>
     </g>
    </g>
    <g id="text_25">
     <text style="font-size: 7.5px; font-family: 'Songti SC', 'Arial Unicode MS'; text-anchor: middle" x="411.063781" y="174.828022" transform="rotate(-0 411.063781 174.828022)">最终损益</text>
    </g>
   </g>
   <g id="matplotlib.axis_4">
    <g id="ytick_7">
     <g id="line2d_26">
      <g>
       <use xlink:href="#m0d21fdad63" x="300.462491" y="145.951232" style="stroke: #000000; stroke-width: 0.8"/>
      </g>
     </g>
     <g id="text_26">
      <text style="font-size: 7px; font-family: 'Times New Roman', 'DejaVu Serif'; text-anchor: end" x="293.962491" y="148.381544" transform="rotate(-0 293.962491 148.381544)">0.000</text>
     </g>
    </g>
    <g id="ytick_8">
     <g id="line2d_27">
      <g>
       <use xlink:href="#m0d21fdad63" x="300.462491" y="128.197842" style="stroke: #000000; stroke-width: 0.8"/>
      </g>
     </g>
     <g id="text_27">
      <text style="font-size: 7px; font-family: 'Times New Roman', 'DejaVu Serif'; text-anchor: end" x="293.962491" y="130.628155" transform="rotate(-0 293.962491 130.628155)">0.001</text>
     </g>
    </g>
    <g id="ytick_9">
     <g id="line2d_28">
      <g>
       <use xlink:href="#m0d21fdad63" x="300.462491" y="110.444453" style="stroke: #000000; stroke-width: 0.8"/>
      </g>
     </g>
     <g id="text_28">
      <text style="font-size: 7px; font-family: 'Times New Roman', 'DejaVu Serif'; text-anchor: end" x="293.962491" y="112.874766" transform="rotate(-0 293.962491 112.874766)">0.002</text>
     </g>
    </g>
    <g id="ytick_10">
     <g id="line2d_29">
      <g>
       <use xlink:href="#m0d21fdad63" x="300.462491" y="92.691064" style="stroke: #000000; stroke-width: 0.8"/>
      </g>
     </g>
     <g id="text_29">
      <text style="font-size: 7px; font-family: 'Times New Roman', 'DejaVu Serif'; text-anchor: end" x="293.962491" y="95.121377" transform="rotate(-0 293.962491 95.121377)">0.003</text>
     </g>
    </g>
    <g id="ytick_11">
     <g id="line2d_30">
      <g>
       <use xlink:href="#m0d21fdad63" x="300.462491" y="74.937675" style="stroke: #000000; stroke-width: 0.8"/>
      </g>
     </g>
     <g id="text_30">
      <text style="font-size: 7px; font-family: 'Times New Roman', 'DejaVu Serif'; text-anchor: end" x="293.962491" y="77.367987" transform="rotate(-0 293.962491 77.367987)">0.004</text>
     </g>
    </g>
    <g id="ytick_12">
     <g id="line2d_31">
      <g>
       <use xlink:href="#m0d21fdad63" x="300.462491" y="57.184286" style="stroke: #000000; stroke-width: 0.8"/>
      </g>
     </g>
     <g id="text_31">
      <text style="font-size: 7px; font-family: 'Times New Roman', 'DejaVu Serif'; text-anchor: end" x="293.962491" y="59.614598" transform="rotate(-0 293.962491 59.614598)">0.005</text>
     </g>
    </g>
    <g id="ytick_13">
     <g id="line2d_32">
      <g>
       <use xlink:href="#m0d21fdad63" x="300.462491" y="39.430897" style="stroke: #000000; stroke-width: 0.8"/>
      </g>
     </g>
     <g id="text_32">
      <text style="font-size: 7px; font-family: 'Times New Roman', 'DejaVu Serif'; text-anchor: end" x="293.962491" y="41.861209" transform="rotate(-0 293.962491 41.861209)">0.006</text>
     </g>
    </g>
    <g id="ytick_14">
     <g id="line2d_33">
      <g>
       <use xlink:href="#m0d21fdad63" x="300.462491" y="21.677507" style="stroke: #000000; stroke-width: 0.8"/>
      </g>
     </g>
     <g id="text_33">
      <text style="font-size: 7px; font-family: 'Times New Roman', 'DejaVu Serif'; text-anchor: end" x="293.962491" y="24.10782" transform="rotate(-0 293.962491 24.10782)">0.007</text>
     </g>
    </g>
    <g id="text_34">
     <text style="font-size: 7.5px; font-family: 'Songti SC', 'Arial Unicode MS'; text-anchor: middle" x="273.169523" y="86.735672" transform="rotate(-90 273.169523 86.735672)">钱包密度</text>
    </g>
   </g>
   <g id="line2d_34">
    <path d="M 310.517154 132.991648 
L 311.781891 122.06637 
L 313.046629 106.099477 
L 314.311366 85.728795 
L 315.576104 63.479628 
L 316.840841 43.523526 
L 318.105579 30.455776 
L 319.370316 27.520111 
L 320.635054 35.199537 
L 321.899791 50.991259 
L 324.429266 89.178394 
L 325.694003 103.878249 
L 326.958741 113.431699 
L 328.223478 118.389964 
L 329.488216 120.231573 
L 330.752953 120.573291 
L 332.017691 120.691899 
L 333.282428 121.391202 
L 334.547165 123.060988 
L 335.811903 125.760799 
L 337.07664 129.271871 
L 339.606115 136.921818 
L 340.870853 140.114761 
L 342.13559 142.513205 
L 343.400328 144.111555 
L 344.665065 145.058987 
L 345.929802 145.559593 
L 347.19454 145.79581 
L 349.724015 145.933185 
L 362.371389 145.951232 
L 511.610407 145.951232 
L 511.610407 145.951232 
" clip-path="url(#pfccd9591f1)" style="fill: none; stroke: #0f4d92; stroke-width: 1.35; stroke-linecap: square"/>
   </g>
   <g id="line2d_35">
    <path d="M 310.517154 118.973404 
L 313.046629 114.90321 
L 314.311366 113.08482 
L 315.576104 111.464606 
L 316.840841 110.078396 
L 318.105579 108.956713 
L 319.370316 108.123551 
L 320.635054 107.595436 
L 321.899791 107.380823 
L 323.164528 107.479858 
L 324.429266 107.884521 
L 325.694003 108.579125 
L 326.958741 109.541135 
L 328.223478 110.742255 
L 329.488216 112.149702 
L 332.017691 115.438393 
L 335.811903 120.995757 
L 339.606115 126.499993 
L 342.13559 129.810244 
L 344.665065 132.702181 
L 347.19454 135.136492 
L 349.724015 137.125279 
L 352.25349 138.716195 
L 354.782965 139.976496 
L 357.312439 140.979072 
L 361.106652 142.144671 
L 364.900864 143.053455 
L 369.959814 144.021318 
L 375.018764 144.754295 
L 380.077713 145.221256 
L 383.871926 145.376195 
L 387.666138 145.35982 
L 392.725088 145.090739 
L 399.048775 144.472794 
L 406.6372 143.743198 
L 410.431412 143.579104 
L 414.225624 143.618353 
L 418.019837 143.851697 
L 424.343524 144.505342 
L 431.931949 145.283978 
L 438.255636 145.684219 
L 445.84406 145.886999 
L 459.756172 145.949359 
L 511.610407 145.951232 
L 511.610407 145.951232 
" clip-path="url(#pfccd9591f1)" style="fill: none; stroke: #8bcf8b; stroke-width: 1.35; stroke-linecap: square"/>
   </g>
   <g id="line2d_36">
    <path d="M 310.517154 116.475671 
L 313.046629 99.297614 
L 314.311366 90.599517 
L 315.576104 82.770051 
L 316.840841 76.537629 
L 318.105579 72.509395 
L 319.370316 71.066204 
L 320.635054 72.296892 
L 321.899791 75.988344 
L 323.164528 81.672946 
L 324.429266 88.719757 
L 328.223478 111.529554 
L 329.488216 118.041049 
L 330.752953 123.573453 
L 332.017691 128.084559 
L 333.282428 131.626596 
L 334.547165 134.3041 
L 335.811903 136.24014 
L 337.07664 137.554947 
L 338.341378 138.356607 
L 339.606115 138.740693 
L 340.870853 138.794591 
L 342.13559 138.602564 
L 344.665065 137.816703 
L 347.19454 137.026485 
L 348.459277 136.792996 
L 349.724015 136.72114 
L 350.988752 136.826131 
L 352.25349 137.104362 
L 353.518227 137.53722 
L 356.047702 138.746334 
L 362.371389 142.152746 
L 364.900864 143.05193 
L 367.430339 143.529725 
L 369.959814 143.695971 
L 373.754026 143.85157 
L 376.283501 144.142445 
L 386.401401 145.723755 
L 390.195613 145.897488 
L 399.048775 145.950789 
L 511.610407 145.951232 
L 511.610407 145.951232 
" clip-path="url(#pfccd9591f1)" style="fill: none; stroke: #d4a93b; stroke-width: 1.35; stroke-linecap: square"/>
   </g>
   <g id="line2d_37">
    <path d="M 310.517154 117.674331 
L 313.046629 113.191439 
L 314.311366 111.221494 
L 315.576104 109.498758 
L 316.840841 108.066018 
L 318.105579 106.958177 
L 319.370316 106.200696 
L 320.635054 105.808517 
L 321.899791 105.785549 
L 323.164528 106.124728 
L 324.429266 106.808637 
L 325.694003 107.81064 
L 326.958741 109.096407 
L 328.223478 110.625741 
L 330.752953 114.236853 
L 334.547165 120.354746 
L 338.341378 126.367223 
L 340.870853 129.944706 
L 343.400328 133.038256 
L 345.929802 135.609568 
L 348.459277 137.673119 
L 350.988752 139.278018 
L 353.518227 140.492624 
L 356.047702 141.392759 
L 358.577177 142.053112 
L 362.371389 142.738614 
L 367.430339 143.342961 
L 375.018764 143.9982 
L 383.871926 144.556556 
L 395.254563 145.017534 
L 402.842987 145.151799 
L 410.431412 145.049002 
L 424.343524 144.765144 
L 431.931949 144.891506 
L 450.90301 145.536172 
L 463.550385 145.857786 
L 476.197759 145.911075 
L 487.580396 145.757032 
L 505.28672 145.446402 
L 511.610407 145.533548 
L 511.610407 145.533548 
" clip-path="url(#pfccd9591f1)" style="fill: none; stroke: #b64342; stroke-width: 1.35; stroke-linecap: square"/>
   </g>
   <g id="line2d_38">
    <path d="M 317.965052 151.872788 
L 317.965052 21.598555 
" clip-path="url(#pfccd9591f1)" style="fill: none; stroke-dasharray: 0.8,1.32; stroke-dashoffset: 0; stroke: #767676; stroke-width: 0.8"/>
   </g>
   <g id="patch_6">
    <path d="M 300.462491 151.872788 
L 300.462491 21.598555 
" style="fill: none; stroke: #000000; stroke-width: 0.8; stroke-linejoin: miter; stroke-linecap: square"/>
   </g>
   <g id="patch_7">
    <path d="M 300.462491 151.872788 
L 521.66507 151.872788 
" style="fill: none; stroke: #000000; stroke-width: 0.8; stroke-linejoin: miter; stroke-linecap: square"/>
   </g>
   <g id="text_35">
    <text style="font-weight: 700; font-size: 9px; font-family: 'Times New Roman', 'DejaVu Serif'; text-anchor: start" x="265.070079" y="13.159688" transform="rotate(-0 265.070079 13.159688)">b</text>
   </g>
   <g id="text_36">
    <text style="font-size: 7.2px; font-family: 'Songti SC', 'Arial Unicode MS'; text-anchor: middle" x="411.063781" y="15.598555" transform="rotate(-0 411.063781 15.598555)">智能体数量扩展·特斯拉 Robotaxi</text>
   </g>
   <g id="legend_2">
    <g id="line2d_39">
     <path d="M 450.743758 28.268555 
L 455.383758 28.268555 
L 460.023758 28.268555 
" style="fill: none; stroke: #0f4d92; stroke-width: 1.35; stroke-linecap: square"/>
    </g>
    <g id="text_37">
     <text style="font-size: 5.8px; font-family: 'Times New Roman', 'DejaVu Serif'; text-anchor: start" x="464.663758" y="30.298555" transform="rotate(-0 464.663758 30.298555)">n=10</text>
    </g>
    <g id="line2d_40">
     <path d="M 450.743758 36.469212 
L 455.383758 36.469212 
L 460.023758 36.469212 
" style="fill: none; stroke: #8bcf8b; stroke-width: 1.35; stroke-linecap: square"/>
    </g>
    <g id="text_38">
     <text style="font-size: 5.8px; font-family: 'Times New Roman', 'DejaVu Serif'; text-anchor: start" x="464.663758" y="38.499212" transform="rotate(-0 464.663758 38.499212)">n=20</text>
    </g>
    <g id="line2d_41">
     <path d="M 488.234414 28.268555 
L 492.874414 28.268555 
L 497.514414 28.268555 
" style="fill: none; stroke: #d4a93b; stroke-width: 1.35; stroke-linecap: square"/>
    </g>
    <g id="text_39">
     <text style="font-size: 5.8px; font-family: 'Times New Roman', 'DejaVu Serif'; text-anchor: start" x="502.154414" y="30.298555" transform="rotate(-0 502.154414 30.298555)">n=50</text>
    </g>
    <g id="line2d_42">
     <path d="M 488.234414 36.469212 
L 492.874414 36.469212 
L 497.514414 36.469212 
" style="fill: none; stroke: #b64342; stroke-width: 1.35; stroke-linecap: square"/>
    </g>
    <g id="text_40">
     <text style="font-size: 5.8px; font-family: 'Times New Roman', 'DejaVu Serif'; text-anchor: start" x="502.154414" y="38.499212" transform="rotate(-0 502.154414 38.499212)">n=100</text>
    </g>
   </g>
  </g>
 </g>
 <defs>
  <clipPath id="pae1355cda8">
   <rect x="42.592413" y="21.598555" width="221.202579" height="130.274232"/>
  </clipPath>
  <clipPath id="pfccd9591f1">
   <rect x="300.462491" y="21.598555" width="221.202579" height="130.274232"/>
  </clipPath>
 </defs>
</svg>
