<?xml version="1.0" encoding="utf-8" standalone="no"?>
<!DOCTYPE svg PUBLIC "-//W3C//DTD SVG 1.1//EN"
  "http://www.w3.org/Graphics/SVG/1.1/DTD/svg11.dtd">
<svg xmlns:xlink="http://www.w3.org/1999/xlink" width="526.913126pt" height="211.464254pt" viewBox="0 0 526.913126 211.464254" xmlns="http://www.w3.org/2000/svg" version="1.1">
 <metadata>
  <rdf:RDF xmlns:dc="http://purl.org/dc/elements/1.1/" xmlns:cc="http://creativecommons.org/ns#" xmlns:rdf="http://www.w3.org/1999/02/22-rdf-syntax-ns#">
   <cc:Work>
    <dc:type rdf:resource="http://purl.org/dc/dcmitype/StillImage"/>
    <dc:date>2026-05-29T20:53:39.470005</dc:date>
    <dc:format>image/svg+xml</dc:format>
    <dc:creator>
     <cc:Agent>
      <dc:title>Matplotlib v3.10.9, https://matplotlib.org/</dc:title>
     </cc:Agent>
    </dc:creator>
   </cc:Work>
  </rdf:RDF>
 </metadata>
 <defs>
  <style type="text/css">*{stroke-linejoin: round; stroke-linecap: butt}</style>
 </defs>
 <g id="figure_1">
  <g id="patch_1">
   <path d="M 0 211.464254 
L 526.913126 211.464254 
L 526.913126 -0 
L 0 -0 
z
" style="fill: #ffffff"/>
  </g>
  <g id="axes_1">
   <g id="patch_2">
    <path d="M 33.530469 180.274254 
L 519.713126 180.274254 
L 519.713126 19.409766 
L 33.530469 19.409766 
z
" style="fill: #ffffff"/>
   </g>
   <g id="PathCollection_1">
    <defs>
     <path id="m6f3d1171a1" d="M 0 1.414214 
C 0.375054 1.414214 0.734797 1.265203 1 1 
C 1.265203 0.734797 1.414214 0.375054 1.414214 0 
C 1.414214 -0.375054 1.265203 -0.734797 1 -1 
C 0.734797 -1.265203 0.375054 -1.414214 0 -1.414214 
C -0.375054 -1.414214 -0.734797 -1.265203 -1 -1 
C -1.265203 -0.734797 -1.414214 -0.375054 -1.414214 0 
C -1.414214 0.375054 -1.265203 0.734797 -1 1 
C -0.734797 1.265203 -0.375054 1.414214 0 1.414214 
z
"/>
    </defs>
    <g clip-path="url(#p10f2ac27ba)">
     <use xlink:href="#m6f3d1171a1" x="55.62968" y="111.577375" style="fill: #4d4d4d; fill-opacity: 0.75"/>
     <use xlink:href="#m6f3d1171a1" x="78.008629" y="129.435005" style="fill: #4d4d4d; fill-opacity: 0.75"/>
     <use xlink:href="#m6f3d1171a1" x="100.387578" y="130.1938" style="fill: #4d4d4d; fill-opacity: 0.75"/>
     <use xlink:href="#m6f3d1171a1" x="122.766526" y="128.75929" style="fill: #4d4d4d; fill-opacity: 0.75"/>
     <use xlink:href="#m6f3d1171a1" x="145.145475" y="124.882237" style="fill: #4d4d4d; fill-opacity: 0.75"/>
     <use xlink:href="#m6f3d1171a1" x="167.524423" y="131.711389" style="fill: #4d4d4d; fill-opacity: 0.75"/>
     <use xlink:href="#m6f3d1171a1" x="189.903372" y="141.575721" style="fill: #4d4d4d; fill-opacity: 0.75"/>
     <use xlink:href="#m6f3d1171a1" x="212.28232" y="142.334516" style="fill: #4d4d4d; fill-opacity: 0.75"/>
     <use xlink:href="#m6f3d1171a1" x="234.661269" y="139.200588" style="fill: #4d4d4d; fill-opacity: 0.75"/>
     <use xlink:href="#m6f3d1171a1" x="257.040217" y="143.146556" style="fill: #4d4d4d; fill-opacity: 0.75"/>
     <use xlink:href="#m6f3d1171a1" x="279.419166" y="165.098352" style="fill: #4d4d4d; fill-opacity: 0.75"/>
     <use xlink:href="#m6f3d1171a1" x="301.798115" y="160.54559" style="fill: #4d4d4d; fill-opacity: 0.75"/>
     <use xlink:href="#m6f3d1171a1" x="324.177063" y="168.892337" style="fill: #4d4d4d; fill-opacity: 0.75"/>
     <use xlink:href="#m6f3d1171a1" x="346.556012" y="165.098359" style="fill: #4d4d4d; fill-opacity: 0.75"/>
     <use xlink:href="#m6f3d1171a1" x="368.93496" y="169.651127" style="fill: #4d4d4d; fill-opacity: 0.75"/>
     <use xlink:href="#m6f3d1171a1" x="391.313909" y="173.445095" style="fill: #4d4d4d; fill-opacity: 0.75"/>
     <use xlink:href="#m6f3d1171a1" x="413.692857" y="173.59686" style="fill: #4d4d4d; fill-opacity: 0.75"/>
     <use xlink:href="#m6f3d1171a1" x="436.071806" y="172.382788" style="fill: #4d4d4d; fill-opacity: 0.75"/>
     <use xlink:href="#m6f3d1171a1" x="458.450755" y="172.574861" style="fill: #4d4d4d; fill-opacity: 0.75"/>
    </g>
   </g>
   <g id="matplotlib.axis_1">
    <g id="xtick_1">
     <g id="line2d_1">
      <defs>
       <path id="m12c1399419" d="M 0 0 
L 0 3 
" style="stroke: #000000; stroke-width: 0.8"/>
      </defs>
      <g>
       <use xlink:href="#m12c1399419" x="55.62968" y="180.274254" style="stroke: #000000; stroke-width: 0.8"/>
      </g>
     </g>
     <g id="text_1">
      <text style="font-size: 7px; font-family: 'Times New Roman', 'DejaVu Serif'; text-anchor: middle" x="55.62968" y="191.634879" transform="rotate(-0 55.62968 191.634879)">0</text>
     </g>
    </g>
    <g id="xtick_2">
     <g id="line2d_2">
      <g>
       <use xlink:href="#m12c1399419" x="106.142164" y="180.274254" style="stroke: #000000; stroke-width: 0.8"/>
      </g>
     </g>
     <g id="text_2">
      <text style="font-size: 7px; font-family: 'Times New Roman', 'DejaVu Serif'; text-anchor: middle" x="106.142164" y="191.634879" transform="rotate(-0 106.142164 191.634879)">8</text>
     </g>
    </g>
    <g id="xtick_3">
     <g id="line2d_3">
      <g>
       <use xlink:href="#m12c1399419" x="156.654648" y="180.274254" style="stroke: #000000; stroke-width: 0.8"/>
      </g>
     </g>
     <g id="text_3">
      <text style="font-size: 7px; font-family: 'Times New Roman', 'DejaVu Serif'; text-anchor: middle" x="156.654648" y="191.634879" transform="rotate(-0 156.654648 191.634879)">16</text>
     </g>
    </g>
    <g id="xtick_4">
     <g id="line2d_4">
      <g>
       <use xlink:href="#m12c1399419" x="207.167132" y="180.274254" style="stroke: #000000; stroke-width: 0.8"/>
      </g>
     </g>
     <g id="text_4">
      <text style="font-size: 7px; font-family: 'Times New Roman', 'DejaVu Serif'; text-anchor: middle" x="207.167132" y="191.634879" transform="rotate(-0 207.167132 191.634879)">24</text>
     </g>
    </g>
    <g id="xtick_5">
     <g id="line2d_5">
      <g>
       <use xlink:href="#m12c1399419" x="257.679616" y="180.274254" style="stroke: #000000; stroke-width: 0.8"/>
      </g>
     </g>
     <g id="text_5">
      <text style="font-size: 7px; font-family: 'Times New Roman', 'DejaVu Serif'; text-anchor: middle" x="257.679616" y="191.634879" transform="rotate(-0 257.679616 191.634879)">32</text>
     </g>
    </g>
    <g id="xtick_6">
     <g id="line2d_6">
      <g>
       <use xlink:href="#m12c1399419" x="308.1921" y="180.274254" style="stroke: #000000; stroke-width: 0.8"/>
      </g>
     </g>
     <g id="text_6">
      <text style="font-size: 7px; font-family: 'Times New Roman', 'DejaVu Serif'; text-anchor: middle" x="308.1921" y="191.634879" transform="rotate(-0 308.1921 191.634879)">40</text>
     </g>
    </g>
    <g id="xtick_7">
     <g id="line2d_7">
      <g>
       <use xlink:href="#m12c1399419" x="358.704584" y="180.274254" style="stroke: #000000; stroke-width: 0.8"/>
      </g>
     </g>
     <g id="text_7">
      <text style="font-size: 7px; font-family: 'Times New Roman', 'DejaVu Serif'; text-anchor: middle" x="358.704584" y="191.634879" transform="rotate(-0 358.704584 191.634879)">48</text>
     </g>
    </g>
    <g id="xtick_8">
     <g id="line2d_8">
      <g>
       <use xlink:href="#m12c1399419" x="409.217068" y="180.274254" style="stroke: #000000; stroke-width: 0.8"/>
      </g>
     </g>
     <g id="text_8">
      <text style="font-size: 7px; font-family: 'Times New Roman', 'DejaVu Serif'; text-anchor: middle" x="409.217068" y="191.634879" transform="rotate(-0 409.217068 191.634879)">56</text>
     </g>
    </g>
    <g id="xtick_9">
     <g id="line2d_9">
      <g>
       <use xlink:href="#m12c1399419" x="459.729552" y="180.274254" style="stroke: #000000; stroke-width: 0.8"/>
      </g>
     </g>
     <g id="text_9">
      <text style="font-size: 7px; font-family: 'Times New Roman', 'DejaVu Serif'; text-anchor: middle" x="459.729552" y="191.634879" transform="rotate(-0 459.729552 191.634879)">64</text>
     </g>
    </g>
    <g id="xtick_10">
     <g id="line2d_10">
      <g>
       <use xlink:href="#m12c1399419" x="510.242036" y="180.274254" style="stroke: #000000; stroke-width: 0.8"/>
      </g>
     </g>
     <g id="text_10">
      <text style="font-size: 7px; font-family: 'Times New Roman', 'DejaVu Serif'; text-anchor: middle" x="510.242036" y="191.634879" transform="rotate(-0 510.242036 191.634879)">72</text>
     </g>
    </g>
    <g id="text_11">
     <text style="font-size: 7.5px; font-family: 'Songti SC', 'Arial Unicode MS'; text-anchor: middle" x="276.621797" y="203.221285" transform="rotate(-0 276.621797 203.221285)">累积成交笔数</text>
    </g>
   </g>
   <g id="matplotlib.axis_2">
    <g id="ytick_1">
     <g id="line2d_11">
      <defs>
       <path id="m000996c9fe" d="M 0 0 
L -3 0 
" style="stroke: #000000; stroke-width: 0.8"/>
      </defs>
      <g>
       <use xlink:href="#m000996c9fe" x="33.530469" y="175.721485" style="stroke: #000000; stroke-width: 0.8"/>
      </g>
     </g>
     <g id="text_12">
      <text style="font-size: 7px; font-family: 'Times New Roman', 'DejaVu Serif'; text-anchor: end" x="27.030469" y="178.151798" transform="rotate(-0 27.030469 178.151798)">0.0</text>
     </g>
    </g>
    <g id="ytick_2">
     <g id="line2d_12">
      <g>
       <use xlink:href="#m000996c9fe" x="33.530469" y="145.369695" style="stroke: #000000; stroke-width: 0.8"/>
      </g>
     </g>
     <g id="text_13">
      <text style="font-size: 7px; font-family: 'Times New Roman', 'DejaVu Serif'; text-anchor: end" x="27.030469" y="147.800008" transform="rotate(-0 27.030469 147.800008)">0.2</text>
     </g>
    </g>
    <g id="ytick_3">
     <g id="line2d_13">
      <g>
       <use xlink:href="#m000996c9fe" x="33.530469" y="115.017905" style="stroke: #000000; stroke-width: 0.8"/>
      </g>
     </g>
     <g id="text_14">
      <text style="font-size: 7px; font-family: 'Times New Roman', 'DejaVu Serif'; text-anchor: end" x="27.030469" y="117.448217" transform="rotate(-0 27.030469 117.448217)">0.4</text>
     </g>
    </g>
    <g id="ytick_4">
     <g id="line2d_14">
      <g>
       <use xlink:href="#m000996c9fe" x="33.530469" y="84.666115" style="stroke: #000000; stroke-width: 0.8"/>
      </g>
     </g>
     <g id="text_15">
      <text style="font-size: 7px; font-family: 'Times New Roman', 'DejaVu Serif'; text-anchor: end" x="27.030469" y="87.096427" transform="rotate(-0 27.030469 87.096427)">0.6</text>
     </g>
    </g>
    <g id="ytick_5">
     <g id="line2d_15">
      <g>
       <use xlink:href="#m000996c9fe" x="33.530469" y="54.314324" style="stroke: #000000; stroke-width: 0.8"/>
      </g>
     </g>
     <g id="text_16">
      <text style="font-size: 7px; font-family: 'Times New Roman', 'DejaVu Serif'; text-anchor: end" x="27.030469" y="56.744637" transform="rotate(-0 27.030469 56.744637)">0.8</text>
     </g>
    </g>
    <g id="ytick_6">
     <g id="line2d_16">
      <g>
       <use xlink:href="#m000996c9fe" x="33.530469" y="23.962534" style="stroke: #000000; stroke-width: 0.8"/>
      </g>
     </g>
     <g id="text_17">
      <text style="font-size: 7px; font-family: 'Times New Roman', 'DejaVu Serif'; text-anchor: end" x="27.030469" y="26.392847" transform="rotate(-0 27.030469 26.392847)">1.0</text>
     </g>
    </g>
    <g id="text_18">
     <text style="font-size: 7.5px; font-family: 'Songti SC', 'Arial Unicode MS'; text-anchor: middle" x="13.2375" y="99.84201" transform="rotate(-90 13.2375 99.84201)">YES 价格</text>
    </g>
   </g>
   <g id="line2d_17">
    <path d="M 55.62968 69.490219 
L 93.514043 69.490219 
L 99.828104 69.490219 
L 99.828104 69.490219 
L 118.770285 69.490219 
L 144.026527 69.490219 
L 144.026527 69.490219 
L 150.340588 66.45504 
L 169.282769 61.902272 
L 207.167132 59.625888 
L 232.423374 59.625888 
L 270.307737 54.314324 
L 314.50616 54.314324 
L 346.076463 54.314324 
L 365.018644 73.284193 
L 377.646765 77.078167 
L 396.588947 71.007809 
L 415.531128 71.766604 
L 447.101431 75.560578 
L 459.729552 77.078167 
L 497.613915 79.354551 
" clip-path="url(#p10f2ac27ba)" style="fill: none; stroke: #0f4d92; stroke-width: 1.7; stroke-linecap: square"/>
   </g>
   <g id="line2d_18">
    <path d="M 55.62968 111.577375 
L 61.224418 78.595757 
L 66.819155 129.709591 
L 72.413892 131.711389 
L 78.008629 129.435005 
L 83.603366 130.1938 
L 89.198103 130.1938 
L 94.79284 130.1938 
L 100.387578 130.1938 
L 105.982315 130.1938 
L 111.577052 130.1938 
L 117.171789 130.1938 
L 122.766526 128.75929 
L 128.361263 127.765657 
L 133.956 127.158621 
L 139.550738 125.641031 
L 145.145475 124.882237 
L 150.740212 124.123468 
L 156.334949 128.67621 
L 161.929686 130.800836 
L 167.524423 131.711389 
L 173.11916 133.987774 
L 178.713898 139.299337 
L 184.308635 138.696281 
L 189.903372 141.575721 
L 195.498109 154.475232 
L 201.092846 147.646079 
L 206.687583 165.098359 
L 212.28232 142.334516 
L 217.877058 139.403999 
L 223.471795 142.334516 
L 229.066532 134.746568 
L 234.661269 139.200588 
L 240.256006 141.575734 
L 245.850743 148.074963 
L 251.44548 146.887285 
L 257.040217 143.146556 
L 262.634955 137.925373 
L 268.229692 155.99283 
L 273.824429 165.098355 
L 279.419166 165.098352 
L 285.013903 160.54559 
L 290.60864 155.992827 
L 296.203377 163.387982 
L 301.798115 160.54559 
L 307.392852 162.06318 
L 312.987589 165.857153 
L 318.582326 171.168717 
L 324.177063 168.892337 
L 329.7718 172.686306 
L 335.366537 164.825257 
L 340.961275 160.54559 
L 346.556012 165.098359 
L 352.150749 165.098359 
L 357.745486 168.351238 
L 363.340223 169.651127 
L 368.93496 169.651127 
L 374.529697 172.989824 
L 380.124435 172.386305 
L 385.719172 174.055387 
L 391.313909 173.445095 
L 396.908646 172.04783 
L 402.503383 174.150398 
L 408.09812 174.017516 
L 413.692857 173.59686 
L 419.287595 173.949927 
L 424.882332 171.648432 
L 430.477069 174.262269 
L 436.071806 172.382788 
L 441.666543 171.95644 
L 447.26128 172.533438 
L 452.856017 174.507414 
L 458.450755 172.574861 
L 464.045492 174.355655 
L 469.640229 174.355655 
L 475.234966 173.299993 
" clip-path="url(#p10f2ac27ba)" style="fill: none; stroke: #4d4d4d; stroke-opacity: 0.9; stroke-width: 1.35; stroke-linecap: square"/>
   </g>
   <g id="line2d_19">
    <path d="M 480.829703 180.274254 
L 480.829703 19.409766 
" clip-path="url(#p10f2ac27ba)" style="fill: none; stroke-dasharray: 5.12,1.28,0.8,1.28; stroke-dashoffset: 0; stroke: #4d4d4d; stroke-opacity: 0.75; stroke-width: 0.8"/>
   </g>
   <g id="line2d_20">
    <path d="M 33.530469 175.721485 
L 519.713126 175.721485 
" clip-path="url(#p10f2ac27ba)" style="fill: none; stroke-dasharray: 3.33,1.44; stroke-dashoffset: 0; stroke: #b64342; stroke-width: 0.9"/>
   </g>
   <g id="line2d_21">
    <path d="M 33.530469 72.614669 
L 519.713126 72.614669 
" clip-path="url(#p10f2ac27ba)" style="fill: none; stroke-dasharray: 0.8,1.32; stroke-dashoffset: 0; stroke: #767676; stroke-width: 0.8"/>
   </g>
   <g id="patch_3">
    <path d="M 33.530469 180.274254 
L 33.530469 19.409766 
" style="fill: none; stroke: #000000; stroke-width: 0.8; stroke-linejoin: miter; stroke-linecap: square"/>
   </g>
   <g id="patch_4">
    <path d="M 33.530469 180.274254 
L 519.713126 180.274254 
" style="fill: none; stroke: #000000; stroke-width: 0.8; stroke-linejoin: miter; stroke-linecap: square"/>
   </g>
   <g id="text_19">
    <text style="font-size: 7.5px; font-family: 'Songti SC', 'Arial Unicode MS'; text-anchor: middle" x="276.621797" y="13.409766" transform="rotate(-0 276.621797 13.409766)">SpaceX星舰第11次试飞助推器回收</text>
   </g>
   <g id="legend_1">
    <g id="line2d_22">
     <path d="M 38.490469 27.190766 
L 43.450469 27.190766 
L 48.410469 27.190766 
" style="fill: none; stroke: #0f4d92; stroke-width: 1.7; stroke-linecap: square"/>
    </g>
    <g id="text_20">
     <text style="font-size: 6.2px; font-family: 'Songti SC', 'Arial Unicode MS'; text-anchor: start" x="53.370469" y="29.360766" transform="rotate(-0 53.370469 29.360766)">模拟市场价格</text>
    </g>
    <g id="line2d_23">
     <path d="M 38.490469 36.143953 
L 43.450469 36.143953 
L 48.410469 36.143953 
" style="fill: none; stroke: #4d4d4d; stroke-opacity: 0.9; stroke-width: 1.35; stroke-linecap: square"/>
    </g>
    <g id="text_21">
     <text style="font-size: 6.2px; font-family: 'Songti SC', 'Arial Unicode MS'; text-anchor: start" x="53.370469" y="38.313953" transform="rotate(-0 53.370469 38.313953)">真实市场价格</text>
    </g>
    <g id="line2d_24">
     <path d="M 38.490469 45.128141 
L 43.450469 45.128141 
L 48.410469 45.128141 
" style="fill: none; stroke-dasharray: 5.12,1.28,0.8,1.28; stroke-dashoffset: 0; stroke: #4d4d4d; stroke-opacity: 0.75; stroke-width: 0.8"/>
    </g>
    <g id="text_22">
     <text style="font-size: 6.2px; font-family: 'Songti SC', 'Arial Unicode MS'; text-anchor: start" x="53.370469" y="47.298141" transform="rotate(-0 53.370469 47.298141)">事件结束</text>
    </g>
   </g>
  </g>
 </g>
 <defs>
  <clipPath id="p10f2ac27ba">
   <rect x="33.530469" y="19.409766" width="486.182657" height="160.864488"/>
  </clipPath>
 </defs>
</svg>
